<svg xmlns="http://www.w3.org/2000/svg" width="78" height="78" viewBox="0 0 78 78">
  <g id="Grupo_55839" data-name="Grupo 55839" transform="translate(98)">
    <rect id="Rectángulo_29645" data-name="Rectángulo 29645" width="78" height="78" transform="translate(-98)" fill="none"/>
    <g id="Grupo_55839-2" data-name="Grupo 55839">
      <path id="Trazado_118238" data-name="Trazado 118238" d="M-71.054,58.691c-.817,1.875-2.576,2.01-4.02,2.01-1.793,0-3.4-1.768-4.058-4.414l-2.009-10.048a2.011,2.011,0,0,0-1.971-1.615c-2.009,0-2.009,0-2.016-3.852.631-7.564,2.413-10.372,5.281-12.664a2.027,2.027,0,0,0,.352-.365c.045-.06.1-.123.144-.184a9.958,9.958,0,0,0,4.277.988,9.97,9.97,0,0,0,4.02-.856V22.979a5.984,5.984,0,0,1-4.02,1.549A6.035,6.035,0,0,1-81.1,18.5a6.035,6.035,0,0,1,6.028-6.028A6.04,6.04,0,0,1-69.386,16.5l4.094-.008a10.232,10.232,0,0,0-9.782-8.038A10.047,10.047,0,0,0-85.121,18.5a9.967,9.967,0,0,0,2.556,6.637C-86.649,28.5-88.5,32.82-89.141,40.6c0,3.381,0,7.167,4.356,7.909l1.733,8.654c1.147,4.589,4.278,7.552,7.978,7.552a6.839,6.839,0,0,0,4.02-1.33Z" fill="#fe7062"/>
      <path id="Trazado_118239" data-name="Trazado 118239" d="M-46.938,63.4a6.863,6.863,0,0,0,4.017,1.324c3.7,0,6.832-2.963,8-7.644l1.712-8.562c4.356-.744,4.355-4.545,4.349-8.076-.635-7.621-2.484-11.941-6.57-15.3A9.968,9.968,0,0,0-32.873,18.5,10.048,10.048,0,0,0-42.921,8.452,10.234,10.234,0,0,0-52.7,16.49h4.1a6.039,6.039,0,0,1,5.684-4.018A6.035,6.035,0,0,1-36.892,18.5a6.036,6.036,0,0,1-6.029,6.029,5.982,5.982,0,0,1-4.019-1.549l.009,4.716a9.957,9.957,0,0,0,4.01.852,9.958,9.958,0,0,0,4.277-.988c.048.062.1.125.145.186a2.022,2.022,0,0,0,.353.363c2.867,2.292,4.65,5.1,5.274,12.5,0,4.019,0,4.019-2.011,4.019a2.01,2.01,0,0,0-1.97,1.615l-1.988,9.956c-.685,2.738-2.286,4.506-4.08,4.506a5.433,5.433,0,0,1-4.018-2.01Z" fill="#fe7062"/>
      <path id="Trazado_118240" data-name="Trazado 118240" d="M-44.935,48.477c-.636-7.621-2.485-11.942-6.57-15.3a9.966,9.966,0,0,0,2.556-6.636A10.048,10.048,0,0,0-59,16.49,10.048,10.048,0,0,0-69.045,26.538a9.97,9.97,0,0,0,2.557,6.637c-4.085,3.361-5.934,7.685-6.576,15.468,0,3.382,0,7.167,4.356,7.909l1.733,8.655c1.147,4.586,4.278,7.551,7.977,7.551h0c3.7,0,6.834-2.963,8-7.643l1.712-8.563C-44.928,55.809-44.928,52.007-44.935,48.477ZM-59,18.472a7.463,7.463,0,0,1,7.455,7.455A7.464,7.464,0,0,1-59,33.382a7.464,7.464,0,0,1-7.455-7.455A7.463,7.463,0,0,1-59,18.472Zm9.116,34.257a2.278,2.278,0,0,0-2.233,1.831l-2.252,11.284c-.776,3.106-2.593,5.11-4.627,5.11s-3.85-2-4.6-5L-65.876,54.56a2.278,2.278,0,0,0-2.233-1.831c-2.279,0-2.279,0-2.286-4.368C-69.681,39.788-67.659,36.6-64.407,34a2.312,2.312,0,0,0,.4-.411c.051-.069.11-.14.164-.209a11.355,11.355,0,0,0,1.423.538l1.907,2.86-3.038,7.594L-59,50.45l4.556-6.075-3.038-7.594,1.907-2.86a11.388,11.388,0,0,0,1.425-.539c.054.069.113.141.164.21a2.317,2.317,0,0,0,.4.411c3.25,2.6,5.272,5.785,5.98,14.169C-47.6,52.729-47.6,52.729-49.884,52.729Z" fill="#fe7062"/>
    </g>
  </g>
</svg>
