<svg xmlns="http://www.w3.org/2000/svg" width="64" height="46.016" viewBox="0 0 64 46.016">
  <g id="Grupo_55843" data-name="Grupo 55843" transform="translate(-1163 -4393.39)">
    <path id="Trazado_118237" data-name="Trazado 118237" d="M70.409,33.686l-15.7-15.7a2.017,2.017,0,0,0-2.855,0L44.711,25.12a2.018,2.018,0,0,0,0,2.855L46.736,30,43.8,32.94a8.079,8.079,0,0,0-8.9-.477l-3.046-3.047,1.441-1.441a2.018,2.018,0,0,0,0-2.855l-7.138-7.138a2.017,2.017,0,0,0-2.855,0l-15.7,15.7a2.019,2.019,0,0,0,0,2.855L14.73,43.68a2.019,2.019,0,0,0,2.855,0l1.441-1.442,3.247,3.248c-.862,3.291,2.3,8.012,6.03,11.74a27.941,27.941,0,0,0,6.617,5.053,8.769,8.769,0,0,0,3.943,1.127,4.058,4.058,0,0,0,2.979-1.18L44.7,59.371h0l5.4-5.4c.107.006.213.031.321.031a6.015,6.015,0,0,0,4.888-9.552l2.937-2.936,2.169,2.17a2.019,2.019,0,0,0,2.855,0l7.139-7.139A2.019,2.019,0,0,0,70.409,33.686ZM8.75,34.809,24.418,19.14l7.231,7.231L15.98,42.039ZM54.209,50.688a2.27,2.27,0,0,1-3.178.059l-.058-.059-.012.012c-.006-.006-.013-.007-.018-.012l-4.854-4.957a2.234,2.234,0,0,0-3.206,0,2.349,2.349,0,0,0,0,3.273l4.855,4.956.016.014-3.268,3.338-4.87-4.972a2.234,2.234,0,0,0-3.206,0,2.348,2.348,0,0,0,0,3.272l4.871,4.973-.016.016,0,0-1.59,1.627c-.68.31-4.223-.924-8.959-5.759s-5.939-8.455-5.664-9.12a2.347,2.347,0,0,0,0-3.272L20.2,39.122l8.122-8.291,4.853,4.955c.009.009.02.011.028.019l-.552.564a3.525,3.525,0,0,0,0,4.91,3.35,3.35,0,0,0,4.808,0L42.035,36.6a3.406,3.406,0,0,0,.643-.989c.067.06.141.1.2.17L54.208,47.351a2.4,2.4,0,0,1,0,3.337Zm7.507-8.649L46.07,26.955,53.527,19.5,68.979,34.776Z" transform="translate(1156 4376)" fill="#fe7062"/>
    <circle id="Elipse_4186" data-name="Elipse 4186" cx="2" cy="2" r="2" transform="translate(1167.68 4409.39)" fill="#fe7062"/>
    <circle id="Elipse_4187" data-name="Elipse 4187" cx="2" cy="2" r="2" transform="translate(1215 4409.39)" fill="#fe7062"/>
  </g>
</svg>
