<svg xmlns="http://www.w3.org/2000/svg" xmlns:xlink="http://www.w3.org/1999/xlink" width="396" height="190" viewBox="0 0 396 190">
  <defs>
    <linearGradient id="linear-gradient" x1="1.151" y1="-138.221" x2="1.977" y2="-138.221" gradientUnits="objectBoundingBox">
      <stop offset="0" stop-color="#b180fb"/>
      <stop offset="1" stop-color="#f597e4"/>
    </linearGradient>
    <linearGradient id="linear-gradient-2" x1="29.804" y1="-1024.725" x2="31.211" y2="-1024.725" xlink:href="#linear-gradient"/>
    <linearGradient id="linear-gradient-3" x1="32.515" y1="-1091.129" x2="33.312" y2="-1091.129" xlink:href="#linear-gradient"/>
    <linearGradient id="linear-gradient-4" x1="1.569" y1="-130.145" x2="2.436" y2="-130.145" xlink:href="#linear-gradient"/>
    <linearGradient id="linear-gradient-5" x1="44.503" y1="-1007.058" x2="45.937" y2="-1007.058" xlink:href="#linear-gradient"/>
    <linearGradient id="linear-gradient-6" x1="44.851" y1="-1374.628" x2="45.676" y2="-1374.628" xlink:href="#linear-gradient"/>
    <linearGradient id="linear-gradient-7" x1="1.988" y1="-306.619" x2="2.732" y2="-306.619" xlink:href="#linear-gradient"/>
    <linearGradient id="linear-gradient-8" x1="2.968" y1="-193.91" x2="4.014" y2="-193.91" xlink:href="#linear-gradient"/>
    <linearGradient id="linear-gradient-9" x1="65.468" y1="-1297.377" x2="67.089" y2="-1297.377" xlink:href="#linear-gradient"/>
    <linearGradient id="linear-gradient-10" y1="0.5" x2="1" y2="0.5" gradientUnits="objectBoundingBox">
      <stop offset="0" stop-color="#04075d"/>
      <stop offset="1" stop-color="#181492"/>
    </linearGradient>
    <linearGradient id="linear-gradient-12" x1="-100.716" y1="-35.712" x2="-100.715" y2="-36.122" xlink:href="#linear-gradient-10"/>
    <linearGradient id="linear-gradient-13" x1="-180.056" y1="-33.377" x2="-180.054" y2="-33.741" xlink:href="#linear-gradient-10"/>
    <linearGradient id="linear-gradient-14" x1="-41.491" y1="-1.583" x2="-41.472" y2="-1.583" xlink:href="#linear-gradient-10"/>
    <linearGradient id="linear-gradient-15" x1="-908.493" y1="-34.428" x2="-933.896" y2="-35.553" xlink:href="#linear-gradient-10"/>
    <linearGradient id="linear-gradient-16" x1="-568.672" y1="-13.982" x2="-568.341" y2="-13.982" gradientUnits="objectBoundingBox">
      <stop offset="0" stop-color="#ff4742"/>
      <stop offset="1" stop-color="#ff615e"/>
    </linearGradient>
    <linearGradient id="linear-gradient-17" x1="-121.89" y1="-3.722" x2="-121.831" y2="-3.722" xlink:href="#linear-gradient-16"/>
    <linearGradient id="linear-gradient-18" x1="-0.281" y1="0.954" x2="1.881" y2="-0.303" xlink:href="#linear-gradient-10"/>
    <linearGradient id="linear-gradient-19" x1="0.51" y1="0.128" x2="0.757" y2="-20.755" xlink:href="#linear-gradient-10"/>
    <linearGradient id="linear-gradient-20" x1="0.34" y1="4.039" x2="0.537" y2="-0.315" xlink:href="#linear-gradient-10"/>
    <linearGradient id="linear-gradient-21" x1="-1.626" y1="65.409" x2="-2.365" y2="67.845" gradientUnits="objectBoundingBox">
      <stop offset="0" stop-color="#2c3780"/>
      <stop offset="1" stop-color="#151041"/>
    </linearGradient>
    <linearGradient id="linear-gradient-22" x1="0.733" y1="0.134" x2="0.333" y2="0.8" xlink:href="#linear-gradient-10"/>
    <linearGradient id="linear-gradient-23" x1="-408.412" y1="-0.331" x2="-409.285" y2="5.156" gradientUnits="objectBoundingBox">
      <stop offset="0" stop-color="#5ad7fc"/>
      <stop offset="1" stop-color="#3a49f2"/>
    </linearGradient>
    <linearGradient id="linear-gradient-24" x1="-124.093" y1="4.3" x2="-124.097" y2="2.584" gradientUnits="objectBoundingBox">
      <stop offset="0" stop-color="#fbf252"/>
      <stop offset="0.665" stop-color="#e27a5c"/>
      <stop offset="1" stop-color="#d63f66"/>
    </linearGradient>
    <linearGradient id="linear-gradient-25" y1="0.5" x2="1" y2="0.5" gradientUnits="objectBoundingBox">
      <stop offset="0" stop-color="#9ffff9"/>
      <stop offset="1" stop-color="#9efff8"/>
    </linearGradient>
    <linearGradient id="linear-gradient-30" x1="941.065" y1="-13.89" x2="938.228" y2="-7.502" xlink:href="#linear-gradient-21"/>
    <linearGradient id="linear-gradient-31" x1="2328.56" y1="-18.072" x2="2321.54" y2="-10.509" xlink:href="#linear-gradient-21"/>
    <linearGradient id="linear-gradient-32" x1="315.568" y1="525.008" x2="315.772" y2="526.191" xlink:href="#linear-gradient-10"/>
  </defs>
  <g id="Grupo_56177" data-name="Grupo 56177" transform="translate(-930 -397)">
    <rect id="Rectángulo_29501" data-name="Rectángulo 29501" width="396" height="190" transform="translate(930 397)" fill="none"/>
    <g id="Grupo_56176" data-name="Grupo 56176" transform="translate(959.707 397)">
      <g id="Grupo_56175" data-name="Grupo 56175" transform="translate(0 0)">
        <g id="Grupo_56150" data-name="Grupo 56150" transform="translate(129.652 13.083)">
          <g id="Grupo_56145" data-name="Grupo 56145" transform="translate(34.137 2)">
            <g id="Grupo_56142" data-name="Grupo 56142" transform="translate(6.6)" opacity="0.3">
              <path id="Trazado_119528" data-name="Trazado 119528" d="M190.022,31.892a.9.9,0,0,1-.1-1.2c.614-.811,1.273-1.607,1.956-2.367a.9.9,0,0,1,1.272-.067l.013.012a.9.9,0,0,1,.054,1.26c-.65.722-1.275,1.478-1.859,2.249a.9.9,0,0,1-1.262.174C190.069,31.933,190.046,31.912,190.022,31.892Zm5.4-5.69a.779.779,0,0,1-.074-.077.9.9,0,0,1,.107-1.269c.781-.659,1.6-1.291,2.428-1.878a.9.9,0,1,1,1.041,1.47c-.788.559-1.565,1.158-2.306,1.785A.9.9,0,0,1,195.425,26.2Zm6.522-4.358a.885.885,0,0,1-.185-.244.9.9,0,0,1,.387-1.213c.906-.468,1.844-.9,2.787-1.29a.9.9,0,1,1,.685,1.665c-.9.369-1.786.781-2.646,1.225A.9.9,0,0,1,201.947,21.843Zm7.334-2.791a.891.891,0,0,1-.256-.433.9.9,0,0,1,.649-1.1c.988-.253,2-.467,3-.635a.9.9,0,0,1,.3,1.777c-.956.159-1.916.362-2.855.6A.9.9,0,0,1,209.281,19.053Zm7.771-1.086a.9.9,0,0,1,.591-1.558c1.018-.028,2.051-.012,3.07.047a.9.9,0,1,1-.1,1.8c-.969-.056-1.95-.071-2.917-.045A.9.9,0,0,1,217.052,17.967Zm7.818.661a.9.9,0,0,1,.79-1.542c1,.2,2,.443,2.983.725a.9.9,0,1,1-.5,1.731c-.931-.269-1.885-.5-2.835-.689A.9.9,0,0,1,224.87,18.628Zm25.564,20.983a.885.885,0,0,1-.217-.314c-.37-.894-.783-1.784-1.23-2.645a.9.9,0,0,1,1.6-.829c.47.907.906,1.845,1.3,2.787a.9.9,0,0,1-1.448,1ZM232.343,21a.9.9,0,0,1,.983-1.48c.931.416,1.854.877,2.747,1.371a.9.9,0,0,1-.873,1.576c-.847-.47-1.724-.908-2.608-1.3A.9.9,0,0,1,232.343,21Zm14.295,11.741a.906.906,0,0,1-.12-.136c-.561-.789-1.163-1.565-1.79-2.3a.9.9,0,1,1,1.374-1.165c.66.779,1.294,1.6,1.885,2.425a.9.9,0,0,1-1.349,1.18Zm-7.54-7.757a.9.9,0,0,1,1.158-1.376c.813.613,1.611,1.269,2.371,1.951l.014.013a.9.9,0,0,1-1.217,1.327c-.722-.647-1.479-1.271-2.252-1.853A.871.871,0,0,1,239.1,24.988Z" transform="translate(-189.738 -16.396)" fill="url(#linear-gradient)"/>
              <path id="Trazado_119529" data-name="Trazado 119529" d="M261.861,49.7a.89.89,0,0,1-.265-.468c-.1-.454-.205-.913-.321-1.366a.9.9,0,0,1,1.744-.448c.123.476.237.959.339,1.437a.9.9,0,0,1-1.5.846Z" transform="translate(-199.287 -20.448)" fill="url(#linear-gradient-2)"/>
            </g>
            <g id="Grupo_56143" data-name="Grupo 56143" transform="translate(0 40.85)" opacity="0.3">
              <path id="Trazado_119530" data-name="Trazado 119530" d="M255.92,80.85a.9.9,0,0,1-.131-1.16c.26-.385.516-.782.761-1.179a.9.9,0,1,1,1.534.944c-.258.419-.528.836-.8,1.242a.9.9,0,0,1-1.25.243A.964.964,0,0,1,255.92,80.85Z" transform="translate(-191.938 -65.484)" fill="url(#linear-gradient-3)"/>
              <path id="Trazado_119531" data-name="Trazado 119531" d="M193.307,85.887q-.454-.425-.9-.868a.9.9,0,1,1,1.275-1.273c.681.682,1.389,1.334,2.111,1.947a.9.9,0,0,1-1.165,1.374C194.184,86.689,193.738,86.291,193.307,85.887Zm-4.02-4.454a.865.865,0,0,1-.1-.114c-.607-.8-1.188-1.636-1.725-2.482a.9.9,0,1,1,1.521-.964c.51.8,1.062,1.6,1.639,2.358a.9.9,0,0,1-1.332,1.2Zm9.163,8.44a.9.9,0,0,1,1.1-1.418c.8.51,1.638.994,2.484,1.436a.9.9,0,1,1-.834,1.6c-.891-.465-1.771-.974-2.617-1.511A.983.983,0,0,1,198.45,89.874ZM185.323,74.805a.9.9,0,0,1-.2-.283c-.417-.913-.8-1.856-1.137-2.8a.9.9,0,0,1,1.7-.607c.321.9.684,1.792,1.08,2.659a.9.9,0,0,1-1.436,1.031Zm20.058,18.461a.9.9,0,0,1,.919-1.506c.9.321,1.817.608,2.739.853a.9.9,0,1,1-.463,1.741c-.971-.258-1.942-.561-2.884-.9A.908.908,0,0,1,205.381,93.266Zm7.508,1.788a.9.9,0,0,1,.726-1.551c.946.118,1.909.2,2.861.236a.9.9,0,0,1-.074,1.8c-1-.041-2.015-.124-3.01-.249A.893.893,0,0,1,212.889,95.054Zm7.718.11a.9.9,0,0,1,.53-1.554c.951-.091,1.907-.224,2.844-.393a.9.9,0,1,1,.321,1.772c-.986.178-1.993.318-2.993.413A.9.9,0,0,1,220.607,95.164Zm7.559-1.576a.887.887,0,0,1-.24-.377.9.9,0,0,1,.576-1.136c.907-.3,1.811-.635,2.689-1.006a.9.9,0,1,1,.7,1.658c-.924.391-1.876.748-2.831,1.06A.9.9,0,0,1,228.166,93.588Zm7.031-3.2a.9.9,0,0,1,.153-1.431c.817-.488,1.625-1.017,2.4-1.573a.9.9,0,1,1,1.05,1.463c-.815.586-1.665,1.143-2.526,1.657A.9.9,0,0,1,235.2,90.39Zm6.152-4.662-.039-.039a.9.9,0,0,1,.036-1.274c.509-.482,1.01-.986,1.489-1.5q.26-.277.513-.56a.9.9,0,0,1,1.272-.07.891.891,0,0,1,.069,1.272q-.265.3-.539.589c-.5.538-1.031,1.068-1.567,1.575A.9.9,0,0,1,241.349,85.729Z" transform="translate(-182.362 -64.473)" fill="url(#linear-gradient-4)"/>
              <path id="Trazado_119532" data-name="Trazado 119532" d="M182.671,66.515a.9.9,0,0,1-.266-.473c-.1-.477-.191-.966-.272-1.451a.9.9,0,0,1,1.777-.3c.076.461.164.925.258,1.379a.9.9,0,0,1-1.5.841Z" transform="translate(-182.121 -63.542)" fill="url(#linear-gradient-5)"/>
            </g>
            <g id="Grupo_56144" data-name="Grupo 56144" transform="translate(8.574 8.657)">
              <path id="Trazado_119533" data-name="Trazado 119533" d="M192.017,54.756a.422.422,0,0,0,.256.416l4.719,1.994a22.349,22.349,0,0,0,2.307,6.854l-2.549,4.44a.421.421,0,0,0,.049.487l4.041,4.629a.42.42,0,0,0,.475.113l4.745-1.925a22.3,22.3,0,0,0,6.479,3.21l1.338,4.946a.422.422,0,0,0,.378.31l6.131.416a.422.422,0,0,0,.417-.256l1.994-4.719a22.313,22.313,0,0,0,6.853-2.307l4.441,2.549a.423.423,0,0,0,.487-.048l4.63-4.042a.42.42,0,0,0,.113-.475L237.392,66.6a22.324,22.324,0,0,0,3.21-6.479l4.946-1.339a.421.421,0,0,0,.31-.378l.416-6.131a.422.422,0,0,0-.256-.417L241.3,49.867a22.313,22.313,0,0,0-2.307-6.853l2.549-4.441a.421.421,0,0,0-.048-.486l-4.042-4.629a.419.419,0,0,0-.475-.114l-4.744,1.925a22.318,22.318,0,0,0-6.479-3.21l-1.338-4.946a.42.42,0,0,0-.378-.309l-6.131-.417a.422.422,0,0,0-.417.256L215.5,31.363a22.336,22.336,0,0,0-6.853,2.307L204.2,31.12a.42.42,0,0,0-.486.049l-4.629,4.041a.419.419,0,0,0-.114.475L200.9,40.43a22.3,22.3,0,0,0-3.21,6.479l-4.946,1.338a.424.424,0,0,0-.31.378Z" transform="translate(-192.016 -26.387)" fill="#83b5f9"/>
              <path id="Trazado_119534" data-name="Trazado 119534" d="M218.151,61.254a6.178,6.178,0,1,1,.706.57A6.079,6.079,0,0,1,218.151,61.254Zm7.467-7.959a4.736,4.736,0,1,0,.65,6.149,4.738,4.738,0,0,0-.65-6.149Z" transform="translate(-195.245 -29.616)" fill="#fff" opacity="0.56"/>
              <path id="Trazado_119535" data-name="Trazado 119535" d="M210.89,66.467a15.277,15.277,0,0,1-1.084-1.123h0c-.109-.124-.216-.25-.32-.378a15.152,15.152,0,0,1-1.385-2l-.017-.029c-.016-.027-.031-.054-.046-.081-.03-.053-.06-.106-.089-.159a.36.36,0,0,1,.051-.42.373.373,0,0,1,.089-.069.36.36,0,0,1,.49.141,14.482,14.482,0,0,0,23.255,2.872,14.469,14.469,0,1,0-24.348-14.335.348.348,0,0,1-.08.135.36.36,0,0,1-.606-.357,15.19,15.19,0,1,1,25.561,15.048,15.5,15.5,0,0,1-1.125,1.086,15.191,15.191,0,0,1-20.346-.331Z" transform="translate(-193.988 -28.228)" fill="#fff" opacity="0.56"/>
            </g>
          </g>
          <g id="Grupo_56149" data-name="Grupo 56149">
            <g id="Grupo_56146" data-name="Grupo 56146" transform="translate(2.187)" opacity="0.3">
              <path id="Trazado_119536" data-name="Trazado 119536" d="M145.423,29.709a.557.557,0,0,1-.117-.657c.213-.421.441-.842.678-1.251a.556.556,0,0,1,.962.559c-.226.39-.444.791-.646,1.193a.556.556,0,0,1-.747.247A.563.563,0,0,1,145.423,29.709Z" transform="translate(-145.246 -15.881)" fill="url(#linear-gradient-6)"/>
              <path id="Trazado_119537" data-name="Trazado 119537" d="M148.04,24.286a.557.557,0,0,1-.062-.743,24.272,24.272,0,0,1,1.58-1.87q.175-.187.356-.372a.576.576,0,0,1,.787-.01.558.558,0,0,1,.01.787q-.173.177-.341.356a23.09,23.09,0,0,0-1.506,1.782.557.557,0,0,1-.78.107C148.069,24.311,148.054,24.3,148.04,24.286Zm4.035-4.133a.439.439,0,0,1-.055-.059.555.555,0,0,1,.086-.782,24.115,24.115,0,0,1,2.419-1.707.557.557,0,0,1,.585.947,23.04,23.04,0,0,0-2.308,1.628A.555.555,0,0,1,152.075,20.153Zm4.916-3.031a.575.575,0,0,1-.126-.175.557.557,0,0,1,.276-.737,24.046,24.046,0,0,1,2.767-1.061.556.556,0,0,1,.334,1.061,22.9,22.9,0,0,0-2.638,1.011A.557.557,0,0,1,156.991,17.122Zm5.511-1.73a.557.557,0,0,1,.281-.953,24.214,24.214,0,0,1,2.942-.351.556.556,0,0,1,.062,1.111,23.174,23.174,0,0,0-2.8.334A.555.555,0,0,1,162.5,15.392Zm5.767-.331a.556.556,0,0,1,.416-.962,24.572,24.572,0,0,1,2.936.373.556.556,0,0,1-.207,1.093,23.063,23.063,0,0,0-2.8-.356A.551.551,0,0,1,168.269,15.061Zm5.671,1.078a.556.556,0,0,1,.55-.936,23.875,23.875,0,0,1,2.756,1.079.556.556,0,0,1-.469,1.009,22.709,22.709,0,0,0-2.628-1.028A.555.555,0,0,1,173.94,16.139Zm5.234,2.432a.557.557,0,0,1,.676-.878,24.186,24.186,0,0,1,2.409,1.723.557.557,0,0,1-.7.864,22.946,22.946,0,0,0-2.3-1.644A.586.586,0,0,1,179.174,18.571Zm6.355,5.849a.53.53,0,0,1-.066-.073,23.122,23.122,0,0,0-1.576-1.885c-.084-.091-.168-.18-.253-.268a.558.558,0,0,1,.015-.787.551.551,0,0,1,.787.015q.135.14.268.284a24.209,24.209,0,0,1,1.651,1.973.556.556,0,0,1-.825.74Z" transform="translate(-145.596 -14.087)" fill="url(#linear-gradient-7)"/>
            </g>
            <g id="Grupo_56147" data-name="Grupo 56147" transform="translate(0 27.296)" opacity="0.3">
              <path id="Trazado_119538" data-name="Trazado 119538" d="M150.42,60.68a.556.556,0,0,1,.755-.817,22.994,22.994,0,0,0,2.162,1.743.556.556,0,0,1-.645.907,24.225,24.225,0,0,1-2.267-1.828Zm-1.984-2.041a.491.491,0,0,1-.042-.043,24.352,24.352,0,0,1-1.767-2.316.556.556,0,1,1,.924-.62,23.151,23.151,0,0,0,1.685,2.209.556.556,0,0,1-.8.77Zm6.614,5.33a.556.556,0,0,1,.645-.9,23.138,23.138,0,0,0,2.521,1.17.556.556,0,0,1-.407,1.035,24.229,24.229,0,0,1-2.642-1.226A.546.546,0,0,1,155.05,63.97Zm-9.78-10.05a.564.564,0,0,1-.116-.155A23.956,23.956,0,0,1,144,51.089a.556.556,0,0,1,1.047-.378,22.733,22.733,0,0,0,1.1,2.551.557.557,0,0,1-.877.658Zm15.067,12.123a.557.557,0,0,1,.519-.945,22.921,22.921,0,0,0,2.727.529.556.556,0,0,1-.146,1.1,24.1,24.1,0,0,1-2.859-.555A.556.556,0,0,1,160.337,66.043Zm5.631.745a.556.556,0,0,1,.386-.963,23.338,23.338,0,0,0,2.775-.138.556.556,0,1,1,.122,1.106,24.5,24.5,0,0,1-2.91.145A.557.557,0,0,1,165.968,66.789Zm5.647-.626a.557.557,0,0,1,.253-.947,22.787,22.787,0,0,0,2.662-.8.556.556,0,1,1,.384,1.044,23.843,23.843,0,0,1-2.791.839A.556.556,0,0,1,171.615,66.162Z" transform="translate(-142.888 -46.225)" fill="url(#linear-gradient-8)"/>
              <path id="Trazado_119539" data-name="Trazado 119539" d="M143.167,47.916a.56.56,0,0,1-.162-.282c-.106-.464-.2-.934-.275-1.4a.556.556,0,0,1,1.1-.182c.073.44.161.888.262,1.331a.556.556,0,0,1-.923.529Z" transform="translate(-142.722 -45.59)" fill="url(#linear-gradient-9)"/>
            </g>
            <g id="Grupo_56148" data-name="Grupo 56148" transform="translate(5.692 5.708)">
              <path id="Trazado_119540" data-name="Trazado 119540" d="M149.292,39.657a.281.281,0,0,0,.171.278l3.158,1.334a14.932,14.932,0,0,0,1.543,4.585l-1.706,2.972a.281.281,0,0,0,.032.325l2.7,3.1a.284.284,0,0,0,.319.075l3.174-1.288a14.948,14.948,0,0,0,4.336,2.149l.9,3.309a.282.282,0,0,0,.253.207l4.1.278a.282.282,0,0,0,.279-.171l1.334-3.158a14.94,14.94,0,0,0,4.585-1.543l2.971,1.706a.283.283,0,0,0,.326-.032l3.1-2.7a.283.283,0,0,0,.076-.319l-1.289-3.174A14.927,14.927,0,0,0,181.8,43.25l3.309-.9a.284.284,0,0,0,.208-.253L185.6,38a.282.282,0,0,0-.172-.279l-3.157-1.334a14.963,14.963,0,0,0-1.543-4.585l1.705-2.971a.283.283,0,0,0-.032-.326l-2.7-3.1a.281.281,0,0,0-.318-.076L176.2,26.618a14.941,14.941,0,0,0-4.335-2.148l-.9-3.309a.282.282,0,0,0-.253-.208l-4.1-.278a.282.282,0,0,0-.278.172L165,24a14.96,14.96,0,0,0-4.586,1.543l-2.971-1.705a.281.281,0,0,0-.325.032l-3.1,2.7a.282.282,0,0,0-.075.318l1.288,3.175a14.943,14.943,0,0,0-2.149,4.335l-3.309.9a.28.28,0,0,0-.207.253Z" transform="translate(-149.291 -20.674)" fill="#83b5f9"/>
              <path id="Trazado_119541" data-name="Trazado 119541" d="M166.712,44.044a4.226,4.226,0,1,1,.486.392A4.174,4.174,0,0,1,166.712,44.044Zm5-5.325a3.1,3.1,0,1,0-3.879,4.8h0a3.1,3.1,0,0,0,3.879-4.8Z" transform="translate(-151.44 -22.824)" fill="#fff" opacity="0.56"/>
              <path id="Trazado_119542" data-name="Trazado 119542" d="M161.649,47.667q-.386-.361-.741-.767a10.577,10.577,0,0,1-1.234-1.742l-.047-.084a.555.555,0,0,1,.08-.649.566.566,0,0,1,.138-.107.557.557,0,0,1,.756.217,9.391,9.391,0,0,0,1.145,1.632h0l.072.082a9.271,9.271,0,0,0,3.8,2.572,9.42,9.42,0,0,0,2.467.526l.021,0,.063,0a9.306,9.306,0,0,0,6.794-2.288q.365-.32.693-.67a9.367,9.367,0,1,0-15.763-9.28.546.546,0,0,1-.123.208.556.556,0,0,1-.935-.551,10.454,10.454,0,0,1,2.311-3.918q.364-.387.766-.74a10.479,10.479,0,0,1,14.557,15.039,10.738,10.738,0,0,1-.775.749A10.5,10.5,0,0,1,161.649,47.667Z" transform="translate(-150.562 -21.857)" fill="#fff" opacity="0.56"/>
            </g>
          </g>
        </g>
        <path id="Trazado_119543" data-name="Trazado 119543" d="M239.364,120.53l-18.82,7.5-23.8-21.345L131.21,151.47v27.045H339.775V39.427l-87.139,94.566Z" transform="translate(-1.387 -17.388)" fill="#57dbd8"/>
        <g id="Grupo_56152" data-name="Grupo 56152" transform="translate(129.823 12.854)">
          <g id="Grupo_56151" data-name="Grupo 56151" transform="translate(0 8.368)">
            <path id="Trazado_119544" data-name="Trazado 119544" d="M334.233,23.481l-81.3,92.42-13.155-14.239-19.257,8.192L196.058,86.448l-64.848,47.28v5.683l64.607-47.1,24.1,23.058,19.145-8.144,13.921,15.069,84.373-95.914A32.64,32.64,0,0,1,334.233,23.481Z" transform="translate(-131.21 -23.481)" fill="#ff7267"/>
          </g>
          <path id="Trazado_119545" data-name="Trazado 119545" d="M377.1,13.823,357.92,19.648l12.689,11.379Z" transform="translate(-161.485 -13.823)" fill="#ff7267"/>
        </g>
        <g id="Grupo_56156" data-name="Grupo 56156" transform="translate(38.64 40.501)">
          <g id="Grupo_56155" data-name="Grupo 56155">
            <rect id="Rectángulo_29699" data-name="Rectángulo 29699" width="170.23" height="104.642" fill="#0c0236"/>
            <rect id="Rectángulo_29700" data-name="Rectángulo 29700" width="153.958" height="90.623" transform="translate(8.136 7.01)" fill="#fff"/>
            <path id="Trazado_119546" data-name="Trazado 119546" d="M169.547,148.862h-97.1s.482-36.59,12.4-41.848,19.894,21.209,25.5,21.559,5.114-21.668,13.277-24.933c21.034-8.413,18.886,24.758,22.743,24.407s7.316-30.63,12.62-30.63C172,97.417,169.547,148.862,169.547,148.862Z" transform="translate(-54.179 -59.741)" fill="#e3e5ec"/>
            <path id="Trazado_119547" data-name="Trazado 119547" d="M169.547,149.389h-97.1s2.454-31.2,14.374-36.458,17.177,19.981,22.786,20.332,10.867-17.528,19.631-18.229,14.724,20.683,18.579,20.332,5.913-34,11.218-34C169.547,101.362,169.547,149.389,169.547,149.389Z" transform="translate(-54.179 -60.268)" fill="#00c7e1"/>
            <path id="Trazado_119548" data-name="Trazado 119548" d="M169.547,151.778h-97.1s3.156-15.425,15.075-20.683,18.229,9.29,23.838,9.64,7.887-20.771,16.652-21.472,3.9,25.5,17.791,25.5c10.078,0,8.542-21.559,13.847-21.559C170.16,123.207,169.547,151.778,169.547,151.778Z" transform="translate(-54.179 -62.657)" fill="url(#linear-gradient-10)"/>
            <rect id="Rectángulo_29701" data-name="Rectángulo 29701" width="28.789" height="5.045" transform="translate(126.671 36.049)" fill="#e3e5ec"/>
            <rect id="Rectángulo_29702" data-name="Rectángulo 29702" width="28.789" height="5.045" transform="translate(126.671 47.276)" fill="#e3e5ec"/>
            <rect id="Rectángulo_29703" data-name="Rectángulo 29703" width="28.789" height="5.045" transform="translate(126.671 58.503)" fill="#00c7e1"/>
            <rect id="Rectángulo_29704" data-name="Rectángulo 29704" width="28.789" height="5.045" transform="translate(126.671 69.729)" fill="#e3e5ec"/>
            <rect id="Rectángulo_29705" data-name="Rectángulo 29705" width="28.789" height="5.045" transform="translate(126.671 80.956)" fill="#794ccb"/>
            <rect id="Rectángulo_29706" data-name="Rectángulo 29706" width="5.257" height="5.257" transform="translate(15.646 12.454)" fill="#00c7e1"/>
            <rect id="Rectángulo_29707" data-name="Rectángulo 29707" width="23.845" height="5.257" transform="translate(25.973 12.454)" fill="#e3e5ec"/>
            <rect id="Rectángulo_29708" data-name="Rectángulo 29708" width="5.257" height="5.257" transform="translate(15.646 21.279)" fill="#00c7e1"/>
            <rect id="Rectángulo_29709" data-name="Rectángulo 29709" width="23.845" height="5.257" transform="translate(25.973 21.279)" fill="#e3e5ec"/>
            <rect id="Rectángulo_29710" data-name="Rectángulo 29710" width="5.257" height="5.257" transform="translate(15.646 30.103)" fill="#00c7e1"/>
            <rect id="Rectángulo_29711" data-name="Rectángulo 29711" width="23.845" height="5.257" transform="translate(25.973 30.103)" fill="#e3e5ec"/>
            <rect id="Rectángulo_29712" data-name="Rectángulo 29712" width="74.858" height="7.322" transform="translate(80.603 12.454)" fill="#e3e5ec"/>
            <rect id="Rectángulo_29713" data-name="Rectángulo 29713" width="37.551" height="6.196" transform="translate(60.182 28.038)" fill="#e3e5ec"/>
            <g id="Grupo_56154" data-name="Grupo 56154" transform="translate(60.389 11.532)">
              <g id="Grupo_56153" data-name="Grupo 56153">
                <path id="Trazado_119549" data-name="Trazado 119549" d="M126.438,69.564c1.878.141,3.591.943,3.6,2.82l-3.131.018c-.021-.71-.749-.858-1.206-.854-.288,0-1.217.007-1.215.581.008,1.286,5.769-.084,5.791,3.552.013,2.183-1.69,3-3.788,3.17l.15,2.318-1.912.011.1-2.336c-1.947-.191-3.763-1.094-3.774-3.057l3.13-.018v.067c.022.863.987,1.027,1.477,1.024.475,0,1.4-.042,1.4-.668-.007-1.337-5.769-.084-5.791-3.6-.011-2.03,1.558-2.819,3.5-3l-.132-2.334,1.911-.012Z" transform="translate(-121.06 -67.244)" fill="#00c7e1"/>
              </g>
            </g>
            <path id="Trazado_119550" data-name="Trazado 119550" d="M140.455,72.561l-2.945-5.733-2.945,5.733h2.021v8.564h1.873V72.561Z" transform="translate(-62.475 -55.656)" fill="url(#linear-gradient-10)"/>
          </g>
        </g>
        <g id="Grupo_56165" data-name="Grupo 56165" transform="translate(162.654 53.972)">
          <g id="Grupo_56137" data-name="Grupo 56137" transform="translate(73.724)">
            <g id="Grupo_56135" data-name="Grupo 56135" transform="translate(15.429 56.578)">
              <path id="Trazado_119513" data-name="Trazado 119513" d="M285.655,209.526a30.654,30.654,0,0,1,.371,3.22,1.387,1.387,0,0,1-1.25,1.466c-2.583.25-8.471.714-12.229.172a.628.628,0,0,1-.349-1.086,19.515,19.515,0,0,1,11.45-4.865Z" transform="translate(-271.994 -150.508)" fill="url(#linear-gradient-12)"/>
              <path id="Trazado_119514" data-name="Trazado 119514" d="M288.556,205.65l-1.307,3.2a1.068,1.068,0,0,1-1.1.663,5.818,5.818,0,0,1-1.067-.21,1.4,1.4,0,0,1-.933-1.745l.988-3.3Z" transform="translate(-273.61 -149.951)" fill="#f7ccb1"/>
              <path id="Trazado_119515" data-name="Trazado 119515" d="M314.469,212.639a13.718,13.718,0,0,0-3.637,5,1.2,1.2,0,0,0,1.134,1.587h5.388a1.271,1.271,0,0,0,1.275-1.265,1.254,1.254,0,0,0-.019-.221C318.265,215.8,317.276,212.647,314.469,212.639Z" transform="translate(-277.172 -151.069)" fill="url(#linear-gradient-13)"/>
              <path id="Trazado_119516" data-name="Trazado 119516" d="M318.162,209.287s-.529,2.34-.936,3.887a.494.494,0,0,1-.6.351l-.042-.013a4.492,4.492,0,0,0-1.961-.356.382.382,0,0,1-.418-.342c0-.013,0-.026,0-.038l-.051-3.888Z" transform="translate(-277.624 -150.568)" fill="#f7ccb1"/>
              <path id="Trazado_119517" data-name="Trazado 119517" d="M300.259,147.633l-15.923,48.578s3.054,2,4.509,1.917l18.91-39.037s3.31,24.055,1.706,41.325l5.418.413s8.808-44.132,2.137-59.249Z" transform="translate(-273.643 -141.58)" fill="url(#linear-gradient-14)"/>
              <path id="Trazado_119518" data-name="Trazado 119518" d="M311.131,160.5h.02a.154.154,0,0,0,.133-.172l-.618-4.9a.154.154,0,0,0-.306.038l.618,4.905A.153.153,0,0,0,311.131,160.5Z" transform="translate(-277.118 -143.412)" fill="url(#linear-gradient-15)"/>
            </g>
            <path id="Trazado_119519" data-name="Trazado 119519" d="M296.879,99.233s12.9,1.145,11.076,10.337A125.317,125.317,0,0,1,318.42,138.8a.929.929,0,0,1-.721,1.1l-.034.007-21.484,3.679a1.157,1.157,0,0,1-1.315-.851l-5.133-19.839-2,9.224-6.353-1.657,5.35-27.1S287.475,99.4,296.879,99.233Z" transform="translate(-257.819 -79.346)" fill="#ff7267"/>
            <path id="Trazado_119520" data-name="Trazado 119520" d="M290.594,124.2a.157.157,0,0,0,.035,0,.161.161,0,0,0,.122-.191l-1.791-8.223a.16.16,0,1,0-.313.069l1.791,8.224A.16.16,0,0,0,290.594,124.2Z" transform="translate(-258.789 -81.54)" fill="url(#linear-gradient-16)"/>
            <path id="Trazado_119521" data-name="Trazado 119521" d="M291.707,151.575a3.069,3.069,0,0,1,2.218-.289l1.495.373a.541.541,0,0,0,.656-.394.49.49,0,0,0,.013-.071l1.547-13.768a12.656,12.656,0,0,0,5.644.742L299.72,154.4H287.261Z" transform="translate(-258.605 -84.447)" fill="#f7ccb1"/>
            <path id="Trazado_119522" data-name="Trazado 119522" d="M254.188,117.846l.376-1.251a2.476,2.476,0,0,1,1.447-1.583l6.81-2.739s.1-.874-1.438-1.467a2.049,2.049,0,0,1-1.182-2.32s2.106.96,5.19,2.484a7.22,7.22,0,0,1,3.279,3.569l15.43,18.814-1.812,1.244a4.838,4.838,0,0,1-6.727-1.247,4.787,4.787,0,0,1-.287-.474l-8.36-16.032A31.146,31.146,0,0,1,254.188,117.846Z" transform="translate(-254.188 -80.582)" fill="#f7ccb1"/>
            <path id="Trazado_119523" data-name="Trazado 119523" d="M303.484,135.1a15.471,15.471,0,0,0,1.578-.074l.114-.013,4.7-21.9a.16.16,0,0,0-.313-.069l-4.646,21.675c-.7.062-4.432.309-6.4-1.087l4.07-19.028-.85-1.6a.16.16,0,1,0-.283.15l.8,1.5-4.088,19.116.082.061C299.657,134.9,301.952,135.1,303.484,135.1Z" transform="translate(-260.059 -81.174)" fill="url(#linear-gradient-17)"/>
            <g id="Grupo_56136" data-name="Grupo 56136" transform="translate(22.79)">
              <path id="Trazado_118723" data-name="Trazado 118723" d="M297.068,83.146l3.3,14.608c.511,2.261-7.812,4.522-8.49,2.195h0l-.008-.028c-.513-1.754-.955-3.381-.955-3.381A4.128,4.128,0,0,1,286.46,93.7c-.477-1.556-1.191-4.812-1.815-7.805a6.6,6.6,0,0,1,4.609-7.664l.151-.044a6.366,6.366,0,0,1,7.628,4.776C297.044,83.028,297.056,83.088,297.068,83.146Z" transform="translate(-281.027 -76.515)" fill="#f7ccb1"/>
              <path id="Trazado_118724" data-name="Trazado 118724" d="M291.883,98.974a8.013,8.013,0,0,0,3.954-2.486,4.212,4.212,0,0,1-3.7,3.337Z" transform="translate(-282.012 -78.98)" fill="#e97447"/>
              <path id="Trazado_118730" data-name="Trazado 118730" d="M293.648,80.557h0a2.726,2.726,0,0,1,1.5,1.4l.019.07c.4.9.663,1.865,1.074,2.766a4.467,4.467,0,0,0,1.9,2.2c.366.184.929.217,1.064-.164a.825.825,0,0,0-.006-.465c-.489-2.323-.458-4.521-1.152-6.9a2.1,2.1,0,0,0-1.31-1.386c-.6-.209-1.316-.4-1.793.023a9.577,9.577,0,0,0-1.187,2.23" transform="translate(-282.247 -76.491)" fill="#1b2e35"/>
              <path id="Trazado_118731" data-name="Trazado 118731" d="M298.226,85.973c.049-.04,2.066-1.335,2.657.953a1.762,1.762,0,0,1-1.839,2.333C299.021,89.2,298.226,85.973,298.226,85.973Z" transform="translate(-282.859 -77.522)" fill="#ff986d"/>
              <path id="Trazado_118732" data-name="Trazado 118732" d="M299.672,88.314s.049.016.122.033a.41.41,0,0,0,.295-.087,1.013,1.013,0,0,0,.228-1,1.368,1.368,0,0,0-.257-.539.467.467,0,0,0-.378-.226.208.208,0,0,0-.209.168c-.014.069.031.107,0,.12s-.06-.026-.067-.123a.285.285,0,0,1,.055-.168.322.322,0,0,1,.205-.112.573.573,0,0,1,.5.246,1.348,1.348,0,0,1,.3.6,1.058,1.058,0,0,1-.327,1.134.414.414,0,0,1-.375.032C299.693,88.368,299.666,88.321,299.672,88.314Z" transform="translate(-283.016 -77.631)" fill="#e97447"/>
              <path id="Trazado_118733" data-name="Trazado 118733" d="M293.35,78.221c.295-1.064-1.606-1.914-2.821-1.939s-2.527.947-3.523,1.637a6.421,6.421,0,0,1-1.977,1.15,5.191,5.191,0,0,1-1.536.055,3.791,3.791,0,0,0-1.527.136,1.418,1.418,0,0,0-.977,1.1.888.888,0,0,0,.786.977h0a.93.93,0,0,0,.12.005,1.154,1.154,0,1,0,.306,2.138c-.391-.15-.751.389-.611.784a1.213,1.213,0,0,0,1.035.622,4.364,4.364,0,0,0,2.995-.928c.878-.611,1.632-1.386,2.492-2.025s2.294-1.74,3.364-1.681c.787.043,1.521.762,1.863.454a1.422,1.422,0,0,0,.419-1.221,4.04,4.04,0,0,0-.419-1.275" transform="translate(-280.49 -76.281)" fill="#1b2e35"/>
              <path id="Trazado_118734" data-name="Trazado 118734" d="M281.768,81.467c.02-.005.165.133.484.325a3.221,3.221,0,0,0,1.484.432,2.98,2.98,0,0,0,2.128-.714,10.782,10.782,0,0,0,1.687-2.32,4.861,4.861,0,0,1,2.184-1.937,2.718,2.718,0,0,1,2.374.114,2.05,2.05,0,0,1,.95,1.293,1.635,1.635,0,0,1,.021.426c-.014.1-.029.152-.038.149a3.256,3.256,0,0,0-.076-.57,2.011,2.011,0,0,0-.923-1.171,2.582,2.582,0,0,0-2.21-.058,4.767,4.767,0,0,0-2.061,1.9,10.321,10.321,0,0,1-1.745,2.353,3.186,3.186,0,0,1-3.8.186,1.865,1.865,0,0,1-.338-.28C281.812,81.509,281.768,81.471,281.768,81.467Z" transform="translate(-280.661 -76.382)" fill="#375a65"/>
              <path id="Trazado_118735" data-name="Trazado 118735" d="M298.344,84.867a.619.619,0,0,1-.255-.189,1.581,1.581,0,0,1-.345-.765c-.165-.739.253-1.709.039-2.733a2.32,2.32,0,0,0-.646-1.273,1.766,1.766,0,0,0-1.047-.481,1.594,1.594,0,0,0-.783.117,1.7,1.7,0,0,1-.27.139.721.721,0,0,1,.23-.218,1.477,1.477,0,0,1,.838-.2,1.881,1.881,0,0,1,1.186.489,2.49,2.49,0,0,1,.726,1.385A4.391,4.391,0,0,1,298,82.683a4.451,4.451,0,0,0-.08,1.208A1.786,1.786,0,0,0,298.344,84.867Z" transform="translate(-282.433 -76.679)" fill="#375a65"/>
            </g>
          </g>
          <g id="Grupo_56161" data-name="Grupo 56161" transform="translate(21.795 19.966)">
            <g id="Grupo_56157" data-name="Grupo 56157" transform="translate(37.29 68.119)">
              <rect id="Rectángulo_29714" data-name="Rectángulo 29714" width="2.325" height="25.144" transform="translate(11.237 5.634)" fill="url(#linear-gradient-18)"/>
              <path id="Trazado_119551" data-name="Trazado 119551" d="M260.216,213.79H239.852a1.514,1.514,0,0,1,1.514-1.514H258.7a1.514,1.514,0,0,1,1.514,1.514Z" transform="translate(-237.635 -182.527)" fill="url(#linear-gradient-19)"/>
              <rect id="Rectángulo_29715" data-name="Rectángulo 29715" width="25.604" height="7.262" rx="2.886" fill="url(#linear-gradient-20)"/>
            </g>
            <g id="Grupo_56158" data-name="Grupo 56158" transform="translate(2.497 52.265)">
              <path id="Trazado_119552" data-name="Trazado 119552" d="M230.528,165.1a20.233,20.233,0,0,0-7.339,3.132,1.934,1.934,0,0,0-.854,1.851,82.074,82.074,0,0,0,8.684,27.256,2.933,2.933,0,0,1,.282,2.012l-1.1,5.1-2.032,1.905h5.233l3.485-9.431-1.49-.47a2.82,2.82,0,0,1-1.969-2.64l-.175-10.115a11.511,11.511,0,0,0-2.763-7.616l8.358-.407Z" transform="translate(-200.5 -160.373)" fill="#f7b68d"/>
              <path id="Trazado_119553" data-name="Trazado 119553" d="M226.712,212.1c-.477.624,5.129,1.447,7.962.083,0,0,3.927-6.832,3.927-10.349,0,0-.312-.717-2.618-.555,0,0-1.318,8.088-2.71,8.995s-3.895.092-3.895.092A8.19,8.19,0,0,0,226.712,212.1Z" transform="translate(-201.083 -165.202)" fill="#ff7267"/>
              <path id="Trazado_119554" data-name="Trazado 119554" d="M234.8,176.426c-.045-.077-9-1.077-9-1.077a20.7,20.7,0,0,1-.623,6.471c-.916,3.747-14.063,19.986-14.063,19.986l1.379,4.37a22.177,22.177,0,0,1-12.58.756l8.543-5.126s7.995-27.247,12.892-32.107l8.976-3.105Z" transform="translate(-197.508 -160.573)" fill="#f7ccb1"/>
              <path id="Trazado_119555" data-name="Trazado 119555" d="M258.2,159.645s5.159,7.673,5.582,11.173-1.413,4.923-6.826,5.157-19.864.23-19.864.23l-12.333-10.54s8.988-3.207,11.325-4.114S258.2,159.645,258.2,159.645Z" transform="translate(-200.826 -159.645)" fill="#ff7267"/>
              <path id="Trazado_119556" data-name="Trazado 119556" d="M211.6,210.577a2.524,2.524,0,0,1,.482,3.037s-11.757,2.084-14.949,1.139c0,0,.663-1.513,4.258-3.234l-.265.2a.429.429,0,0,0,.283.77C203.781,212.357,208.683,211.923,211.6,210.577Z" transform="translate(-197.137 -166.447)" fill="#ff7267"/>
            </g>
            <g id="Grupo_56159" data-name="Grupo 56159" transform="translate(32.491)">
              <path id="Trazado_119557" data-name="Trazado 119557" d="M236.343,116.1c0,.716,6.439,27.189,6.439,27.189l18.346,5.4a8.242,8.242,0,0,0,9.3-3.516h0a16.582,16.582,0,0,0-5.207-22.875l-2.6-1.633a48.775,48.775,0,0,1-14.062-13.41l-.978-1.4Z" transform="translate(-232.366 -100.196)" fill="#1b2e35"/>
              <path id="Trazado_119558" data-name="Trazado 119558" d="M269.48,142.273a.075.075,0,0,1-.038-.139c2.17-1.3,2.378-4.265,2.366-5.478a14.223,14.223,0,0,0-1.849-6.874c-2.134-3.762-5.829-6.321-9.4-8.8l-.74-.513c-3.652-2.54-7.685-5.625-9.328-10.093a.076.076,0,0,1,.044-.1.074.074,0,0,1,.1.044c1.627,4.428,5.64,7.495,9.273,10.022l.74.513c3.586,2.484,7.295,5.052,9.447,8.844a14.389,14.389,0,0,1,1.868,6.948c.011,1.238-.2,4.263-2.439,5.607A.08.08,0,0,1,269.48,142.273Z" transform="translate(-234.255 -100.788)" fill="#fff"/>
              <path id="Trazado_119559" data-name="Trazado 119559" d="M268.4,139.445l-.015,0a.075.075,0,0,1-.059-.088,12.738,12.738,0,0,0-.214-6.514c-1.13-3.38-4.132-5.841-6.621-7.607-.5-.356-1.018-.712-1.519-1.056a27.508,27.508,0,0,1-6.43-5.473.074.074,0,1,1,.118-.091,27.412,27.412,0,0,0,6.4,5.44c.5.345,1.019.7,1.521,1.057,2.507,1.779,5.532,4.26,6.676,7.681a12.9,12.9,0,0,1,.219,6.591A.076.076,0,0,1,268.4,139.445Z" transform="translate(-234.661 -101.897)" fill="#fff"/>
              <path id="Trazado_119560" data-name="Trazado 119560" d="M245.61,154.185a117.734,117.734,0,0,1-8.965-9.509,8.039,8.039,0,0,1-1.361-7.235,99.736,99.736,0,0,1,3.968-9.993c.335-1.124,7.071-1.077,7.071-1.077s13.256,8.6,18.463,23.175l-5.849,1.821a68.346,68.346,0,0,0-6.881-9.5s5.917,7.817,6.126,11.017Z" transform="translate(-232.18 -102.936)" fill="#fff"/>
              <path id="Trazado_119561" data-name="Trazado 119561" d="M237.826,118.331c.07.234,2.824,7.6,2.962,7.726s3.856.321,5.606-.875l-4.342-8.491Z" transform="translate(-232.564 -101.644)" fill="#f7b68d"/>
              <path id="Trazado_119562" data-name="Trazado 119562" d="M233.127,158.182l4.415-4.254,6.106,2.579s6.077.941,9.556,0l3.479-.942,7.861-2.448,1.235,3.489a2.1,2.1,0,0,1-.768,2.414,13.783,13.783,0,0,1-1.985,1.236c-1.035.453-25.519-.313-25.519-.313Z" transform="translate(-231.937 -106.508)" fill="#f7ccb1"/>
              <path id="Trazado_119563" data-name="Trazado 119563" d="M237.73,104.473s-3.185,1.563-5.135,6.4-.171,6.924,1.927,7.1a9.758,9.758,0,0,0,8.327-3.274C245.967,111.474,241.879,102.6,237.73,104.473Z" transform="translate(-231.754 -99.978)" fill="#f7ccb1"/>
              <path id="Trazado_119564" data-name="Trazado 119564" d="M240.875,111.662s2.07-7.038-4.05-6.772l-1.382,1.087s-2.462-3.7,1.118-5.732a7.846,7.846,0,0,1,11.016,4.151c1.849,4.873,1.114,8.129-1.359,10.651s-3.7-.108-3.7-.108,1.294-2.3.649-3.456-1.9.354-1.9.354Z" transform="translate(-232.136 -99.325)" fill="#1b2e35"/>
              <path id="Trazado_119565" data-name="Trazado 119565" d="M241.8,114.731s2.85-3.031,3.892-.857-2.833,2.709-4.3,2.793Z" transform="translate(-233.042 -101.163)" fill="#f7ccb1"/>
            </g>
            <g id="Grupo_56160" data-name="Grupo 56160" transform="translate(0 30.432)">
              <path id="Trazado_119566" data-name="Trazado 119566" d="M248.274,160.92c-.02,0-.04,0-.059,0l-25.6-.028a1.146,1.146,0,0,1,0-2.293l25.6.029a1.146,1.146,0,0,1,.057,2.29Z" transform="translate(-197.889 -137.673)" fill="url(#linear-gradient-21)"/>
              <path id="Trazado_119567" data-name="Trazado 119567" d="M195.959,134.447h21.324a4.065,4.065,0,0,1,3.676,2.331l9.858,20.9h-26.5a2.47,2.47,0,0,1-2.3-1.562l-7.644-19.343A1.7,1.7,0,0,1,195.959,134.447Z" transform="translate(-194.255 -134.447)" fill="url(#linear-gradient-22)"/>
              <path id="Trazado_119568" data-name="Trazado 119568" d="M213.035,146.488c.463,1.436.121,2.83-.762,3.114s-1.974-.649-2.436-2.085-.12-2.83.762-3.114S212.574,145.052,213.035,146.488Z" transform="translate(-196.309 -135.77)" fill="#fff"/>
            </g>
          </g>
          <g id="Grupo_56162" data-name="Grupo 56162" transform="translate(87.948 69.938)">
            <path id="Trazado_119569" data-name="Trazado 119569" d="M271.491,160.278h25.2v-2.6h-25.2C272.03,157.678,272.03,160.278,271.491,160.278Z" transform="translate(-270.723 -157.09)" fill="url(#linear-gradient-23)"/>
            <path id="Trazado_119570" data-name="Trazado 119570" d="M296.483,160.188a.088.088,0,0,0,.088-.088v-2.424a.089.089,0,0,0-.088-.088H270.692a.089.089,0,0,1-.088-.088v-.412a.089.089,0,0,1,.088-.088h27.322a1.088,1.088,0,0,1,1.088,1.088v1.663a1.026,1.026,0,0,1-1.026,1.026H270.692a.089.089,0,0,1-.088-.088v-.412a.089.089,0,0,1,.088-.088Z" transform="translate(-270.604 -156.999)" fill="url(#linear-gradient-24)"/>
          </g>
          <g id="Grupo_56164" data-name="Grupo 56164" transform="translate(0 73.701)">
            <g id="Grupo_56163" data-name="Grupo 56163" transform="translate(7.679 1.996)">
              <path id="Trazado_119571" data-name="Trazado 119571" d="M178.793,210.719a.769.769,0,0,1-.328-.074.938.938,0,0,1-.434-1.19l17.4-44.145a.805.805,0,0,1,1.09-.474.939.939,0,0,1,.434,1.19l-17.4,44.145A.831.831,0,0,1,178.793,210.719Z" transform="translate(-177.964 -163.795)" fill="url(#linear-gradient-25)"/>
              <path id="Trazado_119572" data-name="Trazado 119572" d="M198.733,210.719a.83.83,0,0,1-.762-.548l-17.4-44.145a.938.938,0,0,1,.434-1.19.805.805,0,0,1,1.09.474l17.4,44.145a.939.939,0,0,1-.434,1.19A.766.766,0,0,1,198.733,210.719Z" transform="translate(-178.303 -163.795)" fill="url(#linear-gradient-25)"/>
              <path id="Trazado_119573" data-name="Trazado 119573" d="M274.276,209.6a.763.763,0,0,1-.327-.074.939.939,0,0,1-.435-1.19l17.4-44.145a.805.805,0,0,1,1.09-.474.938.938,0,0,1,.434,1.19l-17.4,44.145A.832.832,0,0,1,274.276,209.6Z" transform="translate(-190.715 -163.646)" fill="url(#linear-gradient-25)"/>
              <path id="Trazado_119574" data-name="Trazado 119574" d="M294.216,209.6a.831.831,0,0,1-.762-.548l-17.4-44.145a.939.939,0,0,1,.434-1.19.805.805,0,0,1,1.09.474l17.4,44.145a.938.938,0,0,1-.434,1.19A.767.767,0,0,1,294.216,209.6Z" transform="translate(-191.054 -163.646)" fill="url(#linear-gradient-25)"/>
            </g>
            <path id="Trazado_119575" data-name="Trazado 119575" d="M286.676,162.52a.9.9,0,0,0-.24-.818,1.212,1.212,0,0,0-.879-.36H170.412a1.369,1.369,0,0,0-1.1.526,1.012,1.012,0,0,0-.085,1.093l1.248,2.349a1.78,1.78,0,0,0,1.586.882H284.768a1.289,1.289,0,0,0,1.3-.932Z" transform="translate(-169.101 -161.342)" fill="url(#linear-gradient-25)"/>
          </g>
        </g>
        <g id="Grupo_56171" data-name="Grupo 56171" transform="translate(34.239 56.705)">
          <path id="Trazado_119576" data-name="Trazado 119576" d="M75.5,212.122s-.449,2.4-.679,4.783a1.641,1.641,0,0,0,1.553,1.793c3.17.162,9.953.484,12.389.4a.534.534,0,0,0,.477-.727h0a1.2,1.2,0,0,0-.606-.65L77.48,212.462Z" transform="translate(-50.095 -97.154)" fill="url(#linear-gradient-30)"/>
          <path id="Trazado_119577" data-name="Trazado 119577" d="M75.223,210.423l.315,2.881s1.954.933,3.3-.083l-.782-3.215Z" transform="translate(-50.149 -96.872)" fill="#f7ccb1"/>
          <path id="Trazado_119578" data-name="Trazado 119578" d="M74.737,148.027c-.154.75-1.15,37.5,2.622,54.01a.557.557,0,0,1-.334.646,9.738,9.738,0,0,1-3.206.62.963.963,0,0,1-.949-.7c-1.087-3.832-6.285-23.031-6.813-41.329-.589-20.447.007-.7.007-.7l.581-12.629Z" transform="translate(-48.891 -88.584)" fill="#37474f"/>
          <path id="Trazado_119579" data-name="Trazado 119579" d="M60.5,213.429a17.339,17.339,0,0,0-1.374,4.43,1,1,0,0,0,.87,1.208c1.047.113,2.657.261,3.949.264a1,1,0,0,0,1-1.1,8.417,8.417,0,0,0-1.922-4.636Z" transform="translate(-47.997 -97.329)" fill="url(#linear-gradient-31)"/>
          <path id="Trazado_119580" data-name="Trazado 119580" d="M60.071,209.128l.756,4.36a2.816,2.816,0,0,0,2.348.185l-.336-4.688Z" transform="translate(-48.126 -96.735)" fill="#f7ccb1"/>
          <path id="Trazado_119581" data-name="Trazado 119581" d="M57.937,148.88c-3.4,19.362.24,47.938,1.505,53.536a.873.873,0,0,0,.7.668,5.862,5.862,0,0,0,2.514-.076.8.8,0,0,0,.581-.73c.22-4.513.166-32.239,3.265-43.167a2.49,2.49,0,0,1,.973-1.364l5.85-4.076L73.832,147Z" transform="translate(-47.652 -88.457)" fill="#37474f"/>
          <g id="Grupo_56166" data-name="Grupo 56166" transform="translate(9.225 9.216)">
            <path id="Trazado_119582" data-name="Trazado 119582" d="M78.818,106.759a90.519,90.519,0,0,0-20.279,2.335c-3.03,16.721-.846,36.063-.846,36.063,7.437,2.026,15.876-1.044,15.876-1.044,1.306-6.989,7.276-26.636,7.276-26.636a31.727,31.727,0,0,0,11.808-3.624,20.651,20.651,0,0,1-4-8.575A32.315,32.315,0,0,1,78.818,106.759Z" transform="translate(-56.931 -92.102)" fill="#455a64"/>
            <path id="Trazado_119583" data-name="Trazado 119583" d="M112.287,90.815a1.842,1.842,0,0,0-2.138-.623c-1.475,5.972-8.951,10.755-16.607,13.055a20.651,20.651,0,0,0,4,8.575C110.279,104.82,112.287,90.815,112.287,90.815Z" transform="translate(-61.82 -90.071)" fill="#f7ccb1"/>
          </g>
          <g id="Grupo_56167" data-name="Grupo 56167" transform="translate(57.576)">
            <path id="Trazado_119584" data-name="Trazado 119584" d="M114.618,89.683c.1.316-1.055.784-1.718-.509-.017-.617-.367-3.263.006-3.762a49.229,49.229,0,0,1,5.826-5.976.906.906,0,0,1,.1,1.26L116.968,82.6a8.937,8.937,0,0,1,1.058,2.141,2.588,2.588,0,0,1-.276,1.9c-.329.581-.779,1.335-1.2,1.925A2.552,2.552,0,0,1,114.618,89.683Z" transform="translate(-112.734 -79.435)" fill="#f7ccb1"/>
            <path id="Trazado_119585" data-name="Trazado 119585" d="M116.331,84.519l-1.7,1.411-.542,1.415,1.484,1.678a19.378,19.378,0,0,1,.912-3.419C116.87,85,116.679,84.7,116.331,84.519Z" transform="translate(-112.915 -80.114)" fill="#f7b68d"/>
          </g>
          <path id="Trazado_119586" data-name="Trazado 119586" d="M60.756,119.041l-3.6-9.359s-9.053,6.025-10.606,13.76a21.274,21.274,0,0,1,7.8,2.17C55.045,121.96,60.756,119.041,60.756,119.041Z" transform="translate(-46.32 -83.474)" fill="#455a64"/>
          <path id="Trazado_119587" data-name="Trazado 119587" d="M68.5,130.011s-10.153,5.611-13.514.705a3.828,3.828,0,0,1-.674-2.983,21.274,21.274,0,0,0-7.8-2.17,10.7,10.7,0,0,0,1.093,7.342c5.865,10.975,22.208-.392,22.208-.392Z" transform="translate(-46.285 -85.595)" fill="#f7ccb1"/>
          <path id="Trazado_119588" data-name="Trazado 119588" d="M70.532,97.856l-3.149,8.832a.32.32,0,0,0,.141.386A7.2,7.2,0,0,0,75,106.643a1.5,1.5,0,0,0,.7-1.067l1.066-7.66Z" transform="translate(-49.1 -81.895)" fill="#f7b68d"/>
          <g id="Grupo_56168" data-name="Grupo 56168" transform="translate(15.648 3.212)">
            <path id="Trazado_119589" data-name="Trazado 119589" d="M77.59,88.46s3.3,6.365,2.849,8.919-4.624,2.331-8.245.218l-2.48-6.863Z" transform="translate(-65.061 -83.852)" fill="#f7ccb1"/>
            <path id="Trazado_119590" data-name="Trazado 119590" d="M71.669,93.531a.261.261,0,0,0,.118-.381,6.822,6.822,0,0,1-.917-2s-.6-.393,1.547-.886,5.355-1.259,6.044-3.079c.672-1.773-1.007-6.265-3.788-2.725a.261.261,0,0,1-.413,0,2.69,2.69,0,0,0-3.267-1.1,2.47,2.47,0,0,0-1.714,2.37A.259.259,0,0,1,68.97,86,3.01,3.01,0,0,0,65.439,87.6c-.733,1.57-.275,2.467.146,2.908a.26.26,0,0,1-.115.431,1.566,1.566,0,0,0-1.122,1.777c.075,1.657,1.928,1.528,2.456,1.457a.26.26,0,0,1,.23.085c.447.5,2.462,2.646,4.664,2.923a.263.263,0,0,0,.279-.345l-.927-2.781a.263.263,0,0,1,.145-.324Z" transform="translate(-64.344 -83.142)" fill="url(#linear-gradient-32)"/>
            <path id="Trazado_119591" data-name="Trazado 119591" d="M72.839,95.462s-2.38-1.666-2.569-.284,2.138,2.026,3.3,1.521Z" transform="translate(-65.134 -84.676)" fill="#f7ccb1"/>
          </g>
          <g id="Grupo_56170" data-name="Grupo 56170" transform="translate(20.116 32.364)">
            <g id="Grupo_56169" data-name="Grupo 56169">
              <path id="Trazado_119592" data-name="Trazado 119592" d="M69.524,137.707l5.531-19.315a.564.564,0,0,1,.477-.406c1-.117,3.906-.445,7.258-.729a82.378,82.378,0,0,1,11.531-.383.565.565,0,0,1,.462.814c-1.593,3.224-8.149,16.339-11.431,20.635a.567.567,0,0,1-.457.224l-12.832-.12A.565.565,0,0,1,69.524,137.707Z" transform="translate(-69.501 -116.787)" fill="#181492"/>
              <path id="Trazado_119593" data-name="Trazado 119593" d="M70.987,134.53s-.77-3.168-.459-4.292.912-2.569,2.92-2.248a29.406,29.406,0,0,1,4.375,1.167,1.149,1.149,0,0,1-1.645.991l.946.732s-.135,1.172-1.424.546l.879.97a1.025,1.025,0,0,1-1.5.346C74.129,132.125,73.675,134.912,70.987,134.53Z" transform="translate(-69.628 -118.277)" fill="#f7ccb1"/>
            </g>
            <path id="Trazado_119594" data-name="Trazado 119594" d="M84.412,123.735a1.623,1.623,0,1,0,1.623-1.624A1.623,1.623,0,0,0,84.412,123.735Z" transform="translate(-71.493 -117.498)" fill="#83b5f9"/>
            <path id="Trazado_119595" data-name="Trazado 119595" d="M76.5,124.274l-.253-.075,1.126-3.82a1.658,1.658,0,0,1,1.247-1.161c3.562-.743,13.255-.9,13.353-.9l0,.263c-.1,0-9.766.159-13.3.9a1.4,1.4,0,0,0-1.048.978Z" transform="translate(-70.402 -116.991)" fill="#fff"/>
          </g>
        </g>
        <g id="Grupo_56174" data-name="Grupo 56174" transform="translate(0 0)">
          <g id="Grupo_56172" data-name="Grupo 56172" transform="translate(0.341)">
            <circle id="Elipse_4217" data-name="Elipse 4217" cx="28.589" cy="28.589" r="28.589" transform="matrix(0.895, -0.446, 0.446, 0.895, 0, 25.5)" fill="#f9c141"/>
            <circle id="Elipse_4218" data-name="Elipse 4218" cx="21.669" cy="21.669" r="21.669" transform="translate(10.686 25.13) rotate(-19.468)" fill="#fff"/>
            <circle id="Elipse_4219" data-name="Elipse 4219" cx="15.478" cy="15.478" r="15.478" transform="matrix(0.769, -0.64, 0.64, 0.769, 16.54, 36.342)" fill="#f9c141"/>
            <path id="Trazado_119596" data-name="Trazado 119596" d="M40.233,46.343a10.652,10.652,0,1,1,14.284,4.784A10.651,10.651,0,0,1,40.233,46.343Z" transform="translate(-11.429 -3.254)" fill="#fff"/>
            <path id="Trazado_119597" data-name="Trazado 119597" d="M46.251,44.669a4.916,4.916,0,1,1,6.593,2.208A4.916,4.916,0,0,1,46.251,44.669Z" transform="translate(-12.314 -4.138)" fill="#f9c141"/>
          </g>
          <g id="Grupo_56173" data-name="Grupo 56173" transform="translate(0 16.125)">
            <path id="Trazado_119598" data-name="Trazado 119598" d="M7.33,23.04c-.13.646-.723,2.744,3.186,3.518,3.722.736,8.677,1.3,8.677,1.3s-3.888-3.123-7.03-5.251C8.865,20.377,7.57,22.412,7.33,23.04Z" transform="translate(-6.83 -18.131)" fill="#57dbd8"/>
            <path id="Trazado_119599" data-name="Trazado 119599" d="M11.289,26.081l4.483,2.846a26.755,26.755,0,0,0,4.26,2.2L45.154,41.33,23.516,28.344a26.685,26.685,0,0,0-7.877-3.156l-3.408-.768A4.455,4.455,0,0,1,11.289,26.081Z" transform="translate(-7.373 -18.509)" fill="#0c0236"/>
            <path id="Trazado_119600" data-name="Trazado 119600" d="M19.542,28.909S13.254,32.761,8.378,31.4s2.885-6.085,2.885-6.085Z" transform="translate(-6.769 -18.628)" fill="#57dbd8"/>
            <path id="Trazado_119601" data-name="Trazado 119601" d="M20.127,27.906s-1.515-7.218-5.853-9.828-2.445,6.274-2.445,6.274Z" transform="translate(-7.39 -17.598)" fill="#57dbd8"/>
          </g>
        </g>
      </g>
    </g>
  </g>
</svg>
