<svg xmlns="http://www.w3.org/2000/svg" width="500" height="441" viewBox="0 0 500 441">
  <g id="Grupo_56011" data-name="Grupo 56011" transform="translate(-700 -4765)">
    <rect id="Rectángulo_29549" data-name="Rectángulo 29549" width="500" height="441" transform="translate(700 4765)" fill="none"/>
    <g id="Grupo_56010" data-name="Grupo 56010" transform="translate(568.985 4764.425)">
      <g id="Grupo_53692" data-name="Grupo 53692" transform="translate(183.546 26.64)">
        <path id="Trazado_100423" data-name="Trazado 100423" d="M481.641,359.22a182.6,182.6,0,0,1-91.455,37.873,19.5,19.5,0,0,1-21.862-19.335V261.989c0-17.36,21-26.044,33.266-13.755l81.761,81.942a19.469,19.469,0,0,1-1.709,29.045Z" transform="translate(-163.951 -3.448)" fill="#e8e8e8"/>
        <path id="Trazado_100424" data-name="Trazado 100424" d="M488.324,326.7l-81.867-82.048c-12.247-12.274-3.551-33.233,13.787-33.233H536.162a19.5,19.5,0,0,1,19.329,21.867,182.593,182.593,0,0,1-38.122,91.762,19.472,19.472,0,0,1-29.045,1.652Z" transform="translate(-160.765 -6.501)" fill="#e8e8e8"/>
        <path id="Trazado_100425" data-name="Trazado 100425" d="M483.724,65.09a182.585,182.585,0,0,0-91.455-37.872,19.5,19.5,0,0,0-21.861,19.335V162.321c0,17.36,21,26.045,33.265,13.755l81.761-81.942a19.476,19.476,0,0,0-1.709-29.045Z" transform="translate(-163.746 -24.625)" fill="#e8e8e8"/>
        <path id="Trazado_100426" data-name="Trazado 100426" d="M490.408,96.07l-81.867,82.047c-12.248,12.274-3.552,33.233,13.786,33.233H538.245a19.5,19.5,0,0,0,19.329-21.866,182.593,182.593,0,0,0-38.122-91.763,19.451,19.451,0,0,0-29.044-1.651Z" transform="translate(-160.56 -18.405)" fill="#e8e8e8"/>
        <path id="Trazado_100427" data-name="Trazado 100427" d="M256.4,356.851a182.587,182.587,0,0,0,91.455,37.873,19.5,19.5,0,0,0,21.861-19.335V259.621c0-17.36-21-26.045-33.265-13.755l-81.766,81.942a19.47,19.47,0,0,0,.016,27.535A19.247,19.247,0,0,0,256.4,356.851Z" transform="translate(-175.683 -3.681)" fill="#e8e8e8"/>
        <path id="Trazado_100428" data-name="Trazado 100428" d="M249.555,326.559l81.867-82.048c12.247-12.274,3.552-33.233-13.787-33.233H201.718a19.511,19.511,0,0,0-19.33,21.867,182.584,182.584,0,0,0,38.124,91.762,19.457,19.457,0,0,0,29.044,1.652Z" transform="translate(-182.245 -6.515)" fill="#e8e8e8"/>
        <path id="Trazado_100429" data-name="Trazado 100429" d="M255.035,62.862a182.6,182.6,0,0,1,91.455-37.873,19.5,19.5,0,0,1,21.861,19.335v115.77c0,17.36-21,26.044-33.265,13.755L253.321,91.907a19.467,19.467,0,0,1,1.714-29.045Z" transform="translate(-175.817 -24.844)" fill="#e8e8e8"/>
        <path id="Trazado_100430" data-name="Trazado 100430" d="M251.039,94.58l81.867,82.047c12.247,12.274,3.552,33.234-13.787,33.234H203.2a19.511,19.511,0,0,1-19.33-21.867,182.592,182.592,0,0,1,38.122-91.763,19.467,19.467,0,0,1,29.045-1.651Z" transform="translate(-182.099 -18.551)" fill="#e8e8e8"/>
      </g>
      <circle id="Elipse_4018" data-name="Elipse 4018" cx="87.958" cy="87.958" r="87.958" transform="translate(298.099 139.513)" fill="#91b3fa"/>
      <circle id="Elipse_4019" data-name="Elipse 4019" cx="85.317" cy="85.317" r="85.317" transform="translate(300.74 142.153)" fill="#fff"/>
      <circle id="Elipse_4022" data-name="Elipse 4022" cx="29.082" cy="29.082" r="29.082" transform="translate(309.704 6.575)" fill="#57dbd8"/>
      <g id="Grupo_53704" data-name="Grupo 53704" transform="translate(320.237 17.107)">
        <circle id="Elipse_4023" data-name="Elipse 4023" cx="18.549" cy="18.549" r="18.549" fill="#fff"/>
        <g id="Grupo_53703" data-name="Grupo 53703" transform="translate(13.658 8.107)">
          <g id="Grupo_53702" data-name="Grupo 53702">
            <g id="_1" data-name=" 1" style="isolation: isolate">
              <path id="Trazado_121055" data-name="Trazado 121055" d="M6.258,0H4V-8.715l-2.7.832V-9.7l4.711-1.687h.242Z" transform="translate(0 15)" fill="#12263f"/>
            </g>
          </g>
        </g>
      </g>
      <circle id="Elipse_4028" data-name="Elipse 4028" cx="29.082" cy="29.082" r="29.082" transform="translate(459.174 45.86)" fill="#57dbd8"/>
      <circle id="Elipse_4029" data-name="Elipse 4029" cx="29.082" cy="29.082" r="29.082" transform="translate(535.461 167.017)" fill="#57dbd8"/>
      <circle id="Elipse_4030" data-name="Elipse 4030" cx="29.082" cy="29.082" r="29.082" transform="translate(503.247 298.628)" fill="#57dbd8"/>
      <circle id="Elipse_4031" data-name="Elipse 4031" cx="29.082" cy="29.082" r="29.082" transform="translate(382.567 376.816)" fill="#57dbd8"/>
      <circle id="Elipse_4032" data-name="Elipse 4032" cx="29.082" cy="29.082" r="29.082" transform="translate(246.842 337.706)" fill="#57dbd8"/>
      <circle id="Elipse_4033" data-name="Elipse 4033" cx="29.082" cy="29.082" r="29.082" transform="translate(169.015 220.944)" fill="#57dbd8"/>
      <circle id="Elipse_4034" data-name="Elipse 4034" cx="29.082" cy="29.082" r="29.082" transform="translate(205.344 91.882)" fill="#57dbd8"/>
      <g id="Grupo_53723" data-name="Grupo 53723" transform="translate(469.706 56.393)">
        <circle id="Elipse_4038" data-name="Elipse 4038" cx="18.549" cy="18.549" r="18.549" fill="#fff"/>
        <g id="Grupo_53722" data-name="Grupo 53722" transform="translate(13.661 8.107)">
          <g id="Grupo_53721" data-name="Grupo 53721">
            <g id="_2-2" data-name=" 2-2" style="isolation: isolate">
              <path id="Trazado_121054" data-name="Trazado 121054" d="M8.57,0H.773V-1.547l3.68-3.922A9.078,9.078,0,0,0,5.574-6.914a2.322,2.322,0,0,0,.363-1.172,1.738,1.738,0,0,0-.383-1.191,1.382,1.382,0,0,0-1.094-.434,1.49,1.49,0,0,0-1.207.527A2.089,2.089,0,0,0,2.813-7.8H.547a3.729,3.729,0,0,1,.5-1.9,3.5,3.5,0,0,1,1.4-1.348A4.262,4.262,0,0,1,4.5-11.531a4.036,4.036,0,0,1,2.73.844A2.985,2.985,0,0,1,8.2-8.3a3.825,3.825,0,0,1-.437,1.719,9.551,9.551,0,0,1-1.5,2.039L3.68-1.82H8.57Z" transform="translate(0 15)" fill="#12263f"/>
            </g>
          </g>
        </g>
      </g>
      <g id="Grupo_53726" data-name="Grupo 53726" transform="translate(545.994 177.55)">
        <circle id="Elipse_4040" data-name="Elipse 4040" cx="18.549" cy="18.549" r="18.549" fill="#fff"/>
        <g id="Grupo_53725" data-name="Grupo 53725" transform="translate(13.657 8.105)">
          <g id="Grupo_53724" data-name="Grupo 53724">
            <g id="_3" data-name=" 3" style="isolation: isolate">
              <path id="Trazado_121057" data-name="Trazado 121057" d="M3.07-6.687h1.2a1.7,1.7,0,0,0,1.273-.43,1.574,1.574,0,0,0,.414-1.141,1.392,1.392,0,0,0-.41-1.07,1.59,1.59,0,0,0-1.129-.383,1.666,1.666,0,0,0-1.086.355A1.137,1.137,0,0,0,2.9-8.43H.641a2.777,2.777,0,0,1,.48-1.6,3.2,3.2,0,0,1,1.344-1.105,4.485,4.485,0,0,1,1.9-.4,4.253,4.253,0,0,1,2.828.863A2.945,2.945,0,0,1,8.219-8.289a2.394,2.394,0,0,1-.477,1.438,3.1,3.1,0,0,1-1.25,1.008A2.826,2.826,0,0,1,7.926-4.812,2.8,2.8,0,0,1,8.4-3.187,2.994,2.994,0,0,1,7.293-.758,4.445,4.445,0,0,1,4.367.156a4.214,4.214,0,0,1-2.785-.9A2.934,2.934,0,0,1,.5-3.117H2.758a1.308,1.308,0,0,0,.48,1.047,1.771,1.771,0,0,0,1.184.406A1.779,1.779,0,0,0,5.684-2.09a1.47,1.47,0,0,0,.457-1.129q0-1.7-1.875-1.7H3.07Z" transform="translate(0 15)" fill="#12263f"/>
            </g>
          </g>
        </g>
      </g>
      <g id="Grupo_53729" data-name="Grupo 53729" transform="translate(513.78 309.161)">
        <circle id="Elipse_4042" data-name="Elipse 4042" cx="18.549" cy="18.549" r="18.549" fill="#fff"/>
        <g id="Grupo_53728" data-name="Grupo 53728" transform="translate(13.662 8.106)">
          <g id="Grupo_53727" data-name="Grupo 53727">
            <g id="_4" data-name=" 4" style="isolation: isolate">
              <path id="Trazado_121058" data-name="Trazado 121058" d="M7.453-4.281H8.742v1.82H7.453V0H5.2V-2.461H.531L.43-3.883l4.742-7.492H7.453Zm-4.773,0H5.2V-8.3l-.148.258Z" transform="translate(0 15)" fill="#12263f"/>
            </g>
          </g>
        </g>
      </g>
      <g id="Grupo_53732" data-name="Grupo 53732" transform="translate(393.1 387.349)">
        <circle id="Elipse_4044" data-name="Elipse 4044" cx="18.549" cy="18.549" r="18.549" fill="#fff"/>
        <g id="Grupo_53731" data-name="Grupo 53731" transform="translate(13.663 8.105)">
          <g id="Grupo_53730" data-name="Grupo 53730">
            <g id="_5" data-name=" 5" style="isolation: isolate">
              <path id="Trazado_121059" data-name="Trazado 121059" d="M1.109-5.594l.656-5.781H8.141v1.883H3.617L3.336-7.047a3.58,3.58,0,0,1,1.711-.43A3.279,3.279,0,0,1,7.594-6.469a4.026,4.026,0,0,1,.922,2.82,4.124,4.124,0,0,1-.465,1.973A3.281,3.281,0,0,1,6.719-.324a4.158,4.158,0,0,1-2.047.48A4.416,4.416,0,0,1,2.758-.262,3.4,3.4,0,0,1,1.363-1.437,3.2,3.2,0,0,1,.82-3.164H3.055a1.669,1.669,0,0,0,.5,1.105,1.573,1.573,0,0,0,1.113.395,1.388,1.388,0,0,0,1.18-.551,2.551,2.551,0,0,0,.414-1.559,2.11,2.11,0,0,0-.477-1.484A1.749,1.749,0,0,0,4.43-5.773a1.954,1.954,0,0,0-1.3.422l-.219.2Z" transform="translate(0 15)" fill="#12263f"/>
            </g>
          </g>
        </g>
      </g>
      <g id="Grupo_53735" data-name="Grupo 53735" transform="translate(257.375 348.239)">
        <circle id="Elipse_4046" data-name="Elipse 4046" cx="18.549" cy="18.549" r="18.549" fill="#fff"/>
        <g id="Grupo_53734" data-name="Grupo 53734" transform="translate(13.66 8.106)">
          <g id="Grupo_53733" data-name="Grupo 53733">
            <g id="_6" data-name=" 6" style="isolation: isolate">
              <path id="Trazado_121060" data-name="Trazado 121060" d="M6.9-11.492v1.859H6.68a3.836,3.836,0,0,0-2.465.8A3.238,3.238,0,0,0,3.094-6.687a3.075,3.075,0,0,1,2.289-.922A2.9,2.9,0,0,1,7.742-6.547a4.259,4.259,0,0,1,.875,2.8,4.19,4.19,0,0,1-.48,2.008,3.446,3.446,0,0,1-1.359,1.4,3.949,3.949,0,0,1-1.988.5,3.689,3.689,0,0,1-2.9-1.25A4.852,4.852,0,0,1,.781-4.43v-.812a7.3,7.3,0,0,1,.7-3.27,5.127,5.127,0,0,1,2.008-2.2,5.884,5.884,0,0,1,3.035-.785Zm-2.2,5.7A1.8,1.8,0,0,0,3.7-5.5a1.715,1.715,0,0,0-.656.753v.686A3.04,3.04,0,0,0,3.492-2.3a1.439,1.439,0,0,0,1.25.635,1.423,1.423,0,0,0,1.176-.573,2.337,2.337,0,0,0,.449-1.485,2.333,2.333,0,0,0-.453-1.5A1.477,1.477,0,0,0,4.7-5.789Z" transform="translate(0 15)" fill="#12263f"/>
            </g>
          </g>
        </g>
      </g>
      <g id="Grupo_53738" data-name="Grupo 53738" transform="translate(179.548 231.477)">
        <circle id="Elipse_4048" data-name="Elipse 4048" cx="18.549" cy="18.549" r="18.549" fill="#fff"/>
        <g id="Grupo_53737" data-name="Grupo 53737" transform="translate(13.658 8.104)">
          <g id="Grupo_53736" data-name="Grupo 53736">
            <g id="Grupo_56008" data-name="Grupo 56008">
              <g id="_7" data-name=" 7" style="isolation: isolate">
                <path id="Trazado_121061" data-name="Trazado 121061" d="M8.508-10.115,4.109,0H1.727L6.133-9.555H.477v-1.82H8.508Z" transform="translate(0 15)" fill="#12263f"/>
              </g>
            </g>
          </g>
        </g>
      </g>
      <g id="Grupo_53741" data-name="Grupo 53741" transform="translate(215.876 102.415)">
        <circle id="Elipse_4050" data-name="Elipse 4050" cx="18.549" cy="18.549" r="18.549" fill="#fff"/>
        <g id="Grupo_53740" data-name="Grupo 53740" transform="translate(13.661 8.106)">
          <g id="Grupo_53739" data-name="Grupo 53739">
            <g id="_8" data-name=" 8" style="isolation: isolate">
              <path id="Trazado_121056" data-name="Trazado 121056" d="M8.188-8.352a2.646,2.646,0,0,1-.414,1.469A2.98,2.98,0,0,1,6.633-5.859a3.3,3.3,0,0,1,1.313,1.1A2.816,2.816,0,0,1,8.43-3.117,2.981,2.981,0,0,1,7.4-.723a4.183,4.183,0,0,1-2.8.879A4.2,4.2,0,0,1,1.781-.727,2.974,2.974,0,0,1,.742-3.117a2.834,2.834,0,0,1,.484-1.648,3.239,3.239,0,0,1,1.3-1.094A2.95,2.95,0,0,1,1.395-6.883a2.664,2.664,0,0,1-.41-1.469,2.948,2.948,0,0,1,.969-2.316,3.814,3.814,0,0,1,2.633-.863,3.839,3.839,0,0,1,2.629.855A2.937,2.937,0,0,1,8.188-8.352ZM6.164-3.281a1.638,1.638,0,0,0-.43-1.187,1.532,1.532,0,0,0-1.156-.445,1.529,1.529,0,0,0-1.148.441A1.635,1.635,0,0,0,3-3.281a1.634,1.634,0,0,0,.422,1.172,1.537,1.537,0,0,0,1.172.445,1.533,1.533,0,0,0,1.152-.43A1.631,1.631,0,0,0,6.164-3.281ZM5.93-8.242a1.563,1.563,0,0,0-.352-1.066,1.247,1.247,0,0,0-.992-.4A1.256,1.256,0,0,0,3.6-9.32,1.553,1.553,0,0,0,3.25-8.242,1.633,1.633,0,0,0,3.6-7.148a1.23,1.23,0,0,0,.992.414,1.219,1.219,0,0,0,.988-.414A1.645,1.645,0,0,0,5.93-8.242Z" transform="translate(0 15)" fill="#12263f"/>
            </g>
          </g>
        </g>
      </g>
      <path id="Trazado_121046" data-name="Trazado 121046" d="M-28.638-2.256A2.616,2.616,0,0,1-29.47-.515,2.728,2.728,0,0,1-31.333.1a2.505,2.505,0,0,1-2.019-.9,3.634,3.634,0,0,1-.759-2.417v-.684a4.051,4.051,0,0,1,.354-1.743,2.644,2.644,0,0,1,1-1.155,2.794,2.794,0,0,1,1.5-.4,2.569,2.569,0,0,1,1.816.632,2.647,2.647,0,0,1,.8,1.75h-.942a2.043,2.043,0,0,0-.53-1.234,1.6,1.6,0,0,0-1.14-.382,1.677,1.677,0,0,0-1.409.665,3.051,3.051,0,0,0-.51,1.891V-3.2a3.136,3.136,0,0,0,.483,1.842,1.562,1.562,0,0,0,1.353.684,1.8,1.8,0,0,0,1.2-.354,1.964,1.964,0,0,0,.554-1.233ZM-24.238,0a1.9,1.9,0,0,1-.127-.557,2.015,2.015,0,0,1-1.5.654,1.865,1.865,0,0,1-1.282-.442,1.43,1.43,0,0,1-.5-1.121,1.494,1.494,0,0,1,.627-1.282A2.958,2.958,0,0,1-25.259-3.2h.879v-.415a1.015,1.015,0,0,0-.283-.754,1.138,1.138,0,0,0-.835-.281,1.317,1.317,0,0,0-.811.244.719.719,0,0,0-.327.591h-.908a1.247,1.247,0,0,1,.281-.764,1.916,1.916,0,0,1,.762-.583,2.563,2.563,0,0,1,1.057-.215,2.089,2.089,0,0,1,1.431.457,1.647,1.647,0,0,1,.537,1.257v2.432a2.973,2.973,0,0,0,.186,1.157V0Zm-1.5-.688a1.588,1.588,0,0,0,.806-.22,1.329,1.329,0,0,0,.552-.571V-2.563h-.708q-1.66,0-1.66.972a.822.822,0,0,0,.283.664A1.089,1.089,0,0,0-25.737-.688Zm6.23-3.784a2.707,2.707,0,0,0-.444-.034,1.19,1.19,0,0,0-1.206.757V0h-.9V-5.283h.879l.015.61a1.407,1.407,0,0,1,1.26-.708.923.923,0,0,1,.4.068ZM-15.61,0a1.9,1.9,0,0,1-.127-.557,2.015,2.015,0,0,1-1.5.654,1.865,1.865,0,0,1-1.282-.442,1.43,1.43,0,0,1-.5-1.121A1.494,1.494,0,0,1-18.4-2.747,2.958,2.958,0,0,1-16.631-3.2h.879v-.415a1.015,1.015,0,0,0-.283-.754,1.138,1.138,0,0,0-.835-.281,1.317,1.317,0,0,0-.811.244.719.719,0,0,0-.327.591h-.908a1.247,1.247,0,0,1,.281-.764,1.916,1.916,0,0,1,.762-.583,2.563,2.563,0,0,1,1.057-.215,2.089,2.089,0,0,1,1.431.457,1.647,1.647,0,0,1,.537,1.257v2.432a2.973,2.973,0,0,0,.186,1.157V0Zm-1.5-.688a1.588,1.588,0,0,0,.806-.22,1.329,1.329,0,0,0,.552-.571V-2.563h-.708q-1.66,0-1.66.972a.822.822,0,0,0,.283.664A1.089,1.089,0,0,0-17.109-.688Zm5.8.049a1.3,1.3,0,0,0,.845-.293,1.031,1.031,0,0,0,.4-.732h.854A1.638,1.638,0,0,1-9.526-.8a2.058,2.058,0,0,1-.769.654A2.219,2.219,0,0,1-11.313.1a2.176,2.176,0,0,1-1.716-.72,2.869,2.869,0,0,1-.637-1.97v-.151a3.181,3.181,0,0,1,.283-1.372,2.157,2.157,0,0,1,.813-.933,2.309,2.309,0,0,1,1.252-.332,2.119,2.119,0,0,1,1.477.532,1.9,1.9,0,0,1,.627,1.382h-.854a1.245,1.245,0,0,0-.388-.842,1.208,1.208,0,0,0-.862-.33,1.264,1.264,0,0,0-1.067.5,2.328,2.328,0,0,0-.378,1.433v.171a2.281,2.281,0,0,0,.376,1.406A1.27,1.27,0,0,0-11.313-.64Zm4.341-5.923v1.279h.986v.7h-.986V-1.3a.733.733,0,0,0,.132.477.555.555,0,0,0,.449.159,2.187,2.187,0,0,0,.43-.059V0a2.634,2.634,0,0,1-.693.1,1.125,1.125,0,0,1-.913-.366,1.573,1.573,0,0,1-.308-1.04V-4.585h-.962v-.7h.962V-6.562ZM-2.739.1A2.308,2.308,0,0,1-4.487-.608,2.619,2.619,0,0,1-5.161-2.5v-.166a3.17,3.17,0,0,1,.3-1.4,2.343,2.343,0,0,1,.84-.967,2.112,2.112,0,0,1,1.169-.349,1.979,1.979,0,0,1,1.6.679A2.939,2.939,0,0,1-.679-2.759v.376H-4.258A1.878,1.878,0,0,0-3.8-1.121,1.435,1.435,0,0,0-2.69-.64a1.573,1.573,0,0,0,.811-.2A2.037,2.037,0,0,0-1.3-1.353l.552.43A2.219,2.219,0,0,1-2.739.1Zm-.112-4.736a1.2,1.2,0,0,0-.918.4,1.934,1.934,0,0,0-.459,1.116h2.646v-.068A1.721,1.721,0,0,0-1.953-4.26,1.134,1.134,0,0,0-2.852-4.639Zm5.771.166a2.707,2.707,0,0,0-.444-.034A1.19,1.19,0,0,0,1.27-3.75V0h-.9V-5.283h.879l.015.61a1.407,1.407,0,0,1,1.26-.708.923.923,0,0,1,.4.068ZM4.731,0H3.823V-5.283h.908Zm.01-7.485H5.835L4.526-6.05l-.728,0ZM9.3-1.4a.665.665,0,0,0-.276-.569,2.655,2.655,0,0,0-.962-.349A4.548,4.548,0,0,1,6.97-2.671a1.549,1.549,0,0,1-.6-.488,1.168,1.168,0,0,1-.193-.674,1.37,1.37,0,0,1,.549-1.1,2.145,2.145,0,0,1,1.4-.449,2.208,2.208,0,0,1,1.458.464,1.473,1.473,0,0,1,.559,1.187H9.243a.815.815,0,0,0-.315-.64,1.18,1.18,0,0,0-.793-.269,1.235,1.235,0,0,0-.771.215.676.676,0,0,0-.278.562.548.548,0,0,0,.259.493,3.184,3.184,0,0,0,.935.317,4.872,4.872,0,0,1,1.1.361A1.6,1.6,0,0,1,10-2.185a1.243,1.243,0,0,1,.2.72A1.352,1.352,0,0,1,9.634-.33,2.376,2.376,0,0,1,8.164.1,2.66,2.66,0,0,1,7.041-.127a1.827,1.827,0,0,1-.764-.627A1.512,1.512,0,0,1,6-1.626h.9a.935.935,0,0,0,.364.72,1.411,1.411,0,0,0,.9.266,1.457,1.457,0,0,0,.823-.208A.638.638,0,0,0,9.3-1.4ZM12.6-6.562v1.279h.986v.7H12.6V-1.3a.733.733,0,0,0,.132.477.555.555,0,0,0,.449.159,2.187,2.187,0,0,0,.43-.059V0a2.634,2.634,0,0,1-.693.1,1.125,1.125,0,0,1-.913-.366,1.573,1.573,0,0,1-.308-1.04V-4.585h-.962v-.7H11.7V-6.562ZM15.625,0h-.9V-5.283h.9Zm-.977-6.685a.539.539,0,0,1,.134-.371.5.5,0,0,1,.4-.151.512.512,0,0,1,.4.151.534.534,0,0,1,.137.371.516.516,0,0,1-.137.366.521.521,0,0,1-.4.146.513.513,0,0,1-.4-.146A.521.521,0,0,1,14.648-6.685ZM19.189-.64a1.3,1.3,0,0,0,.845-.293,1.031,1.031,0,0,0,.4-.732h.854a1.638,1.638,0,0,1-.312.864,2.058,2.058,0,0,1-.769.654A2.219,2.219,0,0,1,19.189.1a2.176,2.176,0,0,1-1.716-.72,2.869,2.869,0,0,1-.637-1.97v-.151a3.181,3.181,0,0,1,.283-1.372,2.157,2.157,0,0,1,.813-.933,2.309,2.309,0,0,1,1.252-.332,2.119,2.119,0,0,1,1.477.532,1.9,1.9,0,0,1,.627,1.382h-.854a1.245,1.245,0,0,0-.388-.842,1.208,1.208,0,0,0-.862-.33,1.264,1.264,0,0,0-1.067.5,2.328,2.328,0,0,0-.378,1.433v.171a2.281,2.281,0,0,0,.376,1.406A1.27,1.27,0,0,0,19.189-.64ZM25.566,0a1.9,1.9,0,0,1-.127-.557,2.015,2.015,0,0,1-1.5.654,1.865,1.865,0,0,1-1.282-.442,1.43,1.43,0,0,1-.5-1.121,1.494,1.494,0,0,1,.627-1.282A2.958,2.958,0,0,1,24.546-3.2h.879v-.415a1.015,1.015,0,0,0-.283-.754,1.138,1.138,0,0,0-.835-.281,1.317,1.317,0,0,0-.811.244.719.719,0,0,0-.327.591h-.908a1.247,1.247,0,0,1,.281-.764,1.916,1.916,0,0,1,.762-.583,2.563,2.563,0,0,1,1.057-.215,2.089,2.089,0,0,1,1.431.457,1.647,1.647,0,0,1,.537,1.257v2.432a2.973,2.973,0,0,0,.186,1.157V0Zm-1.5-.688a1.588,1.588,0,0,0,.806-.22,1.329,1.329,0,0,0,.552-.571V-2.563h-.708q-1.66,0-1.66.972a.822.822,0,0,0,.283.664A1.089,1.089,0,0,0,24.067-.688ZM30.82-1.4a.665.665,0,0,0-.276-.569,2.655,2.655,0,0,0-.962-.349,4.548,4.548,0,0,1-1.089-.352,1.549,1.549,0,0,1-.6-.488,1.168,1.168,0,0,1-.193-.674,1.37,1.37,0,0,1,.549-1.1,2.145,2.145,0,0,1,1.4-.449,2.208,2.208,0,0,1,1.458.464,1.473,1.473,0,0,1,.559,1.187h-.908a.815.815,0,0,0-.315-.64,1.18,1.18,0,0,0-.793-.269,1.235,1.235,0,0,0-.771.215.676.676,0,0,0-.278.562.548.548,0,0,0,.259.493,3.184,3.184,0,0,0,.935.317,4.872,4.872,0,0,1,1.1.361,1.6,1.6,0,0,1,.623.505,1.243,1.243,0,0,1,.2.72A1.352,1.352,0,0,1,31.157-.33,2.376,2.376,0,0,1,29.688.1a2.66,2.66,0,0,1-1.123-.225A1.827,1.827,0,0,1,27.8-.754a1.512,1.512,0,0,1-.276-.872h.9a.935.935,0,0,0,.364.72,1.411,1.411,0,0,0,.9.266,1.457,1.457,0,0,0,.823-.208A.638.638,0,0,0,30.82-1.4ZM-32.712,9.314a3.1,3.1,0,0,1,.576-1.956,1.822,1.822,0,0,1,1.509-.74,1.832,1.832,0,0,1,1.47.635V4.5h.9V12h-.83l-.044-.566a1.84,1.84,0,0,1-1.509.664,1.8,1.8,0,0,1-1.5-.752,3.13,3.13,0,0,1-.579-1.963Zm.9.1a2.343,2.343,0,0,0,.371,1.406,1.2,1.2,0,0,0,1.025.508,1.318,1.318,0,0,0,1.255-.771V8.133A1.328,1.328,0,0,0-30.4,7.386a1.205,1.205,0,0,0-1.035.513A2.58,2.58,0,0,0-31.809,9.417Zm7.148,2.681a2.308,2.308,0,0,1-1.748-.706A2.619,2.619,0,0,1-27.083,9.5V9.339a3.17,3.17,0,0,1,.3-1.4,2.343,2.343,0,0,1,.84-.967,2.112,2.112,0,0,1,1.169-.349,1.979,1.979,0,0,1,1.6.679A2.939,2.939,0,0,1-22.6,9.241v.376h-3.579a1.878,1.878,0,0,0,.457,1.262,1.435,1.435,0,0,0,1.111.481,1.573,1.573,0,0,0,.811-.2,2.037,2.037,0,0,0,.581-.518l.552.43A2.219,2.219,0,0,1-24.661,12.1Zm-.112-4.736a1.2,1.2,0,0,0-.918.4,1.934,1.934,0,0,0-.459,1.116H-23.5V8.807a1.721,1.721,0,0,0-.371-1.067A1.134,1.134,0,0,0-24.773,7.361Zm4.2,4.639h-.9V4.5h.9Zm8.384-2.583a3.163,3.163,0,0,1-.552,1.943,1.768,1.768,0,0,1-1.494.737,1.938,1.938,0,0,1-1.514-.61v2.544h-.9V6.717h.825l.044.586a1.861,1.861,0,0,1,1.533-.684,1.8,1.8,0,0,1,1.506.718,3.2,3.2,0,0,1,.554,2Zm-.9-.1A2.334,2.334,0,0,0-13.474,7.9a1.227,1.227,0,0,0-1.045-.518,1.328,1.328,0,0,0-1.23.728v2.524a1.33,1.33,0,0,0,1.24.723,1.221,1.221,0,0,0,1.033-.515A2.548,2.548,0,0,0-13.093,9.314Zm4.6-1.787a2.707,2.707,0,0,0-.444-.034,1.19,1.19,0,0,0-1.206.757V12h-.9V6.717h.879l.015.61a1.407,1.407,0,0,1,1.26-.708.923.923,0,0,1,.4.068ZM-8,9.31a3.121,3.121,0,0,1,.305-1.4,2.277,2.277,0,0,1,.85-.957A2.313,2.313,0,0,1-5.6,6.619a2.228,2.228,0,0,1,1.746.747,2.874,2.874,0,0,1,.667,1.987v.063a3.148,3.148,0,0,1-.3,1.384,2.243,2.243,0,0,1-.845.955,2.339,2.339,0,0,1-1.262.342,2.222,2.222,0,0,1-1.741-.747A2.86,2.86,0,0,1-8,9.373Zm.908.107a2.26,2.26,0,0,0,.408,1.411,1.3,1.3,0,0,0,1.091.532,1.3,1.3,0,0,0,1.094-.54A2.472,2.472,0,0,0-4.089,9.31,2.256,2.256,0,0,0-4.5,7.9a1.312,1.312,0,0,0-1.1-.54,1.3,1.3,0,0,0-1.079.532A2.453,2.453,0,0,0-7.087,9.417Zm4.814-.1A3.1,3.1,0,0,1-1.7,7.359a1.822,1.822,0,0,1,1.509-.74,1.832,1.832,0,0,1,1.47.635V4.5h.9V12h-.83l-.044-.566A1.84,1.84,0,0,1-.2,12.1a1.8,1.8,0,0,1-1.5-.752,3.13,3.13,0,0,1-.579-1.963Zm.9.1A2.343,2.343,0,0,0-1,10.823a1.2,1.2,0,0,0,1.025.508,1.318,1.318,0,0,0,1.255-.771V8.133A1.328,1.328,0,0,0,.037,7.386,1.205,1.205,0,0,0-1,7.9,2.58,2.58,0,0,0-1.37,9.417Zm8.218,2.061A1.919,1.919,0,0,1,5.3,12.1a1.642,1.642,0,0,1-1.287-.491,2.124,2.124,0,0,1-.447-1.453V6.717h.9V10.13q0,1.2.977,1.2a1.352,1.352,0,0,0,1.377-.771V6.717h.9V12H6.868Zm4.37-.117a1.3,1.3,0,0,0,.845-.293,1.031,1.031,0,0,0,.4-.732h.854a1.638,1.638,0,0,1-.312.864,2.058,2.058,0,0,1-.769.654,2.219,2.219,0,0,1-1.018.244,2.176,2.176,0,0,1-1.716-.72,2.869,2.869,0,0,1-.637-1.97V9.256a3.181,3.181,0,0,1,.283-1.372,2.157,2.157,0,0,1,.813-.933,2.309,2.309,0,0,1,1.252-.332,2.119,2.119,0,0,1,1.477.532,1.9,1.9,0,0,1,.627,1.382h-.854a1.245,1.245,0,0,0-.388-.842,1.208,1.208,0,0,0-.862-.33,1.264,1.264,0,0,0-1.067.5A2.328,2.328,0,0,0,9.768,9.29v.171a2.281,2.281,0,0,0,.376,1.406A1.27,1.27,0,0,0,11.218,11.36Zm4.341-5.923V6.717h.986v.7h-.986V10.7a.733.733,0,0,0,.132.477.555.555,0,0,0,.449.159,2.187,2.187,0,0,0,.43-.059V12a2.634,2.634,0,0,1-.693.1,1.125,1.125,0,0,1-.913-.366,1.573,1.573,0,0,1-.308-1.04V7.415h-.962v-.7h.962V5.438Zm1.7,3.872a3.121,3.121,0,0,1,.305-1.4,2.277,2.277,0,0,1,.85-.957,2.313,2.313,0,0,1,1.243-.337,2.228,2.228,0,0,1,1.746.747,2.874,2.874,0,0,1,.667,1.987v.063a3.148,3.148,0,0,1-.3,1.384,2.243,2.243,0,0,1-.845.955,2.339,2.339,0,0,1-1.262.342,2.222,2.222,0,0,1-1.741-.747,2.86,2.86,0,0,1-.667-1.978Zm.908.107a2.26,2.26,0,0,0,.408,1.411,1.382,1.382,0,0,0,2.185-.007,2.472,2.472,0,0,0,.405-1.511A2.256,2.256,0,0,0,20.757,7.9a1.312,1.312,0,0,0-1.1-.54,1.3,1.3,0,0,0-1.079.532A2.453,2.453,0,0,0,18.171,9.417Zm7.271-.107a3.121,3.121,0,0,1,.305-1.4,2.277,2.277,0,0,1,.85-.957,2.313,2.313,0,0,1,1.243-.337,2.228,2.228,0,0,1,1.746.747,2.874,2.874,0,0,1,.667,1.987v.063a3.148,3.148,0,0,1-.3,1.384,2.243,2.243,0,0,1-.845.955,2.339,2.339,0,0,1-1.262.342,2.222,2.222,0,0,1-1.741-.747,2.86,2.86,0,0,1-.667-1.978Zm.908.107a2.26,2.26,0,0,0,.408,1.411,1.382,1.382,0,0,0,2.185-.007,2.472,2.472,0,0,0,.405-1.511A2.256,2.256,0,0,0,28.936,7.9a1.312,1.312,0,0,0-1.1-.54,1.3,1.3,0,0,0-1.079.532A2.453,2.453,0,0,0,26.35,9.417Zm-45.027,12a3.163,3.163,0,0,1-.552,1.943,1.768,1.768,0,0,1-1.494.737,1.938,1.938,0,0,1-1.514-.61v2.544h-.9V18.717h.825l.044.586a1.861,1.861,0,0,1,1.533-.684,1.8,1.8,0,0,1,1.506.718,3.2,3.2,0,0,1,.554,2Zm-.9-.1a2.334,2.334,0,0,0-.381-1.411,1.227,1.227,0,0,0-1.045-.518,1.328,1.328,0,0,0-1.23.728v2.524A1.33,1.33,0,0,0-21,23.36a1.221,1.221,0,0,0,1.033-.515A2.548,2.548,0,0,0-19.58,21.314Zm4.6-1.787a2.707,2.707,0,0,0-.444-.034,1.19,1.19,0,0,0-1.206.757V24h-.9V18.717h.879l.015.61a1.407,1.407,0,0,1,1.26-.708.923.923,0,0,1,.4.068Zm.493,1.782a3.121,3.121,0,0,1,.305-1.4,2.277,2.277,0,0,1,.85-.957,2.313,2.313,0,0,1,1.243-.337,2.228,2.228,0,0,1,1.746.747,2.874,2.874,0,0,1,.667,1.987v.063a3.148,3.148,0,0,1-.3,1.384,2.243,2.243,0,0,1-.845.955,2.339,2.339,0,0,1-1.262.342,2.222,2.222,0,0,1-1.741-.747,2.86,2.86,0,0,1-.667-1.978Zm.908.107a2.26,2.26,0,0,0,.408,1.411,1.3,1.3,0,0,0,1.091.532,1.3,1.3,0,0,0,1.094-.54,2.472,2.472,0,0,0,.405-1.511,2.256,2.256,0,0,0-.413-1.409,1.312,1.312,0,0,0-1.1-.54,1.3,1.3,0,0,0-1.079.532A2.453,2.453,0,0,0-13.574,21.417Zm4.814-.1a3.1,3.1,0,0,1,.576-1.956,1.822,1.822,0,0,1,1.509-.74,1.832,1.832,0,0,1,1.47.635V16.5h.9V24h-.83l-.044-.566a1.84,1.84,0,0,1-1.509.664,1.8,1.8,0,0,1-1.5-.752,3.13,3.13,0,0,1-.579-1.963Zm.9.1a2.343,2.343,0,0,0,.371,1.406,1.2,1.2,0,0,0,1.025.508,1.318,1.318,0,0,0,1.255-.771V20.133a1.328,1.328,0,0,0-1.245-.747,1.205,1.205,0,0,0-1.035.513A2.58,2.58,0,0,0-7.856,21.417ZM.361,23.478a1.919,1.919,0,0,1-1.548.62,1.642,1.642,0,0,1-1.287-.491,2.124,2.124,0,0,1-.447-1.453V18.717h.9V22.13q0,1.2.977,1.2A1.352,1.352,0,0,0,.337,22.56V18.717h.9V24H.381Zm4.37-.117a1.3,1.3,0,0,0,.845-.293,1.031,1.031,0,0,0,.4-.732h.854a1.638,1.638,0,0,1-.312.864,2.058,2.058,0,0,1-.769.654,2.219,2.219,0,0,1-1.018.244,2.176,2.176,0,0,1-1.716-.72,2.869,2.869,0,0,1-.637-1.97v-.151a3.181,3.181,0,0,1,.283-1.372,2.157,2.157,0,0,1,.813-.933,2.309,2.309,0,0,1,1.252-.332,2.119,2.119,0,0,1,1.477.532,1.9,1.9,0,0,1,.627,1.382H5.977a1.245,1.245,0,0,0-.388-.842,1.208,1.208,0,0,0-.862-.33,1.264,1.264,0,0,0-1.067.5,2.328,2.328,0,0,0-.378,1.433v.171a2.281,2.281,0,0,0,.376,1.406A1.27,1.27,0,0,0,4.731,23.36Zm4.341-5.923v1.279h.986v.7H9.072V22.7a.733.733,0,0,0,.132.477.555.555,0,0,0,.449.159,2.187,2.187,0,0,0,.43-.059V24a2.634,2.634,0,0,1-.693.1,1.125,1.125,0,0,1-.913-.366,1.573,1.573,0,0,1-.308-1.04V19.415H7.207v-.7h.962V17.438Zm1.7,3.872a3.121,3.121,0,0,1,.305-1.4,2.277,2.277,0,0,1,.85-.957,2.313,2.313,0,0,1,1.243-.337,2.228,2.228,0,0,1,1.746.747,2.874,2.874,0,0,1,.667,1.987v.063a3.148,3.148,0,0,1-.3,1.384,2.243,2.243,0,0,1-.845.955,2.339,2.339,0,0,1-1.262.342,2.222,2.222,0,0,1-1.741-.747,2.86,2.86,0,0,1-.667-1.978Zm.908.107a2.26,2.26,0,0,0,.408,1.411,1.382,1.382,0,0,0,2.185-.007,2.472,2.472,0,0,0,.405-1.511A2.256,2.256,0,0,0,14.27,19.9a1.312,1.312,0,0,0-1.1-.54,1.3,1.3,0,0,0-1.079.532A2.453,2.453,0,0,0,11.685,21.417Zm8.11,1.182a.665.665,0,0,0-.276-.569,2.655,2.655,0,0,0-.962-.349,4.548,4.548,0,0,1-1.089-.352,1.549,1.549,0,0,1-.6-.488,1.168,1.168,0,0,1-.193-.674,1.37,1.37,0,0,1,.549-1.1,2.145,2.145,0,0,1,1.4-.449,2.208,2.208,0,0,1,1.458.464,1.473,1.473,0,0,1,.559,1.187h-.908a.815.815,0,0,0-.315-.64,1.18,1.18,0,0,0-.793-.269,1.235,1.235,0,0,0-.771.215.676.676,0,0,0-.278.562.548.548,0,0,0,.259.493,3.184,3.184,0,0,0,.935.317,4.872,4.872,0,0,1,1.1.361,1.6,1.6,0,0,1,.623.505,1.243,1.243,0,0,1,.2.72,1.352,1.352,0,0,1-.566,1.135,2.376,2.376,0,0,1-1.47.427,2.66,2.66,0,0,1-1.123-.225,1.827,1.827,0,0,1-.764-.627,1.512,1.512,0,0,1-.276-.872h.9a.935.935,0,0,0,.364.72,1.411,1.411,0,0,0,.9.266,1.457,1.457,0,0,0,.823-.208A.638.638,0,0,0,19.795,22.6Zm2.1.928a.566.566,0,0,1,.139-.391.53.53,0,0,1,.417-.156.546.546,0,0,1,.422.156.554.554,0,0,1,.144.391.524.524,0,0,1-.144.376.556.556,0,0,1-.422.151.5.5,0,0,1-.557-.527Z" transform="translate(318.521 86.423)" fill="#12263f"/>
      <path id="Trazado_121047" data-name="Trazado 121047" d="M-12.993-3.286h-3.081v2.52H-12.5V0h-4.517V-7.109h4.468v.767h-3.53v2.29h3.081ZM-10.488,0h-.9V-7.5h.9ZM-2.1-2.583A3.163,3.163,0,0,1-2.656-.64,1.768,1.768,0,0,1-4.15.1a1.938,1.938,0,0,1-1.514-.61V2.031h-.9V-5.283h.825L-5.7-4.7a1.861,1.861,0,0,1,1.533-.684,1.8,1.8,0,0,1,1.506.718,3.2,3.2,0,0,1,.554,2Zm-.9-.1A2.334,2.334,0,0,0-3.389-4.1a1.227,1.227,0,0,0-1.045-.518,1.328,1.328,0,0,0-1.23.728v2.524a1.33,1.33,0,0,0,1.24.723,1.221,1.221,0,0,0,1.033-.515A2.548,2.548,0,0,0-3.008-2.686ZM1.6-4.473a2.707,2.707,0,0,0-.444-.034A1.19,1.19,0,0,0-.054-3.75V0h-.9V-5.283h.879l.015.61A1.407,1.407,0,0,1,1.2-5.381a.923.923,0,0,1,.4.068ZM4.526.1A2.308,2.308,0,0,1,2.778-.608,2.619,2.619,0,0,1,2.1-2.5v-.166a3.17,3.17,0,0,1,.3-1.4,2.343,2.343,0,0,1,.84-.967,2.112,2.112,0,0,1,1.169-.349,1.979,1.979,0,0,1,1.6.679,2.939,2.939,0,0,1,.571,1.943v.376H3.008a1.878,1.878,0,0,0,.457,1.262A1.435,1.435,0,0,0,4.575-.64a1.573,1.573,0,0,0,.811-.2,2.037,2.037,0,0,0,.581-.518l.552.43A2.219,2.219,0,0,1,4.526.1ZM4.414-4.639a1.2,1.2,0,0,0-.918.4,1.934,1.934,0,0,0-.459,1.116H5.684v-.068A1.721,1.721,0,0,0,5.313-4.26,1.134,1.134,0,0,0,4.414-4.639Zm5.337,4A1.3,1.3,0,0,0,10.6-.933a1.031,1.031,0,0,0,.4-.732h.854a1.638,1.638,0,0,1-.312.864,2.058,2.058,0,0,1-.769.654A2.219,2.219,0,0,1,9.751.1a2.176,2.176,0,0,1-1.716-.72A2.869,2.869,0,0,1,7.4-2.593v-.151a3.181,3.181,0,0,1,.283-1.372,2.157,2.157,0,0,1,.813-.933,2.309,2.309,0,0,1,1.252-.332,2.119,2.119,0,0,1,1.477.532,1.9,1.9,0,0,1,.627,1.382H11a1.245,1.245,0,0,0-.388-.842,1.208,1.208,0,0,0-.862-.33,1.264,1.264,0,0,0-1.067.5A2.328,2.328,0,0,0,8.3-2.71v.171a2.281,2.281,0,0,0,.376,1.406A1.27,1.27,0,0,0,9.751-.64Zm4.1.64h-.9V-5.283h.9Zm-.977-6.685a.539.539,0,0,1,.134-.371.5.5,0,0,1,.4-.151.512.512,0,0,1,.4.151.534.534,0,0,1,.137.371.516.516,0,0,1-.137.366.521.521,0,0,1-.4.146.513.513,0,0,1-.4-.146A.521.521,0,0,1,12.871-6.685ZM15.054-2.69a3.121,3.121,0,0,1,.305-1.4,2.277,2.277,0,0,1,.85-.957,2.313,2.313,0,0,1,1.243-.337,2.228,2.228,0,0,1,1.746.747,2.874,2.874,0,0,1,.667,1.987v.063a3.148,3.148,0,0,1-.3,1.384,2.243,2.243,0,0,1-.845.955A2.339,2.339,0,0,1,17.461.1,2.222,2.222,0,0,1,15.72-.649a2.86,2.86,0,0,1-.667-1.978Zm.908.107a2.26,2.26,0,0,0,.408,1.411,1.3,1.3,0,0,0,1.091.532,1.3,1.3,0,0,0,1.094-.54A2.472,2.472,0,0,0,18.96-2.69,2.256,2.256,0,0,0,18.547-4.1a1.312,1.312,0,0,0-1.1-.54,1.3,1.3,0,0,0-1.079.532A2.453,2.453,0,0,0,15.962-2.583Z" transform="translate(427.134 103.137)" fill="#12263f"/>
      <path id="Trazado_121048" data-name="Trazado 121048" d="M-19.092-6.343h-2.285V0h-.933V-6.343h-2.28v-.767h5.5ZM-17.2,0h-.9V-5.283h.9Zm-.977-6.685a.539.539,0,0,1,.134-.371.5.5,0,0,1,.4-.151.512.512,0,0,1,.4.151.534.534,0,0,1,.137.371.516.516,0,0,1-.137.366.521.521,0,0,1-.4.146.513.513,0,0,1-.4-.146A.521.521,0,0,1-18.174-6.685ZM-13.56.1a2.308,2.308,0,0,1-1.748-.706A2.619,2.619,0,0,1-15.981-2.5v-.166a3.17,3.17,0,0,1,.3-1.4,2.343,2.343,0,0,1,.84-.967,2.112,2.112,0,0,1,1.169-.349,1.979,1.979,0,0,1,1.6.679A2.939,2.939,0,0,1-11.5-2.759v.376h-3.579a1.878,1.878,0,0,0,.457,1.262,1.435,1.435,0,0,0,1.111.481,1.573,1.573,0,0,0,.811-.2,2.037,2.037,0,0,0,.581-.518l.552.43A2.219,2.219,0,0,1-13.56.1Zm-.112-4.736a1.2,1.2,0,0,0-.918.4,1.934,1.934,0,0,0-.459,1.116H-12.4v-.068a1.721,1.721,0,0,0-.371-1.067A1.134,1.134,0,0,0-13.672-4.639ZM-9.6-5.283l.024.586a1.951,1.951,0,0,1,1.567-.684,1.51,1.51,0,0,1,1.509.85,2,2,0,0,1,.686-.615,2.026,2.026,0,0,1,1-.234q1.738,0,1.768,1.841V0h-.9V-3.486a1.213,1.213,0,0,0-.259-.847,1.14,1.14,0,0,0-.869-.281,1.2,1.2,0,0,0-.835.3,1.218,1.218,0,0,0-.386.808V0h-.908V-3.462A1.008,1.008,0,0,0-8.34-4.614a1.209,1.209,0,0,0-1.216.757V0h-.9V-5.283Zm12.378,2.7A3.163,3.163,0,0,1,2.222-.64,1.768,1.768,0,0,1,.728.1,1.938,1.938,0,0,1-.786-.513V2.031h-.9V-5.283h.825L-.82-4.7A1.861,1.861,0,0,1,.713-5.381a1.8,1.8,0,0,1,1.506.718,3.2,3.2,0,0,1,.554,2Zm-.9-.1A2.334,2.334,0,0,0,1.489-4.1,1.227,1.227,0,0,0,.444-4.614a1.328,1.328,0,0,0-1.23.728v2.524A1.33,1.33,0,0,0,.454-.64a1.221,1.221,0,0,0,1.033-.515A2.548,2.548,0,0,0,1.87-2.686Zm1.812,0a3.121,3.121,0,0,1,.305-1.4,2.277,2.277,0,0,1,.85-.957,2.313,2.313,0,0,1,1.243-.337,2.228,2.228,0,0,1,1.746.747,2.874,2.874,0,0,1,.667,1.987v.063A3.148,3.148,0,0,1,8.2-1.2a2.243,2.243,0,0,1-.845.955A2.339,2.339,0,0,1,6.089.1,2.222,2.222,0,0,1,4.348-.649a2.86,2.86,0,0,1-.667-1.978Zm.908.107A2.26,2.26,0,0,0,5-1.172,1.3,1.3,0,0,0,6.089-.64a1.3,1.3,0,0,0,1.094-.54A2.472,2.472,0,0,0,7.588-2.69,2.256,2.256,0,0,0,7.175-4.1a1.312,1.312,0,0,0-1.1-.54A1.3,1.3,0,0,0,5-4.106,2.453,2.453,0,0,0,4.59-2.583Zm7.29-.1a3.1,3.1,0,0,1,.576-1.956,1.822,1.822,0,0,1,1.509-.74,1.832,1.832,0,0,1,1.47.635V-7.5h.9V0h-.83l-.044-.566A1.84,1.84,0,0,1,13.955.1a1.8,1.8,0,0,1-1.5-.752,3.13,3.13,0,0,1-.579-1.963Zm.9.1a2.343,2.343,0,0,0,.371,1.406,1.2,1.2,0,0,0,1.025.508,1.318,1.318,0,0,0,1.255-.771V-3.867a1.328,1.328,0,0,0-1.245-.747,1.205,1.205,0,0,0-1.035.513A2.58,2.58,0,0,0,12.783-2.583ZM19.932.1a2.308,2.308,0,0,1-1.748-.706A2.619,2.619,0,0,1,17.51-2.5v-.166a3.17,3.17,0,0,1,.3-1.4,2.343,2.343,0,0,1,.84-.967,2.112,2.112,0,0,1,1.169-.349,1.979,1.979,0,0,1,1.6.679,2.939,2.939,0,0,1,.571,1.943v.376H18.413a1.878,1.878,0,0,0,.457,1.262A1.435,1.435,0,0,0,19.98-.64a1.573,1.573,0,0,0,.811-.2,2.037,2.037,0,0,0,.581-.518l.552.43A2.219,2.219,0,0,1,19.932.1Zm-.112-4.736a1.2,1.2,0,0,0-.918.4,1.934,1.934,0,0,0-.459,1.116h2.646v-.068a1.721,1.721,0,0,0-.371-1.067A1.134,1.134,0,0,0,19.819-4.639ZM-13.984,12.1a2.308,2.308,0,0,1-1.748-.706A2.619,2.619,0,0,1-16.406,9.5V9.339a3.17,3.17,0,0,1,.3-1.4,2.343,2.343,0,0,1,.84-.967A2.112,2.112,0,0,1-14.1,6.619a1.979,1.979,0,0,1,1.6.679,2.939,2.939,0,0,1,.571,1.943v.376H-15.5a1.878,1.878,0,0,0,.457,1.262,1.435,1.435,0,0,0,1.111.481,1.573,1.573,0,0,0,.811-.2,2.037,2.037,0,0,0,.581-.518l.552.43A2.219,2.219,0,0,1-13.984,12.1ZM-14.1,7.361a1.2,1.2,0,0,0-.918.4,1.934,1.934,0,0,0-.459,1.116h2.646V8.807A1.721,1.721,0,0,0-13.2,7.74,1.134,1.134,0,0,0-14.1,7.361Zm4.072-.645.029.664a1.925,1.925,0,0,1,1.582-.762q1.675,0,1.689,1.89V12h-.9V8.5a1.216,1.216,0,0,0-.261-.845,1.047,1.047,0,0,0-.8-.273,1.3,1.3,0,0,0-.771.234,1.592,1.592,0,0,0-.518.615V12h-.9V6.717Zm5.889-1.279V6.717h.986v.7h-.986V10.7A.733.733,0,0,0-4,11.172a.555.555,0,0,0,.449.159,2.187,2.187,0,0,0,.43-.059V12a2.634,2.634,0,0,1-.693.1,1.125,1.125,0,0,1-.913-.366,1.573,1.573,0,0,1-.308-1.04V7.415H-6v-.7h.962V5.438ZM.459,7.527a2.707,2.707,0,0,0-.444-.034,1.19,1.19,0,0,0-1.206.757V12h-.9V6.717h.879l.015.61a1.407,1.407,0,0,1,1.26-.708.923.923,0,0,1,.4.068Zm2.93,4.57a2.308,2.308,0,0,1-1.748-.706A2.619,2.619,0,0,1,.967,9.5V9.339a3.17,3.17,0,0,1,.3-1.4,2.343,2.343,0,0,1,.84-.967,2.112,2.112,0,0,1,1.169-.349,1.979,1.979,0,0,1,1.6.679,2.939,2.939,0,0,1,.571,1.943v.376H1.87a1.878,1.878,0,0,0,.457,1.262,1.435,1.435,0,0,0,1.111.481,1.573,1.573,0,0,0,.811-.2,2.037,2.037,0,0,0,.581-.518l.552.43A2.219,2.219,0,0,1,3.389,12.1ZM3.276,7.361a1.2,1.2,0,0,0-.918.4A1.934,1.934,0,0,0,1.9,8.875H4.546V8.807A1.721,1.721,0,0,0,4.175,7.74,1.134,1.134,0,0,0,3.276,7.361Zm3,1.953a3.105,3.105,0,0,1,.571-1.965,1.827,1.827,0,0,1,1.514-.73A1.817,1.817,0,0,1,9.873,7.3l.044-.586h.825v5.156a2.149,2.149,0,0,1-.608,1.616A2.243,2.243,0,0,1,8.5,14.08a2.717,2.717,0,0,1-1.118-.244,1.925,1.925,0,0,1-.835-.669l.469-.542a1.766,1.766,0,0,0,1.421.718,1.384,1.384,0,0,0,1.028-.371,1.418,1.418,0,0,0,.369-1.045v-.454a1.857,1.857,0,0,1-1.479.625,1.8,1.8,0,0,1-1.5-.747A3.265,3.265,0,0,1,6.279,9.314Zm.908.1a2.369,2.369,0,0,0,.366,1.4,1.19,1.19,0,0,0,1.025.51,1.323,1.323,0,0,0,1.255-.776V8.143a1.339,1.339,0,0,0-1.245-.757,1.2,1.2,0,0,0-1.03.513A2.58,2.58,0,0,0,7.188,9.417ZM15.366,12a1.9,1.9,0,0,1-.127-.557,2.015,2.015,0,0,1-1.5.654,1.865,1.865,0,0,1-1.282-.442,1.43,1.43,0,0,1-.5-1.121,1.494,1.494,0,0,1,.627-1.282A2.958,2.958,0,0,1,14.346,8.8h.879V8.382a1.015,1.015,0,0,0-.283-.754,1.138,1.138,0,0,0-.835-.281,1.317,1.317,0,0,0-.811.244.719.719,0,0,0-.327.591h-.908a1.247,1.247,0,0,1,.281-.764,1.916,1.916,0,0,1,.762-.583,2.563,2.563,0,0,1,1.057-.215,2.089,2.089,0,0,1,1.431.457,1.647,1.647,0,0,1,.537,1.257v2.432a2.973,2.973,0,0,0,.186,1.157V12Zm-1.5-.688a1.588,1.588,0,0,0,.806-.22,1.329,1.329,0,0,0,.552-.571V9.437h-.708q-1.66,0-1.66.972a.822.822,0,0,0,.283.664A1.089,1.089,0,0,0,13.867,11.312Z" transform="translate(504.347 170.048)" fill="#12263f"/>
      <path id="Trazado_121049" data-name="Trazado 121049" d="M-24.526-2.783V0h-.937V-7.109h2.622a2.634,2.634,0,0,1,1.829.6,2.02,2.02,0,0,1,.662,1.577A1.993,1.993,0,0,1-21-3.342a2.752,2.752,0,0,1-1.853.559Zm0-.767h1.685A1.684,1.684,0,0,0-21.689-3.9a1.3,1.3,0,0,0,.4-1.025,1.34,1.34,0,0,0-.4-1.017,1.578,1.578,0,0,0-1.1-.4h-1.738Zm7.783-.923a2.707,2.707,0,0,0-.444-.034,1.19,1.19,0,0,0-1.206.757V0h-.9V-5.283h.879l.015.61a1.407,1.407,0,0,1,1.26-.708.923.923,0,0,1,.4.068Zm.493,1.782a3.121,3.121,0,0,1,.305-1.4,2.277,2.277,0,0,1,.85-.957,2.313,2.313,0,0,1,1.243-.337,2.228,2.228,0,0,1,1.746.747,2.874,2.874,0,0,1,.667,1.987v.063a3.148,3.148,0,0,1-.3,1.384,2.243,2.243,0,0,1-.845.955A2.339,2.339,0,0,1-13.843.1a2.222,2.222,0,0,1-1.741-.747,2.86,2.86,0,0,1-.667-1.978Zm.908.107a2.26,2.26,0,0,0,.408,1.411,1.3,1.3,0,0,0,1.091.532,1.3,1.3,0,0,0,1.094-.54,2.472,2.472,0,0,0,.405-1.511A2.256,2.256,0,0,0-12.756-4.1a1.312,1.312,0,0,0-1.1-.54,1.3,1.3,0,0,0-1.079.532A2.453,2.453,0,0,0-15.342-2.583ZM-8.188-.64a1.3,1.3,0,0,0,.845-.293,1.031,1.031,0,0,0,.4-.732h.854A1.638,1.638,0,0,1-6.4-.8a2.058,2.058,0,0,1-.769.654A2.219,2.219,0,0,1-8.188.1,2.176,2.176,0,0,1-9.9-.623a2.869,2.869,0,0,1-.637-1.97v-.151a3.181,3.181,0,0,1,.283-1.372,2.157,2.157,0,0,1,.813-.933,2.309,2.309,0,0,1,1.252-.332,2.119,2.119,0,0,1,1.477.532,1.9,1.9,0,0,1,.627,1.382h-.854a1.245,1.245,0,0,0-.388-.842,1.208,1.208,0,0,0-.862-.33,1.264,1.264,0,0,0-1.067.5A2.328,2.328,0,0,0-9.639-2.71v.171a2.281,2.281,0,0,0,.376,1.406A1.27,1.27,0,0,0-8.188-.64ZM-2.881.1A2.308,2.308,0,0,1-4.629-.608,2.619,2.619,0,0,1-5.3-2.5v-.166a3.17,3.17,0,0,1,.3-1.4,2.343,2.343,0,0,1,.84-.967,2.112,2.112,0,0,1,1.169-.349,1.979,1.979,0,0,1,1.6.679A2.939,2.939,0,0,1-.82-2.759v.376H-4.4a1.878,1.878,0,0,0,.457,1.262A1.435,1.435,0,0,0-2.832-.64a1.573,1.573,0,0,0,.811-.2,2.037,2.037,0,0,0,.581-.518l.552.43A2.219,2.219,0,0,1-2.881.1Zm-.112-4.736a1.2,1.2,0,0,0-.918.4A1.934,1.934,0,0,0-4.37-3.125h2.646v-.068A1.721,1.721,0,0,0-2.095-4.26,1.134,1.134,0,0,0-2.993-4.639ZM3.3-1.4a.665.665,0,0,0-.276-.569,2.655,2.655,0,0,0-.962-.349A4.548,4.548,0,0,1,.974-2.671a1.549,1.549,0,0,1-.6-.488,1.168,1.168,0,0,1-.193-.674,1.37,1.37,0,0,1,.549-1.1,2.145,2.145,0,0,1,1.4-.449A2.208,2.208,0,0,1,3.6-4.917,1.473,1.473,0,0,1,4.155-3.73H3.247a.815.815,0,0,0-.315-.64,1.18,1.18,0,0,0-.793-.269,1.235,1.235,0,0,0-.771.215.676.676,0,0,0-.278.562.548.548,0,0,0,.259.493,3.184,3.184,0,0,0,.935.317,4.872,4.872,0,0,1,1.1.361A1.6,1.6,0,0,1,4-2.185a1.243,1.243,0,0,1,.2.72A1.352,1.352,0,0,1,3.638-.33,2.376,2.376,0,0,1,2.168.1,2.66,2.66,0,0,1,1.045-.127,1.827,1.827,0,0,1,.281-.754,1.512,1.512,0,0,1,0-1.626h.9a.935.935,0,0,0,.364.72,1.411,1.411,0,0,0,.9.266,1.457,1.457,0,0,0,.823-.208A.638.638,0,0,0,3.3-1.4ZM5.142-2.69a3.121,3.121,0,0,1,.305-1.4,2.277,2.277,0,0,1,.85-.957,2.313,2.313,0,0,1,1.243-.337,2.228,2.228,0,0,1,1.746.747,2.874,2.874,0,0,1,.667,1.987v.063a3.148,3.148,0,0,1-.3,1.384,2.243,2.243,0,0,1-.845.955A2.339,2.339,0,0,1,7.549.1,2.222,2.222,0,0,1,5.808-.649a2.86,2.86,0,0,1-.667-1.978Zm.908.107a2.26,2.26,0,0,0,.408,1.411A1.3,1.3,0,0,0,7.549-.64a1.3,1.3,0,0,0,1.094-.54A2.472,2.472,0,0,0,9.048-2.69,2.256,2.256,0,0,0,8.635-4.1a1.312,1.312,0,0,0-1.1-.54,1.3,1.3,0,0,0-1.079.532A2.453,2.453,0,0,0,6.05-2.583Zm7.29-.1a3.1,3.1,0,0,1,.576-1.956,1.822,1.822,0,0,1,1.509-.74,1.832,1.832,0,0,1,1.47.635V-7.5h.9V0h-.83l-.044-.566A1.84,1.84,0,0,1,15.415.1a1.8,1.8,0,0,1-1.5-.752,3.13,3.13,0,0,1-.579-1.963Zm.9.1a2.343,2.343,0,0,0,.371,1.406,1.2,1.2,0,0,0,1.025.508,1.318,1.318,0,0,0,1.255-.771V-3.867a1.328,1.328,0,0,0-1.245-.747,1.205,1.205,0,0,0-1.035.513A2.58,2.58,0,0,0,14.243-2.583ZM21.392.1a2.308,2.308,0,0,1-1.748-.706A2.619,2.619,0,0,1,18.97-2.5v-.166a3.17,3.17,0,0,1,.3-1.4,2.343,2.343,0,0,1,.84-.967,2.112,2.112,0,0,1,1.169-.349,1.979,1.979,0,0,1,1.6.679,2.939,2.939,0,0,1,.571,1.943v.376H19.873a1.878,1.878,0,0,0,.457,1.262A1.435,1.435,0,0,0,21.44-.64a1.573,1.573,0,0,0,.811-.2,2.037,2.037,0,0,0,.581-.518l.552.43A2.219,2.219,0,0,1,21.392.1Zm-.112-4.736a1.2,1.2,0,0,0-.918.4A1.934,1.934,0,0,0,19.9-3.125h2.646v-.068a1.721,1.721,0,0,0-.371-1.067A1.134,1.134,0,0,0,21.279-4.639ZM-12.3,10.774l1.309-4.058h.923L-11.965,12h-.688l-1.914-5.283h.923ZM-7.073,12.1a2.308,2.308,0,0,1-1.748-.706A2.619,2.619,0,0,1-9.495,9.5V9.339a3.17,3.17,0,0,1,.3-1.4,2.343,2.343,0,0,1,.84-.967,2.112,2.112,0,0,1,1.169-.349,1.979,1.979,0,0,1,1.6.679,2.939,2.939,0,0,1,.571,1.943v.376H-8.591a1.878,1.878,0,0,0,.457,1.262,1.435,1.435,0,0,0,1.111.481,1.573,1.573,0,0,0,.811-.2,2.037,2.037,0,0,0,.581-.518l.552.43A2.219,2.219,0,0,1-7.073,12.1Zm-.112-4.736a1.2,1.2,0,0,0-.918.4,1.934,1.934,0,0,0-.459,1.116h2.646V8.807A1.721,1.721,0,0,0-6.287,7.74,1.134,1.134,0,0,0-7.185,7.361Zm4.072-.645.029.664A1.925,1.925,0,0,1-1.5,6.619q1.675,0,1.689,1.89V12h-.9V8.5a1.216,1.216,0,0,0-.261-.845,1.047,1.047,0,0,0-.8-.273,1.3,1.3,0,0,0-.771.234,1.592,1.592,0,0,0-.518.615V12h-.9V6.717ZM2.776,5.438V6.717h.986v.7H2.776V10.7a.733.733,0,0,0,.132.477.555.555,0,0,0,.449.159,2.187,2.187,0,0,0,.43-.059V12a2.634,2.634,0,0,1-.693.1,1.125,1.125,0,0,1-.913-.366,1.573,1.573,0,0,1-.308-1.04V7.415H.911v-.7h.962V5.438ZM8.079,12a1.9,1.9,0,0,1-.127-.557,2.015,2.015,0,0,1-1.5.654,1.865,1.865,0,0,1-1.282-.442,1.43,1.43,0,0,1-.5-1.121,1.494,1.494,0,0,1,.627-1.282A2.958,2.958,0,0,1,7.058,8.8h.879V8.382a1.015,1.015,0,0,0-.283-.754,1.138,1.138,0,0,0-.835-.281,1.317,1.317,0,0,0-.811.244.719.719,0,0,0-.327.591H4.773a1.247,1.247,0,0,1,.281-.764,1.916,1.916,0,0,1,.762-.583,2.563,2.563,0,0,1,1.057-.215A2.089,2.089,0,0,1,8.3,7.076,1.647,1.647,0,0,1,8.84,8.333v2.432a2.973,2.973,0,0,0,.186,1.157V12Zm-1.5-.688a1.588,1.588,0,0,0,.806-.22,1.329,1.329,0,0,0,.552-.571V9.437H7.229q-1.66,0-1.66.972a.822.822,0,0,0,.283.664A1.089,1.089,0,0,0,6.58,11.312Zm6.753-.713a.665.665,0,0,0-.276-.569,2.655,2.655,0,0,0-.962-.349,4.548,4.548,0,0,1-1.089-.352,1.549,1.549,0,0,1-.6-.488,1.168,1.168,0,0,1-.193-.674,1.37,1.37,0,0,1,.549-1.1,2.145,2.145,0,0,1,1.4-.449,2.208,2.208,0,0,1,1.458.464,1.473,1.473,0,0,1,.559,1.187h-.908a.815.815,0,0,0-.315-.64,1.18,1.18,0,0,0-.793-.269,1.235,1.235,0,0,0-.771.215.676.676,0,0,0-.278.562.548.548,0,0,0,.259.493,3.184,3.184,0,0,0,.935.317,4.872,4.872,0,0,1,1.1.361,1.6,1.6,0,0,1,.623.505,1.243,1.243,0,0,1,.2.72,1.352,1.352,0,0,1-.566,1.135,2.376,2.376,0,0,1-1.47.427,2.66,2.66,0,0,1-1.123-.225,1.827,1.827,0,0,1-.764-.627,1.512,1.512,0,0,1-.276-.872h.9a.935.935,0,0,0,.364.72,1.411,1.411,0,0,0,.9.266,1.457,1.457,0,0,0,.823-.208A.638.638,0,0,0,13.333,10.6Z" transform="translate(513.683 267.69)" fill="#12263f"/>
      <path id="Trazado_121050" data-name="Trazado 121050" d="M-15.986-3.169a4.408,4.408,0,0,1-1.755-.852,1.628,1.628,0,0,1-.549-1.248,1.72,1.72,0,0,1,.671-1.389,2.668,2.668,0,0,1,1.746-.549,2.913,2.913,0,0,1,1.306.283,2.148,2.148,0,0,1,.889.781,2,2,0,0,1,.315,1.089h-.942a1.3,1.3,0,0,0-.41-1.017,1.668,1.668,0,0,0-1.157-.37,1.708,1.708,0,0,0-1.082.306,1.02,1.02,0,0,0-.388.849.918.918,0,0,0,.369.736A3.616,3.616,0,0,0-15.72-4a5.823,5.823,0,0,1,1.387.55,2.1,2.1,0,0,1,.742.7,1.788,1.788,0,0,1,.242.942,1.661,1.661,0,0,1-.674,1.384,2.873,2.873,0,0,1-1.8.52,3.342,3.342,0,0,1-1.367-.281,2.3,2.3,0,0,1-.979-.769,1.877,1.877,0,0,1-.344-1.108h.942A1.224,1.224,0,0,0-17.1-1.042a2,2,0,0,0,1.272.374,1.843,1.843,0,0,0,1.138-.3.983.983,0,0,0,.4-.825.965.965,0,0,0-.366-.808A4.222,4.222,0,0,0-15.986-3.169ZM-10.1.1a2.308,2.308,0,0,1-1.748-.706A2.619,2.619,0,0,1-12.52-2.5v-.166a3.17,3.17,0,0,1,.3-1.4,2.343,2.343,0,0,1,.84-.967,2.112,2.112,0,0,1,1.169-.349,1.979,1.979,0,0,1,1.6.679,2.939,2.939,0,0,1,.571,1.943v.376h-3.579a1.878,1.878,0,0,0,.457,1.262,1.435,1.435,0,0,0,1.111.481,1.573,1.573,0,0,0,.811-.2,2.037,2.037,0,0,0,.581-.518l.552.43A2.219,2.219,0,0,1-10.1.1Zm-.112-4.736a1.2,1.2,0,0,0-.918.4,1.934,1.934,0,0,0-.459,1.116H-8.94v-.068A1.721,1.721,0,0,0-9.312-4.26,1.134,1.134,0,0,0-10.21-4.639Zm5.771.166a2.707,2.707,0,0,0-.444-.034,1.19,1.19,0,0,0-1.206.757V0h-.9V-5.283h.879l.015.61a1.407,1.407,0,0,1,1.26-.708.923.923,0,0,1,.4.068Zm2.661,3.247L-.469-5.283H.454L-1.44,0h-.688L-4.043-5.283h.923ZM2.3,0H1.4V-5.283h.9ZM1.328-6.685a.539.539,0,0,1,.134-.371.5.5,0,0,1,.4-.151.512.512,0,0,1,.4.151.534.534,0,0,1,.137.371.516.516,0,0,1-.137.366.521.521,0,0,1-.4.146.513.513,0,0,1-.4-.146A.521.521,0,0,1,1.328-6.685ZM5.869-.64a1.3,1.3,0,0,0,.845-.293,1.031,1.031,0,0,0,.4-.732h.854A1.638,1.638,0,0,1,7.656-.8a2.058,2.058,0,0,1-.769.654A2.219,2.219,0,0,1,5.869.1a2.176,2.176,0,0,1-1.716-.72,2.869,2.869,0,0,1-.637-1.97v-.151A3.181,3.181,0,0,1,3.8-4.116a2.157,2.157,0,0,1,.813-.933,2.309,2.309,0,0,1,1.252-.332,2.119,2.119,0,0,1,1.477.532,1.9,1.9,0,0,1,.627,1.382H7.114a1.245,1.245,0,0,0-.388-.842,1.208,1.208,0,0,0-.862-.33,1.264,1.264,0,0,0-1.067.5A2.328,2.328,0,0,0,4.419-2.71v.171a2.281,2.281,0,0,0,.376,1.406A1.27,1.27,0,0,0,5.869-.64Zm4.1.64h-.9V-5.283h.9ZM8.989-6.685a.539.539,0,0,1,.134-.371.5.5,0,0,1,.4-.151.512.512,0,0,1,.4.151.534.534,0,0,1,.137.371.516.516,0,0,1-.137.366.521.521,0,0,1-.4.146.513.513,0,0,1-.4-.146A.521.521,0,0,1,8.989-6.685ZM11.172-2.69a3.121,3.121,0,0,1,.305-1.4,2.277,2.277,0,0,1,.85-.957,2.313,2.313,0,0,1,1.243-.337,2.228,2.228,0,0,1,1.746.747,2.874,2.874,0,0,1,.667,1.987v.063a3.148,3.148,0,0,1-.3,1.384,2.243,2.243,0,0,1-.845.955A2.339,2.339,0,0,1,13.579.1a2.222,2.222,0,0,1-1.741-.747,2.86,2.86,0,0,1-.667-1.978Zm.908.107a2.26,2.26,0,0,0,.408,1.411,1.3,1.3,0,0,0,1.091.532,1.3,1.3,0,0,0,1.094-.54,2.472,2.472,0,0,0,.405-1.511A2.256,2.256,0,0,0,14.666-4.1a1.312,1.312,0,0,0-1.1-.54,1.3,1.3,0,0,0-1.079.532A2.453,2.453,0,0,0,12.08-2.583Zm-28.953,12a3.163,3.163,0,0,1-.552,1.943,1.768,1.768,0,0,1-1.494.737,1.938,1.938,0,0,1-1.514-.61v2.544h-.9V6.717h.825l.044.586a1.861,1.861,0,0,1,1.533-.684,1.8,1.8,0,0,1,1.506.718,3.2,3.2,0,0,1,.554,2Zm-.9-.1A2.334,2.334,0,0,0-18.157,7.9,1.227,1.227,0,0,0-19.2,7.386a1.328,1.328,0,0,0-1.23.728v2.524a1.33,1.33,0,0,0,1.24.723,1.221,1.221,0,0,0,1.033-.515A2.548,2.548,0,0,0-17.776,9.314Zm1.812,0a3.121,3.121,0,0,1,.305-1.4,2.277,2.277,0,0,1,.85-.957,2.313,2.313,0,0,1,1.243-.337,2.228,2.228,0,0,1,1.746.747,2.874,2.874,0,0,1,.667,1.987v.063a3.148,3.148,0,0,1-.3,1.384,2.243,2.243,0,0,1-.845.955,2.339,2.339,0,0,1-1.262.342,2.222,2.222,0,0,1-1.741-.747,2.86,2.86,0,0,1-.667-1.978Zm.908.107a2.26,2.26,0,0,0,.408,1.411,1.3,1.3,0,0,0,1.091.532,1.3,1.3,0,0,0,1.094-.54,2.472,2.472,0,0,0,.405-1.511A2.256,2.256,0,0,0-12.471,7.9a1.312,1.312,0,0,0-1.1-.54,1.3,1.3,0,0,0-1.079.532A2.453,2.453,0,0,0-15.056,9.417Zm8.11,1.182a.665.665,0,0,0-.276-.569,2.655,2.655,0,0,0-.962-.349,4.548,4.548,0,0,1-1.089-.352,1.549,1.549,0,0,1-.6-.488,1.168,1.168,0,0,1-.193-.674,1.37,1.37,0,0,1,.549-1.1,2.145,2.145,0,0,1,1.4-.449,2.208,2.208,0,0,1,1.458.464A1.473,1.473,0,0,1-6.091,8.27H-7a.815.815,0,0,0-.315-.64,1.18,1.18,0,0,0-.793-.269,1.235,1.235,0,0,0-.771.215.676.676,0,0,0-.278.562.548.548,0,0,0,.259.493,3.184,3.184,0,0,0,.935.317,4.872,4.872,0,0,1,1.1.361,1.6,1.6,0,0,1,.623.505,1.243,1.243,0,0,1,.2.72,1.352,1.352,0,0,1-.566,1.135,2.376,2.376,0,0,1-1.47.427A2.66,2.66,0,0,1-9.2,11.873a1.827,1.827,0,0,1-.764-.627,1.512,1.512,0,0,1-.276-.872h.9a.935.935,0,0,0,.364.72,1.411,1.411,0,0,0,.9.266,1.457,1.457,0,0,0,.823-.208A.638.638,0,0,0-6.946,10.6ZM-3.64,5.438V6.717h.986v.7H-3.64V10.7a.733.733,0,0,0,.132.477.555.555,0,0,0,.449.159,2.187,2.187,0,0,0,.43-.059V12a2.634,2.634,0,0,1-.693.1,1.125,1.125,0,0,1-.913-.366,1.573,1.573,0,0,1-.308-1.04V7.415h-.962v-.7h.962V5.438ZM.144,10.774,1.453,6.717h.923L.481,12H-.208L-2.122,6.717H-1.2ZM5.374,12.1a2.308,2.308,0,0,1-1.748-.706A2.619,2.619,0,0,1,2.952,9.5V9.339a3.17,3.17,0,0,1,.3-1.4,2.343,2.343,0,0,1,.84-.967,2.112,2.112,0,0,1,1.169-.349,1.979,1.979,0,0,1,1.6.679,2.939,2.939,0,0,1,.571,1.943v.376H3.855a1.878,1.878,0,0,0,.457,1.262,1.435,1.435,0,0,0,1.111.481,1.573,1.573,0,0,0,.811-.2,2.037,2.037,0,0,0,.581-.518l.552.43A2.219,2.219,0,0,1,5.374,12.1ZM5.261,7.361a1.2,1.2,0,0,0-.918.4,1.934,1.934,0,0,0-.459,1.116H6.531V8.807A1.721,1.721,0,0,0,6.16,7.74,1.134,1.134,0,0,0,5.261,7.361Zm4.072-.645.029.664a1.925,1.925,0,0,1,1.582-.762q1.675,0,1.689,1.89V12h-.9V8.5a1.216,1.216,0,0,0-.261-.845,1.047,1.047,0,0,0-.8-.273A1.3,1.3,0,0,0,9.9,7.62a1.592,1.592,0,0,0-.518.615V12h-.9V6.717Zm5.889-1.279V6.717h.986v.7h-.986V10.7a.733.733,0,0,0,.132.477.555.555,0,0,0,.449.159,2.187,2.187,0,0,0,.43-.059V12a2.634,2.634,0,0,1-.693.1,1.125,1.125,0,0,1-.913-.366,1.573,1.573,0,0,1-.308-1.04V7.415h-.962v-.7h.962V5.438ZM20.525,12a1.9,1.9,0,0,1-.127-.557,2.015,2.015,0,0,1-1.5.654,1.865,1.865,0,0,1-1.282-.442,1.43,1.43,0,0,1-.5-1.121,1.494,1.494,0,0,1,.627-1.282A2.958,2.958,0,0,1,19.5,8.8h.879V8.382a1.015,1.015,0,0,0-.283-.754,1.138,1.138,0,0,0-.835-.281,1.317,1.317,0,0,0-.811.244.719.719,0,0,0-.327.591h-.908a1.247,1.247,0,0,1,.281-.764,1.916,1.916,0,0,1,.762-.583,2.563,2.563,0,0,1,1.057-.215,2.089,2.089,0,0,1,1.431.457,1.647,1.647,0,0,1,.537,1.257v2.432a2.973,2.973,0,0,0,.186,1.157V12Zm-1.5-.688a1.588,1.588,0,0,0,.806-.22,1.329,1.329,0,0,0,.552-.571V9.437h-.708q-1.66,0-1.66.972a.822.822,0,0,0,.283.664A1.089,1.089,0,0,0,19.026,11.312Z" transform="translate(437.47 342.164)" fill="#12263f"/>
      <path id="Trazado_121051" data-name="Trazado 121051" d="M-12.686,0h-.942l-3.579-5.479V0h-.942V-7.109h.942l3.589,5.5v-5.5h.933Zm2.5,0h-.9V-5.283h.9Zm-.977-6.685a.539.539,0,0,1,.134-.371.5.5,0,0,1,.4-.151.512.512,0,0,1,.4.151.534.534,0,0,1,.137.371.516.516,0,0,1-.137.366.521.521,0,0,1-.4.146.513.513,0,0,1-.4-.146A.521.521,0,0,1-11.157-6.685Zm4.165,5.459,1.309-4.058h.923L-6.655,0h-.688L-9.258-5.283h.923ZM-1.763.1A2.308,2.308,0,0,1-3.511-.608,2.619,2.619,0,0,1-4.185-2.5v-.166a3.17,3.17,0,0,1,.3-1.4,2.343,2.343,0,0,1,.84-.967,2.112,2.112,0,0,1,1.169-.349,1.979,1.979,0,0,1,1.6.679A2.939,2.939,0,0,1,.3-2.759v.376H-3.281a1.878,1.878,0,0,0,.457,1.262A1.435,1.435,0,0,0-1.714-.64,1.573,1.573,0,0,0-.9-.835a2.037,2.037,0,0,0,.581-.518l.552.43A2.219,2.219,0,0,1-1.763.1Zm-.112-4.736a1.2,1.2,0,0,0-.918.4,1.934,1.934,0,0,0-.459,1.116H-.605v-.068A1.721,1.721,0,0,0-.977-4.26,1.134,1.134,0,0,0-1.875-4.639ZM2.324,0h-.9V-7.5h.9Zm3.7-2.686A3.1,3.1,0,0,1,6.6-4.641a1.822,1.822,0,0,1,1.509-.74,1.832,1.832,0,0,1,1.47.635V-7.5h.9V0h-.83L9.609-.566A1.84,1.84,0,0,1,8.1.1,1.8,1.8,0,0,1,6.6-.654a3.13,3.13,0,0,1-.579-1.963Zm.9.1A2.343,2.343,0,0,0,7.3-1.177a1.2,1.2,0,0,0,1.025.508A1.318,1.318,0,0,0,9.58-1.44V-3.867a1.328,1.328,0,0,0-1.245-.747A1.205,1.205,0,0,0,7.3-4.1,2.58,2.58,0,0,0,6.929-2.583ZM14.077.1a2.308,2.308,0,0,1-1.748-.706A2.619,2.619,0,0,1,11.655-2.5v-.166a3.17,3.17,0,0,1,.3-1.4,2.343,2.343,0,0,1,.84-.967,2.112,2.112,0,0,1,1.169-.349,1.979,1.979,0,0,1,1.6.679,2.939,2.939,0,0,1,.571,1.943v.376H12.559a1.878,1.878,0,0,0,.457,1.262,1.435,1.435,0,0,0,1.111.481,1.573,1.573,0,0,0,.811-.2,2.037,2.037,0,0,0,.581-.518l.552.43A2.219,2.219,0,0,1,14.077.1Zm-.112-4.736a1.2,1.2,0,0,0-.918.4,1.934,1.934,0,0,0-.459,1.116h2.646v-.068a1.721,1.721,0,0,0-.371-1.067A1.134,1.134,0,0,0,13.965-4.639ZM-15.078,12a1.9,1.9,0,0,1-.127-.557,2.015,2.015,0,0,1-1.5.654,1.865,1.865,0,0,1-1.282-.442,1.43,1.43,0,0,1-.5-1.121,1.494,1.494,0,0,1,.627-1.282A2.958,2.958,0,0,1-16.1,8.8h.879V8.382a1.015,1.015,0,0,0-.283-.754,1.138,1.138,0,0,0-.835-.281,1.317,1.317,0,0,0-.811.244.719.719,0,0,0-.327.591h-.908a1.247,1.247,0,0,1,.281-.764,1.916,1.916,0,0,1,.762-.583,2.563,2.563,0,0,1,1.057-.215,2.089,2.089,0,0,1,1.431.457,1.647,1.647,0,0,1,.537,1.257v2.432a2.973,2.973,0,0,0,.186,1.157V12Zm-1.5-.688a1.588,1.588,0,0,0,.806-.22,1.329,1.329,0,0,0,.552-.571V9.437h-.708q-1.66,0-1.66.972a.822.822,0,0,0,.283.664A1.089,1.089,0,0,0-16.577,11.312Zm6.753-.713a.665.665,0,0,0-.276-.569,2.655,2.655,0,0,0-.962-.349,4.548,4.548,0,0,1-1.089-.352,1.549,1.549,0,0,1-.6-.488,1.168,1.168,0,0,1-.193-.674,1.37,1.37,0,0,1,.549-1.1,2.145,2.145,0,0,1,1.4-.449,2.208,2.208,0,0,1,1.458.464A1.473,1.473,0,0,1-8.97,8.27h-.908a.815.815,0,0,0-.315-.64,1.18,1.18,0,0,0-.793-.269,1.235,1.235,0,0,0-.771.215.676.676,0,0,0-.278.562.548.548,0,0,0,.259.493,3.184,3.184,0,0,0,.935.317,4.872,4.872,0,0,1,1.1.361,1.6,1.6,0,0,1,.623.505,1.243,1.243,0,0,1,.2.72,1.352,1.352,0,0,1-.566,1.135,2.376,2.376,0,0,1-1.47.427,2.66,2.66,0,0,1-1.123-.225,1.827,1.827,0,0,1-.764-.627,1.512,1.512,0,0,1-.276-.872h.9a.935.935,0,0,0,.364.72,1.411,1.411,0,0,0,.9.266,1.457,1.457,0,0,0,.823-.208A.638.638,0,0,0-9.824,10.6Zm4.272,1.5A2.308,2.308,0,0,1-7.3,11.392,2.619,2.619,0,0,1-7.974,9.5V9.339a3.17,3.17,0,0,1,.3-1.4,2.343,2.343,0,0,1,.84-.967,2.112,2.112,0,0,1,1.169-.349,1.979,1.979,0,0,1,1.6.679,2.939,2.939,0,0,1,.571,1.943v.376H-7.07a1.878,1.878,0,0,0,.457,1.262A1.435,1.435,0,0,0-5.5,11.36a1.573,1.573,0,0,0,.811-.2,2.037,2.037,0,0,0,.581-.518l.552.43A2.219,2.219,0,0,1-5.552,12.1Zm-.112-4.736a1.2,1.2,0,0,0-.918.4,1.934,1.934,0,0,0-.459,1.116h2.646V8.807A1.721,1.721,0,0,0-4.766,7.74,1.134,1.134,0,0,0-5.664,7.361ZM.63,10.6a.665.665,0,0,0-.276-.569,2.655,2.655,0,0,0-.962-.349A4.548,4.548,0,0,1-1.7,9.329a1.549,1.549,0,0,1-.6-.488,1.168,1.168,0,0,1-.193-.674,1.37,1.37,0,0,1,.549-1.1,2.145,2.145,0,0,1,1.4-.449,2.208,2.208,0,0,1,1.458.464A1.473,1.473,0,0,1,1.484,8.27H.576a.815.815,0,0,0-.315-.64,1.18,1.18,0,0,0-.793-.269,1.235,1.235,0,0,0-.771.215.676.676,0,0,0-.278.562.548.548,0,0,0,.259.493,3.184,3.184,0,0,0,.935.317,4.872,4.872,0,0,1,1.1.361,1.6,1.6,0,0,1,.623.505,1.243,1.243,0,0,1,.2.72A1.352,1.352,0,0,1,.967,11.67,2.376,2.376,0,0,1-.5,12.1a2.66,2.66,0,0,1-1.123-.225,1.827,1.827,0,0,1-.764-.627,1.512,1.512,0,0,1-.276-.872h.9a.935.935,0,0,0,.364.72,1.411,1.411,0,0,0,.9.266,1.457,1.457,0,0,0,.823-.208A.638.638,0,0,0,.63,10.6ZM2.471,9.31a3.121,3.121,0,0,1,.305-1.4,2.277,2.277,0,0,1,.85-.957,2.313,2.313,0,0,1,1.243-.337,2.228,2.228,0,0,1,1.746.747A2.874,2.874,0,0,1,7.28,9.354v.063a3.148,3.148,0,0,1-.3,1.384,2.243,2.243,0,0,1-.845.955,2.339,2.339,0,0,1-1.262.342,2.222,2.222,0,0,1-1.741-.747,2.86,2.86,0,0,1-.667-1.978Zm.908.107a2.26,2.26,0,0,0,.408,1.411,1.3,1.3,0,0,0,1.091.532,1.3,1.3,0,0,0,1.094-.54A2.472,2.472,0,0,0,6.377,9.31,2.256,2.256,0,0,0,5.964,7.9a1.312,1.312,0,0,0-1.1-.54,1.3,1.3,0,0,0-1.079.532A2.453,2.453,0,0,0,3.379,9.417Zm7.588-1.89a2.707,2.707,0,0,0-.444-.034,1.19,1.19,0,0,0-1.206.757V12h-.9V6.717h.879l.015.61a1.407,1.407,0,0,1,1.26-.708.923.923,0,0,1,.4.068ZM12.778,12H11.87V6.717h.908Zm.01-7.485h1.094L12.573,5.95l-.728,0ZM17.529,12a1.9,1.9,0,0,1-.127-.557,2.015,2.015,0,0,1-1.5.654,1.865,1.865,0,0,1-1.282-.442,1.43,1.43,0,0,1-.5-1.121,1.494,1.494,0,0,1,.627-1.282A2.958,2.958,0,0,1,16.509,8.8h.879V8.382a1.015,1.015,0,0,0-.283-.754,1.138,1.138,0,0,0-.835-.281,1.317,1.317,0,0,0-.811.244.719.719,0,0,0-.327.591h-.908a1.247,1.247,0,0,1,.281-.764,1.916,1.916,0,0,1,.762-.583,2.563,2.563,0,0,1,1.057-.215,2.089,2.089,0,0,1,1.431.457,1.647,1.647,0,0,1,.537,1.257v2.432a2.973,2.973,0,0,0,.186,1.157V12Zm-1.5-.688a1.588,1.588,0,0,0,.806-.22,1.329,1.329,0,0,0,.552-.571V9.437H16.68q-1.66,0-1.66.972a.822.822,0,0,0,.283.664A1.089,1.089,0,0,0,16.03,11.312Z" transform="translate(332.026 351.527)" fill="#12263f"/>
      <path id="Trazado_121052" data-name="Trazado 121052" d="M-12.686,0h-.942l-3.579-5.479V0h-.942V-7.109h.942l3.589,5.5v-5.5h.933Zm2.5,0h-.9V-5.283h.9Zm-.977-6.685a.539.539,0,0,1,.134-.371.5.5,0,0,1,.4-.151.512.512,0,0,1,.4.151.534.534,0,0,1,.137.371.516.516,0,0,1-.137.366.521.521,0,0,1-.4.146.513.513,0,0,1-.4-.146A.521.521,0,0,1-11.157-6.685Zm4.165,5.459,1.309-4.058h.923L-6.655,0h-.688L-9.258-5.283h.923ZM-1.763.1A2.308,2.308,0,0,1-3.511-.608,2.619,2.619,0,0,1-4.185-2.5v-.166a3.17,3.17,0,0,1,.3-1.4,2.343,2.343,0,0,1,.84-.967,2.112,2.112,0,0,1,1.169-.349,1.979,1.979,0,0,1,1.6.679A2.939,2.939,0,0,1,.3-2.759v.376H-3.281a1.878,1.878,0,0,0,.457,1.262A1.435,1.435,0,0,0-1.714-.64,1.573,1.573,0,0,0-.9-.835a2.037,2.037,0,0,0,.581-.518l.552.43A2.219,2.219,0,0,1-1.763.1Zm-.112-4.736a1.2,1.2,0,0,0-.918.4,1.934,1.934,0,0,0-.459,1.116H-.605v-.068A1.721,1.721,0,0,0-.977-4.26,1.134,1.134,0,0,0-1.875-4.639ZM2.324,0h-.9V-7.5h.9Zm3.7-2.686A3.1,3.1,0,0,1,6.6-4.641a1.822,1.822,0,0,1,1.509-.74,1.832,1.832,0,0,1,1.47.635V-7.5h.9V0h-.83L9.609-.566A1.84,1.84,0,0,1,8.1.1,1.8,1.8,0,0,1,6.6-.654a3.13,3.13,0,0,1-.579-1.963Zm.9.1A2.343,2.343,0,0,0,7.3-1.177a1.2,1.2,0,0,0,1.025.508A1.318,1.318,0,0,0,9.58-1.44V-3.867a1.328,1.328,0,0,0-1.245-.747A1.205,1.205,0,0,0,7.3-4.1,2.58,2.58,0,0,0,6.929-2.583ZM14.077.1a2.308,2.308,0,0,1-1.748-.706A2.619,2.619,0,0,1,11.655-2.5v-.166a3.17,3.17,0,0,1,.3-1.4,2.343,2.343,0,0,1,.84-.967,2.112,2.112,0,0,1,1.169-.349,1.979,1.979,0,0,1,1.6.679,2.939,2.939,0,0,1,.571,1.943v.376H12.559a1.878,1.878,0,0,0,.457,1.262,1.435,1.435,0,0,0,1.111.481,1.573,1.573,0,0,0,.811-.2,2.037,2.037,0,0,0,.581-.518l.552.43A2.219,2.219,0,0,1,14.077.1Zm-.112-4.736a1.2,1.2,0,0,0-.918.4,1.934,1.934,0,0,0-.459,1.116h2.646v-.068a1.721,1.721,0,0,0-.371-1.067A1.134,1.134,0,0,0,13.965-4.639ZM-25.129,12h-.9V6.717h.9Zm-.977-6.685a.539.539,0,0,1,.134-.371.5.5,0,0,1,.4-.151.512.512,0,0,1,.4.151.534.534,0,0,1,.137.371.516.516,0,0,1-.137.366.521.521,0,0,1-.4.146.513.513,0,0,1-.4-.146A.521.521,0,0,1-26.106,5.315Zm3.276,1.4.029.664a1.925,1.925,0,0,1,1.582-.762q1.675,0,1.689,1.89V12h-.9V8.5a1.216,1.216,0,0,0-.261-.845,1.047,1.047,0,0,0-.8-.273,1.3,1.3,0,0,0-.771.234,1.592,1.592,0,0,0-.518.615V12h-.9V6.717ZM-17.722,12V7.415h-.835v-.7h.835V6.175a1.8,1.8,0,0,1,.454-1.313A1.715,1.715,0,0,1-15.984,4.4a2.385,2.385,0,0,1,.62.082l-.049.728a2.594,2.594,0,0,0-.488-.044.881.881,0,0,0-.679.257,1.043,1.043,0,0,0-.239.737v.558h1.128v.7h-1.128V12Zm2.788-2.69a3.121,3.121,0,0,1,.305-1.4,2.277,2.277,0,0,1,.85-.957,2.313,2.313,0,0,1,1.243-.337,2.228,2.228,0,0,1,1.746.747,2.874,2.874,0,0,1,.667,1.987v.063a3.148,3.148,0,0,1-.3,1.384,2.243,2.243,0,0,1-.845.955,2.339,2.339,0,0,1-1.262.342,2.222,2.222,0,0,1-1.741-.747,2.86,2.86,0,0,1-.667-1.978Zm.908.107a2.26,2.26,0,0,0,.408,1.411,1.3,1.3,0,0,0,1.091.532,1.3,1.3,0,0,0,1.094-.54,2.472,2.472,0,0,0,.405-1.511A2.256,2.256,0,0,0-11.44,7.9a1.312,1.312,0,0,0-1.1-.54,1.3,1.3,0,0,0-1.079.532A2.453,2.453,0,0,0-14.026,9.417Zm7.588-1.89a2.707,2.707,0,0,0-.444-.034,1.19,1.19,0,0,0-1.206.757V12h-.9V6.717h.879l.015.61a1.407,1.407,0,0,1,1.26-.708.923.923,0,0,1,.4.068Zm1.68-.811.024.586a1.951,1.951,0,0,1,1.567-.684,1.51,1.51,0,0,1,1.509.85,2,2,0,0,1,.686-.615,2.026,2.026,0,0,1,1-.234q1.738,0,1.768,1.841V12h-.9V8.514a1.213,1.213,0,0,0-.259-.847,1.14,1.14,0,0,0-.869-.281,1.2,1.2,0,0,0-.835.3,1.218,1.218,0,0,0-.386.808V12h-.908V8.538A1.008,1.008,0,0,0-3.494,7.386a1.209,1.209,0,0,0-1.216.757V12h-.9V6.717ZM6.418,12a1.9,1.9,0,0,1-.127-.557,2.015,2.015,0,0,1-1.5.654,1.865,1.865,0,0,1-1.282-.442,1.43,1.43,0,0,1-.5-1.121,1.494,1.494,0,0,1,.627-1.282A2.958,2.958,0,0,1,5.4,8.8h.879V8.382a1.015,1.015,0,0,0-.283-.754,1.138,1.138,0,0,0-.835-.281,1.317,1.317,0,0,0-.811.244.719.719,0,0,0-.327.591H3.113a1.247,1.247,0,0,1,.281-.764,1.916,1.916,0,0,1,.762-.583,2.563,2.563,0,0,1,1.057-.215,2.089,2.089,0,0,1,1.431.457A1.647,1.647,0,0,1,7.18,8.333v2.432a2.973,2.973,0,0,0,.186,1.157V12Zm-1.5-.688a1.588,1.588,0,0,0,.806-.22,1.329,1.329,0,0,0,.552-.571V9.437H5.569q-1.66,0-1.66.972a.822.822,0,0,0,.283.664A1.089,1.089,0,0,0,4.919,11.312Zm5.8.049a1.3,1.3,0,0,0,.845-.293,1.031,1.031,0,0,0,.4-.732h.854a1.638,1.638,0,0,1-.312.864,2.058,2.058,0,0,1-.769.654,2.219,2.219,0,0,1-1.018.244A2.176,2.176,0,0,1,9,11.377a2.869,2.869,0,0,1-.637-1.97V9.256a3.181,3.181,0,0,1,.283-1.372,2.157,2.157,0,0,1,.813-.933,2.309,2.309,0,0,1,1.252-.332,2.119,2.119,0,0,1,1.477.532,1.9,1.9,0,0,1,.627,1.382H11.96a1.245,1.245,0,0,0-.388-.842,1.208,1.208,0,0,0-.862-.33,1.264,1.264,0,0,0-1.067.5A2.328,2.328,0,0,0,9.265,9.29v.171a2.281,2.281,0,0,0,.376,1.406A1.27,1.27,0,0,0,10.715,11.36Zm4.1.64h-.9V6.717h.9Zm-.977-6.685a.539.539,0,0,1,.134-.371.5.5,0,0,1,.4-.151.512.512,0,0,1,.4.151.534.534,0,0,1,.137.371.516.516,0,0,1-.137.366.521.521,0,0,1-.4.146.513.513,0,0,1-.4-.146A.521.521,0,0,1,13.835,5.315ZM16.018,9.31a3.121,3.121,0,0,1,.305-1.4,2.277,2.277,0,0,1,.85-.957,2.313,2.313,0,0,1,1.243-.337,2.228,2.228,0,0,1,1.746.747,2.874,2.874,0,0,1,.667,1.987v.063a3.148,3.148,0,0,1-.3,1.384,2.243,2.243,0,0,1-.845.955,2.339,2.339,0,0,1-1.262.342,2.222,2.222,0,0,1-1.741-.747,2.86,2.86,0,0,1-.667-1.978Zm.908.107a2.26,2.26,0,0,0,.408,1.411,1.382,1.382,0,0,0,2.185-.007,2.472,2.472,0,0,0,.405-1.511A2.256,2.256,0,0,0,19.512,7.9a1.312,1.312,0,0,0-1.1-.54,1.3,1.3,0,0,0-1.079.532A2.453,2.453,0,0,0,16.926,9.417Zm1.9-4.907h1.094L18.611,5.945l-.728,0Zm3.989,2.207.029.664a1.925,1.925,0,0,1,1.582-.762q1.675,0,1.689,1.89V12h-.9V8.5a1.216,1.216,0,0,0-.261-.845,1.047,1.047,0,0,0-.8-.273,1.3,1.3,0,0,0-.771.234,1.592,1.592,0,0,0-.518.615V12h-.9V6.717Z" transform="translate(250.32 278.223)" fill="#12263f"/>
      <path id="Trazado_121053" data-name="Trazado 121053" d="M-38.015,0h-.942l-3.579-5.479V0h-.942V-7.109h.942l3.589,5.5v-5.5h.933Zm2.5,0h-.9V-5.283h.9Zm-.977-6.685a.539.539,0,0,1,.134-.371.5.5,0,0,1,.4-.151.512.512,0,0,1,.4.151.534.534,0,0,1,.137.371.516.516,0,0,1-.137.366.521.521,0,0,1-.4.146.513.513,0,0,1-.4-.146A.521.521,0,0,1-36.487-6.685Zm4.165,5.459,1.309-4.058h.923L-31.985,0h-.688l-1.914-5.283h.923ZM-27.092.1A2.308,2.308,0,0,1-28.84-.608,2.619,2.619,0,0,1-29.514-2.5v-.166a3.17,3.17,0,0,1,.3-1.4,2.343,2.343,0,0,1,.84-.967A2.112,2.112,0,0,1-27.2-5.381a1.979,1.979,0,0,1,1.6.679,2.939,2.939,0,0,1,.571,1.943v.376h-3.579a1.878,1.878,0,0,0,.457,1.262,1.435,1.435,0,0,0,1.111.481,1.573,1.573,0,0,0,.811-.2,2.037,2.037,0,0,0,.581-.518l.552.43A2.219,2.219,0,0,1-27.092.1ZM-27.2-4.639a1.2,1.2,0,0,0-.918.4,1.934,1.934,0,0,0-.459,1.116h2.646v-.068a1.721,1.721,0,0,0-.371-1.067A1.134,1.134,0,0,0-27.2-4.639ZM-23.005,0h-.9V-7.5h.9Zm3.7-2.686a3.1,3.1,0,0,1,.576-1.956,1.822,1.822,0,0,1,1.509-.74,1.832,1.832,0,0,1,1.47.635V-7.5h.9V0h-.83l-.044-.566A1.84,1.84,0,0,1-17.229.1a1.8,1.8,0,0,1-1.5-.752A3.13,3.13,0,0,1-19.3-2.617Zm.9.1a2.343,2.343,0,0,0,.371,1.406A1.2,1.2,0,0,0-17-.669,1.318,1.318,0,0,0-15.75-1.44V-3.867a1.328,1.328,0,0,0-1.245-.747A1.205,1.205,0,0,0-18.03-4.1,2.58,2.58,0,0,0-18.4-2.583ZM-11.252.1A2.308,2.308,0,0,1-13-.608,2.619,2.619,0,0,1-13.674-2.5v-.166a3.17,3.17,0,0,1,.3-1.4,2.343,2.343,0,0,1,.84-.967,2.112,2.112,0,0,1,1.169-.349,1.979,1.979,0,0,1,1.6.679,2.939,2.939,0,0,1,.571,1.943v.376h-3.579a1.878,1.878,0,0,0,.457,1.262A1.435,1.435,0,0,0-11.2-.64a1.573,1.573,0,0,0,.811-.2,2.037,2.037,0,0,0,.581-.518l.552.43A2.219,2.219,0,0,1-11.252.1Zm-.112-4.736a1.2,1.2,0,0,0-.918.4,1.934,1.934,0,0,0-.459,1.116H-10.1v-.068a1.721,1.721,0,0,0-.371-1.067A1.134,1.134,0,0,0-11.365-4.639ZM-4.69,0h-.9V-5.283h.9Zm-.977-6.685a.539.539,0,0,1,.134-.371.5.5,0,0,1,.4-.151.512.512,0,0,1,.4.151.534.534,0,0,1,.137.371.516.516,0,0,1-.137.366.521.521,0,0,1-.4.146.513.513,0,0,1-.4-.146A.521.521,0,0,1-5.667-6.685Zm3.276,1.4.029.664A1.925,1.925,0,0,1-.779-5.381Q.9-5.381.911-3.491V0h-.9V-3.5a1.216,1.216,0,0,0-.261-.845,1.047,1.047,0,0,0-.8-.273,1.3,1.3,0,0,0-.771.234,1.592,1.592,0,0,0-.518.615V0h-.9V-5.283Zm5.518,0,.029.664a1.925,1.925,0,0,1,1.582-.762q1.675,0,1.689,1.89V0h-.9V-3.5a1.216,1.216,0,0,0-.261-.845,1.047,1.047,0,0,0-.8-.273,1.3,1.3,0,0,0-.771.234,1.592,1.592,0,0,0-.518.615V0h-.9V-5.283ZM7.551-2.69a3.121,3.121,0,0,1,.305-1.4,2.277,2.277,0,0,1,.85-.957,2.313,2.313,0,0,1,1.243-.337,2.228,2.228,0,0,1,1.746.747,2.874,2.874,0,0,1,.667,1.987v.063a3.148,3.148,0,0,1-.3,1.384,2.243,2.243,0,0,1-.845.955A2.339,2.339,0,0,1,9.958.1,2.222,2.222,0,0,1,8.218-.649a2.86,2.86,0,0,1-.667-1.978Zm.908.107a2.26,2.26,0,0,0,.408,1.411A1.3,1.3,0,0,0,9.958-.64a1.3,1.3,0,0,0,1.094-.54,2.472,2.472,0,0,0,.405-1.511A2.256,2.256,0,0,0,11.045-4.1a1.312,1.312,0,0,0-1.1-.54,1.3,1.3,0,0,0-1.079.532A2.453,2.453,0,0,0,8.459-2.583Zm6.7,1.357,1.309-4.058H17.4L15.5,0h-.688L12.9-5.283h.923ZM21.453,0a1.9,1.9,0,0,1-.127-.557,2.015,2.015,0,0,1-1.5.654A1.865,1.865,0,0,1,18.54-.344a1.43,1.43,0,0,1-.5-1.121,1.494,1.494,0,0,1,.627-1.282A2.958,2.958,0,0,1,20.432-3.2h.879v-.415a1.015,1.015,0,0,0-.283-.754,1.138,1.138,0,0,0-.835-.281,1.317,1.317,0,0,0-.811.244.719.719,0,0,0-.327.591h-.908a1.247,1.247,0,0,1,.281-.764,1.916,1.916,0,0,1,.762-.583,2.563,2.563,0,0,1,1.057-.215,2.089,2.089,0,0,1,1.431.457,1.647,1.647,0,0,1,.537,1.257v2.432A2.973,2.973,0,0,0,22.4-.078V0Zm-1.5-.688a1.588,1.588,0,0,0,.806-.22,1.329,1.329,0,0,0,.552-.571V-2.563H20.6q-1.66,0-1.66.972a.822.822,0,0,0,.283.664A1.089,1.089,0,0,0,19.954-.688Zm5.8.049a1.3,1.3,0,0,0,.845-.293,1.031,1.031,0,0,0,.4-.732h.854a1.638,1.638,0,0,1-.312.864,2.058,2.058,0,0,1-.769.654A2.219,2.219,0,0,1,25.75.1a2.176,2.176,0,0,1-1.716-.72,2.869,2.869,0,0,1-.637-1.97v-.151a3.181,3.181,0,0,1,.283-1.372,2.157,2.157,0,0,1,.813-.933,2.309,2.309,0,0,1,1.252-.332,2.119,2.119,0,0,1,1.477.532,1.9,1.9,0,0,1,.627,1.382h-.854a1.245,1.245,0,0,0-.388-.842,1.208,1.208,0,0,0-.862-.33,1.264,1.264,0,0,0-1.067.5A2.328,2.328,0,0,0,24.3-2.71v.171a2.281,2.281,0,0,0,.376,1.406A1.27,1.27,0,0,0,25.75-.64Zm4.1.64h-.9V-5.283h.9ZM28.87-6.685A.539.539,0,0,1,29-7.056a.5.5,0,0,1,.4-.151.512.512,0,0,1,.4.151.534.534,0,0,1,.137.371.516.516,0,0,1-.137.366.521.521,0,0,1-.4.146.513.513,0,0,1-.4-.146A.521.521,0,0,1,28.87-6.685ZM31.052-2.69a3.121,3.121,0,0,1,.305-1.4,2.277,2.277,0,0,1,.85-.957,2.313,2.313,0,0,1,1.243-.337,2.228,2.228,0,0,1,1.746.747,2.874,2.874,0,0,1,.667,1.987v.063a3.148,3.148,0,0,1-.3,1.384,2.243,2.243,0,0,1-.845.955A2.339,2.339,0,0,1,33.459.1a2.222,2.222,0,0,1-1.741-.747,2.86,2.86,0,0,1-.667-1.978Zm.908.107a2.26,2.26,0,0,0,.408,1.411,1.3,1.3,0,0,0,1.091.532,1.3,1.3,0,0,0,1.094-.54,2.472,2.472,0,0,0,.405-1.511A2.256,2.256,0,0,0,34.546-4.1a1.312,1.312,0,0,0-1.1-.54,1.3,1.3,0,0,0-1.079.532A2.453,2.453,0,0,0,31.96-2.583Zm1.9-4.907h1.094L33.645-6.055l-.728,0Zm3.989,2.207.029.664a1.925,1.925,0,0,1,1.582-.762q1.675,0,1.689,1.89V0h-.9V-3.5a1.216,1.216,0,0,0-.261-.845,1.047,1.047,0,0,0-.8-.273,1.3,1.3,0,0,0-.771.234,1.592,1.592,0,0,0-.518.615V0h-.9V-5.283Zm-63.613,15.96,1.23-3.96h.967l-2.124,6.1q-.493,1.318-1.567,1.318l-.171-.015-.337-.063v-.732l.244.02a1.2,1.2,0,0,0,.715-.186,1.343,1.343,0,0,0,.422-.679l.2-.537-1.885-5.225h.986Zm6.7-5.239V6.717h.986v.7h-.986V10.7a.733.733,0,0,0,.132.477.555.555,0,0,0,.449.159,2.187,2.187,0,0,0,.43-.059V12a2.634,2.634,0,0,1-.693.1,1.125,1.125,0,0,1-.913-.366,1.573,1.573,0,0,1-.308-1.04V7.415h-.962v-.7h.962V5.438Zm4.233,6.66a2.308,2.308,0,0,1-1.748-.706A2.619,2.619,0,0,1-17.249,9.5V9.339a3.17,3.17,0,0,1,.3-1.4,2.343,2.343,0,0,1,.84-.967,2.112,2.112,0,0,1,1.169-.349,1.979,1.979,0,0,1,1.6.679,2.939,2.939,0,0,1,.571,1.943v.376h-3.579a1.878,1.878,0,0,0,.457,1.262,1.435,1.435,0,0,0,1.111.481,1.573,1.573,0,0,0,.811-.2,2.037,2.037,0,0,0,.581-.518l.552.43A2.219,2.219,0,0,1-14.827,12.1Zm-.112-4.736a1.2,1.2,0,0,0-.918.4,1.934,1.934,0,0,0-.459,1.116h2.646V8.807a1.721,1.721,0,0,0-.371-1.067A1.134,1.134,0,0,0-14.939,7.361Zm5.337,4a1.3,1.3,0,0,0,.845-.293,1.031,1.031,0,0,0,.4-.732H-7.5a1.638,1.638,0,0,1-.312.864,2.058,2.058,0,0,1-.769.654A2.219,2.219,0,0,1-9.6,12.1a2.176,2.176,0,0,1-1.716-.72,2.869,2.869,0,0,1-.637-1.97V9.256a3.181,3.181,0,0,1,.283-1.372,2.157,2.157,0,0,1,.813-.933,2.309,2.309,0,0,1,1.252-.332,2.119,2.119,0,0,1,1.477.532A1.9,1.9,0,0,1-7.5,8.533h-.854a1.245,1.245,0,0,0-.388-.842,1.208,1.208,0,0,0-.862-.33,1.264,1.264,0,0,0-1.067.5,2.328,2.328,0,0,0-.378,1.433v.171a2.281,2.281,0,0,0,.376,1.406A1.27,1.27,0,0,0-9.6,11.36Zm3.97-4.644.029.664a1.925,1.925,0,0,1,1.582-.762q1.675,0,1.689,1.89V12h-.9V8.5A1.216,1.216,0,0,0-3.5,7.659a1.047,1.047,0,0,0-.8-.273,1.3,1.3,0,0,0-.771.234,1.592,1.592,0,0,0-.518.615V12h-.9V6.717ZM-1.208,9.31A3.121,3.121,0,0,1-.9,7.913a2.277,2.277,0,0,1,.85-.957,2.313,2.313,0,0,1,1.243-.337,2.228,2.228,0,0,1,1.746.747A2.874,2.874,0,0,1,3.6,9.354v.063a3.148,3.148,0,0,1-.3,1.384,2.243,2.243,0,0,1-.845.955A2.339,2.339,0,0,1,1.2,12.1a2.222,2.222,0,0,1-1.741-.747,2.86,2.86,0,0,1-.667-1.978Zm.908.107a2.26,2.26,0,0,0,.408,1.411A1.3,1.3,0,0,0,1.2,11.36a1.3,1.3,0,0,0,1.094-.54A2.472,2.472,0,0,0,2.7,9.31,2.256,2.256,0,0,0,2.285,7.9a1.312,1.312,0,0,0-1.1-.54A1.3,1.3,0,0,0,.11,7.894,2.453,2.453,0,0,0-.3,9.417ZM5.715,12h-.9V4.5h.9ZM6.921,9.31a3.121,3.121,0,0,1,.305-1.4,2.277,2.277,0,0,1,.85-.957,2.313,2.313,0,0,1,1.243-.337,2.228,2.228,0,0,1,1.746.747,2.874,2.874,0,0,1,.667,1.987v.063a3.148,3.148,0,0,1-.3,1.384,2.243,2.243,0,0,1-.845.955,2.339,2.339,0,0,1-1.262.342,2.222,2.222,0,0,1-1.741-.747,2.86,2.86,0,0,1-.667-1.978Zm.908.107a2.26,2.26,0,0,0,.408,1.411,1.382,1.382,0,0,0,2.185-.007,2.472,2.472,0,0,0,.405-1.511A2.256,2.256,0,0,0,10.415,7.9a1.312,1.312,0,0,0-1.1-.54,1.3,1.3,0,0,0-1.079.532A2.453,2.453,0,0,0,7.83,9.417Zm4.819-.1a3.105,3.105,0,0,1,.571-1.965A1.97,1.97,0,0,1,16.243,7.3l.044-.586h.825v5.156a2.149,2.149,0,0,1-.608,1.616,2.243,2.243,0,0,1-1.633.591,2.717,2.717,0,0,1-1.118-.244,1.925,1.925,0,0,1-.835-.669l.469-.542a1.766,1.766,0,0,0,1.421.718,1.384,1.384,0,0,0,1.028-.371,1.418,1.418,0,0,0,.369-1.045v-.454a1.857,1.857,0,0,1-1.479.625,1.8,1.8,0,0,1-1.5-.747A3.265,3.265,0,0,1,12.649,9.314Zm.908.1a2.369,2.369,0,0,0,.366,1.4,1.19,1.19,0,0,0,1.025.51,1.323,1.323,0,0,0,1.255-.776V8.143a1.339,1.339,0,0,0-1.245-.757,1.2,1.2,0,0,0-1.03.513A2.58,2.58,0,0,0,13.557,9.417ZM19.456,12h-.908V6.717h.908Zm.01-7.485h1.094L19.25,5.95l-.728,0ZM24.207,12a1.9,1.9,0,0,1-.127-.557,2.015,2.015,0,0,1-1.5.654,1.865,1.865,0,0,1-1.282-.442,1.43,1.43,0,0,1-.5-1.121,1.494,1.494,0,0,1,.627-1.282A2.958,2.958,0,0,1,23.186,8.8h.879V8.382a1.015,1.015,0,0,0-.283-.754,1.138,1.138,0,0,0-.835-.281,1.317,1.317,0,0,0-.811.244.719.719,0,0,0-.327.591H20.9a1.247,1.247,0,0,1,.281-.764,1.916,1.916,0,0,1,.762-.583A2.563,2.563,0,0,1,23,6.619a2.089,2.089,0,0,1,1.431.457,1.647,1.647,0,0,1,.537,1.257v2.432a2.973,2.973,0,0,0,.186,1.157V12Zm-1.5-.688a1.588,1.588,0,0,0,.806-.22,1.329,1.329,0,0,0,.552-.571V9.437h-.708q-1.66,0-1.66.972a.822.822,0,0,0,.283.664A1.089,1.089,0,0,0,22.708,11.312Zm-45.151,10a3.1,3.1,0,0,1,.576-1.956,1.822,1.822,0,0,1,1.509-.74,1.832,1.832,0,0,1,1.47.635V16.5h.9V24h-.83l-.044-.566a1.84,1.84,0,0,1-1.509.664,1.8,1.8,0,0,1-1.5-.752,3.13,3.13,0,0,1-.579-1.963Zm.9.1a2.343,2.343,0,0,0,.371,1.406,1.2,1.2,0,0,0,1.025.508,1.318,1.318,0,0,0,1.255-.771V20.133a1.328,1.328,0,0,0-1.245-.747,1.205,1.205,0,0,0-1.035.513A2.58,2.58,0,0,0-21.541,21.417ZM-15.6,24h-.9V18.717h.9Zm-.977-6.685a.539.539,0,0,1,.134-.371.5.5,0,0,1,.4-.151.512.512,0,0,1,.4.151.534.534,0,0,1,.137.371.516.516,0,0,1-.137.366.521.521,0,0,1-.4.146.513.513,0,0,1-.4-.146A.521.521,0,0,1-16.58,17.315Zm5.5,5.283a.665.665,0,0,0-.276-.569,2.655,2.655,0,0,0-.962-.349,4.548,4.548,0,0,1-1.089-.352,1.549,1.549,0,0,1-.6-.488,1.168,1.168,0,0,1-.193-.674,1.37,1.37,0,0,1,.549-1.1,2.145,2.145,0,0,1,1.4-.449,2.208,2.208,0,0,1,1.458.464,1.473,1.473,0,0,1,.559,1.187h-.908a.815.815,0,0,0-.315-.64,1.18,1.18,0,0,0-.793-.269,1.235,1.235,0,0,0-.771.215.676.676,0,0,0-.278.562.548.548,0,0,0,.259.493,3.184,3.184,0,0,0,.935.317,4.872,4.872,0,0,1,1.1.361,1.6,1.6,0,0,1,.623.505,1.243,1.243,0,0,1,.2.72,1.352,1.352,0,0,1-.566,1.135,2.376,2.376,0,0,1-1.47.427,2.66,2.66,0,0,1-1.123-.225,1.827,1.827,0,0,1-.764-.627,1.512,1.512,0,0,1-.276-.872h.9a.935.935,0,0,0,.364.72,1.411,1.411,0,0,0,.9.266,1.457,1.457,0,0,0,.823-.208A.638.638,0,0,0-11.082,22.6Zm6.543-1.182A3.163,3.163,0,0,1-5.09,23.36a1.768,1.768,0,0,1-1.494.737,1.938,1.938,0,0,1-1.514-.61v2.544H-9V18.717h.825l.044.586A1.861,1.861,0,0,1-6.6,18.619a1.8,1.8,0,0,1,1.506.718,3.2,3.2,0,0,1,.554,2Zm-.9-.1A2.334,2.334,0,0,0-5.823,19.9a1.227,1.227,0,0,0-1.045-.518,1.328,1.328,0,0,0-1.23.728v2.524a1.33,1.33,0,0,0,1.24.723,1.221,1.221,0,0,0,1.033-.515A2.548,2.548,0,0,0-5.442,21.314Zm1.812,0a3.121,3.121,0,0,1,.305-1.4,2.277,2.277,0,0,1,.85-.957,2.313,2.313,0,0,1,1.243-.337,2.228,2.228,0,0,1,1.746.747,2.874,2.874,0,0,1,.667,1.987v.063a3.148,3.148,0,0,1-.3,1.384,2.243,2.243,0,0,1-.845.955,2.339,2.339,0,0,1-1.262.342,2.222,2.222,0,0,1-1.741-.747,2.86,2.86,0,0,1-.667-1.978Zm.908.107a2.26,2.26,0,0,0,.408,1.411,1.3,1.3,0,0,0,1.091.532,1.3,1.3,0,0,0,1.094-.54A2.472,2.472,0,0,0,.276,21.31,2.256,2.256,0,0,0-.137,19.9a1.312,1.312,0,0,0-1.1-.54,1.3,1.3,0,0,0-1.079.532A2.453,2.453,0,0,0-2.722,21.417Zm5.889-2.7.029.664a1.925,1.925,0,0,1,1.582-.762q1.675,0,1.689,1.89V24h-.9V20.5a1.216,1.216,0,0,0-.261-.845,1.047,1.047,0,0,0-.8-.273,1.3,1.3,0,0,0-.771.234,1.592,1.592,0,0,0-.518.615V24h-.9V18.717ZM8.811,24h-.9V18.717h.9Zm-.977-6.685a.539.539,0,0,1,.134-.371.5.5,0,0,1,.4-.151.512.512,0,0,1,.4.151.534.534,0,0,1,.137.371.516.516,0,0,1-.137.366.521.521,0,0,1-.4.146.513.513,0,0,1-.4-.146A.521.521,0,0,1,7.834,17.315Zm6.895,4.1a3.141,3.141,0,0,1-.557,1.946,1.779,1.779,0,0,1-1.494.735,1.842,1.842,0,0,1-1.548-.708l-.044.61h-.83V16.5h.9v2.8a1.831,1.831,0,0,1,1.509-.679,1.789,1.789,0,0,1,1.511.728,3.236,3.236,0,0,1,.549,1.992Zm-.9-.1a2.441,2.441,0,0,0-.356-1.426,1.18,1.18,0,0,0-1.025-.5,1.326,1.326,0,0,0-1.284.83V22.5a1.363,1.363,0,0,0,1.294.83,1.173,1.173,0,0,0,1.011-.5A2.6,2.6,0,0,0,13.826,21.314ZM16.848,24h-.9V16.5h.9Zm3.638.1a2.308,2.308,0,0,1-1.748-.706,2.619,2.619,0,0,1-.674-1.887v-.166a3.17,3.17,0,0,1,.3-1.4,2.343,2.343,0,0,1,.84-.967,2.112,2.112,0,0,1,1.169-.349,1.979,1.979,0,0,1,1.6.679,2.939,2.939,0,0,1,.571,1.943v.376H18.967a1.878,1.878,0,0,0,.457,1.262,1.435,1.435,0,0,0,1.111.481,1.573,1.573,0,0,0,.811-.2,2.037,2.037,0,0,0,.581-.518l.552.43A2.219,2.219,0,0,1,20.486,24.1Zm-.112-4.736a1.2,1.2,0,0,0-.918.4A1.934,1.934,0,0,0,19,20.875h2.646v-.068a1.721,1.721,0,0,0-.371-1.067A1.134,1.134,0,0,0,20.374,19.361Z" transform="translate(247.897 170.049)" fill="#12263f"/>
      <g id="Grupo_53715" data-name="Grupo 53715" transform="translate(418.919 191.027)">
        <circle id="Elipse_4025" data-name="Elipse 4025" cx="29.854" cy="29.854" r="29.854" fill="#d5436d" stroke="#fff" stroke-miterlimit="10" stroke-width="3"/>
        <circle id="Elipse_4026" data-name="Elipse 4026" cx="27.286" cy="27.286" r="27.286" transform="translate(2.568 2.568)" fill="#efedee" stroke="#fff" stroke-miterlimit="10" stroke-width="3"/>
        <circle id="Elipse_4027" data-name="Elipse 4027" cx="22.738" cy="22.738" r="22.738" transform="translate(7.116 7.116)" fill="#57db69"/>
        <g id="Grupo_53714" data-name="Grupo 53714" transform="translate(14.658 13.345)">
          <g id="Grupo_53712" data-name="Grupo 53712" transform="translate(5.74 22.199)">
            <path id="Trazado_100439" data-name="Trazado 100439" d="M422.793,217.691H415.4V216.08l3.273-3.6a6.681,6.681,0,0,0,.963-1.332,2.211,2.211,0,0,0,.3-1.016,1.554,1.554,0,0,0-.278-.983,1.066,1.066,0,0,0-.893-.362,1,1,0,0,0-.893.472,2.113,2.113,0,0,0-.316,1.2h-2.42l-.013-.046a3.307,3.307,0,0,1,.971-2.5,3.578,3.578,0,0,1,2.678-1.028,3.867,3.867,0,0,1,2.7.86,3.029,3.029,0,0,1,.951,2.368,3.115,3.115,0,0,1-.524,1.785,22.387,22.387,0,0,1-1.928,2.3l-1.294,1.553.013.038H422.8v1.9Z" transform="translate(-415.122 -206.879)" fill="#fff"/>
            <path id="Trazado_100440" data-name="Trazado 100440" d="M429.763,213.515h1.074v1.915h-1.074v2.245h-2.471v-2.245h-4.231l-.148-1.52,4.379-6.857v-.02h2.471v6.481Zm-4.729,0h2.258V210.2l-.045-.007-.272.55Z" transform="translate(-414.357 -206.864)" fill="#fff"/>
          </g>
          <g id="Grupo_53713" data-name="Grupo 53713">
            <path id="Trazado_100441" data-name="Trazado 100441" d="M425.091,186.667a15.181,15.181,0,0,0-10.486,26.173,5.905,5.905,0,0,1,.142-1.43,14.077,14.077,0,1,1,17.712,2.446,5.719,5.719,0,0,1,.161,1.189,15.188,15.188,0,0,0-7.53-28.378Z" transform="translate(-409.896 -186.667)" fill="#fff"/>
          </g>
        </g>
        <path id="Trazado_100442" data-name="Trazado 100442" d="M443.992,200.348c-1.643.589-3.293,1.074-4.942,1.566l-2.483.692-2.491.615c-.828.2-1.65.491-2.471.757a6.787,6.787,0,0,1-2.523.291,11.84,11.84,0,0,1-2.607-.492,9.484,9.484,0,0,1-2.691-1.3l-.052-.517a9.357,9.357,0,0,1,2.361-1.831,11.662,11.662,0,0,1,2.445-1.021,6.653,6.653,0,0,1,2.529-.239c.861.083,1.728.2,2.574.226l2.562.083,2.568.163c1.714.142,3.434.271,5.162.5Z" transform="translate(-393.878 -172.125)" fill="#fff"/>
        <path id="Trazado_100443" data-name="Trazado 100443" d="M424.107,186.938c.3,1.384.537,2.775.776,4.159l.316,2.082.259,2.084c.083.692.239,1.384.369,2.083a6.111,6.111,0,0,1,.019,2.082,10.544,10.544,0,0,1-.569,2.083,8.011,8.011,0,0,1-1.177,2.082h-.388a7.773,7.773,0,0,1-1.177-2.082,10.3,10.3,0,0,1-.57-2.083,6.08,6.08,0,0,1,.02-2.082c.13-.693.284-1.385.369-2.083l.258-2.084.317-2.082c.239-1.384.472-2.775.777-4.159Z" transform="translate(-394.059 -173.295)" fill="#fff"/>
      </g>
      <g id="Grupo_53743" data-name="Grupo 53743" transform="translate(295.588 246.116)">
        <path id="Trazado_100451" data-name="Trazado 100451" d="M306.968,224.917a3.171,3.171,0,0,0-3.628.868L285.045,246.85a3.206,3.206,0,0,0,2.118,5.3l27.776,2.618a3.208,3.208,0,0,0,2.492-5.535l-4.893-4.588,13.225-5.294a2.75,2.75,0,0,0,1.522-1.49,2.653,2.653,0,0,0,.165-.515,2.754,2.754,0,0,0-.141-1.612l-1.889-4.718a2.788,2.788,0,0,0-3.622-1.548l-13.225,5.294.375-6.7A3.131,3.131,0,0,0,306.968,224.917Z" transform="translate(-284.258 -224.674)" fill="#fff"/>
        <path id="Trazado_100452" data-name="Trazado 100452" d="M304.209,226.525,285.915,247.59a1.9,1.9,0,0,0,1.254,3.139l27.777,2.619a1.9,1.9,0,0,0,1.478-3.28l-6.388-5.988,15.131-6.06a1.474,1.474,0,0,0,.825-1.914v0l-1.889-4.718a1.474,1.474,0,0,0-1.914-.825h0l-15.131,6.06.488-8.745a1.9,1.9,0,0,0-3.332-1.352Z" transform="translate(-284.141 -224.556)" fill="#57dbd8"/>
        <g id="Grupo_53742" data-name="Grupo 53742" transform="translate(4.237 10.952)">
          <path id="Trazado_100453" data-name="Trazado 100453" d="M297.759,234.772l-6.908,7.933a.4.4,0,0,0,.6.518l6.908-7.932a.4.4,0,0,0-.6-.519Z" transform="translate(-287.855 -234.645)" fill="#fff"/>
          <path id="Trazado_100454" data-name="Trazado 100454" d="M289.958,243.2l-1.745,2a.394.394,0,0,0,.594.518l1.745-2a.394.394,0,0,0-.594-.517Z" transform="translate(-288.116 -233.818)" fill="#fff"/>
        </g>
      </g>
      <g id="Grupo_53745" data-name="Grupo 53745" transform="translate(311.795 159.436)">
        <path id="Trazado_100455" data-name="Trazado 100455" d="M351.2,165.284l-17.95-17.949L308.727,153.9l-6.572,24.528,17.954,17.949,24.522-6.567Z" transform="translate(-298.706 -145.598)" fill="#fff199"/>
        <path id="Trazado_100456" data-name="Trazado 100456" d="M318.5,194.772l6.568-24.522,24.522-6.573-6.568,24.529Z" transform="translate(-297.099 -143.991)" fill="#ffd03e"/>
        <path id="Trazado_100457" data-name="Trazado 100457" d="M321.522,189.932l.624-2.326,9.167-2.493-.635,2.365Z" transform="translate(-296.802 -141.884)" fill="#241f41"/>
        <path id="Trazado_100458" data-name="Trazado 100458" d="M330.436,187.424l.624-2.326,3.272-.907-.634,2.365Z" transform="translate(-295.926 -141.975)" fill="#fff"/>
        <path id="Trazado_100459" data-name="Trazado 100459" d="M329.834,168.5l-4.763,1.274L318.5,194.3l24.522-6.572,2.315-8.644c-3.79,5.048-10.736,5.571-13.875,2.956C328.131,179.265,328.259,173.06,329.834,168.5Z" transform="translate(-297.099 -143.517)" fill="#ff911a" opacity="0.1" style="isolation: isolate"/>
        <path id="Trazado_100460" data-name="Trazado 100460" d="M308.727,153.315l17.95,17.954-6.568,24.522-17.954-17.949Z" transform="translate(-298.706 -145.01)" fill="#ffdf60"/>
        <path id="Trazado_100461" data-name="Trazado 100461" d="M315.026,159.993l3.289,3.284-2.382,8.945-3.284-3.284Z" transform="translate(-297.674 -144.354)" fill="#241f41"/>
        <path id="Trazado_100462" data-name="Trazado 100462" d="M314.813,160.645l3.289,3.284,23.809-7.285-3.288-3.284Z" transform="translate(-297.462 -145.006)" fill="#544f80"/>
        <path id="Trazado_100463" data-name="Trazado 100463" d="M321.8,165.47s-1.887,8.054-6.918,8.159c-4.024.083-8.867-4.169-8.922-10.919l-3.807,14.209,17.954,17.954,6.573-24.522Z" transform="translate(-298.706 -144.086)" fill="#ff911a" opacity="0.1" style="isolation: isolate"/>
        <path id="Trazado_100464" data-name="Trazado 100464" d="M312.408,152.276s6.617,19.2,36.739,11.059l1.47,1.47-24.522,6.572-17.955-17.954Z" transform="translate(-298.118 -145.112)" fill="#ff911a" opacity="0.1" style="isolation: isolate"/>
        <g id="Grupo_53744" data-name="Grupo 53744">
          <path id="Trazado_100465" data-name="Trazado 100465" d="M311.093,146.511a.782.782,0,0,0-.467.361l-1.192,2.1a.768.768,0,0,0,1.337.757h0l1.191-2.1a.556.556,0,0,0,.056-.128.809.809,0,0,0,.016-.457.767.767,0,0,0-.941-.534Z" transform="translate(-298 -145.682)" fill="#8334e5"/>
          <path id="Trazado_100466" data-name="Trazado 100466" d="M299.827,149.843a.765.765,0,0,0,.286,1.043l0,0,2.1,1.191a.771.771,0,0,0,1.047-.29.53.53,0,0,0,.056-.127.769.769,0,0,0-.345-.924l-2.1-1.192a.768.768,0,0,0-1.046.294Z" transform="translate(-298.945 -145.39)" fill="#8334e5"/>
          <path id="Trazado_100467" data-name="Trazado 100467" d="M299.558,155.5a.769.769,0,0,0,.412,1.481l2.327-.646a.765.765,0,0,0,.517-.49.8.8,0,0,0,.016-.457.757.757,0,0,0-.361-.461.765.765,0,0,0-.584-.072Z" transform="translate(-299.015 -144.862)" fill="#8334e5"/>
          <path id="Trazado_100468" data-name="Trazado 100468" d="M305.969,146.316h0a.771.771,0,0,0-.947-.535.772.772,0,0,0-.534.947l.645,2.326a.805.805,0,0,0,.362.468.79.79,0,0,0,.584.071.759.759,0,0,0,.517-.489.79.79,0,0,0,.016-.457Z" transform="translate(-298.479 -145.753)" fill="#8334e5"/>
        </g>
      </g>
      <g id="Grupo_53719" data-name="Grupo 53719" transform="translate(396.94 139.553)">
        <g id="Trazado_100450" data-name="Trazado 100450">
          <path id="Trazado_119303" data-name="Trazado 119303" d="M418.1,139.658a21.975,21.975,0,1,1-29.553-9.612h0A21.978,21.978,0,0,1,418.1,139.658Z" transform="translate(-376.538 -127.65)" fill="#1a0f91"/>
        </g>
        <g id="_2" data-name=" 2" transform="translate(10.789 13.535)" style="isolation: isolate">
          <g id="Grupo_56009" data-name="Grupo 56009" style="isolation: isolate">
            <path id="Trazado_119304" data-name="Trazado 119304" d="M401.29,150.181a2.445,2.445,0,0,0-1.695-.661,5.55,5.55,0,0,0-2.286.766A12.661,12.661,0,0,1,392.744,152a4.727,4.727,0,0,1-3.668-1.321,4.846,4.846,0,0,1-1.8-3.393,6.013,6.013,0,0,1,1.2-3.923l-2.116-1.82,1.347-1.567,2.147,1.846a5.533,5.533,0,0,1,3.777-1.473,6.042,6.042,0,0,1,3.92,1.685l.025.072-2.406,2.8a3.826,3.826,0,0,0-2.208-1.059,2.052,2.052,0,0,0-1.75.758,2.086,2.086,0,0,0-.6,1.686,2.533,2.533,0,0,0,.937,1.532,2.329,2.329,0,0,0,1.622.633,5.906,5.906,0,0,0,2.326-.8,13.755,13.755,0,0,1,4.608-1.655,4.664,4.664,0,0,1,3.637,1.293,4.8,4.8,0,0,1,1.821,3.409,6.123,6.123,0,0,1-1.243,3.908l1.951,1.676-1.346,1.567-1.94-1.669a6.706,6.706,0,0,1-3.924,1.922,5.483,5.483,0,0,1-4.283-1.663l-.032-.063,2.4-2.8a3.288,3.288,0,0,0,2.417,1.017,2.858,2.858,0,0,0,1.893-1.046,2.45,2.45,0,0,0,.7-1.785A2.294,2.294,0,0,0,401.29,150.181Z" transform="translate(-386.361 -139.973)" fill="#fff"/>
          </g>
        </g>
      </g>
      <g id="Grupo_53606" data-name="Grupo 53606" transform="translate(351.068 253.089)">
        <g id="Grupo_53602" data-name="Grupo 53602" transform="translate(0 7.589)">
          <g id="Grupo_53601" data-name="Grupo 53601">
            <circle id="Elipse_3967" data-name="Elipse 3967" cx="35.541" cy="35.541" r="35.541" fill="#efedee" stroke="#fff" stroke-miterlimit="10" stroke-width="3"/>
          </g>
        </g>
        <g id="Grupo_53605" data-name="Grupo 53605" transform="translate(15.729)">
          <g id="Grupo_53603" data-name="Grupo 53603">
            <path id="Trazado_100320" data-name="Trazado 100320" d="M388.812,280.776a56.346,56.346,0,0,1-.949,7.864A14.518,14.518,0,0,1,377.791,300.1a40.382,40.382,0,0,1-11.191,1.72h-.183c-3.979-.024-8.268-2.277-11.374-5.5a14.913,14.913,0,0,1-4.359-8.6c-.089-.968-.145-2.018-.145-3.182,0-5.466,3.226-9.78,7.553-12.476a3.623,3.623,0,0,0,1.511,1.2,5.2,5.2,0,0,0,2.1.392,3.918,3.918,0,0,0,1.752-.4c.746,2.848,3.853,4.549,6.8,4.549,4.131,0,5.82-2.778,6.484-6.769a3.648,3.648,0,0,0,1.494-.886,13.047,13.047,0,0,0,2.65-4C386.642,266.476,388.812,275.041,388.812,280.776Z" transform="translate(-348.951 -227.57)" fill="#57dbd8"/>
            <path id="Trazado_100321" data-name="Trazado 100321" d="M381.5,244.98a11.2,11.2,0,0,1,1.855,5.714c0,1.946-.762,5.076-2.7,5.076a1.883,1.883,0,0,1-.423-.047,9.527,9.527,0,0,0,.334-2.722c0-1.249-.133-2.517-.133-3.676,0-1.4,1.119-2.264,1.119-3.65A4.926,4.926,0,0,0,381.5,244.98Z" transform="translate(-346.032 -229.651)" fill="#163a46"/>
            <path id="Trazado_100322" data-name="Trazado 100322" d="M380,250.988c-.032.043-.066.087-.1.13a11.344,11.344,0,0,0-1.242,1.076,10.42,10.42,0,0,1-1.876.936.335.335,0,0,1-.423-.211.351.351,0,0,1-.014-.067c0-1.668,2.277-2.982,3.441-4.4.034-.043.069-.086.1-.13s.053-.069.078-.1a.285.285,0,0,1,.4-.067.28.28,0,0,1,.108.152A2.909,2.909,0,0,1,380,250.988Z" transform="translate(-346.414 -229.345)" fill="#8b532c"/>
            <path id="Trazado_100323" data-name="Trazado 100323" d="M379.742,247.943l0,.056c-.033.023-.066.047-.1.074C379.676,248.03,379.71,247.986,379.742,247.943Z" transform="translate(-346.09 -229.36)" fill="#e79065"/>
            <path id="Trazado_100324" data-name="Trazado 100324" d="M380.805,249.753c-.032.044-.067.086-.1.129-1.1-2.146-3.057-2.559-4.61-2.805a5.933,5.933,0,0,0-2.976.3c-1.43.526-2.974.863-4.115,1.919a5.778,5.778,0,0,0-.658.733l0,.005c-.029.038-.058.078-.087.119l0,0c-.881,1.061-3.326.792-.243-6.5,1.169-2.76-.685-4.32-2.087-6.369a19.822,19.822,0,0,1,5.327-1.768c.838-.034,1.717-.227,2.566-.227,2.417,0,3.457,2.018,4.667,3.995a4.374,4.374,0,0,0,.513,1.029,18.212,18.212,0,0,1,2.565,2.319,6.553,6.553,0,0,1,1.59,3.248,4.663,4.663,0,0,1,.051.689c0,1.373-1.119,2.233-1.119,3.616,0,1.148.133,2.4.133,3.641a9.339,9.339,0,0,1-.334,2.694,5.356,5.356,0,0,1-.577,1.29h0a16.47,16.47,0,0,1-.458-3.347c0-.675.043-1.347.07-2.02l0-.056a2.86,2.86,0,0,0,.47-2.662.285.285,0,0,0-.5-.082Z" transform="translate(-347.439 -230.603)" fill="#b16d42"/>
            <path id="Trazado_100325" data-name="Trazado 100325" d="M377.016,245.519c1.554.248,3.515.668,4.61,2.833-1.164,1.421-3.441,2.736-3.441,4.4a.334.334,0,0,0,.37.293.281.281,0,0,0,.067-.015,10.378,10.378,0,0,0,1.876-.935,8.961,8.961,0,0,0-2.5,4.311,6.874,6.874,0,0,0-.116.7,6.081,6.081,0,0,0-.045.76c0,4.39,2.178,3.749,2.178,5.562,0,.588-.418,1.851-1.428,1.851-.75,0-1.585-.582-2.134-.582h-.008a.411.411,0,0,0-.1.8c.712.219,1.459.565,1.459,1.351a1.576,1.576,0,0,1-.071.446,7.132,7.132,0,0,1-3.433.566,4.779,4.779,0,0,1-1.259-.172A7.265,7.265,0,0,0,377,268.939c.087,0,.173,0,.26-.005a6.418,6.418,0,0,0-2.275,1.546,5.881,5.881,0,0,1-3.866,1.346,14.743,14.743,0,0,1-5.316-1.177q-.47-.216-.929-.45h0c-.416-3.706-2.636-6.832-2.636-10.022a6.967,6.967,0,0,1,.157-1.471,2.382,2.382,0,0,1,1.368-1.683c2.489-1.087,3.519-5.78,5.413-8.391l.005-.006a1.023,1.023,0,0,0,.087-.119l0-.005a5.686,5.686,0,0,1,.658-.74c1.14-1.065,2.684-1.407,4.115-1.939A5.889,5.889,0,0,1,377.016,245.519Zm1.532,16.242a.975.975,0,0,0-.651-.236,1.142,1.142,0,0,0-1.172,1.064,2.036,2.036,0,0,0,.159.644c.1-.67,1.059-1.308,1.665-1.474Zm-4.4-6.635c0-.7-.438-1.184-1.384-1.184-4.4,0-7.573,3.222-8.339,4.076a32.7,32.7,0,0,1,6.319-1.8c.993-.176,3.406.122,3.406-1.093Zm-3.237,4.743a.24.24,0,0,0-.354-.278q-.135.082-.273.158a18.486,18.486,0,0,1-3.12,1.125c-.449.126-.88.233-1.244.305a.319.319,0,0,0-.25.376.323.323,0,0,0,.089.166,4.215,4.215,0,0,0,2.211,1.255h0a2.139,2.139,0,0,0,.278.019c1.578,0,2.305-1.98,2.666-3.128Z" transform="translate(-347.801 -229.605)" fill="#f8a57d"/>
            <path id="Trazado_100326" data-name="Trazado 100326" d="M379.55,253.758a.171.171,0,0,1,.242.01.169.169,0,0,1,.044.133c-.111,1.232-.5,2.756-2.459,2.756h-.01a1.092,1.092,0,0,1-.377-.82,1.272,1.272,0,0,1,.06-.379A10.6,10.6,0,0,0,379.55,253.758Z" transform="translate(-346.35 -228.792)" fill="#6862c0"/>
            <path id="Trazado_100327" data-name="Trazado 100327" d="M378.51,249.172a11.372,11.372,0,0,1,1.243-1.076A5.343,5.343,0,0,1,378.51,249.172Z" transform="translate(-346.201 -229.345)" fill="#8b532c"/>
            <path id="Trazado_100328" data-name="Trazado 100328" d="M378.516,264.491a1.284,1.284,0,0,1-1.158,1.22c.2.036.4.048.605.074-.056,1.088-.594.953-1.668,1.36q-.145.007-.293.007a8.174,8.174,0,0,1-4.449-1.4,5.318,5.318,0,0,0,1.416.194,8.065,8.065,0,0,0,3.861-.636A14.3,14.3,0,0,0,378.516,264.491Z" transform="translate(-346.885 -227.733)" fill="#c95057"/>
            <path id="Trazado_100329" data-name="Trazado 100329" d="M377.047,255.778a1.1,1.1,0,0,0,.377.82,2.355,2.355,0,0,1-1.019-.23,6.856,6.856,0,0,1,.118-.7c.2-.087.4-.177.585-.269A1.306,1.306,0,0,0,377.047,255.778Z" transform="translate(-346.408 -228.626)" fill="#f5debf"/>
            <path id="Trazado_100330" data-name="Trazado 100330" d="M376.472,260.048a.977.977,0,0,1,.651.236c-.606.167-1.566.8-1.664,1.472a2.05,2.05,0,0,1-.159-.645A1.141,1.141,0,0,1,376.472,260.048Z" transform="translate(-346.516 -228.17)" fill="#ffbc9a"/>
            <path id="Trazado_100331" data-name="Trazado 100331" d="M351.584,257.425a2.232,2.232,0,0,0-1.311,2.237,9.433,9.433,0,0,0,2.052,5.062l0,0a3.055,3.055,0,0,0,.5.632c1.168,1.373,2.552,2.362,3.735,2.362a2.1,2.1,0,0,0,2.076-2.348c0-3.561-4.342-7.991-6.716-7.991A1.172,1.172,0,0,0,351.584,257.425Zm27.859-21.6a11.6,11.6,0,0,0-5.14-1.13c-10.913,0-17.883,12.14-18.325,18.633-.294,4.3,4.116,8.227,4.116,12.287,0,1.787-.746,3.5-2.6,3.5a6.519,6.519,0,0,1-2.561-.68h0a14.014,14.014,0,0,1-5.567-7.286,5.858,5.858,0,0,1-.268-1.629,7.012,7.012,0,0,1,2.032-4.513c.417-.5.869-.986,1.32-1.482,1.367-3.872,4.69-14.208,12.035-18.993a15.051,15.051,0,0,1,6.259-2.355,15.658,15.658,0,0,1,2.1-.139,7.674,7.674,0,0,1,2.981.635,16.4,16.4,0,0,1,3.619,3.148Z" transform="translate(-349.093 -230.923)" fill="#526877"/>
            <path id="Trazado_100332" data-name="Trazado 100332" d="M374.769,270.664a3.988,3.988,0,0,0,.752-.153c-.668,3.992-2.357,6.77-6.487,6.77-2.948,0-6.054-1.707-6.8-4.552a3.846,3.846,0,0,0,.507-.306c.705,2.3,3.263,3.709,5.851,3.709A6.041,6.041,0,0,0,374.769,270.664Z" transform="translate(-347.801 -227.141)" fill="#b5365b"/>
            <path id="Trazado_100333" data-name="Trazado 100333" d="M373.559,270.694a3.872,3.872,0,0,0,1.164.062,6.041,6.041,0,0,1-6.174,5.467c-2.588,0-5.146-1.412-5.851-3.71A4.659,4.659,0,0,0,364.5,268.8a10.368,10.368,0,0,0-.066-1.167q.461.234.929.45A39.3,39.3,0,0,0,373.559,270.694Z" transform="translate(-347.755 -227.424)" fill="#da8156"/>
            <path id="Trazado_100334" data-name="Trazado 100334" d="M372.463,253.2c.946,0,1.384.483,1.384,1.184,0,1.215-2.413.917-3.406,1.091a32.521,32.521,0,0,0-6.318,1.8C364.889,256.419,368.063,253.2,372.463,253.2Z" transform="translate(-347.615 -228.843)" fill="#8b532c"/>
            <path id="Trazado_100335" data-name="Trazado 100335" d="M370.319,258.315a.239.239,0,0,1,.353.278c-.359,1.147-1.086,3.13-2.663,3.13a2.37,2.37,0,0,1-.279-.019h0a1.447,1.447,0,0,1-.96-1.451,1.241,1.241,0,0,1,.156-.652,18.536,18.536,0,0,0,3.121-1.125C370.138,258.424,370.228,258.37,370.319,258.315Z" transform="translate(-347.355 -228.343)" fill="#6862c0"/>
            <path id="Trazado_100336" data-name="Trazado 100336" d="M366.393,271.088h0a10.114,10.114,0,0,1,.07,1.168,4.585,4.585,0,0,1-1.891,3.711,4,4,0,0,1-.532.308,4.243,4.243,0,0,1-1.841.4,4.505,4.505,0,0,1-3.786-1.588,4.978,4.978,0,0,1-.916-2.325c-3.035-.644-5.371-3.433-6.832-6.8a16.754,16.754,0,0,1-1.376-6.365c0-.26-.023.257,0,0a16.707,16.707,0,0,0,2.79,5.741,7.22,7.22,0,0,0,1.732,1.939l1.128.931a3.432,3.432,0,0,0,2.2.646c2.465,0,4.333-1.188,4.333-4.06,0-3.006-2.2-5.863-3.337-8.517a11.486,11.486,0,0,1-.6-3.689c0-5.91,3.926-12.682,10.93-16.054,1.469,2.069,3.412,3.645,2.188,6.431-3.231,7.36-.667,7.632.254,6.561-1.985,2.614-3.065,7.3-5.673,8.391a2.412,2.412,0,0,0-1.435,1.683,6.682,6.682,0,0,0-.164,1.471C363.629,264.256,365.957,267.382,366.393,271.088Z" transform="translate(-349.075 -230.482)" fill="#d48b5f"/>
            <path id="Trazado_100337" data-name="Trazado 100337" d="M365.534,270.154a14.744,14.744,0,0,0,5.317,1.177,5.878,5.878,0,0,0,3.865-1.347,6.4,6.4,0,0,1,2.275-1.546c.953-.361,1.432-.242,1.483-1.209-.181-.022-.359-.032-.538-.065a1.142,1.142,0,0,0,1.03-1.085,12.816,12.816,0,0,1-1.5.727,1.562,1.562,0,0,0,.07-.445c0-.786-.745-1.132-1.457-1.351a.411.411,0,0,1,.1-.8h.008c.549,0,1.383.582,2.133.582,1.01,0,1.429-1.263,1.429-1.851,0-1.814-2.179-1.173-2.179-5.562a6.523,6.523,0,0,1,.045-.76,2.372,2.372,0,0,0,1.019.23h.011c1.959,0,2.348-1.523,2.459-2.756a.172.172,0,0,0-.287-.143,10.6,10.6,0,0,1-2.5,1.7c-.186.093-.38.182-.584.269a8.949,8.949,0,0,1,2.5-4.312,5.341,5.341,0,0,0,1.243-1.076c.032-.026.064-.051.1-.074-.026.68-.069,1.357-.069,2.041a16.77,16.77,0,0,0,.458,3.378,15.876,15.876,0,0,1,.13,2.214c0,.7-.031,1.4-.08,2.1a33.968,33.968,0,0,1-2.23,7.595,13.037,13.037,0,0,1-2.646,4.01,3.759,3.759,0,0,1-1.492.884,3.831,3.831,0,0,1-1.917.091A39.313,39.313,0,0,1,365.534,270.154Z" transform="translate(-347.477 -229.113)" fill="#e79065"/>
            <path id="Trazado_100338" data-name="Trazado 100338" d="M366.888,260.2a1.447,1.447,0,0,0,.96,1.45,4.211,4.211,0,0,1-2.21-1.257.319.319,0,0,1,0-.451.315.315,0,0,1,.165-.089c.365-.074.794-.18,1.244-.305A1.239,1.239,0,0,0,366.888,260.2Z" transform="translate(-347.476 -228.219)" fill="#f5debf"/>
            <path id="Trazado_100339" data-name="Trazado 100339" d="M366.928,231.023a21.326,21.326,0,0,1,4.961,1.15c-2.4.327-5.472.977-7.33,2.2a11.192,11.192,0,0,0-4.831-1.018c-.389,0-.807.032-1.219.042h0A16.288,16.288,0,0,1,366.928,231.023Z" transform="translate(-348.167 -231.023)" fill="#b16d42"/>
            <path id="Trazado_100340" data-name="Trazado 100340" d="M360.512,233.145a11.191,11.191,0,0,1,4.831,1.018c-7.474,4.909-10.854,15.514-12.245,19.482-.459.51-.918,1.01-1.342,1.52h0a14.822,14.822,0,0,1-1.217-5.349c0-7.695,3.678-13.565,8.754-16.631h0C359.7,233.177,360.124,233.145,360.512,233.145Z" transform="translate(-348.951 -230.814)" fill="#d48b5f"/>
            <path id="Trazado_100341" data-name="Trazado 100341" d="M356.621,268.883c1.891,0,2.65-1.717,2.65-3.5,0-4.053-4.487-7.975-4.187-12.265.45-6.48,7.541-18.6,18.644-18.6a12.009,12.009,0,0,1,5.229,1.128h0a22.328,22.328,0,0,1,4.264,7.2,18.132,18.132,0,0,0-2.565-2.281,4.273,4.273,0,0,1-.514-1.01c-1.209-1.942-2.249-3.925-4.667-3.925-.848,0-1.727.19-2.566.223a20.065,20.065,0,0,0-5.327,1.738c-6.682,3.282-10.428,9.869-10.428,15.619a11.351,11.351,0,0,0,.571,3.589c1.085,2.583,3.186,5.362,3.186,8.288,0,2.794-1.783,3.948-4.135,3.948a5.568,5.568,0,0,1-2.761-.842A6.746,6.746,0,0,0,356.621,268.883Z" transform="translate(-348.609 -230.679)" fill="#163a46"/>
            <path id="Trazado_100342" data-name="Trazado 100342" d="M356.25,262.253c0,1.24-.633,2.267-1.762,2.267a1.482,1.482,0,0,1-.311-.041,9.451,9.451,0,0,1-2.938-3.768,2.559,2.559,0,0,1,.591-2.834,1.624,1.624,0,0,1,1.071-.42C354.1,257.457,356.25,260.26,356.25,262.253Z" transform="translate(-348.901 -228.424)" fill="#0b2235"/>
            <path id="Trazado_100343" data-name="Trazado 100343" d="M352.745,263.237q-.265-.313-.512-.648l0,0a9.726,9.726,0,0,1-2.087-5.2,2.287,2.287,0,0,1,1.336-2.3,1.178,1.178,0,0,1,.345-.042c2.416,0,6.833,4.544,6.833,8.2a2.145,2.145,0,0,1-2.113,2.41C355.341,265.659,353.933,264.645,352.745,263.237Zm-1.2-2.149A7.529,7.529,0,0,0,354.126,264a1.428,1.428,0,0,0,.273.031,1.579,1.579,0,0,0,1.548-1.751c0-1.541-1.891-3.707-2.941-3.707a1.551,1.551,0,0,0-.94.325A1.811,1.811,0,0,0,351.547,261.087Z" transform="translate(-348.991 -228.661)" fill="#e25c6b"/>
          </g>
          <path id="Trazado_100344" data-name="Trazado 100344" d="M388.409,280.776a56.346,56.346,0,0,1-.949,7.864,14.514,14.514,0,0,1-10.07,11.455,40.423,40.423,0,0,1-11.191,1.721h-.185c-3.978-.025-8.267-2.277-11.374-5.5.334.044.684.1,1.038.152,31.472,4.808,20.661-25.438,20.661-25.438a3.637,3.637,0,0,0,1.495-.885,13.057,13.057,0,0,0,2.65-4C386.238,266.476,388.409,275.042,388.409,280.776Z" transform="translate(-348.548 -227.57)" fill="#4fc7c3"/>
          <g id="Grupo_53604" data-name="Grupo 53604" transform="translate(5.35 32.682)">
            <path id="Trazado_100345" data-name="Trazado 100345" d="M374.228,268.94a1.551,1.551,0,0,1-1.3.956c-.167.025-.3.051-.405.064a11.491,11.491,0,0,1-2.562.284,7.149,7.149,0,0,1-1.5.019,13.93,13.93,0,0,1-2.993-.328,9.3,9.3,0,0,1-1.461-.36,9.856,9.856,0,0,1-1.423-.481,16.309,16.309,0,0,1-8.591-7.864.309.309,0,0,1,.144-.413l.008,0a.224.224,0,0,1,.126-.032.306.306,0,0,1,.266.134,17.479,17.479,0,0,0,8.648,6.54,11.591,11.591,0,0,0,1.3.367,7.883,7.883,0,0,0,1.323.272,20.75,20.75,0,0,0,5.408.064c1.3-.1,1.815-.71,2.86.17A.513.513,0,0,1,374.228,268.94Z" transform="translate(-353.964 -260.78)" fill="#51495e"/>
            <path id="Trazado_100346" data-name="Trazado 100346" d="M374.2,268.94a1.551,1.551,0,0,1-1.3.956c-.167.025-.3.051-.405.064a.548.548,0,0,0,.272-.449c0-.626-.639-.759-1.26-.759-.431,0-.493.044-1.479.044-7.218,0-11.995-2.512-15.785-8.015a.306.306,0,0,1,.266.134,17.479,17.479,0,0,0,8.648,6.54,11.542,11.542,0,0,0,1.3.367,7.847,7.847,0,0,0,1.322.272,20.75,20.75,0,0,0,5.408.064c1.3-.1,1.815-.71,2.86.17A.513.513,0,0,1,374.2,268.94Z" transform="translate(-353.936 -260.78)" fill="#373140"/>
          </g>
        </g>
      </g>
      <rect id="Rectángulo_5057" data-name="Rectángulo 5057" width="92.886" height="92.886" transform="translate(339.614 249.104)" fill="none"/>
    </g>
  </g>
</svg>
