<svg xmlns="http://www.w3.org/2000/svg" width="68" height="68" viewBox="0 0 68 68">
  <g id="Grupo_55830" data-name="Grupo 55830" transform="translate(0.245 -0.094)">
    <g id="Grupo_55829" data-name="Grupo 55829" transform="translate(9.775 4.365)" opacity="0.996">
      <path id="Trazado_118233" data-name="Trazado 118233" d="M-256.943,38.214a1.374,1.374,0,0,0-.02,1.056c.074-.038.167-.082.249-.122l-.2-.991C-256.92,38.176-256.935,38.195-256.943,38.214Z" transform="translate(279.533 -9.211)" fill="#fe7062"/>
      <path id="Trazado_118234" data-name="Trazado 118234" d="M-256.516,34.146a1.082,1.082,0,0,0-.789.677,6.383,6.383,0,0,1,1.249-.67A1.074,1.074,0,0,0-256.516,34.146Z" transform="translate(279.564 -8.699)" fill="#fe7062"/>
      <path id="Trazado_118235" data-name="Trazado 118235" d="M-262.734,37.864a31.53,31.53,0,0,1-4.54.3c-4.535,0-7.125-.737-7.7-1.2l1.043-5.221a1.1,1.1,0,0,0-.867-1.3,1.1,1.1,0,0,0-1.3.866l-.682,3.413c-1.233-.32-3.351-1.248-3.781-1.852l1.425-4.272a6.425,6.425,0,0,1,2.231-3.114l.672-.473,4.74,2.844,3.181,8.483a1.105,1.105,0,0,0,1.035.717,1.1,1.1,0,0,0,1.034-.717l3.164-8.438,5.183-2.591.219.154a6.452,6.452,0,0,1,2.259,3.135l.422,1.262h2.33l-.654-1.962a8.679,8.679,0,0,0-3.058-4.224l-.951-.668V13.843c0-5.289-5.145-8.843-9.949-8.843s-9.95,3.554-9.95,8.843V23.01l-.979.687a8.657,8.657,0,0,0-3.03,4.2l-1.439,4.324a1.925,1.925,0,0,0,.25,1.833c.891,1.316,3.542,2.417,5.215,2.826a1.156,1.156,0,0,0-.017.173c0,1.932,2.732,2.538,3.63,2.738a30.578,30.578,0,0,0,6.32.579,36.421,36.421,0,0,0,4.619-.269,8.79,8.79,0,0,1-.123-1.4C-262.779,38.422-262.762,38.142-262.734,37.864Zm-1.719-11.744a1.108,1.108,0,0,0-.54.6l-2.281,6.084-2.281-6.084a1.111,1.111,0,0,0-.466-.56l-4.03-2.417,1.863-1.242a1.1,1.1,0,0,0,.458-.65l.293-.205a8.808,8.808,0,0,0,4.162,1.041,8.8,8.8,0,0,0,4.162-1.041l.292.205a1.105,1.105,0,0,0,.459.65l2.2,1.47Zm-7.243-7.346V14.2a1.187,1.187,0,0,1,.436-.922,1.129,1.129,0,0,1,.946-.242c1.22.244,2.523.594,3.783.931,1.232.33,2.394.643,3.357.821a.379.379,0,0,1,.321.372v3.61a6.6,6.6,0,0,1-4.422,1.7A6.6,6.6,0,0,1-271.7,18.773Zm-3.317-4.93c0-3.909,4.078-6.633,7.738-6.633s7.737,2.724,7.737,6.633v7.884l-1.105-.738V15.163a2.6,2.6,0,0,0-2.129-2.547c-.877-.162-2-.463-3.186-.781-1.295-.347-2.633-.707-3.924-.964a3.34,3.34,0,0,0-2.782.7,3.4,3.4,0,0,0-1.244,2.631V20.99l-1.105.738Z" transform="translate(282.803 -5)" fill="#fe7062"/>
      <path id="Trazado_118236" data-name="Trazado 118236" d="M-236.575,60.766l-1.462-4.385a8.678,8.678,0,0,0-3.058-4.224l-4.842-3.4a8.813,8.813,0,0,0,2.786-6.431,8.838,8.838,0,0,0-.139-1.515c2.319-1.718,1.338-5.983,1.212-6.492l-.21-.837h-11.917a8.383,8.383,0,0,0-3.148.59,6.383,6.383,0,0,0-1.249.67,4.7,4.7,0,0,0-1.712,2.033,3.57,3.57,0,0,0-.042,2.69,8.928,8.928,0,0,0-.437,2.017c-.027.278-.045.558-.045.842a8.79,8.79,0,0,0,.123,1.4,8.827,8.827,0,0,0,2.663,5.033l-4.87,3.422a8.657,8.657,0,0,0-3.03,4.2l-1.44,4.324a1.925,1.925,0,0,0,.251,1.833c.89,1.316,3.541,2.417,5.214,2.826a1.159,1.159,0,0,0-.017.173c0,1.932,2.732,2.538,3.629,2.738a30.59,30.59,0,0,0,6.32.579c3.715,0,9.949-.43,9.949-3.317a1.159,1.159,0,0,0-.017-.173c1.674-.409,4.324-1.51,5.214-2.826A1.9,1.9,0,0,0-236.575,60.766Zm-9.014-9.065-2.89,2.312-2.215-2.952a8.778,8.778,0,0,0,2.861-.935Zm-10.706-15.678a6.306,6.306,0,0,1,2.089-.333h10.138c.175,1.259.179,3-.6,3.4a6.894,6.894,0,0,1-1.952-.738,19.5,19.5,0,0,0-3.293-1.274,8.327,8.327,0,0,0-2.087-.286c-.137,0-.278.017-.418.025a12.6,12.6,0,0,0-3.555.834,22.485,22.485,0,0,0-2.075.9c-.082.04-.175.085-.249.122a1.374,1.374,0,0,1,.02-1.056c.008-.019.023-.038.031-.057A3.231,3.231,0,0,1-256.294,36.023Zm-3.4,29.425,1.044-5.221a1.105,1.105,0,0,0-.867-1.3,1.1,1.1,0,0,0-1.3.866l-.683,3.413c-1.233-.32-3.351-1.248-3.78-1.853l1.424-4.272a6.442,6.442,0,0,1,2.231-3.115l1.837-1.29,3.695,3.695a1.1,1.1,0,0,0,.86.321,1.092,1.092,0,0,0,.687-.337L-253.1,57.8l-2.211,5.528,2.475,3.3C-256.837,66.54-259.158,65.877-259.693,65.448Zm1.742-14.063,1.794-1.26a8.785,8.785,0,0,0,2.861.935l-2.134,2.845Zm-.6-8.08a6.615,6.615,0,0,1-.08-.981,6.664,6.664,0,0,1,.079-.976l.48-.282c.974-.573,3.966-2.059,6.073-2.059.079,0,.158.01.237.013a11.914,11.914,0,0,1,4.216,1.343,13,13,0,0,0,2.077.832,6.594,6.594,0,0,1,.1,1.129,6.64,6.64,0,0,1-6.633,6.632A6.637,6.637,0,0,1-258.547,43.3Zm16.056,19.9-.683-3.413a1.1,1.1,0,0,0-1.3-.866,1.105,1.105,0,0,0-.867,1.3l1.044,5.221c-.535.429-2.856,1.092-6.857,1.178l2.475-3.3L-250.89,57.8l1.444-1.443a1.091,1.091,0,0,0,.628.329,1.071,1.071,0,0,0,.14.009,1.105,1.105,0,0,0,.691-.242l4.283-3.427,1.31.921a6.46,6.46,0,0,1,2.26,3.135l1.425,4.271C-239.135,61.955-241.257,62.885-242.491,63.206Z" transform="translate(280.862 -8.617)" fill="#fe7062"/>
    </g>
    <rect id="Rectángulo_29643" data-name="Rectángulo 29643" width="68" height="68" transform="translate(-0.245 0.094)" fill="none"/>
  </g>
</svg>
