<svg xmlns="http://www.w3.org/2000/svg" xmlns:xlink="http://www.w3.org/1999/xlink" width="353" height="305" viewBox="0 0 353 305">
  <defs>
    <linearGradient id="linear-gradient" x1="1.129" y1="0.323" x2="1.846" y2="0.953" gradientUnits="objectBoundingBox">
      <stop offset="0.004" stop-color="#91b3fa"/>
      <stop offset="1" stop-color="#91b3fa"/>
    </linearGradient>
    <linearGradient id="linear-gradient-2" x1="19.377" y1="0.249" x2="19.579" y2="0.324" xlink:href="#linear-gradient"/>
    <linearGradient id="linear-gradient-3" x1="63.094" y1="0.207" x2="63.333" y2="0.651" gradientUnits="objectBoundingBox">
      <stop offset="0" stop-color="#fdc251"/>
      <stop offset="0.996" stop-color="#f0705b"/>
    </linearGradient>
    <linearGradient id="linear-gradient-4" x1="-162.957" y1="1.152" x2="-162.957" y2="-0.027" xlink:href="#linear-gradient-3"/>
    <linearGradient id="linear-gradient-5" x1="-182.134" y1="0.734" x2="-182.134" y2="-0.116" xlink:href="#linear-gradient-3"/>
    <linearGradient id="linear-gradient-6" x1="-23.561" y1="0.5" x2="-22.561" y2="0.5" gradientUnits="objectBoundingBox">
      <stop offset="0" stop-color="#311b43"/>
      <stop offset="1" stop-color="#873b75"/>
    </linearGradient>
    <linearGradient id="linear-gradient-7" x1="-110.574" y1="-146.977" x2="-109.752" y2="-145.422" xlink:href="#linear-gradient"/>
    <linearGradient id="linear-gradient-8" x1="-21.155" y1="10.296" x2="-20.716" y2="11.224" xlink:href="#linear-gradient"/>
    <linearGradient id="linear-gradient-9" x1="-265.196" y1="157.052" x2="-264.644" y2="159.167" xlink:href="#linear-gradient"/>
    <linearGradient id="linear-gradient-10" x1="207.875" y1="7.477" x2="207.235" y2="1.611" xlink:href="#linear-gradient-6"/>
    <linearGradient id="linear-gradient-11" x1="-39.169" y1="20.641" x2="-38.403" y2="22.442" xlink:href="#linear-gradient"/>
    <linearGradient id="linear-gradient-12" x1="-22.098" y1="20.807" x2="-21.641" y2="22.778" xlink:href="#linear-gradient"/>
  </defs>
  <g id="Grupo_55975" data-name="Grupo 55975" transform="translate(-223 -4589)">
    <path id="Trazado_119164" data-name="Trazado 119164" d="M0,0H353V305H0Z" transform="translate(223 4589)" fill="none"/>
    <g id="Grupo_55974" data-name="Grupo 55974" transform="translate(222.626 4585.31)">
      <path id="Trazado_119165" data-name="Trazado 119165" d="M174.231,286.333C105.34,275.9,49.355,210.766,59.527,138.37,68.2,76.629,122.335,28.58,187.248,24.043q7.052-.493,14.254-.292A141.848,141.848,0,0,1,293.686,61.2c23.685,21.814,39.073,50.99,41.874,81.6C343.022,224.238,259.915,299.31,174.231,286.333Z" fill="#f3f6f9"/>
      <g id="Grupo_55962" data-name="Grupo 55962">
        <g id="Grupo_55952" data-name="Grupo 55952">
          <path id="Trazado_119166" data-name="Trazado 119166" d="M258.309,147.352a1.259,1.259,0,0,0,1.251-1.139c1.1-11.553,4.868-22.531,10.607-30.91,5.084-7.423,11.136-11.853,16.193-11.853h.017c18.419.036,22.272,42.324,22.309,42.752a1.258,1.258,0,0,0,2.506-.215c-.158-1.838-4.1-45.012-24.81-45.052h-.022c-5.975,0-12.632,4.717-18.268,12.947-5.976,8.725-9.9,20.122-11.036,32.093a1.257,1.257,0,0,0,1.133,1.371C258.229,147.35,258.27,147.352,258.309,147.352Z" fill="#667eb0"/>
          <path id="Trazado_119167" data-name="Trazado 119167" d="M335.044,234.385,310.8,246.661l-14.691-45.082,24.207-60.439,6.864,1.683,10.415,86.8A4.707,4.707,0,0,1,335.044,234.385Z" fill="#667eb0"/>
          <path id="Trazado_119168" data-name="Trazado 119168" d="M320.313,141.14H229.906l-29.92,96.593L310.8,246.661Z" fill="url(#linear-gradient)"/>
          <path id="Trazado_119169" data-name="Trazado 119169" d="M292.307,149.419a1.259,1.259,0,0,0,1.223-.971c.257-1.1,6.2-26.978-2.179-39.68a14.591,14.591,0,0,0-9.968-6.606c-21.65-3.815-34.98,42.686-35.537,44.667a1.257,1.257,0,1,0,2.421.681c.131-.463,13.252-46.3,32.68-42.871a12.007,12.007,0,0,1,8.305,5.513c7.785,11.808,1.89,37.464,1.829,37.722a1.26,1.26,0,0,0,1.226,1.545Z" fill="#667eb0"/>
          <circle id="Elipse_4192" data-name="Elipse 4192" cx="3.514" cy="3.514" r="3.514" transform="translate(288.783 146.094)" fill="#667eb0"/>
          <circle id="Elipse_4193" data-name="Elipse 4193" cx="3.514" cy="3.514" r="3.514" transform="translate(242.952 145.768)" fill="url(#linear-gradient-2)"/>
        </g>
        <g id="Grupo_55956" data-name="Grupo 55956">
          <g id="Grupo_55953" data-name="Grupo 55953">
            <path id="Trazado_119170" data-name="Trazado 119170" d="M163.529,40.941q-11.78,99.556-23.558,197.036a5.03,5.03,0,0,0,4.476,5.73q47.341,4.491,94.683,9.179c5.63.274,8.722-2.872,9.084-6.022Q260.338,141.634,272.463,34.2c.363-3.216-2.362-5.981-7.992-5.706Q216.9,31.887,169.322,35.19A6.654,6.654,0,0,0,163.529,40.941Z" fill="#26274e"/>
            <path id="Trazado_119171" data-name="Trazado 119171" d="M159.146,40.805Q147.293,140.8,135.439,238.683a5.058,5.058,0,0,0,4.505,5.757q49.158,4.162,98.316,8.491a5.832,5.832,0,0,0,6.1-5.268q12.2-105.711,24.4-213.652c.365-3.23-1.8-5.71-4.814-5.506q-49.488,3.3-98.977,6.523A6.692,6.692,0,0,0,159.146,40.805Z" fill="#373870"/>
            <path id="Trazado_119172" data-name="Trazado 119172" d="M161.05,51.711q-10.979,92.64-21.958,183.475a4.707,4.707,0,0,0,4.209,5.369q46.231,3.782,92.461,7.706a5.454,5.454,0,0,0,5.685-4.919Q252.729,145.7,264.01,46.156c.34-3-1.678-5.326-4.48-5.16q-46.518,2.709-93.037,5.36A6.184,6.184,0,0,0,161.05,51.711Z" fill="#fe7062"/>
          </g>
          <path id="Trazado_119173" data-name="Trazado 119173" d="M211.254,38.216a1.542,1.542,0,0,0,1.612,1.837,2.359,2.359,0,0,0,2.066-2.064,1.538,1.538,0,0,0-1.614-1.836A2.36,2.36,0,0,0,211.254,38.216Z" fill="#91b3fa"/>
          <ellipse id="Elipse_4194" data-name="Elipse 4194" cx="7.093" cy="8.368" rx="7.093" ry="8.368" transform="translate(193.09 81.163)" fill="#91b3fa"/>
          <ellipse id="Elipse_4195" data-name="Elipse 4195" cx="7.093" cy="8.368" rx="7.093" ry="8.368" transform="translate(164.856 81.163)" fill="#91b3fa"/>
          <ellipse id="Elipse_4196" data-name="Elipse 4196" cx="7.194" cy="8.368" rx="7.194" ry="8.368" transform="translate(178.95 81.163)" fill="#d7dde7"/>
          <ellipse id="Elipse_4197" data-name="Elipse 4197" cx="7.093" cy="8.368" rx="7.093" ry="8.368" transform="translate(136.621 81.163)" fill="#91b3fa"/>
          <ellipse id="Elipse_4198" data-name="Elipse 4198" cx="7.194" cy="8.368" rx="7.194" ry="8.368" transform="translate(150.716 81.163)" fill="#d7dde7"/>
          <ellipse id="Elipse_4199" data-name="Elipse 4199" cx="7.194" cy="8.368" rx="7.194" ry="8.368" transform="translate(122.482 81.163)" fill="#d7dde7"/>
          <ellipse id="Elipse_4200" data-name="Elipse 4200" cx="7.194" cy="8.368" rx="7.194" ry="8.368" transform="translate(207.184 81.163)" fill="#d7dde7"/>
          <path id="Trazado_119174" data-name="Trazado 119174" d="M265.433,40.167l-44.014,50.5h-113.6l55.048-44.1Z" fill="#91b3fa"/>
          <g id="Grupo_55954" data-name="Grupo 55954">
            <path id="Trazado_119175" data-name="Trazado 119175" d="M265.433,40.168l-44.014,50.5H207.184l46.409-49.759Z" fill="#f3f6f9"/>
            <path id="Trazado_119176" data-name="Trazado 119176" d="M240.881,41.7,193.157,90.665H179.1L228.074,42.5Z" fill="#f3f6f9"/>
            <path id="Trazado_119177" data-name="Trazado 119177" d="M215.172,43.3,165,90.665H150.874l51.3-46.553Z" fill="#f3f6f9"/>
            <path id="Trazado_119178" data-name="Trazado 119178" d="M175.876,45.752l13.2-.823L136.712,90.665h-14.2Z" fill="#f3f6f9"/>
          </g>
          <path id="Trazado_119179" data-name="Trazado 119179" d="M122.5,90.665c-.47,4.084-3.429,7.234-7.02,7.234s-6.55-3.15-7.02-7.234Z" fill="#91b3fa"/>
          <path id="Trazado_119180" data-name="Trazado 119180" d="M189.058,158.126c13.083,5.677,28.67-1.2,34.814-15.359s.518-30.24-12.565-35.916-28.669,1.2-34.813,15.359S175.976,152.449,189.058,158.126Zm.718-23.888c.463-3.519,2.622-5.423,7.491-6.454,3.489-.814,4.965-1.455,5.135-2.746.143-1.1-.533-2.3-3.075-2.632a13.085,13.085,0,0,0-5.806.59l-.553-4.568a14.2,14.2,0,0,1,5.839-.545l.452-3.441,3.833.5-.488,3.714c4.076,1.371,6.145,4.388,5.693,7.829-.5,3.793-3.61,5.373-7.979,6.231-3.022.6-4.4,1.371-4.592,2.857-.205,1.564,1.206,2.625,3.435,2.918a13.948,13.948,0,0,0,6.718-.867l.571,4.729a15.85,15.85,0,0,1-6.868.807l-.488,3.714-3.832-.5.524-3.988C191.392,141.014,189.319,137.718,189.776,134.238Z" fill="#f3f6f9" opacity="0.63"/>
          <g id="Grupo_55955" data-name="Grupo 55955" opacity="0.63">
            <path id="Trazado_119181" data-name="Trazado 119181" d="M162.457,199.093l59.883,1.814a4.26,4.26,0,0,0,4.34-3.617l2.427-15.964a4.258,4.258,0,0,0-4.112-4.9l-59.948-1.389a4.26,4.26,0,0,0-4.309,3.618L158.375,194.2A4.26,4.26,0,0,0,162.457,199.093Z" fill="#f3f6f9"/>
            <path id="Trazado_119182" data-name="Trazado 119182" d="M160.445,212.217l59.848,2.047a4.259,4.259,0,0,0,4.356-3.616l.023-.15a4.259,4.259,0,0,0-4.076-4.9l-59.871-1.9a4.259,4.259,0,0,0-4.345,3.617h0A4.259,4.259,0,0,0,160.445,212.217Z" fill="#f3f6f9"/>
          </g>
        </g>
        <g id="Grupo_55961" data-name="Grupo 55961">
          <g id="Grupo_55960" data-name="Grupo 55960">
            <g id="Grupo_55959" data-name="Grupo 55959">
              <path id="Trazado_119183" data-name="Trazado 119183" d="M191.112,124.5a6.831,6.831,0,0,1-.088-3.669c.824-3.141,3.842-4.9,4.112-4.67.146.124-.332.975-.569,1.345-.492.771-.782.775-.872,1.168-.186.811.955,1.176,1.255,2.409a2.972,2.972,0,0,1-.786,2.705A3.355,3.355,0,0,1,191.112,124.5Z" fill="#ffd5ad"/>
              <path id="Trazado_119184" data-name="Trazado 119184" d="M120.851,183.621l.925-3.184-3.863-2.863-2.408-.9,1.426,4.455Z" fill="url(#linear-gradient-3)"/>
              <path id="Trazado_119185" data-name="Trazado 119185" d="M125.633,247.754s-2.113,5.315-1.557,7.673a23.719,23.719,0,0,1-3.736-.333,25.8,25.8,0,0,0,1.089-3.626,35.588,35.588,0,0,0,.223-4.248Z" fill="url(#linear-gradient-4)"/>
              <path id="Trazado_119186" data-name="Trazado 119186" d="M148.926,260.187a1.672,1.672,0,0,0-.4.977,1.588,1.588,0,0,0,.12.654c.36.948.926,1.073,1.537,2.079.373.615.3.8.644,1.078a2.248,2.248,0,0,0,1.468.392,26.218,26.218,0,0,0,3.395-.192q-1.138-1.467-2.423-2.973-.564-.66-1.126-1.288l-2.23-.753Z" fill="#26274e"/>
              <path id="Trazado_119187" data-name="Trazado 119187" d="M150.78,249.362s1.275,6.65-.347,8.512c-1.381,1.862.668.534.668.534l2.446,2.135,1.468,2.536s-1.351-6.509-.991-9.092.541-4.325.541-4.325Z" fill="url(#linear-gradient-5)"/>
              <path id="Trazado_119188" data-name="Trazado 119188" d="M155.586,176.62s3.424,3.063,3.424,15.677-1.622,40.005-1.622,40.005l-2.6,19.611a17.145,17.145,0,0,1-4.493-.445c-1.622-7.388-4.265-19.886-3-30.338.54-11.353-4.5-25.589-4.5-25.589s-4.325,14.416-7.389,21.625-8.9,29.789-9.436,31.411c-3.585.325-5.116-.623-5.116-.623s2.3-24.3,4.461-33.492,1.982-31.355,5.586-37.662C139.007,173.556,155.586,176.62,155.586,176.62Z" fill="url(#linear-gradient-6)"/>
              <path id="Trazado_119189" data-name="Trazado 119189" d="M155.586,176.62s3.424,3.063,3.424,15.677-1.622,40.005-1.622,40.005l-2.6,19.611a17.145,17.145,0,0,1-4.493-.445c-1.622-7.388-4.265-19.886-3-30.338.54-11.353-4.5-25.589-4.5-25.589s-4.325,14.416-7.389,21.625-8.9,29.789-9.436,31.411c-3.585.325-5.116-.623-5.116-.623s2.3-24.3,4.461-33.492,1.982-31.355,5.586-37.662C139.007,173.556,155.586,176.62,155.586,176.62Z"/>
              <g id="Grupo_55957" data-name="Grupo 55957">
                <path id="Trazado_119190" data-name="Trazado 119190" d="M124.632,257.444s.527,0,.483.681.237,3.02-2.44,3.13a8.205,8.205,0,0,1-3.178-.19,22.106,22.106,0,0,1,.7-2.238l.856-1.1,2.3-.242Z" fill="#26274e"/>
                <path id="Trazado_119191" data-name="Trazado 119191" d="M118.7,259.793a8.52,8.52,0,0,1,.692-2.17c.472-1.063.084-1.461.536-2.43a2.885,2.885,0,0,1,.638-.967,2.769,2.769,0,0,1,1.89-.72,1.919,1.919,0,0,1,.89.209,2.077,2.077,0,0,1,.8.845,9.386,9.386,0,0,1,.645,1.913,4.773,4.773,0,0,1,.239,1.235c-.7,0-3.4.109-3.972.526a2.24,2.24,0,0,0-.856,1.822c0,.7-.351,1.031-.7,1.009A1.153,1.153,0,0,1,118.7,259.793Z" fill="#91b3fa"/>
              </g>
              <path id="Trazado_119192" data-name="Trazado 119192" d="M151.123,256.94c-.6.009-1.046.489-1.379,1.646s-1.935,2.179-.067,1.935,3.225,2.4,3.892,3.381,2.459,1.848,2.414.891-.834-1.4-1.057-2.382S152.5,256.918,151.123,256.94Z" fill="#91b3fa"/>
              <path id="Trazado_119193" data-name="Trazado 119193" d="M122.218,172.2c-.082-1.308-.479-9.855,5.877-15.7a19.9,19.9,0,0,1,12.778-4.913c5.734-.024,7.8,2.748,10,1.389,3.736-2.307,3.632-13.9-1.942-17.83-6.284-4.436-17.35,2.382-22.511,7.472a29.187,29.187,0,0,0-8.194,16.628,28.477,28.477,0,0,0,.63,10.445Z" fill="url(#linear-gradient-7)"/>
              <path id="Trazado_119194" data-name="Trazado 119194" d="M152.9,134.666c6.306,1.563,11.084,3.058,13.01,6.561,2.035,3.7-1.8,6.093-3.36,13.771-2.383,11.754,4.116,16.684,1.282,28.488a30.972,30.972,0,0,1-3.628,8.773,32.571,32.571,0,0,1-10.2,4.821c-6.64,1.793-9.738.244-18.486.106-14.308-.225-16.743,3.752-22.995.741-6.319-3.043-10.521-10.326-8.925-13.191.956-1.716,3.482-.417,7.38-2.324,5.023-2.459,4.493-6.353,8.643-9.358,5.96-4.317,11.014.85,16.116-2.909,5.162-3.8,6.479-13.87,4.853-20.038-1.063-4.029-.776-8.306-1.483-12.412a2.612,2.612,0,0,1,.167-1.471c.966-2.26,5.24-2.4,8.469-2.468A36.677,36.677,0,0,1,152.9,134.666Z" fill="url(#linear-gradient-8)"/>
              <path id="Trazado_119195" data-name="Trazado 119195" d="M158.226,135.934l-1.119-.735s-.8,1.571-4.818.63a6.153,6.153,0,0,1-3.255-2.279l-1.018.368a6.729,6.729,0,0,0,4.121,3.631A6.124,6.124,0,0,0,158.226,135.934Z" fill="url(#linear-gradient-9)"/>
              <g id="Grupo_55958" data-name="Grupo 55958">
                <path id="Trazado_119196" data-name="Trazado 119196" d="M157.2,130.144a5.487,5.487,0,0,0-1.053-3.83c-1.015-1.433-1.253-1.617-1.682-1.835l-.592-.274-.068-.016a6.414,6.414,0,0,0-1.816.106c-.76.26-1.209,3.538-.432,8l-.063,1.059c-1.753-.192-2.253-.011-2.336.225-.18.512,1.453,1.707,3.132,2.242,2.106.67,4.624.412,4.779-.281.063-.281-.239-.738-1.682-1.519q-.213-.613-.427-1.226C155.251,132.6,156.978,131.541,157.2,130.144Z" fill="#ffd5ad"/>
                <path id="Trazado_119197" data-name="Trazado 119197" d="M154.772,128.694c-.4-.428-.944.084-.875.691a1.115,1.115,0,0,0,1.289.979C155.742,130.176,155.307,129.269,154.772,128.694Z" fill="url(#linear-gradient-10)"/>
                <path id="Trazado_119198" data-name="Trazado 119198" d="M92.4,110.555c8.333-5.033,22.523,1.136,29.094,9.033,3.053,3.669,4.122,7.266,8.536,8.825,3.356,1.185,9.157,1.48,13.09-1.386.5-.361,2.5-1.895,5.383-3.729,1.269-.809,2.514-1.552,4.051-1.355a2.964,2.964,0,0,1,2.279,1.25,2.993,2.993,0,0,1-.122,2.779c-.259.453-.427.46-.5.785-.2.914,1.32,1.779,1.1,2.2-.158.3-.973-.062-1.237.3-.289.4.533,1.05.609,2.282.6.721.716,2.11.393,3.832a15.869,15.869,0,0,1-2.206,5.829c-4.352,6.6-7.465,11.317-12.193,13.083-6.26,2.339-9.864-2.548-22.79-6.912-17.7-5.976-23.933-1.2-29.166-7.228C82.187,132.62,83.75,115.78,92.4,110.555Z"/>
              </g>
              <path id="Trazado_119199" data-name="Trazado 119199" d="M190.482,123.848a18.709,18.709,0,0,1-21.2,15.727c-5.684-.76-7.349-3.789-9.716-2.743-4.017,1.774-5.5,13.268-.514,17.928,5.617,5.254,17.512.013,23.32-4.324a29.177,29.177,0,0,0,10.391-15.352,28.485,28.485,0,0,0,.8-10.432,5.048,5.048,0,0,0-3.089-.8Z" fill="url(#linear-gradient-11)"/>
              <path id="Trazado_119200" data-name="Trazado 119200" d="M109.6,193.482c2.069-1.17,1.272-4.975,4.338-6.741,2.846-1.638,4.786.918,8.872-.016,5.241-1.2,5.333-6.153,10.36-7.369,3.615-.876,4.516,1.457,9.6,1.926a20.315,20.315,0,0,0,16.517-6.229,18.2,18.2,0,0,0,3.852-6.751c1.04,4.493,2.207,8.849.686,15.184a30.972,30.972,0,0,1-3.628,8.773,32.571,32.571,0,0,1-10.2,4.821c-6.64,1.793-9.738.244-18.486.106-14.308-.225-16.743,3.752-22.995.741a18.52,18.52,0,0,1-8.551-8.767C105.309,193.667,108.1,194.332,109.6,193.482Z" opacity="0.3" fill="url(#linear-gradient-12)" style="mix-blend-mode: multiply;isolation: isolate"/>
            </g>
          </g>
        </g>
      </g>
      <g id="Grupo_55973" data-name="Grupo 55973">
        <g id="Grupo_55969" data-name="Grupo 55969">
          <path id="Trazado_119201" data-name="Trazado 119201" d="M147.126,204.318l-4.159-5.128L138.8,203a5.417,5.417,0,0,0-.758,7.139l1.843,2.59,6.385-2.642,1.239-3.6A2.276,2.276,0,0,0,147.126,204.318Z" fill="#1a0f91"/>
          <path id="Trazado_119202" data-name="Trazado 119202" d="M155.914,193.862c0,4.567-1.256,8.427-4.837,9.694a8.279,8.279,0,0,1-2.787.439,10.134,10.134,0,1,1-.237-20.264c.079,0,.158,0,.237,0C154.027,183.729,155.914,188.264,155.914,193.862Z" fill="#1a0f91"/>
          <g id="Grupo_55963" data-name="Grupo 55963">
            <circle id="Elipse_4201" data-name="Elipse 4201" cx="17.832" cy="17.832" r="17.832" transform="translate(43.46 250.044)"/>
            <circle id="Elipse_4202" data-name="Elipse 4202" cx="12.305" cy="12.305" r="12.305" transform="translate(48.987 255.571)" fill="#fff"/>
          </g>
          <circle id="Elipse_4203" data-name="Elipse 4203" cx="5.779" cy="5.779" r="5.779" transform="translate(55.348 262.483)"/>
          <path id="Trazado_119203" data-name="Trazado 119203" d="M43.741,239.548c-.136.291-.38.465-.545.388L21.343,229.759c-.166-.077-.19-.375-.054-.667h0c.136-.291.38-.465.545-.388L43.687,238.88c.165.077.189.376.054.668Z" fill="#0e084f"/>
          <g id="Grupo_55964" data-name="Grupo 55964">
            <rect id="Rectángulo_29666" data-name="Rectángulo 29666" width="34.64" height="5.434" transform="translate(75.825 226.616)" fill="#0e084f"/>
            <rect id="Rectángulo_29667" data-name="Rectángulo 29667" width="39.395" height="6.792" rx="3.233" transform="translate(73.788 221.182)" fill="#0e084f"/>
          </g>
          <path id="Trazado_119204" data-name="Trazado 119204" d="M45.36,254.549s-9.341,2.971-9.5,13.36a.869.869,0,0,0,.178.539c.116.118.274.28.44.28h3.373A2.044,2.044,0,0,0,41,268.256l15.78-11.67Z" fill="#0e084f"/>
          <path id="Trazado_119205" data-name="Trazado 119205" d="M89.026,264.3c-1.2-.179-20.253.142-27.232.267a2.649,2.649,0,0,0-2.61,2.592v1.06a2.649,2.649,0,0,0,2.347,2.574l33.977,4.079Z" fill="#0e084f"/>
          <g id="Grupo_55965" data-name="Grupo 55965">
            <circle id="Elipse_4204" data-name="Elipse 4204" cx="17.832" cy="17.832" r="17.832" transform="translate(156.397 250.044)"/>
            <circle id="Elipse_4205" data-name="Elipse 4205" cx="12.305" cy="12.305" r="12.305" transform="translate(161.923 255.571)" fill="#fff"/>
          </g>
          <circle id="Elipse_4206" data-name="Elipse 4206" cx="5.779" cy="5.779" r="5.779" transform="translate(168.285 262.483)"/>
          <rect id="Rectángulo_29668" data-name="Rectángulo 29668" width="8.256" height="30.05" rx="3.963" transform="translate(153.505 251.656) rotate(-43.191)" fill="#0e084f"/>
          <path id="Trazado_119206" data-name="Trazado 119206" d="M191.129,254.815c-2.23-7.3-10.081-13.567-19.872-13.567-10.457,0-17.612,10.381-17.612,10.381l-.991,12.945,8.69-1.159a9.743,9.743,0,0,0,5.062-2.267l4.621-3.878a3.474,3.474,0,0,1,2.32-.768h16.669a1.262,1.262,0,0,0,.935-.563A1.36,1.36,0,0,0,191.129,254.815Z" fill="#1a0f91"/>
          <path id="Trazado_119207" data-name="Trazado 119207" d="M170.6,234.771c.165,4.376-13.539,29.4-15.52,30.231s-7.926,9.839-18.658,9.839H97.412a6.582,6.582,0,0,1-5.654-2.944c-3.127-4.888-9.49-13.871-14.285-14.828-5.521-1.1-32.956-4.133-41.816-5.107a3.074,3.074,0,0,1-2.791-3.223c.3-5.327,2.579-16.01,15.877-19.067h61.412c.918,0,1.33.641,1.33,1.559v2.034a4.626,4.626,0,0,1-1.119,3.256c-3.3,3.537-11.485,13.091-7.879,16.386,4.458,4.072,6.976,12.162,16.883,12.162,6.225,0,13.124-1.043,17.744-3.213,2.734-1.281,4.686-2.955,5.238-5.042,1.486-5.614-3.793-39.251-4.288-44.64-.274-2.988,2.192-5.029,4.444-6.254l.005,0a4.7,4.7,0,0,1,5.7.938C154.239,213.366,170.461,231.208,170.6,234.771Z" fill="#1a0f91"/>
          <path id="Trazado_119208" data-name="Trazado 119208" d="M149.023,252.91a132.655,132.655,0,0,1-11.449,10.449l-.439-1.5c2.734-1.281,4.676-2.955,5.227-5.042,1.486-5.614-3.8-39.251-4.293-44.64-.274-2.988,2.189-5.029,4.442-6.254-.146.128-3.563,3.252,0,11.871C146.16,226.6,155.406,246.422,149.023,252.91Z" fill="#0e084f" opacity="0.3"/>
          <path id="Trazado_119209" data-name="Trazado 119209" d="M138.654,262.445a2.547,2.547,0,0,1-2.547,2.547H110.636a2.547,2.547,0,0,1-2.547-2.547h0a2.547,2.547,0,0,1,2.547-2.547h25.471a2.547,2.547,0,0,1,2.547,2.547Z" fill="#0e084f"/>
          <path id="Trazado_119210" data-name="Trazado 119210" d="M90.6,264.758s3.468-26.935-15.618-28.293H47.753s-16.732,6.2-16.071,20.731C68.667,261.379,90.6,264.758,90.6,264.758Z" fill="#2616d4"/>
          <path id="Trazado_119211" data-name="Trazado 119211" d="M32.506,257.472c3.31-10.147,15.247-14.555,15.247-14.555H74.984c12.283,1.359,15.225,12.616,15.761,20.66.39-5.773.51-25.754-15.761-26.773H47.753s-16.732,6.159-16.071,20.689C31.958,257.524,32.231,257.44,32.506,257.472Z" fill="#0e084f" opacity="0.3"/>
          <rect id="Rectángulo_29669" data-name="Rectángulo 29669" width="57.055" height="50.602" rx="6.283" transform="translate(15.374 177.032)" fill="#fe7062"/>
          <path id="Trazado_119212" data-name="Trazado 119212" d="M69.033,228.484a1.188,1.188,0,0,1-1.189,1.188H19.619a1.188,1.188,0,0,1-1.188-1.188h0a1.188,1.188,0,0,1,1.188-1.189H67.844a1.189,1.189,0,0,1,1.189,1.189Z" fill="#0e084f"/>
          <path id="Trazado_119213" data-name="Trazado 119213" d="M72.429,187.221a.679.679,0,0,1-.679.679h-55.7a.679.679,0,0,1-.679-.679h0a.68.68,0,0,1,.679-.68h55.7a.68.68,0,0,1,.679.68Z" fill="#fff"/>
          <path id="Trazado_119214" data-name="Trazado 119214" d="M164.8,233.578a2.207,2.207,0,0,1-2.208,2.207h0a2.207,2.207,0,0,1-2.207-2.207v-4.755a2.207,2.207,0,0,1,2.207-2.207h0a2.207,2.207,0,0,1,2.208,2.207Z" fill="#ffd645"/>
          <path id="Trazado_119215" data-name="Trazado 119215" d="M149.521,183.836v19.613a8.961,8.961,0,0,0,1.382.073h.174c3.581-1.019,4.73-5.11,4.73-9.677C155.807,188.748,154.955,184.549,149.521,183.836Z" fill="#ffd645"/>
          <path id="Trazado_119216" data-name="Trazado 119216" d="M150.2,204.541a1.018,1.018,0,0,1-1.018,1.019h0a1.019,1.019,0,0,1-1.019-1.019v-21.4a1.019,1.019,0,0,1,1.019-1.019h0a1.019,1.019,0,0,1,1.018,1.019Z" fill="#fff"/>
          <g id="Grupo_55966" data-name="Grupo 55966">
            <path id="Trazado_119217" data-name="Trazado 119217" d="M145.106,195.541a2.208,2.208,0,0,1-2.207,2.208h0a2.209,2.209,0,0,1-2.208-2.208v-1.7a2.208,2.208,0,0,1,2.208-2.207h0a2.207,2.207,0,0,1,2.207,2.207Z" fill="#0e084f"/>
            <path id="Trazado_119218" data-name="Trazado 119218" d="M143.574,194.566c.3,1.241-.186,2.422-1.082,2.637l-10.662,2.559c-.9.215-1.864-.617-2.162-1.858h0c-.3-1.242.187-2.422,1.083-2.637l10.662-2.559c.9-.215,1.864.617,2.161,1.858Z" fill="#0e084f"/>
          </g>
          <g id="Grupo_55968" data-name="Grupo 55968">
            <ellipse id="Elipse_4207" data-name="Elipse 4207" cx="2.862" cy="5.531" rx="2.862" ry="5.531" transform="translate(133.116 171.561)" fill="#0e084f"/>
            <g id="Grupo_55967" data-name="Grupo 55967">
              <path id="Trazado_119219" data-name="Trazado 119219" d="M142.9,190.274c-.183,0-.17-.148-.17-.331v-3.984c-.679-.671-5.148-4.57-5.87-5.174-.14-.117-.292-.325-.175-.465a.256.256,0,0,1,.4-.041c.8.669,5.608,5.107,5.809,5.3.067.062.177.149.177.241v4.127C143.069,190.126,143.081,190.274,142.9,190.274Z" fill="#0e084f"/>
            </g>
          </g>
        </g>
        <g id="Grupo_55972" data-name="Grupo 55972">
          <g id="Grupo_55971" data-name="Grupo 55971">
            <path id="Trazado_119220" data-name="Trazado 119220" d="M30.542,212.026c1.363,2.51,5.346,4.4,10.049,4.4h5.443c4.7,0,8.687-1.891,10.05-4.4a.57.57,0,0,0-.156-.671,1.486,1.486,0,0,0-.874-.361H31.572a1.483,1.483,0,0,0-.874.361A.57.57,0,0,0,30.542,212.026Z" fill="#fff"/>
            <path id="Trazado_119221" data-name="Trazado 119221" d="M30.706,200.414a10.54,10.54,0,0,1,10.05-7.08H46.2a10.539,10.539,0,0,1,10.05,7.08.745.745,0,0,1-.156.787.994.994,0,0,1-.874.283H31.737a.993.993,0,0,1-.874-.283A.746.746,0,0,1,30.706,200.414Z" fill="#fff"/>
            <path id="Trazado_119222" data-name="Trazado 119222" d="M56.354,204.371A1.188,1.188,0,0,1,55.1,205.56H32.106a1.188,1.188,0,0,1-1.257-1.189h0a1.188,1.188,0,0,1,1.257-1.189H55.1a1.188,1.188,0,0,1,1.257,1.189Z" fill="#fff"/>
            <g id="Grupo_55970" data-name="Grupo 55970">
              <path id="Trazado_119223" data-name="Trazado 119223" d="M52.232,209.385a3.023,3.023,0,0,1-2.322-1.141,2.145,2.145,0,0,0-3.493,0,2.932,2.932,0,0,1-4.643,0,2.145,2.145,0,0,0-3.493,0,2.933,2.933,0,0,1-4.644,0,2.258,2.258,0,0,0-1.746-.9.426.426,0,0,1,0-.851,3.026,3.026,0,0,1,2.322,1.141,2.145,2.145,0,0,0,3.493,0,2.932,2.932,0,0,1,4.643,0,2.145,2.145,0,0,0,3.493,0,2.932,2.932,0,0,1,4.643,0,2.146,2.146,0,0,0,3.494,0,3.026,3.026,0,0,1,2.322-1.141.426.426,0,0,1,0,.851,2.26,2.26,0,0,0-1.747.9A3.023,3.023,0,0,1,52.232,209.385Z" fill="#fff"/>
            </g>
          </g>
          <path id="Trazado_119224" data-name="Trazado 119224" d="M59.184,220.163a1.019,1.019,0,0,1-1.019,1.019H28.619a1.019,1.019,0,0,1-1.019-1.019h0a1.019,1.019,0,0,1,1.019-1.019H58.165a1.019,1.019,0,0,1,1.019,1.019Z" fill="#fff"/>
        </g>
      </g>
    </g>
  </g>
</svg>
