<svg xmlns="http://www.w3.org/2000/svg" xmlns:xlink="http://www.w3.org/1999/xlink" width="202" height="185" viewBox="0 0 202 185">
  <defs>
    <linearGradient id="linear-gradient" x1="-63.915" y1="2.654" x2="-71.915" y2="3.512" gradientUnits="objectBoundingBox">
      <stop offset="0" stop-color="#09005d"/>
      <stop offset="1" stop-color="#1a0f91"/>
    </linearGradient>
    <linearGradient id="linear-gradient-2" x1="-6.881" y1="10.137" x2="-7.203" y2="13.584" xlink:href="#linear-gradient"/>
    <linearGradient id="linear-gradient-3" x1="74.698" y1="-1.308" x2="71.861" y2="5.08" xlink:href="#linear-gradient"/>
    <linearGradient id="linear-gradient-4" x1="294.732" y1="-1.081" x2="295.739" y2="-1.081" gradientUnits="objectBoundingBox">
      <stop offset="0" stop-color="#febbba"/>
      <stop offset="1" stop-color="#ff928e"/>
    </linearGradient>
    <linearGradient id="linear-gradient-5" x1="94.278" y1="-0.073" x2="91.261" y2="0.782" xlink:href="#linear-gradient"/>
    <linearGradient id="linear-gradient-6" x1="185.543" y1="-3.175" x2="178.523" y2="4.39" xlink:href="#linear-gradient"/>
    <linearGradient id="linear-gradient-7" x1="343.594" y1="-0.682" x2="344.608" y2="-0.682" xlink:href="#linear-gradient-4"/>
    <linearGradient id="linear-gradient-8" x1="63.163" y1="-0.139" x2="61.145" y2="0.704" xlink:href="#linear-gradient"/>
    <linearGradient id="linear-gradient-9" x1="25.141" y1="-19.565" x2="24.1" y2="-18.887" gradientUnits="objectBoundingBox">
      <stop offset="0" stop-color="#ff928e"/>
      <stop offset="1" stop-color="#fe7062"/>
    </linearGradient>
    <linearGradient id="linear-gradient-10" x1="56.86" y1="0.222" x2="57.853" y2="0.222" xlink:href="#linear-gradient-4"/>
    <linearGradient id="linear-gradient-11" x1="-70.452" y1="1.023" x2="-68.471" y2="3.707" xlink:href="#linear-gradient-4"/>
    <linearGradient id="linear-gradient-12" x1="409.415" y1="-0.657" x2="411.416" y2="-2.437" xlink:href="#linear-gradient-4"/>
    <linearGradient id="linear-gradient-13" x1="64.015" y1="-49.842" x2="61.398" y2="-48.116" xlink:href="#linear-gradient-9"/>
    <linearGradient id="linear-gradient-14" x1="45.312" y1="0.037" x2="46.314" y2="0.037" xlink:href="#linear-gradient-4"/>
    <linearGradient id="linear-gradient-15" x1="-0.103" y1="1.691" x2="0.844" y2="-0.028" xlink:href="#linear-gradient-4"/>
    <linearGradient id="linear-gradient-16" x1="33.139" y1="46.635" x2="32.815" y2="45.569" xlink:href="#linear-gradient-4"/>
    <linearGradient id="linear-gradient-17" x1="25.118" y1="34.692" x2="25.322" y2="35.875" xlink:href="#linear-gradient"/>
    <linearGradient id="linear-gradient-18" x1="106.616" y1="221.975" x2="105.67" y2="217.362" xlink:href="#linear-gradient-4"/>
    <linearGradient id="linear-gradient-19" x1="41.57" y1="-0.062" x2="42.084" y2="2.428" xlink:href="#linear-gradient"/>
    <linearGradient id="linear-gradient-20" x1="141.633" y1="0.5" x2="142.633" y2="0.5" xlink:href="#linear-gradient-4"/>
    <linearGradient id="linear-gradient-21" x1="9.972" y1="-0.407" x2="8.878" y2="0.795" xlink:href="#linear-gradient-4"/>
    <linearGradient id="linear-gradient-22" x1="-24.57" y1="1.893" x2="-25.182" y2="2.513" xlink:href="#linear-gradient"/>
    <linearGradient id="linear-gradient-23" x1="1.812" y1="-0.58" x2="0.988" y2="0.138" xlink:href="#linear-gradient-9"/>
    <linearGradient id="linear-gradient-24" x1="-115.067" y1="7.711" x2="-114.842" y2="6.801" xlink:href="#linear-gradient-4"/>
    <linearGradient id="linear-gradient-25" x1="-66.571" y1="5.644" x2="-65.362" y2="6.807" xlink:href="#linear-gradient-4"/>
    <linearGradient id="linear-gradient-26" x1="-76.739" y1="5.01" x2="-78.62" y2="6.915" xlink:href="#linear-gradient"/>
    <linearGradient id="linear-gradient-27" x1="-187.299" y1="18.446" x2="-183.923" y2="22.765" xlink:href="#linear-gradient-4"/>
    <linearGradient id="linear-gradient-28" x1="7.286" y1="1.272" x2="8.687" y2="0.135" xlink:href="#linear-gradient-4"/>
    <linearGradient id="linear-gradient-29" x1="16.645" y1="0.43" x2="17.64" y2="0.43" xlink:href="#linear-gradient"/>
    <linearGradient id="linear-gradient-30" x1="15.83" y1="0.377" x2="11.933" y2="0.708" xlink:href="#linear-gradient-4"/>
    <linearGradient id="linear-gradient-31" x1="15.631" y1="0.421" x2="16.624" y2="0.421" xlink:href="#linear-gradient"/>
    <linearGradient id="linear-gradient-32" x1="1.968" y1="-0.231" x2="0.935" y2="0.314" xlink:href="#linear-gradient"/>
    <linearGradient id="linear-gradient-33" x1="8.911" y1="0.789" x2="11.881" y2="-1.387" xlink:href="#linear-gradient-4"/>
    <linearGradient id="linear-gradient-34" x1="-9.604" y1="-1.469" x2="-10.014" y2="-0.35" xlink:href="#linear-gradient"/>
    <linearGradient id="linear-gradient-35" x1="-30.264" y1="-0.93" x2="-29.136" y2="-0.93" xlink:href="#linear-gradient-4"/>
    <linearGradient id="linear-gradient-36" x1="-4.436" y1="0.383" x2="-3.744" y2="-0.528" xlink:href="#linear-gradient"/>
    <linearGradient id="linear-gradient-37" x1="-8.486" y1="-1.105" x2="-9.728" y2="2.367" xlink:href="#linear-gradient"/>
    <linearGradient id="linear-gradient-38" x1="-8.81" y1="-1.332" x2="-7.877" y2="-1.332" gradientUnits="objectBoundingBox">
      <stop offset="0" stop-color="#4f52ff"/>
      <stop offset="1" stop-color="#4042e2"/>
    </linearGradient>
    <linearGradient id="linear-gradient-39" x1="-26.908" y1="-1.077" x2="-26.006" y2="-1.077" xlink:href="#linear-gradient-4"/>
    <linearGradient id="linear-gradient-40" x1="-3.986" y1="0.705" x2="-3.955" y2="-0.272" xlink:href="#linear-gradient"/>
    <linearGradient id="linear-gradient-41" x1="1.74" y1="-0.37" x2="-0.624" y2="1.26" xlink:href="#linear-gradient-9"/>
    <linearGradient id="linear-gradient-42" x1="-6.41" y1="0.002" x2="-5.417" y2="0.002" xlink:href="#linear-gradient-4"/>
    <linearGradient id="linear-gradient-43" x1="-0.88" y1="1.258" x2="0.452" y2="0.577" xlink:href="#linear-gradient-9"/>
    <linearGradient id="linear-gradient-44" x1="-15.914" y1="-0.516" x2="-14.795" y2="-0.516" xlink:href="#linear-gradient-4"/>
    <linearGradient id="linear-gradient-45" x1="-2.67" y1="1.827" x2="-0.422" y2="0.89" xlink:href="#linear-gradient-9"/>
    <linearGradient id="linear-gradient-46" x1="-4.698" y1="0.781" x2="-5.941" y2="7.598" xlink:href="#linear-gradient-4"/>
    <linearGradient id="linear-gradient-47" x1="-9.537" y1="-10.969" x2="-10.634" y2="-9.655" xlink:href="#linear-gradient-4"/>
    <linearGradient id="linear-gradient-48" x1="-11.662" y1="-10.689" x2="-10.387" y2="-10.689" xlink:href="#linear-gradient"/>
    <linearGradient id="linear-gradient-49" x1="-36.21" y1="-39.653" x2="-33.79" y2="-42.329" xlink:href="#linear-gradient-4"/>
    <linearGradient id="linear-gradient-50" x1="31.102" y1="22.046" x2="30.362" y2="24.483" xlink:href="#linear-gradient"/>
    <linearGradient id="linear-gradient-51" x1="23.832" y1="0.134" x2="23.432" y2="0.8" xlink:href="#linear-gradient"/>
  </defs>
  <g id="Grupo_57004" data-name="Grupo 57004" transform="translate(-279 -6272)">
    <rect id="Rectángulo_29554" data-name="Rectángulo 29554" width="202" height="185" transform="translate(279 6272)" fill="none"/>
    <g id="Grupo_57003" data-name="Grupo 57003" transform="translate(144.587 5966.378)">
      <path id="Trazado_120476" data-name="Trazado 120476" d="M602.364,600.27a60.829,60.829,0,0,1-9.307,7.836c-30.362,21.785-66.288,15.435-73.924,13.884-11.275-2.29-33.069-6.717-48.826-25.246-23.839-28.034-20.127-72.2-1.636-101.356,3.382-5.333,21.249-34.932,57.562-39.679,21.976-2.873,47.594,2.921,66.145,18.464C631.319,506.8,628.547,572.706,602.364,600.27Z" transform="translate(-293.26 -140.319)" fill="#91b3fa" opacity="0.111"/>
      <g id="Grupo_56974" data-name="Grupo 56974" transform="translate(141.413 305.622)">
        <g id="Grupo_56972" data-name="Grupo 56972" transform="translate(0 0)">
          <path id="Trazado_120831" data-name="Trazado 120831" d="M65.148,0A65.148,65.148,0,1,1,0,65.148,65.148,65.148,0,0,1,65.148,0Z" transform="translate(0 92.134) rotate(-45)" fill="#fff"/>
          <g id="Grupo_56969" data-name="Grupo 56969" transform="translate(33.747 33.747)">
            <circle id="Elipse_4312" data-name="Elipse 4312" cx="55.602" cy="55.602" r="55.602" transform="translate(2.785 2.785)" fill="#57dbd8"/>
            <path id="Trazado_120477" data-name="Trazado 120477" d="M756.286,978.878a58.387,58.387,0,1,1,58.386-58.387A58.453,58.453,0,0,1,756.286,978.878Zm0-113.988a55.6,55.6,0,1,0,55.6,55.6A55.664,55.664,0,0,0,756.286,864.89Z" transform="translate(-697.9 -862.105)" fill="#57dbd8"/>
          </g>
          <g id="Grupo_56970" data-name="Grupo 56970" transform="translate(44.196 44.196)">
            <circle id="Elipse_4313" data-name="Elipse 4313" cx="33.897" cy="33.897" r="33.897" transform="translate(0 47.938) rotate(-45)" fill="#57dbd8"/>
            <path id="Trazado_120478" data-name="Trazado 120478" d="M1092.481,1293.376a36.682,36.682,0,1,1,36.682-36.682A36.724,36.724,0,0,1,1092.481,1293.376Zm0-67.795a31.113,31.113,0,1,0,31.113,31.112A31.148,31.148,0,0,0,1092.481,1225.582Z" transform="translate(-1044.543 -1208.756)" fill="#fff"/>
          </g>
          <g id="Grupo_56971" data-name="Grupo 56971" transform="translate(73.561 73.561)">
            <circle id="Elipse_4314" data-name="Elipse 4314" cx="13.133" cy="13.133" r="13.133" transform="translate(0 18.573) rotate(-45)" fill="#fe7062"/>
            <path id="Trazado_120479" data-name="Trazado 120479" d="M1414.122,1594.246a15.918,15.918,0,1,1,15.918-15.918A15.936,15.936,0,0,1,1414.122,1594.246Zm0-26.266a10.348,10.348,0,1,0,10.348,10.348A10.36,10.36,0,0,0,1414.122,1567.98Z" transform="translate(-1395.549 -1559.755)" fill="#fff"/>
          </g>
        </g>
        <g id="Grupo_56973" data-name="Grupo 56973" transform="translate(91.863 23.122)">
          <rect id="Rectángulo_30056" data-name="Rectángulo 30056" width="1.956" height="74.077" transform="matrix(-0.707, -0.707, 0.707, -0.707, 11.437, 60.781)" fill="url(#linear-gradient)"/>
          <path id="Trazado_120480" data-name="Trazado 120480" d="M1667.26,1609.611c.793-.794,4.535,2.948,3.741,3.741l-13.876,10.908a.551.551,0,0,1-.774-.774Z" transform="translate(-1656.228 -1553.551)" fill="url(#linear-gradient-2)"/>
          <path id="Trazado_120481" data-name="Trazado 120481" d="M2480.65,825.905l7.047.7-9.674,9.674a14.956,14.956,0,0,1-12.054,4.307h0Z" transform="translate(-2416.864 -817.475)" fill="#91b3fa"/>
          <path id="Trazado_120482" data-name="Trazado 120482" d="M2456.7,693.942l-.7-7.047-9.674,9.674a14.955,14.955,0,0,0-4.307,12.054h0Z" transform="translate(-2394.3 -686.895)" fill="#91b3fa"/>
        </g>
      </g>
      <g id="Grupo_56985" data-name="Grupo 56985" transform="translate(164.632 314.82)">
        <g id="Grupo_56979" data-name="Grupo 56979" transform="translate(0 4.594)">
          <g id="Grupo_56975" data-name="Grupo 56975" opacity="0.3">
            <path id="Trazado_120483" data-name="Trazado 120483" d="M567.6,539.678a.5.5,0,0,1-.713,0c-.382-.383-.787-.754-1.2-1.1a.5.5,0,0,1-.067-.7l.006-.008a.5.5,0,0,1,.71-.06c.438.369.864.76,1.266,1.163a.5.5,0,0,1,.035.673A.481.481,0,0,1,567.6,539.678Zm-4.056-2.672c-.459-.29-.936-.564-1.416-.813a.5.5,0,1,1,.464-.895c.505.262,1.007.55,1.49.855a.5.5,0,0,1,.157.7.5.5,0,0,1-.035.049A.5.5,0,0,1,563.542,537.006Zm-3.849-1.867c-.511-.18-1.036-.341-1.561-.476a.5.5,0,1,1,.253-.976c.553.143,1.106.312,1.644.5a.5.5,0,1,1-.335.951Zm-4.169-.96c-.539-.062-1.087-.1-1.629-.116a.5.5,0,1,1,.028-1.008c.571.016,1.148.057,1.715.122a.5.5,0,0,1-.114,1Zm-4.279-.007c-.538.06-1.081.143-1.614.248a.5.5,0,1,1-.2-.989c.561-.111,1.132-.2,1.7-.261a.5.5,0,1,1,.111,1Zm-4.174.94c-.512.177-1.023.379-1.519.6a.5.5,0,0,1-.409-.921c.522-.232,1.06-.444,1.6-.63a.5.5,0,0,1,.33.953Zm-12.858,13.6a.5.5,0,0,1-.361-.615c.144-.552.314-1.105.5-1.644a.5.5,0,0,1,.95.337c-.182.512-.343,1.037-.479,1.561a.5.5,0,0,1-.615.361Zm9-11.763c-.46.287-.913.6-1.346.922a.5.5,0,1,1-.6-.807c.456-.342.933-.669,1.418-.971a.5.5,0,1,1,.533.855Zm-7.525,7.624a.5.5,0,0,1-.214-.68c.264-.506.553-1.007.859-1.489a.5.5,0,0,1,.851.54c-.291.458-.566.935-.816,1.415a.51.51,0,0,1-.056.085A.5.5,0,0,1,535.686,544.578Zm4.174-4.967c-.384.382-.756.786-1.107,1.2a.5.5,0,0,1-.776-.643l.007-.008c.369-.436.761-.861,1.165-1.263a.5.5,0,0,1,.748.674Q539.88,539.592,539.86,539.611Z" transform="translate(-533.257 -533.056)" fill="#91b3fa"/>
            <path id="Trazado_120484" data-name="Trazado 120484" d="M525.194,820.932a.5.5,0,0,0,.111-.28c.019-.259.044-.522.074-.782a.5.5,0,1,0-1-.115c-.031.273-.057.55-.078.823a.5.5,0,0,0,.895.354Z" transform="translate(-524.298 -801.949)" fill="#91b3fa"/>
          </g>
          <g id="Grupo_56976" data-name="Grupo 56976" transform="translate(4.418 20.177)" opacity="0.3">
            <path id="Trazado_120485" data-name="Trazado 120485" d="M598.58,1063.845a.5.5,0,0,0-.016-.653c-.173-.193-.346-.394-.512-.6a.5.5,0,1,0-.778.641c.175.212.357.423.539.627a.5.5,0,0,0,.712.039A.52.52,0,0,0,598.58,1063.845Z" transform="translate(-597.158 -1050.487)" fill="#91b3fa"/>
            <path id="Trazado_120486" data-name="Trazado 120486" d="M665.654,932.934a.5.5,0,1,1-.751-.673c.354-.395.7-.811,1.021-1.241a.5.5,0,0,1,.8.608q-.212.28-.431.55C666.089,932.436,665.873,932.69,665.654,932.934Zm1.893-3.411a.5.5,0,0,1-.192-.686c.262-.466.507-.948.728-1.433a.5.5,0,1,1,.917.418c-.233.51-.491,1.018-.766,1.508a.5.5,0,0,1-.686.193Zm-3.861,5.327c-.428.363-.877.712-1.335,1.038a.5.5,0,0,1-.585-.821c.435-.31.862-.641,1.268-.986a.5.5,0,0,1,.718.7A.515.515,0,0,1,663.686,934.851Zm5.653-9.262a.5.5,0,0,1-.339-.627c.153-.511.286-1.035.395-1.557a.5.5,0,0,1,.987.206c-.115.55-.255,1.1-.416,1.64a.5.5,0,0,1-.627.339Zm-9.328,11.735c-.5.26-1.012.5-1.53.719a.5.5,0,1,1-.39-.93c.493-.207.982-.437,1.453-.683a.5.5,0,1,1,.467.894Zm-4.128,1.607c-.543.145-1.1.269-1.65.368a.5.5,0,0,1-.178-.992c.525-.094,1.052-.212,1.568-.35a.5.5,0,1,1,.26.974Zm-4.381.67c-.562.023-1.131.023-1.691,0a.5.5,0,0,1,.042-1.007c.533.022,1.073.022,1.607,0a.5.5,0,0,1,.042,1.007Zm-4.422-.3c-.553-.1-1.109-.225-1.651-.371a.5.5,0,1,1,.262-.973c.515.139,1.042.257,1.568.352a.5.5,0,1,1-.179.992Zm-4.25-1.267c-.516-.219-1.03-.463-1.527-.725a.5.5,0,0,1,.47-.892c.472.249.96.481,1.451.689a.5.5,0,1,1-.394.928Zm-3.864-2.167c-.336-.24-.669-.494-.99-.754q-.174-.141-.344-.285a.5.5,0,0,1-.059-.71.5.5,0,0,1,.71-.059q.162.137.327.271c.3.247.621.488.941.716a.5.5,0,0,1,.117.7l-.019.025A.5.5,0,0,1,638.965,935.864Z" transform="translate(-635.007 -919.532)" fill="#91b3fa"/>
            <path id="Trazado_120487" data-name="Trazado 120487" d="M1171,867.391a.5.5,0,0,0,.111-.283c.019-.272.032-.55.04-.826a.5.5,0,0,0-1.008-.028c-.007.262-.02.526-.038.784a.5.5,0,0,0,.895.352Z" transform="translate(-1135.356 -865.765)" fill="#91b3fa"/>
          </g>
          <g id="Grupo_56978" data-name="Grupo 56978" transform="translate(4.813 4.9)">
            <path id="Trazado_120488" data-name="Trazado 120488" d="M633.242,624.233a.236.236,0,0,0-.2-.186l-2.844-.363a12.492,12.492,0,0,0-2.276-3.346l.7-2.778a.236.236,0,0,0-.1-.255l-2.876-1.886a.236.236,0,0,0-.273.011l-2.267,1.753a12.491,12.491,0,0,0-3.976-.754l-1.467-2.464a.236.236,0,0,0-.25-.11l-3.367.7a.236.236,0,0,0-.186.2L613.5,617.6a12.489,12.489,0,0,0-3.346,2.276l-2.778-.7a.235.235,0,0,0-.255.1l-1.886,2.876a.236.236,0,0,0,.011.273L607,624.69a12.485,12.485,0,0,0-.753,3.976l-2.464,1.467a.235.235,0,0,0-.11.25l.7,3.367a.236.236,0,0,0,.2.186l2.844.363a12.489,12.489,0,0,0,2.276,3.346l-.7,2.778a.236.236,0,0,0,.1.255l2.876,1.886a.236.236,0,0,0,.273-.011L614.5,640.8a12.491,12.491,0,0,0,3.976.754l1.467,2.464a.236.236,0,0,0,.25.11l3.367-.7a.236.236,0,0,0,.186-.2l.363-2.844a12.494,12.494,0,0,0,3.346-2.276l2.778.7a.236.236,0,0,0,.255-.1l1.886-2.876a.236.236,0,0,0-.011-.273l-1.753-2.267a12.494,12.494,0,0,0,.754-3.976l2.464-1.467a.236.236,0,0,0,.11-.25Z" transform="translate(-603.666 -613.852)" fill="#fe7062"/>
            <g id="Grupo_56977" data-name="Grupo 56977" transform="translate(11.683 11.685)">
              <path id="Trazado_120489" data-name="Trazado 120489" d="M802.117,812.536a3.455,3.455,0,1,1,.348-.37A3.461,3.461,0,0,1,802.117,812.536Zm-4.988-2.657a2.651,2.651,0,1,0,.855-1.84,2.686,2.686,0,0,0-.269.286A2.631,2.631,0,0,0,797.129,809.878Z" transform="translate(-796.32 -806.535)" fill="#bdd0fb"/>
            </g>
            <path id="Trazado_120490" data-name="Trazado 120490" d="M727.007,737.393a8.634,8.634,0,0,0,.515-.705h0q.076-.116.148-.234a8.563,8.563,0,0,0,.615-1.215l.007-.017.02-.049.037-.1a.2.2,0,0,0-.061-.229.2.2,0,0,0-.055-.032.2.2,0,0,0-.26.116,8.107,8.107,0,0,1-7.677,5.188,8.049,8.049,0,0,1-4.323-1.323,8.178,8.178,0,0,1-.673-.491,8.1,8.1,0,0,1,9.553-13.053,8.1,8.1,0,0,1,2.848,3.24.2.2,0,0,0,.363-.176,8.5,8.5,0,1,0-13.019,10.3,8.691,8.691,0,0,0,.707.516,8.5,8.5,0,0,0,11.255-1.743Z" transform="translate(-705.344 -716.877)" fill="#bdd0fb"/>
          </g>
        </g>
        <g id="Grupo_56984" data-name="Grupo 56984" transform="translate(32.666 0)">
          <g id="Grupo_56980" data-name="Grupo 56980" opacity="0.3">
            <path id="Trazado_120491" data-name="Trazado 120491" d="M1424.263,541.652a.311.311,0,0,0,.014-.373c-.15-.218-.309-.434-.472-.642a.311.311,0,0,0-.49.384c.155.2.307.4.45.612a.312.312,0,0,0,.433.079A.317.317,0,0,0,1424.263,541.652Z" transform="translate(-1401.4 -535.471)" fill="#91b3fa"/>
            <path id="Trazado_120492" data-name="Trazado 120492" d="M1084.268,461.671a.311.311,0,0,1-.44,0,12.887,12.887,0,0,0-.972-.873q-.107-.087-.216-.171a.311.311,0,0,1-.055-.437.322.322,0,0,1,.437-.055q.114.089.226.179a13.514,13.514,0,0,1,1.019.916.311.311,0,0,1,.022.416Zm-2.933-1.935a12.912,12.912,0,0,0-1.4-.726.311.311,0,1,1,.251-.57,13.506,13.506,0,0,1,1.472.761.312.312,0,0,1,.108.427.3.3,0,0,1-.026.037A.311.311,0,0,1,1081.335,459.736Zm-2.888-1.272a12.777,12.777,0,0,0-1.54-.358.311.311,0,0,1,.1-.614,13.428,13.428,0,0,1,1.615.376.311.311,0,0,1,.209.388.311.311,0,0,1-.388.209Zm-3.112-.524a12.841,12.841,0,0,0-1.58.029.311.311,0,0,1-.05-.621,13.514,13.514,0,0,1,1.657-.031.311.311,0,0,1-.027.622Zm-3.146.252a12.982,12.982,0,0,0-1.526.412.311.311,0,1,1-.2-.59,13.614,13.614,0,0,1,1.6-.432.311.311,0,0,1,.125.61Zm-2.99,1.008a12.775,12.775,0,0,0-1.378.771.311.311,0,0,1-.337-.524,13.39,13.39,0,0,1,1.445-.809.311.311,0,1,1,.27.561Zm-2.651,1.708a12.81,12.81,0,0,0-1.148,1.087.311.311,0,0,1-.455-.425,13.511,13.511,0,0,1,1.2-1.14.311.311,0,0,1,.442.435A.32.32,0,0,1,1066.547,460.907Zm-3.425,3.763a.311.311,0,0,1-.122-.423,13.544,13.544,0,0,1,.764-1.221c.042-.06.084-.119.127-.178a.311.311,0,0,1,.5.367c-.04.055-.08.111-.12.168a12.939,12.939,0,0,0-.73,1.165.3.3,0,0,1-.031.046A.311.311,0,0,1,1063.122,464.67Z" transform="translate(-1062.962 -457.305)" fill="#91b3fa"/>
          </g>
          <g id="Grupo_56981" data-name="Grupo 56981" transform="translate(8.679 13.506)" opacity="0.3">
            <path id="Trazado_120493" data-name="Trazado 120493" d="M1219.526,725.234a13.56,13.56,0,0,1-1.117,1.187.311.311,0,0,1-.427-.453,12.882,12.882,0,0,0,1.065-1.132.311.311,0,0,1,.481.4Zm.536-1.222a.311.311,0,0,1-.092-.43,13.009,13.009,0,0,0,.765-1.355.311.311,0,0,1,.56.273,13.613,13.613,0,0,1-.8,1.419.321.321,0,0,1-.02.027A.311.311,0,0,1,1220.061,724.013Zm-2.906,3.452a13.5,13.5,0,0,1-1.371.883.311.311,0,0,1-.3-.543,12.917,12.917,0,0,0,1.308-.842.311.311,0,1,1,.368.5Zm4.367-6.278a.311.311,0,0,1-.193-.4,12.787,12.787,0,0,0,.416-1.5.311.311,0,1,1,.609.129,13.349,13.349,0,0,1-.436,1.572.312.312,0,0,1-.4.193Zm-7.2,7.87a13.525,13.525,0,0,1-1.543.527.311.311,0,0,1-.165-.6,12.8,12.8,0,0,0,1.471-.5.311.311,0,0,1,.237.576Zm-3.137.864a13.611,13.611,0,0,1-1.624.143.311.311,0,0,1-.017-.622,13,13,0,0,0,1.549-.136.311.311,0,0,1,.092.616Zm-3.254.088a13.462,13.462,0,0,1-1.612-.251.311.311,0,0,1,.133-.608,12.716,12.716,0,0,0,1.537.24.311.311,0,0,1,.281.339.308.308,0,0,1-.068.167A.312.312,0,0,1,1207.926,730.009Z" transform="translate(-1206.07 -716.679)" fill="#91b3fa"/>
            <path id="Trazado_120494" data-name="Trazado 120494" d="M1468.9,681.307a.309.309,0,0,0,.068-.169c.023-.266.038-.533.046-.795a.311.311,0,1,0-.623-.017c-.007.25-.021.5-.043.758a.311.311,0,0,0,.552.223Z" transform="translate(-1452.441 -680.023)" fill="#91b3fa"/>
          </g>
          <g id="Grupo_56983" data-name="Grupo 56983" transform="translate(1.59 3.258)">
            <path id="Trazado_120495" data-name="Trazado 120495" d="M1108.979,517.973a.158.158,0,0,0-.134-.124l-1.9-.243a8.359,8.359,0,0,0-1.523-2.239l.471-1.859a.158.158,0,0,0-.066-.171l-1.925-1.262a.157.157,0,0,0-.183.007l-1.517,1.173a8.357,8.357,0,0,0-2.661-.5l-.982-1.649a.158.158,0,0,0-.168-.074l-2.253.469a.158.158,0,0,0-.124.134l-.243,1.9a8.361,8.361,0,0,0-2.239,1.523l-1.859-.471a.158.158,0,0,0-.171.066l-1.262,1.925a.158.158,0,0,0,.007.183l1.173,1.517a8.35,8.35,0,0,0-.5,2.661l-1.649.982a.158.158,0,0,0-.074.168l.469,2.253a.158.158,0,0,0,.134.124l1.9.243a8.354,8.354,0,0,0,1.523,2.239l-.471,1.859a.158.158,0,0,0,.066.171l1.925,1.262a.158.158,0,0,0,.183-.007l1.517-1.173a8.358,8.358,0,0,0,2.661.5l.982,1.649a.158.158,0,0,0,.168.074l2.253-.469a.158.158,0,0,0,.124-.134l.243-1.9a8.357,8.357,0,0,0,2.239-1.523l1.859.471a.158.158,0,0,0,.171-.066l1.262-1.925a.158.158,0,0,0-.007-.183l-1.173-1.517a8.357,8.357,0,0,0,.5-2.661l1.649-.982a.158.158,0,0,0,.074-.167Z" transform="translate(-1089.188 -511.026)" fill="#fe7062"/>
            <g id="Grupo_56982" data-name="Grupo 56982" transform="translate(7.778 7.778)">
              <path id="Trazado_120496" data-name="Trazado 120496" d="M1221.388,643.364a2.348,2.348,0,1,1,.239-.254A2.4,2.4,0,0,1,1221.388,643.364Zm-2.869-.562a1.732,1.732,0,0,0,2.448.1h0a1.732,1.732,0,0,0-2.344-2.551,1.769,1.769,0,0,0-.174.185A1.735,1.735,0,0,0,1218.519,642.8Z" transform="translate(-1217.441 -639.276)" fill="#bdd0fb"/>
            </g>
            <path id="Trazado_120497" data-name="Trazado 120497" d="M1169.13,591.01q.186-.23.352-.482a5.911,5.911,0,0,0,.551-1.06l.019-.05a.311.311,0,1,0-.581-.224,5.259,5.259,0,0,1-.51.993h0l-.034.051a5.189,5.189,0,0,1-1.909,1.717,5.274,5.274,0,0,1-1.327.481l-.011,0-.035.007a5.208,5.208,0,0,1-3.942-.748,5.31,5.31,0,0,1-.436-.318,5.243,5.243,0,0,1,6.185-8.45,5.24,5.24,0,0,1,1.844,2.1.311.311,0,1,0,.56-.271,5.865,5.865,0,1,0-8.982,7.107,5.982,5.982,0,0,0,.487.356A5.874,5.874,0,0,0,1169.13,591.01Z" transform="translate(-1154.493 -577.175)" fill="#bdd0fb"/>
          </g>
        </g>
      </g>
      <g id="Grupo_56991" data-name="Grupo 56991" transform="translate(162.291 389.008)">
        <path id="Trazado_120498" data-name="Trazado 120498" d="M805.248,3164.231s-.351,1.88-.531,3.742a1.284,1.284,0,0,0,1.215,1.4c2.481.127,7.789.379,9.7.312a.418.418,0,0,0,.373-.569.936.936,0,0,0-.474-.509l-8.732-4.115Z" transform="translate(-785.365 -3074.262)" fill="url(#linear-gradient-3)"/>
        <path id="Trazado_120499" data-name="Trazado 120499" d="M809.255,3140.883l.246,2.255a2.8,2.8,0,0,0,2.586-.066l-.612-2.516Z" transform="translate(-789.633 -3052.023)" fill="url(#linear-gradient-4)"/>
        <path id="Trazado_120500" data-name="Trazado 120500" d="M710.862,2446.764c-.121.587-.9,29.346,2.052,42.265a.438.438,0,0,1-.261.507,7.623,7.623,0,0,1-2.509.485.754.754,0,0,1-.742-.548c-.85-3-4.919-18.023-5.332-32.342-.461-16,.005-.545.005-.545l.454-9.883Z" transform="translate(-690.635 -2400.246)" fill="url(#linear-gradient-5)"/>
        <path id="Trazado_120501" data-name="Trazado 120501" d="M630.124,3178.843a13.556,13.556,0,0,0-1.075,3.467.783.783,0,0,0,.68.945c.819.088,2.08.2,3.091.207a.781.781,0,0,0,.782-.864,6.589,6.589,0,0,0-1.5-3.628Z" transform="translate(-620.339 -3087.988)" fill="url(#linear-gradient-6)"/>
        <path id="Trazado_120502" data-name="Trazado 120502" d="M639.839,3129.269l.592,3.412a2.2,2.2,0,0,0,1.838.144l-.263-3.667Z" transform="translate(-630.491 -3041.315)" fill="url(#linear-gradient-7)"/>
        <path id="Trazado_120503" data-name="Trazado 120503" d="M601.291,2437.536c-2.659,15.152.188,37.513,1.178,41.895a.682.682,0,0,0,.545.523,4.579,4.579,0,0,0,1.968-.06.625.625,0,0,0,.455-.571c.172-3.532.13-25.229,2.555-33.781a1.947,1.947,0,0,1,.761-1.067l4.579-3.19.4-5.223Z" transform="translate(-593.243 -2390.252)" fill="url(#linear-gradient-8)"/>
        <g id="Grupo_56986" data-name="Grupo 56986" transform="translate(7.219 7.212)">
          <path id="Trazado_120504" data-name="Trazado 120504" d="M621.858,1970.76a70.843,70.843,0,0,0-15.87,1.828c-2.371,13.085-.662,28.221-.662,28.221,5.819,1.586,12.424-.817,12.424-.817,1.022-5.469,5.693-20.844,5.693-20.844a24.827,24.827,0,0,0,9.241-2.836,16.158,16.158,0,0,1-3.13-6.71A25.287,25.287,0,0,1,621.858,1970.76Z" transform="translate(-604.731 -1959.29)" fill="url(#linear-gradient-9)"/>
          <path id="Trazado_120505" data-name="Trazado 120505" d="M1028.747,1800.155a1.442,1.442,0,0,0-1.673-.487c-1.154,4.674-7,8.416-13,10.216a16.159,16.159,0,0,0,3.13,6.71C1027.175,1811.115,1028.747,1800.155,1028.747,1800.155Z" transform="translate(-989.254 -1799.573)" fill="url(#linear-gradient-10)"/>
        </g>
        <g id="Grupo_56987" data-name="Grupo 56987" transform="translate(45.056 0)">
          <path id="Trazado_120506" data-name="Trazado 120506" d="M1230.14,1688.675c.075.247-.825.613-1.344-.4-.014-.483-.288-2.554,0-2.944a38.511,38.511,0,0,1,4.559-4.677.709.709,0,0,1,.079.985l-1.459,1.491a6.99,6.99,0,0,1,.828,1.676,2.025,2.025,0,0,1-.216,1.488c-.258.454-.61,1.045-.941,1.507A2,2,0,0,1,1230.14,1688.675Z" transform="translate(-1228.666 -1680.656)" fill="url(#linear-gradient-11)"/>
          <path id="Trazado_120507" data-name="Trazado 120507" d="M1245.609,1737.5l-1.327,1.1-.424,1.107,1.161,1.313a15.151,15.151,0,0,1,.714-2.676C1246.031,1737.875,1245.881,1737.643,1245.609,1737.5Z" transform="translate(-1242.937 -1734.054)" fill="url(#linear-gradient-12)"/>
        </g>
        <path id="Trazado_120508" data-name="Trazado 120508" d="M499.729,2026.165l-2.821-7.324s-7.085,4.715-8.3,10.768a16.661,16.661,0,0,1,6.1,1.7C495.259,2028.449,499.729,2026.165,499.729,2026.165Z" transform="translate(-488.431 -1998.332)" fill="url(#linear-gradient-13)"/>
        <path id="Trazado_120509" data-name="Trazado 120509" d="M503.078,2199.889s-7.945,4.391-10.576.552a3,3,0,0,1-.527-2.334,16.663,16.663,0,0,0-6.1-1.7,8.369,8.369,0,0,0,.855,5.746c4.589,8.589,17.379-.306,17.379-.306Z" transform="translate(-485.695 -2165.131)" fill="url(#linear-gradient-14)"/>
        <path id="Trazado_120510" data-name="Trazado 120510" d="M723.859,1886.621l-2.464,6.912a.25.25,0,0,0,.111.3,5.637,5.637,0,0,0,5.85-.337,1.176,1.176,0,0,0,.55-.835l.834-5.994Z" transform="translate(-707.088 -1874.13)" fill="url(#linear-gradient-15)"/>
        <g id="Grupo_56988" data-name="Grupo 56988" transform="translate(12.245 2.513)">
          <path id="Trazado_120511" data-name="Trazado 120511" d="M753.824,1781.556s2.586,4.982,2.229,6.98-3.618,1.824-6.453.171l-1.94-5.371Z" transform="translate(-744.02 -1777.95)" fill="url(#linear-gradient-16)"/>
          <path id="Trazado_120512" data-name="Trazado 120512" d="M693.347,1730.228a.2.2,0,0,0,.092-.3,5.332,5.332,0,0,1-.718-1.562s-.47-.308,1.211-.693,4.19-.985,4.73-2.408c.526-1.388-.788-4.9-2.964-2.133a.2.2,0,0,1-.324,0,2.106,2.106,0,0,0-2.557-.858,1.932,1.932,0,0,0-1.341,1.854.2.2,0,0,1-.243.206,2.356,2.356,0,0,0-2.763,1.256,1.9,1.9,0,0,0,.114,2.276.2.2,0,0,1-.09.337,1.226,1.226,0,0,0-.878,1.39c.059,1.3,1.509,1.2,1.922,1.141a.2.2,0,0,1,.181.066,6.962,6.962,0,0,0,3.65,2.288.206.206,0,0,0,.219-.27l-.725-2.176a.2.2,0,0,1,.113-.253Z" transform="translate(-687.614 -1722.098)" fill="url(#linear-gradient-17)"/>
          <path id="Trazado_120513" data-name="Trazado 120513" d="M755.78,1851.19s-1.862-1.3-2.01-.222,1.673,1.585,2.581,1.19Z" transform="translate(-749.751 -1842.75)" fill="url(#linear-gradient-18)"/>
        </g>
        <g id="Grupo_56990" data-name="Grupo 56990" transform="translate(15.742 25.326)">
          <g id="Grupo_56989" data-name="Grupo 56989">
            <path id="Trazado_120514" data-name="Trazado 120514" d="M745.3,2114.653l4.328-15.115a.441.441,0,0,1,.373-.317c.784-.092,3.057-.348,5.68-.57a64.444,64.444,0,0,1,9.023-.3.442.442,0,0,1,.362.636c-1.247,2.523-6.377,12.786-8.946,16.148a.444.444,0,0,1-.357.175l-10.042-.094A.442.442,0,0,1,745.3,2114.653Z" transform="translate(-745.279 -2098.282)" fill="url(#linear-gradient-19)"/>
            <path id="Trazado_120515" data-name="Trazado 120515" d="M756.341,2228.193a11,11,0,0,1-.36-3.359c.243-.88.714-2.01,2.285-1.759a22.966,22.966,0,0,1,3.423.913.9.9,0,0,1-1.287.776l.74.573s-.106.917-1.114.427l.689.759a.8.8,0,0,1-1.175.271C758.8,2226.311,758.445,2228.492,756.341,2228.193Z" transform="translate(-755.278 -2215.474)" fill="url(#linear-gradient-20)"/>
          </g>
          <path id="Trazado_120516" data-name="Trazado 120516" d="M911.991,2159.08a1.271,1.271,0,1,0,1.271-1.271A1.271,1.271,0,0,0,911.991,2159.08Z" transform="translate(-901.881 -2154.199)" fill="#91b3fa"/>
          <path id="Trazado_120517" data-name="Trazado 120517" d="M819.993,2119.053l.881-2.99a1.025,1.025,0,0,1,.77-.719,88.531,88.531,0,0,1,10.4-.7l-.005-.338a86.691,86.691,0,0,0-10.462.707,1.362,1.362,0,0,0-1.025.954l-.881,2.989Z" transform="translate(-815.158 -2113.335)" fill="#bdd0fb"/>
        </g>
      </g>
      <g id="Grupo_57002" data-name="Grupo 57002" transform="translate(236.254 388.462)">
        <g id="Grupo_56992" data-name="Grupo 56992" transform="translate(58.657 0)">
          <path id="Trazado_120518" data-name="Trazado 120518" d="M2673.03,1819.52a.286.286,0,0,1,.529.056,4.723,4.723,0,0,0,2.182,3.109c.066.029.128.058.188.087a.661.661,0,0,0-.082-.6c-.405-.62.326-1.465.326-1.465a1.885,1.885,0,0,0,.615,1.214,1.814,1.814,0,0,1,.389,2.041c-.706,2.74-1.762,6.365,2.353,9.013s9.911-5,9.911-5l-2.876,9.119s-4.44,3.276-9.6-1.331-1.741-11.311-1.741-11.311S2671.28,1822.866,2673.03,1819.52Z" transform="translate(-2672.582 -1810.409)" fill="url(#linear-gradient-21)"/>
          <path id="Trazado_120519" data-name="Trazado 120519" d="M2932.442,1675.821s-1.192-5.348,4.934-3.932c0,0,2.974-.486,3.125,2.321,0,0,1.917,1.263.513,3.692,0,0,5.7-2.2,8.179,2.793s.2,7.741-2.191,8.456a2.382,2.382,0,0,1,1.021,3.17c-.917,2.2-5.562,3.745-8.306,1.074,0,0-7.808,1.032-7.651-4.483,0,0-3.632-2.345.183-6.9S2932.442,1675.821,2932.442,1675.821Z" transform="translate(-2914.862 -1671.65)" fill="url(#linear-gradient-22)"/>
          <path id="Trazado_120520" data-name="Trazado 120520" d="M2882.855,1939.75a8.4,8.4,0,0,1,8.225,2.1,2.111,2.111,0,0,1,.608,2.1c-.916,3.371-3.332,13.332-1.213,17.641,0,0-3.733,4.115-7.806.8,0,0-1.827-7.964-4.221-11.461-1.653-2.414,2.635-9.064,3.719-10.671A1.272,1.272,0,0,1,2882.855,1939.75Z" transform="translate(-2865.612 -1923.182)" fill="url(#linear-gradient-23)"/>
          <path id="Trazado_120521" data-name="Trazado 120521" d="M2975.222,1834.4s1.821,5.15,1.958,7.422a3.894,3.894,0,0,1-3.908-.629,57.258,57.258,0,0,0-.487-6.065Z" transform="translate(-2954.58 -1824.528)" fill="url(#linear-gradient-24)"/>
          <path id="Trazado_120522" data-name="Trazado 120522" d="M2927.55,1718.028s-4.762,6.664-1.915,8.6,6.236-2.8,6.236-2.8,1.1-3.647-.051-4.885S2927.55,1718.028,2927.55,1718.028Z" transform="translate(-2909.436 -1715.179)" fill="url(#linear-gradient-25)"/>
          <path id="Trazado_120523" data-name="Trazado 120523" d="M2968.68,1690.978s-2.187.518-2.494,1.508,3.1,1.908,4.057,1.953l.77,3.994s2.275-3.757,1.374-5.927S2968.68,1690.978,2968.68,1690.978Z" transform="translate(-2948.363 -1689.722)" fill="url(#linear-gradient-26)"/>
          <path id="Trazado_120524" data-name="Trazado 120524" d="M3027.3,1787.251s1.854-2.146,2.591-.747-1.668,2.45-2.5,1.763Z" transform="translate(-3005.789 -1779.094)" fill="url(#linear-gradient-27)"/>
          <path id="Trazado_120525" data-name="Trazado 120525" d="M2859.519,2593.9c.014.361-.621,3.229-.966,4.759a2.52,2.52,0,0,0,.271,1.807l11.964,20.137a2.738,2.738,0,0,1,.314.783,17.283,17.283,0,0,1,.437,5.368l-.619,1.286,2.677-.608.583-7.189-.758-.462a3.6,3.6,0,0,1-1.456-1.7c-1.082-2.628-3.769-9.317-4.461-12.578-.787-3.705-4.9-6.714-4.9-6.714l.723-1.709Z" transform="translate(-2847.217 -2537.974)" fill="url(#linear-gradient-28)"/>
          <path id="Trazado_120526" data-name="Trazado 120526" d="M3056.637,3024.515a16.333,16.333,0,0,1-1.615-3.184c-.17-.892-.644-2.468-1.535-1.993a52.335,52.335,0,0,0-.275,6.027c.145,1.693-1.914,1.639-1.914,1.639a1.925,1.925,0,0,0-.983.5.482.482,0,0,0,.323.811,11.587,11.587,0,0,0,2.868-.163.877.877,0,0,0,.708-.809l.3-4.988,1.823,2.3Z" transform="translate(-3027.282 -2937.528)" fill="url(#linear-gradient-29)"/>
          <path id="Trazado_120527" data-name="Trazado 120527" d="M2954.748,2639.282s.422,18.012.479,20.571-.4,8.228-2.969,9.922l1.116.826a14.907,14.907,0,0,0,2.757-3.467,21.062,21.062,0,0,1,1.993-3.031l-.508-1.04a2.286,2.286,0,0,1-.185-1.467c.553-2.682,2.4-11.6,2.906-13.525a8.654,8.654,0,0,0-1.433-7.832C2956.834,2637.7,2954.748,2639.282,2954.748,2639.282Z" transform="translate(-2935.298 -2580.146)" fill="url(#linear-gradient-30)"/>
          <path id="Trazado_120528" data-name="Trazado 120528" d="M2937.64,3056.73a.158.158,0,0,0,.158-.135,23.251,23.251,0,0,1,.731-3.631c.333-.714,1.421-3.719,0-3.974,0,0-3.534,5.163-4.212,5.859a1.33,1.33,0,0,1-1.534.243,2.555,2.555,0,0,0-1.159.832.468.468,0,0,0,.369.752l2.38.023a1.675,1.675,0,0,0,1.57-1.055,8.948,8.948,0,0,1,1.978-3.262l-.436,4.174a.158.158,0,0,0,.156.175Z" transform="translate(-2915.822 -2965.464)" fill="url(#linear-gradient-31)"/>
          <path id="Trazado_120529" data-name="Trazado 120529" d="M2860.588,2267.872a8.452,8.452,0,0,1-.288,4.526l-5.112,17.851a.553.553,0,0,0,.345.673,34.1,34.1,0,0,0,13.417,1.627.779.779,0,0,0,.71-.606c.452-2.035,1.995-8.978,2.312-10.405,1.21-5.436,2.562-11.3-3.383-14.844C2865.851,2267.866,2863.3,2268.558,2860.588,2267.872Z" transform="translate(-2844.095 -2230.608)" fill="url(#linear-gradient-32)"/>
          <path id="Trazado_120530" data-name="Trazado 120530" d="M3025.089,1984.041s5.816,4.833,7.26,11.438-8.5,7.307-8.5,7.307a3.075,3.075,0,0,0-2.952-.97c-1.6.537-.124-2.63,1.751-2.622s1.006,1.491,3.658.289c2.583-1.17,4.18-4.79-2.411-10.276a2.987,2.987,0,0,1-.871-1.186C3021.744,1984.8,3022.76,1982.686,3025.089,1984.041Z" transform="translate(-2999.133 -1964.705)" fill="url(#linear-gradient-33)"/>
        </g>
        <g id="Grupo_57001" data-name="Grupo 57001" transform="translate(0 16.382)">
          <g id="Grupo_56995" data-name="Grupo 56995" transform="translate(35.423 46.96)">
            <g id="Grupo_56993" data-name="Grupo 56993" transform="translate(10.721 5.342)">
              <rect id="Rectángulo_30057" data-name="Rectángulo 30057" width="2.075" height="22.435" fill="#7d97f4"/>
            </g>
            <g id="Grupo_56994" data-name="Grupo 56994" transform="translate(2.673 26.86)">
              <path id="Trazado_120531" data-name="Trazado 120531" d="M2351.7,3160.413h-18.17v-1.2a.15.15,0,0,1,.15-.15h17.871a.15.15,0,0,1,.15.15Z" transform="translate(-2333.526 -3159.063)" fill="#7d97f4"/>
            </g>
            <rect id="Rectángulo_30058" data-name="Rectángulo 30058" width="24.28" height="6.886" rx="3.443" fill="#7d97f4"/>
          </g>
          <g id="Grupo_56997" data-name="Grupo 56997" transform="translate(16.441)">
            <path id="Trazado_120532" data-name="Trazado 120532" d="M2081.9,3053.658s-6.707,2.889-6.323,5.912c0,0,6.933-1.33,8.174-3.311s.557-3.129.557-3.129Z" transform="translate(-2069.552 -2985.734)" fill="url(#linear-gradient-34)"/>
            <path id="Trazado_120533" data-name="Trazado 120533" d="M2162.46,3007.4l.341,2.944a.973.973,0,0,1-.616,1.034,2.549,2.549,0,0,1-.85.13,1.134,1.134,0,0,1-1.1-.827l-.66-2.381Z" transform="translate(-2148.468 -2942.78)" fill="url(#linear-gradient-35)"/>
            <path id="Trazado_120534" data-name="Trazado 120534" d="M2121.566,2634.669s-12.336-.571-18.474,3.009.311,20.76.311,20.76a6.233,6.233,0,0,0,3.912-.889s-3.295-12.577,2.428-14.765a32.952,32.952,0,0,1,13.09-1.862l-1.233-5.865Z" transform="translate(-2092.923 -2592.619)" fill="url(#linear-gradient-36)"/>
            <path id="Trazado_120535" data-name="Trazado 120535" d="M2059.583,3106.356c1.4-.307,5.562-2.031,6.194-2.008s1.527.97,1.527.97a1.681,1.681,0,0,1-.3,1.26,11.647,11.647,0,0,1-6.064,2.538,4.5,4.5,0,0,1-3.842-1.424A5.493,5.493,0,0,1,2059.583,3106.356Z" transform="translate(-2052.209 -3033.847)" fill="url(#linear-gradient-37)"/>
            <path id="Trazado_120536" data-name="Trazado 120536" d="M2051.646,3143.662a11.648,11.648,0,0,0,6.065-2.538,5.236,5.236,0,0,1-1.981,1.725,13.265,13.265,0,0,1-8.084.964c-.712-.277-.492-.942.159-1.575A4.5,4.5,0,0,0,2051.646,3143.662Z" transform="translate(-2042.913 -3068.392)" fill="url(#linear-gradient-38)"/>
            <path id="Trazado_120537" data-name="Trazado 120537" d="M2190.836,3070.538a10.014,10.014,0,0,1-1.642,1.972,1.119,1.119,0,0,1-1.04.313,2.868,2.868,0,0,1-.744-.261.726.726,0,0,1-.281-.987l1.437-2.613Z" transform="translate(-2174.268 -3000.607)" fill="url(#linear-gradient-39)"/>
            <path id="Trazado_120538" data-name="Trazado 120538" d="M2223.028,2618.126s1.077,7.639-2.037,9.2-9.942,2.583-12.294,6.545-6.577,11.739-10.421,13.973c0,0-2.2-.714-2.837-1.794,0,0,4.563-12,6.467-14.911,1.648-2.525,4.059-6.163,7.484-7.736.98-.45,1.057-1.49.885-2.556l-.314-1.939Z" transform="translate(-2182.159 -2577.111)" fill="url(#linear-gradient-40)"/>
            <path id="Trazado_120539" data-name="Trazado 120539" d="M2160.272,2299.727c4.365,1.246,6.318-11.038,6.3-11.337l6.692,7.825s-3.988,7.016-10.009,7.763a7.106,7.106,0,0,1-3.906-.573A6.258,6.258,0,0,0,2160.272,2299.727Z" transform="translate(-2148.258 -2267.371)" fill="url(#linear-gradient-41)"/>
            <path id="Trazado_120540" data-name="Trazado 120540" d="M1980.373,2405.637a3.5,3.5,0,0,1,3.516.779,11.428,11.428,0,0,0,4.567,3.242,6.255,6.255,0,0,1-.921,3.678,9.731,9.731,0,0,1-4.288-4.342.816.816,0,0,0-1.077-.365c-.4.195-.819.492-.845.9-.052.8-1,.844-1.005.55a11.787,11.787,0,0,1,.734-1.868s-2.186,1.4-3.037,1.938a1.253,1.253,0,0,1-1.575-.349S1978.47,2406.419,1980.373,2405.637Z" transform="translate(-1976.442 -2377.301)" fill="url(#linear-gradient-42)"/>
            <path id="Trazado_120541" data-name="Trazado 120541" d="M2297.514,2187.944s-5.866-4-20.032,3.236a4.611,4.611,0,0,0-.775,3.934c.684,2.085,9.095,13.368,9.421,18.665a15.063,15.063,0,0,0,13.214.029S2301.844,2199.821,2297.514,2187.944Z" transform="translate(-2258.326 -2171.98)" fill="url(#linear-gradient-43)"/>
            <path id="Trazado_120542" data-name="Trazado 120542" d="M2349.675,2120.674l2.318,4.542a1.291,1.291,0,0,1-.134,1.392,3.69,3.69,0,0,1-4.245,1.182,1.992,1.992,0,0,1-1.357-1.445l-1.2-5.07Z" transform="translate(-2322.701 -2109.826)" fill="url(#linear-gradient-44)"/>
            <path id="Trazado_120543" data-name="Trazado 120543" d="M2587.4,2220.9c.4-2.761-6.9-8.113-6.9-8.113l2.555-7.748s13.923,9.936,10.995,18.049a5.672,5.672,0,0,1-1.809,2.611A9.068,9.068,0,0,0,2587.4,2220.9Z" transform="translate(-2543.87 -2189.073)" fill="url(#linear-gradient-45)"/>
            <path id="Trazado_120544" data-name="Trazado 120544" d="M2430.575,2467.345s8.253,2.305,9.966-.207a1.316,1.316,0,0,0,.213-.559,9.068,9.068,0,0,1,4.842,4.8c-3.919,3.083-11.474-.373-13.527-1.409a1.452,1.452,0,0,0-1.087-.091,9.907,9.907,0,0,1-2.7.543c-1.031-.057-2.138,3.67-3.893,2.727C2424.388,2473.149,2425.186,2466.781,2430.575,2467.345Z" transform="translate(-2397.223 -2434.754)" fill="url(#linear-gradient-46)"/>
            <g id="Grupo_56996" data-name="Grupo 56996" transform="translate(19.103)">
              <path id="Trazado_120545" data-name="Trazado 120545" d="M2296.352,1995.289c-.073.064-3.131,5.4-4.687,8.126a1.6,1.6,0,0,0,.761,2.266l.674.289c.921.395,2.9.726,3.682.1l4.915-5.188S2298.005,1993.858,2296.352,1995.289Z" transform="translate(-2291.453 -1991.864)" fill="url(#linear-gradient-47)"/>
              <path id="Trazado_120546" data-name="Trazado 120546" d="M2354.467,1949.386a1.585,1.585,0,0,0,.763-2.238,2.236,2.236,0,0,0-2.437-1.261.61.61,0,0,1-.648-.44.483.483,0,0,0-.427-.346.6.6,0,0,1-.475-.752,1.822,1.822,0,0,0-.909-2.184c-1.871-1.133-3.62.512-4.107,1.943s1.611,2.543,2.951,2.77c1.019.173,1.515,1.347,1.7,1.9a.607.607,0,0,1-.072.52l-1.495,2.271c.411.517.775,1.063,1.134,1.616.134-.145.252-.265.344-.35.649-.595,1.8-.288,2.279-.124a.6.6,0,0,0,.472-.035,1.582,1.582,0,0,0,.706-2.44A.611.611,0,0,1,2354.467,1949.386Z" transform="translate(-2342.838 -1941.787)" fill="url(#linear-gradient-48)"/>
              <path id="Trazado_120547" data-name="Trazado 120547" d="M2407.861,2109.738s.955-2.456,2.041-2.319,1.9,1.259.5,2.423C2408.656,2111.29,2407.861,2109.738,2407.861,2109.738Z" transform="translate(-2400.802 -2097.369)" fill="url(#linear-gradient-49)"/>
            </g>
          </g>
          <g id="Grupo_56998" data-name="Grupo 56998" transform="translate(1.312 20.34)">
            <path id="Trazado_120548" data-name="Trazado 120548" d="M2039.931,2538.819h-.044l-19.281-.021a.863.863,0,0,1,0-1.726l19.282.021a.863.863,0,0,1,.042,1.725Z" transform="translate(-2001.988 -2521.312)" fill="url(#linear-gradient-50)"/>
            <path id="Trazado_120549" data-name="Trazado 120549" d="M1728.254,2277.188h16.058a3.061,3.061,0,0,1,2.768,1.755l7.423,15.741h-19.955a1.861,1.861,0,0,1-1.73-1.176l-5.756-14.566A1.282,1.282,0,0,1,1728.254,2277.188Z" transform="translate(-1726.97 -2277.188)" fill="url(#linear-gradient-51)"/>
            <path id="Trazado_120550" data-name="Trazado 120550" d="M1894.974,2385.364c.348,1.081.091,2.131-.574,2.345s-1.486-.489-1.834-1.57-.091-2.131.574-2.345S1894.626,2384.283,1894.974,2385.364Z" transform="translate(-1882.378 -2377.293)" fill="#91b3fa"/>
          </g>
          <g id="Grupo_57000" data-name="Grupo 57000" transform="translate(0 37.663)">
            <g id="Grupo_56999" data-name="Grupo 56999" transform="translate(4.389 1.725)">
              <path id="Trazado_120551" data-name="Trazado 120551" d="M1778.517,2631.1a.832.832,0,0,1-.32-.064.776.776,0,0,1-.424-1.031l16.993-38.244a.82.82,0,0,1,1.064-.411.775.775,0,0,1,.424,1.031l-16.993,38.244A.811.811,0,0,1,1778.517,2631.1Z" transform="translate(-1777.707 -2591.286)" fill="#91b3fa"/>
              <path id="Trazado_120552" data-name="Trazado 120552" d="M1830.957,2631.1a.812.812,0,0,1-.745-.475l-16.993-38.244a.775.775,0,0,1,.424-1.031.82.82,0,0,1,1.064.411L1831.7,2630a.775.775,0,0,1-.424,1.031A.83.83,0,0,1,1830.957,2631.1Z" transform="translate(-1811.004 -2591.284)" fill="#91b3fa"/>
              <path id="Trazado_120553" data-name="Trazado 120553" d="M2645.9,2631.1a.831.831,0,0,1-.32-.064.775.775,0,0,1-.424-1.031l16.993-38.244a.821.821,0,0,1,1.065-.411.775.775,0,0,1,.424,1.031l-16.993,38.244A.811.811,0,0,1,2645.9,2631.1Z" transform="translate(-2592.489 -2591.286)" fill="#91b3fa"/>
              <path id="Trazado_120554" data-name="Trazado 120554" d="M2698.338,2631.1a.812.812,0,0,1-.745-.475l-16.993-38.244a.775.775,0,0,1,.424-1.031.82.82,0,0,1,1.064.411L2699.082,2630a.775.775,0,0,1-.424,1.031A.832.832,0,0,1,2698.338,2631.1Z" transform="translate(-2625.784 -2591.284)" fill="#91b3fa"/>
            </g>
            <path id="Trazado_120555" data-name="Trazado 120555" d="M1784.266,2563.862a.932.932,0,0,0-.161-.707.735.735,0,0,0-.59-.311h-77.306a.861.861,0,0,0-.741.454,1.087,1.087,0,0,0-.057.944l.838,2.03a1.173,1.173,0,0,0,1.065.763h75.672a.921.921,0,0,0,.872-.806Z" transform="translate(-1705.33 -2562.844)" fill="#91b3fa"/>
          </g>
        </g>
      </g>
    </g>
  </g>
</svg>
