<svg xmlns="http://www.w3.org/2000/svg" xmlns:xlink="http://www.w3.org/1999/xlink" width="181" height="182" viewBox="0 0 181 182">
  <defs>
    <clipPath id="clip-path">
      <ellipse id="Elipse_156" data-name="Elipse 156" cx="90.5" cy="91" rx="90.5" ry="91" transform="translate(0.271 0.12)" fill="#fff" stroke="#707070" stroke-width="1"/>
    </clipPath>
  </defs>
  <g id="Grupo_56451" data-name="Grupo 56451" transform="translate(-398 -4972)">
    <g id="Grupo_54687" data-name="Grupo 54687" transform="translate(0 -16)">
      <circle id="Elipse_4175" data-name="Elipse 4175" cx="87.5" cy="87.5" r="87.5" transform="translate(401 4992)" fill="#fff"/>
    </g>
    <g id="Grupo_56445" data-name="Grupo 56445" transform="translate(-19.076 4751.265)">
      <rect id="Rect치ngulo_29720" data-name="Rect치ngulo 29720" width="107.687" height="117.844" rx="9" transform="translate(453.232 252.813)" fill="#e5e6ed"/>
      <rect id="Rect치ngulo_29721" data-name="Rect치ngulo 29721" width="93.206" height="101.165" transform="translate(460.473 261.153)" fill="#fe7062"/>
      <path id="Trazado_119900" data-name="Trazado 119900" d="M519.5,303.773a4.662,4.662,0,0,0-5.858-1.2s6.941-15.318,2.549-22.9a6.86,6.86,0,0,0-1.573-1.847c1.1-5.054-3.74-7.177-7.582-9.143a31.984,31.984,0,0,0-7.759-2.791c-5.018-1.045-10.664-.82-15.224,1.7-5.1,2.816-10.218,8.56-15.518,7.254-1.1,2.574-.938,4.688-.2,7.755a19.785,19.785,0,0,0,4.07,7.717,60.13,60.13,0,0,0,3.965,12.262,4.66,4.66,0,0,0-5.856,1.2c-2.661,3.062,4.392,10.78,5.99,11.713a33.5,33.5,0,0,0,5.887,11.406,25.868,25.868,0,0,0,6.034,5.3h-.513s-1.487,14.048-4.209,18.8h21.639c-2.514-4.39-3.973-16.675-4.181-18.539a25.92,25.92,0,0,0,6.461-5.565,33.539,33.539,0,0,0,5.887-11.406C515.107,314.554,522.16,306.835,519.5,303.773Z" transform="translate(13.156 11.322)" fill="#fff"/>
      <g id="Grupo_56444" data-name="Grupo 56444" transform="translate(499.633 297.071)">
        <path id="Trazado_119901" data-name="Trazado 119901" d="M481.9,299.222v-4.974a19.747,19.747,0,0,0,5.344-5.01,8.521,8.521,0,0,0,1.788-4.976,6.359,6.359,0,0,0-.044-.726,1.623,1.623,0,0,0-.658-1.331,2.773,2.773,0,0,0-1.382-.307,1.7,1.7,0,0,0-1.176.446,1.467,1.467,0,0,0-.5,1.172,4.9,4.9,0,0,0,.044.726,2.969,2.969,0,0,0,.091.438c.031.093.093.255.193.484s.177.419.236.568l-7.448,1.453c-.046-.16-.124-.412-.238-.753s-.185-.572-.213-.688-.08-.3-.149-.551a3.717,3.717,0,0,1-.124-.606c-.015-.154-.034-.347-.057-.576s-.032-.471-.032-.719v-.149a8.041,8.041,0,0,1,.406-2.625,6.274,6.274,0,0,1,4.314-3.912,14.849,14.849,0,0,1,4.427-.58q5.093,0,7.8,2.049a6.8,6.8,0,0,1,2.705,5.757,12.077,12.077,0,0,1-2.274,6.724,13.6,13.6,0,0,1-5.467,4.918v3.744Zm-.2,8.234v-6.409h8.037v6.409Z" transform="translate(-477.572 -276.029)" fill="#1a0f91"/>
      </g>
    </g>
  </g>
</svg>
