<svg xmlns="http://www.w3.org/2000/svg" xmlns:xlink="http://www.w3.org/1999/xlink" width="500" height="264" viewBox="0 0 500 264">
  <defs>
    <clipPath id="clip-path">
      <path id="Trazado_119684" data-name="Trazado 119684" d="M21.756,206.538c0,29.576,21.306,49.937,48.449,49.937s49.1-21.677,49.1-51.253-21.958-55.851-49.1-55.851S21.756,176.962,21.756,206.538Z" transform="translate(-21.756 -149.371)" fill="none"/>
    </clipPath>
    <linearGradient id="linear-gradient" x1="-148.53" y1="0.045" x2="-148.53" y2="1.007" gradientUnits="objectBoundingBox">
      <stop offset="0" stop-color="#ffa57e"/>
      <stop offset="1" stop-color="#ff8c6b"/>
    </linearGradient>
    <clipPath id="clip-path-2">
      <path id="Trazado_119740" data-name="Trazado 119740" d="M139.676,206.538c0,29.576,21.306,49.937,48.449,49.937s49.1-21.677,49.1-51.253-21.958-55.851-49.1-55.851S139.676,176.962,139.676,206.538Z" transform="translate(-139.676 -149.371)" fill="none"/>
    </clipPath>
    <linearGradient id="linear-gradient-2" x1="0.5" y1="0.08" x2="0.5" y2="1.056" gradientUnits="objectBoundingBox">
      <stop offset="0" stop-color="#f7ba8a"/>
      <stop offset="0.281" stop-color="#f6b587"/>
      <stop offset="0.581" stop-color="#f4a87e"/>
      <stop offset="0.889" stop-color="#f19371"/>
      <stop offset="1" stop-color="#f08a6b"/>
    </linearGradient>
    <clipPath id="clip-path-3">
      <path id="Trazado_119786" data-name="Trazado 119786" d="M375.515,206.538c0,29.576,21.306,49.937,48.449,49.937s49.1-21.677,49.1-51.253-21.958-55.851-49.1-55.851S375.515,176.962,375.515,206.538Z" transform="translate(-375.515 -149.371)" fill="none"/>
    </clipPath>
    <linearGradient id="linear-gradient-3" x1="0.5" y1="0.08" x2="0.5" y2="1.056" xlink:href="#linear-gradient-2"/>
    <clipPath id="clip-path-4">
      <path id="Trazado_119840" data-name="Trazado 119840" d="M257.6,206.538c0,29.576,21.306,49.937,48.449,49.937s49.1-21.677,49.1-51.253-21.959-55.851-49.1-55.851S257.6,176.962,257.6,206.538Z" transform="translate(-257.595 -149.371)" fill="none"/>
    </clipPath>
    <linearGradient id="linear-gradient-4" x1="0.5" y1="0.045" x2="0.5" y2="1.007" xlink:href="#linear-gradient"/>
  </defs>
  <g id="Grupo_56273" data-name="Grupo 56273" transform="translate(-180 -3641)">
    <rect id="Rectángulo_29566" data-name="Rectángulo 29566" width="500" height="264" transform="translate(180 3641)" fill="none"/>
    <g id="Grupo_56272" data-name="Grupo 56272" transform="translate(189 3659)">
      <g id="Grupo_56217" data-name="Grupo 56217" transform="translate(11.785 111.7)">
        <circle id="Elipse_4220" data-name="Elipse 4220" cx="49.147" cy="49.147" r="49.147" transform="translate(0 8.81)" fill="#ccdff9"/>
        <g id="Grupo_56216" data-name="Grupo 56216" transform="translate(0.56)">
          <g id="Grupo_56215" data-name="Grupo 56215" clip-path="url(#clip-path)">
            <g id="Grupo_56214" data-name="Grupo 56214" transform="translate(3.747 1.961)">
              <g id="Grupo_56201" data-name="Grupo 56201" transform="translate(0 0.065)">
                <path id="Trazado_119635" data-name="Trazado 119635" d="M68.795,151.457c6.447-.057,13.263,3.329,19.121,9.643,5.81,6.261,8,7.552,11.661,10.051s7.478,5.156,8.094,10.886-1.494,9.459-4.6,11.89c0,0,14.6,8.588,10.451,24.005-4.052,15.057-19.462,16.92-19.462,16.92s-8.459,8.705-25.517,6.52S50.633,234.7,50.633,234.7A13.411,13.411,0,0,1,37.8,226.089c-3.433-8.172,2.416-14.549,3.337-19.43.979-5.188-2.951-16.586-2.951-16.586s.491-17.6,14.48-26.133S68.795,151.457,68.795,151.457Z" transform="translate(-25.503 -151.397)" fill="#6c3447"/>
                <path id="Trazado_119636" data-name="Trazado 119636" d="M67.132,151.4c-6.438.343-13.03,4.145-18.486,10.81-5.409,6.61-7.515,8.034-11.014,10.755s-7.144,5.611-7.4,11.368,2.078,9.348,5.33,11.582c0,0-14.039,9.477-8.941,24.607C31.6,235.3,47.091,236.2,47.091,236.2s8.984,8.164,25.873,4.924,17.46-7.774,17.46-7.774a13.413,13.413,0,0,0,12.271-9.387c2.919-8.368-3.314-14.37-4.536-19.185-1.3-5.117,1.916-16.736,1.916-16.736S98.492,170.5,84,162.855,67.132,151.4,67.132,151.4Z" transform="translate(-25.503 -151.397)" fill="#6c3447"/>
                <path id="Trazado_119637" data-name="Trazado 119637" d="M43.209,235.44c-7.521-3.509-8.9-11.648-.688-17.358s9.893-11.341,9.673-18.177l45.743-.607a17.653,17.653,0,0,0,.194,5.478c1.222,4.815,7.456,10.817,4.537,19.185A13.413,13.413,0,0,1,90.4,233.348s-.571,4.535-17.46,7.774S47.064,236.2,47.064,236.2a22.171,22.171,0,0,1-3.869-.693Z" transform="translate(-25.503 -151.397)" fill="#5a2639"/>
                <path id="Trazado_119638" data-name="Trazado 119638" d="M39.579,202.254c.144,3.011-5.956,4.774-7.721,15.258s7.708,16.756,7.72,16.764a22.309,22.309,0,0,1-12.96-13.757c-3.045-9.038.738-16.057,4.279-20.246C36.058,196.737,39.436,199.243,39.579,202.254Z" transform="translate(-25.503 -151.397)" fill="#803d55"/>
              </g>
              <g id="Grupo_56202" data-name="Grupo 56202" transform="translate(15.346 35.402)">
                <path id="Trazado_119639" data-name="Trazado 119639" d="M50.415,189.159s-3.019-4.41-7.334-1.336c-1.957,1.394-3.849,6.613,0,11.311s8.961,2.912,9.112.771Z" transform="translate(-40.849 -186.734)" fill="#ffbf91"/>
                <path id="Trazado_119640" data-name="Trazado 119640" d="M43.081,187.823a5.139,5.139,0,0,1,3.229-1.084c-.5.039-2.848.4-3.985,3.748a10.659,10.659,0,0,0,.756,8.647C39.232,194.436,41.124,189.217,43.081,187.823Z" transform="translate(-40.849 -186.734)" fill="#ffdbc1"/>
                <path id="Trazado_119641" data-name="Trazado 119641" d="M43.576,192.219a2.786,2.786,0,0,1,2.588-1.727c1.842.116,2.809,1.915,3.059,3.381a1.989,1.989,0,0,0-2.339,1.948,2.1,2.1,0,0,0,2.724,2.221s-.15,1.119-2.059,1.251C45.245,199.451,42.137,196.473,43.576,192.219Z" transform="translate(-40.849 -186.734)" fill="#ffac70"/>
              </g>
              <g id="Grupo_56204" data-name="Grupo 56204" transform="translate(5.018 66.75)">
                <g id="Grupo_56203" data-name="Grupo 56203">
                  <path id="Trazado_119642" data-name="Trazado 119642" d="M81.691,218.082c0,4.193-.19,9.08,0,11.645s3.018,2.2,6.584,1.613c3.714-.612,10.783-2.523,16.36,6.9,5.949,10.057,10.72,18.116,10.72,18.116s-14.464,6.964-42.417,6.964-42.417-6.964-42.417-6.964,4.772-8.059,10.721-18.116c5.576-9.427,12.646-7.516,16.359-6.9,3.567.587,6.395.953,6.585-1.613s0-7.452,0-11.645Z" transform="translate(-30.521 -218.082)" fill="#ffbf91"/>
                  <path id="Trazado_119643" data-name="Trazado 119643" d="M59.555,231.633a10.533,10.533,0,0,0,2.528.07,12.966,12.966,0,0,0,11.136,5.524,12.975,12.975,0,0,0,11.109-5.472,13.1,13.1,0,0,0,1.994-.122c.437.474,12.9,14.086,16.071,28.727a136.893,136.893,0,0,1-29.455,2.964,136.89,136.89,0,0,1-29.454-2.964C46.65,245.719,59.118,232.107,59.555,231.633Z" transform="translate(-30.521 -218.082)" fill="#ffe7e1"/>
                  <path id="Trazado_119644" data-name="Trazado 119644" d="M102.393,260.36l-5.717-14.278s7.253,8.6,9.1,13.471C104.732,259.822,103.6,260.093,102.393,260.36Z" transform="translate(-30.521 -218.082)" fill="#ff8c6b"/>
                  <path id="Trazado_119645" data-name="Trazado 119645" d="M43.484,260.36,49.2,246.082s-7.252,8.6-9.1,13.471C41.144,259.822,42.275,260.093,43.484,260.36Z" transform="translate(-30.521 -218.082)" fill="#ff8c6b"/>
                  <path id="Trazado_119646" data-name="Trazado 119646" d="M64.21,221.123c-.014-1.026-.024-2.053-.024-3.041H81.691c0,3.676-.146,7.884-.054,10.6h0C67.5,228.584,64.213,221.131,64.21,221.123Z" transform="translate(-30.521 -218.082)" fill="#ffac70"/>
                </g>
                <path id="Trazado_119647" data-name="Trazado 119647" d="M55.59,231v0a12.99,12.99,0,0,0-10.939,5.377c-3.384,4.692-12.408,20.686-12.415,20.7l-.023-.009-1.693-.71s4.772-8.059,10.721-18.116C45.93,230.319,51.673,230.407,55.59,231Z" transform="translate(-30.521 -218.082)" fill="#ffdbc1"/>
                <path id="Trazado_119648" data-name="Trazado 119648" d="M64.79,263.117a129.54,129.54,0,0,1-21.306-2.757c3.166-14.641,15.634-28.253,16.071-28.727,0,0-8.34,12.155-9.947,18.614C48.015,256.647,55.067,262.523,64.79,263.117Z" transform="translate(-30.521 -218.082)" fill="#fff2f0"/>
              </g>
              <g id="Grupo_56213" data-name="Grupo 56213" transform="translate(4.706)">
                <g id="Grupo_56205" data-name="Grupo 56205" transform="translate(20.132 13.064)">
                  <path id="Trazado_119649" data-name="Trazado 119649" d="M72.938,221.123c5.674,0,12.318-4.428,16.735-11.5s5.863-17.621,5.863-22.634a22.6,22.6,0,0,0-45.2,0c0,5.013,1.446,15.567,5.863,22.634S67.265,221.123,72.938,221.123Z" transform="translate(-50.341 -164.396)" fill="#ffbf91"/>
                  <path id="Trazado_119650" data-name="Trazado 119650" d="M83.069,169.273s-1.319,9.138,4.158,14.833,8.235,5.053,8.235,5.053Z" transform="translate(-50.341 -164.396)" fill="#ffac70"/>
                  <path id="Trazado_119651" data-name="Trazado 119651" d="M83.069,167.909a24.568,24.568,0,0,1-9.555,7.806c-6.657,3.122-19.094,4.56-20.68,9.2,0,0,0-5.782,9.691-10.381C69.738,171.114,83.069,167.909,83.069,167.909Z" transform="translate(-50.341 -164.396)" fill="#ffac70"/>
                  <path id="Trazado_119652" data-name="Trazado 119652" d="M52.086,192.759c.818,10.661,6.573,19.565,10,22.707A24.432,24.432,0,0,0,72.1,221.083c-5.48-.4-11.7-4.731-15.9-11.456-2.616-4.185-4.184-9.588-5.032-14.344l-.756-6.116v-.007Z" transform="translate(-50.341 -164.396)" fill="#ffdbc1"/>
                </g>
                <path id="Trazado_119653" data-name="Trazado 119653" d="M78.17,182.673c.483.886,2.78-.839,6.031-.786a9.189,9.189,0,0,1,6.8,2.779s-1.008-3.106-5.475-4.437S77.541,181.52,78.17,182.673Z" transform="translate(-30.209 -151.332)" fill="#5a2639"/>
                <path id="Trazado_119654" data-name="Trazado 119654" d="M67.707,182.673c-.483.886-2.78-.839-6.032-.786a9.188,9.188,0,0,0-6.8,2.779s1.007-3.106,5.475-4.437S68.336,181.52,67.707,182.673Z" transform="translate(-30.209 -151.332)" fill="#5a2639"/>
                <g id="Grupo_56207" data-name="Grupo 56207" transform="translate(38.677 40.72)">
                  <path id="Trazado_119655" data-name="Trazado 119655" d="M69.094,200.07c.551-1.311,2.3-8.018,3.844-8.018s3.294,6.707,3.845,8.018-.166,1.8-.166,1.8l-.759-.131s-1.952,1.555-2.92,1.555-2.919-1.555-2.919-1.555l-.759.131S68.544,201.382,69.094,200.07Z" transform="translate(-68.886 -192.052)" fill="#ffb682"/>
                  <g id="Grupo_56206" data-name="Grupo 56206" transform="translate(2.062 5.935)">
                    <path id="Trazado_119656" data-name="Trazado 119656" d="M74.929,200.176a2,2,0,1,0-3.981,0,2.023,2.023,0,1,0,3.981,0Z" transform="translate(-70.948 -197.987)" fill="#ffac70"/>
                  </g>
                  <path id="Trazado_119657" data-name="Trazado 119657" d="M71.013,200.247a.446.446,0,1,0,.56-.407A.495.495,0,0,0,71.013,200.247Z" transform="translate(-68.886 -192.052)" fill="#fff" opacity="0.3"/>
                  <path id="Trazado_119658" data-name="Trazado 119658" d="M71.872,201.36a.219.219,0,1,0-.218.218A.218.218,0,0,0,71.872,201.36Z" transform="translate(-68.886 -192.052)" fill="#fff"/>
                  <path id="Trazado_119659" data-name="Trazado 119659" d="M70.247,202.275a1.963,1.963,0,0,1,1.115.157,3.968,3.968,0,0,0,1.575.6,3.968,3.968,0,0,0,1.575-.6,1.961,1.961,0,0,1,1.114-.157c.017,0,.033.049.012.051-.979.1-1.493.963-2.4,1.226a1.143,1.143,0,0,1-.592,0c-.912-.263-1.426-1.129-2.406-1.226C70.214,202.324,70.231,202.277,70.247,202.275Z" transform="translate(-68.886 -192.052)" fill="#5a2639"/>
                  <path id="Trazado_119660" data-name="Trazado 119660" d="M70.432,202.357a3.026,3.026,0,0,1-.842-.22c-.38-.168-.822-.831-.139-1a1.153,1.153,0,0,1,1.192.531c.187.235.255.506.559.692Z" transform="translate(-68.886 -192.052)" fill="#5a2639"/>
                  <path id="Trazado_119661" data-name="Trazado 119661" d="M75.442,202.357a3.034,3.034,0,0,0,.842-.22c.38-.168.822-.831.139-1a1.156,1.156,0,0,0-1.193.531c-.186.235-.254.506-.558.692Z" transform="translate(-68.886 -192.052)" fill="#5a2639"/>
                </g>
                <g id="Grupo_56208" data-name="Grupo 56208">
                  <path id="Trazado_119662" data-name="Trazado 119662" d="M83.069,167.909s-.992,13.522,12.467,22.266l4.512-2.135s2-7.973,1.491-13.463S97.114,161.015,85.432,160.7c0,0-6.186-10.274-18.327-9.3-16.764,1.346-22.985,22.817-16.69,37.762a12.865,12.865,0,0,1,6.831-8.948C63.244,177.161,76.054,175.229,83.069,167.909Z" transform="translate(-30.209 -151.332)" fill="#6c3447"/>
                  <path id="Trazado_119663" data-name="Trazado 119663" d="M95.462,189.159c-5.123-9.3.074-10.616,1.655-18.026.482-2.254-1.073-6.949-4.165-8.837a14.845,14.845,0,0,1,8.587,12.281c.508,5.49-1.491,13.463-1.491,13.463l-3.958,1.872A4.381,4.381,0,0,1,95.462,189.159Z" transform="translate(-30.209 -151.332)" fill="#5a2639"/>
                  <path id="Trazado_119664" data-name="Trazado 119664" d="M30.229,184.33c.259-5.757,3.9-8.646,7.4-11.368s5.6-4.145,11.014-10.755c5.428-6.631,11.981-10.426,18.389-10.8l.07-.008a18.869,18.869,0,0,1,12.06,3.089c-7.039-2.845-15.764-2.677-21.58,3.362-4.332,4.5-7.695,13.238-14.376,17.957-6.608,4.668-16.289,11.84-7.65,20.107C32.307,193.678,29.97,190.087,30.229,184.33Z" transform="translate(-30.209 -151.332)" fill="#803d55"/>
                  <path id="Trazado_119665" data-name="Trazado 119665" d="M49.608,179.13l.448,9.584s.467,5.913,1.072,7.087c.448.869.911-2.125,1.065-6.548s1.426-6.326,1.426-6.326l-4.011-4.048" transform="translate(-30.209 -151.332)" fill="#6c3447"/>
                </g>
                <g id="Grupo_56209" data-name="Grupo 56209" transform="translate(62.731 35.402)">
                  <path id="Trazado_119666" data-name="Trazado 119666" d="M95.462,189.159s3.019-4.41,7.334-1.336c1.957,1.394,3.849,6.613,0,11.311s-8.961,2.912-9.113.771Z" transform="translate(-92.94 -186.734)" fill="#ffbf91"/>
                  <path id="Trazado_119667" data-name="Trazado 119667" d="M95.468,189.159s3.019-4.41,7.333-1.336a4.1,4.1,0,0,1,.933.987c-2.748-2.312-6.7-1.4-8.466,2.637l-.065-.687Z" transform="translate(-92.94 -186.734)" fill="#ffac70"/>
                  <path id="Trazado_119668" data-name="Trazado 119668" d="M95.462,189.159a46.145,46.145,0,0,1-.868,6.753c-.574,1.957-1.654-8.038-1.654-8.038Z" transform="translate(-92.94 -186.734)" fill="#6c3447"/>
                  <path id="Trazado_119669" data-name="Trazado 119669" d="M102.3,192.219a2.787,2.787,0,0,0-2.588-1.727c-1.842.116-2.809,1.915-3.059,3.381a1.988,1.988,0,0,1,2.338,1.948,2.1,2.1,0,0,1-2.723,2.221s.149,1.119,2.059,1.251C100.632,199.451,103.74,196.473,102.3,192.219Z" transform="translate(-92.94 -186.734)" fill="#ffac70"/>
                </g>
                <g id="Grupo_56210" data-name="Grupo 56210" transform="translate(48.585 33.585)">
                  <path id="Trazado_119670" data-name="Trazado 119670" d="M79.166,192.939s.707-4.309,4.8-4.979a6.562,6.562,0,0,1,6.316,2.794,5.737,5.737,0,0,1-4.9,4.876A6.234,6.234,0,0,1,79.166,192.939Z" transform="translate(-78.795 -184.917)" fill="#fff"/>
                  <path id="Trazado_119671" data-name="Trazado 119671" d="M79.02,192.711s-.593-2.816.146-4.469a6.288,6.288,0,0,1,7.617-3.011c4.132,1.21,4.092,5.535,4.092,5.535a7.125,7.125,0,0,0-6.906-2.806C80.259,188.478,79.02,192.711,79.02,192.711Z" transform="translate(-78.795 -184.917)" fill="#ffac70"/>
                  <circle id="Elipse_4221" data-name="Elipse 4221" cx="3.133" cy="3.133" r="3.133" transform="translate(2.166 3.582)" fill="#5a2639"/>
                  <path id="Trazado_119672" data-name="Trazado 119672" d="M85.633,191.632a1.54,1.54,0,1,0-1.539,1.54A1.539,1.539,0,0,0,85.633,191.632Z" transform="translate(-78.795 -184.917)" fill="#3f1527"/>
                  <path id="Trazado_119673" data-name="Trazado 119673" d="M83.826,190.691a.756.756,0,1,0-.757.756A.756.756,0,0,0,83.826,190.691Z" transform="translate(-78.795 -184.917)" fill="#fff"/>
                  <path id="Trazado_119674" data-name="Trazado 119674" d="M79.166,192.939c.274.106.6-1.941,2.4-3.242a6.222,6.222,0,0,1,5.969-.464,5.2,5.2,0,0,1,2.176,1.8,5.86,5.86,0,0,1-1.971,3.31,9.078,9.078,0,0,1-3.013,1.367c.144.225,1.847.091,3.407-.925a6.088,6.088,0,0,0,2.742-4.016c-.058-1.011-2.812-3.543-5.863-3.283s-4.661,1.722-5.355,3.168S78.877,192.827,79.166,192.939Z" transform="translate(-78.795 -184.917)" fill="#491b2d"/>
                </g>
                <path id="Trazado_119675" data-name="Trazado 119675" d="M84.672,200.741c.385,1.374,2.317,2.034,4.317,1.474s3.308-2.128,2.923-3.5S89.6,196.68,87.6,197.24,84.287,199.367,84.672,200.741Z" transform="translate(-30.209 -151.332)" fill="#ff646a" opacity="0.3"/>
                <g id="Grupo_56211" data-name="Grupo 56211" transform="translate(24.793 33.585)">
                  <path id="Trazado_119676" data-name="Trazado 119676" d="M66.711,192.939s-.707-4.309-4.8-4.979a6.564,6.564,0,0,0-6.317,2.794,5.738,5.738,0,0,0,4.9,4.876A6.234,6.234,0,0,0,66.711,192.939Z" transform="translate(-55.002 -184.917)" fill="#fff"/>
                  <path id="Trazado_119677" data-name="Trazado 119677" d="M66.857,192.711s.593-2.816-.146-4.469a6.288,6.288,0,0,0-7.617-3.011c-4.133,1.21-4.092,5.535-4.092,5.535a7.125,7.125,0,0,1,6.906-2.806C65.618,188.478,66.857,192.711,66.857,192.711Z" transform="translate(-55.002 -184.917)" fill="#ffac70"/>
                  <circle id="Elipse_4222" data-name="Elipse 4222" cx="3.133" cy="3.133" r="3.133" transform="translate(3.648 3.582)" fill="#5a2639"/>
                  <path id="Trazado_119678" data-name="Trazado 119678" d="M63.322,191.632a1.539,1.539,0,1,0-1.539,1.54A1.539,1.539,0,0,0,63.322,191.632Z" transform="translate(-55.002 -184.917)" fill="#3f1527"/>
                  <circle id="Elipse_4223" data-name="Elipse 4223" cx="0.756" cy="0.756" r="0.756" transform="translate(4.815 5.017)" fill="#fff"/>
                  <path id="Trazado_119679" data-name="Trazado 119679" d="M66.711,192.939c-.274.106-.6-1.941-2.4-3.242a6.224,6.224,0,0,0-5.97-.464,5.194,5.194,0,0,0-2.175,1.8,5.86,5.86,0,0,0,1.971,3.31,9.078,9.078,0,0,0,3.013,1.367c-.144.225-1.847.091-3.408-.925A6.09,6.09,0,0,1,55,190.766c.058-1.011,2.812-3.543,5.863-3.283s4.661,1.722,5.355,3.168S67,192.827,66.711,192.939Z" transform="translate(-55.002 -184.917)" fill="#491b2d"/>
                </g>
                <path id="Trazado_119680" data-name="Trazado 119680" d="M61.205,200.741c-.385,1.374-2.317,2.034-4.317,1.474s-3.308-2.128-2.923-3.5,2.317-2.034,4.316-1.474S61.589,199.367,61.205,200.741Z" transform="translate(-30.209 -151.332)" fill="#ff646a" opacity="0.3"/>
                <g id="Grupo_56212" data-name="Grupo 56212" transform="translate(35.399 55.566)">
                  <path id="Trazado_119681" data-name="Trazado 119681" d="M72.937,208.055l6.771-.178s-2.2,4.669-6.77,4.669-6.722-4.653-6.722-4.653Z" transform="translate(-65.608 -206.898)" fill="url(#linear-gradient)"/>
                  <path id="Trazado_119682" data-name="Trazado 119682" d="M72.938,207.256c-.569,0-1.534-.606-2.71-.242a31.589,31.589,0,0,1-4.531.379c-.364.081.087,1.117,7.241,1.117s7.606-1.036,7.242-1.117a31.6,31.6,0,0,1-4.532-.379C74.473,206.65,73.508,207.256,72.938,207.256Z" transform="translate(-65.608 -206.898)" fill="#bb1e47"/>
                  <path id="Trazado_119683" data-name="Trazado 119683" d="M72.937,212.13a6.983,6.983,0,0,0,4.276-1.169c-.4.926-1.764,2.125-4.276,2.125s-3.88-1.2-4.277-2.125A6.988,6.988,0,0,0,72.937,212.13Z" transform="translate(-65.608 -206.898)" fill="#bb1e47"/>
                </g>
              </g>
            </g>
          </g>
        </g>
      </g>
      <g id="Grupo_56237" data-name="Grupo 56237" transform="translate(129.705 111.7)">
        <circle id="Elipse_4224" data-name="Elipse 4224" cx="49.147" cy="49.147" r="49.147" transform="translate(0 8.81)" fill="#ccdff9"/>
        <g id="Grupo_56236" data-name="Grupo 56236" transform="translate(0.56)">
          <g id="Grupo_56235" data-name="Grupo 56235" clip-path="url(#clip-path-2)">
            <g id="Grupo_56234" data-name="Grupo 56234" transform="translate(7.695 6.07)">
              <g id="Grupo_56218" data-name="Grupo 56218" transform="translate(0 61.576)">
                <path id="Trazado_119685" data-name="Trazado 119685" d="M227.629,238.224c-3.212-4.731-15.66-7.048-20.6-8.032a11.264,11.264,0,0,1-3.694-.961c-.814-.52-.947-1.4-1.046-2.743-.171-2.3.106-8.027,0-9.471h-25.5c-.106,1.444.171,3.906,0,6.21-.1,1.345-.23,5.482-1.045,6a11.239,11.239,0,0,1-3.695.962c-4.939.984-17.387,3.3-20.6,8.032-3.363,4.956-4.076,13.414-4.076,13.414s17.066,7.069,42.167,7.069,42.167-7.069,42.167-7.069S230.992,243.18,227.629,238.224Z" transform="translate(-147.371 -217.017)" fill="#ffbf91"/>
                <path id="Trazado_119686" data-name="Trazado 119686" d="M176.786,223.227c-.049.663-.106,2-.248,3.256,11.377,3.555,22.391-2.6,25.74-5.709.018-.942.034-1.828.036-2.534,0-.416,0-.765-.014-1.006,0-.076-.006-.156-.01-.217h-25.5C176.68,218.461,176.957,220.923,176.786,223.227Z" transform="translate(-147.371 -217.017)" fill="#ffac70"/>
              </g>
              <g id="Grupo_56219" data-name="Grupo 56219" transform="translate(13.344 34.498)">
                <path id="Trazado_119687" data-name="Trazado 119687" d="M169.426,192.169s-2.825-4.023-6.7-1.262c-1.758,1.252-3.24,5.982-.488,10.69,2.694,4.606,7.438,5.216,8.96,2.862Z" transform="translate(-160.715 -189.939)" fill="#ffbf91"/>
                <path id="Trazado_119688" data-name="Trazado 119688" d="M169.426,192.169s-2.825-4.023-6.7-1.262c-1.021.727-1.943,2.631-2,5.019.065-.334.812-3.847,3.649-4.469,2.978-.654,5.124,3,5.124,2.9,0-.022.035-.455.087-1.091Z" transform="translate(-160.715 -189.939)" fill="#ffac70"/>
                <path id="Trazado_119689" data-name="Trazado 119689" d="M162.853,196.641c.295-1.868,1.435-2.718,2.924-2.624s2.359,2.1,2.423,4.062a1.607,1.607,0,0,0-1.89,1.574,1.7,1.7,0,0,0,2.2,1.795s-.121.9-1.664,1.011C164.985,202.588,162.337,199.442,162.853,196.641Z" transform="translate(-160.715 -189.939)" fill="#ffac70"/>
              </g>
              <g id="Grupo_56220" data-name="Grupo 56220" transform="translate(60.507 34.498)">
                <path id="Trazado_119690" data-name="Trazado 119690" d="M209.65,192.169s2.826-4.023,6.7-1.262c1.758,1.252,3.241,5.982.488,10.69-2.694,4.606-7.438,5.216-8.96,2.862Z" transform="translate(-207.878 -189.939)" fill="#ffbf91"/>
                <path id="Trazado_119691" data-name="Trazado 119691" d="M216.149,202.619a10.588,10.588,0,0,0,.689-1.022c2.753-4.708,1.27-9.438-.488-10.69a5,5,0,0,0-2.109-.914C216.607,190.585,219.481,195.71,216.149,202.619Z" transform="translate(-207.878 -189.939)" fill="#fddac1"/>
                <path id="Trazado_119692" data-name="Trazado 119692" d="M216.223,196.641c-.3-1.868-1.435-2.718-2.924-2.624s-2.359,2.1-2.423,4.062a1.607,1.607,0,0,1,1.89,1.574,1.7,1.7,0,0,1-2.2,1.795s.121.9,1.664,1.011C214.091,202.588,216.739,199.442,216.223,196.641Z" transform="translate(-207.878 -189.939)" fill="#ffac70"/>
              </g>
              <g id="Grupo_56221" data-name="Grupo 56221" transform="translate(21.358 11.983)">
                <path id="Trazado_119693" data-name="Trazado 119693" d="M189.538,222.512c-6.583,0-14.485-5.536-16.921-8.429-2.586-3.071-2.958-18.453-3.371-23.921-1.189-15.7,9.085-22.738,20.292-22.738s21.48,7.041,20.293,22.738c-.414,5.468-1.6,20.85-4.187,23.921C203.208,216.976,196.121,222.512,189.538,222.512Z" transform="translate(-168.729 -167.424)" fill="#ffbf91"/>
                <path id="Trazado_119694" data-name="Trazado 119694" d="M205.644,214.083c2.585-3.071,3.773-18.453,4.187-23.921l-4.569,14.7a2.421,2.421,0,0,1-2.642,1.678l-13.082-1.81-13.082,1.81a2.421,2.421,0,0,1-2.642-1.678l-4.568-14.7c.413,5.468.785,20.85,3.371,23.921,2.436,2.893,10.338,8.429,16.921,8.429S203.208,216.976,205.644,214.083Z" transform="translate(-168.729 -167.424)" fill="#a25858" opacity="0.15"/>
                <path id="Trazado_119695" data-name="Trazado 119695" d="M203.326,171.747s-3.4,4.237-11.215,5.387-15.738-2.693-15.738-2.693-.457,4.831-2.841,7.3-4.2,3.09-4.286,4.176a12.113,12.113,0,0,1,0-7.083c1.162-4,3.793-7.944,11.849-8.438S203.326,171.747,203.326,171.747Z" transform="translate(-168.729 -167.424)" fill="#ffac70"/>
              </g>
              <g id="Grupo_56223" data-name="Grupo 56223" transform="translate(17.379 10.352)">
                <path id="Trazado_119696" data-name="Trazado 119696" d="M169.274,185.1c.569-1.436,2.954-2.252,4.333-5.7a46.5,46.5,0,0,0,2.143-7.653l-3.375-5.954a10.411,10.411,0,0,0-6.3,4.825c-1.411,2.691-1.722,12.967-.815,17.864.378,2.039,2.675,7.592,4.745,7.724l-.582-4.037A33.786,33.786,0,0,1,169.274,185.1Z" transform="translate(-164.75 -165.793)" fill="#502b3b"/>
                <g id="Grupo_56222" data-name="Grupo 56222" transform="translate(38.576 2.666)">
                  <path id="Trazado_119697" data-name="Trazado 119697" d="M209.8,185.1c-.569-1.436-2.954-2.252-4.333-5.7a46.5,46.5,0,0,1-2.143-7.653l4.552-1.927s3.214.209,4.984,4.151c1.19,2.652,1.858,9.614.951,14.511-.378,2.039-2.675,7.592-4.745,7.724l.582-4.037A33.785,33.785,0,0,0,209.8,185.1Z" transform="translate(-203.326 -168.459)" fill="#603748"/>
                  <path id="Trazado_119698" data-name="Trazado 119698" d="M207.878,169.82a5.937,5.937,0,0,1,4.69-1.259c2.615.543-3.363,2.955-3.363,2.955Z" transform="translate(-203.326 -168.459)" fill="#603748"/>
                  <path id="Trazado_119699" data-name="Trazado 119699" d="M213.813,188.482a34.649,34.649,0,0,0-.389-12.783c-1.6-2.262-4.058-2.81-4.616-.5s2.151,5.628,2.961,7.99c.935,2.727,1.085,8.839-1.928,12.738C211.676,194.755,213.481,190.269,213.813,188.482Z" transform="translate(-203.326 -168.459)" fill="#713f55"/>
                </g>
              </g>
              <g id="Grupo_56225" data-name="Grupo 56225" transform="translate(37.511 34.156)">
                <path id="Trazado_119700" data-name="Trazado 119700" d="M194.007,203.848c-.494-1.288-2.464-14.251-4.469-14.251s-3.975,12.963-4.469,14.251.149,1.766.149,1.766l.681-.128c1.111-.392,3.092,1.031,3.639,1.144h0c.547-.113,2.527-1.536,3.639-1.144l.681.128S194.5,205.136,194.007,203.848Z" transform="translate(-184.882 -189.597)" fill="#ffb682"/>
                <path id="Trazado_119701" data-name="Trazado 119701" d="M191.267,203.638a.5.5,0,0,1-.256.62c-.209.061-.434-.118-.5-.4a.5.5,0,0,1,.256-.62C190.974,203.178,191.2,203.357,191.267,203.638Z" transform="translate(-184.882 -189.597)" fill="#fff" opacity="0.3"/>
                <g id="Grupo_56224" data-name="Grupo 56224" transform="translate(0.169 15.188)">
                  <path id="Trazado_119702" data-name="Trazado 119702" d="M192.656,205.482a2.555,2.555,0,0,0-1.291.16,3.021,3.021,0,0,1-3.651,0,2.555,2.555,0,0,0-1.291-.16c-.019,0-.038.05-.014.052,1.135.1,1.731.981,2.787,1.249a1.5,1.5,0,0,0,.687,0c1.056-.268,1.652-1.15,2.787-1.249C192.694,205.532,192.675,205.485,192.656,205.482Z" transform="translate(-185.051 -204.785)" fill="#502b3b"/>
                  <path id="Trazado_119703" data-name="Trazado 119703" d="M192.32,205.829a3.817,3.817,0,0,0,1,.044c.465-.047,1.113-.565.383-.939a1.37,1.37,0,0,0-1.461.154,3.3,3.3,0,0,1-.772.514Z" transform="translate(-185.051 -204.785)" fill="#502b3b"/>
                  <path id="Trazado_119704" data-name="Trazado 119704" d="M186.759,205.829a3.826,3.826,0,0,1-1,.044c-.464-.047-1.112-.565-.382-.939a1.369,1.369,0,0,1,1.46.154,3.326,3.326,0,0,0,.773.514Z" transform="translate(-185.051 -204.785)" fill="#502b3b"/>
                </g>
              </g>
              <g id="Grupo_56227" data-name="Grupo 56227" transform="translate(47.565 31.956)">
                <path id="Trazado_119705" data-name="Trazado 119705" d="M204.487,190.941s-.234-4.205-5.409-3.454-4.035,5.726-4.036,5.75a5.751,5.751,0,0,1,4.513-3.932C203.1,188.791,204.487,190.941,204.487,190.941Z" transform="translate(-194.936 -187.397)" fill="#ffac70"/>
                <path id="Trazado_119706" data-name="Trazado 119706" d="M195.273,193.455c-.116-.8.641-2.97,3.9-3.637,3.836-.786,5.268,1.505,5.268,1.505s.117,2.678-3.4,3.662A5.619,5.619,0,0,1,195.273,193.455Z" transform="translate(-194.936 -187.397)" fill="#fff"/>
                <g id="Grupo_56226" data-name="Grupo 56226" transform="translate(1.797 2.257)">
                  <path id="Trazado_119707" data-name="Trazado 119707" d="M201.945,191.9a2.62,2.62,0,1,0-2.216,2.969A2.619,2.619,0,0,0,201.945,191.9Z" transform="translate(-196.732 -189.654)" fill="#502b3b"/>
                  <path id="Trazado_119708" data-name="Trazado 119708" d="M198.078,192.459a1.288,1.288,0,1,1,1.459,1.089A1.288,1.288,0,0,1,198.078,192.459Z" transform="translate(-196.732 -189.654)" fill="#391c2b"/>
                  <path id="Trazado_119709" data-name="Trazado 119709" d="M199.615,191.44a.633.633,0,1,1,.716.535A.632.632,0,0,1,199.615,191.44Z" transform="translate(-196.732 -189.654)" fill="#fff"/>
                </g>
                <path id="Trazado_119710" data-name="Trazado 119710" d="M195.232,193.482a4.767,4.767,0,0,1,1.575-2.477,6.878,6.878,0,0,1,5.143-1.1,5.852,5.852,0,0,1,2.4,1.289c.3.263.253-.579-.6-1.335a5.766,5.766,0,0,0-4.64-.85,4.417,4.417,0,0,0-3.566,2.433C194.878,192.724,194.955,193.509,195.232,193.482Z" transform="translate(-194.936 -187.397)" fill="#412130"/>
              </g>
              <g id="Grupo_56229" data-name="Grupo 56229" transform="translate(27.191 31.956)">
                <path id="Trazado_119711" data-name="Trazado 119711" d="M174.589,190.941s.234-4.205,5.41-3.454,4.034,5.726,4.035,5.75a5.751,5.751,0,0,0-4.513-3.932C175.975,188.791,174.589,190.941,174.589,190.941Z" transform="translate(-174.562 -187.397)" fill="#f08a6b"/>
                <path id="Trazado_119712" data-name="Trazado 119712" d="M183.8,193.455c.116-.8-.641-2.97-3.9-3.637-3.837-.786-5.269,1.505-5.269,1.505s-.117,2.678,3.4,3.662A5.619,5.619,0,0,0,183.8,193.455Z" transform="translate(-174.562 -187.397)" fill="#fff"/>
                <g id="Grupo_56228" data-name="Grupo 56228" transform="translate(2.542 2.257)">
                  <path id="Trazado_119713" data-name="Trazado 119713" d="M177.131,191.9a2.62,2.62,0,1,1,2.217,2.969A2.619,2.619,0,0,1,177.131,191.9Z" transform="translate(-177.103 -189.654)" fill="#502b3b"/>
                  <path id="Trazado_119714" data-name="Trazado 119714" d="M181,192.459a1.288,1.288,0,1,0-1.459,1.089A1.288,1.288,0,0,0,181,192.459Z" transform="translate(-177.103 -189.654)" fill="#391c2b"/>
                  <path id="Trazado_119715" data-name="Trazado 119715" d="M179.461,191.44a.633.633,0,1,0-.716.535A.632.632,0,0,0,179.461,191.44Z" transform="translate(-177.103 -189.654)" fill="#fff"/>
                </g>
                <path id="Trazado_119716" data-name="Trazado 119716" d="M183.844,193.482a4.767,4.767,0,0,0-1.575-2.477,6.877,6.877,0,0,0-5.143-1.1,5.852,5.852,0,0,0-2.4,1.289c-.3.263-.252-.579.6-1.335a5.766,5.766,0,0,1,4.64-.85,4.417,4.417,0,0,1,3.566,2.433C184.2,192.724,184.121,193.509,183.844,193.482Z" transform="translate(-174.562 -187.397)" fill="#412130"/>
              </g>
              <path id="Trazado_119717" data-name="Trazado 119717" d="M209.724,191.457s-2.353,13.995-3.24,18.027-2.815,6.187-6.733,8.85-7.76,4.178-10.213,4.178c6.583,0,13.67-5.536,16.106-8.429,2.4-2.855,3.6-16.343,4.087-22.622Z" transform="translate(-147.371 -155.441)" fill="#fddac1"/>
              <g id="Grupo_56230" data-name="Grupo 56230" transform="translate(18.784)">
                <path id="Trazado_119718" data-name="Trazado 119718" d="M207.878,169.82s.207-4.852-5.507-6.81c-4.519-1.549-21.75-3.1-27.332-5.156s-9.584-3.947-8.782,1.96c.854,6.28,3.993,10.782,11.424,13.828,7.729,3.168,19.836,2.434,25.645-1.9Z" transform="translate(-166.155 -155.441)" fill="#603748"/>
                <path id="Trazado_119719" data-name="Trazado 119719" d="M204.257,163.87c-2.822-1.909-13.535-3.879-18.359-5.927-4.937-2.095-7.512-3.845-7-1.065a8.26,8.26,0,0,0,2.214,3.758C188.092,165.249,196.054,165.14,204.257,163.87Z" transform="translate(-166.155 -155.441)" fill="#603748"/>
                <path id="Trazado_119720" data-name="Trazado 119720" d="M179.974,155.488c-.92-.182-1.3.159-1.073,1.39a6.2,6.2,0,0,0,.962,2.214,10.154,10.154,0,0,0,6.164,2.231C181.046,159.8,179.364,155.47,179.974,155.488Z" transform="translate(-166.155 -155.441)" fill="#502b3b"/>
                <path id="Trazado_119721" data-name="Trazado 119721" d="M204.257,163.87h0l-.006,0-.007,0c-2.491-1.673-11.023-3.393-16.333-5.171,2.862,1.142,6.8,3.243,6.117,7.1-.877,4.928-15.7.488-18.278,1.332s-.878,6.173,6.679,7.891c7.307,1.391,16.179.247,20.9-3.269h0l.137-.058.159-.067,1.377-.583,2.615-1.107.264-.112A7.013,7.013,0,0,0,204.257,163.87Z" transform="translate(-166.155 -155.441)" fill="#713f55"/>
                <path id="Trazado_119722" data-name="Trazado 119722" d="M207.878,169.82a22.819,22.819,0,0,0,.9-4.1c.253-2.17-1.278-1.361-2.385.639S207.878,169.82,207.878,169.82Z" transform="translate(-166.155 -155.441)" fill="#713f55"/>
              </g>
              <g id="Grupo_56231" data-name="Grupo 56231" transform="translate(0 73.786)">
                <path id="Trazado_119723" data-name="Trazado 119723" d="M227.629,238.224c-3.212-4.731-15.66-7.048-20.6-8.032l-.208-.042c-2,5.143-9.126,9.213-17.283,9.213s-15.278-4.071-17.282-9.214h0l-.214.044c-4.939.984-17.387,3.3-20.6,8.032-3.363,4.956-4.076,13.414-4.076,13.414s17.066,7.069,42.167,7.069,42.167-7.069,42.167-7.069S230.992,243.18,227.629,238.224Z" transform="translate(-147.371 -229.227)" fill="#ecf8f8"/>
                <path id="Trazado_119724" data-name="Trazado 119724" d="M206.822,230.15a22.49,22.49,0,0,1-3.487-.923h-.007c-1.124,3.608-6.761,6.881-13.789,6.881s-12.664-3.273-13.789-6.881h-.009a22.629,22.629,0,0,1-3.484.921c2,5.143,9.126,9.214,17.282,9.214S204.818,235.293,206.822,230.15Z" transform="translate(-147.371 -229.227)" fill="#4067ab"/>
                <path id="Trazado_119725" data-name="Trazado 119725" d="M219.952,233.469c-2.806,2.766-4.748,8.594-4.166,15.49s1.262,6.836,1.264,6.846c7.006-1.635,14.655-4.167,14.655-4.167s-.713-8.458-4.076-13.414C226.282,236.241,223.311,234.683,219.952,233.469Z" transform="translate(-147.371 -229.227)" fill="#4067ab"/>
                <path id="Trazado_119726" data-name="Trazado 119726" d="M163.292,248.959c.583-6.9-1.359-12.724-4.166-15.491h0c-3.359,1.214-6.331,2.772-7.678,4.756-3.363,4.956-4.076,13.414-4.076,13.414s7.65,2.533,14.657,4.167C162.029,255.8,162.71,255.851,163.292,248.959Z" transform="translate(-147.371 -229.227)" fill="#4067ab"/>
                <path id="Trazado_119727" data-name="Trazado 119727" d="M216.025,242.273a27.356,27.356,0,0,0-.239,6.686c.582,6.885,1.262,6.836,1.264,6.846,1.333-.311,2.689-.655,4.011-1.007C218.065,252.686,216.037,242.335,216.025,242.273Z" transform="translate(-147.371 -229.227)" fill="#335292"/>
                <path id="Trazado_119728" data-name="Trazado 119728" d="M163.053,242.273a27.306,27.306,0,0,1,.239,6.686c-.582,6.885-1.262,6.836-1.264,6.846-1.333-.311-2.688-.655-4.011-1.007C161.014,252.686,163.041,242.335,163.053,242.273Z" transform="translate(-147.371 -229.227)" fill="#335292"/>
                <path id="Trazado_119729" data-name="Trazado 119729" d="M207.03,230.192a16.008,16.008,0,0,1-3.282-.741c2.641,1.311,10.4,3.109,15.934,5.465,5.856,2.492,7.352,6.231,8.473,10.717a8.785,8.785,0,0,1-1.879,7.693l.2.1c3.371-1.026,5.227-1.793,5.227-1.793s-.713-8.458-4.076-13.414C224.417,233.493,211.969,231.176,207.03,230.192Z" transform="translate(-147.371 -229.227)" fill="#def0f7" style="mix-blend-mode: soft-light;isolation: isolate"/>
              </g>
              <g id="Grupo_56233" data-name="Grupo 56233" transform="translate(34.957 53.242)">
                <path id="Trazado_119730" data-name="Trazado 119730" d="M189.538,209.931a14.627,14.627,0,0,0-6.961,2.281s1.721,1.808,6.961,1.808,6.967-1.808,6.967-1.808S192.415,209.931,189.538,209.931Z" transform="translate(-182.328 -208.682)" fill="#502b3b"/>
                <path id="Trazado_119731" data-name="Trazado 119731" d="M189.541,212.189a9.2,9.2,0,0,0-4,.691l4,.835,4-.835A9.2,9.2,0,0,0,189.541,212.189Z" transform="translate(-182.328 -208.682)" fill="#e96078"/>
                <path id="Trazado_119732" data-name="Trazado 119732" d="M184.707,211.23s2.689-.219,4.834-.219,4.831.219,4.831.219-.945-1.62-4.833-1.62S184.707,211.23,184.707,211.23Z" transform="translate(-182.328 -208.682)" fill="#fff"/>
                <path id="Trazado_119733" data-name="Trazado 119733" d="M189.541,213.3c-2.454-.353-4.1-1.272-6.964-1.092,0,0,.8,3.32,6.964,3.32s6.964-3.32,6.964-3.32C193.644,212.032,191.994,212.951,189.541,213.3Z" transform="translate(-182.328 -208.682)" fill="url(#linear-gradient-2)"/>
                <g id="Grupo_56232" data-name="Grupo 56232">
                  <path id="Trazado_119734" data-name="Trazado 119734" d="M192.216,208.7a11.563,11.563,0,0,0-2.677.4,11.543,11.543,0,0,0-2.677-.4c-1.212.091-5.05,3.088-4.476,3.477s3.258-1.812,7.153-1.812,6.58,2.2,7.154,1.812S193.428,208.786,192.216,208.7Z" transform="translate(-182.328 -208.682)" fill="#984338"/>
                  <path id="Trazado_119735" data-name="Trazado 119735" d="M189.541,215.532c-1.126,0-3.582-.541-3.335-.351a5.7,5.7,0,0,0,1.61.746,5.59,5.59,0,0,0,1.723.3h0a5.6,5.6,0,0,0,1.724-.3,5.7,5.7,0,0,0,1.609-.746C193.123,214.991,190.666,215.532,189.541,215.532Z" transform="translate(-182.328 -208.682)" fill="#984338"/>
                </g>
              </g>
              <path id="Trazado_119736" data-name="Trazado 119736" d="M196.254,185.8c-1.967.783-3.339.139-3.569.639a1.717,1.717,0,0,0,.974,2.155c1.662.716,3.7-.315,5.419-1.1s4.467-3.517,7.588-2.936a5.841,5.841,0,0,0-4.852-1.418C199.639,183.6,198.221,185.016,196.254,185.8Z" transform="translate(-147.371 -155.441)" fill="#502b3b"/>
              <path id="Trazado_119737" data-name="Trazado 119737" d="M191.915,185.394a1.988,1.988,0,0,0-1.2,1.235,2.67,2.67,0,0,0,.485,2.176,2.409,2.409,0,0,0,.714.517c.453.187.459.057.231-.411-.157-.322-.365-.5-.5-.8a2.715,2.715,0,0,1-.2-.788,2.644,2.644,0,0,1,.522-1.791C191.984,185.5,191.982,185.365,191.915,185.394Z" transform="translate(-147.371 -155.441)" fill="#ffac70"/>
              <path id="Trazado_119738" data-name="Trazado 119738" d="M187.161,185.394a1.988,1.988,0,0,1,1.205,1.235,2.67,2.67,0,0,1-.485,2.176,2.409,2.409,0,0,1-.714.517c-.453.187-.459.057-.231-.411.157-.322.365-.5.5-.8a2.715,2.715,0,0,0,.2-.788,2.643,2.643,0,0,0-.522-1.791C187.092,185.5,187.094,185.365,187.161,185.394Z" transform="translate(-147.371 -155.441)" fill="#ffac70"/>
              <path id="Trazado_119739" data-name="Trazado 119739" d="M182.822,185.8c1.967.783,3.339.139,3.569.639a1.717,1.717,0,0,1-.974,2.155c-1.662.716-3.7-.315-5.418-1.1s-4.468-3.517-7.589-2.936a5.841,5.841,0,0,1,4.852-1.418C179.437,183.6,180.855,185.016,182.822,185.8Z" transform="translate(-147.371 -155.441)" fill="#502b3b"/>
            </g>
          </g>
        </g>
      </g>
      <g id="Grupo_56252" data-name="Grupo 56252" transform="translate(365.544 111.7)">
        <circle id="Elipse_4225" data-name="Elipse 4225" cx="49.147" cy="49.147" r="49.147" transform="translate(0 8.81)" fill="#ccdff9"/>
        <g id="Grupo_56251" data-name="Grupo 56251" transform="translate(0.56)">
          <g id="Grupo_56250" data-name="Grupo 56250" clip-path="url(#clip-path-3)">
            <g id="Grupo_56249" data-name="Grupo 56249" transform="translate(8.193 7.23)">
              <path id="Trazado_119741" data-name="Trazado 119741" d="M451.746,195.855c3.887-2.267,3.675-4.992,1.072-6.251s-3.144-1.917-.042-6.677-1.438-4.313-3.808-6.752-.5-4.366,0-7.223-3.225-4.515-6.074-5.649-6.781-5.054-9.956-6.3c-2.974-1.169-6.748.549-8.188.957-1.441-.408-5.214-2.126-8.189-.957-3.175,1.247-3.225,4.2-6.073,5.33s-9.6,4.086-9.094,6.944,2.37,4.783,0,7.222-6.91,1.993-3.808,6.753,2.561,5.418-.042,6.677-2.814,3.984,1.072,6.25-2.771,3.067-1.03,5.5,5.491,7.152,24.558,6.471a9.048,9.048,0,0,0,2.606-.463,9.035,9.035,0,0,0,2.605.463c19.068.681,23.68-4.359,25.421-6.795S447.86,198.122,451.746,195.855Z" transform="translate(-383.708 -156.601)" fill="#502b3b"/>
              <g id="Grupo_56238" data-name="Grupo 56238" transform="translate(0 61.745)">
                <path id="Trazado_119742" data-name="Trazado 119742" d="M464.722,239.753c-3.242-4.776-15.807-7.115-20.793-8.108a11.4,11.4,0,0,1-3.728-.97c-.822-.525-.956-1.411-1.057-2.769-.172-2.325.108-8.1,0-9.56H413.4c-.108,1.458.172,3.943,0,6.269-.1,1.357-.233,5.533-1.055,6.059a11.357,11.357,0,0,1-3.73.971c-4.986.993-17.551,3.332-20.793,8.108-3.395,5-4.115,13.54-4.115,13.54s17.227,7.136,42.565,7.136,42.564-7.136,42.564-7.136S468.117,244.755,464.722,239.753Z" transform="translate(-383.708 -218.346)" fill="#ffbf91"/>
                <path id="Trazado_119743" data-name="Trazado 119743" d="M413.4,224.615c-.05.669-.107,2.022-.251,3.286,11.485,3.589,22.6-2.622,25.982-5.763.018-.951.035-1.845.037-2.557,0-.421-.005-.773-.014-1.016,0-.077-.006-.157-.011-.219H413.4C413.293,219.8,413.573,222.289,413.4,224.615Z" transform="translate(-383.708 -218.346)" fill="#ffac70"/>
              </g>
              <g id="Grupo_56239" data-name="Grupo 56239" transform="translate(13.47 34.412)">
                <path id="Trazado_119744" data-name="Trazado 119744" d="M405.971,193.264s-2.852-4.061-6.763-1.274c-1.774,1.264-3.271,6.039-.492,10.791,2.719,4.649,7.507,5.265,9.044,2.888Z" transform="translate(-397.178 -191.013)" fill="#ffbf91"/>
                <path id="Trazado_119745" data-name="Trazado 119745" d="M405.971,193.264s-2.852-4.061-6.763-1.274c-1.03.734-1.961,2.656-2.021,5.066.066-.336.82-3.883,3.683-4.511,3.007-.66,5.173,3.026,5.173,2.929,0-.023.035-.46.088-1.1Z" transform="translate(-397.178 -191.013)" fill="#ffac70"/>
                <path id="Trazado_119746" data-name="Trazado 119746" d="M399.336,197.778c.3-1.886,1.449-2.744,2.952-2.649s2.381,2.115,2.446,4.1a1.623,1.623,0,0,0-1.908,1.59,1.711,1.711,0,0,0,2.222,1.812s-.122.913-1.68,1.02C401.488,203.781,398.815,200.606,399.336,197.778Z" transform="translate(-397.178 -191.013)" fill="#ffac70"/>
              </g>
              <g id="Grupo_56240" data-name="Grupo 56240" transform="translate(61.077 34.412)">
                <path id="Trazado_119747" data-name="Trazado 119747" d="M446.574,193.264s2.852-4.061,6.763-1.274c1.774,1.264,3.271,6.039.492,10.791-2.718,4.649-7.507,5.265-9.044,2.888Z" transform="translate(-444.785 -191.013)" fill="#ffbf91"/>
                <path id="Trazado_119748" data-name="Trazado 119748" d="M453.135,203.812a10.836,10.836,0,0,0,.694-1.031c2.779-4.752,1.282-9.527-.492-10.791a5.033,5.033,0,0,0-2.129-.922C453.6,191.665,456.5,196.839,453.135,203.812Z" transform="translate(-444.785 -191.013)" fill="#fddac1"/>
                <path id="Trazado_119749" data-name="Trazado 119749" d="M453.209,197.778c-.3-1.886-1.449-2.744-2.952-2.649s-2.381,2.115-2.446,4.1a1.623,1.623,0,0,1,1.908,1.59,1.711,1.711,0,0,1-2.222,1.812s.122.913,1.68,1.02C451.057,203.781,453.73,200.606,453.209,197.778Z" transform="translate(-444.785 -191.013)" fill="#ffac70"/>
              </g>
              <g id="Grupo_56241" data-name="Grupo 56241" transform="translate(21.559 11.684)">
                <path id="Trazado_119750" data-name="Trazado 119750" d="M426.273,223.893c-6.646,0-14.622-5.588-17.081-8.508-2.61-3.1-2.985-18.628-3.4-24.147-1.2-15.845,9.171-22.953,20.484-22.953s21.682,7.108,20.483,22.953c-.418,5.519-1.616,21.046-4.226,24.147C440.071,218.3,432.918,223.893,426.273,223.893Z" transform="translate(-405.267 -168.285)" fill="#ffbf91"/>
                <path id="Trazado_119751" data-name="Trazado 119751" d="M442.53,215.385c2.61-3.1,3.808-18.628,4.226-24.147l-4.612,14.839a2.441,2.441,0,0,1-2.666,1.694l-13.2-1.827-13.205,1.827a2.442,2.442,0,0,1-2.667-1.694l-4.612-14.839c.418,5.519.793,21.046,3.4,24.147,2.459,2.92,10.435,8.508,17.081,8.508S440.071,218.3,442.53,215.385Z" transform="translate(-405.267 -168.285)" fill="#502b3b"/>
                <path id="Trazado_119752" data-name="Trazado 119752" d="M440.19,172.649s-3.436,4.277-11.32,5.439-15.887-2.719-15.887-2.719-.461,4.876-2.867,7.366-4.241,3.119-4.327,4.215a12.228,12.228,0,0,1,0-7.15c1.174-4.036,3.829-8.019,11.961-8.517S440.19,172.649,440.19,172.649Z" transform="translate(-405.267 -168.285)" fill="#ffac70"/>
              </g>
              <path id="Trazado_119753" data-name="Trazado 119753" d="M405.818,186.131c.574-1.45,2.981-2.273,4.374-5.756a46.936,46.936,0,0,0,2.163-7.726l-3.407-6.009a10.5,10.5,0,0,0-6.356,4.87c-1.425,2.716-1.739,13.089-.823,18.032.382,2.059,2.7,7.664,4.79,7.8l-.588-4.075A34.145,34.145,0,0,1,405.818,186.131Z" transform="translate(-383.708 -156.601)" fill="#502b3b"/>
              <path id="Trazado_119754" data-name="Trazado 119754" d="M446.727,186.131c-.574-1.45-2.981-2.273-4.374-5.756a47.048,47.048,0,0,1-2.163-7.726l4.6-1.944s3.245.21,5.031,4.189c1.2,2.677,1.876,9.705.96,14.648-.382,2.059-2.7,7.664-4.789,7.8l.587-4.075A34.147,34.147,0,0,0,446.727,186.131Z" transform="translate(-383.708 -156.601)" fill="#502b3b"/>
              <path id="Trazado_119755" data-name="Trazado 119755" d="M447.894,173.127a1.16,1.16,0,0,1,.393-1.757,5.513,5.513,0,0,1,3.553-.522c2.01.418-1.008,1.928-2.564,2.626a1.155,1.155,0,0,1-1.382-.347Z" transform="translate(-383.708 -156.601)" fill="#502b3b"/>
              <path id="Trazado_119756" data-name="Trazado 119756" d="M450.776,189.542a34.966,34.966,0,0,0-.393-12.9c-1.618-2.284-4.1-2.837-4.659-.507s2.172,5.681,2.989,8.065c.944,2.753,1.1,8.923-1.946,12.858C448.619,195.874,450.442,191.346,450.776,189.542Z" transform="translate(-383.708 -156.601)" fill="#713f55"/>
              <path id="Trazado_119757" data-name="Trazado 119757" d="M436.851,200.17c.258,1.267,1.963,1.989,3.807,1.613s3.129-1.707,2.871-2.975-1.962-1.989-3.806-1.613S436.593,198.9,436.851,200.17Z" transform="translate(-383.708 -156.601)" fill="#ff9470"/>
              <path id="Trazado_119758" data-name="Trazado 119758" d="M415.694,200.17c-.258,1.267-1.962,1.989-3.807,1.613s-3.129-1.707-2.871-2.975,1.963-1.989,3.807-1.613S415.952,198.9,415.694,200.17Z" transform="translate(-383.708 -156.601)" fill="#ff9470"/>
              <g id="Grupo_56242" data-name="Grupo 56242" transform="translate(47.717 34.449)">
                <path id="Trazado_119759" data-name="Trazado 119759" d="M441.4,195.634a4.207,4.207,0,0,0-4.25-4.567c-4.632-.336-5.577,4.435-5.584,4.459a5.963,5.963,0,0,1,5.264-2.076C440.438,193.711,441.4,195.634,441.4,195.634Z" transform="translate(-431.425 -191.05)" fill="#ffac70"/>
                <path id="Trazado_119760" data-name="Trazado 119760" d="M431.546,195.822c.121.026.656-.326,2.47-.833a9.431,9.431,0,0,1,4.62-.036,7.008,7.008,0,0,1,2.489,1.163c.337.221.669.01.2-.783-.446-.763-1.188-1.6-3.448-1.972a6.646,6.646,0,0,0-5.318,1.169C431.4,195.407,431.271,195.764,431.546,195.822Z" transform="translate(-431.425 -191.05)" fill="#412130"/>
              </g>
              <g id="Grupo_56243" data-name="Grupo 56243" transform="translate(27.278 34.449)">
                <path id="Trazado_119761" data-name="Trazado 119761" d="M411.145,195.634a4.207,4.207,0,0,1,4.25-4.567c4.633-.336,5.578,4.435,5.584,4.459a5.961,5.961,0,0,0-5.264-2.076C412.107,193.711,411.145,195.634,411.145,195.634Z" transform="translate(-410.986 -191.05)" fill="#ffac70"/>
                <path id="Trazado_119762" data-name="Trazado 119762" d="M421,195.822c-.121.026-.656-.326-2.47-.833a9.431,9.431,0,0,0-4.62-.036,7,7,0,0,0-2.488,1.163c-.338.221-.67.01-.206-.783.447-.763,1.188-1.6,3.448-1.972a6.646,6.646,0,0,1,5.318,1.169C421.141,195.407,421.274,195.764,421,195.822Z" transform="translate(-410.986 -191.05)" fill="#412130"/>
              </g>
              <path id="Trazado_119763" data-name="Trazado 119763" d="M446.649,192.545s-2.375,14.127-3.271,18.2-2.841,6.245-6.8,8.933-7.834,4.218-10.309,4.218c6.645,0,13.8-5.588,16.257-8.508,2.426-2.882,3.632-16.5,4.126-22.835Z" transform="translate(-383.708 -156.601)" fill="#502b3b"/>
              <path id="Trazado_119764" data-name="Trazado 119764" d="M444.785,170.705s.209-4.9-5.558-6.875c-4.562-1.563-18.594.378-24.228-1.7s-8.536,2.064-7.726,8.027c.861,6.339-.47,1.332,7.031,4.407,7.8,3.2,20.023,2.458,25.886-1.913Z" transform="translate(-383.708 -156.601)" fill="#502b3b"/>
              <path id="Trazado_119765" data-name="Trazado 119765" d="M441.13,164.7h0l-.006,0-.007,0c-2.514-1.689-11.127-3.425-16.487-5.22,2.889,1.153,6.867,3.274,6.175,7.169-.885,4.973-15.851.492-18.45,1.344s-.887,6.231,6.742,7.965c7.376,1.4,16.331.25,21.093-3.3h0l.139-.058.16-.068,1.39-.588,2.64-1.118.266-.112A7.079,7.079,0,0,0,441.13,164.7Z" transform="translate(-383.708 -156.601)" fill="#713f55"/>
              <path id="Trazado_119766" data-name="Trazado 119766" d="M448.062,167.984a23.09,23.09,0,0,0,.911-4.139c.256-2.19-1.29-1.374-2.407.645S448.062,167.984,448.062,167.984Z" transform="translate(-383.708 -156.601)" fill="#502b3b"/>
              <g id="Grupo_56244" data-name="Grupo 56244" transform="translate(0 74.069)">
                <path id="Trazado_119767" data-name="Trazado 119767" d="M464.722,239.753c-3.242-4.776-15.807-7.115-20.793-8.108l-.21-.043c-2.023,5.191-9.211,9.3-17.445,9.3s-15.423-4.11-17.446-9.3h0l-.216.044c-4.986.993-17.551,3.332-20.793,8.108-3.395,5-4.115,13.54-4.115,13.54s17.227,7.136,42.565,7.136,42.564-7.136,42.564-7.136S468.117,244.755,464.722,239.753Z" transform="translate(-383.708 -230.67)" fill="#339266"/>
                <path id="Trazado_119768" data-name="Trazado 119768" d="M443.719,231.6a22.666,22.666,0,0,1-3.52-.931h-.006c-1.135,3.643-6.825,6.946-13.919,6.946s-12.784-3.3-13.919-6.946h-.01a22.625,22.625,0,0,1-3.517.931c2.023,5.191,9.213,9.3,17.446,9.3S441.7,236.793,443.719,231.6Z" transform="translate(-383.708 -230.67)" fill="#17422e"/>
                <path id="Trazado_119769" data-name="Trazado 119769" d="M456.973,234.952c-2.833,2.793-4.793,8.676-4.2,15.636s1.274,6.9,1.276,6.911c7.072-1.65,14.793-4.206,14.793-4.206s-.72-8.538-4.115-13.54C463.363,237.751,460.364,236.178,456.973,234.952Z" transform="translate(-383.708 -230.67)" fill="#1f593e"/>
                <path id="Trazado_119770" data-name="Trazado 119770" d="M399.78,250.588c.588-6.96-1.373-12.843-4.206-15.636h0c-3.392,1.226-6.392,2.8-7.751,4.8-3.395,5-4.115,13.54-4.115,13.54s7.722,2.557,14.8,4.207C398.5,257.5,399.192,257.546,399.78,250.588Z" transform="translate(-383.708 -230.67)" fill="#1f593e"/>
                <path id="Trazado_119771" data-name="Trazado 119771" d="M453.009,243.84a27.607,27.607,0,0,0-.241,6.748c.587,6.95,1.274,6.9,1.276,6.911,1.345-.314,2.714-.661,4.049-1.016C455.068,254.35,453.021,243.9,453.009,243.84Z" transform="translate(-383.708 -230.67)" fill="#17422e"/>
                <path id="Trazado_119772" data-name="Trazado 119772" d="M399.539,243.84a27.607,27.607,0,0,1,.241,6.748c-.588,6.95-1.274,6.9-1.276,6.911-1.346-.314-2.714-.661-4.049-1.016C397.48,254.35,399.526,243.9,399.539,243.84Z" transform="translate(-383.708 -230.67)" fill="#17422e"/>
                <path id="Trazado_119773" data-name="Trazado 119773" d="M443.929,231.645a16.1,16.1,0,0,1-3.313-.749c2.666,1.324,10.495,3.14,16.084,5.518,5.912,2.515,7.421,6.289,8.553,10.817a8.866,8.866,0,0,1-1.9,7.765l.2.107c3.4-1.036,5.277-1.81,5.277-1.81s-.72-8.538-4.115-13.54C461.48,234.977,448.915,232.638,443.929,231.645Z" transform="translate(-383.708 -230.67)" fill="#def0f7" style="mix-blend-mode: soft-light;isolation: isolate"/>
              </g>
              <g id="Grupo_56246" data-name="Grupo 56246" transform="translate(34.4 54.21)">
                <path id="Trazado_119774" data-name="Trazado 119774" d="M426.16,211.869c-2.95,0-7.731-.337-7.731-.337s.892,5.677,7.731,5.677,7.73-5.677,7.73-5.677S429.11,211.869,426.16,211.869Z" transform="translate(-418.108 -210.811)" fill="url(#linear-gradient-3)"/>
                <path id="Trazado_119775" data-name="Trazado 119775" d="M426.188,211.645c-1.4,0-7.056-.23-7.056-.23s.85,3.062,7.029,3.062,7.029-3.019,7.029-3.019Z" transform="translate(-418.108 -210.811)" fill="#502b3b"/>
                <path id="Trazado_119776" data-name="Trazado 119776" d="M426.16,211.663l-5.353.265a2.24,2.24,0,0,1,.045,1.37,10.123,10.123,0,0,0,5.306,1.179h.006a10.232,10.232,0,0,0,5.309-1.164,2.217,2.217,0,0,1,.039-1.385Z" transform="translate(-418.108 -210.811)" fill="#fff"/>
                <g id="Grupo_56245" data-name="Grupo 56245">
                  <path id="Trazado_119777" data-name="Trazado 119777" d="M434.2,211.113c-.134-.3-.965.228-1.662.169-1.161-.1-2.565-.394-3.406-.457a12.861,12.861,0,0,0-2.972.444,12.863,12.863,0,0,0-2.973-.444c-.841.063-2.245.36-3.406.457-.7.059-1.521-.471-1.662-.169-.09.193.193,1.353,8.041,1.353S434.287,211.307,434.2,211.113Z" transform="translate(-418.108 -210.811)" fill="#984338"/>
                  <path id="Trazado_119778" data-name="Trazado 119778" d="M426.16,217.978a4.048,4.048,0,0,0,1.795-.427,13.88,13.88,0,0,0,1.836-1.013,10.141,10.141,0,0,1-7.263,0,13.739,13.739,0,0,0,1.836,1.016A4.049,4.049,0,0,0,426.16,217.978Z" transform="translate(-418.108 -210.811)" fill="#984338"/>
                </g>
              </g>
              <path id="Trazado_119779" data-name="Trazado 119779" d="M437.384,184.825c-2.724-.489-6.307.408-5.932,1.819.388,1.456,3.054.212,6.282.719,2.96.464,4.733,1.514,5.572,3.682.1.266.366.257.361-.029a5.556,5.556,0,0,0-1.005-3.435C441.379,185.954,439.73,185.247,437.384,184.825Z" transform="translate(-383.708 -156.601)" fill="#502b3b"/>
              <path id="Trazado_119780" data-name="Trazado 119780" d="M415.162,184.825c2.723-.489,6.307.408,5.931,1.819-.388,1.456-3.054.212-6.281.719-2.961.464-4.734,1.514-5.573,3.682-.1.266-.365.257-.361-.029a5.558,5.558,0,0,1,1.006-3.435C411.166,185.954,412.816,185.247,415.162,184.825Z" transform="translate(-383.708 -156.601)" fill="#502b3b"/>
              <g id="Grupo_56248" data-name="Grupo 56248" transform="translate(37.865 34.067)">
                <path id="Trazado_119781" data-name="Trazado 119781" d="M430.784,205.053c-.5-1.3-2.487-14.385-4.511-14.385s-4.013,13.085-4.512,14.385.151,1.783.151,1.783l.688-.13c1.121-.395,3.121,1.041,3.673,1.155h0c.551-.114,2.551-1.55,3.673-1.155l.688.13S431.283,206.353,430.784,205.053Z" transform="translate(-421.573 -190.668)" fill="#ffac70"/>
                <path id="Trazado_119782" data-name="Trazado 119782" d="M428.018,204.841a.505.505,0,0,1-.258.626c-.212.061-.439-.119-.508-.4a.505.505,0,0,1,.258-.626C427.722,204.377,427.949,204.557,428.018,204.841Z" transform="translate(-421.573 -190.668)" fill="#fff" opacity="0.3"/>
                <g id="Grupo_56247" data-name="Grupo 56247" transform="translate(0.17 15.33)">
                  <path id="Trazado_119783" data-name="Trazado 119783" d="M429.42,206.7a2.572,2.572,0,0,0-1.3.161,3.046,3.046,0,0,1-3.684,0,2.572,2.572,0,0,0-1.3-.161c-.019,0-.038.05-.014.052,1.146.1,1.747.99,2.813,1.261a1.564,1.564,0,0,0,.694,0c1.066-.271,1.667-1.161,2.813-1.261C429.458,206.753,429.439,206.705,429.42,206.7Z" transform="translate(-421.743 -205.998)" fill="#502b3b"/>
                  <path id="Trazado_119784" data-name="Trazado 119784" d="M429.081,207.053a3.937,3.937,0,0,0,1.006.044c.468-.048,1.123-.571.386-.948A1.384,1.384,0,0,0,429,206.3a3.345,3.345,0,0,1-.779.518Z" transform="translate(-421.743 -205.998)" fill="#502b3b"/>
                  <path id="Trazado_119785" data-name="Trazado 119785" d="M423.467,207.053a3.932,3.932,0,0,1-1.005.044c-.469-.048-1.124-.571-.387-.948a1.384,1.384,0,0,1,1.475.156,3.345,3.345,0,0,0,.779.518Z" transform="translate(-421.743 -205.998)" fill="#502b3b"/>
                </g>
              </g>
            </g>
          </g>
        </g>
      </g>
      <g id="Grupo_56266" data-name="Grupo 56266" transform="translate(247.625 111.7)">
        <circle id="Elipse_4226" data-name="Elipse 4226" cx="49.147" cy="49.147" r="49.147" transform="translate(0 8.81)" fill="#ccdff9"/>
        <g id="Grupo_56265" data-name="Grupo 56265" transform="translate(0.559)">
          <g id="Grupo_56264" data-name="Grupo 56264" clip-path="url(#clip-path-4)">
            <g id="Grupo_56263" data-name="Grupo 56263" transform="translate(8.955 2.51)">
              <g id="Grupo_56253" data-name="Grupo 56253" transform="translate(0 66.543)">
                <path id="Trazado_119787" data-name="Trazado 119787" d="M309.668,227.491a56.915,56.915,0,0,1,7.812-.807c0-2.489.082-5.517.082-8.26H300.11c0,2.815.084,5.928.082,8.452A25.343,25.343,0,0,0,309.668,227.491Z" transform="translate(-266.55 -218.424)" fill="#ffbf91"/>
                <path id="Trazado_119788" data-name="Trazado 119788" d="M340.435,238.524c-5.559-9.4-12.607-7.492-16.309-6.883-3.556.586-6.375.951-6.564-1.607-.065-.88-.084-2.045-.082-3.35a56.915,56.915,0,0,0-7.812.807,25.343,25.343,0,0,1-9.476-.615c0,1.225-.02,2.322-.082,3.158-.189,2.558-3.008,2.193-6.563,1.607-3.7-.609-10.75-2.514-16.309,6.883-5.931,10.026-10.688,18.061-10.688,18.061s14.42,6.942,42.286,6.942,42.286-6.942,42.286-6.942S346.365,248.55,340.435,238.524Z" transform="translate(-266.55 -218.424)" fill="#fff2f0"/>
              </g>
              <path id="Trazado_119789" data-name="Trazado 119789" d="M330.682,188.771c-5.107-9.269.073-10.583,1.65-17.969.48-2.248-1.07-6.928-4.153-8.81a14.8,14.8,0,0,1,8.561,12.243c.507,5.473-1.486,13.421-1.486,13.421l-3.946,1.867A4.369,4.369,0,0,1,330.682,188.771Z" transform="translate(-266.55 -151.881)" fill="#5a2639"/>
              <g id="Grupo_56254" data-name="Grupo 56254" transform="translate(62.967 35.293)">
                <path id="Trazado_119790" data-name="Trazado 119790" d="M331.29,189.591s3.01-4.4,7.311-1.332c1.951,1.39,3.838,6.593,0,11.276s-8.933,2.9-9.084.769Z" transform="translate(-329.517 -187.174)" fill="#ffbf91"/>
                <path id="Trazado_119791" data-name="Trazado 119791" d="M338.6,188.259a5.123,5.123,0,0,0-3.219-1.08c.5.039,2.839.4,3.973,3.735a10.625,10.625,0,0,1-.754,8.621C342.439,194.852,340.552,189.649,338.6,188.259Z" transform="translate(-329.517 -187.174)" fill="#ffdbc1"/>
                <path id="Trazado_119792" data-name="Trazado 119792" d="M338.108,192.641a2.777,2.777,0,0,0-2.58-1.721c-1.836.115-2.8,1.909-3.05,3.37a1.983,1.983,0,0,1,2.332,1.942,2.09,2.09,0,0,1-2.715,2.214s.149,1.116,2.052,1.247C336.444,199.852,339.543,196.882,338.108,192.641Z" transform="translate(-329.517 -187.174)" fill="#ffac70"/>
              </g>
              <path id="Trazado_119793" data-name="Trazado 119793" d="M279.473,260.572l5.7-14.234s-7.231,8.573-9.07,13.43C277.14,260.036,278.268,260.306,279.473,260.572Z" transform="translate(-266.55 -151.881)" fill="#bab1af"/>
              <path id="Trazado_119794" data-name="Trazado 119794" d="M338.2,260.572l-5.7-14.234s7.23,8.573,9.069,13.43C340.532,260.036,339.4,260.306,338.2,260.572Z" transform="translate(-266.55 -151.881)" fill="#bab1af"/>
              <path id="Trazado_119795" data-name="Trazado 119795" d="M317.538,220.387c.013-.662.024-1.325.024-1.963H300.11c0,2.372.146,5.088.054,6.837h0C314.256,225.2,317.534,220.392,317.538,220.387Z" transform="translate(-266.55 -151.881)" fill="#ff8c6b"/>
              <path id="Trazado_119796" data-name="Trazado 119796" d="M326.131,231.3v0a12.948,12.948,0,0,1,10.9,5.36c3.373,4.677,12.37,20.623,12.377,20.636l.023-.009,1.687-.707s-4.757-8.035-10.688-18.061C335.761,230.624,330.036,230.712,326.131,231.3Z" transform="translate(-266.55 -151.881)" fill="#e3d8d6"/>
              <path id="Trazado_119797" data-name="Trazado 119797" d="M316.96,263.32a129.213,129.213,0,0,0,21.239-2.748c-3.156-14.6-15.585-28.166-16.02-28.638,0,0,8.313,12.118,9.916,18.556C333.683,256.87,326.652,262.729,316.96,263.32Z" transform="translate(-266.55 -151.881)" fill="#fff2f0"/>
              <g id="Grupo_56255" data-name="Grupo 56255" transform="translate(19.759 13.024)">
                <path id="Trazado_119798" data-name="Trazado 119798" d="M308.836,221.456c-5.655,0-12.279-4.414-16.683-11.46s-5.844-17.567-5.844-22.564a22.528,22.528,0,0,1,45.055,0c0,5-1.441,15.518-5.845,22.564S314.492,221.456,308.836,221.456Z" transform="translate(-286.309 -164.905)" fill="#ffbf91"/>
                <path id="Trazado_119799" data-name="Trazado 119799" d="M298.737,169.766s1.315,9.11-4.145,14.787-8.21,5.038-8.21,5.038Z" transform="translate(-286.309 -164.905)" fill="#ffac70"/>
                <path id="Trazado_119800" data-name="Trazado 119800" d="M298.737,168.407a24.491,24.491,0,0,0,9.526,7.782c6.636,3.112,19.034,4.545,20.616,9.173,0,0,0-5.764-9.662-10.348C312.027,171.6,298.737,168.407,298.737,168.407Z" transform="translate(-286.309 -164.905)" fill="#ffac70"/>
                <path id="Trazado_119801" data-name="Trazado 119801" d="M329.624,193.18c-.815,10.628-6.553,19.505-9.969,22.636a24.343,24.343,0,0,1-9.987,5.6c5.463-.4,11.661-4.716,15.851-11.42,2.608-4.173,4.171-9.559,5.017-14.3l.753-6.1v-.007Z" transform="translate(-286.309 -164.905)" fill="#ffdbc1"/>
              </g>
              <path id="Trazado_119802" data-name="Trazado 119802" d="M314.394,181.568c.4,1,2.722.852,6.177,1.317a9.849,9.849,0,0,1,6.884,3.815s-.681-3.434-5.269-5.413S313.869,180.26,314.394,181.568Z" transform="translate(-266.55 -151.881)" fill="#5a2639"/>
              <path id="Trazado_119803" data-name="Trazado 119803" d="M303.278,181.568c-.4,1-2.722.852-6.176,1.317a9.849,9.849,0,0,0-6.885,3.815s.681-3.434,5.27-5.413S303.8,180.26,303.278,181.568Z" transform="translate(-266.55 -151.881)" fill="#5a2639"/>
              <g id="Grupo_56256" data-name="Grupo 56256" transform="translate(38.246 40.594)">
                <path id="Trazado_119804" data-name="Trazado 119804" d="M312.668,200.469c-.548-1.308-2.3-7.994-3.832-7.994s-3.283,6.686-3.832,7.994.165,1.793.165,1.793l.757-.131s1.946,1.55,2.91,1.55,2.91-1.55,2.91-1.55l.757.131S313.217,201.776,312.668,200.469Z" transform="translate(-304.796 -192.475)" fill="#ffb682"/>
                <path id="Trazado_119805" data-name="Trazado 119805" d="M310.756,200.645a.445.445,0,1,1-.559-.406A.492.492,0,0,1,310.756,200.645Z" transform="translate(-304.796 -192.475)" fill="#fff" opacity="0.3"/>
                <path id="Trazado_119806" data-name="Trazado 119806" d="M309.9,201.754a.218.218,0,1,1,.218.218A.219.219,0,0,1,309.9,201.754Z" transform="translate(-304.796 -192.475)" fill="#fff"/>
                <path id="Trazado_119807" data-name="Trazado 119807" d="M311.519,202.666a1.951,1.951,0,0,0-1.111.157,2.352,2.352,0,0,1-3.141,0,1.948,1.948,0,0,0-1.111-.157c-.016,0-.032.049-.011.051.976.1,1.488.96,2.4,1.223a1.161,1.161,0,0,0,.591,0c.909-.263,1.421-1.126,2.4-1.223C311.552,202.715,311.536,202.669,311.519,202.666Z" transform="translate(-304.796 -192.475)" fill="#5a2639"/>
                <path id="Trazado_119808" data-name="Trazado 119808" d="M311.335,202.748a3.043,3.043,0,0,0,.84-.219c.378-.167.819-.829.138-.993a1.153,1.153,0,0,0-1.189.53c-.186.234-.254.5-.557.689Z" transform="translate(-304.796 -192.475)" fill="#5a2639"/>
                <path id="Trazado_119809" data-name="Trazado 119809" d="M306.34,202.748a3.047,3.047,0,0,1-.839-.219c-.379-.167-.82-.829-.139-.993a1.151,1.151,0,0,1,1.189.53c.187.234.254.5.557.689Z" transform="translate(-304.796 -192.475)" fill="#5a2639"/>
              </g>
              <g id="Grupo_56258" data-name="Grupo 56258" transform="translate(40.302 46.511)">
                <g id="Grupo_56257" data-name="Grupo 56257">
                  <path id="Trazado_119810" data-name="Trazado 119810" d="M306.852,200.574a1.993,1.993,0,1,1,3.969,0,2.017,2.017,0,1,1-3.969,0Z" transform="translate(-306.852 -198.392)" fill="#ff9c54" opacity="0"/>
                </g>
              </g>
              <path id="Trazado_119811" data-name="Trazado 119811" d="M298.737,168.407s.989,13.48-12.428,22.2l-4.5-2.128s-1.994-7.948-1.487-13.421,4.411-13.52,16.057-13.838c0,0,6.167-10.243,18.271-9.27,16.712,1.342,22.914,22.746,16.638,37.645a12.826,12.826,0,0,0-6.81-8.92C318.5,177.63,305.73,175.705,298.737,168.407Z" transform="translate(-266.55 -151.881)" fill="#6c3447"/>
              <path id="Trazado_119812" data-name="Trazado 119812" d="M332.1,179.593l-.447,9.555s-.465,5.894-1.069,7.064c-.447.867-.908-2.118-1.062-6.527s-1.421-6.307-1.421-6.307l4-4.035" transform="translate(-266.55 -151.881)" fill="#6c3447"/>
              <g id="Grupo_56259" data-name="Grupo 56259" transform="translate(10.296 35.293)">
                <path id="Trazado_119813" data-name="Trazado 119813" d="M286.382,189.591s-3.01-4.4-7.311-1.332c-1.951,1.39-3.837,6.593,0,11.276s8.933,2.9,9.084.769Z" transform="translate(-276.846 -187.174)" fill="#ffbf91"/>
                <path id="Trazado_119814" data-name="Trazado 119814" d="M286.376,189.591s-3.009-4.4-7.311-1.332a4.115,4.115,0,0,0-.929.984c2.74-2.3,6.681-1.391,8.439,2.629l.066-.685Z" transform="translate(-276.846 -187.174)" fill="#ffac70"/>
                <path id="Trazado_119815" data-name="Trazado 119815" d="M286.382,189.591a45.923,45.923,0,0,0,.866,6.732c.571,1.951,1.648-8.013,1.648-8.013Z" transform="translate(-276.846 -187.174)" fill="#6c3447"/>
                <path id="Trazado_119816" data-name="Trazado 119816" d="M279.564,192.641a2.779,2.779,0,0,1,2.58-1.721c1.837.115,2.8,1.909,3.05,3.37a1.982,1.982,0,0,0-2.331,1.942,2.09,2.09,0,0,0,2.715,2.214s-.149,1.116-2.053,1.247C281.228,199.852,278.13,196.882,279.564,192.641Z" transform="translate(-276.846 -187.174)" fill="#ffac70"/>
              </g>
              <path id="Trazado_119817" data-name="Trazado 119817" d="M297.139,201.137c-.384,1.37-2.31,2.028-4.3,1.469s-3.3-2.12-2.915-3.49,2.31-2.027,4.3-1.469S297.522,199.768,297.139,201.137Z" transform="translate(-266.55 -151.881)" fill="#ff646a"/>
              <g id="Grupo_56260" data-name="Grupo 56260" transform="translate(48.029 33.44)">
                <path id="Trazado_119818" data-name="Trazado 119818" d="M314.687,192.352s1.431-4.111,5.569-4.069a6.543,6.543,0,0,1,5.726,3.824,5.722,5.722,0,0,1-5.645,3.952A6.213,6.213,0,0,1,314.687,192.352Z" transform="translate(-314.579 -185.321)" fill="#fff"/>
                <path id="Trazado_119819" data-name="Trazado 119819" d="M314.582,192.1s-.1-2.868.908-4.365a6.269,6.269,0,0,1,7.995-1.656c3.852,1.9,3.073,6.137,3.073,6.137a7.1,7.1,0,0,0-6.3-3.937C316.523,188.158,314.582,192.1,314.582,192.1Z" transform="translate(-314.579 -185.321)" fill="#ffac70"/>
                <path id="Trazado_119820" data-name="Trazado 119820" d="M322.828,192.447a3.123,3.123,0,1,0-3.613,2.542A3.124,3.124,0,0,0,322.828,192.447Z" transform="translate(-314.579 -185.321)" fill="#5a2639"/>
                <path id="Trazado_119821" data-name="Trazado 119821" d="M318.239,191.648a1.535,1.535,0,1,1,1.249,1.776A1.533,1.533,0,0,1,318.239,191.648Z" transform="translate(-314.579 -185.321)" fill="#3f1527"/>
                <path id="Trazado_119822" data-name="Trazado 119822" d="M318,192.475a.324.324,0,1,1,.324.324A.325.325,0,0,1,318,192.475Z" transform="translate(-314.579 -185.321)" fill="#fff"/>
                <path id="Trazado_119823" data-name="Trazado 119823" d="M320.357,191.064a.754.754,0,1,1,.613.872A.753.753,0,0,1,320.357,191.064Z" transform="translate(-314.579 -185.321)" fill="#fff"/>
                <path id="Trazado_119824" data-name="Trazado 119824" d="M320.566,192.69a.436.436,0,1,1,.355.5A.436.436,0,0,1,320.566,192.69Z" transform="translate(-314.579 -185.321)" fill="#fff"/>
                <path id="Trazado_119825" data-name="Trazado 119825" d="M314.687,192.352c.251.151.918-1.8,2.911-2.774a6.208,6.208,0,0,1,5.942.564,5.194,5.194,0,0,1,1.829,2.137,5.843,5.843,0,0,1-2.5,2.915,9.1,9.1,0,0,1-3.194.828c.1.245,1.8.4,3.506-.327a6.07,6.07,0,0,0,3.378-3.475c.116-1-2.155-3.961-5.2-4.227s-4.872.9-5.8,2.2S314.422,192.193,314.687,192.352Z" transform="translate(-314.579 -185.321)" fill="#491b2d"/>
              </g>
              <g id="Grupo_56261" data-name="Grupo 56261" transform="translate(24.499 33.44)">
                <path id="Trazado_119826" data-name="Trazado 119826" d="M302.985,192.352s-1.431-4.111-5.568-4.069a6.543,6.543,0,0,0-5.726,3.824,5.72,5.72,0,0,0,5.644,3.952A6.213,6.213,0,0,0,302.985,192.352Z" transform="translate(-291.049 -185.321)" fill="#fff"/>
                <path id="Trazado_119827" data-name="Trazado 119827" d="M303.09,192.1s.1-2.868-.907-4.365a6.271,6.271,0,0,0-8-1.656c-3.852,1.9-3.073,6.137-3.073,6.137a7.1,7.1,0,0,1,6.3-3.937C301.149,188.158,303.09,192.1,303.09,192.1Z" transform="translate(-291.049 -185.321)" fill="#ffac70"/>
                <path id="Trazado_119828" data-name="Trazado 119828" d="M294.845,192.447a3.123,3.123,0,1,1,3.612,2.542A3.122,3.122,0,0,1,294.845,192.447Z" transform="translate(-291.049 -185.321)" fill="#5a2639"/>
                <path id="Trazado_119829" data-name="Trazado 119829" d="M299.434,191.648a1.535,1.535,0,1,0-1.249,1.776A1.533,1.533,0,0,0,299.434,191.648Z" transform="translate(-291.049 -185.321)" fill="#3f1527"/>
                <path id="Trazado_119830" data-name="Trazado 119830" d="M299.672,192.475a.324.324,0,1,0-.325.324A.326.326,0,0,0,299.672,192.475Z" transform="translate(-291.049 -185.321)" fill="#fff"/>
                <path id="Trazado_119831" data-name="Trazado 119831" d="M297.106,192.69a.436.436,0,1,0-.354.5A.436.436,0,0,0,297.106,192.69Z" transform="translate(-291.049 -185.321)" fill="#fff"/>
                <path id="Trazado_119832" data-name="Trazado 119832" d="M297.315,191.064a.754.754,0,1,0-.613.872A.752.752,0,0,0,297.315,191.064Z" transform="translate(-291.049 -185.321)" fill="#fff"/>
                <path id="Trazado_119833" data-name="Trazado 119833" d="M302.985,192.352c-.251.151-.917-1.8-2.91-2.774a6.208,6.208,0,0,0-5.942.564,5.192,5.192,0,0,0-1.83,2.137,5.849,5.849,0,0,0,2.5,2.915,9.108,9.108,0,0,0,3.194.828c-.1.245-1.8.4-3.5-.327a6.071,6.071,0,0,1-3.379-3.475c-.116-1,2.156-3.961,5.2-4.227s4.872.9,5.8,2.2S303.25,192.193,302.985,192.352Z" transform="translate(-291.049 -185.321)" fill="#491b2d"/>
              </g>
              <path id="Trazado_119834" data-name="Trazado 119834" d="M320.534,201.137c.383,1.37,2.31,2.028,4.3,1.469s3.3-2.12,2.914-3.49-2.31-2.027-4.3-1.469S320.15,199.768,320.534,201.137Z" transform="translate(-266.55 -151.881)" fill="#ff646a"/>
              <g id="Grupo_56262" data-name="Grupo 56262" transform="translate(35.186 55.482)">
                <path id="Trazado_119835" data-name="Trazado 119835" d="M308.813,208.378c-1.275,0-6.413-.209-6.413-.209s.82,3.467,6.436,3.467,6.341-3.428,6.341-3.428Z" transform="translate(-301.736 -207.363)" fill="#5a2639"/>
                <path id="Trazado_119836" data-name="Trazado 119836" d="M308.813,208.378c-1.275,0-5.154-.209-5.154-.209s1.4,1.358,5.22,1.358,5.039-1.319,5.039-1.319Z" transform="translate(-301.736 -207.363)" fill="#f2eff7"/>
                <path id="Trazado_119837" data-name="Trazado 119837" d="M314.674,208.286c-.684.684-1.372,3.162-5.838,3.163s-5.154-2.479-5.838-3.163a1.274,1.274,0,0,0-.717-.282,6.732,6.732,0,0,0,6.555,5.878v0A6.732,6.732,0,0,0,315.391,208,1.277,1.277,0,0,0,314.674,208.286Z" transform="translate(-301.736 -207.363)" fill="url(#linear-gradient-4)"/>
                <path id="Trazado_119838" data-name="Trazado 119838" d="M315.836,207.438a17.11,17.11,0,0,1-4.3-.047c-1.42-.2-2.134.687-2.7.687s-1.282-.883-2.7-.687a17.118,17.118,0,0,1-4.3.047c-.355-.11-.133,1.444,7,1.444S316.191,207.328,315.836,207.438Z" transform="translate(-301.736 -207.363)" fill="#bb1e47"/>
                <path id="Trazado_119839" data-name="Trazado 119839" d="M308.838,213.458a6.969,6.969,0,0,1-4.264-1.165c.4.924,1.759,2.119,4.264,2.119s3.867-1.2,4.263-2.119A6.964,6.964,0,0,1,308.838,213.458Z" transform="translate(-301.736 -207.363)" fill="#bb1e47"/>
              </g>
            </g>
          </g>
        </g>
      </g>
      <path id="Trazado_119160" data-name="Trazado 119160" d="M16.259,114.355H117.638a6.847,6.847,0,0,1,6.847,6.847v19.476a6.848,6.848,0,0,1-6.847,6.847H16.259a6.848,6.848,0,0,1-6.848-6.847V121.2A6.847,6.847,0,0,1,16.259,114.355Z" transform="translate(-9.411 -32.555)" fill="#57dbd8" opacity="0.45"/>
      <path id="Trazado_118717" data-name="Trazado 118717" d="M29.325,123.116l2.539,5.156,5.694.828-4.116,4,.973,5.66-5.09-2.673-5.078,2.673.962-5.66-4.1-4,5.682-.828Z" transform="translate(-9.411 -32.6)" fill="#fe7062"/>
      <path id="Trazado_118718" data-name="Trazado 118718" d="M48.14,123.116l2.539,5.156,5.682.828-4.116,4,.973,5.66-5.078-2.673-5.09,2.673.973-5.66-4.116-4,5.682-.828Z" transform="translate(-9.411 -32.6)" fill="#fe7062"/>
      <path id="Trazado_118719" data-name="Trazado 118719" d="M66.943,123.116l2.539,5.156,5.693.828-4.116,4,.973,5.66-5.089-2.673-5.079,2.673.962-5.66-4.1-4,5.682-.828Z" transform="translate(-9.411 -32.6)" fill="#fe7062"/>
      <path id="Trazado_118720" data-name="Trazado 118720" d="M85.746,123.116l2.55,5.156,5.682.828-4.116,4,.973,5.66-5.089-2.673-5.079,2.673.974-5.66-4.117-4,5.683-.828Z" transform="translate(-9.411 -32.6)" fill="#fe7062"/>
      <path id="Trazado_118721" data-name="Trazado 118721" d="M104.56,123.116l2.539,5.156,5.694.828-4.117,4,.973,5.66-5.089-2.673-5.078,2.673.962-5.66-4.105-4,5.682-.828Z" transform="translate(-9.411 -32.6)" fill="#fe7062"/>
      <path id="Trazado_119160-2" data-name="Trazado 119160" d="M137.761,114.355H239.14a6.847,6.847,0,0,1,6.848,6.847v19.476a6.848,6.848,0,0,1-6.848,6.847H137.761a6.848,6.848,0,0,1-6.847-6.847V121.2A6.847,6.847,0,0,1,137.761,114.355Z" transform="translate(-9.411 -32.555)" fill="#57dbd8" opacity="0.45"/>
      <path id="Trazado_118717-2" data-name="Trazado 118717" d="M150.828,123.116l2.539,5.156,5.694.828-4.117,4,.973,5.66-5.089-2.673-5.078,2.673.962-5.66-4.106-4,5.683-.828Z" transform="translate(-9.411 -32.6)" fill="#fe7062"/>
      <path id="Trazado_118718-2" data-name="Trazado 118718" d="M169.642,123.116l2.539,5.156,5.683.828-4.117,4,.973,5.66-5.078-2.673-5.089,2.673.973-5.66-4.117-4,5.683-.828Z" transform="translate(-9.411 -32.6)" fill="#fff"/>
      <path id="Trazado_118719-2" data-name="Trazado 118719" d="M188.445,123.116l2.539,5.156,5.694.828-4.116,4,.973,5.66-5.09-2.673-5.078,2.673.962-5.66-4.1-4,5.682-.828Z" transform="translate(-9.411 -32.6)" fill="#fff"/>
      <path id="Trazado_118720-2" data-name="Trazado 118720" d="M207.248,123.116l2.551,5.156,5.682.828-4.116,4,.973,5.66-5.09-2.673-5.078,2.673.973-5.66-4.116-4,5.682-.828Z" transform="translate(-9.411 -32.6)" fill="#fff"/>
      <path id="Trazado_118721-2" data-name="Trazado 118721" d="M226.063,123.116l2.539,5.156,5.693.828-4.116,4,.973,5.66-5.089-2.673-5.079,2.673.962-5.66-4.1-4,5.682-.828Z" transform="translate(-9.411 -32.6)" fill="#fff"/>
      <path id="Trazado_119160-3" data-name="Trazado 119160" d="M261.5,114.355H362.878a6.846,6.846,0,0,1,6.847,6.847v19.476a6.847,6.847,0,0,1-6.847,6.847H261.5a6.848,6.848,0,0,1-6.848-6.847V121.2A6.847,6.847,0,0,1,261.5,114.355Z" transform="translate(-9.411 -32.555)" fill="#57dbd8" opacity="0.45"/>
      <path id="Trazado_118717-3" data-name="Trazado 118717" d="M274.565,123.116l2.539,5.156,5.694.828-4.116,4,.973,5.66-5.09-2.673-5.078,2.673.962-5.66-4.105-4,5.682-.828Z" transform="translate(-9.411 -32.6)" fill="#fe7062"/>
      <path id="Trazado_118718-3" data-name="Trazado 118718" d="M293.38,123.116l2.539,5.156,5.682.828-4.116,4,.973,5.66-5.078-2.673-5.09,2.673.973-5.66-4.116-4,5.682-.828Z" transform="translate(-9.411 -32.6)" fill="#fe7062"/>
      <path id="Trazado_118719-3" data-name="Trazado 118719" d="M312.183,123.116l2.539,5.156,5.693.828-4.116,4,.973,5.66-5.089-2.673-5.079,2.673.962-5.66-4.105-4,5.683-.828Z" transform="translate(-9.411 -32.6)" fill="#fe7062"/>
      <path id="Trazado_118720-3" data-name="Trazado 118720" d="M330.986,123.116l2.55,5.156,5.682.828-4.116,4,.973,5.66-5.089-2.673-5.079,2.673.974-5.66-4.117-4,5.683-.828Z" transform="translate(-9.411 -32.6)" fill="#fe7062"/>
      <path id="Trazado_118721-3" data-name="Trazado 118721" d="M349.8,123.116l2.539,5.156,5.694.828-4.117,4,.974,5.66-5.09-2.673-5.078,2.673.962-5.66-4.1-4,5.682-.828Z" transform="translate(-9.411 -32.6)" fill="#fff"/>
      <path id="Trazado_119160-4" data-name="Trazado 119160" d="M382.362,114.355H483.741a6.847,6.847,0,0,1,6.848,6.847v19.476a6.848,6.848,0,0,1-6.848,6.847H382.362a6.848,6.848,0,0,1-6.847-6.847V121.2A6.847,6.847,0,0,1,382.362,114.355Z" transform="translate(-9.411 -32.555)" fill="#57dbd8" opacity="0.45"/>
      <path id="Trazado_118717-4" data-name="Trazado 118717" d="M395.429,123.116l2.539,5.156,5.694.828-4.117,4,.973,5.66-5.089-2.673-5.078,2.673.962-5.66-4.106-4,5.683-.828Z" transform="translate(-9.411 -32.6)" fill="#fe7062"/>
      <path id="Trazado_118718-4" data-name="Trazado 118718" d="M414.243,123.116l2.539,5.156,5.683.828-4.117,4,.973,5.66-5.078-2.673-5.089,2.673.973-5.66-4.117-4,5.683-.828Z" transform="translate(-9.411 -32.6)" fill="#fe7062"/>
      <path id="Trazado_118719-4" data-name="Trazado 118719" d="M433.046,123.116l2.539,5.156,5.694.828-4.116,4,.973,5.66-5.09-2.673-5.078,2.673.962-5.66-4.1-4,5.682-.828Z" transform="translate(-9.411 -32.6)" fill="#fe7062"/>
      <path id="Trazado_118720-4" data-name="Trazado 118720" d="M451.849,123.116l2.551,5.156,5.682.828-4.116,4,.973,5.66-5.09-2.673-5.078,2.673.973-5.66-4.116-4,5.682-.828Z" transform="translate(-9.411 -32.6)" fill="#fe7062"/>
      <path id="Trazado_118721-4" data-name="Trazado 118721" d="M470.664,123.116l2.539,5.156,5.693.828-4.116,4,.973,5.66-5.089-2.673-5.079,2.673.962-5.66-4.105-4,5.682-.828Z" transform="translate(-9.411 -32.6)" fill="#fe7062"/>
      <g id="Grupo_56267" data-name="Grupo 56267" transform="translate(31.36 0)">
        <path id="Trazado_118258" data-name="Trazado 118258" d="M73.868,52.918a.282.282,0,0,0,.289-.274V41.227c0-4.785-2.632-10.185-5.857-12.049a3.692,3.692,0,0,0-3.8-.236c-1.521.86-2.358,2.937-2.358,5.69v11.41a.289.289,0,0,0,.571,0V34.632c0-2.548.761-4.442,2.069-5.2A3.133,3.133,0,0,1,68,29.676c3.043,1.772,5.568,6.952,5.568,11.554V52.64a.282.282,0,0,0,.281.282Z" transform="translate(-40.771 -28.525)" fill="#455a64"/>
        <path id="Trazado_118259" data-name="Trazado 118259" d="M40.772,93.2,42.027,39.31,51.2,34.031l1.088,52.531Z" transform="translate(-40.771 -28.525)" fill="#286a69"/>
        <path id="Trazado_118261" data-name="Trazado 118261" d="M83.429,52.637l1.087,52.53L52.288,86.562,51.2,34.031Z" transform="translate(-40.771 -28.525)" fill="#2e8180"/>
        <g id="Grupo_55852" data-name="Grupo 55852" transform="translate(10.429 5.506)" opacity="0.4">
          <path id="Trazado_118262" data-name="Trazado 118262" d="M51.2,34.031" transform="translate(-51.2 -34.031)" fill="#57dbd8"/>
        </g>
        <path id="Trazado_118263" data-name="Trazado 118263" d="M74.255,57.916l-1.247,53.9L40.771,93.2,42.026,39.31Z" transform="translate(-40.771 -28.525)" fill="#57dbd8"/>
        <path id="Trazado_118264" data-name="Trazado 118264" d="M83.429,52.637l-9.173,5.279-1.247,53.9,11.508-6.649Z" transform="translate(-40.771 -28.525)" fill="#3aa5a3"/>
        <g id="Grupo_55853" data-name="Grupo 55853" transform="translate(43.746 76.642)" opacity="0.2">
          <path id="Trazado_118265" data-name="Trazado 118265" d="M84.517,105.167" transform="translate(-84.517 -105.167)" fill="#57dbd8"/>
        </g>
        <path id="Trazado_118266" data-name="Trazado 118266" d="M73.008,111.815l4.655-8.01.829-32.586.837,32.107,5.188,1.841Z" transform="translate(-40.771 -28.525)" opacity="0.2" style="isolation: isolate"/>
        <g id="Grupo_55854" data-name="Grupo 55854" transform="translate(22.737 27.861)" opacity="0.2">
          <path id="Trazado_118267" data-name="Trazado 118267" d="M64.664,56.531a2.573,2.573,0,0,1,1.148,2c0,.76-.517,1.034-1.148.669a2.5,2.5,0,0,1-1.156-1.993C63.508,56.467,64.025,56.189,64.664,56.531Z" transform="translate(-63.508 -56.386)" fill="#455a64"/>
        </g>
        <g id="Grupo_55855" data-name="Grupo 55855" transform="translate(11.319 21.21)" opacity="0.2">
          <path id="Trazado_118268" data-name="Trazado 118268" d="M53.239,49.891a2.541,2.541,0,0,1,1.148,1.993c0,.76-.517,1.034-1.148.677a2.526,2.526,0,0,1-1.149-1.993C52.09,49.822,52.569,49.526,53.239,49.891Z" transform="translate(-52.09 -49.735)" fill="#455a64"/>
        </g>
        <path id="Trazado_118269" data-name="Trazado 118269" d="M64.664,58.151a.288.288,0,0,0,.281-.281V46.422c0-4.777-2.624-10.177-5.857-12.041a3.7,3.7,0,0,0-3.8-.243c-1.521.867-2.35,2.943-2.35,5.689v11.41a.273.273,0,0,0,.266.282h.015a.281.281,0,0,0,.281-.281h0V39.827c0-2.54.761-4.434,2.077-5.2a3.087,3.087,0,0,1,3.21.244c3.043,1.772,5.568,6.952,5.568,11.546v11.45a.289.289,0,0,0,.3.282h0Z" transform="translate(-40.771 -28.525)" fill="#455a64"/>
      </g>
      <g id="Grupo_56268" data-name="Grupo 56268" transform="translate(280.904 0)">
        <path id="Trazado_118258-2" data-name="Trazado 118258" d="M323.412,52.918a.282.282,0,0,0,.289-.274V41.227c0-4.785-2.632-10.185-5.857-12.049a3.692,3.692,0,0,0-3.8-.236c-1.521.86-2.358,2.937-2.358,5.69v11.41a.289.289,0,0,0,.571,0V34.632c0-2.548.761-4.442,2.069-5.2a3.133,3.133,0,0,1,3.217.244c3.043,1.772,5.568,6.952,5.568,11.554V52.64a.282.282,0,0,0,.281.282Z" transform="translate(-290.315 -28.525)" fill="#455a64"/>
        <path id="Trazado_118259-2" data-name="Trazado 118259" d="M290.316,93.2l1.255-53.892,9.173-5.279,1.088,52.531Z" transform="translate(-290.315 -28.525)" fill="#286a69"/>
        <path id="Trazado_118261-2" data-name="Trazado 118261" d="M332.973,52.637l1.087,52.53L301.832,86.562l-1.088-52.531Z" transform="translate(-290.315 -28.525)" fill="#2e8180"/>
        <g id="Grupo_55852-2" data-name="Grupo 55852" transform="translate(10.429 5.506)" opacity="0.4">
          <path id="Trazado_118262-2" data-name="Trazado 118262" d="M300.744,34.031" transform="translate(-300.744 -34.031)" fill="#57dbd8"/>
        </g>
        <path id="Trazado_118263-2" data-name="Trazado 118263" d="M323.8,57.916l-1.247,53.9L290.315,93.2,291.57,39.31Z" transform="translate(-290.315 -28.525)" fill="#57dbd8"/>
        <path id="Trazado_118264-2" data-name="Trazado 118264" d="M332.973,52.637,323.8,57.916l-1.247,53.9,11.508-6.649Z" transform="translate(-290.315 -28.525)" fill="#3aa5a3"/>
        <g id="Grupo_55853-2" data-name="Grupo 55853" transform="translate(43.746 76.642)" opacity="0.2">
          <path id="Trazado_118265-2" data-name="Trazado 118265" d="M334.061,105.167" transform="translate(-334.061 -105.167)" fill="#57dbd8"/>
        </g>
        <path id="Trazado_118266-2" data-name="Trazado 118266" d="M322.552,111.815l4.655-8.01.829-32.586.837,32.107,5.188,1.841Z" transform="translate(-290.315 -28.525)" opacity="0.2" style="isolation: isolate"/>
        <g id="Grupo_55854-2" data-name="Grupo 55854" transform="translate(22.737 27.861)" opacity="0.2">
          <path id="Trazado_118267-2" data-name="Trazado 118267" d="M314.208,56.531a2.57,2.57,0,0,1,1.148,2c0,.76-.517,1.034-1.148.669a2.5,2.5,0,0,1-1.156-1.993C313.052,56.467,313.569,56.189,314.208,56.531Z" transform="translate(-313.052 -56.386)" fill="#455a64"/>
        </g>
        <g id="Grupo_55855-2" data-name="Grupo 55855" transform="translate(11.319 21.21)" opacity="0.2">
          <path id="Trazado_118268-2" data-name="Trazado 118268" d="M302.783,49.891a2.538,2.538,0,0,1,1.148,1.993c0,.76-.517,1.034-1.148.677a2.529,2.529,0,0,1-1.149-1.993C301.634,49.822,302.113,49.526,302.783,49.891Z" transform="translate(-301.634 -49.735)" fill="#455a64"/>
        </g>
        <path id="Trazado_118269-2" data-name="Trazado 118269" d="M314.208,58.151a.287.287,0,0,0,.281-.281V46.422c0-4.777-2.624-10.177-5.857-12.041a3.7,3.7,0,0,0-3.8-.243c-1.521.867-2.35,2.943-2.35,5.689v11.41a.275.275,0,0,0,.266.282h.015a.281.281,0,0,0,.281-.281h0V39.827c0-2.54.761-4.434,2.077-5.2a3.087,3.087,0,0,1,3.21.244c3.043,1.772,5.568,6.952,5.568,11.546v11.45a.289.289,0,0,0,.3.282h0Z" transform="translate(-290.315 -28.525)" fill="#455a64"/>
      </g>
      <g id="Grupo_53745" data-name="Grupo 53745" transform="translate(139.182 2.575)">
        <path id="Trazado_100455" data-name="Trazado 100455" d="M221.577,57.81,194.866,31.1l-36.491,9.773-9.782,36.5,26.719,26.71L211.8,94.31Z" transform="translate(-148.593 -31.1)" fill="#fff199"/>
        <path id="Trazado_100456" data-name="Trazado 100456" d="M175.312,104.083l9.773-36.492,36.492-9.781L211.8,94.31Z" transform="translate(-148.593 -31.1)" fill="#ffd03e"/>
        <path id="Trazado_100457" data-name="Trazado 100457" d="M180.248,100.016l.928-3.462,13.641-3.71-.944,3.52Z" transform="translate(-148.593 -31.1)" fill="#241f41"/>
        <path id="Trazado_100458" data-name="Trazado 100458" d="M194.817,96.149l.927-3.462,4.87-1.35-.944,3.519Z" transform="translate(-148.593 -31.1)" fill="#fff"/>
        <path id="Trazado_100459" data-name="Trazado 100459" d="M192.175,65.695l-7.09,1.9L175.3,104.083,211.795,94.3l3.446-12.863c-5.64,7.512-15.977,8.291-20.648,4.4C189.64,81.713,189.831,72.478,192.175,65.695Z" transform="translate(-148.593 -31.1)" fill="#ff911a" opacity="0.1" style="isolation: isolate"/>
        <path id="Trazado_100460" data-name="Trazado 100460" d="M158.375,40.873l26.71,26.718-9.773,36.492-26.719-26.71Z" transform="translate(-148.593 -31.1)" fill="#ffdf60"/>
        <path id="Trazado_100461" data-name="Trazado 100461" d="M169.282,51.789l4.9,4.886-3.544,13.31L165.746,65.1Z" transform="translate(-148.593 -31.1)" fill="#241f41"/>
        <path id="Trazado_100462" data-name="Trazado 100462" d="M169.282,51.789l4.9,4.886,35.432-10.841-4.895-4.887Z" transform="translate(-148.593 -31.1)" fill="#544f80"/>
        <path id="Trazado_100463" data-name="Trazado 100463" d="M177.83,60.336s-2.808,11.984-10.295,12.142c-5.988.124-13.194-6.2-13.277-16.25l-5.665,21.145,26.719,26.718L185.093,67.6Z" transform="translate(-148.593 -31.1)" fill="#ff911a" opacity="0.1" style="isolation: isolate"/>
        <path id="Trazado_100464" data-name="Trazado 100464" d="M164.727,39.175s9.848,28.574,54.672,16.457l2.186,2.186L185.093,67.6,158.375,40.881Z" transform="translate(-148.593 -31.1)" fill="#ff911a" opacity="0.1" style="isolation: isolate"/>
      </g>
      <rect id="Rectángulo_29717" data-name="Rectángulo 29717" width="77.657" height="68.874" rx="8.551" transform="translate(384.526 8.061)" fill="#fe7062"/>
      <path id="Trazado_119841" data-name="Trazado 119841" d="M471.594,50.454a.925.925,0,0,1-.925.924H394.862a.925.925,0,0,1-.925-.924h0a.925.925,0,0,1,.925-.925h75.807a.925.925,0,0,1,.925.925Z" transform="translate(-9.411 -28.525)" fill="#fff"/>
      <g id="Grupo_56271" data-name="Grupo 56271" transform="translate(401.167 30.249)">
        <g id="Grupo_56270" data-name="Grupo 56270" transform="translate(3.933)">
          <path id="Trazado_119842" data-name="Trazado 119842" d="M414.581,84.217c1.856,3.415,7.277,5.99,13.679,5.99h7.408c6.4,0,11.823-2.575,13.679-5.99a.779.779,0,0,0-.213-.914,2.013,2.013,0,0,0-1.19-.492h-31.96a2.013,2.013,0,0,0-1.19.492A.778.778,0,0,0,414.581,84.217Z" transform="translate(-414.511 -58.774)" fill="#fff"/>
          <path id="Trazado_119843" data-name="Trazado 119843" d="M414.806,68.411a14.344,14.344,0,0,1,13.678-9.637h7.408a14.344,14.344,0,0,1,13.679,9.637,1.014,1.014,0,0,1-.213,1.072,1.352,1.352,0,0,1-1.189.385H416.208a1.355,1.355,0,0,1-1.19-.385A1.015,1.015,0,0,1,414.806,68.411Z" transform="translate(-414.511 -58.774)" fill="#fff"/>
          <path id="Trazado_119844" data-name="Trazado 119844" d="M449.714,73.8A1.616,1.616,0,0,1,448,75.415H416.711A1.616,1.616,0,0,1,415,73.8h0a1.617,1.617,0,0,1,1.711-1.618H448a1.617,1.617,0,0,1,1.711,1.618Z" transform="translate(-414.511 -58.774)" fill="#fff"/>
          <g id="Grupo_56269" data-name="Grupo 56269" transform="translate(1.346 17.912)">
            <path id="Trazado_119845" data-name="Trazado 119845" d="M444.1,80.621a4.118,4.118,0,0,1-3.161-1.553,2.919,2.919,0,0,0-4.754,0,3.991,3.991,0,0,1-6.32,0,2.919,2.919,0,0,0-4.754,0,3.991,3.991,0,0,1-6.32,0,3.078,3.078,0,0,0-2.377-1.225.579.579,0,0,1,0-1.157,4.117,4.117,0,0,1,3.16,1.553,2.919,2.919,0,0,0,4.754,0,3.991,3.991,0,0,1,6.32,0,2.919,2.919,0,0,0,4.754,0,3.991,3.991,0,0,1,6.32,0,2.92,2.92,0,0,0,4.755,0,4.118,4.118,0,0,1,3.161-1.553.579.579,0,0,1,0,1.157,3.079,3.079,0,0,0-2.378,1.225A4.117,4.117,0,0,1,444.1,80.621Z" transform="translate(-415.857 -76.686)" fill="#fff"/>
          </g>
        </g>
        <path id="Trazado_119846" data-name="Trazado 119846" d="M453.566,95.291a1.386,1.386,0,0,1-1.386,1.387H411.965a1.387,1.387,0,0,1-1.387-1.387h0a1.387,1.387,0,0,1,1.387-1.386H452.18a1.386,1.386,0,0,1,1.386,1.386Z" transform="translate(-410.578 -58.774)" fill="#fff"/>
      </g>
    </g>
  </g>
</svg>
