<svg xmlns="http://www.w3.org/2000/svg" xmlns:xlink="http://www.w3.org/1999/xlink" width="393.978" height="294.718" viewBox="0 0 393.978 294.718">
  <defs>
    <linearGradient id="linear-gradient" x1="-0.086" y1="1.014" x2="0.665" y2="0.363" gradientUnits="objectBoundingBox">
      <stop offset="0" stop-color="#dae3fe"/>
      <stop offset="1" stop-color="#e9effd"/>
    </linearGradient>
    <linearGradient id="linear-gradient-2" x1="-3.785" y1="-12.538" x2="0.979" y2="1.834" gradientUnits="objectBoundingBox">
      <stop offset="0" stop-color="#ff928e"/>
      <stop offset="1" stop-color="#fe7062"/>
    </linearGradient>
    <linearGradient id="linear-gradient-3" x1="-0.807" y1="-2.081" x2="0.396" y2="0.273" gradientUnits="objectBoundingBox">
      <stop offset="0" stop-color="#4f52ff"/>
      <stop offset="1" stop-color="#4042e2"/>
    </linearGradient>
    <linearGradient id="linear-gradient-4" x1="0.55" y1="0.152" x2="0.141" y2="1.779" xlink:href="#linear-gradient-3"/>
    <linearGradient id="linear-gradient-5" x1="0.926" y1="1.611" x2="0.351" y2="0.462" xlink:href="#linear-gradient-2"/>
    <linearGradient id="linear-gradient-6" x1="-0.771" y1="-0.171" x2="2.601" y2="1.673" xlink:href="#linear-gradient-2"/>
    <linearGradient id="linear-gradient-7" x1="-0.495" y1="-4.19" x2="0.776" y2="1.823" gradientUnits="objectBoundingBox">
      <stop offset="0" stop-color="#e1473d"/>
      <stop offset="1" stop-color="#e9605a"/>
    </linearGradient>
    <linearGradient id="linear-gradient-8" x1="-0.707" y1="-6.148" x2="0.709" y2="1.65" xlink:href="#linear-gradient-7"/>
    <linearGradient id="linear-gradient-9" x1="26.784" y1="-12.351" x2="27.523" y2="-9.914" xlink:href="#linear-gradient-3"/>
    <linearGradient id="linear-gradient-10" x1="0.666" y1="-0.047" x2="0.368" y2="0.988" xlink:href="#linear-gradient-3"/>
  </defs>
  <g id="Grupo_57244" data-name="Grupo 57244" transform="translate(-1020 -613)">
    <g id="Image_Place_Holder" data-name="Image Place Holder" transform="translate(1020 641.025)">
      <rect id="Image_Place_Holder-2" data-name="Image Place Holder" width="393.978" height="266.693" rx="10" fill="#dad7fa"/>
    </g>
    <g id="Grupo_56103" data-name="Grupo 56103">
      <g id="Grupo_56012" data-name="Grupo 56012" transform="translate(1091.169 616)">
        <path id="Trazado_119305" data-name="Trazado 119305" d="M470.9,629.6c24.032,56.585,88.047,88.284,143.561,79.734,9.033-1.391,33.8-5.536,55.724-25.089,42.209-37.642,51.235-112.177,17.187-164.7-24.781-38.23-69.2-59.9-111.415-58.818-9.092.233-43.937,1.672-74.56,26.923a114.844,114.844,0,0,0-23.359,26.5C457.046,546.979,455.242,592.721,470.9,629.6Z" transform="translate(-458.69 -460.682)" fill="url(#linear-gradient)"/>
        <g id="Grupo_56026" data-name="Grupo 56026" transform="translate(36.808 1.627)">
          <path id="Trazado_119330" data-name="Trazado 119330" d="M1282.836,491.122c.805,38,3.417,169.072,2.17,215.52-.132,4.921-3.5,8.87-7.71,9.031-20.8.8-97.068,2.815-131.1,1.145-7.088-.348-12.724-7.064-12.87-15.361-.707-39.885-2.267-152.065,1.441-203.456.444-6.157,4.576-11.061,9.831-11.676,22.656-2.652,99.249-9.133,128.646-6.9C1278.55,479.828,1282.7,484.908,1282.836,491.122Z" transform="translate(-1132.394 -478.965)" fill="#1a0f91"/>
          <path id="Trazado_119331" data-name="Trazado 119331" d="M1355.848,642.844c1.12,30.671,4.652,132.705,3.531,170.436-.164,5.515-3.879,9.974-8.588,10.3-19.388,1.327-85.534,4.254-113.971,1.59-5.121-.48-9.139-5.324-9.415-11.326-1.441-31.29-5.579-126.3-4.5-163.606.171-5.952,4.112-10.812,9.182-11.344,20.975-2.2,91.263-7.445,115.428-5.9C1352.046,633.277,1355.653,637.534,1355.848,642.844Z" transform="translate(-1214.688 -619.03)" fill="#fe7062"/>
          <path id="Trazado_119332" data-name="Trazado 119332" d="M1767.1,535.7h0a2.07,2.07,0,0,1-1.772,2.188c-4.914.3-18.755,1.153-24.942,1.573a2.094,2.094,0,0,1-1.946-2.6l.039-.24a2.012,2.012,0,0,1,1.667-1.767c4.181-.448,16.8-1.691,25.159-1.342A2.063,2.063,0,0,1,1767.1,535.7Z" transform="translate(-1668.073 -528.604)" fill="#fff" opacity="0.5"/>
        </g>
        <g id="Grupo_56042" data-name="Grupo 56042" transform="translate(52.269 42.486)">
          <g id="Grupo_56031" data-name="Grupo 56031" transform="translate(0 0)">
            <path id="Trazado_119333" data-name="Trazado 119333" d="M1375.247,944.154l.775,25.84c.063,2.106,1.4,3.774,2.98,3.727l94.135-2.825c1.315-.039,2.5,1.117,2.867,2.8l1.961,8.946c.26,1.186,1.509,1.248,1.8.089l1.948-7.666a3.023,3.023,0,0,1,2.6-2.536l4.046-.121c1.583-.047,2.815-1.793,2.752-3.9l-.8-26.562c-.063-2.093-1.382-3.757-2.956-3.727l-109.343,2.032C1376.43,940.284,1375.183,942.035,1375.247,944.154Z" transform="translate(-1375.245 -938.223)" fill="#fff"/>
            <g id="Grupo_56028" data-name="Grupo 56028" transform="translate(88.963 3.802)">
              <ellipse id="Elipse_4216" data-name="Elipse 4216" cx="11.855" cy="11.551" rx="11.855" ry="11.551" transform="matrix(-0.03, -1, 1, -0.03, 0.712, 24.394)" fill="#91b3fa"/>
              <g id="Grupo_56027" data-name="Grupo 56027" transform="translate(4.281 3.763)">
                <path id="Trazado_119334" data-name="Trazado 119334" d="M1505.955,1027.009c.064,2.129,1.859,4.375,3.987,4.311s3.785-2.414,3.721-4.542a3.862,3.862,0,0,0-7.709.231Z" transform="translate(-1502.66 -1023.252)" fill="#fff"/>
                <path id="Trazado_119335" data-name="Trazado 119335" d="M1474.839,1134.62l-9.409.282a2.278,2.278,0,0,1-2.217-1.518l-.554-1.567a2.276,2.276,0,0,1,1.29-2.872,17.543,17.543,0,0,1,11.848-.226,2.269,2.269,0,0,1,1.536,2.706l-.347,1.449A2.279,2.279,0,0,1,1474.839,1134.62Z" transform="translate(-1462.528 -1118.5)" fill="#fff"/>
              </g>
            </g>
            <g id="Grupo_56029" data-name="Grupo 56029" transform="translate(12.335 17.461)">
              <path id="Trazado_119336" data-name="Trazado 119336" d="M1746.381,1138.77a2.241,2.241,0,0,0,2.307,2.173l65.913-1.978a2.241,2.241,0,0,0,2.173-2.307h0a2.241,2.241,0,0,0-2.307-2.172l-65.913,1.978a2.241,2.241,0,0,0-2.173,2.307Z" transform="translate(-1746.252 -1134.484)" fill="#91b3fa"/>
              <path id="Trazado_119337" data-name="Trazado 119337" d="M1743.4,1222.527a2.111,2.111,0,0,0,2.174,2.047l35.393-1.062a2.111,2.111,0,0,0,2.047-2.174h0a2.111,2.111,0,0,0-2.174-2.047l-35.393,1.062a2.111,2.111,0,0,0-2.047,2.174Z" transform="translate(-1712.223 -1211.745)" fill="#91b3fa"/>
              <path id="Trazado_119338" data-name="Trazado 119338" d="M2203.263,1236.034a2.111,2.111,0,0,0,2.174,2.047l25.652-.77a2.112,2.112,0,0,0,2.047-2.174h0a2.112,2.112,0,0,0-2.174-2.047l-25.652.77a2.111,2.111,0,0,0-2.047,2.174Z" transform="translate(-2203.262 -1224.317)" fill="#91b3fa"/>
            </g>
            <g id="Grupo_56030" data-name="Grupo 56030" transform="translate(11.452 3.853)">
              <path id="Trazado_119339" data-name="Trazado 119339" d="M1727.385,986.3a.434.434,0,0,1,.218-.748l3.428-.6,1.446-3.166a.435.435,0,0,1,.779-.023l1.526,2.872a.434.434,0,0,0,.334.228l3.232.371a.434.434,0,0,1,.263.733l-2.26,2.339a.434.434,0,0,0-.113.388l.646,3.188a.434.434,0,0,1-.616.477l-2.923-1.426a.435.435,0,0,0-.4.012l-2.832,1.6a.434.434,0,0,1-.644-.439l.454-3.221a.434.434,0,0,0-.136-.381Z" transform="translate(-1665.626 -981.529)" fill="#fe7062"/>
              <path id="Trazado_119340" data-name="Trazado 119340" d="M1900.535,991.5a.434.434,0,0,1,.218-.748l3.428-.6,1.446-3.166a.434.434,0,0,1,.779-.023l1.526,2.872a.435.435,0,0,0,.334.228l3.231.371a.434.434,0,0,1,.263.733l-2.26,2.339a.434.434,0,0,0-.113.388l.646,3.188a.435.435,0,0,1-.616.477l-2.923-1.427a.434.434,0,0,0-.4.012l-2.832,1.6a.434.434,0,0,1-.644-.439l.453-3.221a.434.434,0,0,0-.136-.381Z" transform="translate(-1854.18 -986.262)" fill="#fe7062"/>
              <path id="Trazado_119341" data-name="Trazado 119341" d="M2073.685,996.692a.434.434,0,0,1,.219-.748l3.428-.6,1.447-3.166a.435.435,0,0,1,.779-.023l1.526,2.872a.435.435,0,0,0,.334.228l3.231.371a.434.434,0,0,1,.263.733l-2.26,2.339a.435.435,0,0,0-.113.388l.646,3.188a.434.434,0,0,1-.616.477l-2.923-1.427a.434.434,0,0,0-.4.012l-2.833,1.6a.434.434,0,0,1-.644-.439l.453-3.221a.435.435,0,0,0-.136-.381Z" transform="translate(-2042.734 -990.995)" fill="#fe7062"/>
              <path id="Trazado_119342" data-name="Trazado 119342" d="M2246.834,1001.887a.434.434,0,0,1,.219-.748l3.428-.6,1.447-3.166a.435.435,0,0,1,.779-.023l1.526,2.872a.435.435,0,0,0,.334.228l3.231.371a.434.434,0,0,1,.263.733l-2.26,2.339a.434.434,0,0,0-.113.388l.646,3.188a.434.434,0,0,1-.616.477l-2.923-1.427a.434.434,0,0,0-.4.012l-2.832,1.6a.434.434,0,0,1-.644-.439l.453-3.221a.435.435,0,0,0-.136-.381Z" transform="translate(-2231.288 -995.729)" fill="#91b3fa"/>
              <path id="Trazado_119343" data-name="Trazado 119343" d="M2419.984,1007.082a.434.434,0,0,1,.219-.748l3.428-.6,1.446-3.166a.435.435,0,0,1,.779-.023l1.526,2.872a.435.435,0,0,0,.334.228l3.231.371a.434.434,0,0,1,.263.733l-2.26,2.339a.434.434,0,0,0-.113.388l.646,3.188a.434.434,0,0,1-.616.477l-2.923-1.427a.434.434,0,0,0-.4.012l-2.832,1.6a.435.435,0,0,1-.644-.439l.454-3.221a.435.435,0,0,0-.136-.381Z" transform="translate(-2419.844 -1000.462)" fill="#91b3fa"/>
            </g>
          </g>
          <g id="Grupo_56036" data-name="Grupo 56036" transform="translate(1.53 51.007)">
            <path id="Trazado_119344" data-name="Trazado 119344" d="M1358.043,1517.472l.775,25.84c.063,2.106,1.4,3.774,2.98,3.727l94.135-2.825c1.315-.04,2.5,1.117,2.867,2.8l1.96,8.946c.26,1.186,1.509,1.248,1.8.089l1.949-7.666a3.023,3.023,0,0,1,2.6-2.536l4.046-.121c1.583-.047,2.815-1.793,2.752-3.9l-.8-26.562c-.063-2.093-1.382-3.757-2.956-3.727l-109.343,2.032C1359.227,1513.6,1357.98,1515.354,1358.043,1517.472Z" transform="translate(-1358.041 -1511.541)" fill="#fff"/>
            <g id="Grupo_56033" data-name="Grupo 56033" transform="translate(89.313 4.144)">
              <path id="Trazado_119345" data-name="Trazado 119345" d="M1420.033,1569.626a11.555,11.555,0,1,1-11.9-11.5A11.706,11.706,0,0,1,1420.033,1569.626Z" transform="translate(-1396.935 -1558.117)" fill="#91b3fa"/>
              <g id="Grupo_56032" data-name="Grupo 56032" transform="translate(3.931 3.421)">
                <path id="Trazado_119346" data-name="Trazado 119346" d="M1488.751,1600.327c.064,2.129,1.858,4.375,3.987,4.311s3.785-2.414,3.722-4.542a3.862,3.862,0,0,0-7.709.231Z" transform="translate(-1485.457 -1596.57)" fill="#fff"/>
                <path id="Trazado_119347" data-name="Trazado 119347" d="M1457.635,1707.938l-9.409.282a2.279,2.279,0,0,1-2.217-1.518l-.553-1.567a2.276,2.276,0,0,1,1.289-2.872,17.546,17.546,0,0,1,11.848-.226,2.269,2.269,0,0,1,1.536,2.706l-.347,1.449A2.279,2.279,0,0,1,1457.635,1707.938Z" transform="translate(-1445.325 -1691.819)" fill="#fff"/>
              </g>
            </g>
            <g id="Grupo_56034" data-name="Grupo 56034" transform="translate(12.304 17.466)">
              <path id="Trazado_119348" data-name="Trazado 119348" d="M1801.364,1710.029a2.241,2.241,0,0,1-2.173,2.307l-65.913,1.978a2.241,2.241,0,0,1-2.307-2.172h0a2.241,2.241,0,0,1,2.173-2.307l65.913-1.978a2.241,2.241,0,0,1,2.307,2.173Z" transform="translate(-1730.97 -1707.855)" fill="#91b3fa"/>
              <path id="Trazado_119349" data-name="Trazado 119349" d="M2076.468,1809.7a2.112,2.112,0,0,1,2.047-2.174l35.393-1.062a2.112,2.112,0,0,1,2.174,2.048h0a2.111,2.111,0,0,1-2.047,2.174l-35.393,1.062a2.112,2.112,0,0,1-2.174-2.047Z" transform="translate(-2076.427 -1797.689)" fill="#91b3fa"/>
              <path id="Trazado_119350" data-name="Trazado 119350" d="M1726.093,1798.894a2.112,2.112,0,0,1,2.047-2.174l25.652-.77a2.111,2.111,0,0,1,2.174,2.047h0a2.112,2.112,0,0,1-2.047,2.174l-25.652.77a2.111,2.111,0,0,1-2.174-2.047Z" transform="translate(-1685.138 -1788.112)" fill="#91b3fa"/>
            </g>
            <g id="Grupo_56035" data-name="Grupo 56035" transform="translate(11.453 3.853)">
              <path id="Trazado_119351" data-name="Trazado 119351" d="M1710.182,1559.618a.434.434,0,0,1,.218-.748l3.428-.6,1.446-3.166a.435.435,0,0,1,.779-.023l1.526,2.872a.434.434,0,0,0,.334.228l3.232.371a.434.434,0,0,1,.263.733l-2.26,2.339a.434.434,0,0,0-.113.388l.646,3.188a.434.434,0,0,1-.616.477l-2.923-1.427a.435.435,0,0,0-.4.012l-2.832,1.6a.434.434,0,0,1-.644-.439l.454-3.221a.436.436,0,0,0-.136-.381Z" transform="translate(-1648.423 -1554.847)" fill="#fe7062"/>
              <path id="Trazado_119352" data-name="Trazado 119352" d="M1883.332,1564.814a.434.434,0,0,1,.218-.748l3.428-.6,1.446-3.166a.434.434,0,0,1,.779-.023l1.526,2.872a.435.435,0,0,0,.334.228l3.231.371a.434.434,0,0,1,.263.733l-2.26,2.339a.434.434,0,0,0-.113.388l.646,3.188a.435.435,0,0,1-.616.477l-2.923-1.427a.435.435,0,0,0-.4.012l-2.832,1.6a.434.434,0,0,1-.644-.439l.453-3.221a.435.435,0,0,0-.136-.381Z" transform="translate(-1836.977 -1559.58)" fill="#fe7062"/>
              <path id="Trazado_119353" data-name="Trazado 119353" d="M2056.481,1570.009a.434.434,0,0,1,.219-.748l3.428-.6,1.446-3.167a.435.435,0,0,1,.779-.023l1.526,2.872a.435.435,0,0,0,.334.228l3.231.371a.434.434,0,0,1,.263.733l-2.26,2.339a.435.435,0,0,0-.113.388l.646,3.188a.434.434,0,0,1-.616.477l-2.923-1.427a.435.435,0,0,0-.4.012l-2.832,1.6a.434.434,0,0,1-.644-.439l.453-3.221a.435.435,0,0,0-.136-.381Z" transform="translate(-2025.531 -1564.313)" fill="#fe7062"/>
              <path id="Trazado_119354" data-name="Trazado 119354" d="M2229.632,1575.205a.434.434,0,0,1,.219-.748l3.428-.6,1.446-3.166a.435.435,0,0,1,.779-.023l1.526,2.872a.434.434,0,0,0,.334.228l3.232.371a.434.434,0,0,1,.263.733l-2.26,2.339a.435.435,0,0,0-.113.388l.646,3.188a.434.434,0,0,1-.616.477l-2.923-1.427a.434.434,0,0,0-.4.012l-2.833,1.6a.434.434,0,0,1-.644-.439l.454-3.221a.435.435,0,0,0-.136-.381Z" transform="translate(-2214.086 -1569.047)" fill="#fe7062"/>
              <path id="Trazado_119355" data-name="Trazado 119355" d="M2402.781,1580.4a.435.435,0,0,1,.219-.748l3.428-.6,1.446-3.166a.434.434,0,0,1,.779-.023l1.526,2.872a.434.434,0,0,0,.334.228l3.231.371a.434.434,0,0,1,.263.733l-2.26,2.339a.434.434,0,0,0-.113.388l.646,3.188a.435.435,0,0,1-.616.476l-2.923-1.426a.434.434,0,0,0-.4.012l-2.832,1.6a.434.434,0,0,1-.644-.439l.454-3.221a.435.435,0,0,0-.136-.381Z" transform="translate(-2402.641 -1573.781)" fill="#fe7062"/>
            </g>
          </g>
          <g id="Grupo_56041" data-name="Grupo 56041" transform="translate(3.057 101.875)">
            <path id="Trazado_119356" data-name="Trazado 119356" d="M1340.887,2089.235l.775,25.84c.063,2.105,1.4,3.774,2.98,3.727l94.135-2.825c1.315-.04,2.5,1.117,2.867,2.8l1.961,8.946c.26,1.186,1.509,1.248,1.8.089l1.948-7.667a3.023,3.023,0,0,1,2.6-2.536l4.046-.121c1.583-.047,2.815-1.793,2.751-3.9l-.8-26.562c-.063-2.093-1.382-3.757-2.956-3.727l-109.343,2.031C1342.07,2085.365,1340.824,2087.116,1340.887,2089.235Z" transform="translate(-1340.885 -2083.304)" fill="#fff"/>
            <g id="Grupo_56038" data-name="Grupo 56038" transform="translate(89.313 4.144)">
              <path id="Trazado_119357" data-name="Trazado 119357" d="M1402.876,2141.389a11.555,11.555,0,1,1-11.9-11.5A11.706,11.706,0,0,1,1402.876,2141.389Z" transform="translate(-1379.778 -2129.881)" fill="#91b3fa"/>
              <g id="Grupo_56037" data-name="Grupo 56037" transform="translate(3.93 3.421)">
                <path id="Trazado_119358" data-name="Trazado 119358" d="M1471.595,2172.091c.064,2.129,1.858,4.375,3.987,4.311s3.785-2.414,3.722-4.542a3.862,3.862,0,0,0-7.708.231Z" transform="translate(-1468.301 -2168.334)" fill="#fff"/>
                <path id="Trazado_119359" data-name="Trazado 119359" d="M1440.479,2279.7l-9.409.282a2.278,2.278,0,0,1-2.217-1.518l-.554-1.567a2.276,2.276,0,0,1,1.29-2.872,17.544,17.544,0,0,1,11.848-.226,2.269,2.269,0,0,1,1.536,2.706l-.347,1.449A2.278,2.278,0,0,1,1440.479,2279.7Z" transform="translate(-1428.168 -2263.582)" fill="#fff"/>
              </g>
            </g>
            <g id="Grupo_56039" data-name="Grupo 56039" transform="translate(12.338 17.461)">
              <path id="Trazado_119360" data-name="Trazado 119360" d="M1712.021,2283.851a2.241,2.241,0,0,0,2.307,2.173l65.913-1.978a2.241,2.241,0,0,0,2.173-2.307h0a2.241,2.241,0,0,0-2.307-2.172l-65.913,1.978a2.241,2.241,0,0,0-2.173,2.307Z" transform="translate(-1711.895 -2279.565)" fill="#91b3fa"/>
              <path id="Trazado_119361" data-name="Trazado 119361" d="M1709.008,2368.545a2.111,2.111,0,0,0,2.174,2.047l35.393-1.062a2.111,2.111,0,0,0,2.047-2.174h0a2.112,2.112,0,0,0-2.174-2.047l-35.393,1.062a2.112,2.112,0,0,0-2.047,2.174Z" transform="translate(-1677.835 -2357.68)" fill="#91b3fa"/>
              <path id="Trazado_119362" data-name="Trazado 119362" d="M2168.875,2382.052a2.111,2.111,0,0,0,2.174,2.048l25.652-.77a2.111,2.111,0,0,0,2.047-2.174h0a2.112,2.112,0,0,0-2.174-2.048l-25.652.77a2.111,2.111,0,0,0-2.047,2.174Z" transform="translate(-2168.874 -2370.251)" fill="#91b3fa"/>
            </g>
            <g id="Grupo_56040" data-name="Grupo 56040" transform="translate(11.453 3.853)">
              <path id="Trazado_119363" data-name="Trazado 119363" d="M1693.025,2131.382a.434.434,0,0,1,.218-.748l3.428-.6,1.446-3.166a.435.435,0,0,1,.779-.023l1.526,2.872a.435.435,0,0,0,.334.228l3.231.371a.434.434,0,0,1,.263.733l-2.26,2.339a.434.434,0,0,0-.113.388l.646,3.188a.434.434,0,0,1-.616.476l-2.923-1.426a.434.434,0,0,0-.4.012l-2.832,1.6a.434.434,0,0,1-.644-.439l.453-3.221a.434.434,0,0,0-.136-.381Z" transform="translate(-1631.266 -2126.61)" fill="url(#linear-gradient-2)"/>
              <path id="Trazado_119364" data-name="Trazado 119364" d="M1866.175,2136.578a.434.434,0,0,1,.219-.748l3.428-.6,1.446-3.167a.434.434,0,0,1,.779-.023l1.527,2.872a.434.434,0,0,0,.334.228l3.231.371a.434.434,0,0,1,.263.733l-2.26,2.339a.434.434,0,0,0-.113.388l.646,3.188a.435.435,0,0,1-.616.477l-2.923-1.427a.435.435,0,0,0-.4.012l-2.832,1.6a.434.434,0,0,1-.644-.439l.453-3.22a.434.434,0,0,0-.136-.381Z" transform="translate(-1819.82 -2131.344)" fill="#bdd0fb"/>
              <path id="Trazado_119365" data-name="Trazado 119365" d="M2039.324,2141.772a.434.434,0,0,1,.219-.748l3.428-.6,1.446-3.166a.435.435,0,0,1,.779-.023l1.526,2.872a.435.435,0,0,0,.334.228l3.231.371a.434.434,0,0,1,.263.733l-2.26,2.339a.434.434,0,0,0-.113.388l.646,3.188a.434.434,0,0,1-.616.477l-2.923-1.426a.434.434,0,0,0-.4.012l-2.832,1.6a.434.434,0,0,1-.644-.439l.453-3.221a.435.435,0,0,0-.136-.381Z" transform="translate(-2008.374 -2136.076)" fill="#bdd0fb"/>
              <path id="Trazado_119366" data-name="Trazado 119366" d="M2212.475,2146.969a.434.434,0,0,1,.219-.748l3.428-.6,1.447-3.167a.434.434,0,0,1,.779-.023l1.527,2.872a.434.434,0,0,0,.334.228l3.231.371a.435.435,0,0,1,.263.734l-2.26,2.339a.434.434,0,0,0-.114.388l.646,3.188a.434.434,0,0,1-.616.477l-2.923-1.427a.435.435,0,0,0-.4.012l-2.832,1.6a.434.434,0,0,1-.644-.439l.453-3.221a.434.434,0,0,0-.136-.381Z" transform="translate(-2196.929 -2140.81)" fill="#bdd0fb"/>
              <path id="Trazado_119367" data-name="Trazado 119367" d="M2385.624,2152.165a.435.435,0,0,1,.218-.748l3.428-.6,1.446-3.167a.435.435,0,0,1,.779-.023l1.526,2.872a.435.435,0,0,0,.334.228l3.232.371a.434.434,0,0,1,.262.733l-2.26,2.339a.435.435,0,0,0-.113.388l.646,3.188a.434.434,0,0,1-.616.476l-2.923-1.426a.433.433,0,0,0-.4.012l-2.833,1.6a.435.435,0,0,1-.644-.439l.453-3.221a.434.434,0,0,0-.136-.381Z" transform="translate(-2385.484 -2145.544)" fill="#bdd0fb"/>
            </g>
          </g>
        </g>
        <g id="Grupo_56047" data-name="Grupo 56047" transform="translate(56.05 192.749)">
          <g id="Grupo_56043" data-name="Grupo 56043" transform="translate(139.319 0)">
            <path id="Trazado_119368" data-name="Trazado 119368" d="M876.422,2636.311c-.006-.16-.01-.306-.015-.433a1.211,1.211,0,0,1,.4-.942,33.7,33.7,0,0,1,15.705-7.725,1.031,1.031,0,0,1,1.051.439,21.934,21.934,0,0,0-2.862.587A34.861,34.861,0,0,0,876.422,2636.311Z" transform="translate(-876.407 -2627.193)" fill="#1a0f91"/>
            <path id="Trazado_119369" data-name="Trazado 119369" d="M888.6,2632.918a21.932,21.932,0,0,1,2.862-.587,1.044,1.044,0,0,1,.027,1.148,7.038,7.038,0,0,1-.5.71c-1.3,1.623-11.77,12.369-11.77,12.369s-3.325.406-4.342-.183c-.329-.191-.493-3.643-.555-5.383A34.864,34.864,0,0,1,888.6,2632.918Z" transform="translate(-874.302 -2631.874)" fill="#1a0f91"/>
          </g>
          <path id="Trazado_119370" data-name="Trazado 119370" d="M1001.568,2774.253v-6.4a1.251,1.251,0,0,1,.86-1.195,4.907,4.907,0,0,1,3.126-.077,1.806,1.806,0,0,1,1.145,1.556l.477,5.978Z" transform="translate(-861.836 -2753.974)" fill="#ffbe9d"/>
          <g id="Grupo_56044" data-name="Grupo 56044" transform="translate(164.119 13.689)">
            <path id="Trazado_119371" data-name="Trazado 119371" d="M561.782,2785.079a1.294,1.294,0,0,1,.414-.621,79.754,79.754,0,0,1,9.874,3.03c6.646,2.346,8.591,4.4,9.152,5.491-2.848.834-9.319,2.109-18.6.294l-1.834-.86A35.09,35.09,0,0,1,561.782,2785.079Z" transform="translate(-560.784 -2784.156)" fill="#1a0f91"/>
            <path id="Trazado_119372" data-name="Trazado 119372" d="M560.883,2784.388a79.783,79.783,0,0,0-9.874-3.03,1.3,1.3,0,0,1,1.1-.275c3.3.687,13.273,3.034,18.485,7.26a.836.836,0,0,1-.272,1.451l-.284.085C569.474,2788.784,567.529,2786.735,560.883,2784.388Z" transform="translate(-549.597 -2781.056)" fill="#1a0f91"/>
          </g>
          <path id="Trazado_119373" data-name="Trazado 119373" d="M738.368,2864.039l3.906-4.681a1.448,1.448,0,0,1,1.563-.451,5.343,5.343,0,0,1,2.26,1.5,1.327,1.327,0,0,1,.195,1.5l-2.842,5.507Z" transform="translate(-577.684 -2838.227)" fill="#ffbe9d"/>
          <path id="Trazado_119374" data-name="Trazado 119374" d="M1000.855,2825.924s-4.767-.915-7.411,0c0,0-3.486,20.921-2.887,27.648l10.3,2.093S1001.147,2832.094,1000.855,2825.924Z" transform="translate(-854.658 -2807.873)" fill="url(#linear-gradient-3)"/>
          <path id="Trazado_119375" data-name="Trazado 119375" d="M759.382,2938.25s33.676,1.891,47.345.948a3.783,3.783,0,0,0,3.126-2.085c2.93-5.865,11.715-23.463,12.486-25.143,0,0-3.569-2.981-6.2-3.393,0,0-12.473,13.876-12.995,20.956,0,0-28.885-8.308-31.737-8.229s-11.6,3.982-11.6,3.982Z" transform="translate(-655.451 -2883.543)" fill="url(#linear-gradient-4)"/>
          <path id="Trazado_119376" data-name="Trazado 119376" d="M1971.655,2820.327s1.236-2.569.164-3.925-4.935-5.552-4.935-5.552l-.449-2.9-1.587,4.724,3.407,7.126S1970.249,2821.958,1971.655,2820.327Z" transform="translate(-1912.616 -2791.869)" fill="#f2b495"/>
          <path id="Trazado_119377" data-name="Trazado 119377" d="M1971.6,2953.615a53.857,53.857,0,0,1,5.252-12.477l3.4.527-1.678,11.789C1977.3,2953.842,1973.794,2954.728,1971.6,2953.615Z" transform="translate(-1921.219 -2913.207)" fill="#f2b495"/>
          <path id="Trazado_119378" data-name="Trazado 119378" d="M1420.765,2897.354a69.656,69.656,0,0,1,2.2-11.479c2.189,1.113,5.691.227,6.975-.161l-.482,3.385,1.289-4.559a26.465,26.465,0,0,1,9.5-13.9l3.2-2.422c3.145-2.38,8.173-1.558,11.382.736,7.124,5.091,17.7,13.628,21.308,16.564a2.658,2.658,0,0,0,2.754.367l.6-.267a.807.807,0,0,1,1.128.827l-1.533,14.014-24.472-.283c-2.934,0-11.435-.3-12.787-2.906l-2.263-5.554a44.464,44.464,0,0,1-15.75,8.511A2.553,2.553,0,0,1,1420.765,2897.354Z" transform="translate(-1372.581 -2845.466)" fill="url(#linear-gradient-5)"/>
          <path id="Trazado_119379" data-name="Trazado 119379" d="M1815.366,2798.381l7.523,7.308a1.339,1.339,0,0,1,.1,1.818c-2.32,2.765-4.312,4.215-5.967,4.324a1.938,1.938,0,0,1-1.745-.918l-4-6.305Z" transform="translate(-1749.995 -2783.151)" fill="#f2b495"/>
          <path id="Trazado_119380" data-name="Trazado 119380" d="M2085.094,3177.353l-6.472-2.519-7.524,5.985,13.472.05Z" transform="translate(-2034.906 -3126.113)" fill="#f2b495"/>
          <g id="Grupo_56045" data-name="Grupo 56045" transform="translate(48.198 2.704)">
            <path id="Trazado_119381" data-name="Trazado 119381" d="M1887.1,2730.646s1.027,7.219,3.8,9.439,8.176.549,10-4.893l-3.636-9.3Z" transform="translate(-1882.546 -2719.811)" fill="#ffbe9d"/>
            <path id="Trazado_119382" data-name="Trazado 119382" d="M1856.41,2669.684a.358.358,0,0,1-.465-.286,9.325,9.325,0,0,0-.856-2.884s.265-.947-2.394.484-6.651,3.532-9,2.281c-2.292-1.22-4.613-7.361,1.443-6.223a.357.357,0,0,0,.425-.374c-.074-1.009.026-3.331,2.377-4.076a3.38,3.38,0,0,1,3.9.9.355.355,0,0,0,.556-.009,4.121,4.121,0,0,1,5.084-1.531c2.17.957,2.508,2.293,2.472,3.126a.356.356,0,0,0,.508.34,2.145,2.145,0,0,1,2.758.818c1.416,1.774-.608,3.313-1.215,3.716a.357.357,0,0,0-.162.295c-.006.923-.149,4.947-2.166,7.218a.36.36,0,0,1-.6-.1l-1.553-3.7a.359.359,0,0,0-.441-.2Z" transform="translate(-1841.278 -2657.586)" fill="#1a0f91"/>
            <path id="Trazado_119383" data-name="Trazado 119383" d="M1891,2772.732s.948-3.863,2.389-2.609-.376,4.014-2.026,4.541Z" transform="translate(-1875.9 -2759.883)" fill="#ffbe9d"/>
          </g>
          <path id="Trazado_119384" data-name="Trazado 119384" d="M1672.841,2891.7s-.29-8.937,3.381-9.116c4.559-.223,11.887,3.081,7.525,16.179-2.41,7.236-6.042,12.605-16.013,14.88a14.768,14.768,0,0,0-3.376-7.663A20.146,20.146,0,0,0,1672.841,2891.7Z" transform="translate(-1598.709 -2859.856)" fill="url(#linear-gradient-6)"/>
          <path id="Trazado_119385" data-name="Trazado 119385" d="M1714.808,2902.355a.353.353,0,0,0,.205-.066c4.678-3.3,7.275-7.8,8.174-14.189a.352.352,0,0,0,0-.061c-.077-2.388.32-8.615,3.042-8.748a8.907,8.907,0,0,1,3.887.7.357.357,0,1,0,.284-.656,9.652,9.652,0,0,0-4.206-.758c-3.9.191-3.741,8.765-3.722,9.454-.873,6.16-3.376,10.506-7.874,13.675a.357.357,0,0,0,.206.649Z" transform="translate(-1648.702 -2856.203)" fill="url(#linear-gradient-7)"/>
          <path id="Trazado_119386" data-name="Trazado 119386" d="M1664.777,3037.886a.353.353,0,0,0,.117-.02c8.272-2.854,11.166-8.515,13.062-14.207a29.559,29.559,0,0,0,.985-3.692.357.357,0,0,0-.7-.135,28.79,28.79,0,0,1-.961,3.6c-1.838,5.518-4.638,11-12.617,13.758a.357.357,0,0,0,.116.695Z" transform="translate(-1592.579 -2984.637)" fill="url(#linear-gradient-8)"/>
          <path id="Trazado_119387" data-name="Trazado 119387" d="M1859.363,3154.244l.016-3.467s9.716.215,17.278-5.114a14.766,14.766,0,0,1,3.376,7.663C1874.987,3154.479,1868.32,3154.838,1859.363,3154.244Z" transform="translate(-1811.008 -3099.537)" fill="#f2b495"/>
          <g id="Grupo_56046" data-name="Grupo 56046" transform="translate(0 27.859)">
            <path id="Trazado_119388" data-name="Trazado 119388" d="M1969.287,3227.044h-.071l-30.9-.033a1.383,1.383,0,0,1,0-2.766l30.9.034a1.383,1.383,0,0,1,.068,2.764Z" transform="translate(-1908.477 -3198.987)" fill="url(#linear-gradient-9)"/>
            <path id="Trazado_119389" data-name="Trazado 119389" d="M2141.28,2940.336h25.736a4.905,4.905,0,0,1,4.436,2.813l11.9,25.228h-31.982a2.98,2.98,0,0,1-2.772-1.885l-9.226-23.345A2.055,2.055,0,0,1,2141.28,2940.336Z" transform="translate(-2139.223 -2940.336)" fill="url(#linear-gradient-10)"/>
          </g>
        </g>
        <g id="Grupo_56049" data-name="Grupo 56049" transform="translate(10.281 193.721)">
          <path id="Trazado_119390" data-name="Trazado 119390" d="M2422.232,2638.124H2472c4.282,0,8.78,3.2,8.78,7.48v.005c0,4.282-4.5,8.24-8.78,8.24h-3.6l-2.416,5.624c-.1.25-.346.291-.616.291s-.513.02-.616-.23l-2.416-5.685h-40.111c-4.282,0-6.77-3.958-6.77-8.24v-.005C2415.462,2641.323,2417.95,2638.124,2422.232,2638.124Z" transform="translate(-2415.462 -2638.124)" fill="#bdd0fb"/>
          <g id="Grupo_56048" data-name="Grupo 56048" transform="translate(8.888 3.588)">
            <path id="Trazado_119391" data-name="Trazado 119391" d="M2544.2,2678.457l-1.144,2.318-2.558.372,1.851,1.8-.437,2.547,2.288-1.2,2.287,1.2-.437-2.547,1.851-1.8-2.557-.372Z" transform="translate(-2502.589 -2678.457)" fill="#fe7062"/>
            <path id="Trazado_119392" data-name="Trazado 119392" d="M2643.357,2678.485l-1.144,2.318-2.558.372,1.851,1.8-.437,2.548,2.288-1.2,2.288,1.2-.437-2.548,1.851-1.8-2.558-.372Z" transform="translate(-2610.572 -2678.482)" fill="#fe7062"/>
            <path id="Trazado_119393" data-name="Trazado 119393" d="M2752.323,2678.485l-1.144,2.318-2.558.372,1.851,1.8-.437,2.548,2.288-1.2,2.288,1.2-.437-2.548,1.851-1.8-2.558-.372Z" transform="translate(-2729.233 -2678.482)" fill="#fe7062"/>
            <path id="Trazado_119394" data-name="Trazado 119394" d="M2861.29,2678.485l-1.144,2.318-2.558.372,1.851,1.8-.437,2.548,2.288-1.2,2.288,1.2-.437-2.548,1.851-1.8-2.558-.372Z" transform="translate(-2847.894 -2678.482)" fill="#fe7062"/>
            <path id="Trazado_119395" data-name="Trazado 119395" d="M2970.257,2678.485l-1.144,2.318-2.558.372,1.851,1.8-.437,2.548,2.288-1.2,2.288,1.2-.437-2.548,1.851-1.8-2.557-.372Z" transform="translate(-2966.555 -2678.482)" fill="#fe7062"/>
          </g>
        </g>
      </g>
      <rect id="Rectángulo_29689" data-name="Rectángulo 29689" width="280" height="256" transform="translate(1077 613)" fill="none"/>
    </g>
  </g>
</svg>
