<svg xmlns="http://www.w3.org/2000/svg" xmlns:xlink="http://www.w3.org/1999/xlink" width="393.978" height="294.718" viewBox="0 0 393.978 294.718">
  <defs>
    <linearGradient id="linear-gradient" x1="1.086" y1="1.014" x2="0.335" y2="0.363" gradientUnits="objectBoundingBox">
      <stop offset="0" stop-color="#dae3fe"/>
      <stop offset="1" stop-color="#e9effd"/>
    </linearGradient>
    <linearGradient id="linear-gradient-2" x1="3.019" y1="-0.038" x2="2.074" y2="-1.186" gradientUnits="objectBoundingBox">
      <stop offset="0" stop-color="#4f52ff"/>
      <stop offset="1" stop-color="#4042e2"/>
    </linearGradient>
    <linearGradient id="linear-gradient-3" x1="0.17" y1="1.057" x2="-1.001" y2="1.743" xlink:href="#linear-gradient-2"/>
    <linearGradient id="linear-gradient-4" x1="0.559" y1="0.94" x2="-1.699" y2="1.727" xlink:href="#linear-gradient-2"/>
    <linearGradient id="linear-gradient-5" x1="3.002" y1="-0.037" x2="0.627" y2="0.48" gradientUnits="objectBoundingBox">
      <stop offset="0" stop-color="#09005d"/>
      <stop offset="1" stop-color="#1a0f91"/>
    </linearGradient>
    <linearGradient id="linear-gradient-6" x1="3.933" y1="-0.554" x2="-0.914" y2="1.831" gradientUnits="objectBoundingBox">
      <stop offset="0" stop-color="#febbba"/>
      <stop offset="1" stop-color="#ff928e"/>
    </linearGradient>
    <linearGradient id="linear-gradient-7" x1="0.946" y1="-0.73" x2="-0.211" y2="2.452" xlink:href="#linear-gradient-2"/>
    <linearGradient id="linear-gradient-8" x1="1.638" y1="-2.591" x2="-0.869" y2="4.221" xlink:href="#linear-gradient-2"/>
    <linearGradient id="linear-gradient-9" x1="2.927" y1="0.63" x2="-3.166" y2="1.792" xlink:href="#linear-gradient-2"/>
    <linearGradient id="linear-gradient-10" x1="1.492" y1="-0.373" x2="0.466" y2="0.555" xlink:href="#linear-gradient-2"/>
    <linearGradient id="linear-gradient-11" x1="0.673" y1="0.544" x2="-2.503" y2="-2.074" xlink:href="#linear-gradient-2"/>
  </defs>
  <g id="Grupo_57243" data-name="Grupo 57243" transform="translate(-603 -613)">
    <g id="Image_Place_Holder" data-name="Image Place Holder" transform="translate(603 641.025)">
      <rect id="Image_Place_Holder-2" data-name="Image Place Holder" width="393.978" height="266.693" rx="10" fill="#dad7fa"/>
    </g>
    <g id="Grupo_56105" data-name="Grupo 56105">
      <g id="Grupo_56102" data-name="Grupo 56102" transform="translate(225.288 157.318)">
        <path id="Trazado_119396" data-name="Trazado 119396" d="M745.382,626.975c-23.659,55.707-86.68,86.914-141.332,78.5-8.893-1.37-33.273-5.45-54.859-24.7-41.554-37.057-50.44-110.436-16.92-162.147,24.4-37.637,68.13-58.972,109.686-57.9,8.951.23,43.255,1.647,73.4,26.506a113.062,113.062,0,0,1,23,26.092C759.024,545.639,760.8,590.671,745.382,626.975Z" transform="translate(-56.524)" fill="url(#linear-gradient)"/>
        <g id="Grupo_56056" data-name="Grupo 56056" transform="translate(449.712 525.187)">
          <g id="Grupo_56051" data-name="Grupo 56051" transform="translate(0 0)">
            <path id="Trazado_119397" data-name="Trazado 119397" d="M1242.727,2364.5c-17.624-3.886-4.347-30.031-3.722-31.043l-31.583,11.091s-2.821,15.2,16.833,29.187a28.251,28.251,0,0,0,14.747,5.375A24.872,24.872,0,0,1,1242.727,2364.5Z" transform="translate(-1139.924 -2231.454)" fill="url(#linear-gradient-2)"/>
            <path id="Trazado_119398" data-name="Trazado 119398" d="M1603.255,2651.36c-5.178-6.329-13.771-3.919-13.771-3.919-10.24,3.189-17.31,3.773-22.1,2.716a24.872,24.872,0,0,0-3.725,14.61c10.263.674,19.174-4.356,23.2-7.092a3.247,3.247,0,0,1,4.457.757c1.042,1.444,1.934,3.269,1.262,4.732-1.326,2.885,1.9,4.84,2.478,3.821s.96-7.922.96-7.922,5,9.034,6.962,12.518,6.171,1.756,6.171,1.756S1608.434,2657.689,1603.255,2651.36Z" transform="translate(-1464.58 -2517.107)" fill="#ffbe9d"/>
            <path id="Trazado_119399" data-name="Trazado 119399" d="M751.226,1874.518s22.176-17.47,80.339,7.379c0,0,6.29,6.938,4.147,15.394s-32.433,55.5-32.287,76.6c0,0-21.885,14.991-52.4,3.714C751.02,1977.606,737.283,1922.808,751.226,1874.518Z" transform="translate(-718.723 -1807.88)" fill="url(#linear-gradient-3)"/>
            <path id="Trazado_119400" data-name="Trazado 119400" d="M1258.665,1670.005l-7.958,18.648a5.135,5.135,0,0,0,.91,5.487c2.75,3,8.328,6.9,17.16,3.532a7.919,7.919,0,0,0,4.99-6.1l3.385-20.437Z" transform="translate(-1179.107 -1626.987)" fill="#f5b797"/>
            <path id="Trazado_119401" data-name="Trazado 119401" d="M481.675,2005.642c-6.419-11.027,15.339-46.231,15.339-46.231l-14.8-23.757s-51.319,61.293-24.988,90.676a25.94,25.94,0,0,0,12.149,7.969C470.442,2018.948,476.765,2010.191,481.675,2005.642Z" transform="translate(-449.713 -1869.016)" fill="url(#linear-gradient-4)"/>
            <path id="Trazado_119402" data-name="Trazado 119402" d="M781.692,2234.316a.728.728,0,0,1-.834-.333c-6.563-11.274,14.452-45.527,15.35-46.98a.728.728,0,0,1,1.239.766c-.216.348-21.457,34.957-15.33,45.482a.728.728,0,0,1-.425,1.065Z" transform="translate(-750.26 -2097.704)" fill="url(#linear-gradient-5)"/>
            <path id="Trazado_119403" data-name="Trazado 119403" d="M726.466,2698.813c-3.938,1.092-7.6,3.05-11.557,4.057-4.393,1.118-8.736,2.432-13.16,3.428-6.882,1.55-15.937,3.326-21.982-1.4-.51-.4-4.608-5.033-4.9-4.866-10.975,6.34-13.109,21.157-13.109,28.345,20.009,10.941,51.477-10.364,59.954-16.59a6.631,6.631,0,0,1,4.835-1.233c3.466.475,9.441,1.114,12.592.406,4.609-1.036,12.423,14.938,19.626,9.354C758.768,2720.311,750.351,2692.191,726.466,2698.813Z" transform="translate(-642.907 -2563.402)" fill="#ffbe9d"/>
            <g id="Grupo_56050" data-name="Grupo 56050" transform="translate(64.929)">
              <path id="Trazado_119404" data-name="Trazado 119404" d="M1342.827,1373.562s5.025,16.274,4.57,24.471.711,13.679-8.891,14.269-17.014-4.988-20.407-13.582c0,0-5.341-13.255-3.259-18.207S1342.827,1373.562,1342.827,1373.562Z" transform="translate(-1302.409 -1356.901)" fill="#ffbe9d"/>
              <path id="Trazado_119405" data-name="Trazado 119405" d="M1199.531,1222.521l1.191.133s-3.784-10.611.724-11.9,21.973-2.865,26.333-8.513c4.2-5.445,1.877-13.344-2.626-15.984a.638.638,0,0,0-.84.208l-.475.7a.644.644,0,0,1-1.167-.253h0a.641.641,0,0,0-1.127-.3c-1.33,1.686-4.713,4.292-13.072,4.89-11.861.849-20.069,4.7-21.154,12.706a.644.644,0,0,1-1.049.414c-.8-.619-2.145-1.017-4.152.321-3.491,2.327-2.961,9.434,3.4,15.94a.64.64,0,0,1-.145,1.022c-1.36.684-3.47,2.438,1.137,5.6,4.712,3.238,7.71,3.276,8.862,3.115a.644.644,0,0,0,.558-.608l.354-7.167a.644.644,0,0,1,.714-.608Z" transform="translate(-1179.973 -1186.178)" fill="#1a0f91"/>
              <path id="Trazado_119406" data-name="Trazado 119406" d="M1319.2,1527.5s-1.472-10.2-6.227-7.918,1.068,11.366,4.6,12.136Z" transform="translate(-1299.518 -1489.636)" fill="url(#linear-gradient-6)"/>
              <g id="Grupo_56104" data-name="Grupo 56104" transform="matrix(0.978, -0.208, 0.208, 0.978, 22.962, 28.782)">
                <path id="Trazado_118772" data-name="Trazado 118772" d="M273.492,225.708a1.319,1.319,0,0,1-1.27,1.33,1.26,1.26,0,0,1-1.349-1.164v-.016a1.31,1.31,0,0,1,1.26-1.33,1.259,1.259,0,0,1,1.358,1.151v.029Z" transform="translate(-253.899 -218.323)" fill="#263238"/>
                <path id="Trazado_118773" data-name="Trazado 118773" d="M275.969,223.175c-.16.17-1.15-.56-2.56-.55s-2.45.71-2.6.54.09-.38.54-.71a3.585,3.585,0,0,1,2.08-.65,3.335,3.335,0,0,1,2,.66C275.879,222.8,276.049,223.108,275.969,223.175Z" transform="translate(-256.286 -218.323)" fill="#263238"/>
                <path id="Trazado_118774" data-name="Trazado 118774" d="M287.591,226.128a1.309,1.309,0,0,1-1.26,1.33,1.262,1.262,0,0,1-1.358-1.154v-.026a1.32,1.32,0,0,1,1.27-1.33,1.249,1.249,0,0,1,1.348,1.143h0Z" transform="translate(-282.098 -218.323)" fill="#263238"/>
                <path id="Trazado_118775" data-name="Trazado 118775" d="M289.847,224.138c-.16.17-1.16-.56-2.57-.55s-2.45.71-2.6.54.09-.39.54-.72a3.611,3.611,0,0,1,2.08-.64,3.45,3.45,0,0,1,2.05.65C289.777,223.748,289.927,224.058,289.847,224.138Z" transform="translate(-284.034 -218.323)" fill="#263238"/>
                <path id="Trazado_118776" data-name="Trazado 118776" d="M276.62,234.6a8.972,8.972,0,0,1,2.29-.42c.36,0,.7-.11.76-.36a1.91,1.91,0,0,0-.24-1.07l-1.08-2.74a49.472,49.472,0,0,1-2.41-7.17c.16-.06,1.5,3.06,3,7,.35,1,.7,1.88,1,2.76a2,2,0,0,1,.19,1.41.89.89,0,0,1-.59.53,2.413,2.413,0,0,1-.61.09A9.207,9.207,0,0,1,276.62,234.6Z" transform="translate(-265.658 -218.323)" fill="#263238"/>
                <path id="Trazado_118778" data-name="Trazado 118778" d="M284.17,238a2.537,2.537,0,0,0-2.29-.94,2.341,2.341,0,0,0-1.6.87,1.471,1.471,0,0,0-.11,1.68,1.723,1.723,0,0,0,1.86.46,5.368,5.368,0,0,0,1.8-1.08,1.6,1.6,0,0,0,.4-.42.488.488,0,0,0,0-.52" transform="translate(-273.797 -218.323)" fill="#eb996e"/>
                <path id="Trazado_118779" data-name="Trazado 118779" d="M290.458,221.668c-.14.38-1.55.2-3.2.41s-3,.65-3.22.31c-.1-.16.13-.53.67-.9a5.607,5.607,0,0,1,4.9-.56C290.208,221.175,290.518,221.475,290.458,221.668Z" transform="translate(-284.016 -218.323)" fill="#263238"/>
                <path id="Trazado_118780" data-name="Trazado 118780" d="M276.082,219.758c-.25.32-1.22,0-2.39,0s-2.16.22-2.39-.12c-.1-.16,0-.48.49-.78a3.177,3.177,0,0,1,1.94-.53,3.285,3.285,0,0,1,1.91.64C276.052,219.275,276.192,219.6,276.082,219.758Z" transform="translate(-256.919 -218.323)" fill="#263238"/>
                <path id="Trazado_118786" data-name="Trazado 118786" d="M279.293,236.748a6.419,6.419,0,0,0,2.56,2.07,7.015,7.015,0,0,0,3.11,1.09,20.561,20.561,0,0,0-2.86-1.55A28.294,28.294,0,0,0,279.293,236.748Z" transform="translate(-273.79 -218.323)" fill="#263238"/>
              </g>
            </g>
            <path id="Trazado_119407" data-name="Trazado 119407" d="M1189.959,2973.711c.062,0,.123,0,.186,0l80.748-1.249a3.436,3.436,0,1,0-.142-6.862L1190,2966.851a3.5,3.5,0,0,0-3.543,3.487A3.539,3.539,0,0,0,1189.959,2973.711Z" transform="translate(-1120.952 -2807.387)" fill="#1a0f91"/>
          </g>
          <g id="Grupo_56055" data-name="Grupo 56055" transform="translate(70.803 3.774)">
            <g id="Grupo_56053" data-name="Grupo 56053" transform="translate(3.393 31.579)">
              <g id="Grupo_56052" data-name="Grupo 56052">
                <path id="Trazado_119408" data-name="Trazado 119408" d="M1310.447,1596.556c-14.387,1.22-26.157-10.045-26.24-10.214V1583.8c.08.162,12.482,12.681,26.157,11.521Z" transform="translate(-1284.207 -1583.803)" fill="url(#linear-gradient-7)"/>
              </g>
              <path id="Trazado_119409" data-name="Trazado 119409" d="M1571.467,1702.455a1.647,1.647,0,0,1-1.544,1.733h-4.117a1.647,1.647,0,0,1-1.544-1.733h0a1.647,1.647,0,0,1,1.544-1.734h4.117a1.647,1.647,0,0,1,1.544,1.734Z" transform="translate(-1539.363 -1690.326)" fill="url(#linear-gradient-8)"/>
            </g>
            <g id="Grupo_56054" data-name="Grupo 56054">
              <path id="Trazado_119410" data-name="Trazado 119410" d="M1316.924,1247.432s-3.286-17.53,16.981-17.629a.236.236,0,0,0,.054-.467c-5.552-1.279-21.666-3.174-21.909,17.863C1315.137,1248.312,1316.924,1247.432,1316.924,1247.432Z" transform="translate(-1306.18 -1228.628)" fill="url(#linear-gradient-9)"/>
              <path id="Trazado_119411" data-name="Trazado 119411" d="M1253.072,1414.823c-7.909,1.605-6.937,11.607-6.937,11.607-.57,7.258,1.549,10.856,4.263,12.571a6.249,6.249,0,0,0,9.563-4.826c.146-1.975.313-3.853.46-4.52C1260.777,1428.039,1260.981,1413.218,1253.072,1414.823Z" transform="translate(-1246.042 -1398.158)" fill="url(#linear-gradient-10)"/>
            </g>
            <path id="Trazado_119412" data-name="Trazado 119412" d="M1274.74,1443.959a3.6,3.6,0,0,0-3.922,2.117c-4.727,10.95,1.077,18.073,3.926,18.221,3,.156,2.942-14.29,2.3-17.994A2.64,2.64,0,0,0,1274.74,1443.959Z" transform="translate(-1266.983 -1424.765)" fill="url(#linear-gradient-11)"/>
          </g>
        </g>
        <g id="Grupo_56057" data-name="Grupo 56057" transform="translate(453.596 689.924)">
          <path id="Trazado_119413" data-name="Trazado 119413" d="M496.79,3046.386a4.538,4.538,0,0,1,.5-2.812,2.193,2.193,0,0,1,1.833-1.237h240.3a2.68,2.68,0,0,1,2.3,1.806,5.412,5.412,0,0,1,.179,3.753l-2.6,8.071c-.6,1.848-1.888,3.032-3.31,3.032H500.772c-1.323,0-2.459-1.343-2.711-3.2Z" transform="translate(-496.448 -3042.039)" fill="#91b3fa"/>
          <path id="Trazado_119414" data-name="Trazado 119414" d="M732.94,3056.245H497.719c-1.471,0-2.735-1.455-3.006-3.46l-1.272-9.409a4.825,4.825,0,0,1,.538-3,2.472,2.472,0,0,1,2.091-1.387h240.3a2.954,2.954,0,0,1,2.576,1.982,5.694,5.694,0,0,1,.19,3.966l-2.6,8.071C735.9,3054.974,734.488,3056.245,732.94,3056.245ZM494.031,3043.3l1.272,9.409c.23,1.707,1.246,2.945,2.415,2.945H732.94c1.285,0,2.473-1.109,3.027-2.825l2.6-8.071a5.082,5.082,0,0,0-.167-3.54,2.386,2.386,0,0,0-2.032-1.63H496.07a1.9,1.9,0,0,0-1.575,1.088,4.219,4.219,0,0,0-.463,2.624Z" transform="translate(-493.395 -3038.988)" fill="#91b3fa"/>
        </g>
        <g id="Grupo_56060" data-name="Grupo 56060" transform="translate(571.769 589.448)">
          <path id="Trazado_119415" data-name="Trazado 119415" d="M1831.723,1918c-1.357,11.091-7.464,56.153-9.211,69.029a2.956,2.956,0,0,0,3.019,3.351l103.584-2.964a2.96,2.96,0,0,0,2.805-2.317l16.114-72.567a2.961,2.961,0,0,0-3.063-3.6l-110.482,6.471A2.957,2.957,0,0,0,1831.723,1918Z" transform="translate(-1822.484 -1908.925)" fill="#1a0f91"/>
          <g id="Grupo_56058" data-name="Grupo 56058" transform="translate(35.149 50.896)">
            <path id="Trazado_119416" data-name="Trazado 119416" d="M2237.813,2488.083l-15.309,43.452,35.6.754,2.964-43.946a3.415,3.415,0,0,0-3.634-3.637l-16.624,1.1A3.415,3.415,0,0,0,2237.813,2488.083Z" transform="translate(-2222.086 -2484.401)" fill="#2b2479"/>
            <path id="Trazado_119417" data-name="Trazado 119417" d="M2254.1,2529.548l-.284-.006-36.009-.763,15.446-43.84a3.709,3.709,0,0,1,3.256-2.471l16.624-1.1a3.713,3.713,0,0,1,3.951,3.955Zm-35.458-1.347,34.9.74,2.945-43.662a3.117,3.117,0,0,0-3.317-3.32l-16.624,1.1a3.114,3.114,0,0,0-2.734,2.074Z" transform="translate(-2217.807 -2481.356)" fill="#2b2479"/>
          </g>
          <g id="Grupo_56059" data-name="Grupo 56059" transform="translate(20.743 94.687)">
            <path id="Trazado_119418" data-name="Trazado 119418" d="M2059.23,2980.89h0a1.849,1.849,0,0,0,1.757,2.425h55.748a1.849,1.849,0,0,0,1.849-1.849v-2.391a1.849,1.849,0,0,0-1.928-1.847l-55.748,2.391A1.849,1.849,0,0,0,2059.23,2980.89Z" transform="translate(-2058.838 -2976.929)" fill="#1a0f91"/>
            <path id="Trazado_119419" data-name="Trazado 119419" d="M2113.676,2980.56h-55.748a2.147,2.147,0,0,1-2.04-2.816,2.157,2.157,0,0,1,1.948-1.475l55.748-2.391a2.147,2.147,0,0,1,2.239,2.145v2.391A2.149,2.149,0,0,1,2113.676,2980.56Zm0-6.089h-.069l-55.748,2.391a1.558,1.558,0,0,0-1.407,1.066h0a1.551,1.551,0,0,0,1.474,2.035h55.748a1.553,1.553,0,0,0,1.551-1.551v-2.391a1.552,1.552,0,0,0-1.549-1.551Z" transform="translate(-2055.78 -2973.876)" fill="#91b3fa"/>
          </g>
          <path id="Trazado_119420" data-name="Trazado 119420" d="M1901.263,2008.522l-.735-.093,5.09-40.137a5.226,5.226,0,0,1,4.867-4.557l95.474-5.766.045.739-95.474,5.766a4.485,4.485,0,0,0-4.177,3.911Z" transform="translate(-1893.589 -1953.608)" fill="#91b3fa"/>
          <rect id="Rectángulo_29682" data-name="Rectángulo 29682" width="8.759" height="0.741" transform="matrix(0.125, -0.992, 0.992, 0.125, 4.391, 74.943)" fill="#91b3fa"/>
        </g>
        <g id="Grupo_56071" data-name="Grupo 56071" transform="translate(612.501 486.944)">
          <path id="Trazado_119421" data-name="Trazado 119421" d="M2280.607,761.035v22.347a4.971,4.971,0,0,0,4.738,4.966l27.945,1.313a4.972,4.972,0,0,0,5.205-4.966V761.035a4.972,4.972,0,0,0-4.972-4.972h-27.945A4.972,4.972,0,0,0,2280.607,761.035Z" transform="translate(-2280.607 -756.063)" fill="#fe7062"/>
          <g id="Grupo_56070" data-name="Grupo 56070" transform="translate(3.57 5.092)">
            <g id="Grupo_56069" data-name="Grupo 56069">
              <g id="Grupo_56068" data-name="Grupo 56068" transform="translate(2.398 0.127)">
                <g id="Grupo_56067" data-name="Grupo 56067">
                  <g id="Grupo_56063" data-name="Grupo 56063">
                    <g id="Grupo_56061" data-name="Grupo 56061">
                      <path id="Trazado_119422" data-name="Trazado 119422" d="M2352.419,820.532l-1.091-4.033-3.183-1.734-.424.776,2.849,1.538,3.395,12.447.1.37h13.851a3.927,3.927,0,0,0,3.323-1.8l.621-.82a6.443,6.443,0,0,0,1.109-3.458v-3.29Zm19.551,3.29a5.514,5.514,0,0,1-.91,2.983l-.549.923a3.173,3.173,0,0,1-2.59,1.5h-13.171l-.721-2.661-1.366-5.031h19.308Z" transform="translate(-2347.721 -814.765)" fill="#fff"/>
                    </g>
                    <g id="Grupo_56062" data-name="Grupo 56062" transform="translate(6.189 11.72)">
                      <path id="Trazado_119423" data-name="Trazado 119423" d="M2434.528,954.51a.5.5,0,0,1-.446.5h-16.251c-.246,0-.5-.385-.5-.63v-7.663c0-.084.05-.067.091-.134l.748,2.742h.165v4.682h15.747A.5.5,0,0,1,2434.528,954.51Z" transform="translate(-2417.332 -946.584)" fill="#fff"/>
                    </g>
                  </g>
                  <g id="Grupo_56065" data-name="Grupo 56065" transform="translate(9.123 6.212)">
                    <rect id="Rectángulo_29683" data-name="Rectángulo 29683" width="0.593" height="8.342" transform="translate(5.24)" fill="#fff"/>
                    <g id="Grupo_56064" data-name="Grupo 56064">
                      <rect id="Rectángulo_29684" data-name="Rectángulo 29684" width="0.593" height="8.342" fill="#fff"/>
                      <rect id="Rectángulo_29685" data-name="Rectángulo 29685" width="0.593" height="8.342" transform="translate(10.356)" fill="#fff"/>
                    </g>
                  </g>
                  <g id="Grupo_56066" data-name="Grupo 56066" transform="translate(5.167 8.666)">
                    <rect id="Rectángulo_29686" data-name="Rectángulo 29686" width="19.295" height="0.53" fill="#fff"/>
                    <rect id="Rectángulo_29687" data-name="Rectángulo 29687" width="17.969" height="0.531" transform="translate(0.842 2.904)" fill="#fff"/>
                  </g>
                </g>
                <path id="Trazado_119424" data-name="Trazado 119424" d="M2426.719,1047.8a1.916,1.916,0,1,0,1.916,1.916A1.916,1.916,0,0,0,2426.719,1047.8Zm0,3.073a1.157,1.157,0,1,1,1.157-1.157A1.157,1.157,0,0,1,2426.719,1050.877Z" transform="translate(-2417.949 -1027.084)" fill="#fff"/>
                <path id="Trazado_119425" data-name="Trazado 119425" d="M2560.644,1047.8a1.916,1.916,0,1,0,1.916,1.916A1.916,1.916,0,0,0,2560.644,1047.8Zm0,3.073a1.157,1.157,0,1,1,1.156-1.157A1.157,1.157,0,0,1,2560.644,1050.877Z" transform="translate(-2539.967 -1027.084)" fill="#fff"/>
              </g>
              <path id="Trazado_119426" data-name="Trazado 119426" d="M2325.551,814.236a.9.9,0,0,1-.9.9h-3a.9.9,0,0,1-.9-.9h0a.9.9,0,0,1,.9-.9h3a.9.9,0,0,1,.9.9Z" transform="translate(-2320.755 -813.336)" fill="#fff"/>
            </g>
          </g>
        </g>
        <g id="Grupo_56073" data-name="Grupo 56073" transform="translate(551.923 460.748)">
          <path id="Trazado_119427" data-name="Trazado 119427" d="M1599.281,466.769V490.74a5.333,5.333,0,0,0,5.083,5.327l29.976,1.408a5.333,5.333,0,0,0,5.583-5.327V466.769a5.333,5.333,0,0,0-5.333-5.333h-29.976A5.333,5.333,0,0,0,1599.281,466.769Z" transform="translate(-1599.281 -461.436)" fill="#fe7062"/>
          <g id="Grupo_56072" data-name="Grupo 56072" transform="translate(7.233 8.147)">
            <path id="Trazado_119428" data-name="Trazado 119428" d="M1704.095,573.785h-20.657a2.811,2.811,0,0,1-2.807-2.808V555.871a2.811,2.811,0,0,1,2.807-2.808h20.657a2.811,2.811,0,0,1,2.808,2.808v15.107A2.811,2.811,0,0,1,1704.095,573.785Zm-20.657-18.872a.959.959,0,0,0-.957.958v15.107a.959.959,0,0,0,.957.958h20.657a.959.959,0,0,0,.957-.958V555.871a.959.959,0,0,0-.957-.958Z" transform="translate(-1680.63 -553.063)" fill="#fff"/>
            <path id="Trazado_119429" data-name="Trazado 119429" d="M1700.48,570.268a.924.924,0,0,1-.535-.171l-11.576-8.209a.925.925,0,1,1,1.07-1.509l11.04,7.829,10.9-7.739a.925.925,0,1,1,1.071,1.508l-11.432,8.119A.924.924,0,0,1,1700.48,570.268Z" transform="translate(-1687.326 -559.573)" fill="#fff"/>
            <path id="Trazado_119430" data-name="Trazado 119430" d="M1690.585,631.757l-.268-1.831.125.917-.775-.5c.214-.345,4.389-7.646,7.143-12.47a.925.925,0,0,1,1.607.917s-1.786,3.128-3.575,6.257c-.895,1.565-1.791,3.13-2.464,4.3C1691.033,631.687,1691.033,631.687,1690.585,631.757Z" transform="translate(-1688.864 -611.681)" fill="#fff"/>
            <path id="Trazado_119431" data-name="Trazado 119431" d="M1874.887,631.759c-.447-.071-.447-.071-1.79-2.411-.674-1.174-1.57-2.739-2.464-4.3-1.789-3.129-3.575-6.257-3.575-6.257a.925.925,0,1,1,1.607-.917c2.753,4.823,6.928,12.125,7.143,12.47l-.775.5Z" transform="translate(-1850.371 -611.684)" fill="#fff"/>
          </g>
        </g>
        <g id="Grupo_56075" data-name="Grupo 56075" transform="translate(647.199 535.781)">
          <path id="Trazado_119432" data-name="Trazado 119432" d="M2670.857,1310.028v21.084a4.691,4.691,0,0,0,4.471,4.686l26.366,1.239a4.691,4.691,0,0,0,4.911-4.686v-22.323a4.691,4.691,0,0,0-4.691-4.691h-26.366A4.691,4.691,0,0,0,2670.857,1310.028Z" transform="translate(-2670.857 -1305.337)" fill="#fe7062"/>
          <path id="Trazado_119433" data-name="Trazado 119433" d="M2724,1352.117a1.446,1.446,0,0,1-1-.36l-.763-.7a1.6,1.6,0,0,1-.432-1.466,3.217,3.217,0,0,1,.836-1.654l.509-.555q.054-.059.11-.115l9.51-9.51a.234.234,0,1,1,.331.331l-9.51,9.509c-.033.033-.065.066-.1.1l-.509.555a2.747,2.747,0,0,0-.719,1.407,1.147,1.147,0,0,0,.285,1.051l.763.7c.536.492,1.641.2,2.412-.643l.509-.555c.031-.034.062-.069.092-.1l7.594-9.033a.234.234,0,0,1,.358.3l-7.594,9.032q-.052.061-.105.12l-.509.554A2.956,2.956,0,0,1,2724,1352.117Zm.231-1.492a.969.969,0,0,1-.672-.242c-.529-.485-.351-1.511.4-2.335a2.71,2.71,0,0,1,1.173-.776,1.018,1.018,0,0,1,1.387,1.272,2.709,2.709,0,0,1-.672,1.235A2.355,2.355,0,0,1,2724.228,1350.625Zm1.356-2.956a1.126,1.126,0,0,0-.316.051,2.24,2.24,0,0,0-.962.645c-.55.6-.752,1.381-.433,1.674.283.26,1.022.087,1.63-.576h0a2.237,2.237,0,0,0,.559-1.014.714.714,0,0,0-.125-.66A.508.508,0,0,0,2725.584,1347.669Zm11.841-10.162a.234.234,0,0,1-.179-.385l2.739-3.258.172.1a4.954,4.954,0,0,0,6.368-.883,5.538,5.538,0,0,0,1.447-4.317.513.513,0,0,0-.36-.442.537.537,0,0,0-.569.147l-2.952,3.218a1.243,1.243,0,0,1-1.017.4l-1.588-.137a1.237,1.237,0,0,1-1.112-1.02l-.273-1.57a1.245,1.245,0,0,1,.307-1.048l2.952-3.218a.537.537,0,0,0,.1-.579.514.514,0,0,0-.472-.32,5.547,5.547,0,0,0-4.177,1.813,4.954,4.954,0,0,0-.331,6.421l.119.162-3.55,3.549a.234.234,0,0,1-.331-.331l3.267-3.267a5.4,5.4,0,0,1,.479-6.85,5.994,5.994,0,0,1,4.531-1.965.983.983,0,0,1,.893.6,1,1,0,0,1-.183,1.081l-2.952,3.218a.772.772,0,0,0-.191.651l.273,1.57a.769.769,0,0,0,.69.634l1.588.137a.772.772,0,0,0,.632-.246l2.952-3.218a1,1,0,0,1,1.061-.275.983.983,0,0,1,.679.838,6.007,6.007,0,0,1-1.567,4.683,5.4,5.4,0,0,1-6.783,1.068l-2.483,2.953A.234.234,0,0,1,2737.426,1337.507Z" transform="translate(-2717.25 -1322.09)" fill="#fff"/>
          <g id="Grupo_56074" data-name="Grupo 56074" transform="translate(16.536 15.211)">
            <path id="Trazado_119434" data-name="Trazado 119434" d="M2867.61,1491.349q-.093,0-.188-.008a2.16,2.16,0,0,1-1.5-.792l-8.824-10.8a1.106,1.106,0,0,1,.13-1.54l1.74-1.518a1.106,1.106,0,0,1,1.543.08l9.508,10.208a2.177,2.177,0,0,1-.162,3.123l-.818.714A2.156,2.156,0,0,1,2867.61,1491.349Zm-8.234-14.192-1.74,1.518a.484.484,0,0,0-.057.674l8.824,10.8a1.552,1.552,0,0,0,2.222.188l.818-.714a1.552,1.552,0,0,0,.115-2.227l-9.508-10.208a.484.484,0,0,0-.676-.035Z" transform="translate(-2856.843 -1476.412)" fill="#fff"/>
          </g>
          <path id="Trazado_119435" data-name="Trazado 119435" d="M2748,1350.463l-7.659-8.958a.555.555,0,0,1-.326-.113l-2.3-1.762a.524.524,0,0,1-.149-.18l-1.018-2.015a.642.642,0,0,1,.185-.765l.574-.5a.643.643,0,0,1,.783-.08l1.861,1.284a.52.52,0,0,1,.152.161l1.486,2.465a.567.567,0,0,1,.058.44l7.891,8.863Zm-7.469-9.457,7.539,8.818.783-.59-7.758-8.714.08-.145a.144.144,0,0,0,.016-.134l-1.486-2.465a.057.057,0,0,0-.017-.017l-1.861-1.284a.191.191,0,0,0-.209.047l-.574.5a.191.191,0,0,0-.075.2l1.018,2.015a.057.057,0,0,0,.017.02l2.3,1.762a.123.123,0,0,0,.1.012Z" transform="translate(-2730.654 -1333.265)" fill="#fff"/>
        </g>
        <g id="Grupo_56101" data-name="Grupo 56101" transform="translate(487.533 475.661)">
          <path id="Trazado_119436" data-name="Trazado 119436" d="M875.086,634.771v25.211a5.609,5.609,0,0,0,5.346,5.6l31.527,1.481a5.609,5.609,0,0,0,5.872-5.6V634.771a5.609,5.609,0,0,0-5.609-5.609H880.7A5.609,5.609,0,0,0,875.086,634.771Z" transform="translate(-875.086 -629.162)" fill="#fe7062"/>
          <g id="Grupo_56099" data-name="Grupo 56099" transform="translate(5.72 7.898)">
            <g id="Grupo_56097" data-name="Grupo 56097" transform="translate(0.584 0.514)">
              <g id="Grupo_56078" data-name="Grupo 56078" transform="translate(8.921 0.069)">
                <g id="Grupo_56076" data-name="Grupo 56076" transform="translate(0.325 0.326)">
                  <path id="Trazado_119437" data-name="Trazado 119437" d="M1056.961,740.577a38.489,38.489,0,0,1-.55,6.694c-.1.552-.215,1.1-.353,1.645a15.886,15.886,0,0,1-.492,1.609,7.645,7.645,0,0,1-.734,1.517,3.023,3.023,0,0,1-.551.645,1.569,1.569,0,0,1-.361.233,1.078,1.078,0,0,1-.421.1,1.058,1.058,0,0,1-.426-.079,1.472,1.472,0,0,1-.369-.221,2.868,2.868,0,0,1-.563-.635,7.394,7.394,0,0,1-.745-1.512,15.585,15.585,0,0,1-.5-1.608c-.139-.544-.255-1.092-.356-1.644-.2-1.1-.337-2.217-.429-3.334s-.137-2.238-.143-3.359c0-.56.012-1.121.032-1.681s.052-1.119.093-1.678c.083-1.117.206-2.232.389-3.338.092-.553.2-1.1.328-1.649a15.867,15.867,0,0,1,.466-1.616c.094-.264.2-.526.313-.781a5.736,5.736,0,0,1,.4-.741,2.756,2.756,0,0,1,.551-.639,1.4,1.4,0,0,1,.364-.219,1.022,1.022,0,0,1,.419-.075,1.105,1.105,0,0,1,.414.1,1.613,1.613,0,0,1,.359.225,3.074,3.074,0,0,1,.563.628,7.578,7.578,0,0,1,.772,1.494,15.368,15.368,0,0,1,.529,1.6c.149.541.275,1.087.384,1.637A35.24,35.24,0,0,1,1056.961,740.577Zm-.165,0c0-1.116-.04-2.233-.133-3.346a32.38,32.38,0,0,0-.435-3.319c-.1-.548-.222-1.094-.365-1.633a15.315,15.315,0,0,0-.508-1.592,7.512,7.512,0,0,0-.748-1.487,3.017,3.017,0,0,0-.544-.622,1.564,1.564,0,0,0-.345-.221,1.027,1.027,0,0,0-.394-.1.964.964,0,0,0-.4.075,1.351,1.351,0,0,0-.347.214,2.7,2.7,0,0,0-.531.631,5.664,5.664,0,0,0-.388.736c-.113.254-.212.515-.3.778a15.8,15.8,0,0,0-.446,1.611c-.122.544-.223,1.093-.309,1.645-.171,1.1-.281,2.215-.351,3.33s-.1,2.231-.093,3.348.034,2.233.117,3.346.211,2.223.4,3.323c.1.55.207,1.1.341,1.638a15.373,15.373,0,0,0,.481,1.6,7.293,7.293,0,0,0,.722,1.5,2.785,2.785,0,0,0,.539.618,1.386,1.386,0,0,0,.345.21.945.945,0,0,0,.39.074.984.984,0,0,0,.386-.095,1.483,1.483,0,0,0,.338-.222,2.935,2.935,0,0,0,.528-.629,7.548,7.548,0,0,0,.711-1.5,15.791,15.791,0,0,0,.476-1.6c.132-.541.243-1.088.338-1.638.19-1.1.316-2.21.4-3.323S1056.8,741.693,1056.8,740.577Z" transform="translate(-1049.971 -728.211)" fill="#fff"/>
                </g>
                <g id="Grupo_56077" data-name="Grupo 56077">
                  <path id="Trazado_119438" data-name="Trazado 119438" d="M1050.135,750a1.394,1.394,0,0,1-.515-.1,1.779,1.779,0,0,1-.45-.268,3.138,3.138,0,0,1-.63-.707,7.645,7.645,0,0,1-.781-1.58,15.806,15.806,0,0,1-.508-1.643c-.134-.524-.252-1.069-.361-1.666-.192-1.058-.334-2.159-.433-3.366-.09-1.1-.138-2.236-.144-3.384,0-.6.015-1.193.032-1.694.021-.569.053-1.138.094-1.691.089-1.214.218-2.315.393-3.368.1-.6.209-1.146.333-1.671a16.11,16.11,0,0,1,.476-1.649c.106-.3.212-.564.324-.809a6.058,6.058,0,0,1,.424-.784,3.038,3.038,0,0,1,.618-.714,1.724,1.724,0,0,1,.45-.269,1.358,1.358,0,0,1,.55-.1,1.416,1.416,0,0,1,.532.125,1.917,1.917,0,0,1,.433.27,3.345,3.345,0,0,1,.624.694,7.824,7.824,0,0,1,.807,1.559,15.521,15.521,0,0,1,.541,1.631c.145.526.272,1.069.39,1.661a35.29,35.29,0,0,1,.62,6.75h0a38.539,38.539,0,0,1-.555,6.751c-.108.6-.224,1.142-.357,1.668a16.089,16.089,0,0,1-.5,1.643,7.918,7.918,0,0,1-.767,1.582,3.3,3.3,0,0,1-.613.715,1.894,1.894,0,0,1-.437.282,1.392,1.392,0,0,1-.55.128Zm-.169-24.76a.645.645,0,0,0-.246.051,1.026,1.026,0,0,0-.264.165,2.34,2.34,0,0,0-.465.555,5.312,5.312,0,0,0-.364.693c-.1.226-.2.472-.292.751a15.459,15.459,0,0,0-.436,1.577c-.115.51-.214,1.041-.3,1.623-.16,1.032-.274,2.112-.348,3.3-.065,1.015-.095,2.1-.093,3.327,0,1.129.036,2.246.116,3.323.089,1.181.219,2.258.4,3.291.1.578.211,1.106.337,1.615a15.055,15.055,0,0,0,.471,1.565,6.919,6.919,0,0,0,.688,1.428,2.417,2.417,0,0,0,.473.545,1.054,1.054,0,0,0,.262.161.69.69,0,0,0,.257.051.665.665,0,0,0,.261-.065,1.163,1.163,0,0,0,.262-.174,2.576,2.576,0,0,0,.467-.559,7.155,7.155,0,0,0,.678-1.434,15.38,15.38,0,0,0,.465-1.567c.124-.506.233-1.035.333-1.616.177-1.024.306-2.1.4-3.292.082-1.074.123-2.191.123-3.322h0c0-1.126-.042-2.242-.131-3.318a31.726,31.726,0,0,0-.43-3.285c-.107-.572-.224-1.1-.359-1.61a14.868,14.868,0,0,0-.5-1.557,7.123,7.123,0,0,0-.713-1.422,2.652,2.652,0,0,0-.483-.554,1.243,1.243,0,0,0-.272-.176.7.7,0,0,0-.267-.067Z" transform="translate(-1046.313 -724.541)" fill="#fff"/>
                </g>
              </g>
              <g id="Grupo_56081" data-name="Grupo 56081" transform="translate(2.571)">
                <g id="Grupo_56079" data-name="Grupo 56079" transform="translate(0.325 0.326)">
                  <path id="Trazado_119439" data-name="Trazado 119439" d="M997.521,739.873a16.392,16.392,0,0,1-.577,4.277,13.8,13.8,0,0,1-1.783,3.922,11.3,11.3,0,0,1-1.362,1.674,9.563,9.563,0,0,1-1.676,1.354,8.071,8.071,0,0,1-1.956.9,7.289,7.289,0,0,1-4.252,0,8.063,8.063,0,0,1-1.957-.9,9.563,9.563,0,0,1-1.678-1.353,11.3,11.3,0,0,1-1.364-1.674,13.816,13.816,0,0,1-1.787-3.924,15.6,15.6,0,0,1-.433-2.121,16.009,16.009,0,0,1,0-4.32,15.58,15.58,0,0,1,.434-2.12,13.812,13.812,0,0,1,1.79-3.921A11.284,11.284,0,0,1,982.285,730a9.533,9.533,0,0,1,1.678-1.351,8.1,8.1,0,0,1,1.956-.893,7.235,7.235,0,0,1,4.246,0,8.089,8.089,0,0,1,1.954.894A9.521,9.521,0,0,1,993.794,730a11.271,11.271,0,0,1,1.362,1.672,13.79,13.79,0,0,1,1.785,3.92A16.4,16.4,0,0,1,997.521,739.873Zm-.189,0a16.206,16.206,0,0,0-.554-4.231,13.738,13.738,0,0,0-1.726-3.9,11.175,11.175,0,0,0-1.331-1.669,9.308,9.308,0,0,0-1.646-1.355,7.938,7.938,0,0,0-1.931-.9,7.057,7.057,0,0,0-4.2,0,7.933,7.933,0,0,0-1.929.9,9.3,9.3,0,0,0-1.644,1.356,11.169,11.169,0,0,0-1.328,1.669,13.719,13.719,0,0,0-1.721,3.894,15.717,15.717,0,0,0-.414,2.1,16.359,16.359,0,0,0,0,4.264,15.673,15.673,0,0,0,.415,2.1,13.713,13.713,0,0,0,1.724,3.892,11.162,11.162,0,0,0,1.328,1.667,9.272,9.272,0,0,0,1.643,1.354,7.962,7.962,0,0,0,1.928.894,7,7,0,0,0,4.2,0,7.967,7.967,0,0,0,1.929-.893,9.276,9.276,0,0,0,1.646-1.353A11.163,11.163,0,0,0,995.046,748a13.738,13.738,0,0,0,1.728-3.893A16.2,16.2,0,0,0,997.332,739.873Z" transform="translate(-978.55 -727.439)" fill="#fff"/>
                </g>
                <g id="Grupo_56080" data-name="Grupo 56080">
                  <path id="Trazado_119440" data-name="Trazado 119440" d="M984.709,749.3a7.677,7.677,0,0,1-2.221-.33,8.376,8.376,0,0,1-2.036-.932,9.882,9.882,0,0,1-1.736-1.4,11.682,11.682,0,0,1-1.4-1.722,14.108,14.108,0,0,1-1.83-4.017,15.964,15.964,0,0,1-.442-2.167,16.324,16.324,0,0,1,0-4.406,15.927,15.927,0,0,1,.443-2.165,14.1,14.1,0,0,1,1.833-4.015,11.617,11.617,0,0,1,1.4-1.72,9.863,9.863,0,0,1,1.735-1.4,8.417,8.417,0,0,1,2.035-.929,7.563,7.563,0,0,1,4.433,0,8.409,8.409,0,0,1,2.032.93,9.879,9.879,0,0,1,1.734,1.4,11.626,11.626,0,0,1,1.4,1.72,14.075,14.075,0,0,1,1.828,4.013,16.707,16.707,0,0,1,.592,4.364v0a16.7,16.7,0,0,1-.589,4.363,14.082,14.082,0,0,1-1.826,4.017,11.608,11.608,0,0,1-1.4,1.722,9.9,9.9,0,0,1-1.733,1.4,8.389,8.389,0,0,1-2.035.934A7.693,7.693,0,0,1,984.709,749.3Zm0-24.81a6.952,6.952,0,0,0-2.005.307,7.623,7.623,0,0,0-1.85.861,8.986,8.986,0,0,0-1.585,1.308,10.858,10.858,0,0,0-1.289,1.621,13.367,13.367,0,0,0-1.68,3.8,15.477,15.477,0,0,0-.405,2.052,16.022,16.022,0,0,0,0,4.18,15.436,15.436,0,0,0,.406,2.051,13.362,13.362,0,0,0,1.682,3.8,10.805,10.805,0,0,0,1.289,1.619,8.976,8.976,0,0,0,1.585,1.306,7.642,7.642,0,0,0,1.848.857,6.683,6.683,0,0,0,4.007,0,7.656,7.656,0,0,0,1.851-.857,8.96,8.96,0,0,0,1.587-1.3,10.883,10.883,0,0,0,1.292-1.618,13.385,13.385,0,0,0,1.686-3.8,16.068,16.068,0,0,0,0-8.289,13.391,13.391,0,0,0-1.684-3.8,10.883,10.883,0,0,0-1.292-1.62,9,9,0,0,0-1.588-1.307,7.607,7.607,0,0,0-1.85-.859A6.946,6.946,0,0,0,984.707,724.49Z" transform="translate(-974.891 -723.769)" fill="#fff"/>
                </g>
              </g>
              <g id="Grupo_56084" data-name="Grupo 56084" transform="translate(0.989 7.463)">
                <g id="Grupo_56082" data-name="Grupo 56082" transform="translate(0.325 0.327)">
                  <path id="Trazado_119441" data-name="Trazado 119441" d="M960.773,811.428l2.847-.023,2.847-.013,5.693-.011,5.693.012,2.847.014,2.847.025a.008.008,0,0,1,.008.009s0,.008-.008.008l-2.847.025-2.847.014-5.693.012-5.693-.01-2.847-.013-2.847-.023a.02.02,0,0,1-.012-.006C960.761,811.433,960.767,811.428,960.773,811.428Z" transform="translate(-960.761 -811.381)" fill="#fff"/>
                </g>
                <g id="Grupo_56083" data-name="Grupo 56083">
                  <path id="Trazado_119442" data-name="Trazado 119442" d="M968.83,808.479l-8.542-.024-2.983-.025-.2-.2v-.146l.008-.319.327-.012,5.694-.036,5.695-.01,8.542.026,3.17.028.008.658-.334.008-5.692.039Z" transform="translate(-957.105 -807.708)" fill="#fff"/>
                </g>
              </g>
              <g id="Grupo_56087" data-name="Grupo 56087" transform="translate(4.292 2.677)">
                <g id="Grupo_56085" data-name="Grupo 56085" transform="translate(0.325 0.326)">
                  <path id="Trazado_119443" data-name="Trazado 119443" d="M997.917,757.595c.674-.011,1.347-.015,2.021-.023l2.021-.013c.674-.006,1.347,0,2.021-.007l2.021,0,4.042.012,2.021.014c.674.009,1.347.013,2.021.025a.013.013,0,0,1,.008,0c0,.009,0,.013-.008.013-.674.012-1.347.016-2.021.025l-2.021.014-4.042.012-2.021,0c-.674,0-1.347,0-2.021-.007l-2.021-.013c-.674-.008-1.347-.012-2.021-.023a.012.012,0,0,1,0-.025Z" transform="translate(-997.905 -757.548)" fill="#fff"/>
                </g>
                <g id="Grupo_56086" data-name="Grupo 56086">
                  <path id="Trazado_119444" data-name="Trazado 119444" d="M1002.669,754.647l-2.546-.005c-.5,0-1,0-1.5-.006l-2.7-.02c-.45,0-.9-.009-1.349-.016l-.32-.005-.012-.661.333-.012c.435-.007.871-.011,1.306-.016l2.739-.021c.474,0,.949,0,1.424-.005l2.62-.005,6.8.034c.429,0,.859.009,1.288.017l.331.006-.015.656-.322.008c-.444.008-.894.012-1.344.017l-2.7.022Z" transform="translate(-994.246 -753.876)" fill="#fff"/>
                </g>
              </g>
              <g id="Grupo_56090" data-name="Grupo 56090" transform="translate(0 12.25)">
                <g id="Grupo_56088" data-name="Grupo 56088" transform="translate(0.325 0.326)">
                  <path id="Trazado_119445" data-name="Trazado 119445" d="M949.647,865.26l3.094-.023,3.094-.013,6.188-.011,6.188.012,3.094.014,3.094.025a.008.008,0,0,1,.008.008s0,.008-.008.008l-3.094.025-3.094.014-6.188.012-6.188-.011-3.094-.013-3.094-.023a.012.012,0,0,1,0-.025Z" transform="translate(-949.635 -865.213)" fill="#fff"/>
                </g>
                <g id="Grupo_56089" data-name="Grupo 56089">
                  <path id="Trazado_119446" data-name="Trazado 119446" d="M958.692,862.314l-9.284-.024-3.418-.026-.012-.663.335-.012,6.189-.036,6.189-.01,9.284.026,3.231.026.2.2-.013.46-.323.008-6.187.039Z" transform="translate(-945.977 -861.543)" fill="#fff"/>
                </g>
              </g>
              <g id="Grupo_56093" data-name="Grupo 56093" transform="translate(0.989 17.036)">
                <g id="Grupo_56091" data-name="Grupo 56091" transform="translate(0.325 0.326)">
                  <path id="Trazado_119447" data-name="Trazado 119447" d="M960.773,919.093l2.847-.023,2.847-.013,5.693-.011,5.693.012,2.847.014,2.847.025a.013.013,0,0,1,.008,0c0,.009,0,.013-.008.013l-2.847.025-2.847.014-5.693.012-5.693-.01-2.847-.013-2.847-.023a.013.013,0,0,1,0-.025Z" transform="translate(-960.761 -919.046)" fill="#fff"/>
                </g>
                <g id="Grupo_56092" data-name="Grupo 56092">
                  <path id="Trazado_119448" data-name="Trazado 119448" d="M968.83,916.146l-8.542-.024L957.3,916.1l-.2-.2v-.146l.007-.319.327-.012,5.695-.036,5.694-.011,8.542.026,3.17.028.008.659-.334.008-5.692.039Z" transform="translate(-957.105 -915.375)" fill="#fff"/>
                </g>
              </g>
              <g id="Grupo_56096" data-name="Grupo 56096" transform="translate(4.668 21.838)">
                <g id="Grupo_56094" data-name="Grupo 56094" transform="translate(0.325 0.326)">
                  <path id="Trazado_119449" data-name="Trazado 119449" d="M1018.345,973.14h-16.168a.044.044,0,0,1,0-.088h16.168a.044.044,0,0,1,0,.088Z" transform="translate(-1002.133 -973.052)" fill="#fff"/>
                </g>
                <g id="Grupo_56095" data-name="Grupo 56095">
                  <path id="Trazado_119450" data-name="Trazado 119450" d="M1015.013,970.122H998.845a.37.37,0,0,1,0-.74h16.168a.37.37,0,0,1,0,.74Z" transform="translate(-998.476 -969.382)" fill="#fff"/>
                </g>
              </g>
            </g>
            <g id="Grupo_56098" data-name="Grupo 56098">
              <path id="Trazado_119451" data-name="Trazado 119451" d="M952.71,744.289a13.152,13.152,0,1,1,13.3-13.151A13.239,13.239,0,0,1,952.71,744.289Zm0-25.134a11.985,11.985,0,1,0,12.129,11.984A12.071,12.071,0,0,0,952.71,719.155Z" transform="translate(-939.414 -717.988)" fill="#fff"/>
            </g>
          </g>
          <g id="Grupo_56100" data-name="Grupo 56100" transform="translate(27.917 3.186)">
            <path id="Trazado_119452" data-name="Trazado 119452" d="M1192.946,672.218h-3.818v-.989l1.266-1.792a12.863,12.863,0,0,0,.716-1.1,3.348,3.348,0,0,0,.287-.687,2.5,2.5,0,0,0,.093-.679.9.9,0,0,0-.183-.614.607.607,0,0,0-.475-.2.911.911,0,0,0-.482.136,2.719,2.719,0,0,0-.545.492l-.74-.779a3.268,3.268,0,0,1,.95-.794,2.133,2.133,0,0,1,.95-.214,1.775,1.775,0,0,1,1.346.506,1.953,1.953,0,0,1,.484,1.407,3.313,3.313,0,0,1-.088.774,3.635,3.635,0,0,1-.266.733,6.211,6.211,0,0,1-.446.765q-.268.4-1.383,1.819v.039h2.333Z" transform="translate(-1189.065 -664.996)" fill="#fff"/>
            <path id="Trazado_119453" data-name="Trazado 119453" d="M1243.963,671.771h-.721v1.5H1242v-1.5h-2.323v-1.076l2.152-4.548h1.417v4.529h.721Zm-1.967-1.1v-1.5l.024-.662.034-.633h-.039a8.254,8.254,0,0,1-.37.959l-.857,1.836Z" transform="translate(-1235.173 -666.044)" fill="#fff"/>
          </g>
        </g>
      </g>
      <rect id="Rectángulo_29688" data-name="Rectángulo 29688" width="280" height="256" transform="translate(660 613)" fill="none"/>
    </g>
  </g>
</svg>
