<svg xmlns="http://www.w3.org/2000/svg" width="396" height="217" viewBox="0 0 396 217">
  <g id="Grupo_57076" data-name="Grupo 57076" transform="translate(-284 -2726)">
    <path id="Trazado_119602" data-name="Trazado 119602" d="M0,0H396V217H0Z" transform="translate(284 2726)" fill="none"/>
    <g id="Grupo_57075" data-name="Grupo 57075" transform="translate(234.904 2665.642)">
      <path id="Trazado_120684" data-name="Trazado 120684" d="M619.384,399.211l-11.2,4.98-14.162-14.163L555.031,419.74v17.944h124.1V345.4l-51.849,62.745Z" transform="translate(-287.24 -169.862)" fill="#02cddb"/>
      <g id="Grupo_57051" data-name="Grupo 57051" transform="translate(267.791 160.816)">
        <g id="Grupo_57050" data-name="Grupo 57050" transform="translate(0 5.553)">
          <path id="Trazado_120685" data-name="Trazado 120685" d="M675.832,322.35l-48.376,61.322-7.827-9.447-11.458,5.435-14.555-15.53L555.031,395.5v3.771l38.442-31.253,14.339,15.3,11.391-5.4,8.284,10,50.2-63.64A20.441,20.441,0,0,1,675.832,322.35Z" transform="translate(-555.031 -322.35)" fill="#f9c141"/>
        </g>
        <path id="Trazado_120686" data-name="Trazado 120686" d="M860.311,308.39,848.9,312.255l7.55,7.55Z" transform="translate(-732.015 -308.39)" fill="#f9c141"/>
      </g>
      <g id="Grupo_57059" data-name="Grupo 57059" transform="translate(78.096 107.177)">
        <g id="Grupo_57052" data-name="Grupo 57052" transform="translate(118.314)">
          <path id="Trazado_120687" data-name="Trazado 120687" d="M510.379,173.528H445.928a2.3,2.3,0,1,0,0,4.59h64.451a2.3,2.3,0,1,0,0-4.59Z" transform="translate(-416.486 -173.528)" fill="#1a0f91"/>
          <path id="Trazado_120688" data-name="Trazado 120688" d="M394.247,173.528H377.978a2.3,2.3,0,1,0,0,4.59h16.269a2.3,2.3,0,1,0,0-4.59Z" transform="translate(-375.562 -173.528)" fill="#1a0f91"/>
        </g>
        <g id="Grupo_57053" data-name="Grupo 57053" transform="translate(123.037 136.363)">
          <path id="Trazado_120689" data-name="Trazado 120689" d="M522.256,516.374H457.805a2.3,2.3,0,1,0,0,4.59h64.451a2.3,2.3,0,1,0,0-4.59Z" transform="translate(-428.363 -516.374)" fill="#1a0f91"/>
          <path id="Trazado_120690" data-name="Trazado 120690" d="M406.124,516.374H389.855a2.3,2.3,0,1,0,0,4.59h16.269a2.3,2.3,0,1,0,0-4.59Z" transform="translate(-387.439 -516.374)" fill="#1a0f91"/>
        </g>
        <g id="Grupo_57054" data-name="Grupo 57054" transform="translate(0 136.698)">
          <path id="Trazado_120691" data-name="Trazado 120691" d="M79.813,520.479h45.874a1.633,1.633,0,1,0,0-3.262H79.813a1.633,1.633,0,1,0,0,3.262Z" transform="translate(-78.096 -517.217)" fill="#1a0f91"/>
          <path id="Trazado_120692" data-name="Trazado 120692" d="M214.4,520.479h11.579a1.633,1.633,0,1,0,0-3.262H214.4a1.633,1.633,0,1,0,0,3.262Z" transform="translate(-159.153 -517.217)" fill="#1a0f91"/>
        </g>
        <g id="Grupo_57055" data-name="Grupo 57055" transform="translate(269.192 138.471)">
          <path id="Trazado_120693" data-name="Trazado 120693" d="M756.62,524.937h45.874a1.633,1.633,0,1,0,0-3.262H756.62a1.633,1.633,0,1,0,0,3.262Z" transform="translate(-754.903 -521.675)" fill="#1a0f91"/>
          <path id="Trazado_120694" data-name="Trazado 120694" d="M891.206,524.937h11.579a1.633,1.633,0,1,0,0-3.262H891.206a1.633,1.633,0,1,0,0,3.262Z" transform="translate(-835.959 -521.675)" fill="#1a0f91"/>
        </g>
        <g id="Grupo_57057" data-name="Grupo 57057" transform="translate(33.515 23.009)">
          <g id="Grupo_57056" data-name="Grupo 57056">
            <path id="Trazado_120695" data-name="Trazado 120695" d="M229.768,231.377H197.543a1.149,1.149,0,1,0,0,2.295h32.226a1.149,1.149,0,1,0,0-2.295Z" transform="translate(-182.822 -231.377)" fill="#1a0f91"/>
            <path id="Trazado_120696" data-name="Trazado 120696" d="M171.706,231.377h-8.138a1.149,1.149,0,1,0,0,2.295h8.138a1.149,1.149,0,1,0,0-2.295Z" transform="translate(-162.36 -231.377)" fill="#1a0f91"/>
          </g>
        </g>
        <g id="Grupo_57058" data-name="Grupo 57058" transform="translate(40.634 143.861)">
          <path id="Trazado_120697" data-name="Trazado 120697" d="M247.686,535.225H215.461a1.149,1.149,0,1,0,0,2.3h32.226a1.149,1.149,0,1,0,0-2.3Z" transform="translate(-200.733 -535.225)" fill="#1a0f91"/>
          <path id="Trazado_120698" data-name="Trazado 120698" d="M189.606,535.225h-8.138a1.149,1.149,0,1,0,0,2.3h8.138a1.149,1.149,0,1,0,0-2.3Z" transform="translate(-180.26 -535.225)" fill="#1a0f91"/>
        </g>
      </g>
      <g id="Grupo_57069" data-name="Grupo 57069" transform="translate(78.518 63.539)">
        <g id="Grupo_57060" data-name="Grupo 57060" transform="translate(27.921 32.87)">
          <path id="Trazado_120699" data-name="Trazado 120699" d="M401.233,512.523H363.107l3.133-45.96H398.1Z" transform="translate(-278.09 -339.243)" fill="#0c0236"/>
          <path id="Trazado_120700" data-name="Trazado 120700" d="M389.3,561.943a2.493,2.493,0,0,0-2.07-1.1h-43.98a2.492,2.492,0,0,0-2.07,1.1l-5.76,8.595a2.491,2.491,0,0,0,2.07,3.879h55.5a2.492,2.492,0,0,0,2.07-3.879Z" transform="translate(-261.157 -396.022)" fill="#0c0236"/>
          <path id="Rectángulo_30065" data-name="Rectángulo 30065" d="M26.978,0H181.183A26.977,26.977,0,0,1,208.16,26.977V112.56a26.978,26.978,0,0,1-26.978,26.978H26.978A26.978,26.978,0,0,1,0,112.56V26.978A26.978,26.978,0,0,1,26.978,0Z" fill="#0c0236"/>
          <rect id="Rectángulo_30066" data-name="Rectángulo 30066" width="188.992" height="119.603" transform="translate(9.584 9.245)" fill="#fdfdfd"/>
          <rect id="Rectángulo_30067" data-name="Rectángulo 30067" width="179.549" height="106.578" transform="translate(14.305 22.27)" fill="#e4e6ed"/>
          <rect id="Rectángulo_30068" data-name="Rectángulo 30068" width="179.549" height="8.817" transform="translate(14.305 22.27)" fill="#97edf5"/>
          <rect id="Rectángulo_30069" data-name="Rectángulo 30069" width="55.761" height="7.361" transform="translate(129.378 59.844)" fill="#fdfdfd"/>
          <rect id="Rectángulo_30070" data-name="Rectángulo 30070" width="55.761" height="7.361" transform="translate(129.378 72.857)" fill="#fdfdfd"/>
          <rect id="Rectángulo_30071" data-name="Rectángulo 30071" width="55.761" height="7.36" transform="translate(129.378 85.87)" fill="#fdfdfd"/>
          <rect id="Rectángulo_30072" data-name="Rectángulo 30072" width="55.761" height="7.361" transform="translate(30.865 39.935)" fill="#fdfdfd"/>
          <rect id="Rectángulo_30073" data-name="Rectángulo 30073" width="55.761" height="7.36" transform="translate(30.865 52.948)" fill="#fdfdfd"/>
        </g>
        <g id="Grupo_57063" data-name="Grupo 57063" transform="translate(0)">
          <g id="Grupo_57061" data-name="Grupo 57061" transform="translate(0 88.091)">
            <path id="Trazado_120701" data-name="Trazado 120701" d="M191.1,285.294H85.832a6.675,6.675,0,0,0-6.675,6.675v33.947a6.675,6.675,0,0,0,6.675,6.675h65.952l25.121,21.36-11.928-21.36H191.1a6.675,6.675,0,0,0,6.675-6.675V291.969A6.675,6.675,0,0,0,191.1,285.294Z" transform="translate(-79.157 -285.294)" fill="#57dbd8"/>
            <rect id="Rectángulo_30074" data-name="Rectángulo 30074" width="70.945" height="4.085" transform="translate(39.668 9.154)" fill="#fff"/>
            <rect id="Rectángulo_30075" data-name="Rectángulo 30075" width="70.945" height="4.085" transform="translate(39.668 17.488)" fill="#fff"/>
            <rect id="Rectángulo_30076" data-name="Rectángulo 30076" width="70.945" height="4.085" transform="translate(39.668 25.822)" fill="#fff"/>
            <rect id="Rectángulo_30077" data-name="Rectángulo 30077" width="47.087" height="4.085" transform="translate(39.668 34.155)" fill="#fff"/>
            <path id="Trazado_120702" data-name="Trazado 120702" d="M123.32,322.193a13.687,13.687,0,1,1-13.687-13.687A13.687,13.687,0,0,1,123.32,322.193Z" transform="translate(-89.268 -299.274)" fill="#0c0236"/>
            <ellipse id="Elipse_4315" data-name="Elipse 4315" cx="3.863" cy="3.983" rx="3.863" ry="3.983" transform="translate(16.502 14.866)" fill="#fff"/>
            <path id="Trazado_120703" data-name="Trazado 120703" d="M119.938,344.209H119.8a6.857,6.857,0,0,0-6.857,6.857v4.372a13.313,13.313,0,0,0,13.853,0v-4.372A6.857,6.857,0,0,0,119.938,344.209Z" transform="translate(-99.504 -320.776)" fill="#fff"/>
          </g>
          <g id="Grupo_57062" data-name="Grupo 57062" transform="translate(127.722)">
            <path id="Trazado_120704" data-name="Trazado 120704" d="M512.226,63.813H406.954a6.674,6.674,0,0,0-6.675,6.674v33.947a6.675,6.675,0,0,0,6.675,6.675h30.48l-8.167,21.36,21.359-21.36h61.6a6.675,6.675,0,0,0,6.675-6.675V70.487A6.675,6.675,0,0,0,512.226,63.813Z" transform="translate(-400.279 -63.813)" fill="#d0d1de"/>
            <rect id="Rectángulo_30078" data-name="Rectángulo 30078" width="70.945" height="4.085" transform="translate(39.668 9.154)" fill="#fff"/>
            <rect id="Rectángulo_30079" data-name="Rectángulo 30079" width="70.945" height="4.085" transform="translate(39.668 17.488)" fill="#fff"/>
            <rect id="Rectángulo_30080" data-name="Rectángulo 30080" width="70.945" height="4.085" transform="translate(39.668 25.822)" fill="#fff"/>
            <rect id="Rectángulo_30081" data-name="Rectángulo 30081" width="47.087" height="4.085" transform="translate(39.668 34.155)" fill="#fff"/>
            <path id="Trazado_120705" data-name="Trazado 120705" d="M444.441,100.712a13.687,13.687,0,1,1-13.687-13.687A13.687,13.687,0,0,1,444.441,100.712Z" transform="translate(-410.39 -77.793)" fill="#0c0236"/>
            <path id="Trazado_120706" data-name="Trazado 120706" d="M449.492,105.172a3.864,3.864,0,1,1-3.862-3.983A3.924,3.924,0,0,1,449.492,105.172Z" transform="translate(-425.266 -86.323)" fill="#fff"/>
            <path id="Trazado_120707" data-name="Trazado 120707" d="M441.06,122.728h-.138a6.857,6.857,0,0,0-6.857,6.857v4.372a13.316,13.316,0,0,0,13.853,0v-4.372A6.857,6.857,0,0,0,441.06,122.728Z" transform="translate(-420.626 -99.295)" fill="#fff"/>
          </g>
        </g>
        <g id="Grupo_57064" data-name="Grupo 57064" transform="translate(162.246 138.06)">
          <rect id="Rectángulo_30082" data-name="Rectángulo 30082" width="54.054" height="17.155" rx="8.578" fill="#57dbd8"/>
        </g>
        <g id="Grupo_57068" data-name="Grupo 57068" transform="translate(47.859 32.752)">
          <path id="Trazado_120708" data-name="Trazado 120708" d="M406.231,273.648a31.055,31.055,0,0,1-8.446.373,12.577,12.577,0,0,1-2.966-.646c.137,3.517.164,11.76-2.339,15.173,0,0,.9,4.053,8.219,4.174s8.143-5.4,8.143-5.4S406.381,278.837,406.231,273.648Z" transform="translate(-315.719 -222.776)" fill="#ffb280"/>
          <path id="Trazado_120709" data-name="Trazado 120709" d="M392.519,288.678c.023.07.06.168.112.287l.018.037a4.025,4.025,0,0,0,.227.427l.012.02a5.027,5.027,0,0,0,.372.519l.062.074a6,6,0,0,0,1.327,1.152l.1.064a7.788,7.788,0,0,0,.99.519c.048.021.1.04.148.06a9.652,9.652,0,0,0,1.284.438,10.31,10.31,0,0,1,2.155-5.195,12.924,12.924,0,0,1,8.24-4.784,49.581,49.581,0,0,1-1.332-8.649,31.055,31.055,0,0,1-8.446.373,12.577,12.577,0,0,1-2.966-.646c.137,3.517.164,11.76-2.339,15.173l.025.087C392.509,288.649,392.513,288.663,392.519,288.678Z" transform="translate(-315.719 -222.776)" fill="#f0a16c"/>
          <path id="Trazado_120710" data-name="Trazado 120710" d="M396.791,221.732s11.992-3.541,13.9-.637,1.564,7.6,2.359,9.662,3.771,4.245,4.089,5.072-1.993,2.405-2.314,3.051-1.53,7.433-3.611,8.931-13.247-2.479-16.014-7.751S393.574,223.469,396.791,221.732Z" transform="translate(-316.417 -190.601)" fill="#ffb280"/>
          <g id="Grupo_57066" data-name="Grupo 57066" transform="translate(88.189 38.5)">
            <g id="Grupo_57065" data-name="Grupo 57065">
              <path id="Trazado_120711" data-name="Trazado 120711" d="M431.24,251.53c.055.609.388,1.108.748,1.08s.637-.554.582-1.163-.388-1.108-.748-1.081C431.461,250.366,431.212,250.893,431.24,251.53Z" transform="translate(-427.25 -247.418)" fill="#231f20"/>
              <path id="Trazado_120712" data-name="Trazado 120712" d="M427.224,242.967s-5.43-.222-6.012,1.274a26.178,26.178,0,0,1,5.458.028C428.553,244.6,428.055,243.051,427.224,242.967Z" transform="translate(-421.212 -242.956)" fill="#0f3662"/>
              <path id="Trazado_120713" data-name="Trazado 120713" d="M439.6,272.62l-4.244-.033a6.558,6.558,0,0,0,3.3,2.388A4.808,4.808,0,0,1,439.6,272.62Z" transform="translate(-429.728 -260.802)" fill="#fff"/>
            </g>
          </g>
          <path id="Trazado_120714" data-name="Trazado 120714" d="M392.472,221.733a11.906,11.906,0,0,1-1.263,6.2c-.718,1.434,2.864,5.248,1.867,6.982-.664,1.154-1.635.862-2.516-1.418a3.469,3.469,0,0,0-1.938-1.657c-2.935-1.269-3.619,3.2-.987,4.532,1.843.93.747,5.594.747,5.594-1.978,1.523-8.516-.313-7.8-5.087.456-3.04.658-4.2-.406-4.937-1.928-1.34-4.436-5.06-1.264-8.214,4.371-4.346.384-5.726,5.438-6.98S393.58,218.575,392.472,221.733Z" transform="translate(-306.637 -188.497)" fill="#0c0236"/>
          <path id="Trazado_120715" data-name="Trazado 120715" d="M392.8,214.192c.284-1.1,2.278-2.523,3.265-3.259a14.555,14.555,0,0,1,5.173-2.334A13.361,13.361,0,0,1,407,208.4c1.639.314,3.015,1.042,4.692,1.233a5.417,5.417,0,0,0,4.181-.811,10.7,10.7,0,0,1,.205,3.794,11.845,11.845,0,0,1-2.156,4.171c-2.432,3.629-9.05,5.639-13.716,3.721-2.254-.927-4.277-1.728-5.384-3.689A11.736,11.736,0,0,0,392.8,214.192Z" transform="translate(-315.914 -183.511)" fill="#0c0236"/>
          <path id="Trazado_120716" data-name="Trazado 120716" d="M533.611,242.956l11.592,25.73s-3.393,3.818-4.524,2.969-18.52-21.725-20.217-22.809S533.611,242.956,533.611,242.956Z" transform="translate(-392.717 -204.456)" fill="#0c0236"/>
          <path id="Trazado_120717" data-name="Trazado 120717" d="M481.449,200.99s.047,7.4,4.571,9.1c0,0,23.186-9.607,27.851-10.529s21.631-1.064,21.631-1.064L518.4,167.955s-8.2,16.4-15.693,21.773S481.449,200.99,481.449,200.99Z" transform="translate(-369.302 -159.285)" fill="#57dbd8"/>
          <path id="Trazado_120718" data-name="Trazado 120718" d="M512.307,244.028c1.834-.729,3.748-1.482,5.632-2.209a23.6,23.6,0,0,1-4.88-10.464c-1.758,1.007-3.58,1.978-5.344,2.881A21.272,21.272,0,0,0,512.307,244.028Z" transform="translate(-385.121 -197.469)" fill="#0c0236"/>
          <path id="Trazado_120719" data-name="Trazado 120719" d="M591.041,162.681c4.83,11.648,3.123,23.422-3.812,26.3s-16.471-4.237-21.3-15.885-3.123-23.422,3.812-26.3S586.212,151.033,591.041,162.681Z" transform="translate(-418.526 -146.158)" fill="#02cddb"/>
          <path id="Trazado_120720" data-name="Trazado 120720" d="M594.989,167.393c4.108,9.908,2.656,19.924-3.243,22.37s-14.012-3.6-18.12-13.514-2.656-19.924,3.243-22.37S590.88,157.484,594.989,167.393Z" transform="translate(-423.409 -150.482)" fill="#0c0236"/>
          <path id="Trazado_120721" data-name="Trazado 120721" d="M545.1,280.441c-.552-.334-.4-2.405-.284-2.944.175-.843.758-1.942.173-2.748-1.034-1.426-2.488,2.41-2.678,2.966a4.026,4.026,0,0,0-.266,2.556,10.073,10.073,0,0,0,2.219,3.351c-.107.382-.225.778-.371,1.2a25.473,25.473,0,0,1,2.794,1.414c1.119.645,1.061,1.443,2.108,2.163l1.047-2.4C549.4,285.448,546.019,281,545.1,280.441Z" transform="translate(-405.728 -223.413)" fill="#ffb280"/>
          <path id="Trazado_120722" data-name="Trazado 120722" d="M558.515,267.392c-1-1.079-2.563-.664-3.775.22-.886.646-3.436,2.709-2.749,4.2.572,1.243,3.852-1.509,3.852-1.509-1.208,1.04-3.46,1.871-2.894,2.912.632,1.161,3.5-.493,4.123-.954-.644.165-3.842,2.107-2.561,3.121.878.694,3.229-.764,3.934-1.259-.944.287-2.229,1.124-1.979,2.433.41.716,1.837.241,2.631-.082,1.2-.487,2.328-.674,2.424-2.164a6.748,6.748,0,0,0,.041-.809,8.169,8.169,0,0,0-1.055-3.242A14.125,14.125,0,0,0,558.515,267.392Z" transform="translate(-411.716 -218.784)" fill="#ffb280"/>
          <path id="Trazado_120723" data-name="Trazado 120723" d="M224.232,254.177a13.188,13.188,0,0,1-1.341-2.852c-.3-.854-.51-1.727-.8-2.581a6.7,6.7,0,0,1-.576-2.528,7.38,7.38,0,0,1,.31-1.543c.171-.656.412-1.294.547-1.958.12-.591.068-1.167.179-1.756a10.442,10.442,0,0,1,1.022-3.242,12.028,12.028,0,0,1,1.489-2.051,7.675,7.675,0,0,1,.881-.94,2.337,2.337,0,0,0,.808-.994.951.951,0,0,0-.693-1.28,3.555,3.555,0,0,0-3.286,1.076c-.873,1.2-1.285,2.673-2.258,3.831-2.974,3.543-5.765-.628-9.235-2.127a20.78,20.78,0,0,1-3.353-2.162c-.62-.467-3.284-3-4.544-2.338-.926.485.887,2.612,1.765,3.132.346.2,3.319,2.619,3.706,2.735-.876-.149-3.153-1.654-4.985-3.088-1.316-1.03-2.591-2.044-3.308-1.456-2.208,1.809,6.455,5.949,7.132,6.328-.722.062-7.5-4.741-8.146-2.975-.353.97,1.055,1.933,2.206,2.559,1.445.785,3.866,1.346,4.411,1.77-1.021.347-5.512-2.708-5.513-.844,0,1.22,2.788,2.133,3.837,2.453,1.081.33,4.259,2.49,5.264,2.969,3.353,1.6,4.736,1.412,6.059,3.421.842,1.28,2.343,8.04,3.559,10.613Z" transform="translate(-199.486 -197.028)" fill="#ffb280"/>
          <path id="Trazado_120724" data-name="Trazado 120724" d="M488.051,298.243c-2.989,8.7-9.382,24.1-11.492,23.018-3.959-2.027-12.479-8.994-18.845-13.256a44.7,44.7,0,0,0-7.4-4.265l4.432,21.012s21,15.953,25.4,13.508c3.461-1.923,11.979-26.18,14.984-36.232C495.132,302.028,488.1,298.281,488.051,298.243Z" transform="translate(-350.549 -237.753)" fill="#02cddb"/>
          <path id="Trazado_120725" data-name="Trazado 120725" d="M471.935,352.692a142.392,142.392,0,0,0-13.845-13.806l.706,9.965s21.173,15.917,25.859,13.93C480.62,360.186,474.811,356.426,471.935,352.692Z" transform="translate(-355.233 -262.231)" fill="#00a8cb"/>
          <path id="Trazado_120726" data-name="Trazado 120726" d="M287.05,288.1s-25.832,10.427-28.643,9.694-12.176-27.366-12.176-27.366l-7.823,3.178s8.355,38.414,13.733,40.21,37.439-7.466,37.439-7.466A54.349,54.349,0,0,0,287.05,288.1Z" transform="translate(-222.927 -221.002)" fill="#02bdc9"/>
          <path id="Trazado_120727" data-name="Trazado 120727" d="M294.819,351.033c-2.276.817-4.593,1.622-6.919,2.306,10.957-1.447,31.487-7.376,31.487-7.376a56.309,56.309,0,0,0-.562-9.764C312.466,343.087,303.421,347.947,294.819,351.033Z" transform="translate(-252.734 -260.612)" fill="#00a8cb"/>
          <path id="Trazado_120728" data-name="Trazado 120728" d="M584.028,198.965c-1.182-3.644-4.737-5.756-7.941-4.717a5.515,5.515,0,0,0-2.67,1.933,31.982,31.982,0,0,0,1.49,4.548,30.829,30.829,0,0,0,3.987,6.953,5.355,5.355,0,0,0,1.472-.238C583.57,206.4,585.21,202.608,584.028,198.965Z" transform="translate(-424.691 -174.961)" fill="#d0d1de"/>
          <g id="Grupo_57067" data-name="Grupo 57067" transform="translate(62.008 63.542)">
            <path id="Trazado_120729" data-name="Trazado 120729" d="M357.545,340.9c-.912,8.966-1.622,27.809-2.158,30.444h42.384c.749-14.078.5-34.465-.2-41.967-1.214-13.072-4.432-21.012-4.432-21.012s-3.164-1-6.918-2.445c0,0-7.8,4.768-15.064.064,0,0-13.113,3.1-14.7,3.862C355.145,310.471,358.52,331.324,357.545,340.9Z" transform="translate(-355.387 -305.917)" fill="#02cddb"/>
            <path id="Trazado_120730" data-name="Trazado 120730" d="M368.756,375.6a33.487,33.487,0,0,0-2.426-12.229,11.042,11.042,0,0,1-.778-2.743,18.193,18.193,0,0,0-1.795-6.26c-.947-1.431-1.908-2.857-2.843-4.3-.52-.7-1.067-1.451-1.67-2.333a40.308,40.308,0,0,1-2.589-4.579c.5,6.583,1.378,15.374.89,20.167-.912,8.966-1.622,27.809-2.158,30.444h19.725c-2.536-3.262-4.057-7.234-5.546-12.077A21.7,21.7,0,0,1,368.756,375.6Z" transform="translate(-355.387 -328.348)" fill="#00a8cb"/>
          </g>
        </g>
      </g>
      <g id="Grupo_57072" data-name="Grupo 57072" transform="translate(137.243 66.985)">
        <g id="Grupo_57070" data-name="Grupo 57070" transform="translate(0 0)">
          <circle id="Elipse_4316" data-name="Elipse 4316" cx="20.004" cy="20.004" r="20.004" transform="translate(0 38.556) rotate(-74.52)" fill="#fda812"/>
          <circle id="Elipse_4317" data-name="Elipse 4317" cx="17.769" cy="17.769" r="17.769" transform="translate(6.842 6.869)" fill="#f9c141"/>
        </g>
        <g id="Grupo_57071" data-name="Grupo 57071" transform="translate(17.511 13.58)">
          <path id="Trazado_120731" data-name="Trazado 120731" d="M276.268,128.7v-2.435a14.1,14.1,0,0,1-5.437-1.326l.974-3.895a12.816,12.816,0,0,0,5.412,1.354c1.436,0,2.516-.323,2.516-1.219,0-.81-.839-1.272-3.085-1.812-3.166-.757-5.654-2.192-5.654-5.142,0-2.623,1.894-4.627,5.277-5.2v-2.409h3.22v2.217a12.79,12.79,0,0,1,4.574.92l-.949,3.76a11.69,11.69,0,0,0-4.68-1.027c-1.731,0-2.164.569-2.164,1.109,0,.675,1.162,1.219,3.572,1.894,3.76,1.027,5.167,2.545,5.167,5.221,0,2.569-1.923,4.733-5.519,5.3v2.68h-3.223Z" transform="translate(-270.831 -106.622)" fill="#fff"/>
        </g>
      </g>
      <g id="Grupo_57073" data-name="Grupo 57073" transform="translate(325.478 63.358)">
        <circle id="Elipse_4318" data-name="Elipse 4318" cx="41.602" cy="41.602" r="41.602" fill="#1a0f91"/>
        <circle id="Elipse_4319" data-name="Elipse 4319" cx="31.533" cy="31.533" r="31.533" transform="matrix(0.122, -0.993, 0.993, 0.122, 6.453, 69.046)" fill="#fff"/>
        <circle id="Elipse_4320" data-name="Elipse 4320" cx="22.523" cy="22.523" r="22.523" transform="translate(14.507 24.856) rotate(-13.283)" fill="#1a0f91"/>
        <path id="Trazado_120732" data-name="Trazado 120732" d="M796.695,144.482a15.5,15.5,0,1,1-15.5-15.5A15.5,15.5,0,0,1,796.695,144.482Z" transform="translate(-739.591 -102.88)" fill="#fff"/>
        <path id="Trazado_120733" data-name="Trazado 120733" d="M800.987,157.121a7.155,7.155,0,1,1-7.154-7.155A7.154,7.154,0,0,1,800.987,157.121Z" transform="translate(-752.23 -115.519)" fill="#1a0f91"/>
      </g>
      <g id="Grupo_57074" data-name="Grupo 57074" transform="translate(368.645 104.751)">
        <path id="Trazado_120734" data-name="Trazado 120734" d="M882.8,265.747c.588-.756,2.721-3.105-1.868-6.649-4.37-3.374-10.455-7.33-10.455-7.33s3.038,6.591,5.749,11.4C879.068,268.22,882.075,266.409,882.8,265.747Z" transform="translate(-845.864 -218.223)" fill="#1a0f91"/>
        <path id="Trazado_120735" data-name="Trazado 120735" d="M842.811,209.267l-3.992-6.616a38.855,38.855,0,0,0-4.124-5.624l-26.1-29.6,19.754,30.956a38.847,38.847,0,0,0,8.212,9.222l3.941,3.211A6.483,6.483,0,0,1,842.811,209.267Z" transform="translate(-808.6 -167.429)" fill="#0c0236"/>
        <path id="Trazado_120736" data-name="Trazado 120736" d="M870.029,249.191s10.691-.935,16.156,4-7.707,6.053-7.707,6.053Z" transform="translate(-845.596 -216.629)" fill="#1a0f91"/>
        <path id="Trazado_120737" data-name="Trazado 120737" d="M868.82,249.268s-2.711,10.384,1.245,16.6,7.257-6.585,7.257-6.585Z" transform="translate(-844.322 -216.718)" fill="#1a0f91"/>
      </g>
    </g>
  </g>
</svg>
