<svg xmlns="http://www.w3.org/2000/svg" xmlns:xlink="http://www.w3.org/1999/xlink" width="181" height="182" viewBox="0 0 181 182">
  <defs>
    <clipPath id="clip-path">
      <ellipse id="Elipse_156" data-name="Elipse 156" cx="90.5" cy="91" rx="90.5" ry="91" transform="translate(0.271 0.12)" fill="#fff" stroke="#707070" stroke-width="1"/>
    </clipPath>
  </defs>
  <g id="Grupo_56450" data-name="Grupo 56450" transform="translate(-1011 -4972)">
    <g id="Grupo_54688" data-name="Grupo 54688" transform="translate(613 -16)">
      <circle id="Elipse_4175" data-name="Elipse 4175" cx="87.5" cy="87.5" r="87.5" transform="translate(401 4992)" fill="#fff"/>
    </g>
    <g id="Grupo_56449" data-name="Grupo 56449" transform="translate(1017.283 4812.677)">
      <path id="Trazado_119902" data-name="Trazado 119902" d="M86.035,189.272s-13.983,3.5-24.47,11.265S40.2,232.38,38.069,249.276s-6.408,30.1,0,38.738,27.185,10.39,45.053,12.14,42.515-2.527,47.472-8.741,4.568-53.249-4.752-71S99.626,188.883,86.035,189.272Z" transform="translate(0 18.197)" fill="#57dbd8"/>
      <path id="Trazado_119903" data-name="Trazado 119903" d="M109.846,286.128c-3.593-1.191-7.287-2.5-10.251-4.936-6.36-5.242-10.237-6.8-18.152-6.721-7.241.073-14.24.052-20.457-4.058-5.54-3.662-8.637-11.838-7.3-18.263a28.71,28.71,0,0,1,5.263-12.237c4.072-5.409,4.857-9.293,3.406-16.056-1.732-8.078-1.993-14.983.378-22.992,1.225-4.135,4.114-7.141,7.36-9.845a59.059,59.059,0,0,0-8.526,5.176C51.08,203.962,40.2,228.04,38.069,244.935s-6.408,30.1,0,38.738,27.185,10.39,45.053,12.14,42.515-2.527,47.472-8.741c.962-1.2,1.718-3.961,2.253-7.727C126.644,285.475,118.6,289.041,109.846,286.128Z" transform="translate(0 22.538)" fill="#54cecb"/>
      <path id="Trazado_119904" data-name="Trazado 119904" d="M61.34,210.964s-15-3.642-17.038-15,3.93-15.292,8.519-12.671,5.315,1.208,8.519-.781,7.866,1.219,10.2,4.565,2.767-.58,8.3-1.017,7.429,4.659,4.516,11.359S78.673,211.256,61.34,210.964Z" transform="translate(22.75 0)" fill="#57dbd8"/>
      <g id="Grupo_56446" data-name="Grupo 56446" transform="translate(66.642 183.814)">
        <path id="Trazado_119905" data-name="Trazado 119905" d="M77.6,203.215c-3.888,1-1.586-4.023-2.218-5.766-1.017.049-1.4,1.736-1.732,2.468a4.557,4.557,0,0,1-4.131,2.621c-2.423-.028-2.76-2.673-3.791-4.294-.437-.684-.639-.66-.91.16-.3.9-.01,1.958-.854,2.663-1.552,1.3-4.131-.177-5.336-1.222-1.312-1.142-1.861-3.02-3.263-4.128a1.94,1.94,0,0,0-.437.975c-.347,1.635-.246,4.746-2.909,4.176-2.256-.486-3.77-4.173-4.5-6.051a20.571,20.571,0,0,1-1.618-7.078,21.814,21.814,0,0,1,.2-2.985,8.383,8.383,0,0,1,.552-2.291l-.017-.01c-2.159,1.9-3.461,5.9-2.34,12.15,1.732,9.661,12.844,13.74,16.128,14.743a6.11,6.11,0,0,0,1.77.264c13.653.038,17.9-4.721,20.572-10.081l-.024.024S78.989,202.854,77.6,203.215Z" transform="translate(-43.891 -182.452)" fill="#00a7cc"/>
      </g>
      <g id="Grupo_56448" data-name="Grupo 56448" transform="translate(68.741 235.494)">
        <g id="Grupo_56447" data-name="Grupo 56447">
          <path id="Trazado_119906" data-name="Trazado 119906" d="M66.163,206.556c7.353.726,14,4.03,13.869,11.393l-12.279-.219c-.014-2.784-2.857-3.433-4.652-3.465-1.128-.017-4.777-.083-4.815,2.17-.09,5.044,22.631.2,22.377,14.469-.153,8.561-6.908,11.629-15.146,12.077l.368,9.1-7.5-.132.628-9.151c-7.616-.934-14.653-4.641-14.518-12.338l12.275.219,0,.264c0,3.385,3.774,4.117,5.7,4.148,1.861.035,5.509-.031,5.551-2.489.094-5.242-22.617-.864-22.374-14.667.142-7.96,6.37-10.907,14.011-11.432l-.3-9.168,7.495.132Z" transform="translate(-44.495 -197.339)" fill="#1a0f91"/>
        </g>
      </g>
      <path id="Trazado_119907" data-name="Trazado 119907" d="M46.734,188.717l-1.354,7.151s3.833,3.687,14.271,3.687,16.066-3.69,16.066-3.69l-.677-6.453S60.762,193.029,46.734,188.717Z" transform="translate(26.432 16.846)" fill="#1a0f91"/>
    </g>
  </g>
</svg>
