<svg xmlns="http://www.w3.org/2000/svg" width="500" height="321" viewBox="0 0 500 321">
  <g id="Grupo_56442" data-name="Grupo 56442" transform="translate(-908 -4397)">
    <rect id="Rectángulo_29567" data-name="Rectángulo 29567" width="500" height="321" transform="translate(908 4397)" fill="none"/>
    <g id="Grupo_56441" data-name="Grupo 56441" transform="translate(896.743 4389.27)">
      <path id="Trazado_119847" data-name="Trazado 119847" d="M38.193,247.814,51.056,321H462.145a142.7,142.7,0,0,0-6.439-55.674c-3.713-11.429-8.908-22.52-10.374-34.446-2.838-23.148,8.786-45.712,23.1-64.132,14.107-18.158,32.069-36.187,32.9-59.17.391-10.874-3.266-21.507-7.993-31.3-7.888-16.345-19.415-31.611-35.455-40.1-19.869-10.514-43.867-9.323-65.919-4.978-53.943,10.635-103,38.1-149.17,67.951-15.917,10.291-33.7,21.4-52.391,18.252-13.7-2.306-24.837-11.878-35.823-20.38-19.554-15.135-41.126-28.054-64.742-35.4-15.678-4.884-33.715-6.962-47.728,1.6-10.656,6.515-17.23,18.331-19.95,30.519s-2.018,24.855-.951,37.3C24.563,170.243,31.382,209.059,38.193,247.814Z" fill="#91b3fa" opacity="0.36" style="isolation: isolate"/>
      <g id="Grupo_56440" data-name="Grupo 56440">
        <path id="Trazado_119848" data-name="Trazado 119848" d="M335.506,163.318A44.154,44.154,0,0,1,356.3,190.18c5.4,19.363,21.959,69.79,21.959,69.79s9.459,11.127,10.472,19.368-1.013,28.172-4.054,31.888a8.565,8.565,0,0,1-7.376,3.1l-39.814-3.776L321.811,205.576Z" fill="#ff7463"/>
        <path id="Trazado_119849" data-name="Trazado 119849" d="M203.846,161.483s-28.467,8.929-35.561,16.7l23.309,108.44-.372,34.215H326.187c0-1.69,1.211-113.6,1.211-113.6l8.108-43.916-47.971-8.446-9.459-7.432-53.375,2.7-8.108,8.107Z" fill="#ff7463"/>
        <g id="Grupo_56274" data-name="Grupo 56274" opacity="0.3">
          <path id="Trazado_119850" data-name="Trazado 119850" d="M214.659,255.56c-.415-.92-1.01-1.913-2-2.117-1.626-.336-2.713,1.586-3.266,3.151a142.523,142.523,0,0,1-17.73,34.618l-.346,16.65c7.868-6.621,15.627-13.713,20.642-22.691S218.894,264.931,214.659,255.56Z"/>
        </g>
        <path id="Trazado_119851" data-name="Trazado 119851" d="M168.285,178.182s-9.38,12.787-13.275,21.134-36.17,78.459-38.117,85.693-6.956,30.049,7.79,35.335H155.01l30.439-61.551,1.557-71.441Z" fill="#ff7463"/>
        <g id="Grupo_56275" data-name="Grupo 56275">
          <path id="Trazado_119852" data-name="Trazado 119852" d="M156.951,275.881c-.04.046-.676-.6-2.072-1.39a23.259,23.259,0,0,0-6.365-2.306,30.745,30.745,0,0,0-4.64-.652,18.473,18.473,0,0,0-5.319.347,19.832,19.832,0,0,0-10.21,6.408,27.671,27.671,0,0,0-5.78,10.748,53.6,53.6,0,0,0-1.825,9.921c-.283,2.868-.39,5.2-.489,6.816-.047.754-.086,1.369-.117,1.857a2.74,2.74,0,0,1-.079.647,2.728,2.728,0,0,1-.038-.65c0-.49,0-1.106.007-1.862.03-1.616.073-3.958.305-6.845a51.267,51.267,0,0,1,1.72-10.036,27.772,27.772,0,0,1,5.859-10.983,20.157,20.157,0,0,1,10.529-6.546,18.68,18.68,0,0,1,5.47-.305,29.939,29.939,0,0,1,4.7.733,21.876,21.876,0,0,1,6.389,2.512,11.061,11.061,0,0,1,1.5,1.115A2.755,2.755,0,0,1,156.951,275.881Z" fill="#1b2e35"/>
        </g>
        <g id="Grupo_56276" data-name="Grupo 56276">
          <path id="Trazado_119853" data-name="Trazado 119853" d="M142.571,263.626a3.524,3.524,0,0,1,1.019-.164,17.369,17.369,0,0,1,2.813-.038,23.247,23.247,0,0,1,4.137.611,24.639,24.639,0,0,1,9.2,4.389,23.273,23.273,0,0,1,3.079,2.83,17.416,17.416,0,0,1,1.74,2.21,3.546,3.546,0,0,1,.514.9c-.09.063-.912-1.152-2.554-2.822a26.635,26.635,0,0,0-3.1-2.684,26.4,26.4,0,0,0-9.011-4.3,26.538,26.538,0,0,0-4.037-.721C144.04,263.61,142.578,263.736,142.571,263.626Z" fill="#1b2e35"/>
        </g>
        <g id="Grupo_56277" data-name="Grupo 56277">
          <path id="Trazado_119854" data-name="Trazado 119854" d="M169.989,260.253a6.547,6.547,0,0,1-1.4-.107c-.894-.115-2.193-.246-3.8-.365a64.737,64.737,0,0,0-24.8,2.968c-1.532.494-2.763.927-3.6,1.25a6.509,6.509,0,0,1-1.338.435,6.5,6.5,0,0,1,1.252-.645c.818-.389,2.033-.883,3.559-1.431a57.351,57.351,0,0,1,24.973-2.988c1.612.173,2.91.367,3.8.552A6.387,6.387,0,0,1,169.989,260.253Z" fill="#1b2e35"/>
        </g>
        <g id="Grupo_56278" data-name="Grupo 56278">
          <path id="Trazado_119855" data-name="Trazado 119855" d="M256.369,200.35a1.9,1.9,0,0,1-.309-.364c-.217-.29-.49-.656-.827-1.109l-3.049-4.223-10.563-14.9.471-.067-5.335,15.666-.12.352-.306-.2-.63-.4a32.4,32.4,0,0,1-6.6-5.576,39.264,39.264,0,0,1-4.714-6.52,54.4,54.4,0,0,1-5.189-12.543,84.885,84.885,0,0,1-1.964-8.934c-.177-1.018-.318-1.831-.425-2.445-.051-.279-.108-.484-.142-.625a.687.687,0,0,1-.071-.207c.124-.053.453,1.122.861,3.235.435,2.11,1.044,5.172,2.138,8.861a55.612,55.612,0,0,0,5.256,12.387,39.323,39.323,0,0,0,4.673,6.406,32.107,32.107,0,0,0,6.493,5.468l.617.4-.426.156c1.914-5.567,3.733-10.856,5.382-15.65l.172-.5.3.433,10.39,15.025,2.925,4.31.758,1.156A1.994,1.994,0,0,1,256.369,200.35Z" fill="#1b2e35"/>
        </g>
        <g id="Grupo_56279" data-name="Grupo 56279" opacity="0.3">
          <path id="Trazado_119856" data-name="Trazado 119856" d="M291.506,252.117a61.3,61.3,0,0,0,7.8,36.366c6.281,10.922,15.482,20.657,26.947,25.882.37-11.129-.164-24.238.206-35.368Z"/>
        </g>
        <g id="Grupo_56285" data-name="Grupo 56285">
          <path id="Trazado_119857" data-name="Trazado 119857" d="M290.236,237.466s-4.9,1.36-1.225,11.4,4.9,9.436,7.353,18.832,5.311,17.97,9.6,23.281,20.222,16.137,20.222,16.137l14.3-13.481s-2.357-10.047-1.791-16.871,1.995-23.574,1.791-26.434-3.268-9.8-3.268-9.8v-4.751l-7.354-22.621s-4.085-1.839-5.515,4.7l-2.451-6.938s-3.881-.62-4.9,7.346.817,19,.817,19l-2.042,13.89-3.064,9.4-2.656.408s-4-1.092-6.186-8.614S295.751,235.831,290.236,237.466Z" fill="#ffbfa0"/>
          <g id="Grupo_56280" data-name="Grupo 56280">
            <path id="Trazado_119858" data-name="Trazado 119858" d="M335.7,272.995a2.25,2.25,0,0,1-.066-.515c-.027-.389-.061-.884-.1-1.5-.074-1.371-.176-3.266-.3-5.626-.221-4.878-.527-11.665-.884-19.589l.064.165a2.867,2.867,0,0,0-2.894-.753,4.218,4.218,0,0,0-2.65,1.942c-1.249,2.01-1.318,4.629-1.708,7.157-.776,5.725-1.514,11.176-2.187,16.145-.34,2.482-.7,4.843-1.183,7.029a45.881,45.881,0,0,1-1.773,5.958,50.073,50.073,0,0,0-1.538,4.851,14.87,14.87,0,0,0-.462,3.782,11.851,11.851,0,0,0,.565,3.2,4.729,4.729,0,0,1-.343-.783,8.867,8.867,0,0,1-.449-2.412,14.438,14.438,0,0,1,.371-3.864,47.216,47.216,0,0,1,1.466-4.913,47,47,0,0,0,1.69-5.926c.459-2.168.8-4.517,1.123-7,.659-4.97,1.382-10.424,2.141-16.151.18-1.277.318-2.537.541-3.795a9.953,9.953,0,0,1,1.261-3.591,4.8,4.8,0,0,1,3.007-2.183,3.414,3.414,0,0,1,3.44.949l.061.074,0,.092c.273,7.927.506,14.717.674,19.6.06,2.362.109,4.26.145,5.631.006.615.012,1.11.016,1.5A2.207,2.207,0,0,1,335.7,272.995Z" fill="#ff9a71"/>
          </g>
          <g id="Grupo_56281" data-name="Grupo 56281">
            <path id="Trazado_119859" data-name="Trazado 119859" d="M327.881,247.255a5.782,5.782,0,0,1-.6-1.279,32.337,32.337,0,0,1-1.2-3.662,36.778,36.778,0,0,1-1.027-5.628,16.393,16.393,0,0,1-.061-3.411,7.282,7.282,0,0,1,1.233-3.5,4.992,4.992,0,0,1,2.615-1.962l.219-.065.112.2c2.071,3.654,3.869,6.878,5.135,9.2q.87,1.629,1.465,2.742a4.716,4.716,0,0,1,.469,1.028,4.705,4.705,0,0,1-.647-.927l-1.615-2.656c-1.353-2.27-3.214-5.459-5.306-9.1l.331.132a4.46,4.46,0,0,0-2.3,1.749,6.8,6.8,0,0,0-1.142,3.228,16.391,16.391,0,0,0,.028,3.3,41.351,41.351,0,0,0,.892,5.58c.361,1.571.744,2.821,1.011,3.685A7.6,7.6,0,0,1,327.881,247.255Z" fill="#ff9a71"/>
          </g>
          <g id="Grupo_56282" data-name="Grupo 56282">
            <path id="Trazado_119860" data-name="Trazado 119860" d="M324.463,249.093a5.638,5.638,0,0,1-.133-1.3c-.039-.963-.087-2.151-.144-3.555-.1-3-.189-7.151-.255-11.734a100.829,100.829,0,0,1,.181-11.757,18.075,18.075,0,0,1,.766-3.5,4.372,4.372,0,0,1,.525-1.2,32.883,32.883,0,0,0-.881,4.747c-.284,2.967-.043,7.12-.008,11.7.066,4.582.094,8.732.085,11.736-.017,1.4-.03,2.594-.041,3.558A5.678,5.678,0,0,1,324.463,249.093Z" fill="#ff9a71"/>
          </g>
          <g id="Grupo_56283" data-name="Grupo 56283">
            <path id="Trazado_119861" data-name="Trazado 119861" d="M312.373,286.759c-.083-.069.812-1.122,1.918-3.032a25.337,25.337,0,0,0,1.664-3.487,25.031,25.031,0,0,0,1.671-9.255,25.207,25.207,0,0,0-.34-3.849c-.368-2.176-.838-3.476-.737-3.511a3.122,3.122,0,0,1,.408.885,16.331,16.331,0,0,1,.735,2.549,21.971,21.971,0,0,1,.471,3.916,23.221,23.221,0,0,1-1.708,9.462,21.9,21.9,0,0,1-1.811,3.5,16.283,16.283,0,0,1-1.58,2.131C312.647,286.54,312.4,286.785,312.373,286.759Z" fill="#ff9a71"/>
          </g>
          <path id="Trazado_119862" data-name="Trazado 119862" d="M337.473,279.731l12.409,4.307s11.847-6.128,20.018,0,15.268,22.278,13.021,28.815c0,0-5.639,6.962-9.929,7.984s-20.966-3.019-27.9-4.479c-6.957-1.465-18.9-9.238-18.9-9.238Z" fill="#ffbfa0"/>
          <g id="Grupo_56284" data-name="Grupo 56284">
            <path id="Trazado_119863" data-name="Trazado 119863" d="M339,298.013a4.117,4.117,0,0,1-.133-1.1q-.073-1.26-.176-3c-.131-2.532-.3-6.033-.354-9.907a98.426,98.426,0,0,1,.286-9.922c.109-1.267.248-2.289.375-2.989a4.032,4.032,0,0,1,.257-1.077c.092.014-.1,1.569-.22,4.094s-.172,6.022-.115,9.886c.07,3.788.134,7.212.183,9.9.015,1.269.011,2.3-.009,3.006A4.062,4.062,0,0,1,339,298.013Z" fill="#ff9a71"/>
          </g>
        </g>
        <g id="Grupo_56286" data-name="Grupo 56286">
          <path id="Trazado_119864" data-name="Trazado 119864" d="M379.914,283.552a38.951,38.951,0,0,0-4.126-3.721,22.7,22.7,0,0,0-25.153-1.386,39.042,39.042,0,0,0-4.51,3.244,6.183,6.183,0,0,1,1.023-1.108,20.153,20.153,0,0,1,3.276-2.491,22.306,22.306,0,0,1,25.613,1.412,20.181,20.181,0,0,1,2.982,2.836A6.2,6.2,0,0,1,379.914,283.552Z" fill="#1b2e35"/>
        </g>
        <g id="Grupo_56287" data-name="Grupo 56287">
          <path id="Trazado_119865" data-name="Trazado 119865" d="M378.32,273.2a24.352,24.352,0,0,0-5.163-2.846,22.83,22.83,0,0,0-13.969-.42,32.449,32.449,0,0,0-7.225,3.007,34.392,34.392,0,0,0-5.233,3.7c-1.393,1.188-2.457,2.225-3.188,2.948a9.108,9.108,0,0,1-1.168,1.094,7.793,7.793,0,0,1,1-1.251,38.957,38.957,0,0,1,3.081-3.1,32.068,32.068,0,0,1,5.235-3.852,31.512,31.512,0,0,1,7.337-3.1,22.414,22.414,0,0,1,14.277.6,16.465,16.465,0,0,1,3.819,2.156,10.562,10.562,0,0,1,.908.771C378.235,273.086,378.333,273.19,378.32,273.2Z" fill="#1b2e35"/>
        </g>
        <g id="Grupo_56288" data-name="Grupo 56288">
          <path id="Trazado_119866" data-name="Trazado 119866" d="M378.422,264.238c-.031.115-2.2-.547-5.8-1.036a46.792,46.792,0,0,0-6.361-.4,46.236,46.236,0,0,0-15.3,2.693,46.547,46.547,0,0,0-5.841,2.551c-3.221,1.689-5.033,3.052-5.1,2.954a8.3,8.3,0,0,1,1.242-.993,17.266,17.266,0,0,1,1.541-1.053c.619-.383,1.306-.852,2.122-1.272a42.131,42.131,0,0,1,5.854-2.692,43.75,43.75,0,0,1,15.486-2.725,42.015,42.015,0,0,1,6.42.532c.911.115,1.717.322,2.429.471a17.256,17.256,0,0,1,1.808.464A8.242,8.242,0,0,1,378.422,264.238Z" fill="#1b2e35"/>
        </g>
        <g id="Grupo_56289" data-name="Grupo 56289">
          <path id="Trazado_119867" data-name="Trazado 119867" d="M283.354,154.5a10.338,10.338,0,0,1,.86,3.3,32.19,32.19,0,0,1-.471,9.626,57.124,57.124,0,0,1-1.6,6.709,50.864,50.864,0,0,1-3.258,7.454c-2.673,5.153-6.036,10.773-9.931,16.766l-.455.7v-.838c-.006-3.96-.013-8.117-.019-12.434l.436.208-10.466,8.448.091-.133a110.261,110.261,0,0,0-4.655,25.156c-1.024,13.638-.2,26.682.445,38.516.552,11.85.912,22.521,1.282,31.482s.679,16.209.949,21.216c.147,2.481.262,4.417.341,5.763.043.638.076,1.135.1,1.5.019.338.014.513.014.513s-.035-.171-.074-.507c-.038-.362-.09-.858-.157-1.494-.124-1.315-.285-3.257-.45-5.759-.34-5-.727-12.253-1.135-21.213s-.877-19.631-1.407-31.472c-.672-11.824-1.517-24.9-.489-38.587a109.945,109.945,0,0,1,4.7-25.284l.025-.081.066-.053,10.483-8.426.437-.351v.56c-.006,4.317-.013,8.474-.019,12.434l-.456-.138c7.7-11.939,13.96-22.313,14.924-30.706a33.173,33.173,0,0,0,.6-9.555,16.187,16.187,0,0,0-.46-2.484C283.427,154.792,283.354,154.5,283.354,154.5Z" fill="#1b2e35"/>
        </g>
        <path id="Trazado_119868" data-name="Trazado 119868" d="M263.255,299.057l-.4-.014a3.162,3.162,0,1,0,.4.014Z" fill="#fff"/>
        <g id="Grupo_56290" data-name="Grupo 56290">
          <path id="Trazado_119869" data-name="Trazado 119869" d="M263.255,255.867l-.4-.014a3.162,3.162,0,1,0,.4.014Z" fill="#fff"/>
          <path id="Trazado_119870" data-name="Trazado 119870" d="M262.836,217.227a3.162,3.162,0,0,0,.419-6.306l-.4-.014a3.162,3.162,0,0,0-.019,6.32Z" fill="#fff"/>
        </g>
        <g id="Grupo_56426" data-name="Grupo 56426">
          <g id="Grupo_56424" data-name="Grupo 56424">
            <g id="Grupo_56291" data-name="Grupo 56291">
              <path id="Trazado_119871" data-name="Trazado 119871" d="M214.455,103.895c-3.929-4.35-7.893-8.747-10.757-13.861s-4.572-11.083-3.623-16.867c.554-3.382,1.991-6.6,2.22-10.024.314-4.706-1.664-9.624,0-14.035,2.608-6.9,11.889-7.96,17.515-12.723,4.382-3.709,6.516-9.731,11.336-12.85,4.211-2.725,9.621-2.666,14.587-1.963s9.964,1.956,14.934,1.287c3.544-.477,6.882-1.91,10.352-2.769s7.344-1.086,10.435.71,4.827,6.185,2.8,9.131c5.761-2.657,13.078,1.833,14.654,7.978s-1.579,12.782-6.461,16.834-11.193,5.936-17.427,7.111c-17.648,3.326-36.791,1.45-52-8.1" fill="#1b2e35"/>
            </g>
            <g id="Grupo_56423" data-name="Grupo 56423">
              <g id="Grupo_56397" data-name="Grupo 56397">
                <g id="Grupo_56396" data-name="Grupo 56396">
                  <g id="Grupo_56395" data-name="Grupo 56395">
                    <g id="Grupo_56314" data-name="Grupo 56314">
                      <g id="Grupo_56313" data-name="Grupo 56313">
                        <g id="Grupo_56312" data-name="Grupo 56312">
                          <g id="Grupo_56301" data-name="Grupo 56301">
                            <g id="Grupo_56300" data-name="Grupo 56300">
                              <g id="Grupo_56299" data-name="Grupo 56299">
                                <g id="Grupo_56298" data-name="Grupo 56298">
                                  <g id="Grupo_56297" data-name="Grupo 56297">
                                    <g id="Grupo_56296" data-name="Grupo 56296">
                                      <g id="Grupo_56295" data-name="Grupo 56295">
                                        <g id="Grupo_56294" data-name="Grupo 56294">
                                          <g id="Grupo_56293" data-name="Grupo 56293">
                                            <g id="Grupo_56292" data-name="Grupo 56292">
                                              <path id="Trazado_119872" data-name="Trazado 119872" d="M276.495,163.226c-.861-6.68-1.566-12.254-1.61-12.946,0,0,22.325-5.017,21.1-27.591-.6-10.908-3.649-33.278-6.646-53.482A42.108,42.108,0,0,0,244.86,33.4l-2.176.145c-23.375,2.941-33.936,24.435-30.35,47.72l12.612,78.074s5.382,17.271,16.894,20.261l14.529,20.754,2.4-8.934,10.829-9.427a42.655,42.655,0,0,0,5.339-7.948A17.39,17.39,0,0,0,276.495,163.226Z" fill="#ffbfa0"/>
                                            </g>
                                          </g>
                                        </g>
                                      </g>
                                    </g>
                                  </g>
                                </g>
                              </g>
                            </g>
                          </g>
                          <g id="Grupo_56311" data-name="Grupo 56311">
                            <g id="Grupo_56310" data-name="Grupo 56310">
                              <g id="Grupo_56309" data-name="Grupo 56309">
                                <g id="Grupo_56308" data-name="Grupo 56308">
                                  <g id="Grupo_56307" data-name="Grupo 56307">
                                    <g id="Grupo_56306" data-name="Grupo 56306">
                                      <g id="Grupo_56305" data-name="Grupo 56305">
                                        <g id="Grupo_56304" data-name="Grupo 56304">
                                          <g id="Grupo_56303" data-name="Grupo 56303">
                                            <g id="Grupo_56302" data-name="Grupo 56302">
                                              <path id="Trazado_119873" data-name="Trazado 119873" d="M274.9,149.952s-14.177,2.113-29.964-6.39c0,0,8.036,15.767,30.407,12.23Z" fill="#ff9a71"/>
                                            </g>
                                          </g>
                                        </g>
                                      </g>
                                    </g>
                                  </g>
                                </g>
                              </g>
                            </g>
                          </g>
                        </g>
                      </g>
                    </g>
                    <g id="Grupo_56394" data-name="Grupo 56394">
                      <g id="Grupo_56393" data-name="Grupo 56393">
                        <g id="Grupo_56372" data-name="Grupo 56372">
                          <g id="Grupo_56371" data-name="Grupo 56371">
                            <g id="Grupo_56370" data-name="Grupo 56370">
                              <g id="Grupo_56336" data-name="Grupo 56336">
                                <g id="Grupo_56324" data-name="Grupo 56324">
                                  <g id="Grupo_56323" data-name="Grupo 56323">
                                    <g id="Grupo_56322" data-name="Grupo 56322">
                                      <g id="Grupo_56321" data-name="Grupo 56321">
                                        <g id="Grupo_56320" data-name="Grupo 56320">
                                          <g id="Grupo_56319" data-name="Grupo 56319">
                                            <g id="Grupo_56318" data-name="Grupo 56318">
                                              <g id="Grupo_56317" data-name="Grupo 56317">
                                                <g id="Grupo_56316" data-name="Grupo 56316">
                                                  <g id="Grupo_56315" data-name="Grupo 56315">
                                                    <path id="Trazado_119874" data-name="Trazado 119874" d="M282.08,88.6a3.229,3.229,0,0,1-2.888,3.458,3.088,3.088,0,0,1-3.515-2.683,3.229,3.229,0,0,1,2.885-3.459A3.09,3.09,0,0,1,282.08,88.6Z" fill="#1b2e35"/>
                                                  </g>
                                                </g>
                                              </g>
                                            </g>
                                          </g>
                                        </g>
                                      </g>
                                    </g>
                                  </g>
                                </g>
                                <g id="Grupo_56335" data-name="Grupo 56335">
                                  <g id="Grupo_56334" data-name="Grupo 56334">
                                    <g id="Grupo_56333" data-name="Grupo 56333">
                                      <g id="Grupo_56332" data-name="Grupo 56332">
                                        <g id="Grupo_56331" data-name="Grupo 56331">
                                          <g id="Grupo_56330" data-name="Grupo 56330">
                                            <g id="Grupo_56329" data-name="Grupo 56329">
                                              <g id="Grupo_56328" data-name="Grupo 56328">
                                                <g id="Grupo_56327" data-name="Grupo 56327">
                                                  <g id="Grupo_56326" data-name="Grupo 56326">
                                                    <g id="Grupo_56325" data-name="Grupo 56325">
                                                      <path id="Trazado_119875" data-name="Trazado 119875" d="M285.229,80.6c-.371.447-2.932-1.2-6.4-.955-3.465.191-5.889,2.145-6.293,1.745-.2-.175.158-.961,1.211-1.841a8.859,8.859,0,0,1,5.005-1.916,8.5,8.5,0,0,1,5.127,1.284C285,79.663,285.413,80.4,285.229,80.6Z" fill="#1b2e35"/>
                                                    </g>
                                                  </g>
                                                </g>
                                              </g>
                                            </g>
                                          </g>
                                        </g>
                                      </g>
                                    </g>
                                  </g>
                                </g>
                              </g>
                              <g id="Grupo_56358" data-name="Grupo 56358">
                                <g id="Grupo_56346" data-name="Grupo 56346">
                                  <g id="Grupo_56345" data-name="Grupo 56345">
                                    <g id="Grupo_56344" data-name="Grupo 56344">
                                      <g id="Grupo_56343" data-name="Grupo 56343">
                                        <g id="Grupo_56342" data-name="Grupo 56342">
                                          <g id="Grupo_56341" data-name="Grupo 56341">
                                            <g id="Grupo_56340" data-name="Grupo 56340">
                                              <g id="Grupo_56339" data-name="Grupo 56339">
                                                <g id="Grupo_56338" data-name="Grupo 56338">
                                                  <g id="Grupo_56337" data-name="Grupo 56337">
                                                    <path id="Trazado_119876" data-name="Trazado 119876" d="M249.337,90.944a3.228,3.228,0,0,1-2.889,3.457,3.086,3.086,0,0,1-3.514-2.682,3.229,3.229,0,0,1,2.885-3.459A3.091,3.091,0,0,1,249.337,90.944Z" fill="#1b2e35"/>
                                                  </g>
                                                </g>
                                              </g>
                                            </g>
                                          </g>
                                        </g>
                                      </g>
                                    </g>
                                  </g>
                                </g>
                                <g id="Grupo_56357" data-name="Grupo 56357">
                                  <g id="Grupo_56356" data-name="Grupo 56356">
                                    <g id="Grupo_56355" data-name="Grupo 56355">
                                      <g id="Grupo_56354" data-name="Grupo 56354">
                                        <g id="Grupo_56353" data-name="Grupo 56353">
                                          <g id="Grupo_56352" data-name="Grupo 56352">
                                            <g id="Grupo_56351" data-name="Grupo 56351">
                                              <g id="Grupo_56350" data-name="Grupo 56350">
                                                <g id="Grupo_56349" data-name="Grupo 56349">
                                                  <g id="Grupo_56348" data-name="Grupo 56348">
                                                    <g id="Grupo_56347" data-name="Grupo 56347">
                                                      <path id="Trazado_119877" data-name="Trazado 119877" d="M251.2,83.526c-.372.446-2.936-1.2-6.4-.955-3.465.192-5.89,2.145-6.294,1.745-.2-.176.155-.96,1.213-1.841a8.856,8.856,0,0,1,5-1.917,8.518,8.518,0,0,1,5.128,1.284C250.971,82.589,251.385,83.325,251.2,83.526Z" fill="#1b2e35"/>
                                                    </g>
                                                  </g>
                                                </g>
                                              </g>
                                            </g>
                                          </g>
                                        </g>
                                      </g>
                                    </g>
                                  </g>
                                </g>
                              </g>
                              <g id="Grupo_56369" data-name="Grupo 56369">
                                <g id="Grupo_56368" data-name="Grupo 56368">
                                  <g id="Grupo_56367" data-name="Grupo 56367">
                                    <g id="Grupo_56366" data-name="Grupo 56366">
                                      <g id="Grupo_56365" data-name="Grupo 56365">
                                        <g id="Grupo_56364" data-name="Grupo 56364">
                                          <g id="Grupo_56363" data-name="Grupo 56363">
                                            <g id="Grupo_56362" data-name="Grupo 56362">
                                              <g id="Grupo_56361" data-name="Grupo 56361">
                                                <g id="Grupo_56360" data-name="Grupo 56360">
                                                  <g id="Grupo_56359" data-name="Grupo 56359">
                                                    <path id="Trazado_119878" data-name="Trazado 119878" d="M265.5,108.39c-.029-.2,2.1-.713,5.562-1.393.879-.15,1.7-.382,1.814-1a4.521,4.521,0,0,0-.767-2.584q-1.463-3.129-3.068-6.565c-4.277-9.352-7.435-17.066-7.058-17.236s4.152,7.275,8.429,16.628q1.55,3.462,2.961,6.612c.4.984,1.054,2.086.691,3.443a2.223,2.223,0,0,1-1.369,1.391,6.04,6.04,0,0,1-1.489.31C267.706,108.424,265.527,108.585,265.5,108.39Z" fill="#1b2e35"/>
                                                  </g>
                                                </g>
                                              </g>
                                            </g>
                                          </g>
                                        </g>
                                      </g>
                                    </g>
                                  </g>
                                </g>
                              </g>
                            </g>
                          </g>
                        </g>
                        <g id="Grupo_56382" data-name="Grupo 56382">
                          <g id="Grupo_56381" data-name="Grupo 56381">
                            <g id="Grupo_56380" data-name="Grupo 56380">
                              <g id="Grupo_56379" data-name="Grupo 56379">
                                <g id="Grupo_56378" data-name="Grupo 56378">
                                  <g id="Grupo_56377" data-name="Grupo 56377">
                                    <g id="Grupo_56376" data-name="Grupo 56376">
                                      <g id="Grupo_56375" data-name="Grupo 56375">
                                        <g id="Grupo_56374" data-name="Grupo 56374">
                                          <g id="Grupo_56373" data-name="Grupo 56373">
                                            <path id="Trazado_119879" data-name="Trazado 119879" d="M251.188,69.882c-.279.965-3.77.75-7.8,1.513-4.049.681-7.249,2.091-7.845,1.282-.267-.389.245-1.314,1.51-2.315a13.813,13.813,0,0,1,11.921-2.128C250.5,68.735,251.3,69.425,251.188,69.882Z" fill="#1b2e35"/>
                                          </g>
                                        </g>
                                      </g>
                                    </g>
                                  </g>
                                </g>
                              </g>
                            </g>
                          </g>
                        </g>
                        <g id="Grupo_56392" data-name="Grupo 56392">
                          <g id="Grupo_56391" data-name="Grupo 56391">
                            <g id="Grupo_56390" data-name="Grupo 56390">
                              <g id="Grupo_56389" data-name="Grupo 56389">
                                <g id="Grupo_56388" data-name="Grupo 56388">
                                  <g id="Grupo_56387" data-name="Grupo 56387">
                                    <g id="Grupo_56386" data-name="Grupo 56386">
                                      <g id="Grupo_56385" data-name="Grupo 56385">
                                        <g id="Grupo_56384" data-name="Grupo 56384">
                                          <g id="Grupo_56383" data-name="Grupo 56383">
                                            <path id="Trazado_119880" data-name="Trazado 119880" d="M283.284,70.654c-.557.828-3,.171-5.873.324-2.879.053-5.267.884-5.882.1-.272-.383.057-1.2,1.07-2.014a8.516,8.516,0,0,1,9.472-.339C283.14,69.463,283.527,70.252,283.284,70.654Z" fill="#1b2e35"/>
                                          </g>
                                        </g>
                                      </g>
                                    </g>
                                  </g>
                                </g>
                              </g>
                            </g>
                          </g>
                        </g>
                      </g>
                    </g>
                  </g>
                </g>
              </g>
              <g id="Grupo_56419" data-name="Grupo 56419">
                <g id="Grupo_56407" data-name="Grupo 56407">
                  <g id="Grupo_56406" data-name="Grupo 56406">
                    <g id="Grupo_56405" data-name="Grupo 56405">
                      <g id="Grupo_56404" data-name="Grupo 56404">
                        <g id="Grupo_56403" data-name="Grupo 56403">
                          <g id="Grupo_56402" data-name="Grupo 56402">
                            <g id="Grupo_56401" data-name="Grupo 56401">
                              <g id="Grupo_56400" data-name="Grupo 56400">
                                <g id="Grupo_56399" data-name="Grupo 56399">
                                  <g id="Grupo_56398" data-name="Grupo 56398">
                                    <path id="Trazado_119881" data-name="Trazado 119881" d="M215.293,97.839c-.4-.141-15.8-3.547-14.28,11.84s18.2,10.372,18.182,9.928S215.293,97.839,215.293,97.839Z" fill="#ffbfa0"/>
                                  </g>
                                </g>
                              </g>
                            </g>
                          </g>
                        </g>
                      </g>
                    </g>
                  </g>
                </g>
                <g id="Grupo_56418" data-name="Grupo 56418">
                  <g id="Grupo_56417" data-name="Grupo 56417">
                    <g id="Grupo_56416" data-name="Grupo 56416">
                      <g id="Grupo_56415" data-name="Grupo 56415">
                        <g id="Grupo_56414" data-name="Grupo 56414">
                          <g id="Grupo_56413" data-name="Grupo 56413">
                            <g id="Grupo_56412" data-name="Grupo 56412">
                              <g id="Grupo_56411" data-name="Grupo 56411">
                                <g id="Grupo_56410" data-name="Grupo 56410">
                                  <g id="Grupo_56409" data-name="Grupo 56409">
                                    <g id="Grupo_56408" data-name="Grupo 56408">
                                      <path id="Trazado_119882" data-name="Trazado 119882" d="M212.376,114.554c-.072-.042-.25.214-.682.467a2.692,2.692,0,0,1-2,.239c-1.685-.435-3.31-2.88-3.659-5.646a8.909,8.909,0,0,1,.37-3.913,3.115,3.115,0,0,1,1.813-2.257,1.371,1.371,0,0,1,1.654.578c.249.41.182.727.266.745.047.035.3-.29.118-.913a1.716,1.716,0,0,0-.7-.9,2.032,2.032,0,0,0-1.521-.245,3.786,3.786,0,0,0-2.564,2.663,9.139,9.139,0,0,0-.5,4.38c.4,3.091,2.28,5.835,4.568,6.258a2.883,2.883,0,0,0,2.411-.65C212.385,114.929,212.432,114.577,212.376,114.554Z" fill="#ff9a71"/>
                                    </g>
                                  </g>
                                </g>
                              </g>
                            </g>
                          </g>
                        </g>
                      </g>
                    </g>
                  </g>
                </g>
              </g>
              <g id="Grupo_56422" data-name="Grupo 56422">
                <g id="Grupo_56421" data-name="Grupo 56421">
                  <g id="Grupo_56420" data-name="Grupo 56420">
                    <path id="Trazado_119883" data-name="Trazado 119883" d="M288.2,48.183c-1.057,6.125-13.48,11.738-23.78,11.437-9.495-.276-14.185-4.988-21.085-8.336-4.366-2.119-4.366-2.119-10.292-1.156-4.791.779-7.278,6.432-9.968,10.472,5.124,11.171,3.053,24.162.881,36.259a6.143,6.143,0,0,1-1.557,3.678c-1.73,1.525-4.534.611-6.236-.946-2.723-2.493-3.963-6.191-4.856-9.775a63.568,63.568,0,0,1-1.524-25.022A43.28,43.28,0,0,1,220.194,42.2a41,41,0,0,1,27.971-12.765A50.353,50.353,0,0,1,278,37.908c4.08,2.672,7.895,5.977,10.2,10.275" fill="#1b2e35"/>
                  </g>
                </g>
              </g>
            </g>
          </g>
          <path id="Trazado_119884" data-name="Trazado 119884" d="M267.767,116.185l-7.843-3.658a2.638,2.638,0,0,0-1.426-.36,2.275,2.275,0,0,0-1.357.922,7.293,7.293,0,0,0-.869,8.014,6.126,6.126,0,0,0,7.36,2.706c2.78-1.151,4.131-4.38,4.348-7.381Z" fill="#ff9a71"/>
          <g id="Grupo_56425" data-name="Grupo 56425">
            <path id="Trazado_119885" data-name="Trazado 119885" d="M263.877,124.364c.022.068-.362.294-1.147.458a6.812,6.812,0,0,1-3.374-.249,7.036,7.036,0,0,1-3.9-3.237,7.234,7.234,0,0,1-.477-6.186,7.555,7.555,0,0,1,1.82-2.743,7.039,7.039,0,0,1,1.272-.962,2.083,2.083,0,0,1,.9-.287,2.033,2.033,0,0,1,.91.176,11.5,11.5,0,0,1,1.222.693l1.069.657,1.91,1.194c2.326,1.477,3.724,2.46,3.643,2.6s-1.626-.591-4.058-1.885l-1.982-1.072-1.1-.606a12.5,12.5,0,0,0-1.109-.583.827.827,0,0,0-.858.082,6.2,6.2,0,0,0-1.031.816,6.671,6.671,0,0,0-1.525,2.339,6.331,6.331,0,0,0,.331,5.253,6.471,6.471,0,0,0,3.241,2.979,7.682,7.682,0,0,0,3.037.57C263.429,124.352,263.853,124.278,263.877,124.364Z" fill="#1b2e35"/>
          </g>
        </g>
        <g id="Grupo_56427" data-name="Grupo 56427" opacity="0.3">
          <path id="Trazado_119886" data-name="Trazado 119886" d="M216.973,159.642c-1.559,15.209,4.224,31.261,16.422,40.477.957.723,2.159,1.44,3.287,1.033a3.617,3.617,0,0,0,1.7-1.756,29.7,29.7,0,0,0,3.636-19.542c-1.931,5.087-3.589,10.08-5.539,15.4C225.852,188.8,219.228,175.079,216.973,159.642Z"/>
        </g>
        <path id="Trazado_119887" data-name="Trazado 119887" d="M258.268,194.222l8.95-3.269,1.482,15.138s9.659-17.6,13.656-25.635S284.3,158.25,284.3,158.25s1.43,12.346-8.249,28.1l-7.3,11.874V185.785Z" opacity="0.3"/>
        <g id="Grupo_56428" data-name="Grupo 56428" opacity="0.3">
          <path id="Trazado_119888" data-name="Trazado 119888" d="M154.143,271.162c-3.992-1.885-8.584-2.138-12.969-1.627-4.631.539-9.28,1.956-12.908,4.884s-6.089,7.542-5.636,12.182l.448.064c3.122-8.453,9.335-14.6,17.346-15.348s15.827,2.821,21.325,8.694C161.215,275.629,158.135,273.047,154.143,271.162Z"/>
        </g>
        <g id="Grupo_56429" data-name="Grupo 56429" opacity="0.3">
          <path id="Trazado_119889" data-name="Trazado 119889" d="M380.492,279.8a20.508,20.508,0,0,0-11.56-5.957,25.983,25.983,0,0,0-21.569,6.244l1.708-1.386a27.2,27.2,0,0,1,14.363-3.9,20.783,20.783,0,0,1,13.691,5.469c3.346,3.188,5.358,7.492,7.276,11.7A14.657,14.657,0,0,0,380.492,279.8Z"/>
        </g>
        <g id="Grupo_56430" data-name="Grupo 56430">
          <path id="Trazado_119890" data-name="Trazado 119890" d="M322.793,209.5a5.5,5.5,0,0,1,.4-1.224l1.273-3.257c1.084-2.746,2.571-6.542,4.142-10.761s2.924-8.066,3.9-10.853l1.166-3.3a5.49,5.49,0,0,1,.495-1.188,5.438,5.438,0,0,1-.279,1.257c-.215.8-.552,1.946-.99,3.357-.875,2.824-2.171,6.7-3.743,10.928s-3.125,8.006-4.308,10.715c-.591,1.355-1.086,2.444-1.445,3.189A5.5,5.5,0,0,1,322.793,209.5Z" fill="#1b2e35"/>
        </g>
        <g id="Grupo_56431" data-name="Grupo 56431">
          <path id="Trazado_119891" data-name="Trazado 119891" d="M181.515,210.6c-.158.033-1.375-5.3-2.719-11.91s-2.307-12-2.149-12.027,1.376,5.3,2.72,11.911S181.673,210.564,181.515,210.6Z" fill="#1b2e35"/>
        </g>
        <g id="Grupo_56438" data-name="Grupo 56438">
          <g id="Grupo_56436" data-name="Grupo 56436">
            <path id="Trazado_119892" data-name="Trazado 119892" d="M179.4,277.257c.354.179-4.1-34.92-4.1-34.92s2.815-26.637,4.4-27.869l.04-9.4s4.357-2.639,5.526,1.622c0,0,3.863-3.355,4.538,4.63s.817,16.144.817,16.144l8.6,21.5,1.415.716s1.847-16.842,2.922-19.32,1.811-8.506,5.886-7.6,4.416,4.276,3.682,9.771-1.644,11.167-1.305,14.716,1.952,11.36,1.457,17.566-3.894,12.753-7.461,17.349-10.381,14.1-14.086,16.967C190.428,300.127,179.4,277.257,179.4,277.257Z" fill="#ffbfa0"/>
            <g id="Grupo_56432" data-name="Grupo 56432">
              <path id="Trazado_119893" data-name="Trazado 119893" d="M183.742,248.694a7.322,7.322,0,0,1,.023-1.5c.074-1.078.168-2.445.281-4.078.262-3.44.664-8.19,1.144-13.432.248-2.614.484-5.105.7-7.389a13.2,13.2,0,0,0,.039-3.168,4.484,4.484,0,0,0-1.072-2.422,4.83,4.83,0,0,0-3.509-1.541,9.167,9.167,0,0,0-1.463.187c-.008-.018.11-.08.348-.183a3.788,3.788,0,0,1,1.107-.231,4.931,4.931,0,0,1,3.82,1.487,4.874,4.874,0,0,1,1.247,2.627,13.251,13.251,0,0,1,.019,3.292c-.2,2.286-.423,4.778-.654,7.394-.481,5.243-.948,9.986-1.316,13.417-.186,1.626-.342,2.987-.465,4.061A7.49,7.49,0,0,1,183.742,248.694Z" fill="#ff9a71"/>
            </g>
            <g id="Grupo_56433" data-name="Grupo 56433">
              <path id="Trazado_119894" data-name="Trazado 119894" d="M188.363,234.339a12.139,12.139,0,0,0-1.522,2.771c-.693,1.83-.943,4.579-1.429,7.576-.463,3-.915,5.713-1.27,7.671a17.755,17.755,0,0,1-.695,3.15,17.648,17.648,0,0,1,.287-3.213c.251-1.974.638-4.7,1.1-7.7.486-2.982.8-5.754,1.621-7.637a7.251,7.251,0,0,1,1.243-2.047C188.075,234.488,188.344,234.318,188.363,234.339Z" fill="#ff9a71"/>
            </g>
            <g id="Grupo_56434" data-name="Grupo 56434">
              <path id="Trazado_119895" data-name="Trazado 119895" d="M185.2,206.23a4.275,4.275,0,0,1,.3,1.1c.157.717.351,1.762.565,3.057.429,2.589.9,6.189,1.194,10.185s.359,7.628.316,10.253c-.021,1.312-.06,2.374-.111,3.106a4.366,4.366,0,0,1-.133,1.136,36.9,36.9,0,0,1-.169-4.24c-.062-2.617-.192-6.23-.485-10.212s-.7-7.572-1.021-10.17A37.182,37.182,0,0,1,185.2,206.23Z" fill="#ff9a71"/>
            </g>
            <g id="Grupo_56435" data-name="Grupo 56435">
              <path id="Trazado_119896" data-name="Trazado 119896" d="M210,239.137c.085.133-1.256.757-2.9.246-1.646-.491-2.411-1.756-2.266-1.819a16.285,16.285,0,0,0,2.436,1.261A16.188,16.188,0,0,0,210,239.137Z" fill="#ff9a71"/>
            </g>
            <path id="Trazado_119897" data-name="Trazado 119897" d="M179.885,272.892l-22.714,9.546H143.638s-13.385,4.177-15.444,16.724-2.354,19.005,3.53,20.557,22.505,1.724,30.742-1.01,29.815-20.145,29.815-20.145l2.079-12.6Z" fill="#ffbfa0"/>
          </g>
          <g id="Grupo_56437" data-name="Grupo 56437">
            <path id="Trazado_119898" data-name="Trazado 119898" d="M185.2,286.759c-.03.027-.257-.184-.646-.593a13.946,13.946,0,0,1-1.476-1.877,25.656,25.656,0,0,1-3.172-7.184,42.509,42.509,0,0,1-1.4-7.718,14.381,14.381,0,0,1-.088-3.245,23.575,23.575,0,0,1,.5,3.2,57.444,57.444,0,0,0,1.551,7.606,29.979,29.979,0,0,0,2.96,7.123C184.452,285.766,185.285,286.686,185.2,286.759Z" fill="#ff9a71"/>
          </g>
        </g>
        <g id="Grupo_56439" data-name="Grupo 56439">
          <path id="Trazado_119899" data-name="Trazado 119899" d="M195.092,290.741a23.4,23.4,0,0,0,1.294-4.869,15.693,15.693,0,0,0-3.051-11.4c-1.38-1.934-2.931-3.617-4.239-5.246a24.341,24.341,0,0,1-3.07-4.643A12.161,12.161,0,0,1,184.888,261a4.142,4.142,0,0,1-.039-1.376,15.512,15.512,0,0,0,1.545,4.772,26.015,26.015,0,0,0,3.118,4.488c1.318,1.6,2.887,3.272,4.3,5.249a16.341,16.341,0,0,1,2.833,6.214,15.817,15.817,0,0,1,.151,5.578,14.3,14.3,0,0,1-1.041,3.608,7.8,7.8,0,0,1-.458.911C195.18,290.649,195.11,290.75,195.092,290.741Z" fill="#ff9a71"/>
        </g>
      </g>
      <g id="freepik--character-2--inject-45">
        <path id="Trazado_118600" data-name="Trazado 118600" d="M124.047,18.5h0c-.47-1.662-3.849-4.825-7.214-4.759a2.914,2.914,0,0,0-.941.189L50.618,51.041a6.46,6.46,0,0,0-3.179,5.432V197.7c0,3.594,4.145,7.028,8.042,5.384h0a1.4,1.4,0,0,0,.256-.1l65.279-37.2a6.255,6.255,0,0,0,3.15-5.425V19.176A1.509,1.509,0,0,0,124.047,18.5Z" fill="#455a64"/>
        <path id="Trazado_118601" data-name="Trazado 118601" d="M56.54,71.411a3.112,3.112,0,0,1,1.575-2.692l60.643-34.5a1.562,1.562,0,0,1,2.336,1.346V149.43a3.144,3.144,0,0,1-1.576,2.692L58.9,186.69a1.561,1.561,0,0,1-2.335-1.346Z" fill="#91b3fa"/>
        <path id="Trazado_118602" data-name="Trazado 118602" d="M56.54,71.411a3.112,3.112,0,0,1,1.575-2.692l60.643-34.5a1.562,1.562,0,0,1,2.336,1.346V149.43a3.144,3.144,0,0,1-1.576,2.692L58.9,186.69a1.561,1.561,0,0,1-2.335-1.346Z" opacity="0.2" style="isolation: isolate"/>
        <path id="Trazado_118603" data-name="Trazado 118603" d="M56.54,71.411a3.112,3.112,0,0,1,1.575-2.692l60.643-34.5a1.562,1.562,0,0,1,2.336,1.346V149.43a3.144,3.144,0,0,1-1.576,2.692L58.9,186.69a1.561,1.561,0,0,1-2.335-1.346Z" fill="#91b3fa" opacity="0.1" style="isolation: isolate"/>
        <path id="Trazado_118604" data-name="Trazado 118604" d="M47.461,56.486V197.7c0,3.594,4.146,7.028,8.043,5.384h0a1.548,1.548,0,0,1-1.986-.92,1.567,1.567,0,0,1-.094-.533V60.39a6.218,6.218,0,0,1,1.1-3.446l-6.414-3.211A6.236,6.236,0,0,0,47.461,56.486Z" opacity="0.3" style="isolation: isolate"/>
        <path id="Trazado_118605" data-name="Trazado 118605" d="M116.84,13.731a2.919,2.919,0,0,0-.942.188L50.619,51.041a6.171,6.171,0,0,0-2.507,2.692l6.414,3.211a6.214,6.214,0,0,1,2.108-2.021l65.279-37.135a1.548,1.548,0,0,1,2.114.57c.02.033.037.068.054.1h0C123.583,16.827,120.205,13.664,116.84,13.731Z" fill="#fff" opacity="0.1" style="isolation: isolate"/>
        <path id="Trazado_118606" data-name="Trazado 118606" d="M96.874,41.135c.463-.263.84-.053.84.471a1.868,1.868,0,0,1-.834,1.447l-12.788,7.4c-.457.269-.828.048-.828-.485a1.825,1.825,0,0,1,.822-1.426Z" fill="#263238"/>
        <path id="Trazado_118607" data-name="Trazado 118607" d="M80.767,50.429c.458-.264.829-.054.829.478a1.846,1.846,0,0,1-.829,1.44c-.457.264-.833.047-.833-.477A1.816,1.816,0,0,1,80.767,50.429Z" fill="#263238"/>
        <path id="Trazado_118608" data-name="Trazado 118608" d="M88.979,40.065c.914-.531,1.657-.107,1.657.942a3.649,3.649,0,0,1-1.649,2.874c-.916.527-1.676.1-1.676-.955A3.662,3.662,0,0,1,88.979,40.065Z" fill="#263238"/>
        <path id="Trazado_118609" data-name="Trazado 118609" d="M88.979,173c1.87-1.076,3.364-.215,3.364,1.925a7.458,7.458,0,0,1-3.364,5.862c-1.865,1.077-3.413.2-3.42-1.952A7.454,7.454,0,0,1,88.979,173Z" fill="#263238"/>
        <path id="Trazado_118610" data-name="Trazado 118610" d="M120.892,32.427l22.047,18.3L134.9,55.368l-22.039-18.3Z" fill="#91b3fa"/>
        <path id="Trazado_118611" data-name="Trazado 118611" d="M104.827,41.715l22.041,18.292-8.036,4.639L96.8,46.358Z" fill="#91b3fa"/>
        <path id="Trazado_118612" data-name="Trazado 118612" d="M96.8,46.358l22.034,18.288L110.8,69.29,88.762,51Z" fill="#fff"/>
        <path id="Trazado_118613" data-name="Trazado 118613" d="M112.864,37.07l22.04,18.3-8.035,4.638L104.827,41.715Z" fill="#fff"/>
        <path id="Trazado_118614" data-name="Trazado 118614" d="M72.7,60.282,94.725,78.574,86.69,83.217,64.663,64.926Z" fill="#91b3fa"/>
        <path id="Trazado_118615" data-name="Trazado 118615" d="M88.762,51,110.8,69.293,102.76,73.93,80.727,55.638Z" fill="#91b3fa"/>
        <path id="Trazado_118616" data-name="Trazado 118616" d="M56.48,69.654l8.183-4.731L86.69,83.215l-8.2,4.739Z" fill="#fff"/>
        <path id="Trazado_118617" data-name="Trazado 118617" d="M80.727,55.638,102.76,73.93l-8.035,4.644L72.7,60.282Z" fill="#fff"/>
        <path id="Trazado_118618" data-name="Trazado 118618" d="M142.939,50.725,134.9,55.369h0a3.1,3.1,0,0,0,4.651,2.692h0a6.791,6.791,0,0,0,3.365-5.869Z" fill="#91b3fa"/>
        <path id="Trazado_118619" data-name="Trazado 118619" d="M134.9,55.369l-8.035,4.644h0a3.1,3.1,0,0,0,4.65,2.692h0a6.778,6.778,0,0,0,3.365-5.868Z" fill="#e0e0e0"/>
        <path id="Trazado_118620" data-name="Trazado 118620" d="M126.868,60.013l-8.036,4.633h0a3.1,3.1,0,0,0,4.651,2.692h0a6.78,6.78,0,0,0,3.365-5.869Z" fill="#91b3fa"/>
        <path id="Trazado_118621" data-name="Trazado 118621" d="M118.832,64.646,110.8,69.29h0a3.095,3.095,0,0,0,4.65,2.692h0a6.77,6.77,0,0,0,3.365-5.862Z" fill="#e0e0e0"/>
        <path id="Trazado_118622" data-name="Trazado 118622" d="M110.8,69.293l-8.036,4.63h0a3.1,3.1,0,0,0,4.65,2.692h0a6.774,6.774,0,0,0,3.365-5.868Z" fill="#91b3fa"/>
        <path id="Trazado_118623" data-name="Trazado 118623" d="M102.76,73.923l-8.035,4.638h0a3.1,3.1,0,0,0,4.65,2.692h0a6.791,6.791,0,0,0,3.365-5.869Z" fill="#e0e0e0"/>
        <path id="Trazado_118624" data-name="Trazado 118624" d="M94.725,78.574,86.69,83.217h0a3.095,3.095,0,0,0,4.648,2.691h0A6.727,6.727,0,0,0,94.7,80.04Z" fill="#91b3fa"/>
        <path id="Trazado_118625" data-name="Trazado 118625" d="M142.939,50.725,134.9,55.369h0a3.1,3.1,0,0,0,4.651,2.692h0a6.791,6.791,0,0,0,3.365-5.869Z" opacity="0.2" style="isolation: isolate"/>
        <path id="Trazado_118626" data-name="Trazado 118626" d="M126.868,60.013l-8.036,4.633h0a3.1,3.1,0,0,0,4.651,2.692h0a6.78,6.78,0,0,0,3.365-5.869Z" opacity="0.2" style="isolation: isolate"/>
        <path id="Trazado_118627" data-name="Trazado 118627" d="M110.8,69.293l-8.036,4.63h0a3.1,3.1,0,0,0,4.65,2.692h0a6.774,6.774,0,0,0,3.365-5.868Z" opacity="0.2" style="isolation: isolate"/>
        <path id="Trazado_118628" data-name="Trazado 118628" d="M94.725,78.574,86.69,83.217h0a3.095,3.095,0,0,0,4.648,2.691h0A6.727,6.727,0,0,0,94.7,80.04Z" opacity="0.2" style="isolation: isolate"/>
        <path id="Trazado_118629" data-name="Trazado 118629" d="M86.69,83.217l-8.2,4.712h0a3.1,3.1,0,0,0,4.644,2.692h0a7.118,7.118,0,0,0,3.56-6.171Z" fill="#e0e0e0"/>
        <path id="Trazado_118630" data-name="Trazado 118630" d="M96.058,106.9a19.79,19.79,0,0,0-6.824,2.109A21.811,21.811,0,0,0,78.641,121.2a19.843,19.843,0,0,0-1.124,7.053,33.38,33.38,0,0,1,2.285-6.582,28,28,0,0,1,10.061-11.589A33.737,33.737,0,0,1,96.058,106.9Z" fill="#91b3fa"/>
        <path id="Trazado_118631" data-name="Trazado 118631" d="M89.772,142.138a12.5,12.5,0,0,1-3.842-.673,10.82,10.82,0,0,1-6.34-5.566,12.323,12.323,0,0,1-1.164-3.722,8.741,8.741,0,0,0,.518,4,9.423,9.423,0,0,0,6.8,5.963A8.77,8.77,0,0,0,89.772,142.138Z" fill="#91b3fa"/>
        <path id="Trazado_118632" data-name="Trazado 118632" d="M100.2,120.5a30.545,30.545,0,0,1-.08,5.384,27.253,27.253,0,0,1-3.877,11.4,30.426,30.426,0,0,1-3.223,4.34,16.835,16.835,0,0,0,4.041-3.795,19.587,19.587,0,0,0,4.042-11.872A16.884,16.884,0,0,0,100.2,120.5Z" fill="#91b3fa"/>
        <path id="Trazado_118633" data-name="Trazado 118633" d="M79.105,113.064a18.659,18.659,0,0,0-3.923,5.452,20.565,20.565,0,0,0-1.064,15.163,18.963,18.963,0,0,0,3.13,5.949,32.324,32.324,0,0,1-2.021-6.246,26.447,26.447,0,0,1,1.009-14.409A31.428,31.428,0,0,1,79.105,113.064Z" fill="#91b3fa"/>
        <path id="Trazado_118634" data-name="Trazado 118634" d="M104.813,113.859a10.352,10.352,0,0,0-1.911-5.1,11.066,11.066,0,0,0-11.225-4.556,10.464,10.464,0,0,0-4.92,2.329,14.034,14.034,0,0,1,5.047-1.387,12.18,12.18,0,0,1,10.357,4.2A13.971,13.971,0,0,1,104.813,113.859Z" fill="#91b3fa"/>
        <path id="Trazado_118635" data-name="Trazado 118635" d="M133.679,92.767h0a8.5,8.5,0,0,1,9.225,6.959l3.123,17.5,19.584,13.7-4.375,5.324-18.626-9.786a9.279,9.279,0,0,1-4.582-5.572l-6-20.251Z" fill="#f7ccb1"/>
        <path id="Trazado_118636" data-name="Trazado 118636" d="M140.946,111.571a9.084,9.084,0,0,0,3.954-4.152L143.143,99.4a8.5,8.5,0,0,0-9.167-6.629l-.3.034-1.656,7.881,2.585,11.6A9.137,9.137,0,0,0,140.946,111.571Z" fill="#455a64"/>
        <path id="Trazado_118637" data-name="Trazado 118637" d="M140.946,111.571a9.137,9.137,0,0,1-6.339.713l.673,2.86c2.43.546,8.654.364,10.28-4.778l-.673-2.961A9.073,9.073,0,0,1,140.946,111.571Z" fill="#455a64"/>
        <path id="Trazado_118638" data-name="Trazado 118638" d="M140.946,111.571a9.084,9.084,0,0,0,3.954-4.152L143.143,99.4a8.5,8.5,0,0,0-9.167-6.629l-.3.034-1.656,7.881,2.585,11.6A9.137,9.137,0,0,0,140.946,111.571Z" fill="#fff" opacity="0.2" style="isolation: isolate"/>
        <path id="Trazado_118639" data-name="Trazado 118639" d="M140.946,111.571a9.137,9.137,0,0,1-6.339.713l.673,2.86c2.43.546,8.654.364,10.28-4.778l-.673-2.961A9.073,9.073,0,0,1,140.946,111.571Z" fill="#fff" opacity="0.5" style="isolation: isolate"/>
        <path id="Trazado_118640" data-name="Trazado 118640" d="M138.013,100.3s-.781-5.956-4.334-7.51c0,0-8.507,2.547-15.56,5.229a81.714,81.714,0,0,0-8.184,3.5c-1.6,1.387-6.2,5.512-8.358,6.622a10.267,10.267,0,0,1-3.365,1.01h0a11.762,11.762,0,0,0-4.187,1.528c-6.473,3.741-11.7,12.787-11.685,20.236,0,4.88,2.284,7.834,5.673,8.245h.155a7.716,7.716,0,0,0,1.608,0c5.887-.055,15.331-.1,19.039-1.164C126.141,132.9,139.762,120.36,138.013,100.3Z" fill="#455a64"/>
        <path id="Trazado_118641" data-name="Trazado 118641" d="M121.5,97.857l2.537-4.6,10.21,6.879-4.042,5.424a6.8,6.8,0,0,1-5.478.222,6.967,6.967,0,0,1-3.7-4.146A4.861,4.861,0,0,1,121.5,97.857Z" fill="#f7ccb1"/>
        <path id="Trazado_118642" data-name="Trazado 118642" d="M125,93.891c0,5.546,4.409,8.144,7.1,9.126l2.154-2.887Z" opacity="0.2" style="isolation: isolate"/>
        <path id="Trazado_118643" data-name="Trazado 118643" d="M120.386,88.359a18.739,18.739,0,0,1-.329-6.7,6.326,6.326,0,0,1,4.041-5.008,7.56,7.56,0,0,1,4.557-3.991,20.755,20.755,0,0,1,5.982-.727,28.987,28.987,0,0,1,6.663.371,9.853,9.853,0,0,1,5.707,3.236,9.506,9.506,0,0,1,1.656,7.309,21.367,21.367,0,0,1-2.767,7.154c-4.279.3-8.641.791-12.921,1.1a34.5,34.5,0,0,1-6.562.061A12.214,12.214,0,0,1,120.386,88.359Z" fill="#263238"/>
        <path id="Trazado_118644" data-name="Trazado 118644" d="M146.593,78.1a36.585,36.585,0,0,1-2.1,19.55,7.089,7.089,0,0,1-2.658,3.681c-1.312.761-3.143.64-4.711.4a24.342,24.342,0,0,1-7.49-2.109,10.22,10.22,0,0,1-5.184-5.586,4.5,4.5,0,0,1-4.543-1.784,8.493,8.493,0,0,1-1.474-4.953c0-1.124.209-2.45,1.218-2.941a2.728,2.728,0,0,1,2.874.714,8.541,8.541,0,0,1,2.8,4.2c.74-2.739,1.891-5.384,2.631-8.076a4.69,4.69,0,0,1,1.595-2.846c1.142-.734,2.636-.317,3.964,0A26.034,26.034,0,0,0,146.593,78.1Z" fill="#f7ccb1"/>
        <path id="Trazado_118645" data-name="Trazado 118645" d="M138.625,86.394l3.2,5.377-3.809.72Z" fill="#f7a36f"/>
        <path id="Trazado_118646" data-name="Trazado 118646" d="M134.337,94.343l2.895,1.4a1.885,1.885,0,0,1-2.2.627A1.712,1.712,0,0,1,134.337,94.343Z" fill="#f28f8f"/>
        <path id="Trazado_118647" data-name="Trazado 118647" d="M134.337,94.343l2.895,1.4a1.885,1.885,0,0,1-2.2.627A1.712,1.712,0,0,1,134.337,94.343Z" opacity="0.3" style="isolation: isolate"/>
        <path id="Trazado_118648" data-name="Trazado 118648" d="M136.04,96.469a1.743,1.743,0,0,1-1-.094,1.534,1.534,0,0,1-.774-1.528,1.857,1.857,0,0,1,1.142.4A1.833,1.833,0,0,1,136.04,96.469Z" fill="#f28f8f"/>
        <path id="Trazado_118649" data-name="Trazado 118649" d="M133.107,86.611a1.1,1.1,0,1,0,1.2-.982h0a1.1,1.1,0,0,0-1.2.98Z" fill="#263238"/>
        <path id="Trazado_118650" data-name="Trazado 118650" d="M142.286,87.174a.994.994,0,1,0,.992-1,.994.994,0,0,0-.992,1Z" fill="#263238"/>
        <path id="Trazado_118651" data-name="Trazado 118651" d="M143.78,82.948l2.248,1.911a1.562,1.562,0,0,0-.3-1.757A1.851,1.851,0,0,0,143.78,82.948Z" fill="#263238"/>
        <path id="Trazado_118652" data-name="Trazado 118652" d="M134.829,82.8l-2.578,1.426a1.562,1.562,0,0,1,.639-1.663A1.859,1.859,0,0,1,134.829,82.8Z" fill="#263238"/>
        <path id="Trazado_118653" data-name="Trazado 118653" d="M148.639,80.31a89.4,89.4,0,0,1-28.266,0c.439-11.44,5.586-15.189,14.47-15.189S148.74,69.885,148.639,80.31Z" fill="#455a64"/>
        <path id="Trazado_118654" data-name="Trazado 118654" d="M148.639,80.31c0-4.381-.848-7.746-2.51-10.192l-3.722-1.043a12.289,12.289,0,0,0-5.384-.283l-3.547.593a5.645,5.645,0,0,0-4.711,4.92l-.814,6.9h0A89.939,89.939,0,0,0,148.639,80.31Z" fill="#455a64"/>
        <path id="Trazado_118655" data-name="Trazado 118655" d="M148.639,80.31c0-4.381-.848-7.746-2.51-10.192l-3.722-1.043a12.289,12.289,0,0,0-5.384-.283l-3.547.593a5.645,5.645,0,0,0-4.711,4.92l-.814,6.9h0A89.939,89.939,0,0,0,148.639,80.31Z" fill="#fff" opacity="0.29" style="isolation: isolate"/>
        <path id="Trazado_118656" data-name="Trazado 118656" d="M149.75,70.68h-1.642a13.7,13.7,0,0,0-1.582.06,21.834,21.834,0,0,0-12.976,5.5l-5.535,4.966a89.81,89.81,0,0,0,20.621-.9l3.6-4.367a3.231,3.231,0,0,0-2.49-5.263Z" fill="#455a64"/>
        <path id="Trazado_118657" data-name="Trazado 118657" d="M149.75,70.68h-1.642a13.7,13.7,0,0,0-1.582.06,21.834,21.834,0,0,0-12.976,5.5l-5.535,4.966a89.81,89.81,0,0,0,20.621-.9l3.6-4.367a3.231,3.231,0,0,0-2.49-5.263Z" opacity="0.2" style="isolation: isolate"/>
        <path id="Trazado_118658" data-name="Trazado 118658" d="M178.2,131.841,153.1,146.418l-25.25-14.576,25.082-14.585Z" fill="#91b3fa"/>
        <g id="Grupo_55895" data-name="Grupo 55895" opacity="0.3">
          <path id="Trazado_118659" data-name="Trazado 118659" d="M178.2,131.841,153.1,146.418l-25.25-14.576,25.082-14.585Z" fill="#fff"/>
        </g>
        <path id="Trazado_118660" data-name="Trazado 118660" d="M178.2,131.841l-.074,25.519-25.089,14.577.074-25.52Z" fill="#91b3fa"/>
        <g id="Grupo_55896" data-name="Grupo 55896" opacity="0.1">
          <path id="Trazado_118661" data-name="Trazado 118661" d="M178.2,131.841l-.074,25.519-25.089,14.577.074-25.52Z" fill="#fff"/>
        </g>
        <path id="Trazado_118662" data-name="Trazado 118662" d="M153.1,146.418l-.074,25.52-25.25-14.577.074-25.519Z" fill="#91b3fa"/>
        <path id="Trazado_118663" data-name="Trazado 118663" d="M157.475,129.97l8.493-5.189-4.334-2.5-8.526,5.088Z" fill="#e0e0e0"/>
        <path id="Trazado_118664" data-name="Trazado 118664" d="M157.475,129.97l-4.367-2.6-8.661-5.169-4.321,2.511,8.61,5.262,4.374,2.672,11.548,7.067,4.631-2.692Z" fill="#fff"/>
        <path id="Trazado_118665" data-name="Trazado 118665" d="M148.733,129.97l-11.861,7.074,4.644,2.685,11.588-7.087Z" fill="#e0e0e0"/>
        <path id="Trazado_118666" data-name="Trazado 118666" d="M169.286,137.017l-4.63,2.692.04.02.068,25.391,4.684-2.719-.068-25.339Z" fill="#e0e0e0"/>
        <path id="Trazado_118667" data-name="Trazado 118667" d="M141.518,139.729l-4.643-2.685-.041.02-.073,25.486,4.683,2.7.074-25.519Z" fill="#fff"/>
        <path id="Trazado_118668" data-name="Trazado 118668" d="M141.518,139.729l-4.643-2.685-.041.02-.073,25.486,4.683,2.7.074-25.519Z" opacity="0.2" style="isolation: isolate"/>
        <path id="Trazado_118669" data-name="Trazado 118669" d="M153.094,137.683l-5.249,3.21,5.249,3.035,5.236-3.041Z" fill="#fff"/>
        <path id="Trazado_118670" data-name="Trazado 118670" d="M103.427,136.8s1.958-28.5,2.372-30.285c1.568-6.776,11.394-6.292,12.329.6.383,2.811-4.1,30.129-4.1,30.129l16.259,17.2,3.291,3.021,2.935-.592,6.689.633a.821.821,0,0,1,.727.673h0a.826.826,0,0,1-.606.966l-4.422,1.077,3.191,2.181a3.861,3.861,0,0,0,1.487.615l5,.949a.915.915,0,0,1,.747.966h0a.921.921,0,0,1-.592.808l-2.692,1a12.938,12.938,0,0,1-10.768-.768l-5.787-3.216a14.353,14.353,0,0,1-2.389-1.615l-20.752-17.165A8.124,8.124,0,0,1,103.427,136.8Z" fill="#f7ccb1"/>
        <path id="Trazado_118671" data-name="Trazado 118671" d="M117.863,125.879l2.08-15.479a8.092,8.092,0,0,0-16.064-1.966h0l-1.734,15.8a19.358,19.358,0,0,0,15.722,1.628Z" fill="#455a64"/>
        <path id="Trazado_118672" data-name="Trazado 118672" d="M117.863,125.879l2.08-15.479a8.092,8.092,0,0,0-16.064-1.966h0l-1.734,15.8a19.358,19.358,0,0,0,15.722,1.628Z" fill="#fff" opacity="0.2" style="isolation: isolate"/>
        <path id="Trazado_118673" data-name="Trazado 118673" d="M109.511,126.706a19.8,19.8,0,0,1-7.4-2.46l-.4,3.641c6.993,5.384,15.566,2.06,15.566,2.06l.553-4.072A19.738,19.738,0,0,1,109.511,126.706Z" fill="#455a64"/>
        <path id="Trazado_118674" data-name="Trazado 118674" d="M109.511,126.706a19.8,19.8,0,0,1-7.4-2.46l-.4,3.641c6.993,5.384,15.566,2.06,15.566,2.06l.553-4.072A19.738,19.738,0,0,1,109.511,126.706Z" fill="#fff" opacity="0.5" style="isolation: isolate"/>
      </g>
      <g id="freepik--speech-bubble--inject-45">
        <path id="Trazado_118552" data-name="Trazado 118552" d="M349.161,21.741l89.266,51.62a9.974,9.974,0,0,1,4.982,8.593v89.76A9.8,9.8,0,0,1,428.5,179.78l-37.274-22.121-.807,1.3-.119.119h-.088c-1.491.969-4.012,2.342-4.578,2.644h0a.537.537,0,0,1-.661-.328l-3.25-9.214h0L339.171,128.29a9.918,9.918,0,0,1-4.995-8.6V29.807C334.176,22.651,344.7,19.176,349.161,21.741Z" fill="#57dbd8"/>
        <path id="Trazado_118553" data-name="Trazado 118553" d="M429.6,79.385" fill="none"/>
        <path id="Trazado_118554" data-name="Trazado 118554" d="M390.282,158.959l-.119.119h-.088c-1.492.97-4.012,2.342-4.578,2.644h0a.469.469,0,0,0,.328-.22l3.146-5.1-.626-.357h0l2.772,1.58Z" fill="#fff" opacity="0.2" style="isolation: isolate"/>
        <path id="Trazado_118555" data-name="Trazado 118555" d="M432.256,82.709a10.229,10.229,0,0,0-2.655-3.324h0a9.138,9.138,0,0,0-1.207-.822L339.127,26.93a3.305,3.305,0,0,0-4.951,2.877c0-7.156,10.527-10.631,14.982-8.066l89.267,51.62a9.97,9.97,0,0,1,3.7,3.745Z" fill="#fff" opacity="0.4" style="isolation: isolate"/>
        <path id="Trazado_118556" data-name="Trazado 118556" d="M433.4,176.927V87.182a9.483,9.483,0,0,0-1.119-4.473l9.87-5.607a9.95,9.95,0,0,1,1.283,4.86v89.761a9.8,9.8,0,0,1-14.91,8.066,3.3,3.3,0,0,0,4.876-2.864Z" fill="#fff" opacity="0.2" style="isolation: isolate"/>
        <path id="Trazado_118557" data-name="Trazado 118557" d="M356.041,63.8,407.853,93.71l-3.12,35.527c-.178,2.162-1.848,2.981-3.831,1.789l-39.694-22.971a7.269,7.269,0,0,1-2.043-1.864l.075,1.016a15.246,15.246,0,0,0,6.859,11.182l1.745,1a6.815,6.815,0,0,1,1.862.747,9.087,9.087,0,0,1,1.864,1.491l18.593,10.734a6.186,6.186,0,0,1,1.864.745,9.629,9.629,0,0,1,1.864,1.4l3.95,2.28a3.369,3.369,0,0,1,1.492,2.655c0,.967-.7,1.355-1.492.881l-.313-.178a10.551,10.551,0,0,1,.688,3.681c0,3.938-2.789,5.533-6.233,3.55a13.7,13.7,0,0,1-6.2-10.723,5.489,5.489,0,0,1,.716-2.878l-11.36-6.561a11.061,11.061,0,0,1,.685,3.684c0,3.95-2.8,5.532-6.233,3.549a13.6,13.6,0,0,1-6.186-10.721,5.376,5.376,0,0,1,.789-2.983,22.486,22.486,0,0,1-8.082-14.909l-3.525-47.714a6.761,6.761,0,0,0-3.056-4.964l-6.412-3.712A3.378,3.378,0,0,1,341.63,46.8c0-.985.7-1.373,1.491-.882l6.412,3.7a13.59,13.59,0,0,1,6.1,9.946Zm27.122,50.56.073-28.448a4.592,4.592,0,0,0-2.071-3.594c-1.148-.661-2.073-.134-2.089,1.192L379,111.96a4.6,4.6,0,0,0,2.071,3.549c1.147.661,2.088.119,2.088-1.192m8.945,5.189.075-28.449a4.588,4.588,0,0,0-2.073-3.593c-1.148-.661-2.086-.135-2.086,1.192v28.45A4.565,4.565,0,0,0,390.1,120.7c1.15.661,2.073.119,2.088-1.192m8.946,5.189.079-28.449a4.593,4.593,0,0,0-2.1-3.549c-1.148-.661-2.089-.135-2.089,1.192l-.075,28.448a4.558,4.558,0,0,0,2.164,3.609c1.132.661,2.071.119,2.071-1.192m-26.952-15.568L374.3,80.74a4.471,4.471,0,0,0-2.074-3.594c-1.148-.661-2.073-.134-2.086,1.192v28.451a4.608,4.608,0,0,0,2.071,3.593c1.148.661,2.089.119,2.089-1.192M365.352,104l.091-28.45a4.627,4.627,0,0,0-2.074-3.591c-1.148-.661-2.086-.135-2.086,1.192l-.091,28.448a4.564,4.564,0,0,0,2.074,3.578c1.148.672,2.086.134,2.086-1.177m4.475,20.649c-1.282-.744-2.327-.147-2.342,1.322A5.161,5.161,0,0,0,369.812,130c1.3.744,2.326.149,2.339-1.322a5.112,5.112,0,0,0-2.324-4.028m22.365,12.929c-1.282-.747-2.326-.15-2.326,1.322a5.1,5.1,0,0,0,2.311,4.025c1.282.745,2.34.15,2.34-1.342a5.133,5.133,0,0,0-2.325-4.01" fill="#fff"/>
        <path id="Trazado_118558" data-name="Trazado 118558" d="M422.683,94.472a4.5,4.5,0,0,1,1.6,1.67c.881,1.492.881,3.162,0,3.653l-13.167,7.456a1.582,1.582,0,0,1-1.6-.165,4.659,4.659,0,0,1-1.6-1.67l-6.44-11.182c-.894-1.491-.881-3.161,0-3.668a1.608,1.608,0,0,1,1.6.165,4.651,4.651,0,0,1,1.6,1.67l4.876,8.5,11.569-6.59A1.587,1.587,0,0,1,422.683,94.472Z" fill="#fff"/>
        <path id="Trazado_118559" data-name="Trazado 118559" d="M412.9,80.68a34.9,34.9,0,0,1,15.832,27.435c-.028,10.08-7.156,14.136-15.938,9.066a34.828,34.828,0,0,1-15.819-27.419C397.008,79.664,404.134,75.626,412.9,80.68Zm-1.864,26.631L424.2,99.855c.895-.491.895-2.131,0-3.653a4.47,4.47,0,0,0-1.6-1.67,1.579,1.579,0,0,0-1.6-.163l-11.457,6.53-4.86-8.438a4.654,4.654,0,0,0-1.6-1.67,1.617,1.617,0,0,0-1.6-.165c-.881.506-.894,2.132,0,3.668l6.442,11.184a4.67,4.67,0,0,0,1.6,1.667,1.575,1.575,0,0,0,1.6.166" fill="#91b3fa"/>
        <path id="Trazado_118560" data-name="Trazado 118560" d="M412.9,80.68a34.9,34.9,0,0,1,15.832,27.435c-.028,10.08-7.156,14.136-15.938,9.066a34.828,34.828,0,0,1-15.819-27.419C397.008,79.664,404.134,75.626,412.9,80.68Zm-1.864,26.631L424.2,99.855c.895-.491.895-2.131,0-3.653a4.47,4.47,0,0,0-1.6-1.67,1.579,1.579,0,0,0-1.6-.163l-11.457,6.53-4.86-8.438a4.654,4.654,0,0,0-1.6-1.67,1.617,1.617,0,0,0-1.6-.165c-.881.506-.894,2.132,0,3.668l6.442,11.184a4.67,4.67,0,0,0,1.6,1.667,1.575,1.575,0,0,0,1.6.166" fill="#fff" opacity="0.3" style="isolation: isolate"/>
      </g>
      <g id="Grupo_53715" data-name="Grupo 53715">
        <circle id="Elipse_4025" data-name="Elipse 4025" cx="27.181" cy="27.181" r="27.181" transform="translate(166.224 159.02)" fill="#d5436d"/>
        <circle id="Elipse_4026" data-name="Elipse 4026" cx="24.843" cy="24.843" r="24.843" transform="translate(168.563 161.359)" fill="#efedee"/>
        <circle id="Elipse_4027" data-name="Elipse 4027" cx="20.703" cy="20.703" r="20.703" transform="translate(172.703 165.499)" fill="#57db69"/>
        <g id="Grupo_53714" data-name="Grupo 53714">
          <g id="Grupo_53712" data-name="Grupo 53712">
            <path id="Trazado_100439" data-name="Trazado 100439" d="M191.78,201.227h-6.732V199.76l2.98-3.275a6.129,6.129,0,0,0,.878-1.213,2.038,2.038,0,0,0,.277-.925,1.427,1.427,0,0,0-.253-.9.973.973,0,0,0-.813-.33.912.912,0,0,0-.813.43,1.925,1.925,0,0,0-.289,1.1h-2.2l-.012-.041a3.014,3.014,0,0,1,.883-2.28,3.264,3.264,0,0,1,2.439-.936,3.522,3.522,0,0,1,2.456.783,2.761,2.761,0,0,1,.866,2.156,2.835,2.835,0,0,1-.478,1.625,20.131,20.131,0,0,1-1.755,2.091l-1.178,1.414.012.035h3.74v1.732Z" fill="#fff"/>
            <path id="Trazado_100440" data-name="Trazado 100440" d="M198.824,197.44h.978v1.743h-.978v2.044h-2.25v-2.044h-3.851l-.136-1.384,3.987-6.243v-.018h2.25v5.9Zm-4.305,0h2.055v-3.016l-.041-.006-.247.5Z" fill="#fff"/>
          </g>
          <g id="Grupo_53713" data-name="Grupo 53713">
            <path id="Trazado_100441" data-name="Trazado 100441" d="M193.406,171.171A13.823,13.823,0,0,0,183.858,195a5.372,5.372,0,0,1,.13-1.3,12.824,12.824,0,1,1,16.126,2.226,5.144,5.144,0,0,1,.148,1.084,13.829,13.829,0,0,0-6.856-25.839Z" fill="#fff"/>
          </g>
        </g>
        <path id="Trazado_100442" data-name="Trazado 100442" d="M211.853,184.718c-1.5.536-3,.977-4.5,1.425l-2.262.63-2.267.56c-.754.182-1.5.447-2.25.689a6.184,6.184,0,0,1-2.3.265,10.713,10.713,0,0,1-2.374-.448,8.61,8.61,0,0,1-2.45-1.184l-.047-.471a8.5,8.5,0,0,1,2.15-1.667,10.67,10.67,0,0,1,2.226-.93,6.1,6.1,0,0,1,2.3-.218c.783.076,1.572.182,2.344.206l2.332.077,2.339.147c1.56.129,3.127.247,4.7.453Z" fill="#fff"/>
        <path id="Trazado_100443" data-name="Trazado 100443" d="M193.582,171.442c.277,1.26.489,2.527.707,3.787l.289,1.9.235,1.9c.077.63.218,1.261.336,1.9a5.538,5.538,0,0,1,.018,1.9,9.6,9.6,0,0,1-.518,1.9,7.322,7.322,0,0,1-1.072,1.9h-.354a7.132,7.132,0,0,1-1.072-1.9,9.381,9.381,0,0,1-.518-1.9,5.538,5.538,0,0,1,.018-1.9c.117-.631.259-1.261.335-1.9l.236-1.9.289-1.9c.217-1.26.429-2.527.706-3.787Z" fill="#fff"/>
      </g>
      <g id="Grupo_53745" data-name="Grupo 53745">
        <path id="Trazado_100455" data-name="Trazado 100455" d="M305.258,202.408l31.567,8.454,23.112-23.1-8.461-31.574-31.567-8.454L296.8,170.835Z" fill="#fff199"/>
        <path id="Trazado_100456" data-name="Trazado 100456" d="M305.258,202.408,296.8,170.835l31.567,8.461,8.454,31.566Z" fill="#ffd03e"/>
        <path id="Trazado_100457" data-name="Trazado 100457" d="M320.769,204.185l-.817-3.045,11.8,3.21.8,2.995Z" fill="#241f41"/>
        <path id="Trazado_100458" data-name="Trazado 100458" d="M315.754,202.881l-.817-3.045L319.15,201l.8,2.995Z" fill="#fff"/>
        <path id="Trazado_100459" data-name="Trazado 100459" d="M320.146,195.079c-4.041,3.367-12.982,2.694-17.861-3.8l2.98,11.126,31.567,8.461L328.371,179.3l-6.133-1.641C324.265,183.523,324.43,191.511,320.146,195.079Z" fill="#ff911a" opacity="0.1" style="isolation: isolate"/>
        <path id="Trazado_100460" data-name="Trazado 100460" d="M359.937,187.757l-23.112,23.1L328.371,179.3l23.105-23.113Z" fill="#ffdf60"/>
        <path id="Trazado_100461" data-name="Trazado 100461" d="M345.1,177.139l-4.227,4.227-3.067-11.513,4.234-4.227Z" fill="#241f41"/>
        <path id="Trazado_100462" data-name="Trazado 100462" d="M311.391,156.248l-4.234,4.227,30.649,9.378,4.234-4.227Z" fill="#544f80"/>
        <path id="Trazado_100463" data-name="Trazado 100463" d="M328.363,179.3l8.462,31.567,23.112-23.113-4.9-18.291c-.072,8.691-6.3,14.164-11.485,14.057-6.477-.136-8.9-10.5-8.9-10.5Z" fill="#ff911a" opacity="0.1" style="isolation: isolate"/>
        <path id="Trazado_100464" data-name="Trazado 100464" d="M351.476,156.191,328.363,179.3,296.8,170.842l1.891-1.892c38.774,10.482,47.293-14.235,47.293-14.235Z" fill="#ff911a" opacity="0.1" style="isolation: isolate"/>
        <g id="Grupo_53744" data-name="Grupo 53744">
          <path id="Trazado_100465" data-name="Trazado 100465" d="M347.521,146.562a.987.987,0,0,0-1.211.687,1.025,1.025,0,0,0,.022.588.668.668,0,0,0,.071.165l1.534,2.708h0a.988.988,0,0,0,1.719-.975l-1.533-2.708a1,1,0,0,0-.6-.465Z" fill="#8334e5"/>
          <path id="Trazado_100466" data-name="Trazado 100466" d="M363.239,151.224a.989.989,0,0,0-1.346-.378l-2.708,1.533a.99.99,0,0,0-.444,1.189.652.652,0,0,0,.071.165.993.993,0,0,0,1.347.373l2.708-1.533.006,0a.986.986,0,0,0,.367-1.344Z" fill="#8334e5"/>
          <path id="Trazado_100467" data-name="Trazado 100467" d="M360.682,158.354a.987.987,0,0,0-.752.093.976.976,0,0,0-.466.6,1.025,1.025,0,0,0,.022.588.98.98,0,0,0,.666.63l2.995.831a.99.99,0,0,0,.53-1.906Z" fill="#8334e5"/>
          <path id="Trazado_100468" data-name="Trazado 100468" d="M353.9,149.22a1.021,1.021,0,0,0,.021.587.981.981,0,0,0,.666.631.989.989,0,0,0,1.218-.7l.831-2.995a.988.988,0,0,0-1.44-1.125.968.968,0,0,0-.465.6h0Z" fill="#8334e5"/>
        </g>
      </g>
    </g>
  </g>
</svg>
