<svg xmlns="http://www.w3.org/2000/svg" width="138" height="138" viewBox="0 0 138 138">
  <g id="Grupo_56626" data-name="Grupo 56626" transform="translate(-1072 -8043)">
    <circle id="Elipse_4252" data-name="Elipse 4252" cx="69" cy="69" r="69" transform="translate(1072 8043)" fill="#fff"/>
    <g id="Grupo_56499" data-name="Grupo 56499" transform="translate(740.905 7721.463)">
      <g id="Grupo_56512" data-name="Grupo 56512" transform="translate(341.02 349.715)">
        <g id="Grupo_56506" data-name="Grupo 56506" transform="translate(0 11.34)">
          <g id="Grupo_56502" data-name="Grupo 56502" transform="translate(30.783)">
            <g id="Grupo_56499-2" data-name="Grupo 56499" transform="translate(3.388)">
              <path id="Rectángulo_29749" data-name="Rectángulo 29749" d="M1.266,0h77.8a1.263,1.263,0,0,1,1.263,1.263V51.849a1.265,1.265,0,0,1-1.265,1.265H1.263A1.263,1.263,0,0,1,0,51.851V1.266A1.266,1.266,0,0,1,1.266,0Z" fill="#afafaf"/>
            </g>
            <g id="Grupo_56500" data-name="Grupo 56500">
              <path id="Rectángulo_29750" data-name="Rectángulo 29750" d="M1.266,0h77.8A1.263,1.263,0,0,1,80.33,1.263V51.85a1.264,1.264,0,0,1-1.264,1.264H1.263A1.263,1.263,0,0,1,0,51.851V1.266A1.266,1.266,0,0,1,1.266,0Z" fill="#afafaf"/>
            </g>
            <g id="Grupo_56501" data-name="Grupo 56501" transform="translate(2.917 2.753)">
              <path id="Rectángulo_29751" data-name="Rectángulo 29751" d="M1.248,0H73.243a1.248,1.248,0,0,1,1.248,1.248V46.361a1.247,1.247,0,0,1-1.247,1.247h-72A1.248,1.248,0,0,1,0,46.36V1.248A1.248,1.248,0,0,1,1.248,0Z" fill="#17283d"/>
            </g>
          </g>
          <g id="Grupo_56505" data-name="Grupo 56505" transform="translate(0 53.114)">
            <g id="Grupo_56503" data-name="Grupo 56503" transform="translate(0.768)">
              <path id="Trazado_119932" data-name="Trazado 119932" d="M398.9,394.634H341.559v1.04a7.892,7.892,0,0,0,7.894,7.89H447.4a7.892,7.892,0,0,0,7.894-7.89v-1.04Z" transform="translate(-341.559 -394.634)" fill="#636363"/>
            </g>
            <g id="Grupo_56504" data-name="Grupo 56504">
              <path id="Trazado_119933" data-name="Trazado 119933" d="M426.11,394.634v1.037a7.9,7.9,0,0,1-7.892,7.894h-69.3a7.9,7.9,0,0,1-7.894-7.894v-1.037h35.56a3.26,3.26,0,0,0,3.274,3.251H387.3a3.242,3.242,0,0,0,3.254-3.251Z" transform="translate(-341.02 -394.634)" fill="#afafaf"/>
            </g>
          </g>
        </g>
        <g id="Grupo_56511" data-name="Grupo 56511" transform="translate(43.37)">
          <g id="Grupo_56510" data-name="Grupo 56510">
            <g id="Grupo_56509" data-name="Grupo 56509">
              <path id="Trazado_119934" data-name="Trazado 119934" d="M425.121,367.336l-26.787-17.944-26.872,18.1v.02l26.8,18.111Z" transform="translate(-371.463 -349.392)" fill="#f06b5e"/>
              <g id="Grupo_56507" data-name="Grupo 56507" transform="translate(8.068 4.791)">
                <path id="Trazado_119935" data-name="Trazado 119935" d="M395.908,352.755H377.126v39.7l1.895,2,2.273-2.41,2.275,2.41,2.277-2.41,2.276,2.41,2.273-2.41,2.277,2.41,2.275-2.41.96,1.02,1.316,1.39,2.275-2.41,2.276,2.41,2.275-2.41,2.276,2.41,2.276-2.41,2.277,2.41,2.275-2.41,1.672,1.772V352.755Z" transform="translate(-377.126 -352.755)" fill="#ebf0f5"/>
              </g>
              <g id="Grupo_56508" data-name="Grupo 56508" transform="translate(9.864 8.2)">
                <path id="Trazado_119936" data-name="Trazado 119936" d="M397.251,358.765H401.4v-3.617H383.92v3.617h13.331Z" transform="translate(-376.037 -355.147)" fill="#cc2221"/>
                <path id="Trazado_119937" data-name="Trazado 119937" d="M407.686,359.44h-29.3v3.623h33.241V359.44Z" transform="translate(-378.387 -353.324)" fill="#97b0cc"/>
                <path id="Trazado_119938" data-name="Trazado 119938" d="M403.746,363.948H378.387v3.623h33.241v-3.623h-7.881Z" transform="translate(-378.387 -351.41)" fill="#97b0cc"/>
                <path id="Trazado_119939" data-name="Trazado 119939" d="M403.746,368.417H378.387v3.619h33.241v-3.619h-7.881Z" transform="translate(-378.387 -349.513)" fill="#97b0cc"/>
              </g>
              <path id="Trazado_119940" data-name="Trazado 119940" d="M417.146,398.422V362l-.014-.008-26.855,18.289Z" transform="translate(-363.474 -344.043)" fill="#fe7062"/>
              <path id="Trazado_119941" data-name="Trazado 119941" d="M371.463,362.112v36.363l26.8-18.252Z" transform="translate(-371.463 -343.99)" fill="#fe7062"/>
            </g>
            <path id="Trazado_119942" data-name="Trazado 119942" d="M398.266,374.765l-26.8,18.256v.082h53.672v-.182Z" transform="translate(-371.463 -338.618)" fill="#ed7367"/>
          </g>
        </g>
      </g>
      <g id="Grupo_56513" data-name="Grupo 56513" transform="translate(391.502 362.91)">
        <path id="Trazado_119943" data-name="Trazado 119943" d="M384.377,366.575l4.658-1.631-4.658-1.632-1.632-4.659-1.632,4.659-4.658,1.632,4.658,1.631,1.632,4.658Z" transform="translate(-376.455 -358.653)" fill="#f4cd25"/>
        <path id="Trazado_119944" data-name="Trazado 119944" d="M382.624,364.823l2.328-.817-2.328-.811-.817-2.333-.818,2.333-2.326.811,2.326.817.818,2.33Z" transform="translate(-375.517 -357.715)" fill="#ebb515"/>
      </g>
      <g id="Grupo_56514" data-name="Grupo 56514" transform="translate(436.974 381.866)">
        <path id="Trazado_119945" data-name="Trazado 119945" d="M413.608,377.187l3.076-1.076-3.076-1.078-1.077-3.075-1.077,3.075-3.08,1.078,3.08,1.076,1.077,3.079Z" transform="translate(-408.374 -371.959)" fill="#f4cd25"/>
        <path id="Trazado_119946" data-name="Trazado 119946" d="M412.45,376.028l1.536-.536-1.536-.538-.538-1.537-.54,1.537-1.539.538,1.539.536.54,1.54Z" transform="translate(-407.754 -371.34)" fill="#ebb515"/>
      </g>
      <g id="Grupo_56515" data-name="Grupo 56515" transform="translate(427.089 348.707)">
        <path id="Trazado_119947" data-name="Trazado 119947" d="M410,357.245l5.033-1.764L410,353.721l-1.766-5.038-1.763,5.038-5.033,1.76,5.033,1.764,1.763,5.035Z" transform="translate(-401.435 -348.684)" fill="#f4cd25"/>
        <path id="Trazado_119948" data-name="Trazado 119948" d="M408.1,355.352l2.517-.885-2.517-.884-.881-2.514-.881,2.514-2.517.884,2.517.885.881,2.514Z" transform="translate(-400.422 -347.67)" fill="#ebb515"/>
      </g>
      <g id="Grupo_56516" data-name="Grupo 56516" transform="translate(372.41 348.629)">
        <path id="Trazado_119949" data-name="Trazado 119949" d="M371.465,357.042l4.946-1.732-4.946-1.732-1.733-4.949L368,353.577l-4.946,1.732L368,357.042l1.732,4.947Z" transform="translate(-363.054 -348.629)" fill="#f4cd25"/>
        <path id="Trazado_119950" data-name="Trazado 119950" d="M369.6,355.179l2.471-.865-2.471-.867-.867-2.472-.864,2.472-2.474.867,2.474.865.864,2.474Z" transform="translate(-362.058 -347.633)" fill="#ebb515"/>
      </g>
      <g id="Grupo_56517" data-name="Grupo 56517" transform="translate(364.702 374.805)">
        <path id="Trazado_119951" data-name="Trazado 119951" d="M367.509,376.865l5.8-2.029-5.8-2.034-2.034-5.8-2.03,5.8-5.8,2.034,5.8,2.029,2.03,5.8Z" transform="translate(-357.643 -367.003)" fill="#f4cd25"/>
        <path id="Trazado_119952" data-name="Trazado 119952" d="M365.324,374.683l2.9-1.013-2.9-1.016-1.017-2.9-1.016,2.9-2.9,1.016,2.9,1.013,1.016,2.9Z" transform="translate(-356.476 -365.836)" fill="#ebb515"/>
      </g>
      <g id="Grupo_56518" data-name="Grupo 56518" transform="translate(448.763 359.926)">
        <path id="Trazado_119953" data-name="Trazado 119953" d="M421.54,361.449l2.876-1.007-2.876-1.007-1.007-2.876-1.006,2.876-2.877,1.007,2.877,1.007,1.006,2.876Z" transform="translate(-416.649 -356.559)" fill="#f4cd25"/>
        <path id="Trazado_119954" data-name="Trazado 119954" d="M420.456,360.367l1.439-.5-1.439-.5-.5-1.438-.5,1.438-1.437.5,1.437.5.5,1.438Z" transform="translate(-416.07 -355.98)" fill="#ebb515"/>
      </g>
    </g>
  </g>
</svg>
