<svg xmlns="http://www.w3.org/2000/svg" width="604" height="293.626" viewBox="0 0 604 293.626">
  <g id="Grupo_57242" data-name="Grupo 57242" transform="translate(-492 -9459.5)">
    <g id="Grupo_56650" data-name="Grupo 56650" transform="translate(309.073 9390.567)">
      <rect id="Rectángulo_29805" data-name="Rectángulo 29805" width="51.995" height="200.655" transform="translate(182.927 161.433)" fill="#dae4fa"/>
      <rect id="Rectángulo_29806" data-name="Rectángulo 29806" width="51.995" height="176.074" transform="translate(525.531 176.091)" fill="#57dbd8"/>
      <line id="Línea_575" data-name="Línea 575" x2="272.373" transform="translate(244.179 186.751)" fill="none" stroke="#1a0f91" stroke-linecap="round" stroke-miterlimit="10" stroke-width="2"/>
      <line id="Línea_576" data-name="Línea 576" x2="272.373" transform="translate(244.179 238.029)" fill="none" stroke="#1a0f91" stroke-linecap="round" stroke-miterlimit="10" stroke-width="2"/>
      <line id="Línea_577" data-name="Línea 577" x2="272.373" transform="translate(244.179 340.585)" fill="none" stroke="#1a0f91" stroke-linecap="round" stroke-miterlimit="10" stroke-width="2"/>
      <rect id="Rectángulo_29807" data-name="Rectángulo 29807" width="143.577" height="60.26" rx="15.418" transform="translate(643.35 233.152)" fill="#fe7062"/>
      <path id="Trazado_121046" data-name="Trazado 121046" d="M-45.72-9.824a13.666,13.666,0,0,1-5.442-2.641,5.047,5.047,0,0,1-1.7-3.867,5.331,5.331,0,0,1,2.081-4.306,8.272,8.272,0,0,1,5.411-1.7,9.029,9.029,0,0,1,4.049.878,6.658,6.658,0,0,1,2.755,2.422,6.193,6.193,0,0,1,.976,3.375h-2.921a4.03,4.03,0,0,0-1.271-3.152,5.17,5.17,0,0,0-3.587-1.147,5.294,5.294,0,0,0-3.353.948,3.162,3.162,0,0,0-1.2,2.631A2.844,2.844,0,0,0-48.786-14.1,11.209,11.209,0,0,0-44.9-12.4a18.05,18.05,0,0,1,4.3,1.7,6.523,6.523,0,0,1,2.3,2.172A5.544,5.544,0,0,1-37.547-5.6a5.149,5.149,0,0,1-2.089,4.291A8.906,8.906,0,0,1-45.221.3a10.359,10.359,0,0,1-4.238-.87,7.133,7.133,0,0,1-3.035-2.384,5.818,5.818,0,0,1-1.067-3.436h2.921a3.8,3.8,0,0,0,1.476,3.156,6.214,6.214,0,0,0,3.943,1.158,5.712,5.712,0,0,0,3.527-.938A3.048,3.048,0,0,0-40.468-5.57,2.993,2.993,0,0,0-41.6-8.075,13.088,13.088,0,0,0-45.72-9.824ZM-27.466.3a7.156,7.156,0,0,1-5.419-2.187,8.118,8.118,0,0,1-2.089-5.85V-8.25a9.828,9.828,0,0,1,.931-4.352,7.262,7.262,0,0,1,2.6-3,6.546,6.546,0,0,1,3.625-1.082,6.134,6.134,0,0,1,4.965,2.1,9.11,9.11,0,0,1,1.771,6.024v1.166h-11.1a5.822,5.822,0,0,0,1.415,3.913,4.449,4.449,0,0,0,3.444,1.491A4.877,4.877,0,0,0-24.8-2.588a6.313,6.313,0,0,0,1.8-1.6l1.71,1.332A6.878,6.878,0,0,1-27.466.3Zm-.348-14.683a3.735,3.735,0,0,0-2.846,1.234,6,6,0,0,0-1.423,3.459h8.2V-9.9a5.334,5.334,0,0,0-1.15-3.307A3.517,3.517,0,0,0-27.814-14.38Zm17.892.515a8.392,8.392,0,0,0-1.377-.106,3.69,3.69,0,0,0-3.739,2.346V0h-2.8V-16.378h2.725l.045,1.892a4.36,4.36,0,0,1,3.905-2.195,2.861,2.861,0,0,1,1.241.212ZM-1.673-3.8,2.384-16.378H5.245L-.628,0H-2.762L-8.7-16.378h2.861ZM10.982,0h-2.8V-16.378h2.8ZM7.954-20.722a1.672,1.672,0,0,1,.416-1.15A1.563,1.563,0,0,1,9.6-22.342a1.587,1.587,0,0,1,1.241.469,1.654,1.654,0,0,1,.424,1.15,1.6,1.6,0,0,1-.424,1.135,1.616,1.616,0,0,1-1.241.454,1.591,1.591,0,0,1-1.234-.454A1.616,1.616,0,0,1,7.954-20.722ZM22.031-1.983a4.034,4.034,0,0,0,2.619-.908,3.2,3.2,0,0,0,1.241-2.271H28.54a5.078,5.078,0,0,1-.969,2.679A6.38,6.38,0,0,1,25.188-.454,6.879,6.879,0,0,1,22.031.3,6.747,6.747,0,0,1,16.711-1.93a8.892,8.892,0,0,1-1.975-6.108v-.469a9.86,9.86,0,0,1,.878-4.253,6.687,6.687,0,0,1,2.52-2.891,7.159,7.159,0,0,1,3.883-1.029,6.568,6.568,0,0,1,4.579,1.65,5.9,5.9,0,0,1,1.945,4.284H25.891a3.859,3.859,0,0,0-1.2-2.611,3.743,3.743,0,0,0-2.672-1.022,3.919,3.919,0,0,0-3.307,1.536A7.215,7.215,0,0,0,17.536-8.4v.53A7.072,7.072,0,0,0,18.7-3.512,3.938,3.938,0,0,0,22.031-1.983ZM34.731,0h-2.8V-16.378h2.8ZM31.7-20.722a1.672,1.672,0,0,1,.416-1.15,1.563,1.563,0,0,1,1.234-.469,1.587,1.587,0,0,1,1.241.469,1.654,1.654,0,0,1,.424,1.15,1.6,1.6,0,0,1-.424,1.135,1.616,1.616,0,0,1-1.241.454,1.591,1.591,0,0,1-1.234-.454A1.616,1.616,0,0,1,31.7-20.722ZM38.47-8.34a9.674,9.674,0,0,1,.946-4.329,7.057,7.057,0,0,1,2.634-2.967A7.17,7.17,0,0,1,45.9-16.681a6.907,6.907,0,0,1,5.411,2.316A8.91,8.91,0,0,1,53.38-8.2v.2a9.758,9.758,0,0,1-.916,4.291A6.954,6.954,0,0,1,49.845-.757,7.252,7.252,0,0,1,45.932.3a6.89,6.89,0,0,1-5.4-2.316,8.865,8.865,0,0,1-2.066-6.13Zm2.815.333a7.007,7.007,0,0,0,1.264,4.375,4.045,4.045,0,0,0,3.383,1.65,4.021,4.021,0,0,0,3.391-1.673A7.662,7.662,0,0,0,50.579-8.34,6.994,6.994,0,0,0,49.3-12.707a4.066,4.066,0,0,0-3.4-1.673,4.021,4.021,0,0,0-3.345,1.65A7.6,7.6,0,0,0,41.285-8.007Z" transform="translate(543.486 261.805) rotate(90)" fill="#1a0f91"/>
      <path id="Trazado_121047" data-name="Trazado 121047" d="M21.8-8.121a9.416,9.416,0,0,1-3,6.267A9.822,9.822,0,0,1,12.094.352,9.019,9.019,0,0,1,4.825-2.9a13.083,13.083,0,0,1-2.733-8.7v-2.461a14.582,14.582,0,0,1,1.274-6.275A9.519,9.519,0,0,1,6.979-24.5a10.058,10.058,0,0,1,5.414-1.45,9.248,9.248,0,0,1,6.539,2.276,9.529,9.529,0,0,1,2.865,6.3H18.4A7.353,7.353,0,0,0,16.5-21.81a5.771,5.771,0,0,0-4.1-1.375,6.038,6.038,0,0,0-5.071,2.393Q5.484-18.4,5.484-13.984V-11.5a11.291,11.291,0,0,0,1.74,6.633,5.623,5.623,0,0,0,4.869,2.463,6.5,6.5,0,0,0,4.315-1.274,7.072,7.072,0,0,0,2-4.438ZM29.426,0H26.174V-27h3.252Zm8.736,0H34.91V-19.02h3.252ZM34.646-24.064A1.941,1.941,0,0,1,35.13-25.4a1.815,1.815,0,0,1,1.433-.545A1.843,1.843,0,0,1,38-25.4a1.921,1.921,0,0,1,.492,1.336A1.857,1.857,0,0,1,38-22.746a1.877,1.877,0,0,1-1.441.527,1.848,1.848,0,0,1-1.433-.527A1.877,1.877,0,0,1,34.646-24.064ZM51.258.352a8.31,8.31,0,0,1-6.293-2.54,9.427,9.427,0,0,1-2.426-6.794v-.6a11.413,11.413,0,0,1,1.081-5.054,8.433,8.433,0,0,1,3.023-3.48,7.6,7.6,0,0,1,4.21-1.257,7.123,7.123,0,0,1,5.766,2.443q2.057,2.443,2.057,7v1.354H45.791a6.761,6.761,0,0,0,1.644,4.544,5.166,5.166,0,0,0,4,1.731,5.664,5.664,0,0,0,2.918-.7,7.332,7.332,0,0,0,2.092-1.863L58.43-3.322A7.987,7.987,0,0,1,51.258.352Zm-.4-17.051a4.338,4.338,0,0,0-3.3,1.433A6.963,6.963,0,0,0,45.9-11.25h9.527V-11.5a6.194,6.194,0,0,0-1.336-3.841A4.084,4.084,0,0,0,50.854-16.7Zm14.66-2.32.105,2.391a6.931,6.931,0,0,1,5.7-2.742q6.029,0,6.082,6.8V0H74.145V-12.586a4.378,4.378,0,0,0-.94-3.041,3.769,3.769,0,0,0-2.874-.984,4.693,4.693,0,0,0-2.777.844,5.73,5.73,0,0,0-1.863,2.215V0H62.438V-19.02Zm21.2-4.605v4.605h3.551v2.514H86.713V-4.7a2.64,2.64,0,0,0,.475,1.716,2,2,0,0,0,1.617.572,7.873,7.873,0,0,0,1.547-.211V0a9.483,9.483,0,0,1-2.5.349A4.05,4.05,0,0,1,84.568-.967a5.664,5.664,0,0,1-1.107-3.744V-16.506H80V-19.02h3.463v-4.605ZM101.953.352a8.31,8.31,0,0,1-6.293-2.54,9.427,9.427,0,0,1-2.426-6.794v-.6a11.413,11.413,0,0,1,1.081-5.054,8.433,8.433,0,0,1,3.023-3.48,7.6,7.6,0,0,1,4.21-1.257,7.123,7.123,0,0,1,5.766,2.443q2.057,2.443,2.057,7v1.354H96.486A6.761,6.761,0,0,0,98.13-4.034a5.166,5.166,0,0,0,4,1.731,5.664,5.664,0,0,0,2.918-.7,7.332,7.332,0,0,0,2.092-1.863l1.986,1.547A7.987,7.987,0,0,1,101.953.352Zm-.4-17.051a4.338,4.338,0,0,0-3.3,1.433,6.963,6.963,0,0,0-1.652,4.017h9.527V-11.5a6.194,6.194,0,0,0-1.336-3.841A4.084,4.084,0,0,0,101.549-16.7Z" transform="translate(656.849 274.488)" fill="#fff"/>
      <path id="Trazado_121041" data-name="Trazado 121041" d="M-54.386-10.187h-9.551v7.811h11.1V0h-14V-22.039h13.85v2.376H-63.937v7.1h9.551Zm14.259,5.843a2.062,2.062,0,0,0-.855-1.763A8.232,8.232,0,0,0-43.965-7.19,14.1,14.1,0,0,1-47.34-8.28a4.8,4.8,0,0,1-1.847-1.514,3.621,3.621,0,0,1-.6-2.089,4.248,4.248,0,0,1,1.7-3.406,6.65,6.65,0,0,1,4.352-1.393,6.843,6.843,0,0,1,4.518,1.438,4.567,4.567,0,0,1,1.733,3.678h-2.815a2.528,2.528,0,0,0-.976-1.983,3.658,3.658,0,0,0-2.46-.833,3.828,3.828,0,0,0-2.392.666,2.1,2.1,0,0,0-.863,1.741,1.7,1.7,0,0,0,.8,1.529,9.871,9.871,0,0,0,2.9.984,15.1,15.1,0,0,1,3.4,1.12,4.957,4.957,0,0,1,1.93,1.567,3.852,3.852,0,0,1,.628,2.233,4.192,4.192,0,0,1-1.756,3.519A7.365,7.365,0,0,1-43.639.3a8.247,8.247,0,0,1-3.481-.7A5.662,5.662,0,0,1-49.49-2.339a4.688,4.688,0,0,1-.855-2.7h2.8a2.9,2.9,0,0,0,1.128,2.233,4.375,4.375,0,0,0,2.778.825,4.516,4.516,0,0,0,2.551-.643A1.977,1.977,0,0,0-40.127-4.344Zm10.248-16v3.966h3.058v2.165H-29.88v10.17a2.273,2.273,0,0,0,.409,1.478,1.72,1.72,0,0,0,1.393.493,6.78,6.78,0,0,0,1.332-.182V0A8.166,8.166,0,0,1-28.9.3,3.487,3.487,0,0,1-31.727-.833a4.877,4.877,0,0,1-.954-3.224V-14.213h-2.982v-2.165h2.982v-3.966Zm14.244,6.479a8.392,8.392,0,0,0-1.377-.106,3.69,3.69,0,0,0-3.739,2.346V0h-2.8V-16.378h2.725l.045,1.892a4.36,4.36,0,0,1,3.905-2.195,2.861,2.861,0,0,1,1.241.212ZM-3.557,0a5.882,5.882,0,0,1-.394-1.726A6.248,6.248,0,0,1-8.613.3a5.781,5.781,0,0,1-3.973-1.37,4.432,4.432,0,0,1-1.552-3.474,4.63,4.63,0,0,1,1.945-3.973A9.17,9.17,0,0,1-6.721-9.93H-4v-1.287a3.145,3.145,0,0,0-.878-2.339,3.528,3.528,0,0,0-2.588-.87,4.083,4.083,0,0,0-2.513.757,2.23,2.23,0,0,0-1.014,1.832H-13.8a3.865,3.865,0,0,1,.87-2.369,5.94,5.94,0,0,1,2.361-1.809A7.944,7.944,0,0,1-7.3-16.681a6.475,6.475,0,0,1,4.435,1.415,5.105,5.105,0,0,1,1.665,3.9V-3.83A9.216,9.216,0,0,0-.621-.242V0ZM-8.2-2.134a4.922,4.922,0,0,0,2.5-.681A4.12,4.12,0,0,0-4-4.586v-3.36H-6.191q-5.146,0-5.146,3.012a2.549,2.549,0,0,0,.878,2.059A3.374,3.374,0,0,0-8.2-2.134Zm15.2-18.209v3.966h3.058v2.165H6.993v10.17A2.273,2.273,0,0,0,7.4-2.566a1.72,1.72,0,0,0,1.393.493,6.78,6.78,0,0,0,1.332-.182V0A8.166,8.166,0,0,1,7.977.3,3.487,3.487,0,0,1,5.146-.833a4.877,4.877,0,0,1-.954-3.224V-14.213H1.211v-2.165H4.193v-3.966ZM20.117.3A7.156,7.156,0,0,1,14.7-1.885a8.118,8.118,0,0,1-2.089-5.85V-8.25A9.828,9.828,0,0,1,13.54-12.6a7.262,7.262,0,0,1,2.6-3,6.546,6.546,0,0,1,3.625-1.082,6.134,6.134,0,0,1,4.965,2.1A9.11,9.11,0,0,1,26.5-8.552v1.166h-11.1a5.822,5.822,0,0,0,1.415,3.913,4.449,4.449,0,0,0,3.444,1.491,4.877,4.877,0,0,0,2.513-.605,6.313,6.313,0,0,0,1.8-1.6l1.71,1.332A6.878,6.878,0,0,1,20.117.3ZM19.769-14.38a3.735,3.735,0,0,0-2.846,1.234A6,6,0,0,0,15.5-9.687h8.2V-9.9a5.334,5.334,0,0,0-1.15-3.307A3.517,3.517,0,0,0,19.769-14.38Zm9.309,6.055a9.626,9.626,0,0,1,1.771-6.093,5.664,5.664,0,0,1,4.692-2.263,5.634,5.634,0,0,1,4.677,2.119l.136-1.816h2.558V-.394a6.663,6.663,0,0,1-1.885,5.01,6.954,6.954,0,0,1-5.063,1.832A8.424,8.424,0,0,1,32.5,5.691,5.967,5.967,0,0,1,29.91,3.618l1.453-1.68a5.476,5.476,0,0,0,4.4,2.225,4.291,4.291,0,0,0,3.186-1.15A4.4,4.4,0,0,0,40.1-.227V-1.635A5.755,5.755,0,0,1,35.511.3a5.594,5.594,0,0,1-4.655-2.316A10.121,10.121,0,0,1,29.078-8.325Zm2.815.318a7.343,7.343,0,0,0,1.135,4.352,3.689,3.689,0,0,0,3.179,1.582A4.1,4.1,0,0,0,40.1-4.48v-7.478a4.15,4.15,0,0,0-3.86-2.346,3.722,3.722,0,0,0-3.194,1.589A8,8,0,0,0,31.893-8.007ZM50.178,0h-2.8V-16.378h2.8ZM47.151-20.722a1.672,1.672,0,0,1,.416-1.15,1.563,1.563,0,0,1,1.234-.469,1.587,1.587,0,0,1,1.241.469,1.654,1.654,0,0,1,.424,1.15,1.6,1.6,0,0,1-.424,1.135,1.616,1.616,0,0,1-1.241.454,1.591,1.591,0,0,1-1.234-.454A1.616,1.616,0,0,1,47.151-20.722ZM64.77,0a5.882,5.882,0,0,1-.394-1.726A6.248,6.248,0,0,1,59.714.3a5.781,5.781,0,0,1-3.973-1.37,4.432,4.432,0,0,1-1.552-3.474,4.63,4.63,0,0,1,1.945-3.973A9.17,9.17,0,0,1,61.606-9.93h2.725v-1.287a3.145,3.145,0,0,0-.878-2.339,3.528,3.528,0,0,0-2.588-.87,4.083,4.083,0,0,0-2.513.757,2.23,2.23,0,0,0-1.014,1.832H54.522a3.865,3.865,0,0,1,.87-2.369,5.94,5.94,0,0,1,2.361-1.809,7.944,7.944,0,0,1,3.277-.666,6.475,6.475,0,0,1,4.435,1.415,5.105,5.105,0,0,1,1.665,3.9V-3.83a9.216,9.216,0,0,0,.575,3.587V0ZM60.123-2.134a4.922,4.922,0,0,0,2.5-.681,4.12,4.12,0,0,0,1.71-1.771v-3.36H62.136q-5.146,0-5.146,3.012a2.549,2.549,0,0,0,.878,2.059A3.374,3.374,0,0,0,60.123-2.134Z" transform="translate(216.968 265.297) rotate(-90)" fill="#1a0f91"/>
      <rect id="Rectángulo_29808" data-name="Rectángulo 29808" width="212.11" height="43.947" rx="16.595" transform="translate(271.413 164.778)" fill="#57dbd8"/>
      <rect id="Rectángulo_29809" data-name="Rectángulo 29809" width="212.11" height="43.947" rx="16.595" transform="translate(271.413 216.056)" fill="#1a0f91"/>
      <line id="Línea_578" data-name="Línea 578" x2="272.373" transform="translate(244.179 289.307)" fill="none" stroke="#1a0f91" stroke-linecap="round" stroke-miterlimit="10" stroke-width="2"/>
      <rect id="Rectángulo_29810" data-name="Rectángulo 29810" width="212.11" height="43.947" rx="16.595" transform="translate(271.413 267.334)" fill="#57dbd8"/>
      <rect id="Rectángulo_29811" data-name="Rectángulo 29811" width="212.11" height="43.947" rx="16.595" transform="translate(271.413 318.612)" fill="#1a0f91"/>
      <path id="Trazado_121042" data-name="Trazado 121042" d="M-51.353-10.783h-3.885V0h-1.585V-10.783H-60.7v-1.3h9.347ZM-45.194,0a3.226,3.226,0,0,1-.216-.946A3.426,3.426,0,0,1-47.966.166a3.17,3.17,0,0,1-2.179-.751A2.43,2.43,0,0,1-51-2.49a2.539,2.539,0,0,1,1.067-2.179,5.029,5.029,0,0,1,3-.776h1.494v-.706a1.725,1.725,0,0,0-.481-1.282,1.935,1.935,0,0,0-1.419-.477,2.239,2.239,0,0,0-1.378.415,1.223,1.223,0,0,0-.556,1h-1.544a2.119,2.119,0,0,1,.477-1.3,3.258,3.258,0,0,1,1.295-.992,4.356,4.356,0,0,1,1.8-.365,3.551,3.551,0,0,1,2.432.776A2.8,2.8,0,0,1-43.9-6.234V-2.1a5.054,5.054,0,0,0,.315,1.967V0Zm-2.548-1.17a2.7,2.7,0,0,0,1.37-.374,2.259,2.259,0,0,0,.938-.971V-4.358h-1.2q-2.822,0-2.822,1.652a1.4,1.4,0,0,0,.481,1.129A1.85,1.85,0,0,0-47.742-1.17ZM-39.823,0h-1.536V-12.75h1.536Zm6.184.166a3.924,3.924,0,0,1-2.972-1.2,4.452,4.452,0,0,1-1.146-3.208v-.282a5.39,5.39,0,0,1,.51-2.386,3.982,3.982,0,0,1,1.428-1.644,3.59,3.59,0,0,1,1.988-.594,3.364,3.364,0,0,1,2.723,1.154,5,5,0,0,1,.971,3.3v.639H-36.22a3.193,3.193,0,0,0,.776,2.146,2.44,2.44,0,0,0,1.888.818,2.675,2.675,0,0,0,1.378-.332,3.462,3.462,0,0,0,.988-.88l.938.73A3.772,3.772,0,0,1-33.639.166Zm-.191-8.052a2.048,2.048,0,0,0-1.561.677,3.288,3.288,0,0,0-.78,1.9h4.5v-.116A2.925,2.925,0,0,0-32.3-7.242,1.928,1.928,0,0,0-33.83-7.886Zm6.923-1.1.05,1.129a3.273,3.273,0,0,1,2.689-1.295q2.847,0,2.872,3.212V0h-1.536V-5.943a2.068,2.068,0,0,0-.444-1.436,1.78,1.78,0,0,0-1.357-.465,2.216,2.216,0,0,0-1.312.4,2.706,2.706,0,0,0-.88,1.046V0H-28.36V-8.981ZM-16.9-11.156v2.175h1.677v1.187H-16.9v5.577a1.247,1.247,0,0,0,.224.81.943.943,0,0,0,.764.27,3.718,3.718,0,0,0,.73-.1V0a4.478,4.478,0,0,1-1.179.165,1.912,1.912,0,0,1-1.552-.623,2.675,2.675,0,0,1-.523-1.768v-5.57h-1.635V-8.981h1.635v-2.175ZM-14-4.574a5.3,5.3,0,0,1,.519-2.374,3.87,3.87,0,0,1,1.444-1.627,3.932,3.932,0,0,1,2.113-.573,3.788,3.788,0,0,1,2.968,1.27A4.886,4.886,0,0,1-5.823-4.5v.108a5.351,5.351,0,0,1-.5,2.353A3.813,3.813,0,0,1-7.761-.415,3.977,3.977,0,0,1-9.907.166,3.778,3.778,0,0,1-12.866-1.1,4.861,4.861,0,0,1-14-4.466Zm1.544.183a3.842,3.842,0,0,0,.693,2.4,2.218,2.218,0,0,0,1.855.9A2.2,2.2,0,0,0-8.048-2a4.2,4.2,0,0,0,.689-2.569,3.836,3.836,0,0,0-.7-2.395,2.23,2.23,0,0,0-1.864-.917,2.205,2.205,0,0,0-1.834.9A4.17,4.17,0,0,0-12.455-4.391Zm14.3-3.5A3.265,3.265,0,0,1,4.5-9.147q2.847,0,2.872,3.212V0H5.84V-5.943A2.068,2.068,0,0,0,5.4-7.379a1.78,1.78,0,0,0-1.357-.465,2.216,2.216,0,0,0-1.312.4A2.706,2.706,0,0,0,1.847-6.4V0H.311V-12.75H1.847ZM15.219-.888A3.262,3.262,0,0,1,12.588.166,2.792,2.792,0,0,1,10.4-.668a3.611,3.611,0,0,1-.76-2.469V-8.981h1.536v5.8q0,2.042,1.66,2.042a2.3,2.3,0,0,0,2.341-1.312V-8.981h1.536V0H15.253ZM20.49-8.981l.042,1A3.317,3.317,0,0,1,23.2-9.147,2.568,2.568,0,0,1,25.761-7.7a3.4,3.4,0,0,1,1.166-1.046,3.445,3.445,0,0,1,1.7-.4q2.955,0,3,3.129V0H30.094V-5.927a2.062,2.062,0,0,0-.44-1.44,1.937,1.937,0,0,0-1.478-.477,2.036,2.036,0,0,0-1.419.51A2.071,2.071,0,0,0,26.1-5.96V0H24.558V-5.885A1.713,1.713,0,0,0,22.64-7.844a2.055,2.055,0,0,0-2.067,1.287V0H19.038V-8.981ZM39.491,0a3.226,3.226,0,0,1-.216-.946A3.426,3.426,0,0,1,36.719.166,3.17,3.17,0,0,1,34.54-.585a2.43,2.43,0,0,1-.851-1.905,2.539,2.539,0,0,1,1.067-2.179,5.029,5.029,0,0,1,3-.776H39.25v-.706a1.725,1.725,0,0,0-.481-1.282,1.935,1.935,0,0,0-1.419-.477,2.239,2.239,0,0,0-1.378.415,1.223,1.223,0,0,0-.556,1H33.871a2.119,2.119,0,0,1,.477-1.3,3.258,3.258,0,0,1,1.295-.992,4.356,4.356,0,0,1,1.8-.365,3.551,3.551,0,0,1,2.432.776,2.8,2.8,0,0,1,.913,2.137V-2.1A5.054,5.054,0,0,0,41.1-.133V0ZM36.943-1.17a2.7,2.7,0,0,0,1.37-.374,2.259,2.259,0,0,0,.938-.971V-4.358h-1.2q-2.822,0-2.822,1.652a1.4,1.4,0,0,0,.481,1.129A1.85,1.85,0,0,0,36.943-1.17Zm7.7-7.811.05,1.129a3.273,3.273,0,0,1,2.689-1.295q2.847,0,2.872,3.212V0H48.721V-5.943a2.068,2.068,0,0,0-.444-1.436,1.78,1.78,0,0,0-1.357-.465,2.216,2.216,0,0,0-1.312.4,2.706,2.706,0,0,0-.88,1.046V0H43.193V-8.981Zm7.521,4.408a5.3,5.3,0,0,1,.519-2.374,3.87,3.87,0,0,1,1.444-1.627,3.932,3.932,0,0,1,2.113-.573,3.788,3.788,0,0,1,2.968,1.27A4.886,4.886,0,0,1,60.343-4.5v.108a5.351,5.351,0,0,1-.5,2.353A3.813,3.813,0,0,1,58.4-.415a3.977,3.977,0,0,1-2.146.581A3.778,3.778,0,0,1,53.3-1.1a4.861,4.861,0,0,1-1.133-3.362Zm1.544.183a3.842,3.842,0,0,0,.693,2.4,2.218,2.218,0,0,0,1.855.9A2.2,2.2,0,0,0,58.118-2a4.2,4.2,0,0,0,.689-2.569,3.836,3.836,0,0,0-.7-2.395,2.23,2.23,0,0,0-1.864-.917,2.205,2.205,0,0,0-1.834.9A4.17,4.17,0,0,0,53.71-4.391Z" transform="translate(371.848 193.62)" fill="#1a0f91"/>
      <path id="Trazado_121043" data-name="Trazado 121043" d="M-32.572-4.731V0h-1.594V-12.086h4.458A4.478,4.478,0,0,1-26.6-11.073a3.433,3.433,0,0,1,1.125,2.681,3.388,3.388,0,0,1-1.1,2.71,4.678,4.678,0,0,1-3.15.95Zm0-1.3h2.864a2.863,2.863,0,0,0,1.959-.6,2.2,2.2,0,0,0,.681-1.742,2.277,2.277,0,0,0-.681-1.73,2.682,2.682,0,0,0-1.868-.674h-2.955ZM-19.341-7.6a4.6,4.6,0,0,0-.755-.058,2.024,2.024,0,0,0-2.05,1.287V0h-1.536V-8.981h1.494l.025,1.038a2.391,2.391,0,0,1,2.142-1.2,1.569,1.569,0,0,1,.681.116Zm.838,3.03a5.3,5.3,0,0,1,.519-2.374,3.87,3.87,0,0,1,1.444-1.627,3.932,3.932,0,0,1,2.113-.573,3.788,3.788,0,0,1,2.968,1.27A4.886,4.886,0,0,1-10.326-4.5v.108a5.351,5.351,0,0,1-.5,2.353A3.813,3.813,0,0,1-12.264-.415,3.977,3.977,0,0,1-14.41.166,3.778,3.778,0,0,1-17.369-1.1,4.861,4.861,0,0,1-18.5-4.466Zm1.544.183a3.842,3.842,0,0,0,.693,2.4,2.218,2.218,0,0,0,1.855.9A2.2,2.2,0,0,0-12.551-2a4.2,4.2,0,0,0,.689-2.569,3.836,3.836,0,0,0-.7-2.395,2.23,2.23,0,0,0-1.864-.917,2.205,2.205,0,0,0-1.834.9A4.17,4.17,0,0,0-16.958-4.391ZM-4.8-1.087a2.212,2.212,0,0,0,1.436-.5,1.752,1.752,0,0,0,.681-1.245h1.453A2.785,2.785,0,0,1-1.76-1.361,3.5,3.5,0,0,1-3.067-.249,3.772,3.772,0,0,1-4.8.166,3.7,3.7,0,0,1-7.716-1.058,4.877,4.877,0,0,1-8.8-4.408v-.257A5.407,5.407,0,0,1-8.317-7,3.667,3.667,0,0,1-6.935-8.583a3.926,3.926,0,0,1,2.129-.564,3.6,3.6,0,0,1,2.511.9A3.234,3.234,0,0,1-1.229-5.894H-2.681a2.116,2.116,0,0,0-.66-1.432,2.053,2.053,0,0,0-1.465-.56,2.149,2.149,0,0,0-1.814.843,3.957,3.957,0,0,0-.643,2.436v.291a3.878,3.878,0,0,0,.639,2.391A2.16,2.16,0,0,0-4.8-1.087ZM4.225.166a3.924,3.924,0,0,1-2.972-1.2A4.452,4.452,0,0,1,.108-4.242v-.282A5.39,5.39,0,0,1,.618-6.91,3.982,3.982,0,0,1,2.046-8.554a3.59,3.59,0,0,1,1.988-.594A3.364,3.364,0,0,1,6.757-7.994a5,5,0,0,1,.971,3.3v.639H1.644A3.193,3.193,0,0,0,2.42-1.905a2.44,2.44,0,0,0,1.888.818,2.675,2.675,0,0,0,1.378-.332,3.462,3.462,0,0,0,.988-.88l.938.73A3.772,3.772,0,0,1,4.225.166ZM4.034-7.886a2.048,2.048,0,0,0-1.561.677,3.288,3.288,0,0,0-.78,1.9h4.5v-.116a2.925,2.925,0,0,0-.631-1.814A1.928,1.928,0,0,0,4.034-7.886Zm10.7,5.5a1.131,1.131,0,0,0-.469-.967,4.514,4.514,0,0,0-1.635-.594,7.731,7.731,0,0,1-1.851-.6,2.633,2.633,0,0,1-1.013-.83,1.986,1.986,0,0,1-.328-1.146,2.33,2.33,0,0,1,.934-1.868,3.647,3.647,0,0,1,2.386-.764,3.753,3.753,0,0,1,2.478.789,2.5,2.5,0,0,1,.95,2.017H14.643a1.386,1.386,0,0,0-.535-1.087,2.006,2.006,0,0,0-1.349-.457,2.1,2.1,0,0,0-1.312.365,1.15,1.15,0,0,0-.473.955.932.932,0,0,0,.44.838,5.413,5.413,0,0,0,1.59.54,8.283,8.283,0,0,1,1.864.614,2.718,2.718,0,0,1,1.058.859A2.112,2.112,0,0,1,16.27-2.49a2.3,2.3,0,0,1-.963,1.93,4.039,4.039,0,0,1-2.5.726A4.523,4.523,0,0,1,10.9-.216,3.105,3.105,0,0,1,9.6-1.282a2.571,2.571,0,0,1-.469-1.482h1.536a1.59,1.59,0,0,0,.618,1.224,2.4,2.4,0,0,0,1.523.452,2.476,2.476,0,0,0,1.4-.353A1.084,1.084,0,0,0,14.734-2.382Zm3.129-2.191a5.3,5.3,0,0,1,.519-2.374,3.87,3.87,0,0,1,1.444-1.627,3.932,3.932,0,0,1,2.113-.573,3.788,3.788,0,0,1,2.968,1.27A4.886,4.886,0,0,1,26.04-4.5v.108a5.351,5.351,0,0,1-.5,2.353A3.813,3.813,0,0,1,24.1-.415a3.977,3.977,0,0,1-2.146.581A3.778,3.778,0,0,1,19-1.1a4.861,4.861,0,0,1-1.133-3.362Zm1.544.183a3.842,3.842,0,0,0,.693,2.4,2.218,2.218,0,0,0,1.855.9A2.2,2.2,0,0,0,23.815-2,4.2,4.2,0,0,0,24.5-4.574a3.836,3.836,0,0,0-.7-2.395,2.23,2.23,0,0,0-1.864-.917,2.205,2.205,0,0,0-1.834.9A4.17,4.17,0,0,0,19.407-4.391ZM33.195-2.382a1.13,1.13,0,0,0-.469-.967,4.514,4.514,0,0,0-1.635-.594,7.731,7.731,0,0,1-1.851-.6,2.633,2.633,0,0,1-1.013-.83A1.986,1.986,0,0,1,27.9-6.516a2.33,2.33,0,0,1,.934-1.868,3.647,3.647,0,0,1,2.386-.764,3.753,3.753,0,0,1,2.478.789,2.5,2.5,0,0,1,.95,2.017H33.1a1.386,1.386,0,0,0-.535-1.087,2.006,2.006,0,0,0-1.349-.457,2.1,2.1,0,0,0-1.312.365,1.15,1.15,0,0,0-.473.955.932.932,0,0,0,.44.838,5.413,5.413,0,0,0,1.59.54,8.283,8.283,0,0,1,1.864.614,2.718,2.718,0,0,1,1.058.859A2.112,2.112,0,0,1,34.73-2.49a2.3,2.3,0,0,1-.963,1.93,4.039,4.039,0,0,1-2.5.726A4.523,4.523,0,0,1,29.36-.216a3.105,3.105,0,0,1-1.3-1.067,2.571,2.571,0,0,1-.469-1.482h1.536a1.59,1.59,0,0,0,.618,1.224,2.4,2.4,0,0,0,1.523.452,2.476,2.476,0,0,0,1.4-.353A1.084,1.084,0,0,0,33.195-2.382Z" transform="translate(374.586 246.199)" fill="#fff"/>
      <path id="Trazado_121044" data-name="Trazado 121044" d="M-67.3-5.653a7.476,7.476,0,0,1-.6,3.1A4.527,4.527,0,0,1-69.59-.531a4.659,4.659,0,0,1-2.557.7,4.619,4.619,0,0,1-2.532-.7,4.635,4.635,0,0,1-1.714-2,7.174,7.174,0,0,1-.627-3.009v-.872a7.388,7.388,0,0,1,.606-3.08A4.619,4.619,0,0,1-74.7-11.542a4.6,4.6,0,0,1,2.536-.71,4.685,4.685,0,0,1,2.561.7A4.519,4.519,0,0,1-67.9-9.517a7.513,7.513,0,0,1,.6,3.1Zm-1.585-.78a5.419,5.419,0,0,0-.863-3.3,2.847,2.847,0,0,0-2.416-1.15,2.817,2.817,0,0,0-2.378,1.15,5.308,5.308,0,0,0-.892,3.192v.888a5.427,5.427,0,0,0,.876,3.275,2.829,2.829,0,0,0,2.411,1.191,2.817,2.817,0,0,0,2.391-1.125,5.4,5.4,0,0,0,.872-3.225Zm8.077-1.17a4.6,4.6,0,0,0-.755-.058,2.024,2.024,0,0,0-2.05,1.287V0h-1.536V-8.981h1.494l.025,1.038a2.391,2.391,0,0,1,2.142-1.2,1.569,1.569,0,0,1,.681.116Zm.888,3.038a5.279,5.279,0,0,1,.971-3.341,3.106,3.106,0,0,1,2.573-1.241A3.09,3.09,0,0,1-53.81-7.985l.075-1h1.4V-.216a3.654,3.654,0,0,1-1.033,2.748,3.814,3.814,0,0,1-2.777,1,4.619,4.619,0,0,1-1.9-.415,3.272,3.272,0,0,1-1.419-1.137l.8-.921a3,3,0,0,0,2.416,1.22A2.353,2.353,0,0,0-54.5,1.652a2.411,2.411,0,0,0,.627-1.776V-.9A3.156,3.156,0,0,1-56.391.166,3.068,3.068,0,0,1-58.944-1.1,5.55,5.55,0,0,1-59.919-4.565Zm1.544.174A4.027,4.027,0,0,0-57.753-2a2.023,2.023,0,0,0,1.743.867,2.249,2.249,0,0,0,2.133-1.32v-4.1a2.276,2.276,0,0,0-2.117-1.287,2.041,2.041,0,0,0-1.751.872A4.386,4.386,0,0,0-58.375-4.391ZM-44.471,0a3.226,3.226,0,0,1-.216-.946A3.426,3.426,0,0,1-47.244.166a3.17,3.17,0,0,1-2.179-.751,2.43,2.43,0,0,1-.851-1.905,2.539,2.539,0,0,1,1.067-2.179,5.029,5.029,0,0,1,3-.776h1.494v-.706a1.725,1.725,0,0,0-.481-1.282,1.935,1.935,0,0,0-1.419-.477,2.239,2.239,0,0,0-1.378.415,1.223,1.223,0,0,0-.556,1h-1.544a2.119,2.119,0,0,1,.477-1.3,3.258,3.258,0,0,1,1.295-.992,4.356,4.356,0,0,1,1.8-.365,3.551,3.551,0,0,1,2.432.776,2.8,2.8,0,0,1,.913,2.137V-2.1a5.054,5.054,0,0,0,.315,1.967V0ZM-47.02-1.17a2.7,2.7,0,0,0,1.37-.374,2.259,2.259,0,0,0,.938-.971V-4.358h-1.2q-2.822,0-2.822,1.652a1.4,1.4,0,0,0,.481,1.129A1.85,1.85,0,0,0-47.02-1.17Zm7.7-7.811.05,1.129a3.273,3.273,0,0,1,2.689-1.295q2.847,0,2.872,3.212V0h-1.536V-5.943a2.068,2.068,0,0,0-.444-1.436,1.78,1.78,0,0,0-1.357-.465,2.216,2.216,0,0,0-1.312.4,2.706,2.706,0,0,0-.88,1.046V0h-1.536V-8.981ZM-29.721,0h-1.536V-8.981h1.536Zm-1.66-11.364a.917.917,0,0,1,.228-.631.857.857,0,0,1,.677-.257.87.87,0,0,1,.681.257.907.907,0,0,1,.232.631.877.877,0,0,1-.232.623.886.886,0,0,1-.681.249.872.872,0,0,1-.677-.249A.886.886,0,0,1-31.381-11.364Zm5.562,10.11h5.254V0H-27.7V-1.129l4.956-6.583h-4.881v-1.27h6.807v1.087ZM-13.294,0a3.226,3.226,0,0,1-.216-.946A3.426,3.426,0,0,1-16.066.166a3.17,3.17,0,0,1-2.179-.751A2.43,2.43,0,0,1-19.1-2.49a2.539,2.539,0,0,1,1.067-2.179,5.029,5.029,0,0,1,3-.776h1.494v-.706a1.725,1.725,0,0,0-.481-1.282,1.935,1.935,0,0,0-1.419-.477,2.239,2.239,0,0,0-1.378.415,1.223,1.223,0,0,0-.556,1h-1.544a2.119,2.119,0,0,1,.477-1.3,3.258,3.258,0,0,1,1.295-.992,4.356,4.356,0,0,1,1.8-.365,3.551,3.551,0,0,1,2.432.776A2.8,2.8,0,0,1-12-6.234V-2.1a5.054,5.054,0,0,0,.315,1.967V0Zm-2.548-1.17a2.7,2.7,0,0,0,1.37-.374,2.259,2.259,0,0,0,.938-.971V-4.358h-1.2q-2.822,0-2.822,1.652a1.4,1.4,0,0,0,.481,1.129A1.85,1.85,0,0,0-15.842-1.17Zm9.853.083a2.212,2.212,0,0,0,1.436-.5,1.752,1.752,0,0,0,.681-1.245H-2.42a2.785,2.785,0,0,1-.531,1.469A3.5,3.5,0,0,1-4.258-.249,3.772,3.772,0,0,1-5.989.166,3.7,3.7,0,0,1-8.907-1.058,4.877,4.877,0,0,1-9.99-4.408v-.257A5.407,5.407,0,0,1-9.509-7,3.667,3.667,0,0,1-8.126-8.583,3.926,3.926,0,0,1-6-9.147a3.6,3.6,0,0,1,2.511.9A3.234,3.234,0,0,1-2.42-5.894H-3.872a2.116,2.116,0,0,0-.66-1.432A2.053,2.053,0,0,0-6-7.886a2.149,2.149,0,0,0-1.814.843,3.957,3.957,0,0,0-.643,2.436v.291a3.878,3.878,0,0,0,.639,2.391A2.16,2.16,0,0,0-5.989-1.087ZM.975,0H-.56V-8.981H.975ZM-.685-11.364a.917.917,0,0,1,.228-.631.857.857,0,0,1,.677-.257.87.87,0,0,1,.681.257.907.907,0,0,1,.232.631.877.877,0,0,1-.232.623.886.886,0,0,1-.681.249.872.872,0,0,1-.677-.249A.886.886,0,0,1-.685-11.364Zm3.71,6.79a5.3,5.3,0,0,1,.519-2.374A3.87,3.87,0,0,1,4.989-8.575,3.932,3.932,0,0,1,7.1-9.147a3.788,3.788,0,0,1,2.968,1.27A4.886,4.886,0,0,1,11.2-4.5v.108a5.351,5.351,0,0,1-.5,2.353A3.813,3.813,0,0,1,9.264-.415,3.977,3.977,0,0,1,7.118.166,3.778,3.778,0,0,1,4.159-1.1,4.861,4.861,0,0,1,3.026-4.466Zm1.544.183a3.842,3.842,0,0,0,.693,2.4,2.218,2.218,0,0,0,1.855.9A2.2,2.2,0,0,0,8.977-2a4.2,4.2,0,0,0,.689-2.569,3.836,3.836,0,0,0-.7-2.395A2.23,2.23,0,0,0,7.1-7.886a2.205,2.205,0,0,0-1.834.9A4.17,4.17,0,0,0,4.57-4.391ZM7.8-12.733H9.658l-2.225,2.44L6.2-10.3ZM14.58-8.981l.05,1.129A3.273,3.273,0,0,1,17.32-9.147q2.847,0,2.872,3.212V0H18.656V-5.943a2.068,2.068,0,0,0-.444-1.436,1.78,1.78,0,0,0-1.357-.465,2.216,2.216,0,0,0-1.312.4,2.706,2.706,0,0,0-.88,1.046V0H13.128V-8.981ZM28.385,0H26.849V-8.981h1.536Zm-1.66-11.364a.917.917,0,0,1,.228-.631.857.857,0,0,1,.677-.257.87.87,0,0,1,.681.257.907.907,0,0,1,.232.631.877.877,0,0,1-.232.623.886.886,0,0,1-.681.249.872.872,0,0,1-.677-.249A.886.886,0,0,1,26.724-11.364Zm5.57,2.382.05,1.129a3.273,3.273,0,0,1,2.689-1.295q2.847,0,2.872,3.212V0H36.37V-5.943a2.068,2.068,0,0,0-.444-1.436,1.78,1.78,0,0,0-1.357-.465,2.216,2.216,0,0,0-1.312.4,2.706,2.706,0,0,0-.88,1.046V0H30.842V-8.981ZM42.3-11.156v2.175h1.677v1.187H42.3v5.577a1.247,1.247,0,0,0,.224.81.943.943,0,0,0,.764.27,3.718,3.718,0,0,0,.73-.1V0a4.478,4.478,0,0,1-1.179.165,1.912,1.912,0,0,1-1.552-.623,2.675,2.675,0,0,1-.523-1.768v-5.57H39.134V-8.981h1.635v-2.175ZM49.5.166a3.924,3.924,0,0,1-2.972-1.2,4.452,4.452,0,0,1-1.146-3.208v-.282A5.39,5.39,0,0,1,45.9-6.91a3.982,3.982,0,0,1,1.428-1.644,3.59,3.59,0,0,1,1.988-.594,3.364,3.364,0,0,1,2.723,1.154A5,5,0,0,1,53-4.69v.639H46.92A3.193,3.193,0,0,0,47.7-1.905a2.44,2.44,0,0,0,1.888.818,2.675,2.675,0,0,0,1.378-.332,3.462,3.462,0,0,0,.988-.88l.938.73A3.772,3.772,0,0,1,49.5.166Zm-.191-8.052a2.048,2.048,0,0,0-1.561.677,3.288,3.288,0,0,0-.78,1.9h4.5v-.116a2.925,2.925,0,0,0-.631-1.814A1.928,1.928,0,0,0,49.311-7.886Zm9.812.282a4.6,4.6,0,0,0-.755-.058,2.024,2.024,0,0,0-2.05,1.287V0H54.781V-8.981h1.494L56.3-7.944a2.391,2.391,0,0,1,2.142-1.2,1.569,1.569,0,0,1,.681.116Zm2.864-1.378.05,1.129a3.273,3.273,0,0,1,2.689-1.295q2.847,0,2.872,3.212V0H66.062V-5.943a2.068,2.068,0,0,0-.444-1.436,1.78,1.78,0,0,0-1.357-.465,2.216,2.216,0,0,0-1.312.4,2.706,2.706,0,0,0-.88,1.046V0H60.533V-8.981ZM75.458,0a3.226,3.226,0,0,1-.216-.946A3.426,3.426,0,0,1,72.686.166a3.17,3.17,0,0,1-2.179-.751,2.43,2.43,0,0,1-.851-1.905,2.539,2.539,0,0,1,1.067-2.179,5.029,5.029,0,0,1,3-.776h1.494v-.706a1.725,1.725,0,0,0-.481-1.282,1.935,1.935,0,0,0-1.419-.477,2.239,2.239,0,0,0-1.378.415,1.223,1.223,0,0,0-.556,1H69.839a2.119,2.119,0,0,1,.477-1.3,3.258,3.258,0,0,1,1.295-.992,4.356,4.356,0,0,1,1.8-.365,3.551,3.551,0,0,1,2.432.776,2.8,2.8,0,0,1,.913,2.137V-2.1a5.054,5.054,0,0,0,.315,1.967V0ZM72.91-1.17a2.7,2.7,0,0,0,1.37-.374,2.259,2.259,0,0,0,.938-.971V-4.358h-1.2q-2.822,0-2.822,1.652a1.4,1.4,0,0,0,.481,1.129A1.85,1.85,0,0,0,72.91-1.17Z" transform="translate(369.407 294.837)" fill="#1a0f91"/>
      <path id="Trazado_121045" data-name="Trazado 121045" d="M-47.8-5.387a7.494,7.494,0,0,1-2.984-1.448,2.768,2.768,0,0,1-.934-2.121,2.923,2.923,0,0,1,1.141-2.362,4.536,4.536,0,0,1,2.968-.934,4.951,4.951,0,0,1,2.22.481,3.651,3.651,0,0,1,1.511,1.328,3.4,3.4,0,0,1,.535,1.851h-1.6a2.21,2.21,0,0,0-.7-1.729,2.835,2.835,0,0,0-1.967-.629,2.9,2.9,0,0,0-1.839.52,1.734,1.734,0,0,0-.66,1.443,1.56,1.56,0,0,0,.627,1.252,6.147,6.147,0,0,0,2.133.936,9.9,9.9,0,0,1,2.357.935,3.577,3.577,0,0,1,1.262,1.191,3.04,3.04,0,0,1,.411,1.6A2.824,2.824,0,0,1-44.467-.718,4.884,4.884,0,0,1-47.53.166a5.681,5.681,0,0,1-2.324-.477,3.911,3.911,0,0,1-1.664-1.307A3.191,3.191,0,0,1-52.1-3.5h1.6a2.082,2.082,0,0,0,.809,1.731,3.408,3.408,0,0,0,2.162.635A3.133,3.133,0,0,0-45.6-1.652a1.672,1.672,0,0,0,.672-1.4,1.641,1.641,0,0,0-.623-1.374A7.178,7.178,0,0,0-47.8-5.387Zm5.877.813a5.3,5.3,0,0,1,.519-2.374,3.87,3.87,0,0,1,1.444-1.627,3.932,3.932,0,0,1,2.113-.573,3.788,3.788,0,0,1,2.968,1.27A4.886,4.886,0,0,1-33.751-4.5v.108a5.351,5.351,0,0,1-.5,2.353A3.813,3.813,0,0,1-35.689-.415a3.977,3.977,0,0,1-2.146.581A3.778,3.778,0,0,1-40.794-1.1a4.861,4.861,0,0,1-1.133-3.362Zm1.544.183a3.842,3.842,0,0,0,.693,2.4,2.218,2.218,0,0,0,1.855.9A2.2,2.2,0,0,0-35.976-2a4.2,4.2,0,0,0,.689-2.569,3.836,3.836,0,0,0-.7-2.395,2.23,2.23,0,0,0-1.864-.917,2.205,2.205,0,0,0-1.834.9A4.17,4.17,0,0,0-40.383-4.391Zm16.145,0a5.378,5.378,0,0,1-.938,3.3A3.006,3.006,0,0,1-27.716.166,3.294,3.294,0,0,1-30.29-.872V3.453h-1.536V-8.981h1.4l.075,1a3.163,3.163,0,0,1,2.606-1.162,3.063,3.063,0,0,1,2.561,1.22,5.437,5.437,0,0,1,.942,3.4Zm-1.536-.174a3.968,3.968,0,0,0-.647-2.4,2.086,2.086,0,0,0-1.776-.88A2.257,2.257,0,0,0-30.29-6.607v4.292a2.262,2.262,0,0,0,2.108,1.229,2.076,2.076,0,0,0,1.756-.876A4.332,4.332,0,0,0-25.774-4.565Zm3.08-.008a5.3,5.3,0,0,1,.519-2.374,3.87,3.87,0,0,1,1.444-1.627,3.932,3.932,0,0,1,2.113-.573,3.788,3.788,0,0,1,2.968,1.27A4.886,4.886,0,0,1-14.518-4.5v.108a5.351,5.351,0,0,1-.5,2.353A3.813,3.813,0,0,1-16.456-.415,3.977,3.977,0,0,1-18.6.166,3.778,3.778,0,0,1-21.561-1.1a4.861,4.861,0,0,1-1.133-3.362Zm1.544.183a3.842,3.842,0,0,0,.693,2.4,2.218,2.218,0,0,0,1.855.9A2.2,2.2,0,0,0-16.743-2a4.2,4.2,0,0,0,.689-2.569,3.836,3.836,0,0,0-.7-2.395,2.23,2.23,0,0,0-1.864-.917,2.205,2.205,0,0,0-1.834.9A4.17,4.17,0,0,0-21.15-4.391ZM-8.251-7.6a4.6,4.6,0,0,0-.755-.058,2.024,2.024,0,0,0-2.05,1.287V0h-1.536V-8.981H-11.1l.025,1.038a2.391,2.391,0,0,1,2.142-1.2,1.569,1.569,0,0,1,.681.116Zm3.91-3.553v2.175h1.677v1.187H-4.341v5.577a1.247,1.247,0,0,0,.224.81.943.943,0,0,0,.764.27,3.718,3.718,0,0,0,.73-.1V0A4.478,4.478,0,0,1-3.8.166,1.912,1.912,0,0,1-5.354-.457a2.675,2.675,0,0,1-.523-1.768v-5.57H-7.512V-8.981h1.635v-2.175ZM2.855.166a3.924,3.924,0,0,1-2.972-1.2A4.452,4.452,0,0,1-1.262-4.242v-.282A5.39,5.39,0,0,1-.751-6.91,3.982,3.982,0,0,1,.677-8.554a3.59,3.59,0,0,1,1.988-.594A3.364,3.364,0,0,1,5.387-7.994a5,5,0,0,1,.971,3.3v.639H.274A3.193,3.193,0,0,0,1.05-1.905a2.44,2.44,0,0,0,1.888.818,2.675,2.675,0,0,0,1.378-.332A3.462,3.462,0,0,0,5.3-2.3l.938.73A3.772,3.772,0,0,1,2.855.166ZM2.665-7.886A2.048,2.048,0,0,0,1.1-7.209a3.288,3.288,0,0,0-.78,1.9h4.5v-.116a2.925,2.925,0,0,0-.631-1.814A1.928,1.928,0,0,0,2.665-7.886ZM13.1,0V-7.794H11.679V-8.981H13.1V-9.9a3.058,3.058,0,0,1,.772-2.233,2.916,2.916,0,0,1,2.183-.789,4.055,4.055,0,0,1,1.054.14l-.083,1.238a4.41,4.41,0,0,0-.83-.075,1.5,1.5,0,0,0-1.154.437,1.773,1.773,0,0,0-.407,1.253v.949h1.917v1.187H14.634V0Zm6.815,0H18.37V-8.981h1.544Zm.017-12.725H21.79l-2.225,2.44-1.237,0ZM27.675-2.382a1.131,1.131,0,0,0-.469-.967,4.514,4.514,0,0,0-1.635-.594,7.731,7.731,0,0,1-1.851-.6,2.633,2.633,0,0,1-1.013-.83,1.986,1.986,0,0,1-.328-1.146,2.33,2.33,0,0,1,.934-1.868A3.647,3.647,0,0,1,25.7-9.147a3.753,3.753,0,0,1,2.478.789,2.5,2.5,0,0,1,.95,2.017H27.583a1.386,1.386,0,0,0-.535-1.087A2.006,2.006,0,0,0,25.7-7.886a2.1,2.1,0,0,0-1.312.365,1.15,1.15,0,0,0-.473.955.932.932,0,0,0,.44.838,5.413,5.413,0,0,0,1.59.54,8.283,8.283,0,0,1,1.864.614,2.718,2.718,0,0,1,1.058.859A2.112,2.112,0,0,1,29.21-2.49a2.3,2.3,0,0,1-.963,1.93,4.039,4.039,0,0,1-2.5.726A4.523,4.523,0,0,1,23.84-.216a3.105,3.105,0,0,1-1.3-1.067,2.571,2.571,0,0,1-.469-1.482h1.536a1.59,1.59,0,0,0,.618,1.224,2.4,2.4,0,0,0,1.523.452,2.476,2.476,0,0,0,1.4-.353A1.084,1.084,0,0,0,27.675-2.382ZM32.879,0H31.344V-8.981h1.536Zm-1.66-11.364a.917.917,0,0,1,.228-.631.857.857,0,0,1,.677-.257.87.87,0,0,1,.681.257.907.907,0,0,1,.232.631.877.877,0,0,1-.232.623.886.886,0,0,1-.681.249.872.872,0,0,1-.677-.249A.886.886,0,0,1,31.219-11.364Zm7.72,10.276a2.212,2.212,0,0,0,1.436-.5,1.752,1.752,0,0,0,.681-1.245h1.453a2.785,2.785,0,0,1-.531,1.469A3.5,3.5,0,0,1,40.67-.249a3.772,3.772,0,0,1-1.731.415,3.7,3.7,0,0,1-2.918-1.224,4.877,4.877,0,0,1-1.083-3.349v-.257A5.407,5.407,0,0,1,35.419-7,3.667,3.667,0,0,1,36.8-8.583a3.926,3.926,0,0,1,2.129-.564,3.6,3.6,0,0,1,2.511.9,3.234,3.234,0,0,1,1.067,2.349H41.056a2.116,2.116,0,0,0-.66-1.432,2.053,2.053,0,0,0-1.465-.56,2.149,2.149,0,0,0-1.814.843,3.957,3.957,0,0,0-.643,2.436v.291a3.878,3.878,0,0,0,.639,2.391A2.16,2.16,0,0,0,38.939-1.087Zm4.889-3.486a5.3,5.3,0,0,1,.519-2.374,3.87,3.87,0,0,1,1.444-1.627A3.932,3.932,0,0,1,47.9-9.147a3.788,3.788,0,0,1,2.968,1.27A4.886,4.886,0,0,1,52-4.5v.108a5.351,5.351,0,0,1-.5,2.353A3.813,3.813,0,0,1,50.066-.415,3.977,3.977,0,0,1,47.92.166,3.778,3.778,0,0,1,44.961-1.1a4.861,4.861,0,0,1-1.133-3.362Zm1.544.183a3.842,3.842,0,0,0,.693,2.4,2.218,2.218,0,0,0,1.855.9A2.2,2.2,0,0,0,49.78-2a4.2,4.2,0,0,0,.689-2.569,3.836,3.836,0,0,0-.7-2.395A2.23,2.23,0,0,0,47.9-7.886a2.205,2.205,0,0,0-1.834.9A4.17,4.17,0,0,0,45.372-4.391Z" transform="translate(372.145 346.221)" fill="#fff"/>
      <line id="Línea_579" data-name="Línea 579" x2="51.995" transform="translate(587.399 265.724)" fill="none" stroke="#1a0f91" stroke-linecap="round" stroke-miterlimit="10" stroke-width="2"/>
    </g>
    <g id="Grupo_56651" data-name="Grupo 56651" transform="translate(-50 1987)">
      <path id="Trazado_121040" data-name="Trazado 121040" d="M208.414,12.658V17h-3.085V4.2h5.106a5.948,5.948,0,0,1,2.6.541,4.074,4.074,0,0,1,1.749,1.538,4.2,4.2,0,0,1,.62,2.263,3.7,3.7,0,0,1-1.34,2.993,5.561,5.561,0,0,1-3.678,1.121Zm0-2.382h2.021a1.906,1.906,0,0,0,1.367-.448,1.665,1.665,0,0,0,.47-1.266,2.059,2.059,0,0,0-.483-1.433,1.712,1.712,0,0,0-1.318-.545h-2.057Zm14.247-.105-.976-.07a1.752,1.752,0,0,0-1.793.879V17h-2.962V7.49h2.777l.1,1.222a2.294,2.294,0,0,1,2.083-1.4,2.888,2.888,0,0,1,.826.105Zm.378,1.986a5.613,5.613,0,0,1,.554-2.536,3.96,3.96,0,0,1,1.591-1.709,4.791,4.791,0,0,1,2.435-.6,4.373,4.373,0,0,1,3.366,1.323,5.076,5.076,0,0,1,1.23,3.6v.105a4.925,4.925,0,0,1-1.235,3.529,4.384,4.384,0,0,1-3.344,1.305,4.434,4.434,0,0,1-3.261-1.217,4.761,4.761,0,0,1-1.327-3.3Zm2.962.185a3.538,3.538,0,0,0,.413,1.934,1.376,1.376,0,0,0,1.222.615q1.582,0,1.617-2.435v-.3q0-2.558-1.635-2.558-1.485,0-1.608,2.206Zm7.146-.167a5.809,5.809,0,0,1,.976-3.56,3.211,3.211,0,0,1,2.725-1.3,2.731,2.731,0,0,1,2.145,1V3.5h2.971V17H239.3l-.149-1.02a2.8,2.8,0,0,1-2.32,1.2,3.205,3.205,0,0,1-2.689-1.3A5.993,5.993,0,0,1,233.146,12.175Zm2.962.185q0,2.531,1.477,2.531a1.458,1.458,0,0,0,1.406-.826V10.443A1.419,1.419,0,0,0,237.6,9.6q-1.371,0-1.485,2.215Zm13.2,3.612a3.054,3.054,0,0,1-2.54,1.2,3,3,0,0,1-2.369-.91,3.826,3.826,0,0,1-.8-2.615V7.49h2.962v6.179a1.065,1.065,0,0,0,1.187,1.222,1.548,1.548,0,0,0,1.45-.729V7.49h2.979V17H249.4Zm8.508-1.081a1.317,1.317,0,0,0,.967-.338,1.241,1.241,0,0,0,.334-.945H261.9a3.288,3.288,0,0,1-1.121,2.566,4.168,4.168,0,0,1-2.887,1,4.22,4.22,0,0,1-3.27-1.3,5.125,5.125,0,0,1-1.2-3.6v-.123a5.792,5.792,0,0,1,.532-2.544,3.872,3.872,0,0,1,1.534-1.7,4.573,4.573,0,0,1,2.373-.593,4.116,4.116,0,0,1,2.944,1.028,3.647,3.647,0,0,1,1.09,2.786h-2.777a1.626,1.626,0,0,0-.36-1.134,1.244,1.244,0,0,0-.967-.4q-1.151,0-1.345,1.468a10.357,10.357,0,0,0-.062,1.283,4.068,4.068,0,0,0,.343,1.986A1.187,1.187,0,0,0,257.817,14.891Zm9.352,0a1.317,1.317,0,0,0,.967-.338,1.241,1.241,0,0,0,.334-.945h2.777a3.288,3.288,0,0,1-1.121,2.566,4.168,4.168,0,0,1-2.887,1,4.22,4.22,0,0,1-3.27-1.3,5.125,5.125,0,0,1-1.2-3.6v-.123a5.792,5.792,0,0,1,.532-2.544,3.872,3.872,0,0,1,1.534-1.7,4.573,4.573,0,0,1,2.373-.593,4.116,4.116,0,0,1,2.944,1.028,3.647,3.647,0,0,1,1.09,2.786H268.47a1.626,1.626,0,0,0-.36-1.134,1.244,1.244,0,0,0-.967-.4q-1.151,0-1.345,1.468a10.357,10.357,0,0,0-.062,1.283,4.068,4.068,0,0,0,.343,1.986A1.187,1.187,0,0,0,267.169,14.891ZM275.624,17h-2.971V7.49h2.971ZM272.478,5.029a1.334,1.334,0,0,1,.457-1.043,1.934,1.934,0,0,1,2.373,0,1.334,1.334,0,0,1,.457,1.043,1.334,1.334,0,0,1-.457,1.043,1.934,1.934,0,0,1-2.373,0A1.334,1.334,0,0,1,272.478,5.029Zm4.6,7.128a5.613,5.613,0,0,1,.554-2.536,3.96,3.96,0,0,1,1.591-1.709,4.791,4.791,0,0,1,2.435-.6,4.373,4.373,0,0,1,3.366,1.323,5.076,5.076,0,0,1,1.23,3.6v.105a4.925,4.925,0,0,1-1.235,3.529,4.384,4.384,0,0,1-3.344,1.305,4.434,4.434,0,0,1-3.261-1.217,4.761,4.761,0,0,1-1.327-3.3Zm2.962.185a3.538,3.538,0,0,0,.413,1.934,1.376,1.376,0,0,0,1.222.615q1.582,0,1.617-2.435v-.3q0-2.558-1.635-2.558-1.485,0-1.608,2.206ZM282.058,3.5h3.129l-2.443,2.76-2.417,0Zm8.218,3.99.1,1.116a3.225,3.225,0,0,1,2.716-1.292,2.713,2.713,0,0,1,2.219.888,4.226,4.226,0,0,1,.76,2.672V17H293.1V11a1.6,1.6,0,0,0-.29-1.059,1.342,1.342,0,0,0-1.055-.338,1.413,1.413,0,0,0-1.292.686V17H287.5V7.49Zm11.54,4.685a5.809,5.809,0,0,1,.976-3.56,3.211,3.211,0,0,1,2.725-1.3,2.731,2.731,0,0,1,2.145,1V3.5h2.971V17h-2.663l-.149-1.02a2.8,2.8,0,0,1-2.32,1.2,3.205,3.205,0,0,1-2.689-1.3A5.993,5.993,0,0,1,301.815,12.175Zm2.962.185q0,2.531,1.477,2.531a1.458,1.458,0,0,0,1.406-.826V10.443a1.419,1.419,0,0,0-1.389-.844q-1.371,0-1.485,2.215Zm12.138,4.816a4.889,4.889,0,0,1-3.542-1.305,4.507,4.507,0,0,1-1.354-3.4v-.246a5.84,5.84,0,0,1,.541-2.575,3.955,3.955,0,0,1,1.578-1.727,4.763,4.763,0,0,1,2.461-.611,4.117,4.117,0,0,1,3.164,1.244,4.887,4.887,0,0,1,1.16,3.467v1.151h-5.889a2.135,2.135,0,0,0,.694,1.257,2.066,2.066,0,0,0,1.389.457,2.662,2.662,0,0,0,2.2-.984l1.354,1.6a3.784,3.784,0,0,1-1.569,1.217A5.3,5.3,0,0,1,316.915,17.176ZM316.581,9.6q-1.3,0-1.547,1.723h2.988v-.229a1.467,1.467,0,0,0-.36-1.1A1.434,1.434,0,0,0,316.581,9.6Zm14.994,4.729a.684.684,0,0,0-.4-.606,6.016,6.016,0,0,0-1.5-.475,6.853,6.853,0,0,1-1.828-.646,3.062,3.062,0,0,1-1.1-.971,2.319,2.319,0,0,1-.378-1.31,2.628,2.628,0,0,1,1.081-2.158,4.453,4.453,0,0,1,2.83-.848,4.934,4.934,0,0,1,3.023.853,2.666,2.666,0,0,1,1.143,2.241h-2.971q0-1.143-1.2-1.143a1.194,1.194,0,0,0-.782.259.8.8,0,0,0-.316.646.737.737,0,0,0,.387.642,3.654,3.654,0,0,0,1.235.4,10.671,10.671,0,0,1,1.49.378,2.706,2.706,0,0,1,2.145,2.646,2.491,2.491,0,0,1-1.156,2.118,5.068,5.068,0,0,1-2.993.817,5.172,5.172,0,0,1-2.18-.439,3.645,3.645,0,0,1-1.494-1.2,2.707,2.707,0,0,1-.536-1.591h2.769a1.145,1.145,0,0,0,.439.962,1.808,1.808,0,0,0,1.081.3,1.422,1.422,0,0,0,.91-.246A.787.787,0,0,0,331.575,14.328Zm8.842,2.848a4.889,4.889,0,0,1-3.542-1.305,4.507,4.507,0,0,1-1.354-3.4v-.246a5.84,5.84,0,0,1,.541-2.575,3.955,3.955,0,0,1,1.578-1.727,4.763,4.763,0,0,1,2.461-.611,4.117,4.117,0,0,1,3.164,1.244,4.887,4.887,0,0,1,1.16,3.467v1.151h-5.889a2.135,2.135,0,0,0,.694,1.257,2.066,2.066,0,0,0,1.389.457,2.662,2.662,0,0,0,2.2-.984l1.354,1.6a3.784,3.784,0,0,1-1.569,1.217A5.3,5.3,0,0,1,340.417,17.176ZM340.083,9.6q-1.3,0-1.547,1.723h2.988v-.229a1.467,1.467,0,0,0-.36-1.1A1.434,1.434,0,0,0,340.083,9.6Zm11.285.571-.976-.07a1.752,1.752,0,0,0-1.793.879V17h-2.962V7.49h2.777l.1,1.222a2.294,2.294,0,0,1,2.083-1.4,2.888,2.888,0,0,1,.826.105Zm5.019,3.3,1.5-5.985h3.12l-3.1,9.51h-3.023l-3.1-9.51h3.129ZM365.018,17h-2.971V7.49h2.971ZM361.871,5.029a1.334,1.334,0,0,1,.457-1.043,1.934,1.934,0,0,1,2.373,0,1.334,1.334,0,0,1,.457,1.043,1.334,1.334,0,0,1-.457,1.043,1.934,1.934,0,0,1-2.373,0A1.334,1.334,0,0,1,361.871,5.029Zm8.991,9.861a1.317,1.317,0,0,0,.967-.338,1.241,1.241,0,0,0,.334-.945h2.777a3.288,3.288,0,0,1-1.121,2.566,4.168,4.168,0,0,1-2.887,1,4.22,4.22,0,0,1-3.27-1.3,5.125,5.125,0,0,1-1.2-3.6v-.123A5.792,5.792,0,0,1,367,9.6a3.872,3.872,0,0,1,1.534-1.7,4.573,4.573,0,0,1,2.373-.593,4.116,4.116,0,0,1,2.944,1.028,3.647,3.647,0,0,1,1.09,2.786h-2.777A1.626,1.626,0,0,0,371.8,10a1.244,1.244,0,0,0-.967-.4q-1.151,0-1.345,1.468a10.357,10.357,0,0,0-.062,1.283,4.068,4.068,0,0,0,.343,1.986A1.187,1.187,0,0,0,370.862,14.891ZM379.317,17h-2.971V7.49h2.971ZM376.171,5.029a1.334,1.334,0,0,1,.457-1.043,1.934,1.934,0,0,1,2.373,0,1.334,1.334,0,0,1,.457,1.043A1.334,1.334,0,0,1,379,6.073a1.934,1.934,0,0,1-2.373,0A1.334,1.334,0,0,1,376.171,5.029Zm4.6,7.128a5.613,5.613,0,0,1,.554-2.536,3.96,3.96,0,0,1,1.591-1.709,4.791,4.791,0,0,1,2.435-.6,4.373,4.373,0,0,1,3.366,1.323,5.076,5.076,0,0,1,1.23,3.6v.105a4.925,4.925,0,0,1-1.235,3.529,4.384,4.384,0,0,1-3.344,1.305,4.434,4.434,0,0,1-3.261-1.217,4.761,4.761,0,0,1-1.327-3.3Zm2.962.185a3.538,3.538,0,0,0,.413,1.934,1.376,1.376,0,0,0,1.222.615q1.582,0,1.617-2.435v-.3q0-2.558-1.635-2.558-1.485,0-1.608,2.206Zm12.5,1.986a.684.684,0,0,0-.4-.606,6.016,6.016,0,0,0-1.5-.475A6.853,6.853,0,0,1,392.5,12.6a3.062,3.062,0,0,1-1.1-.971,2.319,2.319,0,0,1-.378-1.31,2.628,2.628,0,0,1,1.081-2.158,4.453,4.453,0,0,1,2.83-.848,4.934,4.934,0,0,1,3.023.853,2.666,2.666,0,0,1,1.143,2.241h-2.971q0-1.143-1.2-1.143a1.194,1.194,0,0,0-.782.259.8.8,0,0,0-.316.646.737.737,0,0,0,.387.642,3.654,3.654,0,0,0,1.235.4,10.671,10.671,0,0,1,1.49.378,2.706,2.706,0,0,1,2.145,2.646,2.491,2.491,0,0,1-1.156,2.118,5.068,5.068,0,0,1-2.993.817,5.172,5.172,0,0,1-2.18-.439,3.645,3.645,0,0,1-1.494-1.2,2.707,2.707,0,0,1-.536-1.591h2.769a1.145,1.145,0,0,0,.439.962,1.808,1.808,0,0,0,1.081.3,1.422,1.422,0,0,0,.91-.246A.787.787,0,0,0,396.228,14.328Z" transform="translate(542 7469)" fill="#12263f"/>
      <g id="Grupo_53747" data-name="Grupo 53747" transform="translate(768 7502)">
        <rect id="Rectángulo_5089" data-name="Rectángulo 5089" width="188" height="6" transform="translate(-18)" fill="#fe7062"/>
        <path id="Polígono_1" data-name="Polígono 1" d="M6,0l6,5H0Z" transform="translate(80 11) rotate(180)" fill="#fe7062"/>
      </g>
    </g>
  </g>
</svg>
