<svg xmlns="http://www.w3.org/2000/svg" width="68" height="68" viewBox="0 0 68 68">
  <g id="Grupo_55827" data-name="Grupo 55827" transform="translate(0.353 -0.094)">
    <rect id="Rectángulo_29641" data-name="Rectángulo 29641" width="68" height="68" transform="translate(-0.353 0.094)" fill="none"/>
    <g id="Grupo_55831" data-name="Grupo 55831">
      <path id="Trazado_118223" data-name="Trazado 118223" d="M-72.232,19.378l-.1-.088a9.983,9.983,0,0,0,3.14-7.271A10.018,10.018,0,0,0-79.212,2,10.019,10.019,0,0,0-89.231,12.019a9.981,9.981,0,0,0,3.17,7.3l-.073.062c-3.44,2.914-5.265,4.809-5.9,12.958,0,.957.41,2.334,2.363,3.461,2.3,1.33,6.4,2,10.487,2s8.187-.667,10.491-2a3.989,3.989,0,0,0,2.356-3.572C-66.967,24.187-68.791,22.292-72.232,19.378Zm-14.94-7.359a7.969,7.969,0,0,1,7.96-7.96,7.968,7.968,0,0,1,7.959,7.96,7.968,7.968,0,0,1-7.959,7.959A7.968,7.968,0,0,1-87.172,12.019Zm-3.42,21.068c.7-8.252,2.478-9.65,6.026-12.438l.814-.641c.248.113.5.226.755.324l2.917,3.719-3.527,7.5,3.875,4.392c-3.9-.123-7.619-.74-9.708-1.857C-89.785,33.9-90.587,33.417-90.593,33.087Zm21.565,1.035c-2.028,1.1-5.65,1.7-9.438,1.818l3.739-4.293-3.4-7.323,2.814-3.633c.265-.1.52-.218.774-.337l.81.645c3.422,2.723,5.14,4.09,5.808,12.028C-67.923,33.474-68.7,33.94-69.028,34.121Z" transform="translate(97.242 -0.254)" fill="#fe7062"/>
      <path id="Trazado_118224" data-name="Trazado 118224" d="M-36.232,51.378l-.1-.088a9.983,9.983,0,0,0,3.14-7.271A10.018,10.018,0,0,0-43.212,34,10.019,10.019,0,0,0-53.231,44.019a9.981,9.981,0,0,0,3.17,7.3l-.073.062c-3.44,2.914-5.265,4.809-5.9,12.958,0,.957.41,2.334,2.363,3.461,2.3,1.33,6.4,2,10.487,2s8.187-.667,10.491-2a3.989,3.989,0,0,0,2.356-3.572C-30.967,56.187-32.791,54.292-36.232,51.378Zm-14.94-7.359a7.969,7.969,0,0,1,7.96-7.96,7.968,7.968,0,0,1,7.959,7.96,7.968,7.968,0,0,1-7.959,7.959A7.968,7.968,0,0,1-51.172,44.019Zm-3.42,21.068c.7-8.252,2.478-9.65,6.026-12.438l.814-.641c.248.113.5.226.755.324l2.917,3.719-3.527,7.5,3.875,4.392c-3.9-.123-7.619-.74-9.708-1.857C-53.785,65.9-54.587,65.417-54.593,65.087Zm21.565,1.035c-2.028,1.1-5.65,1.7-9.438,1.818l3.739-4.293-3.4-7.323,2.814-3.633c.265-.1.52-.218.774-.337l.81.645c3.422,2.723,5.14,4.09,5.808,12.028C-31.923,65.474-32.7,65.94-33.028,66.121Z" transform="translate(92.67 -4.318)" fill="#fe7062"/>
      <path id="Trazado_118225" data-name="Trazado 118225" d="M-61.866,20.9a1.878,1.878,0,0,0,1.88-1.879v-1.1l4.766,4.766,3.987,3.987a1.88,1.88,0,0,0,2.658-2.658l-3.987-3.987-4.766-4.766h1.1a1.878,1.878,0,0,0,1.88-1.879,1.879,1.879,0,0,0-1.88-1.88h-5.651c-.005,0-.008,0-.009,0l0,0a1.868,1.868,0,0,0-1.213.463h0v0a1.9,1.9,0,0,0-.247.262h0a1.876,1.876,0,0,0-.388,1.022c0,.046,0,.093,0,.141v5.625a1.876,1.876,0,0,0,.55,1.329A1.872,1.872,0,0,0-61.866,20.9Z" transform="translate(93.649 -1.461)" fill="#fe7062"/>
      <path id="Trazado_118226" data-name="Trazado 118226" d="M-63.611,51.484a1.879,1.879,0,0,0-1.88,1.88v1.1L-70.256,49.7l-3.987-3.986A1.879,1.879,0,1,0-76.9,48.368l3.987,3.987,4.766,4.766h-1.1A1.879,1.879,0,0,0-71.129,59a1.879,1.879,0,0,0,1.88,1.88H-63.6s.007,0,.008,0l0,0a1.865,1.865,0,0,0,1.213-.464h0v0a1.952,1.952,0,0,0,.247-.262v0a1.87,1.87,0,0,0,.388-1.021c0-.046,0-.094,0-.141V53.364a1.869,1.869,0,0,0-.55-1.329A1.872,1.872,0,0,0-63.611,51.484Z" transform="translate(95.395 -5.731)" fill="#fe7062"/>
    </g>
  </g>
</svg>
