<svg xmlns="http://www.w3.org/2000/svg" width="138" height="138" viewBox="0 0 138 138">
  <g id="Grupo_57246" data-name="Grupo 57246" transform="translate(-725 -8043)">
    <circle id="Elipse_4259" data-name="Elipse 4259" cx="69" cy="69" r="69" transform="translate(725 8043)" fill="#fff"/>
    <g id="Grupo_56625" data-name="Grupo 56625" transform="translate(596.066 7811.025)">
      <path id="Trazado_120108" data-name="Trazado 120108" d="M252.233,276.073c-.433-.924-.89-1.842-1.369-2.741a59.905,59.905,0,0,0-52.442-31.867h-.958A59.91,59.91,0,0,0,145,273.332c-.481.9-.937,1.817-1.4,2.8a59.88,59.88,0,0,0,.528,51.566c.464.943.954,1.88,1.462,2.8a60.093,60.093,0,0,0,51.845,30.774l.5,0,.466,0a60.1,60.1,0,0,0,51.87-30.774q.769-1.377,1.464-2.8a59.856,59.856,0,0,0,.5-51.628Zm-51.488,22.485V278.189h25.981a84.747,84.747,0,0,1,3.03,20.369Zm46.27-20.369a53.458,53.458,0,0,1,5.128,20.369H235.38a90.98,90.98,0,0,0-2.832-20.369Zm-46.27-5.619V247.3c9.8,1.511,18.847,10.972,24.156,25.272Zm30.126,0a66.49,66.49,0,0,0-6.016-13.032,48.331,48.331,0,0,0-6.36-8.4,54.877,54.877,0,0,1,25.439,21.434Zm-30.126,53.05V304.179h29.012a84.105,84.105,0,0,1-3.34,21.441Zm23.751,5.619c-5.4,13.878-14.117,22.751-23.751,24.2v-24.2ZM218.5,351.6a48.534,48.534,0,0,0,6.353-8.392,65.985,65.985,0,0,0,5.638-11.966h12.749A55.055,55.055,0,0,1,218.5,351.6Zm13.764-25.977a90.428,90.428,0,0,0,3.115-21.441h16.763a53.417,53.417,0,0,1-5.649,21.441Zm-37.142-47.431v20.369H166.112a84.751,84.751,0,0,1,3.032-20.369Zm0-5.619H170.968c5.307-14.3,14.357-23.764,24.156-25.272Zm-24.112-13.036A66.254,66.254,0,0,0,165,272.57H151.932a54.861,54.861,0,0,1,25.441-21.434A48.357,48.357,0,0,0,171.012,259.534Zm24.112,71.705v24.2c-9.637-1.454-18.349-10.327-23.751-24.2Zm0-5.619H169.455a84.1,84.1,0,0,1-3.34-21.441h29.009Zm-31.805-47.431a91.258,91.258,0,0,0-2.828,20.369H143.722a53.422,53.422,0,0,1,5.13-20.369Zm-2.828,25.99A90.383,90.383,0,0,0,163.6,325.62H149.369a53.508,53.508,0,0,1-5.647-21.441Zm4.883,27.06a65.547,65.547,0,0,0,5.638,11.964,48.485,48.485,0,0,0,6.356,8.394,55.053,55.053,0,0,1-24.745-20.358Z" transform="translate(0 0)" fill="#57dbd8"/>
      <g id="Grupo_56624" data-name="Grupo 56624" transform="translate(143.302 241.465)">
        <g id="Grupo_56620" data-name="Grupo 56620" transform="translate(0 3.857)">
          <g id="Grupo_56615" data-name="Grupo 56615" transform="translate(0.111 74.13)">
            <path id="Trazado_120113" data-name="Trazado 120113" d="M161.793,327.559c1.461-7.87,3.261-17.606,3.773-19.908,0-.023,1.661,11.621,3.58,8.412,2.659-4.491,5.41-8.71,4.208-14.192a33.516,33.516,0,0,0-2.9-7.988.657.657,0,0,1-.171-.042c-4.141-1.23-6.149-5.672-7.24-9.509-.34-1.278-.56-3.032-1.54-3.979a5.444,5.444,0,0,0-1.54-1.281,7.526,7.526,0,0,1-1.2-.7c-.079-.065-.16-.1-.222-.148a6.684,6.684,0,0,1-1.776-.391,14.389,14.389,0,0,0-2.383,1.681c-3.9,3.347-6.133,8.428-7.64,13.217-1.658,5.2-2.429,16.441-2.42,16.663a81.984,81.984,0,0,0-1.438,16.747c0,.343,0,.836-.009,1.42Z" transform="translate(-142.876 -277.829)" fill="#ffc89f"/>
            <path id="Trazado_120114" data-name="Trazado 120114" d="M156.128,304.053a79.608,79.608,0,0,1-7.3-3.421,15.836,15.836,0,0,1-3.963-2.728c-.63-.729-1.22-1.454-1.779-2.212-.162,2.314-.208,4.639-.2,6.941,0,.343,0,.836-.009,1.42Z" transform="translate(-142.876 -254.323)" fill="#ffc89f"/>
          </g>
          <g id="Grupo_56616" data-name="Grupo 56616" transform="translate(78.07 74.13)">
            <path id="Trazado_120115" data-name="Trazado 120115" d="M184.609,307.651c.514,2.3,2.311,12.038,3.773,19.908H207.3c-.007-.584-.009-1.077-.007-1.42a80.683,80.683,0,0,0-1.424-16.747c0-.222-.757-11.459-2.409-16.663-1.549-4.789-3.749-9.87-7.638-13.217a15.23,15.23,0,0,0-2.411-1.681,6.66,6.66,0,0,1-1.76.391,2.336,2.336,0,0,1-.241.148,7.519,7.519,0,0,1-1.188.7,5.791,5.791,0,0,0-1.552,1.281c-.961.947-1.176,2.7-1.54,3.979-1.082,3.838-3.08,8.279-7.221,9.509a.646.646,0,0,1-.176.042,34.377,34.377,0,0,0-2.913,7.988c-1.179,5.482,1.57,9.7,4.231,14.192C182.967,319.272,184.609,307.628,184.609,307.651Z" transform="translate(-176.538 -277.829)" fill="#ffc89f"/>
            <path id="Trazado_120116" data-name="Trazado 120116" d="M200.74,304.482c-.007-.584-.009-1.077-.007-1.42.021-2.571-.039-5.137-.222-7.7a73.914,73.914,0,0,1-10.2,4.509c-2.233.829-4.46,1.64-6.732,2.3-.672.2-1.371.408-2.059.609.1.574.208,1.135.31,1.7Z" transform="translate(-169.979 -254.752)" fill="#ffc89f"/>
          </g>
          <path id="Trazado_120117" data-name="Trazado 120117" d="M194.606,295.893c1.378-2.513,2.742-5.042,4.071-7.606,2.559-4.8,5.51-9.528,7.342-14.7a44.269,44.269,0,0,0,1.788-6.406,83.334,83.334,0,0,0-3-8.736h-8.923l.241-1.57-39.7,1.529c-.178.73-.34,1.452-.5,2.179-.871,4.562-1.561,9.185-.4,13.74a33.142,33.142,0,0,0,3.12,8.4c1.281,2.186,2.781,4.206,4.139,6.327,2.022,3.152,3.68,6.38,5.94,9.333h24.241C193.506,297.519,194.178,296.669,194.606,295.893Z" transform="translate(-126.925 -231.268)" fill="#462b1a"/>
          <path id="Trazado_120118" data-name="Trazado 120118" d="M191.466,282.974c-.808-6.271-.609-10.612.621-17.83h-22.71c1.218,7.219,1.408,11.559.609,17.83-8.249,1.92-13.933,5.97-13.933,10.688,0,6.559,11.054,11.9,24.693,11.9,13.611,0,24.662-5.343,24.662-11.9C205.408,288.945,199.727,284.894,191.466,282.974Z" transform="translate(-125.425 -220.392)" fill="#d4a47d"/>
          <path id="Trazado_120119" data-name="Trazado 120119" d="M183.9,282.974c-.808-6.271-.609-10.612.621-17.83h-22.71c.452,2.71.787,5.019.929,7.158,2.7,5.443,8.122,6.83,12.9,10.111,1.19.887,2.758,2.237,2.758,3.55.8,4.877-.378,10.211,4.37,12.434,5.141,1.846,9.871.753,14.232-1.677a6.287,6.287,0,0,0,.841-3.059C197.837,288.945,192.156,284.894,183.9,282.974Z" transform="translate(-117.854 -220.392)" fill="#a88f7b" opacity="0.3" style="mix-blend-mode: multiply;isolation: isolate"/>
          <path id="Trazado_120120" data-name="Trazado 120120" d="M196.691,275.353c0,12.976-8.557,23.479-19.1,23.479-10.582,0-19.141-10.5-19.141-23.479s1.114-27.52,19.141-27.52C196.691,247.833,196.691,262.372,196.691,275.353Z" transform="translate(-122.27 -243.172)" fill="#ffc89f"/>
          <path id="Trazado_120121" data-name="Trazado 120121" d="M176.125,247.833c-9.3,0-14.1,3.886-16.561,9.4a11.71,11.71,0,0,1,7.842-1.461c2.02-.78,3.4-.2,4.261,1.109a15.836,15.836,0,0,1,2.087.887,21.869,21.869,0,0,1,11.793,11.471c2.219,4.88,6.519,21.29-4.859,27.043-12.941,4.108-17.631-5.6-20.542-8.013,3.421,6.341,9.28,10.561,15.98,10.561,10.542,0,19.1-10.5,19.1-23.479S195.225,247.833,176.125,247.833Z" transform="translate(-120.804 -243.172)" fill="#f0b990"/>
          <g id="Grupo_56617" data-name="Grupo 56617" transform="translate(32.852 28.113)">
            <path id="Trazado_120122" data-name="Trazado 120122" d="M162.842,262.426c.618,2.781-.1,5.31-1.661,5.681-1.519.34-3.3-1.616-3.942-4.407s.123-5.345,1.663-5.7C160.434,257.657,162.2,259.628,162.842,262.426Z" transform="translate(-157.013 -257.96)" fill="#ffc89f"/>
            <path id="Trazado_120123" data-name="Trazado 120123" d="M174.02,262.426c-.641,2.781.088,5.31,1.64,5.681,1.549.34,3.309-1.616,3.951-4.407s-.1-5.345-1.654-5.7C176.408,257.657,174.65,259.628,174.02,262.426Z" transform="translate(-134.939 -257.96)" fill="#ffc89f"/>
          </g>
          <path id="Trazado_120124" data-name="Trazado 120124" d="M164.688,318.453c.3,1.332,1.841,3.37,2.538,5.28a58.827,58.827,0,0,1,2.184,9.866h56.9a39.72,39.72,0,0,1,2.026-9.866,9.629,9.629,0,0,1,1.989-3.131c.41,2.191-.542,5.4-.06,7.925.359-.176,21.983-9.067,21.821-9.718.021-.208-2.619-14.836-4.271-20.04a40.9,40.9,0,0,0-3.409-7.978c-.1-.192-.178-.34-.248-.5a22.978,22.978,0,0,0-5.713-6.95,24.507,24.507,0,0,0-3.217-2.237c-4.051-5.313-21.3-7.865-21.3-7.865s-.44,13.954-3.78,17.011c-2.68,2.434-7.48,3.671-12.36,3.71-4.88-.039-9.7-1.276-12.381-3.71-3.342-3.057-3.756-17.011-3.756-17.011s-14.924,2.212-20.274,6.772a27.447,27.447,0,0,0-5.22,3.33,22.375,22.375,0,0,0-5.69,6.95,3.4,3.4,0,0,0-.271.5,41.429,41.429,0,0,0-3.391,7.978c-1.658,5.2-3.868,18.271-3.979,19,.959.679,20.572,10.1,20.9,10.234C164.35,324.7,164.2,321.01,164.688,318.453Z" transform="translate(-142.828 -209.739)" fill="#91b3fa"/>
          <path id="Trazado_120125" data-name="Trazado 120125" d="M205.756,309.361c-.982,1.292-2.161,2.471-3.059,3.479-2.311,2.571-4.831,5.051-6.621,8.05-1.92,3.254-2.059,1.971-3.939,5.25-1.021,3.1-19.021-.088-27.442,3.469,3.233,1.239,4.78,2.74,7.381,3.99h25.464a39.72,39.72,0,0,1,2.026-9.866,9.629,9.629,0,0,1,1.989-3.131c.41,2.191-.542,5.4-.06,7.925.359-.176,21.983-9.067,21.821-9.718.021-.208-2.619-14.836-4.271-20.04a40.9,40.9,0,0,0-3.409-7.978c-.1-.192-.178-.34-.248-.5a22.978,22.978,0,0,0-5.713-6.95,24.506,24.506,0,0,0-3.217-2.237c-4.051-5.313-21.3-7.865-21.3-7.865s-.12,3.624-.679,7.592c.178.118.359.22.537.329,2.378,1.251,4.8,2.425,7.131,3.791a58.507,58.507,0,0,1,11.793,9.391c2.478,2.427,6.658,6.285,5.676,10.262A8.676,8.676,0,0,1,205.756,309.361Z" transform="translate(-114.054 -209.739)" fill="#87a7e8"/>
          <path id="Trazado_120126" data-name="Trazado 120126" d="M213.2,275.994c-.88-8.972-3.177-16.022-9.759-22.7-1.441-1.471-11-8.032-20.362-7.434-11.459.72-13.882,7.314-13.882,7.314s-10.278.239-13.458,15.76c-1.01,4.94-1.01,9.63-1.362,14.637a54.319,54.319,0,0,0,1.362,15.086,36.355,36.355,0,0,0,4.94,12.3c1.8,2.781,13.553,1.728,15.269,4.535-10.269-17.756-10.549-37.875-7.749-46.814.088.646.19,1.248.262,1.811.2,1.887,6.306-9.3,7.7-11.073.188.12,12.789,10.494,12.041,8.967-.5-.957-1.7-5.415-2.073-6.418,3.671,1.818,7.191,3.919,8.789,6.283,5.042,7.446,7.395,26.58-2.429,48.375-.2.405,15.35-6.306,17.011-10.818A68.94,68.94,0,0,0,213.2,275.994Z" transform="translate(-127.755 -245.82)" fill="#7d4e24"/>
          <g id="Grupo_56619" data-name="Grupo 56619" transform="translate(57.59 7.259)">
            <g id="Grupo_56618" data-name="Grupo 56618">
              <path id="Trazado_120127" data-name="Trazado 120127" d="M168.858,250.71c-.38-.144-.771-.271-1.163-.391a66.605,66.605,0,0,1,13.581,12.823,52.424,52.424,0,0,0-2.812-6.915c2.272,1.028,4.423,3.509,6.343,5.1a28.138,28.138,0,0,0-11.35-12.37q2.852,2.967,5.72,5.938-2.647-1.661-5.285-3.326,1.476,1.907,2.953,3.812A25.244,25.244,0,0,0,168.858,250.71Z" transform="translate(-167.695 -248.955)" fill="#a86f3d"/>
            </g>
          </g>
        </g>
        <g id="Grupo_56623" data-name="Grupo 56623" transform="translate(26.527)">
          <g id="Grupo_56621" data-name="Grupo 56621" transform="translate(3.256 33.354)">
            <path id="Trazado_120128" data-name="Trazado 120128" d="M180.265,280.832c-14.009-1.64-24.577-11.218-24.577-22.275h1.693c0,10.2,9.921,19.053,23.081,20.593Z" transform="translate(-155.688 -258.557)" fill="#393b42"/>
          </g>
          <path id="Trazado_120129" data-name="Trazado 120129" d="M172.911,268.756a1.982,1.982,0,0,1-1.98,1.98h-4.222a1.982,1.982,0,0,1-1.98-1.98h0a1.981,1.981,0,0,1,1.98-1.98h4.222a1.981,1.981,0,0,1,1.98,1.98Z" transform="translate(-140.534 -214.387)" fill="#1a222b"/>
          <g id="Grupo_56622" data-name="Grupo 56622" transform="translate(2.659)">
            <path id="Trazado_120130" data-name="Trazado 120130" d="M207.921,267.981h-3.384c0-11.272-7.833-20.44-17.458-20.44H176.271c-9.627,0-17.455,9.169-17.455,20.44H155.43c0-13.136,9.349-23.826,20.841-23.826H187.08C198.574,244.155,207.921,254.845,207.921,267.981Z" transform="translate(-155.43 -244.155)" fill="#393b42"/>
          </g>
          <path id="Trazado_120131" data-name="Trazado 120131" d="M165.121,273.757a5.421,5.421,0,0,1-5.419,5.417h0a5.42,5.42,0,0,1-5.419-5.417V259.013a5.42,5.42,0,0,1,5.419-5.419h0a5.422,5.422,0,0,1,5.419,5.419Z" transform="translate(-154.282 -231.734)" fill="#1a222b"/>
          <path id="Trazado_120132" data-name="Trazado 120132" d="M185.454,273.757a5.42,5.42,0,0,1-5.419,5.417h0a5.42,5.42,0,0,1-5.419-5.417V259.013a5.42,5.42,0,0,1,5.419-5.419h0a5.42,5.42,0,0,1,5.419,5.419Z" transform="translate(-127.525 -231.734)" fill="#1a222b"/>
        </g>
      </g>
    </g>
  </g>
</svg>
