<svg xmlns="http://www.w3.org/2000/svg" width="604" height="473.5" viewBox="0 0 604 473.5">
  <g id="Grupo_56648" data-name="Grupo 56648" transform="translate(-492 -7367.5)">
    <g id="Grupo_56484" data-name="Grupo 56484" transform="translate(74 161)">
      <g id="Elipse_4227" data-name="Elipse 4227" transform="translate(578 7409)" fill="#fe7062" stroke="#707070" stroke-width="1">
        <circle cx="135.5" cy="135.5" r="135.5" stroke="none"/>
        <circle cx="135.5" cy="135.5" r="135" fill="none"/>
      </g>
      <g id="Elipse_4228" data-name="Elipse 4228" transform="translate(418 7449)" fill="#91b3fa" stroke="#fff" stroke-width="5">
        <ellipse cx="95" cy="95.5" rx="95" ry="95.5" stroke="none"/>
        <ellipse cx="95" cy="95.5" rx="92.5" ry="93" fill="none"/>
      </g>
      <g id="Elipse_4229" data-name="Elipse 4229" transform="translate(832 7449)" fill="#1a0f91" stroke="#fff" stroke-width="5">
        <ellipse cx="95" cy="95.5" rx="95" ry="95.5" stroke="none"/>
        <ellipse cx="95" cy="95.5" rx="92.5" ry="93" fill="none"/>
      </g>
      <g id="Elipse_4230" data-name="Elipse 4230" transform="translate(618 7287)" fill="#57dbd8" stroke="#fff" stroke-width="5">
        <ellipse cx="95.5" cy="95" rx="95.5" ry="95" stroke="none"/>
        <ellipse cx="95.5" cy="95" rx="93" ry="92.5" fill="none"/>
      </g>
      <path id="Trazado_121075" data-name="Trazado 121075" d="M-31-15.867q-.556,7.688-5.676,12.1T-50.168.654q-9.16,0-14.411-6.167t-5.251-16.93v-2.912a28.553,28.553,0,0,1,2.421-12.1A18.142,18.142,0,0,1-60.49-45.49a19.382,19.382,0,0,1,10.452-2.8q8.244,0,13.282,4.417t5.823,12.4h-9.814q-.36-4.613-2.568-6.69t-6.723-2.077a8.339,8.339,0,0,0-7.344,3.517q-2.437,3.517-2.5,10.91v3.6q0,7.721,2.339,11.287t7.377,3.566q4.547,0,6.788-2.077t2.568-6.428Zm24.078-1.57h-7.819V0h-9.814V-47.633h17.7q8.44,0,13.021,3.762t4.58,10.632a14.654,14.654,0,0,1-2.11,8.13,14.391,14.391,0,0,1-6.4,5.185L12.546-.458V0H2.012Zm-7.819-7.95h7.917A8.106,8.106,0,0,0-1.1-27.268,6.724,6.724,0,0,0,.932-32.453a7.2,7.2,0,0,0-1.914-5.3q-1.914-1.93-5.872-1.93h-7.884ZM31.03-47.633,43.265-13.086l12.17-34.547h12.89V0H58.478V-13.021L59.459-35.5,46.6,0H39.863L27.039-35.463l.981,22.442V0H18.206V-47.633Z" transform="translate(714 7566)" fill="#fff"/>
      <path id="Trazado_121073" data-name="Trazado 121073" d="M-44.607-3.223h-5.65L-51.332,0h-3.427l5.822-15.641h2.986L-40.1,0h-3.427Zm-4.78-2.61h3.91l-1.966-5.854Zm12.891-5.79.1,1.343a4.058,4.058,0,0,1,3.341-1.558,3.372,3.372,0,0,1,2.75,1.085,5.062,5.062,0,0,1,.924,3.244V0h-3.1V-7.451a2.022,2.022,0,0,0-.43-1.437,1.921,1.921,0,0,0-1.429-.447,2.135,2.135,0,0,0-1.966,1.12V0h-3.1V-11.623ZM-20.3,0a3.448,3.448,0,0,1-.312-1.042A3.756,3.756,0,0,1-23.542.215a4.127,4.127,0,0,1-2.831-.988,3.178,3.178,0,0,1-1.123-2.492A3.285,3.285,0,0,1-26.125-6.1a6.758,6.758,0,0,1,3.958-1h1.429v-.666a1.915,1.915,0,0,0-.414-1.289,1.627,1.627,0,0,0-1.305-.483,1.85,1.85,0,0,0-1.23.376,1.277,1.277,0,0,0-.446,1.031h-3.1A3.118,3.118,0,0,1-26.614-10a4.118,4.118,0,0,1,1.762-1.348,6.42,6.42,0,0,1,2.557-.489,5.073,5.073,0,0,1,3.411,1.08,3.777,3.777,0,0,1,1.262,3.035v5.038a5.557,5.557,0,0,0,.462,2.5V0Zm-2.567-2.159A2.674,2.674,0,0,0-21.6-2.465a2.011,2.011,0,0,0,.859-.822v-2H-21.9q-2.331,0-2.481,1.611l-.011.183a1.243,1.243,0,0,0,.408.956A1.586,1.586,0,0,0-22.865-2.159ZM-11.961,0h-3.115V-16.5h3.115Zm5.833,0H-9.244V-11.623h3.115Zm-3.3-14.631a1.529,1.529,0,0,1,.467-1.149,1.755,1.755,0,0,1,1.273-.451,1.759,1.759,0,0,1,1.268.451,1.52,1.52,0,0,1,.473,1.149,1.524,1.524,0,0,1-.478,1.16,1.764,1.764,0,0,1-1.262.451,1.764,1.764,0,0,1-1.262-.451A1.524,1.524,0,0,1-9.426-14.631ZM-.005-2.5H5.677V0H-3.969V-1.891L1.5-9.12H-3.808v-2.5H5.505v1.829ZM14.357,0a3.447,3.447,0,0,1-.312-1.042A3.756,3.756,0,0,1,11.113.215,4.127,4.127,0,0,1,8.282-.773,3.178,3.178,0,0,1,7.16-3.266,3.285,3.285,0,0,1,8.529-6.1a6.758,6.758,0,0,1,3.958-1h1.429v-.666A1.915,1.915,0,0,0,13.5-9.056,1.627,1.627,0,0,0,12.2-9.539a1.85,1.85,0,0,0-1.23.376,1.277,1.277,0,0,0-.446,1.031h-3.1A3.118,3.118,0,0,1,8.041-10,4.118,4.118,0,0,1,9.8-11.349a6.42,6.42,0,0,1,2.557-.489,5.073,5.073,0,0,1,3.411,1.08,3.777,3.777,0,0,1,1.262,3.035v5.038a5.557,5.557,0,0,0,.462,2.5V0ZM11.79-2.159a2.674,2.674,0,0,0,1.268-.306,2.011,2.011,0,0,0,.859-.822v-2h-1.16q-2.331,0-2.481,1.611l-.011.183a1.243,1.243,0,0,0,.408.956A1.586,1.586,0,0,0,11.79-2.159ZM25.948-8.712A8.434,8.434,0,0,0,24.831-8.8a2.274,2.274,0,0,0-2.31,1.192V0h-3.1V-11.623h2.933l.086,1.386a2.877,2.877,0,0,1,2.589-1.6,3.253,3.253,0,0,1,.967.14ZM39.655,0a3.447,3.447,0,0,1-.312-1.042A3.756,3.756,0,0,1,36.411.215,4.127,4.127,0,0,1,33.58-.773a3.178,3.178,0,0,1-1.123-2.492A3.285,3.285,0,0,1,33.827-6.1a6.758,6.758,0,0,1,3.958-1h1.429v-.666A1.915,1.915,0,0,0,38.8-9.056,1.627,1.627,0,0,0,37.5-9.539a1.85,1.85,0,0,0-1.23.376,1.277,1.277,0,0,0-.446,1.031h-3.1A3.119,3.119,0,0,1,33.338-10,4.118,4.118,0,0,1,35.1-11.349a6.42,6.42,0,0,1,2.557-.489,5.073,5.073,0,0,1,3.411,1.08A3.777,3.777,0,0,1,42.33-7.724v5.038a5.557,5.557,0,0,0,.462,2.5V0ZM37.087-2.159a2.674,2.674,0,0,0,1.268-.306,2.011,2.011,0,0,0,.859-.822v-2h-1.16q-2.331,0-2.481,1.611l-.011.183a1.243,1.243,0,0,0,.408.956A1.586,1.586,0,0,0,37.087-2.159ZM47.991,0H44.875V-16.5h3.115ZM-21.125,20.79a5.535,5.535,0,0,1-1.864,3.975,6.546,6.546,0,0,1-4.431,1.45,5.886,5.886,0,0,1-4.732-2.025,8.3,8.3,0,0,1-1.724-5.559v-.956a9.376,9.376,0,0,1,.795-3.975,5.957,5.957,0,0,1,2.272-2.637,6.364,6.364,0,0,1,3.432-.918,6.376,6.376,0,0,1,4.361,1.45A5.948,5.948,0,0,1-21.1,15.666h-3.223a3.266,3.266,0,0,0-.843-2.2,3.123,3.123,0,0,0-2.208-.682,2.738,2.738,0,0,0-2.412,1.155,6.472,6.472,0,0,0-.822,3.583v1.182a6.927,6.927,0,0,0,.768,3.706,2.687,2.687,0,0,0,2.422,1.171A3.182,3.182,0,0,0-25.19,22.9a3.081,3.081,0,0,0,.843-2.111ZM-15.936,26h-3.115V9.5h3.115Zm5.833,0h-3.115V14.377H-10.1Zm-3.3-14.631a1.529,1.529,0,0,1,.467-1.149,1.755,1.755,0,0,1,1.273-.451,1.759,1.759,0,0,1,1.268.451,1.52,1.52,0,0,1,.473,1.149,1.524,1.524,0,0,1-.478,1.16,1.764,1.764,0,0,1-1.262.451,1.764,1.764,0,0,1-1.262-.451A1.524,1.524,0,0,1-13.4,11.369ZM-2.2,26.215a5.706,5.706,0,0,1-4.163-1.568,5.575,5.575,0,0,1-1.606-4.179v-.3a7.021,7.021,0,0,1,.677-3.131,4.967,4.967,0,0,1,1.917-2.127,5.382,5.382,0,0,1,2.831-.747,4.824,4.824,0,0,1,3.754,1.5,6.111,6.111,0,0,1,1.37,4.265V21.2h-7.4a2.884,2.884,0,0,0,.908,1.826,2.744,2.744,0,0,0,1.917.688,3.351,3.351,0,0,0,2.8-1.3L2.336,24.12A4.66,4.66,0,0,1,.446,25.662,6.2,6.2,0,0,1-2.2,26.215Zm-.354-9.55a1.94,1.94,0,0,0-1.5.626,3.241,3.241,0,0,0-.736,1.791H-.467v-.248a2.311,2.311,0,0,0-.559-1.6A2,2,0,0,0-2.551,16.665ZM7.2,14.377l.1,1.343a4.058,4.058,0,0,1,3.341-1.558,3.372,3.372,0,0,1,2.75,1.085,5.062,5.062,0,0,1,.924,3.244V26h-3.1V18.549a2.022,2.022,0,0,0-.43-1.437,1.921,1.921,0,0,0-1.429-.447,2.135,2.135,0,0,0-1.966,1.12V26h-3.1V14.377ZM20.383,11.52v2.857h1.987v2.277H20.383v5.8a1.385,1.385,0,0,0,.247.924,1.241,1.241,0,0,0,.945.279,4.951,4.951,0,0,0,.913-.075v2.353a6.391,6.391,0,0,1-1.88.279q-3.266,0-3.33-3.3V16.654h-1.7V14.377h1.7V11.52Zm9.066,14.7a5.706,5.706,0,0,1-4.163-1.568,5.575,5.575,0,0,1-1.606-4.179v-.3a7.021,7.021,0,0,1,.677-3.131,4.967,4.967,0,0,1,1.917-2.127,5.382,5.382,0,0,1,2.831-.747,4.824,4.824,0,0,1,3.754,1.5,6.111,6.111,0,0,1,1.37,4.265V21.2h-7.4a2.884,2.884,0,0,0,.908,1.826,2.744,2.744,0,0,0,1.917.688,3.351,3.351,0,0,0,2.8-1.3l1.525,1.708a4.66,4.66,0,0,1-1.891,1.542A6.2,6.2,0,0,1,29.45,26.215Zm-.354-9.55a1.94,1.94,0,0,0-1.5.626,3.241,3.241,0,0,0-.736,1.791h4.318v-.248a2.311,2.311,0,0,0-.559-1.6A2,2,0,0,0,29.1,16.665Z" transform="translate(710 7376)" fill="#12263f"/>
      <path id="Trazado_121076" data-name="Trazado 121076" d="M-23.246-3.223H-28.9L-29.971,0H-33.4l5.822-15.641h2.986L-18.734,0h-3.427Zm-4.78-2.61h3.91l-1.966-5.854Zm14.083-8.647v2.857h1.987v2.277h-1.987v5.8a1.385,1.385,0,0,0,.247.924,1.241,1.241,0,0,0,.945.279,4.951,4.951,0,0,0,.913-.075V-.064a6.391,6.391,0,0,1-1.88.279q-3.266,0-3.33-3.3V-9.346h-1.7v-2.277h1.7V-14.48ZM-3.7-8.712A8.434,8.434,0,0,0-4.812-8.8a2.274,2.274,0,0,0-2.31,1.192V0h-3.1V-11.623h2.933l.086,1.386a2.877,2.877,0,0,1,2.589-1.6,3.253,3.253,0,0,1,.967.14ZM4.211,0A3.447,3.447,0,0,1,3.9-1.042,3.756,3.756,0,0,1,.967.215,4.127,4.127,0,0,1-1.864-.773,3.178,3.178,0,0,1-2.986-3.266,3.285,3.285,0,0,1-1.617-6.1a6.758,6.758,0,0,1,3.958-1H3.771v-.666a1.915,1.915,0,0,0-.414-1.289,1.627,1.627,0,0,0-1.305-.483,1.85,1.85,0,0,0-1.23.376A1.277,1.277,0,0,0,.376-8.132h-3.1A3.118,3.118,0,0,1-2.105-10,4.118,4.118,0,0,1-.344-11.349a6.42,6.42,0,0,1,2.557-.489,5.073,5.073,0,0,1,3.411,1.08A3.777,3.777,0,0,1,6.886-7.724v5.038a5.557,5.557,0,0,0,.462,2.5V0ZM1.644-2.159a2.674,2.674,0,0,0,1.268-.306,2.011,2.011,0,0,0,.859-.822v-2H2.61Q.279-5.285.129-3.674l-.011.183a1.243,1.243,0,0,0,.408.956A1.586,1.586,0,0,0,1.644-2.159ZM14.62.215a5.706,5.706,0,0,1-4.163-1.568A5.575,5.575,0,0,1,8.852-5.532v-.3a7.021,7.021,0,0,1,.677-3.131,4.967,4.967,0,0,1,1.917-2.127,5.382,5.382,0,0,1,2.831-.747,4.824,4.824,0,0,1,3.754,1.5A6.111,6.111,0,0,1,19.4-6.069V-4.8H12a2.884,2.884,0,0,0,.908,1.826,2.744,2.744,0,0,0,1.917.688,3.351,3.351,0,0,0,2.8-1.3L19.153-1.88A4.66,4.66,0,0,1,17.263-.338,6.2,6.2,0,0,1,14.62.215Zm-.354-9.55a1.94,1.94,0,0,0-1.5.626,3.241,3.241,0,0,0-.736,1.791H16.35v-.248a2.311,2.311,0,0,0-.559-1.6A2,2,0,0,0,14.266-9.335Zm13.428.623A8.434,8.434,0,0,0,26.576-8.8a2.274,2.274,0,0,0-2.31,1.192V0h-3.1V-11.623h2.933l.086,1.386a2.877,2.877,0,0,1,2.589-1.6,3.253,3.253,0,0,1,.967.14ZM-36.964,26a3.447,3.447,0,0,1-.312-1.042,3.756,3.756,0,0,1-2.933,1.257,4.127,4.127,0,0,1-2.831-.988,3.178,3.178,0,0,1-1.123-2.492,3.285,3.285,0,0,1,1.37-2.836,6.758,6.758,0,0,1,3.958-1H-37.4v-.666a1.915,1.915,0,0,0-.414-1.289,1.627,1.627,0,0,0-1.305-.483,1.85,1.85,0,0,0-1.23.376,1.277,1.277,0,0,0-.446,1.031h-3.1A3.118,3.118,0,0,1-43.28,16a4.118,4.118,0,0,1,1.762-1.348,6.42,6.42,0,0,1,2.557-.489,5.073,5.073,0,0,1,3.411,1.08,3.777,3.777,0,0,1,1.262,3.035v5.038a5.557,5.557,0,0,0,.462,2.5V26Zm-2.567-2.159a2.674,2.674,0,0,0,1.268-.306,2.011,2.011,0,0,0,.859-.822v-2h-1.16q-2.331,0-2.481,1.611l-.011.183a1.243,1.243,0,0,0,.408.956A1.586,1.586,0,0,0-39.531,23.841ZM-28.628,26h-3.115V9.5h3.115Zm12.869-2.288a2.036,2.036,0,0,0,1.4-.473,1.656,1.656,0,0,0,.559-1.257h2.911a3.982,3.982,0,0,1-.645,2.165,4.253,4.253,0,0,1-1.735,1.525,5.43,5.43,0,0,1-2.433.542,5.046,5.046,0,0,1-3.932-1.584,6.27,6.27,0,0,1-1.439-4.377v-.2a6.2,6.2,0,0,1,1.429-4.286,4.987,4.987,0,0,1,3.921-1.6,4.889,4.889,0,0,1,3.5,1.241,4.393,4.393,0,0,1,1.337,3.3H-13.8a2.133,2.133,0,0,0-.559-1.474,1.862,1.862,0,0,0-1.418-.567,1.87,1.87,0,0,0-1.638.791,4.583,4.583,0,0,0-.553,2.566v.323a4.641,4.641,0,0,0,.548,2.582A1.893,1.893,0,0,0-15.759,23.712ZM-5.844,26H-8.959V9.5h3.115Zm5.833,0H-3.126V14.377H-.011Zm-3.3-14.631a1.529,1.529,0,0,1,.467-1.149,1.755,1.755,0,0,1,1.273-.451A1.759,1.759,0,0,1-.3,10.22a1.52,1.52,0,0,1,.473,1.149,1.524,1.524,0,0,1-.478,1.16,1.764,1.764,0,0,1-1.262.451,1.764,1.764,0,0,1-1.262-.451A1.524,1.524,0,0,1-3.309,11.369ZM7.9,26.215a5.706,5.706,0,0,1-4.163-1.568,5.575,5.575,0,0,1-1.606-4.179v-.3A7.021,7.021,0,0,1,2.8,17.036a4.967,4.967,0,0,1,1.917-2.127,5.382,5.382,0,0,1,2.831-.747,4.824,4.824,0,0,1,3.754,1.5,6.111,6.111,0,0,1,1.37,4.265V21.2h-7.4a2.884,2.884,0,0,0,.908,1.826,2.744,2.744,0,0,0,1.917.688,3.351,3.351,0,0,0,2.8-1.3l1.525,1.708a4.66,4.66,0,0,1-1.891,1.542A6.2,6.2,0,0,1,7.9,26.215Zm-.354-9.55a1.94,1.94,0,0,0-1.5.626,3.241,3.241,0,0,0-.736,1.791H9.625v-.248a2.311,2.311,0,0,0-.559-1.6A2,2,0,0,0,7.541,16.665Zm9.754-2.288.1,1.343a4.058,4.058,0,0,1,3.341-1.558,3.372,3.372,0,0,1,2.75,1.085,5.062,5.062,0,0,1,.924,3.244V26H21.3V18.549a2.022,2.022,0,0,0-.43-1.437,1.921,1.921,0,0,0-1.429-.447,2.135,2.135,0,0,0-1.966,1.12V26h-3.1V14.377ZM30.476,11.52v2.857h1.987v2.277H30.476v5.8a1.385,1.385,0,0,0,.247.924,1.241,1.241,0,0,0,.945.279,4.951,4.951,0,0,0,.913-.075v2.353a6.391,6.391,0,0,1-1.88.279q-3.266,0-3.33-3.3V16.654h-1.7V14.377h1.7V11.52Zm9.066,14.7a5.706,5.706,0,0,1-4.163-1.568,5.575,5.575,0,0,1-1.606-4.179v-.3a7.021,7.021,0,0,1,.677-3.131,4.967,4.967,0,0,1,1.917-2.127,5.382,5.382,0,0,1,2.831-.747,4.824,4.824,0,0,1,3.754,1.5,6.111,6.111,0,0,1,1.37,4.265V21.2h-7.4a2.884,2.884,0,0,0,.908,1.826,2.744,2.744,0,0,0,1.917.688,3.351,3.351,0,0,0,2.8-1.3l1.525,1.708a4.66,4.66,0,0,1-1.891,1.542A6.2,6.2,0,0,1,39.542,26.215Zm-.354-9.55a1.94,1.94,0,0,0-1.5.626,3.241,3.241,0,0,0-.736,1.791h4.318v-.248a2.311,2.311,0,0,0-.559-1.6A2,2,0,0,0,39.188,16.665Z" transform="translate(925 7538)" fill="#fff"/>
      <path id="Trazado_121074" data-name="Trazado 121074" d="M-47.228-5.726H-49.8V0h-3.223V-15.641h5.812a6.57,6.57,0,0,1,4.275,1.235,4.264,4.264,0,0,1,1.5,3.491,4.812,4.812,0,0,1-.693,2.669,4.725,4.725,0,0,1-2.1,1.7L-40.836-.15V0H-44.3ZM-49.8-8.336h2.6a2.662,2.662,0,0,0,1.88-.618,2.208,2.208,0,0,0,.666-1.7,2.363,2.363,0,0,0-.628-1.74,2.612,2.612,0,0,0-1.928-.634H-49.8ZM-33.833.215A5.706,5.706,0,0,1-38-1.354,5.575,5.575,0,0,1-39.6-5.532v-.3a7.021,7.021,0,0,1,.677-3.131,4.967,4.967,0,0,1,1.917-2.127,5.382,5.382,0,0,1,2.831-.747,4.824,4.824,0,0,1,3.754,1.5,6.111,6.111,0,0,1,1.37,4.265V-4.8h-7.4a2.884,2.884,0,0,0,.908,1.826,2.744,2.744,0,0,0,1.917.688,3.351,3.351,0,0,0,2.8-1.3L-29.3-1.88A4.66,4.66,0,0,1-31.19-.338,6.2,6.2,0,0,1-33.833.215Zm-.354-9.55a1.94,1.94,0,0,0-1.5.626,3.241,3.241,0,0,0-.736,1.791H-32.1v-.248a2.311,2.311,0,0,0-.559-1.6A2,2,0,0,0-34.187-9.335ZM-24.014,0h-3.115V-16.5h3.115Zm9.292,0a3.447,3.447,0,0,1-.312-1.042A3.756,3.756,0,0,1-17.966.215,4.127,4.127,0,0,1-20.8-.773a3.178,3.178,0,0,1-1.123-2.492A3.285,3.285,0,0,1-20.55-6.1a6.758,6.758,0,0,1,3.958-1h1.429v-.666a1.915,1.915,0,0,0-.414-1.289,1.627,1.627,0,0,0-1.305-.483,1.85,1.85,0,0,0-1.23.376,1.277,1.277,0,0,0-.446,1.031h-3.1A3.118,3.118,0,0,1-21.039-10a4.118,4.118,0,0,1,1.762-1.348,6.42,6.42,0,0,1,2.557-.489,5.073,5.073,0,0,1,3.411,1.08,3.777,3.777,0,0,1,1.262,3.035v5.038a5.557,5.557,0,0,0,.462,2.5V0ZM-17.29-2.159a2.674,2.674,0,0,0,1.268-.306,2.011,2.011,0,0,0,.859-.822v-2h-1.16q-2.331,0-2.481,1.611l-.011.183a1.243,1.243,0,0,0,.408.956A1.586,1.586,0,0,0-17.29-2.159Zm12.461-.129a2.036,2.036,0,0,0,1.4-.473,1.656,1.656,0,0,0,.559-1.257H.038A3.982,3.982,0,0,1-.607-1.853,4.253,4.253,0,0,1-2.342-.328,5.43,5.43,0,0,1-4.775.215,5.046,5.046,0,0,1-8.707-1.37a6.27,6.27,0,0,1-1.439-4.377v-.2a6.2,6.2,0,0,1,1.429-4.286,4.987,4.987,0,0,1,3.921-1.6A4.889,4.889,0,0,1-1.3-10.6a4.393,4.393,0,0,1,1.337,3.3H-2.874a2.133,2.133,0,0,0-.559-1.474A1.862,1.862,0,0,0-4.85-9.335a1.87,1.87,0,0,0-1.638.791,4.583,4.583,0,0,0-.553,2.566v.323a4.641,4.641,0,0,0,.548,2.582A1.893,1.893,0,0,0-4.829-2.288ZM5.086,0H1.971V-11.623H5.086Zm-3.3-14.631a1.529,1.529,0,0,1,.467-1.149,1.755,1.755,0,0,1,1.273-.451A1.759,1.759,0,0,1,4.8-15.78a1.52,1.52,0,0,1,.473,1.149,1.524,1.524,0,0,1-.478,1.16,1.764,1.764,0,0,1-1.262.451,1.764,1.764,0,0,1-1.262-.451A1.524,1.524,0,0,1,1.789-14.631ZM7.16-5.919A6.893,6.893,0,0,1,7.826-9,4.876,4.876,0,0,1,9.743-11.1a5.594,5.594,0,0,1,2.906-.741,5.293,5.293,0,0,1,3.84,1.439,5.777,5.777,0,0,1,1.66,3.91l.021.795A6.075,6.075,0,0,1,16.677-1.4,5.19,5.19,0,0,1,12.67.215,5.216,5.216,0,0,1,8.658-1.4a6.182,6.182,0,0,1-1.5-4.383Zm3.1.22a4.345,4.345,0,0,0,.623,2.534,2.055,2.055,0,0,0,1.783.877,2.06,2.06,0,0,0,1.762-.866,4.754,4.754,0,0,0,.634-2.77,4.3,4.3,0,0,0-.634-2.518,2.06,2.06,0,0,0-1.783-.893,2.027,2.027,0,0,0-1.762.888A4.834,4.834,0,0,0,10.264-5.7ZM22.94-11.623l.1,1.343a4.058,4.058,0,0,1,3.341-1.558,3.372,3.372,0,0,1,2.75,1.085,5.062,5.062,0,0,1,.924,3.244V0h-3.1V-7.451a2.022,2.022,0,0,0-.43-1.437,1.921,1.921,0,0,0-1.429-.447,2.135,2.135,0,0,0-1.966,1.12V0h-3.1V-11.623ZM37.753.215a5.706,5.706,0,0,1-4.163-1.568,5.575,5.575,0,0,1-1.606-4.179v-.3a7.021,7.021,0,0,1,.677-3.131,4.967,4.967,0,0,1,1.917-2.127,5.382,5.382,0,0,1,2.831-.747,4.824,4.824,0,0,1,3.754,1.5,6.111,6.111,0,0,1,1.37,4.265V-4.8h-7.4a2.884,2.884,0,0,0,.908,1.826,2.744,2.744,0,0,0,1.917.688,3.351,3.351,0,0,0,2.8-1.3L42.287-1.88A4.66,4.66,0,0,1,40.4-.338,6.2,6.2,0,0,1,37.753.215ZM37.4-9.335a1.94,1.94,0,0,0-1.5.626,3.241,3.241,0,0,0-.736,1.791h4.318v-.248a2.311,2.311,0,0,0-.559-1.6A2,2,0,0,0,37.4-9.335ZM50.59-3.212a1,1,0,0,0-.564-.9,6.406,6.406,0,0,0-1.81-.585q-4.146-.87-4.146-3.523A3.194,3.194,0,0,1,45.354-10.8a5.178,5.178,0,0,1,3.357-1.037A5.573,5.573,0,0,1,52.25-10.8a3.284,3.284,0,0,1,1.327,2.707h-3.1a1.5,1.5,0,0,0-.43-1.1A1.818,1.818,0,0,0,48.7-9.625a1.858,1.858,0,0,0-1.214.354,1.119,1.119,0,0,0-.43.9.957.957,0,0,0,.489.833,5.028,5.028,0,0,0,1.649.548,13.468,13.468,0,0,1,1.955.521,3.212,3.212,0,0,1,2.46,3.126A3.032,3.032,0,0,1,52.245-.768a5.885,5.885,0,0,1-3.523.983,6.147,6.147,0,0,1-2.594-.521,4.353,4.353,0,0,1-1.778-1.429A3.32,3.32,0,0,1,43.7-3.7h2.943a1.621,1.621,0,0,0,.612,1.268,2.429,2.429,0,0,0,1.525.44,2.248,2.248,0,0,0,1.348-.338A1.053,1.053,0,0,0,50.59-3.212ZM-59.77,23.712a2.036,2.036,0,0,0,1.4-.473,1.656,1.656,0,0,0,.559-1.257H-54.9a3.982,3.982,0,0,1-.645,2.165,4.253,4.253,0,0,1-1.735,1.525,5.43,5.43,0,0,1-2.433.542,5.046,5.046,0,0,1-3.932-1.584,6.27,6.27,0,0,1-1.439-4.377v-.2a6.2,6.2,0,0,1,1.429-4.286,4.987,4.987,0,0,1,3.921-1.6,4.889,4.889,0,0,1,3.5,1.241,4.393,4.393,0,0,1,1.337,3.3h-2.911a2.133,2.133,0,0,0-.559-1.474,1.862,1.862,0,0,0-1.418-.567,1.87,1.87,0,0,0-1.638.791,4.583,4.583,0,0,0-.553,2.566v.323a4.641,4.641,0,0,0,.548,2.582A1.893,1.893,0,0,0-59.77,23.712Zm6.155-3.631A6.893,6.893,0,0,1-52.948,17,4.876,4.876,0,0,1-51.031,14.9a5.594,5.594,0,0,1,2.906-.741,5.293,5.293,0,0,1,3.84,1.439,5.777,5.777,0,0,1,1.66,3.91l.021.795A6.075,6.075,0,0,1-44.1,24.6,5.19,5.19,0,0,1-48.1,26.215,5.216,5.216,0,0,1-52.116,24.6a6.182,6.182,0,0,1-1.5-4.383Zm3.1.22a4.345,4.345,0,0,0,.623,2.534,2.055,2.055,0,0,0,1.783.877,2.06,2.06,0,0,0,1.762-.866,4.754,4.754,0,0,0,.634-2.77,4.3,4.3,0,0,0-.634-2.518,2.06,2.06,0,0,0-1.783-.893,2.027,2.027,0,0,0-1.762.888A4.834,4.834,0,0,0-50.51,20.3Zm12.676-5.924.1,1.343A4.058,4.058,0,0,1-34.4,14.162a3.372,3.372,0,0,1,2.75,1.085,5.062,5.062,0,0,1,.924,3.244V26h-3.1V18.549a2.022,2.022,0,0,0-.43-1.437,1.921,1.921,0,0,0-1.429-.447,2.135,2.135,0,0,0-1.966,1.12V26h-3.1V14.377Zm20.292,11.838A5.706,5.706,0,0,1-21.7,24.646a5.575,5.575,0,0,1-1.606-4.179v-.3a7.021,7.021,0,0,1,.677-3.131,4.967,4.967,0,0,1,1.917-2.127,5.382,5.382,0,0,1,2.831-.747,4.824,4.824,0,0,1,3.754,1.5,6.111,6.111,0,0,1,1.37,4.265V21.2h-7.4a2.884,2.884,0,0,0,.908,1.826,2.744,2.744,0,0,0,1.917.688,3.351,3.351,0,0,0,2.8-1.3l1.525,1.708A4.66,4.66,0,0,1-14.9,25.662,6.2,6.2,0,0,1-17.542,26.215Zm-.354-9.55a1.94,1.94,0,0,0-1.5.626,3.241,3.241,0,0,0-.736,1.791h4.318v-.248a2.311,2.311,0,0,0-.559-1.6A2,2,0,0,0-17.9,16.665ZM-7.724,26h-3.115V9.5h3.115ZM5.146,23.712a2.036,2.036,0,0,0,1.4-.473A1.656,1.656,0,0,0,7.1,21.982h2.911a3.982,3.982,0,0,1-.645,2.165,4.253,4.253,0,0,1-1.735,1.525,5.43,5.43,0,0,1-2.433.542A5.046,5.046,0,0,1,1.268,24.63,6.27,6.27,0,0,1-.172,20.253v-.2a6.2,6.2,0,0,1,1.429-4.286,4.987,4.987,0,0,1,3.921-1.6,4.889,4.889,0,0,1,3.5,1.241,4.393,4.393,0,0,1,1.337,3.3H7.1a2.133,2.133,0,0,0-.559-1.474,1.862,1.862,0,0,0-1.418-.567,1.87,1.87,0,0,0-1.638.791,4.583,4.583,0,0,0-.553,2.566v.323a4.641,4.641,0,0,0,.548,2.582A1.893,1.893,0,0,0,5.146,23.712ZM15.061,26H11.945V9.5h3.115Zm5.833,0H17.778V14.377h3.115ZM17.6,11.369a1.529,1.529,0,0,1,.467-1.149,2.014,2.014,0,0,1,2.541,0,1.64,1.64,0,0,1-.005,2.31,1.991,1.991,0,0,1-2.524,0A1.524,1.524,0,0,1,17.6,11.369ZM28.8,26.215a5.706,5.706,0,0,1-4.163-1.568,5.575,5.575,0,0,1-1.606-4.179v-.3a7.021,7.021,0,0,1,.677-3.131,4.967,4.967,0,0,1,1.917-2.127,5.382,5.382,0,0,1,2.831-.747,4.824,4.824,0,0,1,3.754,1.5,6.111,6.111,0,0,1,1.37,4.265V21.2h-7.4a2.884,2.884,0,0,0,.908,1.826A2.744,2.744,0,0,0,29,23.712a3.351,3.351,0,0,0,2.8-1.3l1.525,1.708a4.66,4.66,0,0,1-1.891,1.542A6.2,6.2,0,0,1,28.8,26.215Zm-.354-9.55a1.94,1.94,0,0,0-1.5.626,3.241,3.241,0,0,0-.736,1.791h4.318v-.248a2.311,2.311,0,0,0-.559-1.6A2,2,0,0,0,28.445,16.665ZM38.2,14.377l.1,1.343a4.058,4.058,0,0,1,3.341-1.558,3.372,3.372,0,0,1,2.75,1.085,5.062,5.062,0,0,1,.924,3.244V26h-3.1V18.549a2.022,2.022,0,0,0-.43-1.437,1.921,1.921,0,0,0-1.429-.447,2.135,2.135,0,0,0-1.966,1.12V26h-3.1V14.377ZM51.38,11.52v2.857h1.987v2.277H51.38v5.8a1.385,1.385,0,0,0,.247.924,1.241,1.241,0,0,0,.945.279,4.951,4.951,0,0,0,.913-.075v2.353a6.391,6.391,0,0,1-1.88.279q-3.266,0-3.33-3.3V16.654h-1.7V14.377h1.7V11.52Zm9.066,14.7a5.706,5.706,0,0,1-4.163-1.568,5.575,5.575,0,0,1-1.606-4.179v-.3a7.021,7.021,0,0,1,.677-3.131,4.967,4.967,0,0,1,1.917-2.127,5.382,5.382,0,0,1,2.831-.747,4.824,4.824,0,0,1,3.754,1.5,6.111,6.111,0,0,1,1.37,4.265V21.2h-7.4a2.884,2.884,0,0,0,.908,1.826,2.744,2.744,0,0,0,1.917.688,3.351,3.351,0,0,0,2.8-1.3l1.525,1.708a4.66,4.66,0,0,1-1.891,1.542A6.2,6.2,0,0,1,60.446,26.215Zm-.354-9.55a1.94,1.94,0,0,0-1.5.626,3.241,3.241,0,0,0-.736,1.791h4.318v-.248a2.311,2.311,0,0,0-.559-1.6A2,2,0,0,0,60.092,16.665Z" transform="translate(510 7538)" fill="#12263f"/>
    </g>
    <g id="Grupo_56485" data-name="Grupo 56485" transform="translate(-50 -105)">
      <path id="Trazado_121072" data-name="Trazado 121072" d="M241.048,12.658V17h-3.085V4.2h5.106a5.948,5.948,0,0,1,2.6.541,4.074,4.074,0,0,1,1.749,1.538,4.2,4.2,0,0,1,.62,2.263,3.7,3.7,0,0,1-1.34,2.993,5.561,5.561,0,0,1-3.678,1.121Zm0-2.382h2.021a1.906,1.906,0,0,0,1.367-.448,1.665,1.665,0,0,0,.47-1.266,2.059,2.059,0,0,0-.483-1.433,1.712,1.712,0,0,0-1.318-.545h-2.057ZM252.667,17H249.7V7.49h2.971ZM249.521,5.029a1.334,1.334,0,0,1,.457-1.043,1.934,1.934,0,0,1,2.373,0,1.334,1.334,0,0,1,.457,1.043,1.334,1.334,0,0,1-.457,1.043,1.934,1.934,0,0,1-2.373,0A1.334,1.334,0,0,1,249.521,5.029ZM257.615,17h-2.971V3.5h2.971Zm7.181,0a3.344,3.344,0,0,1-.281-.853,2.754,2.754,0,0,1-2.285,1.028,3.374,3.374,0,0,1-2.285-.813,2.588,2.588,0,0,1-.94-2.043,2.66,2.66,0,0,1,1.143-2.338,5.821,5.821,0,0,1,3.322-.791h.914v-.5q0-1.316-1.134-1.316a.927.927,0,0,0-1.055,1.042h-2.962a2.655,2.655,0,0,1,1.173-2.239,4.931,4.931,0,0,1,2.993-.86,4.323,4.323,0,0,1,2.874.888,3.086,3.086,0,0,1,1.081,2.435v4.21a4.311,4.311,0,0,0,.4,2V17Zm-1.854-1.934a1.652,1.652,0,0,0,.918-.237,1.487,1.487,0,0,0,.523-.536V12.772h-.861q-1.547,0-1.547,1.389a.848.848,0,0,0,.272.655A.986.986,0,0,0,262.941,15.066Zm11.8-4.9-.976-.07a1.752,1.752,0,0,0-1.793.879V17h-2.962V7.49h2.777l.1,1.222a2.294,2.294,0,0,1,2.083-1.4,2.888,2.888,0,0,1,.826.105Zm5.5,7a4.889,4.889,0,0,1-3.542-1.305,4.507,4.507,0,0,1-1.354-3.4v-.246a5.84,5.84,0,0,1,.541-2.575,3.955,3.955,0,0,1,1.578-1.727,4.763,4.763,0,0,1,2.461-.611,4.117,4.117,0,0,1,3.164,1.244,4.887,4.887,0,0,1,1.16,3.467v1.151h-5.889a2.135,2.135,0,0,0,.694,1.257,2.066,2.066,0,0,0,1.389.457,2.662,2.662,0,0,0,2.2-.984l1.354,1.6a3.784,3.784,0,0,1-1.569,1.217A5.3,5.3,0,0,1,280.247,17.176ZM279.913,9.6q-1.3,0-1.547,1.723h2.988v-.229a1.467,1.467,0,0,0-.36-1.1A1.434,1.434,0,0,0,279.913,9.6Zm10.512,4.729a.684.684,0,0,0-.4-.606,6.016,6.016,0,0,0-1.5-.475A6.853,6.853,0,0,1,286.7,12.6a3.062,3.062,0,0,1-1.1-.971,2.319,2.319,0,0,1-.378-1.31A2.628,2.628,0,0,1,286.3,8.163a4.453,4.453,0,0,1,2.83-.848,4.934,4.934,0,0,1,3.023.853,2.666,2.666,0,0,1,1.143,2.241h-2.971q0-1.143-1.2-1.143a1.194,1.194,0,0,0-.782.259.8.8,0,0,0-.316.646.737.737,0,0,0,.387.642,3.654,3.654,0,0,0,1.235.4,10.671,10.671,0,0,1,1.49.378,2.706,2.706,0,0,1,2.145,2.646,2.491,2.491,0,0,1-1.156,2.118,5.068,5.068,0,0,1-2.993.817,5.172,5.172,0,0,1-2.18-.439,3.645,3.645,0,0,1-1.494-1.2,2.707,2.707,0,0,1-.536-1.591h2.769a1.145,1.145,0,0,0,.439.962,1.808,1.808,0,0,0,1.081.3,1.422,1.422,0,0,0,.91-.246A.787.787,0,0,0,290.425,14.328Zm8.35-2.153a5.809,5.809,0,0,1,.976-3.56,3.211,3.211,0,0,1,2.725-1.3,2.731,2.731,0,0,1,2.145,1V3.5h2.971V17h-2.663l-.149-1.02a2.8,2.8,0,0,1-2.32,1.2,3.205,3.205,0,0,1-2.689-1.3A5.993,5.993,0,0,1,298.774,12.175Zm2.962.185q0,2.531,1.477,2.531a1.458,1.458,0,0,0,1.406-.826V10.443A1.419,1.419,0,0,0,303.23,9.6q-1.371,0-1.485,2.215Zm12.138,4.816a4.889,4.889,0,0,1-3.542-1.305,4.507,4.507,0,0,1-1.354-3.4v-.246a5.84,5.84,0,0,1,.541-2.575A3.955,3.955,0,0,1,311.1,7.925a4.763,4.763,0,0,1,2.461-.611,4.117,4.117,0,0,1,3.164,1.244,4.887,4.887,0,0,1,1.16,3.467v1.151h-5.889a2.135,2.135,0,0,0,.694,1.257,2.066,2.066,0,0,0,1.389.457,2.662,2.662,0,0,0,2.2-.984l1.354,1.6a3.784,3.784,0,0,1-1.569,1.217A5.3,5.3,0,0,1,313.874,17.176ZM313.54,9.6q-1.3,0-1.547,1.723h2.988v-.229a1.467,1.467,0,0,0-.36-1.1A1.434,1.434,0,0,0,313.54,9.6ZM322.2,17h-2.971V3.5H322.2Zm16.8-4.333a4.673,4.673,0,0,1-.721,2.36,4.35,4.35,0,0,1-1.85,1.586,6.3,6.3,0,0,1-2.72.563,5.025,5.025,0,0,1-3.973-1.644,6.786,6.786,0,0,1-1.45-4.641v-.633a7.746,7.746,0,0,1,.655-3.292,4.961,4.961,0,0,1,1.885-2.18,5.26,5.26,0,0,1,2.848-.769,5.516,5.516,0,0,1,3.744,1.226,4.844,4.844,0,0,1,1.608,3.379h-3.076a2.292,2.292,0,0,0-.589-1.679,2.422,2.422,0,0,0-1.687-.51,1.843,1.843,0,0,0-1.687.861,5.536,5.536,0,0,0-.562,2.751v.905a6.126,6.126,0,0,0,.514,2.927,1.882,1.882,0,0,0,1.771.879,2.369,2.369,0,0,0,1.626-.5,2.126,2.126,0,0,0,.6-1.591Zm6.214-.193h-1.67V17h-3.085V4.2h5.036a5.621,5.621,0,0,1,3.56,1.01,3.421,3.421,0,0,1,1.283,2.853,4.155,4.155,0,0,1-.541,2.213A3.837,3.837,0,0,1,348.1,11.7l2.672,5.167V17h-3.3Zm-1.67-2.373h1.951a1.751,1.751,0,0,0,1.323-.463,1.788,1.788,0,0,0,.444-1.291,1.809,1.809,0,0,0-.448-1.3,1.735,1.735,0,0,0-1.318-.471h-1.951Zm12.709-5.9,2.856,8.9,2.848-8.9h4.061V17h-3.094V14.012l.3-6.117L360.122,17h-2.039l-3.1-9.114.3,6.126V17h-3.085V4.2Z" transform="translate(542 7469)" fill="#12263f"/>
      <g id="Grupo_53747" data-name="Grupo 53747" transform="translate(90.793 1962)">
        <rect id="Rectángulo_5089" data-name="Rectángulo 5089" width="152" height="5" transform="translate(677.207 5540)" fill="#fe7062"/>
        <path id="Polígono_1" data-name="Polígono 1" d="M6,0l6,5H0Z" transform="translate(757.207 5551) rotate(180)" fill="#fe7062"/>
      </g>
    </g>
  </g>
</svg>
