<svg xmlns="http://www.w3.org/2000/svg" width="138" height="138" viewBox="0 0 138 138">
  <g id="Grupo_56627" data-name="Grupo 56627" transform="translate(-378 -8364)">
    <circle id="Elipse_4257" data-name="Elipse 4257" cx="69" cy="69" r="69" transform="translate(378 8364)" fill="#fff"/>
    <g id="Grupo_56613" data-name="Grupo 56613" transform="translate(149.766 8239.631)">
      <g id="Grupo_56573" data-name="Grupo 56573" transform="translate(282.676 153.742)">
        <path id="Trazado_120022" data-name="Trazado 120022" d="M292.841,169.316l.805,4.4,5.4-1.443-3.191-13.03a18.258,18.258,0,0,0-1.684-2.464.33.33,0,0,0-.035-.031c-.437-.374-4.167-1.519-6.032-2.263a6.309,6.309,0,0,1-.889-.416v-4.013H281.4v4.013c-1,.634-6.238,2.071-6.96,2.71-.285.253-1.451,1.872-1.451,1.872l-3.421,13.622,5.346,1.172.875-4.588a80.179,80.179,0,0,1-.016,8.285c-.472,5.229-1.273,11-1.273,11l19.981-.187s-1.041-5.859-1.525-11.209C292.68,173.67,292.865,170.6,292.841,169.316Z" transform="translate(-268.979 -138.593)" fill="#d4a47d"/>
        <path id="Trazado_120023" data-name="Trazado 120023" d="M283.047,154.482a8.491,8.491,0,0,1-.889.681.972.972,0,0,1-.229.112h-1.937a13.961,13.961,0,0,1-2.452-1.982,11.5,11.5,0,0,1-1.2-2.889v-.351h5.819v4.013A6.309,6.309,0,0,0,283.047,154.482Z" transform="translate(-263.922 -138.593)" fill="#a88f7b" opacity="0.3" style="mix-blend-mode: multiply;isolation: isolate"/>
        <g id="Grupo_56561" data-name="Grupo 56561" transform="translate(24.975 33.703)">
          <path id="Trazado_120024" data-name="Trazado 120024" d="M288.243,162.789l.215,5.188-.131,10.661-2.606-.877-.906-9.84-1.286-4.549Z" transform="translate(-283.529 -162.789)" fill="#ffc89f"/>
        </g>
        <g id="Grupo_56562" data-name="Grupo 56562" transform="translate(27.614 49.426)">
          <path id="Trazado_120025" data-name="Trazado 120025" d="M285.286,174.279l-.033-.868s-.019-.059-.049-.162a1.674,1.674,0,0,0-.037-.388.8.8,0,0,0,.362-.159,4.846,4.846,0,0,0,.564-.624c.051-.054.087-.113.133-.168a.543.543,0,0,0,.133-.119c.169.222.337.445.5.678.04.065.091.135.134.2l-.313.479c-.019.6-.051,1.96-.051,1.96l-.636,1.257s-.2,1.133-.43,1.238c-.047.024-.166-.009-.279-.154a1.065,1.065,0,0,1-.222-.838c.082-.274.293-.931.293-.931Z" transform="translate(-285.04 -171.792)" fill="#d4a47d"/>
        </g>
        <g id="Grupo_56563" data-name="Grupo 56563" transform="translate(26.261 47.488)">
          <path id="Trazado_120026" data-name="Trazado 120026" d="M284.879,176.44c-.182.023-.393-.136-.433-.463-.033-.229-.073-.634-.073-.634h0l-.107-.959c.091-.168.714-2.6.714-2.6l.431-1.1,1.568.077c-.019.037.292,2.1-.269,2.476a10.25,10.25,0,0,0-1.5,1.486s0,.641.016.838C285.288,176.23,285.085,176.417,284.879,176.44Z" transform="translate(-284.266 -170.682)" fill="#ffc89f"/>
        </g>
        <path id="Trazado_120027" data-name="Trazado 120027" d="M285.639,170.762l.52.353.655.587,1.006,2.894-.941,2.4-1.25,1.278a.254.254,0,1,1-.395-.32l1.142-2.04s.175-2.707-.817-2.342C284.961,173.78,285.654,170.8,285.639,170.762Z" transform="translate(-257.33 -123.135)" fill="#ffc89f"/>
        <g id="Grupo_56566" data-name="Grupo 56566" transform="translate(5.756 49.077)">
          <g id="Grupo_56564" data-name="Grupo 56564">
            <path id="Trazado_120028" data-name="Trazado 120028" d="M273.665,192.2a12.867,12.867,0,0,0-.232,2.812,4.993,4.993,0,0,0,1.167,2.106,2.761,2.761,0,0,0,2.469.014,6.856,6.856,0,0,0,2.1-2.573,10.734,10.734,0,0,0,.237-2.359Z" transform="translate(-271.868 -156.211)" fill="#ccc"/>
            <path id="Trazado_120029" data-name="Trazado 120029" d="M273.706,191.807a12.675,12.675,0,0,0-.229,2.815,4.941,4.941,0,0,0,1.165,2.1,2.772,2.772,0,0,0,2.469.014,6.927,6.927,0,0,0,2.1-2.573,11.128,11.128,0,0,0,.238-2.361Z" transform="translate(-271.836 -156.502)" fill="#1c1c1f"/>
            <path id="Trazado_120030" data-name="Trazado 120030" d="M272.525,171.592c.023.445.079.889.11,1.326.138,2.082.183,4.178.321,6.266.136,2.036.225,4.081.482,6.113.04.3.086.6.128.9l.183,2.883.007,1.315c-.037.155-.075.314-.11.472a18.388,18.388,0,0,0-.367,3.54,83.371,83.371,0,0,0,.115,8.715c.047.753.11,1.5.2,2.251.058.472.281,2.155.281,2.155s6.485.313,6.666.049a4.482,4.482,0,0,0,.318-1.862c.054-.772.089-1.537.091-2.311.005-1.612.157-3.212.173-4.822.016-1.56-.031-3.112-.065-4.668-.019-.768-.093-1.537-.131-2.3a11.716,11.716,0,0,0-.051-1.249l.054-.982.3-5.341c.267-1.649.4-8.608.816-10.363.169-.707.423-1.388.625-2.089Z" transform="translate(-272.525 -171.592)" fill="#15202e"/>
          </g>
          <g id="Grupo_56565" data-name="Grupo 56565" transform="translate(12.031 35.305)">
            <path id="Trazado_120031" data-name="Trazado 120031" d="M285.2,192.2a12.975,12.975,0,0,1,.231,2.812,4.99,4.99,0,0,1-1.165,2.106,2.761,2.761,0,0,1-2.469.014,6.8,6.8,0,0,1-2.1-2.573,11.044,11.044,0,0,1-.241-2.359Z" transform="translate(-279.383 -191.516)" fill="#ccc"/>
            <path id="Trazado_120032" data-name="Trazado 120032" d="M285.16,191.807a13.108,13.108,0,0,1,.227,2.815,5,5,0,0,1-1.165,2.1,2.764,2.764,0,0,1-2.466.014,6.845,6.845,0,0,1-2.1-2.573,10.789,10.789,0,0,1-.239-2.361Z" transform="translate(-279.414 -191.807)" fill="#1c1c1f"/>
          </g>
          <path id="Trazado_120033" data-name="Trazado 120033" d="M278.573,171.646c.091.307.194.613.29.922h-1.7v2.515h2.208c.267,2.7.391,7.576.611,8.921l.3,5.341.056.982c-.061.412-.035.857-.056,1.249-.035.763-.108,1.532-.127,2.3-.033,1.556-.08,3.109-.065,4.668.012,1.61.164,3.21.169,4.822,0,.774.044,1.539.091,2.311a4.458,4.458,0,0,0,.325,1.862c.176.264,6.663-.049,6.663-.049s.222-1.684.279-2.155c.1-.747.155-1.5.206-2.251a82.412,82.412,0,0,0,.113-8.715,18.392,18.392,0,0,0-.363-3.54c-.038-.157-.072-.316-.115-.472l.009-1.315.187-2.883c.042-.3.087-.6.124-.9.255-2.031.342-4.076.484-6.113.134-2.089.182-4.184.325-6.266.026-.4.077-.817.1-1.231Z" transform="translate(-269.06 -171.552)" fill="#15202e"/>
        </g>
        <g id="Grupo_56568" data-name="Grupo 56568" transform="translate(9.663)">
          <path id="Trazado_120034" data-name="Trazado 120034" d="M280.069,144.405c-4.55,0-4.827,3.676-4.827,6.946a10.019,10.019,0,0,0,1.4,4.445,14.13,14.13,0,0,0,2.457,1.986h1.932a13.321,13.321,0,0,0,2.108-1.661,9.78,9.78,0,0,0,1.75-4.77C284.893,148.081,284.893,144.405,280.069,144.405Z" transform="translate(-274.404 -142.809)" fill="#ffc89f"/>
          <path id="Trazado_120035" data-name="Trazado 120035" d="M281.518,144.6a8.121,8.121,0,0,0,.04,2.908,4.3,4.3,0,0,0-1.561-.065c-1.13.121-2.569.709-3.687.264a.058.058,0,0,0-.073.077c.279.849,1.8.732,2.482.66a9.623,9.623,0,0,1,2.359-.084,1.775,1.775,0,0,1,1.037.629l.122.208a5.291,5.291,0,0,1,.279,4.162c-.279.849-1.224,1.509-1.886,2.267a5,5,0,0,1-3.212,1.381,3.869,3.869,0,0,0,.945.625H280.3a13.322,13.322,0,0,0,2.108-1.661,9.78,9.78,0,0,0,1.75-4.77C284.153,148.53,284.153,145.585,281.518,144.6Z" transform="translate(-273.664 -142.662)" fill="#f0b990"/>
          <g id="Grupo_56567" data-name="Grupo 56567" transform="translate(0 7.52)">
            <path id="Trazado_120036" data-name="Trazado 120036" d="M276.226,148.918c.166.706-.019,1.348-.41,1.436s-.833-.409-1-1.116.023-1.345.417-1.43S276.068,148.213,276.226,148.918Z" transform="translate(-274.762 -147.797)" fill="#ffc89f"/>
            <path id="Trazado_120037" data-name="Trazado 120037" d="M280.434,148.918c-.159.706.026,1.348.414,1.436s.831-.409.994-1.116-.023-1.345-.414-1.43S280.593,148.213,280.434,148.918Z" transform="translate(-270.57 -147.797)" fill="#f0b990"/>
          </g>
          <path id="Trazado_120038" data-name="Trazado 120038" d="M285.417,146.406c-.648-1.942-2.8-2.66-5.176-2.546-2.367-.114-4.52.6-5.169,2.546a14.415,14.415,0,0,0,.2,4.375c.121.444.538,2.532.686,1.023a14.6,14.6,0,0,1,.522-3.334,1.562,1.562,0,0,1,2.1-.707,4.365,4.365,0,0,0,3.322,0,1.563,1.563,0,0,1,2.1.707,14.286,14.286,0,0,1,.517,3.334c.152,1.509.568-.58.693-1.023A14.526,14.526,0,0,0,285.417,146.406Z" transform="translate(-274.607 -143.225)" fill="#3b2c23"/>
          <path id="Trazado_120039" data-name="Trazado 120039" d="M284.962,145.856c-.983-1.53-3.538-2.84-6.809-2.2a3.019,3.019,0,0,0-2.3,1.7,1.673,1.673,0,0,0,.4,3.037,4.152,4.152,0,0,1,.62.267,3.357,3.357,0,0,0,1.34.079c1.469-.119,3.133-.552,4.595-.272a4.038,4.038,0,0,1,2.541,1.453C285.4,149.974,285.724,147.045,284.962,145.856Z" transform="translate(-274.559 -143.491)" fill="#3b2c23"/>
        </g>
        <g id="Grupo_56569" data-name="Grupo 56569" transform="translate(0.586 33.703)">
          <path id="Trazado_120040" data-name="Trazado 120040" d="M269.776,162.789l-.212,5.188.133,10.661,2.6-.877.906-9.84,1.288-4.549Z" transform="translate(-269.564 -162.789)" fill="#ffc89f"/>
        </g>
        <g id="Grupo_56570" data-name="Grupo 56570" transform="translate(0.92 49.426)">
          <path id="Trazado_120041" data-name="Trazado 120041" d="M271.464,174.279l.035-.868s.021-.059.047-.162a2.158,2.158,0,0,1,.035-.388.789.789,0,0,1-.356-.159,5.174,5.174,0,0,1-.569-.624,2.082,2.082,0,0,1-.126-.168.5.5,0,0,1-.136-.119c-.169.222-.337.445-.5.678-.044.065-.091.135-.138.2l.311.479c.021.6.052,1.96.052,1.96l.639,1.257s.2,1.133.428,1.238c.045.024.168-.009.278-.154a1.066,1.066,0,0,0,.223-.838c-.086-.274-.3-.931-.3-.931Z" transform="translate(-269.756 -171.792)" fill="#d4a47d"/>
        </g>
        <g id="Grupo_56571" data-name="Grupo 56571" transform="translate(0.92 49.426)">
          <path id="Trazado_120042" data-name="Trazado 120042" d="M271.464,174.279l.035-.868s.021-.059.047-.162a2.158,2.158,0,0,1,.035-.388.789.789,0,0,1-.356-.159,5.174,5.174,0,0,1-.569-.624,2.082,2.082,0,0,1-.126-.168.5.5,0,0,1-.136-.119c-.169.222-.337.445-.5.678-.044.065-.091.135-.138.2l.311.479c.021.6.052,1.96.052,1.96l.639,1.257s.2,1.133.428,1.238c.045.024.168-.009.278-.154a1.066,1.066,0,0,0,.223-.838c-.086-.274-.3-.931-.3-.931Z" transform="translate(-269.756 -171.792)" fill="#d4a47d"/>
        </g>
        <path id="Trazado_120043" data-name="Trazado 120043" d="M292.841,167.419l.805,4.4,5.4-1.443-3.191-13.03a18.256,18.256,0,0,0-1.684-2.464.216.216,0,0,0-.035-.031c-.435-.372-4.12-1.5-5.99-2.253-.072.114-1.319,2.518-3.1,2.777a3.969,3.969,0,0,1-2.773-.592,17.432,17.432,0,0,1-1.949-2.129c-1.881.707-5.308,1.717-5.884,2.228-.281.253-1.451,1.872-1.451,1.872l-3.421,13.622,5.346,1.172.875-4.588a79.172,79.172,0,0,1-.016,8.285c-.472,5.229-1.273,11-1.273,11l19.983-.187s-1.043-5.859-1.526-11.209C292.68,171.773,292.865,168.7,292.841,167.419Z" transform="translate(-268.979 -136.696)" fill="#14b0bf"/>
        <path id="Trazado_120044" data-name="Trazado 120044" d="M276.143,171.8a22.812,22.812,0,0,0-3.014-10.856,70.909,70.909,0,0,1-.01,8.027C274.11,169.981,275.14,170.936,276.143,171.8Z" transform="translate(-266.326 -130.463)" fill="#2278ba"/>
        <path id="Trazado_120045" data-name="Trazado 120045" d="M290.726,162.252a3.086,3.086,0,0,0-.037,1.294,3.086,3.086,0,0,1,.037-1.294c.007-.438.014-.809.007-1.092l.086.484c.052-.437,0-.735-.414-.651-.851.1-1.326,1.609-1.514,2.744-.756,3.6-.85,7.19-3.594,9.745a12.451,12.451,0,0,1-4.062,2.925c-2.751.945-5.652,2.047-8.636,2.031-.127.968-.21,1.551-.21,1.551l19.983-.187s-1.043-5.859-1.526-11.209A58.6,58.6,0,0,1,290.726,162.252Z" transform="translate(-266.871 -130.437)" fill="#0b7885"/>
        <g id="Grupo_56572" data-name="Grupo 56572" transform="translate(1.444 47.488)">
          <path id="Trazado_120046" data-name="Trazado 120046" d="M272.227,176.44c.18.023.391-.136.435-.463.026-.229.073-.634.073-.634h0l.1-.959c-.087-.168-.716-2.6-.716-2.6l-.426-1.1-1.57.077c.016.037-.3,2.1.264,2.476a10.057,10.057,0,0,1,1.5,1.486s0,.641-.014.838C271.815,176.23,272.018,176.417,272.227,176.44Z" transform="translate(-270.056 -170.682)" fill="#ffc89f"/>
        </g>
        <path id="Trazado_120047" data-name="Trazado 120047" d="M271.407,170.762l-.515.353-.657.587-1.006,2.894.94,2.4,1.247,1.278a.258.258,0,1,0,.405-.32l-1.149-2.04s-.175-2.707.821-2.342C272.09,173.78,271.393,170.8,271.407,170.762Z" transform="translate(-269.229 -123.135)" fill="#ffc89f"/>
      </g>
      <g id="Grupo_56594" data-name="Grupo 56594" transform="translate(298.918 165.311)">
        <path id="Trazado_120048" data-name="Trazado 120048" d="M289.2,179.014a14.807,14.807,0,0,1-6.637.222c-.589,2.255.444,5.176.225,8.366a56.071,56.071,0,0,0-.1,8.3c.091,1.132.2,2.23.311,3.3h0c.021.187.042.368.058.555.007.066.014.14.023.208h0c.524,4.836,1.1,8.72,1.107,9.682,0,.194-.143,1.008-.274,1.694-.11.568,1.156,3.193,1.156,3.193l2.015-1.68a7.5,7.5,0,0,0,.265-1.982,3.534,3.534,0,0,1-.3-1.451c-.021-1.053.562-4.8,1.1-9.455h.005c.141-1.237.281-2.536.41-3.872a40.453,40.453,0,0,0-.058-8.184C288.17,184.613,289.829,181.408,289.2,179.014Z" transform="translate(-275.653 -128.543)" fill="#ffc89f"/>
        <path id="Trazado_120049" data-name="Trazado 120049" d="M293.408,179.236a14.808,14.808,0,0,1-6.637-.222c-.627,2.394,1.032,5.6.693,8.9a40.075,40.075,0,0,0-.058,8.184q.157,1.6.332,3.109h-.007c.568,5.005,1.217,9.108,1.2,10.219a3.413,3.413,0,0,1-.3,1.451,7.436,7.436,0,0,0,.272,1.982l2.015,1.68s1.263-2.625,1.151-3.193c-.127-.686-.271-1.5-.271-1.694,0-1.013.65-5.257,1.184-10.446h0c.108-1.071.22-2.169.316-3.3a55.157,55.157,0,0,0-.11-8.3C292.962,184.412,294,181.49,293.408,179.236Z" transform="translate(-272.483 -128.543)" fill="#ffc89f"/>
        <path id="Trazado_120050" data-name="Trazado 120050" d="M292.413,155.71a5.744,5.744,0,0,0-5.842-5.592V161.3A5.742,5.742,0,0,0,292.413,155.71Z" transform="translate(-272.526 -150.113)" fill="#7d4e24"/>
        <path id="Trazado_120051" data-name="Trazado 120051" d="M289.062,150.115a5.606,5.606,0,1,0,0,11.2c.016,0,.031-.005.051-.005V150.12C289.093,150.12,289.078,150.115,289.062,150.115Z" transform="translate(-275.068 -150.115)" fill="#7d4e24"/>
        <g id="Grupo_56576" data-name="Grupo 56576" transform="translate(0 15.265)">
          <path id="Trazado_120052" data-name="Trazado 120052" d="M283.616,163.089c-.061.238-.119.466-.18.7A2.7,2.7,0,0,0,283.616,163.089Z" transform="translate(-274.866 -155.695)" fill="#ffc89f"/>
          <path id="Trazado_120053" data-name="Trazado 120053" d="M282.956,164.184a2.145,2.145,0,0,0,.1-.337.306.306,0,0,1-.2.119C282.89,164.037,282.921,164.112,282.956,164.184Z" transform="translate(-275.301 -155.129)" fill="#ffc89f"/>
          <path id="Trazado_120054" data-name="Trazado 120054" d="M286.858,158.881a5.27,5.27,0,0,0-3.7,1.226,4.945,4.945,0,0,0-1.217,1.491c-.019.033-.035.068-.054.1a8.424,8.424,0,0,0-.723,1.7,20.173,20.173,0,0,0-.521,3.564,17.411,17.411,0,0,0-.307,3.589c0,.665-.063,3.837-.15,4.438-.066.449-.119.9-.176,1.352a21.767,21.767,0,0,0-.774,3.037,5.074,5.074,0,0,0-.18,1.423c0,.218.175,7.478.175,7.478l2.014-.051,1.457-7.567a14.926,14.926,0,0,0,.632-2.552c0-.189.169-1.914.239-2.576a22.728,22.728,0,0,1,.4-2.522c.166-.782,1.043-5.634,1.215-6.42,0,0,.035.21.082.491a.15.15,0,0,1,.15.03c.274-.5.566-.983.835-1.486.136-.353.259-.711.372-1.067a6.478,6.478,0,0,0-.395-.91l-.035-.009a2.7,2.7,0,0,1-1.546-2.042,1.851,1.851,0,0,0-.325-.844.293.293,0,0,1-.038-.042,4.556,4.556,0,0,1,.892-.346,8.08,8.08,0,0,1,1.689-.183C287.622,160.156,287.585,158.967,286.858,158.881Z" transform="translate(-278.14 -158.855)" fill="#ffc89f"/>
          <g id="Grupo_56574" data-name="Grupo 56574" transform="translate(0.912 30.246)">
            <path id="Trazado_120055" data-name="Trazado 120055" d="M280.549,178.528l.077-.8.056-.15a1.533,1.533,0,0,1,.056-.356.667.667,0,0,1-.327-.164,4.765,4.765,0,0,1-.487-.613,1.148,1.148,0,0,1-.113-.159.425.425,0,0,1-.115-.115c-.173.2-.341.393-.5.6-.047.056-.091.117-.143.178l.269.463c-.016.557-.065,1.813-.065,1.813l.524,1.205s.115,1.055.325,1.167c.045.019.159,0,.267-.133a.968.968,0,0,0,.25-.763c-.065-.25-.224-.875-.224-.875Z" transform="translate(-279.051 -176.174)" fill="#d4a47d"/>
          </g>
          <g id="Grupo_56575" data-name="Grupo 56575" transform="translate(1.477 28.524)">
            <path id="Trazado_120056" data-name="Trazado 120056" d="M281.139,180.555c.171.03.376-.1.433-.395.037-.218.1-.594.1-.594h0l.15-.877c-.07-.162-.51-2.449-.51-2.449l-.334-1.043-1.462-.01c.016.033-.389,1.923.112,2.3a9.825,9.825,0,0,1,1.306,1.46s-.04.592-.063.775C280.774,180.337,280.949,180.525,281.139,180.555Z" transform="translate(-279.375 -175.188)" fill="#ffc89f"/>
          </g>
          <path id="Trazado_120057" data-name="Trazado 120057" d="M280.758,175.238l-.5.3-.638.5-1.092,2.62.737,2.274s1.076,1.252,1.083,1.257a.239.239,0,1,0,.388-.279l-.947-1.954s-.009-2.5.887-2.12C281.217,178.076,280.742,175.276,280.758,175.238Z" transform="translate(-278.529 -146.626)" fill="#ffc89f"/>
        </g>
        <g id="Grupo_56579" data-name="Grupo 56579" transform="translate(19.071 15.265)">
          <path id="Trazado_120058" data-name="Trazado 120058" d="M297.64,179.388a23.807,23.807,0,0,0-.781-3.037c-.058-.447-.113-.9-.176-1.352-.087-.6-.154-3.772-.15-4.438a17.289,17.289,0,0,0-.307-3.589,20.405,20.405,0,0,0-.517-3.564,8.628,8.628,0,0,0-.723-1.7c-.023-.037-.038-.072-.061-.1a4.857,4.857,0,0,0-1.214-1.491,5.264,5.264,0,0,0-3.7-1.226c-.728.086-.758,1.275,0,1.313a7.988,7.988,0,0,1,1.682.183,4.617,4.617,0,0,1,.9.346c-.014.016-.03.03-.042.042a1.918,1.918,0,0,0-.328.844,2.687,2.687,0,0,1-1.544,2.042l-.038.009a7.434,7.434,0,0,0-.62,1.71c-.255,1.167,1.67,1.231,1.67,1.233.169.786,1.057,5.638,1.217,6.42a24.03,24.03,0,0,1,.4,2.522c.07.662.234,2.387.234,2.576a13.968,13.968,0,0,0,.63,2.552l1.457,7.567,2.021.051s.169-7.26.169-7.478A5.406,5.406,0,0,0,297.64,179.388Z" transform="translate(-289.449 -158.855)" fill="#ffc89f"/>
          <g id="Grupo_56577" data-name="Grupo 56577" transform="translate(6.682 30.246)">
            <path id="Trazado_120059" data-name="Trazado 120059" d="M293.46,178.528l-.082-.8s-.016-.052-.051-.15a2,2,0,0,0-.052-.356.659.659,0,0,0,.321-.164,4.61,4.61,0,0,0,.487-.613,1.336,1.336,0,0,0,.117-.159.526.526,0,0,0,.117-.115c.169.2.334.393.492.6.052.056.094.117.145.178l-.264.463c.016.557.058,1.813.058,1.813l-.52,1.205s-.114,1.055-.325,1.167c-.038.019-.159,0-.267-.133a.961.961,0,0,1-.248-.763c.063-.25.222-.875.222-.875Z" transform="translate(-293.275 -176.174)" fill="#d4a47d"/>
          </g>
          <g id="Grupo_56578" data-name="Grupo 56578" transform="translate(5.353 28.524)">
            <path id="Trazado_120060" data-name="Trazado 120060" d="M293.192,180.555c-.162.03-.372-.1-.426-.395-.042-.218-.1-.594-.1-.594h0l-.15-.877c.066-.162.515-2.449.515-2.449l.335-1.043,1.453-.01c-.014.033.388,1.923-.108,2.3a9.972,9.972,0,0,0-1.308,1.46s.035.592.063.775C293.56,180.337,293.382,180.525,293.192,180.555Z" transform="translate(-292.514 -175.188)" fill="#ffc89f"/>
          </g>
          <path id="Trazado_120061" data-name="Trazado 120061" d="M293.558,175.238l.5.3.65.5,1.088,2.62-.739,2.274-1.086,1.257a.241.241,0,0,1-.334.061.246.246,0,0,1-.052-.341l.948-1.954s.005-2.5-.885-2.12C293.1,178.076,293.574,175.276,293.558,175.238Z" transform="translate(-286.512 -146.626)" fill="#ffc89f"/>
        </g>
        <g id="Grupo_56592" data-name="Grupo 56592" transform="translate(7.889 81.896)">
          <g id="Grupo_56585" data-name="Grupo 56585" transform="translate(7.367)">
            <g id="Grupo_56584" data-name="Grupo 56584" transform="translate(0 1.015)">
              <g id="Grupo_56581" data-name="Grupo 56581" transform="translate(0 2.548)">
                <g id="Grupo_56580" data-name="Grupo 56580">
                  <path id="Trazado_120062" data-name="Trazado 120062" d="M287.264,200.211l.038.62,1.346,1.05,1.759.068s1.144-.7,1.516-1.013l.038-.451-.3-1.437Z" transform="translate(-287.264 -199.048)" fill="#e4e8ed"/>
                </g>
              </g>
              <g id="Grupo_56583" data-name="Grupo 56583">
                <g id="Grupo_56582" data-name="Grupo 56582">
                  <path id="Trazado_120063" data-name="Trazado 120063" d="M291.513,197.863c-.678-.807-1.374.442-2.1.248-.4-.107-.863-.634-1.179-.421a1.273,1.273,0,0,0-.353.681l-.616,2.929s1.165.969,1.177.969,1.781.094,1.781.094,1.493-.613,1.74-.789l-.12-3.086Z" transform="translate(-287.264 -197.589)" fill="#ff4140"/>
                </g>
              </g>
            </g>
            <path id="Trazado_120064" data-name="Trazado 120064" d="M290.6,199.708a1.5,1.5,0,0,1-1.34,1.626h0a1.494,1.494,0,0,1-1.334-1.626v-.821a1.494,1.494,0,0,1,1.334-1.622h0a1.5,1.5,0,0,1,1.34,1.622Z" transform="translate(-286.768 -196.816)" fill="#cc2221"/>
            <path id="Trazado_120065" data-name="Trazado 120065" d="M291.456,197.127c-.414-.162-.878.377-1.106.644a3.186,3.186,0,0,0-.54.81,3.545,3.545,0,0,0-.529-.73c-.314-.353-.807-.863-1.322-.844-.611.016-.543.858-.43,1.259a1.275,1.275,0,0,0,.711.747,4.374,4.374,0,0,0,1.547.391.164.164,0,0,0,.157-.093,2.135,2.135,0,0,0,1.582-.875C291.786,198.1,291.98,197.331,291.456,197.127Zm-3.62,1.092c-.134-.3-.185-1.058.33-.863a2.626,2.626,0,0,1,1,.837,2.534,2.534,0,0,1,.533.868,6.024,6.024,0,0,1-1.083-.245A1.1,1.1,0,0,1,287.836,198.219Zm3.5.066a1.667,1.667,0,0,1-1.39.709v-.014a2.956,2.956,0,0,1,1.238-1.6.236.236,0,0,1,.344.145A.824.824,0,0,1,291.336,198.285Z" transform="translate(-287.122 -197.008)" fill="#e4e8ed"/>
          </g>
          <g id="Grupo_56591" data-name="Grupo 56591">
            <g id="Grupo_56590" data-name="Grupo 56590" transform="translate(0 1.015)">
              <g id="Grupo_56587" data-name="Grupo 56587" transform="translate(0 2.548)">
                <g id="Grupo_56586" data-name="Grupo 56586">
                  <path id="Trazado_120066" data-name="Trazado 120066" d="M287.74,200.211l-.037.62-1.352,1.05-1.755.068s-1.144-.7-1.516-1.013l-.035-.451.3-1.437Z" transform="translate(-283.046 -199.048)" fill="#e4e8ed"/>
                </g>
              </g>
              <g id="Grupo_56589" data-name="Grupo 56589">
                <g id="Grupo_56588" data-name="Grupo 56588">
                  <path id="Trazado_120067" data-name="Trazado 120067" d="M283.493,197.863c.679-.807,1.376.442,2.092.248.4-.107.873-.634,1.188-.421a1.3,1.3,0,0,1,.349.681l.618,2.929s-1.165.969-1.179.969-1.774.094-1.774.094-1.493-.613-1.741-.789l.114-3.086Z" transform="translate(-283.046 -197.589)" fill="#ff4140"/>
                </g>
              </g>
            </g>
            <path id="Trazado_120068" data-name="Trazado 120068" d="M283.539,199.708a1.5,1.5,0,0,0,1.338,1.626h0a1.5,1.5,0,0,0,1.34-1.626v-.821a1.5,1.5,0,0,0-1.34-1.622h0a1.5,1.5,0,0,0-1.338,1.622Z" transform="translate(-282.678 -196.816)" fill="#cc2221"/>
            <path id="Trazado_120069" data-name="Trazado 120069" d="M283.319,198.439a2.153,2.153,0,0,0,1.581.875.181.181,0,0,0,.166.093,4.422,4.422,0,0,0,1.547-.391,1.272,1.272,0,0,0,.706-.747c.114-.4.176-1.243-.426-1.259-.515-.019-1.011.491-1.324.844a3.425,3.425,0,0,0-.531.73,3.177,3.177,0,0,0-.534-.81c-.23-.267-.7-.807-1.105-.644C282.868,197.331,283.061,198.1,283.319,198.439Zm2.918.377a5.977,5.977,0,0,1-1.088.245,3.568,3.568,0,0,1,1.535-1.7c.513-.2.465.559.327.863A1.073,1.073,0,0,1,286.237,198.816Zm-2.918-1.292a.24.24,0,0,1,.349-.145,2.95,2.95,0,0,1,1.235,1.6v.014a1.657,1.657,0,0,1-1.387-.709A.831.831,0,0,1,283.319,197.523Z" transform="translate(-283.034 -197.008)" fill="#e4e8ed"/>
          </g>
        </g>
        <path id="Trazado_120070" data-name="Trazado 120070" d="M295.264,153.817H292.4l.054-.341-8.762.341c-2.883,14.9.388,15.077,4.845,15.077.133,0,1.35-.019,1.483-.023s.262.023.4.023C294.873,168.894,298.155,168.712,295.264,153.817Z" transform="translate(-275.486 -147.606)" fill="#3b2c23"/>
        <path id="Trazado_120071" data-name="Trazado 120071" d="M290.274,159.628c.044.265.086.548.147.852h-5.435c.059-.3.108-.587.147-.852a9.928,9.928,0,0,0,.115-1.523v-.037a12.5,12.5,0,0,0-.262-2.246h5.435c-.093.473-.154.887-.2,1.277A9,9,0,0,0,290.274,159.628Z" transform="translate(-273.709 -145.855)" fill="#d4a47d"/>
        <path id="Trazado_120072" data-name="Trazado 120072" d="M294.976,160.4c0,1.4-2.649,2.546-5.908,2.546s-5.91-1.142-5.91-2.546c0-1.006,1.366-1.876,3.339-2.288a12,12,0,0,1,1.617-.222c.306-.019.623-.028.954-.028a12.824,12.824,0,0,1,2.571.25,9.384,9.384,0,0,1,1.3.367h0C294.185,158.937,294.976,159.631,294.976,160.4Z" transform="translate(-275.074 -144.335)" fill="#d4a47d"/>
        <path id="Trazado_120073" data-name="Trazado 120073" d="M291.5,162.053c-.585.047-2.108-1.013-3.523-2.118-.468-.361-.927-.739-1.327-1.074-.777-.646-1.364-1.165-1.5-1.3-.016-.019-.03-.028-.03-.031a.1.1,0,0,0,.03-.005c.349-.079,3.861-.878,4.972-.969a9,9,0,0,0,.054,2.529,9.384,9.384,0,0,1,1.3.367h0C291.859,160.746,292.084,162,291.5,162.053Z" transform="translate(-273.61 -145.309)" fill="#a88f7b" opacity="0.3" style="mix-blend-mode: multiply;isolation: isolate"/>
        <path id="Trazado_120074" data-name="Trazado 120074" d="M292.23,157.265c0,2.868-1.778,5.194-3.982,5.194s-3.991-2.326-3.991-5.194.236-6.09,3.991-6.09C292.23,151.175,292.23,154.4,292.23,157.265Z" transform="translate(-274.253 -149.324)" fill="#ffc89f"/>
        <path id="Trazado_120075" data-name="Trazado 120075" d="M287.541,151.175a4.1,4.1,0,0,0-2.106.489,3.864,3.864,0,0,0,1.675,3.18c1.072.664,2.15.941,2.862,1.991a2.709,2.709,0,0,1-.182,2.943.392.392,0,0,1-.03.04,4.242,4.242,0,0,1-1.315,1.678c-1.009.749-2.1.431-3.144.009a.917.917,0,0,0-.1-.04,3.392,3.392,0,0,0,2.338.994c2.2,0,3.982-2.326,3.982-5.194S291.523,151.175,287.541,151.175Z" transform="translate(-273.547 -149.324)" fill="#f0b990"/>
        <g id="Grupo_56593" data-name="Grupo 56593" transform="translate(9.194 6.406)">
          <path id="Trazado_120076" data-name="Trazado 120076" d="M285.041,154.731c.134.6-.028,1.142-.355,1.223s-.711-.351-.847-.948.021-1.14.353-1.212S284.9,154.139,285.041,154.731Z" transform="translate(-283.794 -153.783)" fill="#ffc89f"/>
        </g>
        <path id="Trazado_120077" data-name="Trazado 120077" d="M287.717,150.913c-1.907,1.939-3.051,2.082-1.836,2.786a17.5,17.5,0,0,1,5.538,4.01c.248.3.676-3.7-.407-5.4S288.251,150.371,287.717,150.913Z" transform="translate(-273.415 -149.713)" fill="#7d4e24"/>
        <path id="Trazado_120078" data-name="Trazado 120078" d="M298.856,181.236h.007c-.688-3.105-2.208-5.026-2.1-8.289a16.319,16.319,0,0,1,.374-4.034,1.973,1.973,0,0,1,.438-.678s1.432-6.011,1.21-8.032c-.155-1.415-4.738-2.089-4.738-2.089s-.089,2.986-.805,3.636a4.764,4.764,0,0,1-5.29,0c-.716-.65-.805-3.636-.805-3.636s-4.581.674-4.736,2.089c-.218,2.021,1.21,8.032,1.21,8.032a1.927,1.927,0,0,1,.442.678,16.28,16.28,0,0,1,.367,4.034c.11,3.262-1.408,5.184-2.092,8.289h0c-2.068,5.409-.344,22.011-.416,24.1h17.355C299.2,203.247,300.922,186.645,298.856,181.236Z" transform="translate(-276.448 -144.143)" fill="#ff4140"/>
        <path id="Trazado_120079" data-name="Trazado 120079" d="M298.659,180.753h.007c-.688-3.105-2.208-5.026-2.1-8.289a16.319,16.319,0,0,1,.374-4.034,1.972,1.972,0,0,1,.438-.678s1.432-6.011,1.21-8.032c-.038-.369-.386-.692-.875-.959-.169,3.365-.393,6.776-1.942,9.784-.858,1.71-3.041,1.519-4.846,1.994-.662.189-2.784.327-2.311.611,1.235.952,3.262-.044,4.5,1.2,4.843,5.03,3.425,19.089,1.526,25.168a7.185,7.185,0,0,1-4.471,4.459c-2.7,1.13-5.639.83-8.586.562a23.2,23.2,0,0,1,.147,2.318H299.08C299.007,202.764,300.725,186.162,298.659,180.753Z" transform="translate(-276.252 -143.66)" fill="#cc2221"/>
        <path id="Trazado_120080" data-name="Trazado 120080" d="M290.186,152.15c-.049-.615-.742-.842-1.216-1.081a3.428,3.428,0,0,0-1.425-.323,3.075,3.075,0,0,0-2.075.679c-1.05.882-1.4,2.34-1.783,3.594a29.678,29.678,0,0,0-1.018,6.42,14.148,14.148,0,0,1-.185,1.587,9.77,9.77,0,0,0-.217,1.544,7.067,7.067,0,0,0,.044,1.011,6.342,6.342,0,0,0,.019,1.05,7.336,7.336,0,0,0,.449,1.987c.561,1.439,1.98,1.762,3.271,2.262.348.14,1.182-.571,1.137-.823-.1-.557-.32-1.088-.444-1.638-.141-.6-.262-1.214-.382-1.829-.224-1.221-.379-2.45-.536-3.681a16.614,16.614,0,0,1-.166-3.689,7.862,7.862,0,0,1,.4-1.794c.094-.271.2-.536.3-.809.024-.047.045-.1.068-.155.014.049.031.094.045.141a.29.29,0,0,0,.491.061c.5-.7.548-1.589,1.109-2.26a6.024,6.024,0,0,1,1.333-1.285.722.722,0,0,0,.222-.07c.016-.009.044-.024.066-.035a1.352,1.352,0,0,0,.136-.086.606.606,0,0,1,.07-.026.159.159,0,0,0,.126-.173A.86.86,0,0,0,290.186,152.15Z" transform="translate(-275.74 -149.645)" fill="#7d4e24"/>
        <path id="Trazado_120081" data-name="Trazado 120081" d="M294.2,164.57a9.57,9.57,0,0,0-.213-1.544,12.68,12.68,0,0,1-.187-1.587,29.257,29.257,0,0,0-1.018-6.42c-.381-1.254-.728-2.712-1.787-3.594a3.072,3.072,0,0,0-2.071-.679,3.457,3.457,0,0,0-1.429.323c-.47.239-1.168.466-1.207,1.081a.634.634,0,0,0,.005.183c.1.07.2.147.3.213a7.087,7.087,0,0,0,1.006.583,7.831,7.831,0,0,1,2.063,1.418,3.569,3.569,0,0,1,1,1.816c.073.461.113,2.431.149,2.857a16.938,16.938,0,0,1-.163,3.689c-.159,1.231-.318,2.461-.541,3.681-.119.615-.241,1.224-.379,1.829-.124.55-.344,1.081-.445,1.638-.045.252.788.962,1.137.823,1.292-.5,2.712-.823,3.271-2.262a7.147,7.147,0,0,0,.447-1.987,6.543,6.543,0,0,0,.024-1.05A7.607,7.607,0,0,0,294.2,164.57Z" transform="translate(-272.74 -149.645)" fill="#7d4e24"/>
      </g>
      <g id="Grupo_56609" data-name="Grupo 56609" transform="translate(267.229 161.115)">
        <g id="Grupo_56608" data-name="Grupo 56608" transform="translate(0 0.504)">
          <g id="Grupo_56607" data-name="Grupo 56607">
            <g id="Grupo_56595" data-name="Grupo 56595" transform="translate(25.076 32.746)">
              <path id="Trazado_120082" data-name="Trazado 120082" d="M279.478,166.751l.215,5.215-.133,10.708-2.62-.888-.9-9.878-1.3-4.567Z" transform="translate(-274.742 -166.751)" fill="#ffc89f"/>
            </g>
            <g id="Grupo_56596" data-name="Grupo 56596" transform="translate(27.725 48.539)">
              <path id="Trazado_120083" data-name="Trazado 120083" d="M276.505,178.288l-.031-.863s-.016-.068-.049-.168a2.214,2.214,0,0,0-.033-.393.742.742,0,0,0,.362-.155,5.351,5.351,0,0,0,.568-.632,1.864,1.864,0,0,0,.129-.161.6.6,0,0,0,.134-.122c.171.22.341.447.5.679.044.065.089.136.136.2l-.314.484c-.019.608-.047,1.965-.047,1.965l-.643,1.268s-.2,1.139-.431,1.238c-.047.023-.169-.007-.283-.15a1.069,1.069,0,0,1-.222-.845c.087-.274.3-.926.3-.926Z" transform="translate(-276.259 -175.794)" fill="#d4a47d"/>
            </g>
            <g id="Grupo_56597" data-name="Grupo 56597" transform="translate(26.373 46.592)">
              <path id="Trazado_120084" data-name="Trazado 120084" d="M276.1,180.465c-.178.017-.4-.143-.435-.466-.031-.236-.07-.644-.07-.644h0l-.107-.959c.086-.169.713-2.611.713-2.611l.43-1.105,1.581.079c-.017.037.292,2.11-.271,2.482a10.789,10.789,0,0,0-1.509,1.495s0,.644.023.844C276.508,180.25,276.3,180.437,276.1,180.465Z" transform="translate(-275.485 -174.679)" fill="#ffc89f"/>
            </g>
            <path id="Trazado_120085" data-name="Trazado 120085" d="M276.861,174.758l.522.356.657.59,1.011,2.9-.945,2.4-1.254,1.291a.254.254,0,0,1-.367.047.259.259,0,0,1-.033-.369l1.151-2.049s.173-2.714-.817-2.354C276.176,177.793,276.88,174.8,276.861,174.758Z" transform="translate(-248.436 -128.028)" fill="#ffc89f"/>
            <g id="Grupo_56600" data-name="Grupo 56600" transform="translate(5.79 48.188)">
              <g id="Grupo_56598" data-name="Grupo 56598">
                <path id="Trazado_120086" data-name="Trazado 120086" d="M264.716,196.284a12.787,12.787,0,0,0-.231,2.821,4.93,4.93,0,0,0,1.174,2.111,2.757,2.757,0,0,0,2.473.016,6.907,6.907,0,0,0,2.113-2.585,11.047,11.047,0,0,0,.241-2.363Z" transform="translate(-263.134 -160.148)" fill="#ccc"/>
                <path id="Trazado_120087" data-name="Trazado 120087" d="M264.761,195.894a12.648,12.648,0,0,0-.232,2.815,4.928,4.928,0,0,0,1.165,2.117,2.767,2.767,0,0,0,2.48.014,6.875,6.875,0,0,0,2.111-2.583,10.6,10.6,0,0,0,.239-2.363Z" transform="translate(-263.1 -160.439)" fill="#1a222b"/>
                <path id="Trazado_120088" data-name="Trazado 120088" d="M263.7,175.593c.024.444.077.892.108,1.331.143,2.094.189,4.19.327,6.287.141,2.054.222,4.1.484,6.146.037.3.079.6.129.9l.183,2.89.009,1.326c-.042.159-.079.316-.119.477a18.193,18.193,0,0,0-.358,3.549,82.633,82.633,0,0,0,.107,8.752c.054.756.115,1.509.208,2.265.059.466.278,2.159.278,2.159s6.516.318,6.7.056a4.549,4.549,0,0,0,.32-1.874c.054-.784.091-1.544.093-2.323.009-1.614.161-3.224.175-4.839.012-1.558-.033-3.128-.073-4.689-.01-.768-.087-1.542-.124-2.312-.016-.381.005-.837-.051-1.249l.051-.985.307-5.36c.269-1.657.395-8.647.823-10.405.166-.714.421-1.4.623-2.1Z" transform="translate(-263.699 -175.593)" fill="#17283d"/>
              </g>
              <g id="Grupo_56599" data-name="Grupo 56599" transform="translate(9.55 0.096)">
                <path id="Trazado_120089" data-name="Trazado 120089" d="M276.551,196.284a13.329,13.329,0,0,1,.227,2.821,4.921,4.921,0,0,1-1.168,2.111,2.772,2.772,0,0,1-2.48.016,6.842,6.842,0,0,1-2.106-2.585,10.816,10.816,0,0,1-.243-2.363Z" transform="translate(-267.962 -160.244)" fill="#ccc"/>
                <path id="Trazado_120090" data-name="Trazado 120090" d="M276.507,195.894a13.069,13.069,0,0,1,.234,2.815,5.031,5.031,0,0,1-1.172,2.117,2.77,2.77,0,0,1-2.482.014,6.864,6.864,0,0,1-2.106-2.583,10.778,10.778,0,0,1-.243-2.363Z" transform="translate(-267.994 -160.535)" fill="#1a222b"/>
                <path id="Trazado_120091" data-name="Trazado 120091" d="M269.167,175.648c.2.669.438,1.322.6,2,.423,1.759.555,8.748.826,10.405l.3,5.36.054.985a12.341,12.341,0,0,0-.054,1.249c-.035.77-.112,1.544-.127,2.312-.037,1.561-.079,3.131-.07,4.689.016,1.615.168,3.226.173,4.839,0,.779.04,1.539.091,2.323a4.5,4.5,0,0,0,.323,1.874c.182.262,6.7-.056,6.7-.056s.218-1.692.283-2.159c.1-.756.155-1.509.2-2.265a83.1,83.1,0,0,0,.112-8.752,18.467,18.467,0,0,0-.365-3.549c-.038-.161-.072-.318-.117-.477l.009-1.326.185-2.89c.047-.3.089-.6.133-.9.255-2.042.342-4.092.477-6.146.138-2.1.19-4.193.334-6.287.021-.407.075-.821.1-1.235Z" transform="translate(-269.167 -175.648)" fill="#17283d"/>
              </g>
              <rect id="Rectángulo_29758" data-name="Rectángulo 29758" width="5.608" height="2.529" transform="translate(7.353 1.019)" fill="#17283d"/>
            </g>
            <rect id="Rectángulo_29759" data-name="Rectángulo 29759" width="5.838" height="5.141" transform="translate(12.474 9.892)" fill="#d4a47d"/>
            <path id="Trazado_120092" data-name="Trazado 120092" d="M275.795,157.271l-3.292,5.35-6.935-3.767,2.369-1.537,1.05-.4v-1.325h5.838v1.335Z" transform="translate(-256.514 -142.336)" fill="#d4a47d"/>
            <g id="Grupo_56602" data-name="Grupo 56602" transform="translate(10.054)">
              <path id="Trazado_120093" data-name="Trazado 120093" d="M271.27,148c-4.563,0-4.848,3.683-4.848,6.974a10.055,10.055,0,0,0,1.411,4.457,13.855,13.855,0,0,0,2.466,1.989h1.942a13.512,13.512,0,0,0,2.111-1.664,9.8,9.8,0,0,0,1.764-4.782C276.117,151.684,276.117,148,271.27,148Z" transform="translate(-265.93 -148.001)" fill="#ffc89f"/>
              <g id="Grupo_56601" data-name="Grupo 56601" transform="translate(0 6.844)">
                <path id="Trazado_120094" data-name="Trazado 120094" d="M267.617,153.055c.156.7-.024,1.348-.419,1.439s-.837-.409-1-1.125.03-1.347.419-1.441S267.453,152.346,267.617,153.055Z" transform="translate(-266.141 -151.92)" fill="#ffc89f"/>
                <path id="Trazado_120095" data-name="Trazado 120095" d="M271.414,153.055c-.159.7.024,1.348.417,1.439s.837-.409,1-1.125-.028-1.347-.417-1.441S271.572,152.346,271.414,153.055Z" transform="translate(-262.246 -151.92)" fill="#ffc89f"/>
              </g>
            </g>
            <g id="Grupo_56603" data-name="Grupo 56603" transform="translate(0.591 32.746)">
              <path id="Trazado_120096" data-name="Trazado 120096" d="M260.932,166.751l-.21,5.215.128,10.708,2.62-.888.906-9.878,1.3-4.567Z" transform="translate(-260.723 -166.751)" fill="#ffc89f"/>
            </g>
            <g id="Grupo_56604" data-name="Grupo 56604" transform="translate(0.924 48.539)">
              <path id="Trazado_120097" data-name="Trazado 120097" d="M262.632,178.288l.035-.863s.017-.068.047-.168a1.719,1.719,0,0,1,.037-.393.717.717,0,0,1-.36-.155,4.8,4.8,0,0,1-.568-.632,1.635,1.635,0,0,1-.134-.161.884.884,0,0,1-.134-.122c-.169.22-.335.447-.5.679-.044.065-.087.136-.138.2l.318.484c.019.608.047,1.965.047,1.965l.648,1.268s.194,1.139.421,1.238c.056.023.169-.007.285-.15a1.085,1.085,0,0,0,.225-.845l-.3-.926Z" transform="translate(-260.913 -175.794)" fill="#d4a47d"/>
            </g>
            <g id="Grupo_56605" data-name="Grupo 56605" transform="translate(1.453 46.592)">
              <path id="Trazado_120098" data-name="Trazado 120098" d="M263.39,180.465c.19.017.4-.143.444-.466l.072-.644h0l.1-.959c-.086-.169-.72-2.611-.72-2.611l-.424-1.105-1.577.079c.019.037-.293,2.11.265,2.482a10.742,10.742,0,0,1,1.507,1.495s0,.644-.012.844C262.978,180.25,263.186,180.437,263.39,180.465Z" transform="translate(-261.216 -174.679)" fill="#ffc89f"/>
            </g>
            <path id="Trazado_120099" data-name="Trazado 120099" d="M262.574,174.758l-.522.356-.657.59-1.011,2.9.947,2.4,1.252,1.291a.257.257,0,1,0,.4-.321l-1.144-2.049s-.182-2.714.816-2.354C263.259,177.793,262.56,174.8,262.574,174.758Z" transform="translate(-260.384 -128.028)" fill="#ffc89f"/>
            <g id="Grupo_56606" data-name="Grupo 56606" transform="translate(0.622 14.936)">
              <path id="Trazado_120100" data-name="Trazado 120100" d="M284.108,171.431l.81,4.422,5.423-1.455-3.2-13.081a18.527,18.527,0,0,0-1.685-2.471.143.143,0,0,0-.038-.035c-.437-.377-4.137-1.507-6.013-2.258-.077.112-1.327,2.522-3.121,2.784a4.021,4.021,0,0,1-2.782-.592,17.255,17.255,0,0,1-1.954-2.146c-1.9.718-5.332,1.733-5.908,2.248-.285.25-1.453,1.872-1.453,1.872L260.74,174.4l5.365,1.174.88-4.6a78.927,78.927,0,0,1-.016,8.322c-.468,5.245-1.277,11.052-1.277,11.052l20.062-.194s-1.051-5.882-1.533-11.256C283.945,175.8,284.139,172.716,284.108,171.431Z" transform="translate(-260.74 -156.553)" fill="#fff"/>
              <path id="Trazado_120101" data-name="Trazado 120101" d="M267.344,175.834a23.04,23.04,0,0,0-3.027-10.9,71.859,71.859,0,0,1-.009,8.062C265.306,174.008,266.338,174.968,267.344,175.834Z" transform="translate(-258.076 -150.298)" fill="#e4e8ed"/>
              <path id="Trazado_120102" data-name="Trazado 120102" d="M281.985,166.248a3.238,3.238,0,0,0-.04,1.3,3.238,3.238,0,0,1,.04-1.3c.01-.44.014-.812.005-1.1l.087.486c.051-.435,0-.735-.414-.653-.858.1-1.331,1.614-1.526,2.756-.754,3.606-.852,7.216-3.6,9.78a12.448,12.448,0,0,1-4.087,2.941c-2.754.95-5.665,2.056-8.668,2.036-.122.975-.2,1.565-.2,1.565l20.062-.194s-1.051-5.882-1.533-11.256A59.423,59.423,0,0,1,281.985,166.248Z" transform="translate(-258.623 -150.271)" fill="#e4e8ed"/>
            </g>
          </g>
        </g>
        <path id="Trazado_120103" data-name="Trazado 120103" d="M276.524,151.121a3.9,3.9,0,0,0-.131-.466,1.089,1.089,0,0,0-.3-.344c-.016-.012-.026-.016-.035-.024a1.352,1.352,0,0,1-.18-.26c-.061-.136-.115-.271-.164-.4a1.283,1.283,0,0,0-.592-.761,8.733,8.733,0,0,0-2.482-.908,4.383,4.383,0,0,0-1.835-.229c-.632.049-2.091.279-2.258,1.076a1.859,1.859,0,0,0-1.381.727,7.755,7.755,0,0,0-.761,1.125,2.8,2.8,0,0,0-.138.466,22.369,22.369,0,0,0,.147,3.715c.122.449.318.271.524.69.222.374.41,1.266.515,1.016.021-.369-.155-1.925-.152-2.288,0-.007-.258-1.142-.313-1.467a3.269,3.269,0,0,1,.192-1.507,3.05,3.05,0,0,1,2.545-1.661,5.938,5.938,0,0,1,1.509.679,4.344,4.344,0,0,0,2.111.4c.431.1.868.138,1.3.211.313.051.7.04.933.288a.881.881,0,0,1,.22.388c.019.08.035.168.047.248a6.443,6.443,0,0,1-.3,1.843c-.138.65-.627,3.217-.225,3.776,0,.005.554-2.157.562-2.153.019.07.531-.084.653-.538A24.03,24.03,0,0,0,276.524,151.121Z" transform="translate(-256.033 -147.713)" fill="#3b2c23"/>
      </g>
      <path id="Trazado_120104" data-name="Trazado 120104" d="M297.235,221.794a46.018,46.018,0,1,1,46.019-46.021A46.073,46.073,0,0,1,297.235,221.794Zm0-88.107a42.089,42.089,0,1,0,42.09,42.086A42.136,42.136,0,0,0,297.235,133.688Z" transform="translate(0 0)" fill="#57dbd8"/>
      <path id="Trazado_120105" data-name="Trazado 120105" d="M291.751,203.486a33.192,33.192,0,1,1,33.191-33.193A33.23,33.23,0,0,1,291.751,203.486Zm0-63.765a30.573,30.573,0,1,0,30.572,30.572A30.607,30.607,0,0,0,291.751,139.721Z" transform="translate(5.483 5.481)" fill="#57dbd8"/>
      <rect id="Rectángulo_29760" data-name="Rectángulo 29760" width="3.93" height="5.938" transform="translate(295.271 143.892)" fill="#57dbd8"/>
      <rect id="Rectángulo_29761" data-name="Rectángulo 29761" width="3.93" height="5.939" transform="translate(295.271 202.091)" fill="#57dbd8"/>
      <rect id="Rectángulo_29762" data-name="Rectángulo 29762" width="5.937" height="3.93" transform="translate(323.366 173.996)" fill="#57dbd8"/>
      <rect id="Rectángulo_29763" data-name="Rectángulo 29763" width="5.937" height="3.93" transform="translate(265.168 173.996)" fill="#57dbd8"/>
      <g id="Grupo_56611" data-name="Grupo 56611" transform="translate(313.255 166.592)">
        <g id="Grupo_56610" data-name="Grupo 56610">
          <path id="Trazado_120106" data-name="Trazado 120106" d="M287.04,151.3c-.1-.037-.2-.07-.3-.1a17.236,17.236,0,0,1,3.53,3.327,13.714,13.714,0,0,0-.735-1.794,8.6,8.6,0,0,1,1.647,1.32,7.293,7.293,0,0,0-2.943-3.208c.489.513.985,1.025,1.483,1.54-.458-.288-.913-.576-1.374-.863.258.33.515.658.768.988A6.533,6.533,0,0,0,287.04,151.3Z" transform="translate(-286.738 -150.849)" fill="#7d4e24"/>
        </g>
      </g>
      <g id="Grupo_56612" data-name="Grupo 56612" transform="translate(298.003 154.786)">
        <path id="Trazado_120107" data-name="Trazado 120107" d="M278.311,144.545c-.1-.04-.2-.072-.306-.1a17.191,17.191,0,0,1,3.528,3.327,14.056,14.056,0,0,0-.733-1.794,8.577,8.577,0,0,1,1.647,1.322,7.278,7.278,0,0,0-2.945-3.208q.744.768,1.486,1.539-.689-.43-1.371-.863c.255.33.508.66.767.99A6.551,6.551,0,0,0,278.311,144.545Z" transform="translate(-278.005 -144.089)" fill="#59493e"/>
      </g>
    </g>
  </g>
</svg>
