<svg xmlns="http://www.w3.org/2000/svg" width="154.57" height="138" viewBox="0 0 154.57 138">
  <g id="Grupo_57244" data-name="Grupo 57244" transform="translate(-365.183 -8043)">
    <circle id="Elipse_4258" data-name="Elipse 4258" cx="69" cy="69" r="69" transform="translate(378 8043)" fill="#fff"/>
    <g id="Grupo_56498" data-name="Grupo 56498" transform="translate(235.646 8026.08)">
      <g id="Grupo_56496" data-name="Grupo 56496" transform="translate(129.537 40.104)">
        <g id="Grupo_56494" data-name="Grupo 56494">
          <g id="Grupo_56493" data-name="Grupo 56493">
            <path id="Trazado_119908" data-name="Trazado 119908" d="M133.368,81.534l10.652,20.8,9.155-4.917,8.148-.085,15.195-7.316-16.676-24.9L142.776,75.143l-3.9,2.162Z" transform="translate(-126.052 -17.351)" fill="#ffc89f"/>
            <path id="Trazado_119909" data-name="Trazado 119909" d="M167.815,90.018,151.138,65.112,144.693,68.9c-3.56,7.337-1.154,16.069,2.242,22.86a15.8,15.8,0,0,0,3.965,5.586l1.721-.019Z" transform="translate(-117.348 -17.352)" fill="#f0b990"/>
            <g id="Grupo_56492" data-name="Grupo 56492" transform="translate(29.543)">
              <path id="Trazado_119910" data-name="Trazado 119910" d="M241.382,40.1H155.09a6.973,6.973,0,0,0-6.954,6.956v60.063a6.972,6.972,0,0,0,6.954,6.948h83.854a6.973,6.973,0,0,0,6.952-6.948V47.06C245.9,43.234,245.213,40.1,241.382,40.1Z" transform="translate(-142.158 -40.104)" fill="#1a222b"/>
              <path id="Trazado_119911" data-name="Trazado 119911" d="M238.25,40.1H151.958a6.973,6.973,0,0,0-6.952,6.956v60.063a6.971,6.971,0,0,0,6.952,6.948H235.81a6.971,6.971,0,0,0,6.952-6.948V47.06C242.761,43.234,242.079,40.1,238.25,40.1Z" transform="translate(-145.006 -40.104)" fill="#2c3540"/>
              <path id="Trazado_119912" data-name="Trazado 119912" d="M236.487,43.727V107a1.763,1.763,0,0,1-1.744,1.738H148.972A1.758,1.758,0,0,1,147.23,107V43.727A1.756,1.756,0,0,1,148.972,42h85.771A1.762,1.762,0,0,1,236.487,43.727Z" transform="translate(-142.983 -38.382)" fill="#e4e8ed"/>
              <g id="Grupo_56486" data-name="Grupo 56486" transform="translate(30.515 7.862)">
                <path id="Trazado_119913" data-name="Trazado 119913" d="M160.984,44.289h8.552v2.62h-2.861v8.4h-2.92v-8.4h-2.771Z" transform="translate(-160.984 -44.158)" fill="#ff4140"/>
                <path id="Trazado_119914" data-name="Trazado 119914" d="M165.771,46.848c0-2.269,1.736-2.559,2.8-2.559a48.688,48.688,0,0,1,4.923.241v2.454h-4.02c-.783,0-.783.435-.783.844v.663l4.051.164v2.424l-4.051.136v.663c0,.8.5.783.934.783h3.869V55.1c-1.551.21-4.773.256-4.773.256-.974.031-2.951-.164-2.951-2.469Z" transform="translate(-156.629 -44.158)" fill="#ff4140"/>
                <path id="Trazado_119915" data-name="Trazado 119915" d="M170.218,47.243a2.828,2.828,0,0,1,2.981-2.981,10.944,10.944,0,0,1,4.668.5v2.273c-.964-.105-2.62-.149-3.613-.149-.814,0-1.113.029-1.113.661v.166c0,.466.088.722.9.722h1.415c2.288,0,2.817,1.988,2.817,3.191v.5c0,2.8-1.566,3.373-3.058,3.373-2.815,0-3.145,0-4.652-.51V52.707c.6.061,2.5.166,3.9.166.647,0,.888-.166.888-.619v-.239c0-.437-.136-.665-.8-.665H173.2a2.853,2.853,0,0,1-2.981-3.189Z" transform="translate(-152.583 -44.221)" fill="#ff4140"/>
                <path id="Trazado_119916" data-name="Trazado 119916" d="M174.547,44.289h8.55v2.62h-2.859v8.4h-2.92v-8.4h-2.771Z" transform="translate(-148.644 -44.158)" fill="#ff4140"/>
              </g>
              <g id="Grupo_56491" data-name="Grupo 56491" transform="translate(8.668 19.779)">
                <g id="Grupo_56487" data-name="Grupo 56487" transform="translate(0 2.584)">
                  <rect id="Rectángulo_29746" data-name="Rectángulo 29746" width="60.698" height="9.966" transform="translate(0 0.717)" fill="#2c3540"/>
                  <path id="Trazado_119917" data-name="Trazado 119917" d="M196.077,63.214H184.255v-11.4h11.822Zm-10.389-1.432h8.957V53.246h-8.957Z" transform="translate(-117.966 -51.814)" fill="#2c3540"/>
                </g>
                <g id="Grupo_56488" data-name="Grupo 56488" transform="translate(0 19.087)">
                  <rect id="Rectángulo_29747" data-name="Rectángulo 29747" width="60.698" height="9.966" transform="translate(0 0.716)" fill="#2c3540"/>
                  <path id="Trazado_119918" data-name="Trazado 119918" d="M196.077,71.853H184.255v-11.4h11.822ZM185.687,70.42h8.957V61.887h-8.957Z" transform="translate(-117.966 -60.455)" fill="#2c3540"/>
                </g>
                <g id="Grupo_56489" data-name="Grupo 56489" transform="translate(0 35.59)">
                  <rect id="Rectángulo_29748" data-name="Rectángulo 29748" width="60.698" height="9.965" transform="translate(0 0.716)" fill="#2c3540"/>
                  <path id="Trazado_119919" data-name="Trazado 119919" d="M196.077,80.494H184.255V69.1h11.822Zm-10.389-1.432h8.957V70.528h-8.957Z" transform="translate(-117.966 -69.096)" fill="#2c3540"/>
                </g>
                <g id="Grupo_56490" data-name="Grupo 56490" transform="translate(67.31)">
                  <path id="Trazado_119920" data-name="Trazado 119920" d="M190.094,64.932a1.242,1.242,0,0,1-1.06-.6l-4.068-6.753a1.237,1.237,0,0,1,2.12-1.276l2.84,4.713,4.352-9.822a1.237,1.237,0,1,1,2.263,1l-5.317,12a1.234,1.234,0,0,1-1.052.735Z" transform="translate(-184.79 -50.461)" fill="#ff4140"/>
                </g>
              </g>
            </g>
            <path id="Trazado_119921" data-name="Trazado 119921" d="M142.466,70.771l-12.929,3.745,9.489,28.807,15.793-8.732Z" transform="translate(-129.537 -12.204)" fill="#ff4140"/>
            <path id="Trazado_119922" data-name="Trazado 119922" d="M150.931,94.591,138.579,70.77l-3.061.888c5.262,9.224,5.2,21.235-1.707,27.627l1.329,4.037Z" transform="translate(-125.65 -12.204)" fill="#cc2221"/>
          </g>
          <path id="Trazado_119923" data-name="Trazado 119923" d="M183.514,42,147.23,78.283V66.861L172.091,42Z" transform="translate(-113.441 -38.38)" fill="#fff" opacity="0.2" style="mix-blend-mode: screen;isolation: isolate"/>
          <path id="Trazado_119924" data-name="Trazado 119924" d="M224.029,42l-66.734,66.736h-8.327A1.753,1.753,0,0,1,147.23,107V87.443L192.672,42Z" transform="translate(-113.44 -38.38)" fill="#fff" opacity="0.2" style="mix-blend-mode: screen;isolation: isolate"/>
        </g>
        <g id="Grupo_56495" data-name="Grupo 56495" transform="translate(14.849 28.118)">
          <path id="Trazado_119925" data-name="Trazado 119925" d="M143.353,64.562l12.654-8.926s1.782-1.644,2.681-.243c.521.819,1.942,5.351-2.6,8.661-1.352.985-5.37,4.564-5.37,4.564s1.18,8.5-2.022,11.056c-2.561,2.045-11.388,5.873-11.388,5.873l1.623-8.756S142.786,66.063,143.353,64.562Z" transform="translate(-137.312 -54.827)" fill="#ffc89f"/>
        </g>
      </g>
      <g id="Grupo_56497" data-name="Grupo 56497" transform="translate(234.357 81.677)">
        <path id="Trazado_119926" data-name="Trazado 119926" d="M201.906,99.41c.527.29.976.516.976.516l2.458-8.644c-3.178-2.89-10.3-5.477-10.3-5.477l-.619-1.8c4.31-3.755.869-7.672.262-8.3s-2.04.97-2.04.97l-5.246,7.11,3.228,8.867C192.088,93.954,199.4,98.035,201.906,99.41Z" transform="translate(-181.712 -49.416)" fill="#ffc89f"/>
        <path id="Trazado_119927" data-name="Trazado 119927" d="M195.7,91.647l3.021,6.081,17.167-3.791-3.063-8.294C211.006,86.365,197.578,90.918,195.7,91.647Z" transform="translate(-174.166 -40.245)" fill="#ffc89f"/>
        <path id="Trazado_119928" data-name="Trazado 119928" d="M222.274,105.085s.758-5.808.745-5.875c-.357-1.961-2.4-13.248-5.418-19.87l-1.352-3.615a3.119,3.119,0,0,0-6.046.709l-.18-.569a3.328,3.328,0,0,0-6.453.838l-.178-.529a3.331,3.331,0,1,0-6.241,2.324l.006.006c-.048.015-.1.023-.143.034l-5.918-14.52a3.467,3.467,0,1,0-6.409,2.645s10.861,27.417,11.054,27.662l2.891,7.02-.772,6.686c.332.227,7.376,3.795,7.376,3.795l3.737,7.528,17.167-3.791Z" transform="translate(-184.422 -61.872)" fill="#ffc89f"/>
        <path id="Trazado_119929" data-name="Trazado 119929" d="M212.469,99.478s.758-5.808.745-5.875c-.357-1.961-2.4-13.248-5.418-19.87l-1.352-3.615a3.143,3.143,0,0,0-4-1.906,3.079,3.079,0,0,0-1.845,1.8c5.426,12.523,4.033,27.961-5.4,36.086.137.071.231.117.231.117l3.737,7.528,17.167-3.791Z" transform="translate(-174.618 -56.265)" fill="#f0b990"/>
        <path id="Trazado_119930" data-name="Trazado 119930" d="M217.7,85.187l-22.977,8.967,3.759,13.318L224.8,97.413Z" transform="translate(-175.047 -40.66)" fill="#ff4140"/>
        <path id="Trazado_119931" data-name="Trazado 119931" d="M223.622,97.413l-7.093-12.227-2.916,1.138c.8,9.362-7.88,13.884-17.6,16.568l1.293,4.58Z" transform="translate(-173.872 -40.661)" fill="#cc2221"/>
      </g>
    </g>
  </g>
</svg>
