<svg xmlns="http://www.w3.org/2000/svg" width="138" height="138" viewBox="0 0 138 138">
  <g id="Grupo_56628" data-name="Grupo 56628" transform="translate(-725 -8364)">
    <circle id="Elipse_4256" data-name="Elipse 4256" cx="69" cy="69" r="69" transform="translate(725 8364)" fill="#fff"/>
    <g id="Grupo_56560" data-name="Grupo 56560" transform="translate(397.081 8152.68)">
      <g id="Grupo_56542" data-name="Grupo 56542" transform="translate(394.473 238.32)">
        <g id="Grupo_56541" data-name="Grupo 56541">
          <g id="Grupo_56540" data-name="Grupo 56540">
            <g id="Grupo_56538" data-name="Grupo 56538">
              <path id="Trazado_119996" data-name="Trazado 119996" d="M424.655,260.659a26.208,26.208,0,0,0-25.917-22.339v5.363a20.841,20.841,0,0,1,3.076,41.454,20.568,20.568,0,0,1-3.076.229v5.361a26.181,26.181,0,0,0,25.917-30.069Z" transform="translate(-372.531 -238.32)" fill="#cc2221"/>
              <path id="Trazado_119997" data-name="Trazado 119997" d="M385.718,267.6a20.834,20.834,0,0,1,17.539-23.683,21.053,21.053,0,0,1,3.072-.234V238.32a26.2,26.2,0,1,0,0,52.407v-5.361A20.843,20.843,0,0,1,385.718,267.6Z" transform="translate(-380.121 -238.32)" fill="#cc2221"/>
              <path id="Trazado_119998" data-name="Trazado 119998" d="M414.042,260.692a15.478,15.478,0,0,1-15.3,17.757v5.365a20.568,20.568,0,0,0,3.076-.229,20.841,20.841,0,0,0-3.076-41.454v5.365A15.471,15.471,0,0,1,414.042,260.692Z" transform="translate(-372.531 -236.767)" fill="#fefeff"/>
              <path id="Trazado_119999" data-name="Trazado 119999" d="M384.164,266.047a20.843,20.843,0,0,0,20.61,17.767v-5.365a15.474,15.474,0,0,1-2.282-30.779,14.786,14.786,0,0,1,2.282-.175V242.13a21.053,21.053,0,0,0-3.072.234A20.834,20.834,0,0,0,384.164,266.047Z" transform="translate(-378.567 -236.767)" fill="#fefeff"/>
              <path id="Trazado_120000" data-name="Trazado 120000" d="M394.443,262.729a8.878,8.878,0,0,1,7.469-10.089,9.853,9.853,0,0,1,1.308-.094v-6.6a14.786,14.786,0,0,0-2.282.175,15.474,15.474,0,0,0,2.282,30.779v-6.6A8.878,8.878,0,0,1,394.443,262.729Z" transform="translate(-377.013 -235.213)" fill="#cc2221"/>
              <path id="Trazado_120001" data-name="Trazado 120001" d="M414.042,259.138a15.471,15.471,0,0,0-15.3-13.2v6.6a8.872,8.872,0,1,1,0,17.744v6.6a15.478,15.478,0,0,0,15.3-17.757Z" transform="translate(-372.531 -235.213)" fill="#cc2221"/>
              <path id="Trazado_120002" data-name="Trazado 120002" d="M403.229,258.84a4.538,4.538,0,0,1-3.821,5.155,4.306,4.306,0,0,1-.67.046v4.336a8.872,8.872,0,1,0,0-17.744v4.333A4.546,4.546,0,0,1,403.229,258.84Z" transform="translate(-372.531 -233.3)" fill="#fefeff"/>
              <path id="Trazado_120003" data-name="Trazado 120003" d="M392.531,260.816a8.877,8.877,0,0,0,8.777,7.561v-4.336a4.539,4.539,0,0,1-.667-9.029,5.37,5.37,0,0,1,.667-.046v-4.333a9.849,9.849,0,0,0-1.308.094A8.878,8.878,0,0,0,392.531,260.816Z" transform="translate(-375.101 -233.3)" fill="#fefeff"/>
              <path id="Trazado_120004" data-name="Trazado 120004" d="M399.385,253.757a4.539,4.539,0,0,0,.667,9.029v-9.075A5.368,5.368,0,0,0,399.385,253.757Z" transform="translate(-373.845 -232.045)" fill="#cc2221"/>
              <path id="Trazado_120005" data-name="Trazado 120005" d="M403.229,257.585a4.546,4.546,0,0,0-4.491-3.874v9.075a4.306,4.306,0,0,0,.67-.046A4.538,4.538,0,0,0,403.229,257.585Z" transform="translate(-372.531 -232.045)" fill="#cc2221"/>
            </g>
            <g id="Grupo_56539" data-name="Grupo 56539" transform="translate(25.015 24.83)">
              <path id="Trazado_120006" data-name="Trazado 120006" d="M413.04,262.543l-3.6-2.469-3.159,1.052,3.5,2.407Z" transform="translate(-394.469 -254.28)" fill="#fdb813"/>
              <path id="Trazado_120007" data-name="Trazado 120007" d="M421.714,266.27l-6.447-4.442-5.673,1.9,6.277,4.314Z" transform="translate(-393.12 -253.565)" fill="#fdb813"/>
              <path id="Trazado_120008" data-name="Trazado 120008" d="M415.156,275.255l-6.446-4.44-.259-5.976,6.276,4.319Z" transform="translate(-393.586 -252.338)" fill="#fdb813"/>
              <path id="Trazado_120009" data-name="Trazado 120009" d="M408.968,268.438l-3.595-2.472-.14-3.334,3.5,2.413Z" transform="translate(-394.897 -253.237)" fill="#fdb813"/>
              <path id="Trazado_120010" data-name="Trazado 120010" d="M423.348,273.974a1.522,1.522,0,0,0-.394-2.12L400.077,256.19a1.306,1.306,0,0,0-1.885.443,1.355,1.355,0,0,0,.265,1.916l22.765,15.814A1.528,1.528,0,0,0,423.348,273.974Z" transform="translate(-397.891 -255.958)" fill="#1e2d4f"/>
            </g>
          </g>
        </g>
      </g>
      <g id="Grupo_56559" data-name="Grupo 56559" transform="translate(344.919 253.76)">
        <g id="Grupo_56553" data-name="Grupo 56553" transform="translate(15.705)">
          <g id="Grupo_56543" data-name="Grupo 56543">
            <path id="Rectángulo_29753" data-name="Rectángulo 29753" d="M2.749,0h63.76a2.747,2.747,0,0,1,2.747,2.747V66.51a2.749,2.749,0,0,1-2.749,2.749H2.751A2.751,2.751,0,0,1,0,66.508V2.749A2.749,2.749,0,0,1,2.749,0Z" transform="translate(4.127)" fill="#f6f6f6"/>
            <path id="Rectángulo_29754" data-name="Rectángulo 29754" d="M2.749,0H66.506a2.75,2.75,0,0,1,2.75,2.75V66.51a2.749,2.749,0,0,1-2.749,2.749H2.749A2.749,2.749,0,0,1,0,66.51V2.749A2.749,2.749,0,0,1,2.749,0Z" fill="#f6f6f6"/>
          </g>
          <g id="Grupo_56548" data-name="Grupo 56548" transform="translate(4.952 5.831)">
            <g id="Grupo_56544" data-name="Grupo 56544" transform="translate(7.602 33.834)">
              <rect id="Rectángulo_29755" data-name="Rectángulo 29755" width="14.572" height="21.525" fill="#f4cd25"/>
            </g>
            <g id="Grupo_56545" data-name="Grupo 56545" transform="translate(25.056 24.46)">
              <rect id="Rectángulo_29756" data-name="Rectángulo 29756" width="14.575" height="30.899" fill="#ff4140"/>
            </g>
            <g id="Grupo_56546" data-name="Grupo 56546" transform="translate(42.512 14.233)">
              <rect id="Rectángulo_29757" data-name="Rectángulo 29757" width="14.575" height="41.126" fill="#14b0bf"/>
            </g>
            <g id="Grupo_56547" data-name="Grupo 56547">
              <path id="Trazado_120011" data-name="Trazado 120011" d="M422.548,313.342H360.943a1.35,1.35,0,0,1-1.35-1.35V254.78a1.35,1.35,0,1,1,2.7,0v55.865h60.255a1.349,1.349,0,1,1,0,2.7Z" transform="translate(-359.593 -253.43)" fill="#17283d"/>
            </g>
          </g>
          <g id="Grupo_56552" data-name="Grupo 56552" transform="translate(11.952 3.712)">
            <g id="Grupo_56549" data-name="Grupo 56549" transform="translate(0 2.793)">
              <path id="Trazado_120012" data-name="Trazado 120012" d="M365.77,278.108l-1.2-1.289,15.991-14.9,10.063,8,17.3-16.011,1.2,1.3-18.411,17.037-10.059-7.994Z" transform="translate(-364.565 -253.909)" fill="#ff4140"/>
            </g>
            <g id="Grupo_56551" data-name="Grupo 56551" transform="translate(40.805)">
              <g id="Grupo_56550" data-name="Grupo 56550">
                <path id="Trazado_120013" data-name="Trazado 120013" d="M398.334,258.648l2.083-6.724-6.864,1.557Z" transform="translate(-393.553 -251.925)" fill="#ff4140"/>
              </g>
            </g>
          </g>
        </g>
        <g id="Grupo_56558" data-name="Grupo 56558" transform="translate(0 16.357)">
          <g id="_8" data-name="8">
            <g id="Grupo_56554" data-name="Grupo 56554" transform="translate(0 25.766)">
              <path id="Trazado_120014" data-name="Trazado 120014" d="M354.547,285.278l.325.308h0l1.36,1.289.515.488c.1.09.3.038.442-.125l.153-.172.334-.372.664-.746.177-.2.073-.082h0l1.909-2.138.163-.182,1.488-1.665.241-.273a.269.269,0,0,0,.041-.365l-.372-.352L360.7,279.4l-.155-.148a.28.28,0,0,0-.365.059l-.38.383-.7.69-.936.933-1.449,1.439-.584.583-.265.266-.709.708-.353.351-.168.16C354.492,284.982,354.45,285.184,354.547,285.278Z" transform="translate(-341.015 -279.212)" fill="#1a222b"/>
              <path id="Trazado_120015" data-name="Trazado 120015" d="M353.415,285.075l.543.514,1.361,1.292.725.688c.09.085.291.021.446-.142l.194-.2,1.33-1.4.063-.069c.152-.162.2-.365.115-.449l-.059-.056-.673-.638-1.36-1.292-.479-.448-.059-.061c-.09-.086-.29-.021-.445.142l-.063.065-.573.607-.952,1C353.378,284.786,353.325,284.989,353.415,285.075Z" transform="translate(-341.473 -277.762)" fill="#4f5f70"/>
              <path id="Trazado_120016" data-name="Trazado 120016" d="M344.977,296.611l.946.9,1.36,1.291h0l1.159,1.1c.155.144.566-.045.911-.422l11.029-11.985.862-.971c.259-.284.359-.621.224-.747l-.008-.008-.214-.2-.681-.645-.03-.028-1.332-1.263-.027-.028-.462-.435-.214-.2-.011-.01c-.131-.125-.458-.013-.725.256l-.006.01-12.413,12.461C344.989,296.045,344.822,296.463,344.977,296.611Z" transform="translate(-344.919 -277.708)" fill="#cc2221"/>
              <path id="Trazado_120017" data-name="Trazado 120017" d="M355.475,283.074l.457.433,1.358,1.289.652.617.177-.2.073-.082h0L360.1,283l.164-.182.087-.1-.391-.369-.19-.181-1.361-1.288-.371-.352-.267.264-1.45,1.442-.584.579Z" transform="translate(-340.615 -278.677)" fill="#4f5f70"/>
              <path id="Trazado_120018" data-name="Trazado 120018" d="M355.452,282.543l.325.313.446.424,1.363,1.289.232.22.414.393.328.312a.337.337,0,0,0,.452-.09l1.451-1.536c.144-.149.176-.356.068-.455l-.39-.37h0l-.588-.556-1.36-1.291-.382-.36h0l-.389-.37a.337.337,0,0,0-.453.089l-.939.991-.517.545A.33.33,0,0,0,355.452,282.543Z" transform="translate(-340.652 -278.724)" fill="#cc2221"/>
              <path id="Trazado_120019" data-name="Trazado 120019" d="M345.632,297.3l1.359,1.292h0l13.251-13.909-1.331-1.262-.027-.028Z" transform="translate(-344.628 -277.505)" fill="#ff4140"/>
            </g>
            <g id="Grupo_56557" data-name="Grupo 56557" transform="translate(14.412)">
              <g id="Grupo_56555" data-name="Grupo 56555">
                <path id="Trazado_120020" data-name="Trazado 120020" d="M357.908,280.06c-.041-.141-.08-.284-.115-.425h0c-.058-.224-.108-.45-.151-.681-.035-.155-.063-.315-.089-.474a1.037,1.037,0,0,1-.013-.111.122.122,0,0,1-.006-.037h0a13.179,13.179,0,0,1-.127-2.634v0c.007-.149.018-.3.032-.452s.025-.294.044-.441a12.871,12.871,0,0,1,.336-1.772h0c.052-.2.106-.4.166-.591s.137-.418.213-.626c.125-.336.259-.664.41-.984.024-.052.046-.1.072-.155.048-.1.1-.2.151-.3.027-.051.053-.1.079-.153a12.329,12.329,0,0,1,.709-1.192c.03-.039.055-.082.082-.118.041-.062.083-.12.125-.179s.07-.1.107-.148a1.176,1.176,0,0,1,.114-.151,12.926,12.926,0,0,1,1.71-1.874,13.2,13.2,0,0,1,10.01-3.364,13.07,13.07,0,0,1,2.023.331h0a13.226,13.226,0,0,1,7.87,5.539c.018.028.039.056.056.084h0c.065.1.127.2.187.3.1.165.2.332.293.5.025.041.048.083.07.127.087.16.173.322.252.491.021.038.044.082.065.127.1.22.2.446.3.674.08.19.152.38.221.573.1.273.187.552.267.829a13.193,13.193,0,0,1,.5,3.49v.082c0,.124,0,.245,0,.365s-.007.248-.014.369c0,.048-.006.091-.01.138s-.006.082-.007.121c-.006.063-.01.127-.015.193,0,.046-.009.093-.014.141-.042.418-.1.828-.177,1.233h0c-.049.26-.107.521-.172.774-.007.023-.013.045-.018.065a12.541,12.541,0,0,1-.57,1.7c-.017.048-.039.1-.059.139v0l-.006.01c0,.007,0,.008-.006.014-.044.1-.087.207-.135.308-.023.055-.051.111-.076.168-.016.025-.027.051-.042.077-.107.225-.221.448-.343.664-.139.249-.286.5-.442.735-.117.184-.242.363-.367.539-.1.139-.2.272-.3.4-.024.034-.048.061-.072.09l-.01.015c-.2.253-.414.5-.632.739-.041.046-.083.09-.128.132-.023.03-.046.052-.07.08-.077.082-.158.161-.239.239a12.822,12.822,0,0,1-1.188,1.039c-.16.131-.328.255-.5.373a.227.227,0,0,1-.052.037h0c-.035.024-.072.049-.108.079a1.091,1.091,0,0,0-.1.066c-.293.194-.593.374-.9.549a.123.123,0,0,0-.03.017c-.055.031-.11.062-.165.09-.186.1-.379.2-.572.29-.052.024-.106.051-.162.075s-.1.049-.158.073c-.3.135-.605.258-.919.367-.091.037-.184.068-.279.1l-.017,0c-.084.03-.169.056-.253.087s-.194.056-.293.082c-.034.011-.069.018-.1.031-.052.011-.107.027-.16.041-.07.018-.141.037-.213.058-.055.01-.113.024-.162.037-.386.089-.776.16-1.171.213a.137.137,0,0,1-.039.007h-.014l-.358.044c-.07.007-.141.016-.213.02h0c-.055,0-.108.008-.16.014-.156.011-.315.02-.474.028-.175.006-.346.01-.52.01-.055,0-.11,0-.166,0-.137,0-.279-.007-.415-.013-.158-.008-.311-.017-.465-.028-.044,0-.082-.007-.124-.007l-.02,0q-.376-.036-.747-.089c-.366-.051-.724-.12-1.077-.2-.182-.045-.36-.089-.538-.137a.511.511,0,0,1-.049-.016c-.267-.073-.532-.156-.791-.245-.037-.016-.07-.024-.107-.039h0a.119.119,0,0,0-.035-.008c-.049-.021-.1-.039-.151-.062h0a1.364,1.364,0,0,1-.144-.054c-.272-.106-.541-.218-.8-.342-.034-.014-.063-.028-.1-.045h0l-.173-.082c-.042-.025-.086-.042-.128-.066-.248-.128-.493-.259-.732-.4l-.245-.148-.117-.073c-.228-.148-.453-.3-.669-.456-.049-.035-.1-.069-.146-.1-.024-.021-.052-.039-.077-.058l-.107-.086c-.153-.117-.3-.239-.453-.365-.051-.044-.106-.089-.156-.137h0c-.025-.018-.048-.041-.07-.061l-.132-.121c-.021-.017-.044-.039-.065-.056a.4.4,0,0,1-.034-.035c-.191-.173-.379-.356-.557-.546-.063-.066-.122-.129-.184-.193-.028-.032-.061-.066-.089-.1-.173-.19-.339-.389-.5-.593h0c-.056-.07-.111-.138-.165-.21-.027-.032-.055-.072-.08-.1-.158-.21-.307-.419-.452-.638-.032-.051-.065-.1-.1-.151-.016-.025-.034-.052-.048-.075l-.006-.01c-.023-.032-.044-.07-.065-.1-.037-.062-.077-.122-.113-.186-.052-.084-.1-.173-.151-.259q-.106-.179-.2-.363h0c-.051-.1-.1-.191-.146-.286s-.082-.166-.12-.249c-.117-.248-.227-.5-.327-.753A11.67,11.67,0,0,1,357.908,280.06Zm.214,5.428a15.823,15.823,0,0,0,1.413,1.674c.1.106.211.215.318.321a15.29,15.29,0,0,0,1.425,1.222c.2.156.4.3.607.441.122.082.242.165.366.244a15.021,15.021,0,0,0,1.333.767c.417.215.852.411,1.291.591a15.984,15.984,0,0,0,2.1.669c.079.017.159.038.239.053.12.028.239.054.359.079q.452.087.914.155l.027.006c.179.024.36.044.543.063l.243.023c.042,0,.086,0,.128.01.249.018.5.032.743.041.072,0,.146.006.217.006s.132,0,.194,0h.09c.263,0,.526-.008.79-.02.02,0,.038,0,.056,0,.114-.007.225-.017.341-.025.03,0,.056,0,.083-.006.061-.006.124-.01.182-.017.384-.034.767-.089,1.139-.149.021-.006.044-.01.065-.014.115-.02.235-.044.348-.063.056-.014.117-.024.172-.039a1.322,1.322,0,0,0,.165-.035h.01q.578-.131,1.14-.3c.053-.015.1-.031.156-.049.12-.035.239-.077.356-.115.058-.023.114-.038.168-.059.155-.053.3-.111.456-.173.069-.027.139-.052.208-.082.134-.055.265-.113.393-.17.3-.134.593-.272.881-.425.187-.1.374-.2.557-.305a14.2,14.2,0,0,0,1.332-.86c.035-.023.068-.049.1-.07v0c.135-.1.267-.2.4-.3a14.355,14.355,0,0,0,1.188-1.035c.114-.108.224-.215.334-.329.038-.037.075-.077.115-.115a15.519,15.519,0,0,0,1.043-1.209c.132-.17.26-.341.386-.517a16.012,16.012,0,0,0,.89-1.4c.11-.2.218-.4.32-.6a15.841,15.841,0,0,0,.7-1.622c.084-.229.163-.46.239-.7.068-.221.132-.442.191-.666.056-.2.106-.405.148-.611a15.4,15.4,0,0,0,.283-5.072q-.042-.391-.106-.78c-.056-.346-.125-.7-.2-1.033h0c-.006-.023-.007-.039-.014-.062a15.472,15.472,0,0,0-1.036-2.982,15.632,15.632,0,0,0-3.059-4.362,15.445,15.445,0,0,0-18.028-2.851,15.475,15.475,0,0,0-6.636,6.574c-.158.3-.308.6-.443.916-.051.11-.1.221-.139.331a15.316,15.316,0,0,0-1.014,3.647c-.045.318-.087.639-.113.966-.015.151-.024.3-.032.452-.01.134-.016.27-.02.407,0,.172-.008.345-.008.52,0,.376.015.757.045,1.132a15.145,15.145,0,0,0,.218,1.667,14.112,14.112,0,0,0,.324,1.38A15.57,15.57,0,0,0,358.122,285.488Z" transform="translate(-355.157 -260.908)" fill="#4f5f70"/>
              </g>
              <g id="Grupo_56556" data-name="Grupo 56556" transform="translate(2.084 2.14)">
                <path id="Trazado_120021" data-name="Trazado 120021" d="M357.505,280.928h0c.055.146.113.293.174.439.028.072.058.138.086.208.11.251.228.5.352.74a13.657,13.657,0,0,0,10.206,7.35c.267.038.534.07.8.1.048,0,.091.007.138.008q.513.04,1.019.038a12.611,12.611,0,0,0,1.387-.066,13.736,13.736,0,0,0,1.579-.252c.439-.1.87-.217,1.292-.353.113-.038.227-.073.339-.117a13.475,13.475,0,0,0,3.345-1.748h0a13.682,13.682,0,0,0,4.868-6.328c.09-.238.176-.479.248-.726a12.979,12.979,0,0,0,.467-2.024v0c.044-.266.076-.535.1-.808,0-.032.007-.06.008-.087,0-.049.007-.094.01-.142.013-.152.023-.3.028-.448a13.586,13.586,0,0,0-.657-4.838h0c-.018-.054-.035-.108-.055-.163h0c-.039-.114-.083-.229-.121-.343-.1-.256-.2-.511-.311-.762-.031-.075-.065-.153-.1-.231a.232.232,0,0,1-.021-.042c-.054-.114-.11-.227-.165-.341-.127-.255-.26-.5-.405-.746a13.649,13.649,0,0,0-8.086-6.291h0a13.657,13.657,0,0,0-14.934,5.341c-.027.037-.052.079-.082.118a12.786,12.786,0,0,0-.74,1.216c-.038.066-.072.131-.107.2a13.566,13.566,0,0,0-.605,1.342,13.776,13.776,0,0,0-.335,8.95Q357.353,280.525,357.505,280.928Zm13.3-17.938h0c.108.007.217.013.327.025a12.732,12.732,0,0,1,9.037,4.944q.3.386.566.794l.017.025c.134.2.262.415.384.629.024.039.047.08.07.125.113.2.22.4.32.611a12.69,12.69,0,0,1,1.264,4.662c.02.266.03.535.034.8,0,.08,0,.155,0,.235,0,.127,0,.252-.008.377-.007.213-.021.424-.038.642a12.775,12.775,0,0,1-.3,1.841,12.119,12.119,0,0,1-.362,1.25,11.236,11.236,0,0,1-.486,1.194,10.381,10.381,0,0,1-.483.942c-.113.2-.234.394-.355.588a12.809,12.809,0,0,1-1.448,1.85,12.637,12.637,0,0,1-.983.939c-.279.238-.562.462-.86.676-.072.053-.145.1-.218.158h0c-.335.229-.677.442-1.032.639-.332.186-.67.356-1.018.511-.332.148-.669.279-1.011.4-.121.044-.241.084-.36.118-.267.084-.536.159-.809.225a12.624,12.624,0,0,1-3.79.339c-.113-.006-.225-.015-.336-.023a12.765,12.765,0,0,1-7.168-2.98c-.208-.179-.411-.362-.608-.553a12.862,12.862,0,0,1-3.029-4.519c-.1-.255-.194-.515-.279-.778-.034-.107-.069-.217-.1-.325h0c-.02-.075-.044-.148-.06-.224h0c-.072-.256-.134-.514-.19-.777a12.9,12.9,0,0,1-.211-3.69,12.745,12.745,0,0,1,1.95-5.772c.153-.243.318-.477.487-.708.039-.058.083-.114.124-.17h0A12.785,12.785,0,0,1,370.8,262.99Z" transform="translate(-356.637 -262.428)" fill="#243242"/>
              </g>
            </g>
          </g>
          <path id="_9" data-name="9" d="M377.38,280.105a11.877,11.877,0,0,0,.58-7.8c-.777-2.748-2.017-5.282-4.4-6.933A11.978,11.978,0,0,0,370,263.7a11.581,11.581,0,0,0-1.876-.358,8.354,8.354,0,0,1-1.8-.039,14.012,14.012,0,0,1,5.666,3.991,9.8,9.8,0,0,1,1.681,8.332,9.293,9.293,0,0,1-1.948,3.849c-1.049,1.216-2.608,1.713-3.66,2.87a4.479,4.479,0,0,0-1.309,2.693c-.172,3.079,3.516,2.209,5.187,1.263A12.892,12.892,0,0,0,377.38,280.105Z" transform="translate(-336.193 -259.93)" fill="#f0f1f1" opacity="0.34"/>
        </g>
      </g>
    </g>
  </g>
</svg>
