<svg xmlns="http://www.w3.org/2000/svg" width="93" height="94" viewBox="0 0 93 94">
  <g id="Grupo_57244" data-name="Grupo 57244" transform="translate(-750 -2872)">
    <ellipse id="Elipse_4177" data-name="Elipse 4177" cx="46.5" cy="47" rx="46.5" ry="47" transform="translate(750 2872)" fill="#fe7062"/>
    <path id="Trazado_120134" data-name="Trazado 120134" d="M688.888,516.475a4.586,4.586,0,0,0-4.252-4.9l-21.5-1.523-.028,0a4.6,4.6,0,0,0-.56.017c-.119.006-.243,0-.361.014-.066.009-.131.035-.2.047a4.384,4.384,0,0,0-.7.171l-.018,0c-.072.024-.131.066-.2.095a4.593,4.593,0,0,0-.595.281c-.124.072-.231.164-.345.246a4.586,4.586,0,0,0-.367.275,4.07,4.07,0,0,0-.316.333c-.1.1-.2.2-.286.316s-.159.245-.235.37a4.266,4.266,0,0,0-.231.385c-.067.138-.112.281-.165.423a4.293,4.293,0,0,0-.147.405,4.411,4.411,0,0,0-.1.6c-.012.09-.04.176-.046.268,0,.008,0,.014,0,.021a4.5,4.5,0,0,0,.055,1.04c.02.119.058.229.086.346a4.358,4.358,0,0,0,.112.454l7.225,20.308a4.586,4.586,0,1,0,8.642-3.075l-2.376-6.682a16.522,16.522,0,0,1,5.29,7.825l0,0a16.465,16.465,0,0,1,.625,2.925c0,.024.008.049.011.073.034.287.043.576.061.865.015.234.038.465.044.7s-.011.448-.015.671c-.006.3-.007.59-.03.89-.02.269-.057.536-.09.806-.027.228-.05.459-.089.684s-.09.448-.138.673c-.061.286-.116.575-.193.856-.026.1-.06.194-.089.292a16.674,16.674,0,0,1-14.812,11.929c-.029,0-.06.006-.09.008-.353.02-.7.017-1.052.015-.193,0-.387,0-.581-.008-.167-.006-.33-.024-.5-.037a16.851,16.851,0,0,1-7.729-2.573c-.11-.07-.22-.142-.329-.217-.234-.156-.463-.323-.69-.492s-.431-.329-.638-.5c-.1-.084-.2-.171-.3-.257-.291-.257-.578-.517-.85-.792l-.009-.009a16.538,16.538,0,0,1-4.138-7.05c-.008-.025-.02-.047-.027-.073a16.554,16.554,0,0,1,4.52-16.409,4.58,4.58,0,0,0-6.231-6.715,25.689,25.689,0,0,0-4.39,31.927,25.128,25.128,0,0,0,5.121,6.043c.124.109.251.216.376.321.364.3.731.6,1.108.878.315.237.638.462.963.683.213.144.424.289.641.425.543.349,1.1.673,1.671.98l.061.034a25.417,25.417,0,0,0,10.423,2.957c.177.012.353.029.532.038.4.017.809.014,1.215.012.425,0,.85,0,1.277-.021.061,0,.121,0,.182,0,.135-.008.265-.032.4-.043.638-.046,1.272-.112,1.908-.206l.092-.015a24.992,24.992,0,0,0,6.032-1.689,25.55,25.55,0,0,0,13.968-14.559c.086-.222.162-.443.242-.667.154-.445.3-.89.431-1.343.113-.387.211-.778.306-1.173.079-.338.159-.676.226-1.018.09-.456.161-.917.225-1.382.046-.329.092-.657.125-.988.015-.162.047-.32.061-.483.02-.251.009-.5.021-.746.023-.454.04-.908.04-1.365,0-.39-.014-.777-.032-1.164-.02-.436-.049-.87-.092-1.3s-.093-.835-.154-1.248c-.058-.385-.122-.769-.2-1.153-.089-.457-.191-.91-.3-1.358q-.126-.5-.272-.994c-.144-.489-.3-.971-.477-1.448-.055-.154-.095-.313-.153-.468l-.021.011a25.718,25.718,0,0,0-6.847-9.923l5.37.381A4.586,4.586,0,0,0,688.888,516.475Z" transform="translate(134.158 2380.949)" fill="#fff"/>
  </g>
</svg>
