<svg xmlns="http://www.w3.org/2000/svg" width="396" height="276.961" viewBox="0 0 396 276.961">
  <g id="Grupo_56742" data-name="Grupo 56742" transform="translate(-284 -2761.863)">
    <g id="Grupo_55674" data-name="Grupo 55674" transform="translate(52 -6083.137)">
      <rect id="Rect치ngulo_5163" data-name="Rect치ngulo 5163" width="396" height="276.961" transform="translate(232 8845)" fill="none"/>
    </g>
    <g id="Grupo_56739" data-name="Grupo 56739" transform="translate(176.465 2756.348)">
      <g id="Grupo_56739-2" data-name="Grupo 56739" transform="translate(159.855 37.373)">
        <path id="Trazado_120263" data-name="Trazado 120263" d="M232.368,71.685l-.96,99.685c-.049,5.174-1.516,8.18-8.913,9.134-9.2,1.187-11.989-.437-13.354-2.965-2.564-4.755-27.671-100.019-31.818-106.5S232.368,71.685,232.368,71.685Z" transform="translate(-126.889 43.959)" fill="#57dbd8"/>
        <path id="Trazado_120264" data-name="Trazado 120264" d="M232.161,93.158l.207-21.473s-59.192-7.127-55.045-.646c.978,1.528,4.839,13.814,7.732,23.318Z" transform="translate(-126.888 43.959)" fill="#00a7cc"/>
        <path id="Trazado_120265" data-name="Trazado 120265" d="M172.118,94.884a11.191,11.191,0,0,0-11,8.64,54.07,54.07,0,0,0-1.257,11.593c-.049,5.68.375,9.373,1.769,12.478a10.942,10.942,0,0,0,9.67,6.254c20.239.736,93.114,3.591,108.31,7.164,17.69,4.158,76.94,30.456,76.94,30.456L345.251,38.2S290.823,82.319,256.27,89.177C229.387,94.514,188.816,94.951,172.118,94.884Z" transform="translate(-159.855 -13.56)" fill="#d0d1de"/>
        <path id="Trazado_120266" data-name="Trazado 120266" d="M178.725,99.779c7.534.361,15.379.76,23.085,1.208-4.836-15.615-2.925-33.462-.454-44.113-7.709.728-15.583,1.228-23.143,1.583C174.625,73.638,175.257,87.895,178.725,99.779Z" transform="translate(-129.388 22.101)" fill="#1a0f91"/>
        <path id="Trazado_120267" data-name="Trazado 120267" d="M315.5,116.567c.381,48.178-22.567,87.419-51.251,87.646S212,165.563,211.624,117.385s22.564-87.422,51.251-87.649S315.118,68.386,315.5,116.567Z" transform="translate(-60.984 -29.735)" fill="#e5e6ed"/>
        <path id="Trazado_120268" data-name="Trazado 120268" d="M303.986,108.064c.323,40.984-19.2,74.365-43.6,74.557s-44.442-32.877-44.764-73.862S234.818,34.392,259.218,34.2,303.663,67.08,303.986,108.064Z" transform="translate(-53.344 -21.203)" fill="#1a0f91"/>
        <path id="Trazado_120269" data-name="Trazado 120269" d="M250.453,80.653c1.048-14.6-8.509-27.182-21.345-28.1a21.081,21.081,0,0,0-12.231,3.012,122.586,122.586,0,0,0-1.254,18.246,117.756,117.756,0,0,0,4.138,30.343,20.486,20.486,0,0,0,5.552,1.269C238.15,106.342,249.408,95.252,250.453,80.653Z" transform="translate(-53.344 13.748)" fill="#fe7062"/>
      </g>
      <g id="Grupo_56741" data-name="Grupo 56741" transform="translate(199.932 25.735)">
        <path id="Trazado_120270" data-name="Trazado 120270" d="M205.016,47.813a6.82,6.82,0,0,1,.559-4.458c-.751.125-1.865.239-1.8-.2.084-.6.212-1.449-.221-1.368a3.064,3.064,0,0,0-1.12.565,5.063,5.063,0,0,1-2.59.631c-.306,1.018-1.173,2.59-.617,3.69.288.567,1.807.3,2.485.559A11.464,11.464,0,0,0,205.016,47.813Z" transform="translate(-125.082 4.912)" fill="#f88667"/>
        <g id="Grupo_56740" data-name="Grupo 56740" transform="translate(43.499)">
          <path id="Trazado_120271" data-name="Trazado 120271" d="M203.681,27.689s-6.417-.361-15.106,3.748l4.051,17.626a18.516,18.516,0,0,1,9.868-2.171Z" transform="translate(-188.575 -22.019)" fill="#fe7062"/>
          <path id="Trazado_120272" data-name="Trazado 120272" d="M192.31,36.944c.038-2.939.221-5.878.288-8.817a26.666,26.666,0,0,1,3.952-.442l-1.187,19.2c-1.653-2.52-2.441-1.961-2.767-2.267C192.607,42.08,192.278,39.461,192.31,36.944Z" transform="translate(-181.444 -22.014)" fill="#e42244"/>
          <path id="Trazado_120273" data-name="Trazado 120273" d="M231.427,32.328s-22.974-9.036-38.031-5.951l-.989,21.965s13.354-2.954,31.841,5.142Z" transform="translate(-181.256 -25.735)" fill="#fe7062"/>
          <rect id="Rect치ngulo_29905" data-name="Rect치ngulo 29905" width="55.088" height="1.977" transform="matrix(0.328, -0.945, 0.945, 0.328, 31.09, 58.28)" fill="#110239"/>
        </g>
        <path id="Trazado_120274" data-name="Trazado 120274" d="M234.626,55.954V49.735s-18.557.143-26.338-2.086-18.208-11.387-22.358-9.9-6.8,5.709-1.647,9.757,17.387,7.543,22.692,8.355C210.651,56.42,231.7,55.951,234.626,55.954Z" transform="translate(-158.702 -3.104)" fill="#57dbd8"/>
        <path id="Trazado_120275" data-name="Trazado 120275" d="M203.584,51.868c-6.553-2.724-12.743-8.654-18.022-14.177-3.931,1.595-6.277,5.683-1.28,9.609,5.154,4.045,17.387,7.543,22.692,8.355,1.807.274,7.813.3,13.8.259A60.114,60.114,0,0,1,203.584,51.868Z" transform="translate(-158.7 -2.9)" fill="#00a7cc"/>
        <path id="Trazado_120276" data-name="Trazado 120276" d="M191.06,68.654s-3.629,5.855-3.093,7.246S201.1,84.607,202.8,84.022s2.022-2.584-.233-4.6c-2.028-1.813-4.01-2.325-5.369-4.091-1.193-1.548-.006-5.5-.006-5.5Z" transform="translate(-146.342 56.239)" fill="#110239"/>
        <path id="Trazado_120277" data-name="Trazado 120277" d="M197.163,52.832s2.523,2.069,5.186,1.72S230.971,56.9,233.634,59.1,225.4,105.22,225.4,105.22l-9.027-1.5s3.236-32.109,2.695-32.342-14.172-.18-37.414-.18c-5.674,0-12-11.919-4.825-20.254Z" transform="translate(-173.627 22.405)" fill="#fd425f"/>
        <path id="Trazado_120278" data-name="Trazado 120278" d="M187.38,35.784a10.108,10.108,0,0,1-2.43-1.531c-.358,2.668-1.362,7.592-4.083,10.165,0,0,5.634,2.325,10.252,1.3,0,0-.544-6.265.41-9.335A9.141,9.141,0,0,1,187.38,35.784Z" transform="translate(-159.799 -9.467)" fill="#f4af9c"/>
        <path id="Trazado_120279" data-name="Trazado 120279" d="M184.621,43.408a6.835,6.835,0,0,1,6.466-4.513,12.868,12.868,0,0,1,.442-2.508,9.141,9.141,0,0,1-4.15-.6,10.108,10.108,0,0,1-2.43-1.531c-.358,2.668-1.362,7.592-4.083,10.165a24.022,24.022,0,0,0,3.335,1.021A8.45,8.45,0,0,1,184.621,43.408Z" transform="translate(-159.799 -9.467)" fill="#e6a18e"/>
        <path id="Trazado_120280" data-name="Trazado 120280" d="M185.258,30.347s6.655-2.092,8.759-.78,3.742,5.442,3.376,7.86,2.412,5.221,2.482,6.094c.058.7-2.1,1.2-2.174,1.472s-.2,4.673-3.114,5.415c-4.1,1.045-9.588-2.252-11.474-4.737S179,31.837,185.258,30.347Z" transform="translate(-159.289 -19.244)" fill="#f4af9c"/>
        <path id="Trazado_120281" data-name="Trazado 120281" d="M197.635,33.359c-.349-.352-1.251-.922-1.472-1.374a8.9,8.9,0,0,0-.5-1.152c-.739-1.083-.917-1.871-3.958-2.826a9.46,9.46,0,0,0-8.116,1.807,7.752,7.752,0,0,0-1.932,2.238c-.145.259-.6.972-.495,1.245.14.343,1.126.579,1.432.76a12.338,12.338,0,0,1,1.5,1.211c3.035,2.468,7.781,5.107,11.125,1.685a13.753,13.753,0,0,0,1.254-1.443,8.976,8.976,0,0,1,.92,4.423,3.971,3.971,0,0,0,1.359-2.139A4.56,4.56,0,0,0,197.635,33.359Z" transform="translate(-159.273 -21.974)" fill="#110239"/>
        <path id="Trazado_120282" data-name="Trazado 120282" d="M186.22,29.766a5.493,5.493,0,0,0-3.154-.113,3.822,3.822,0,0,0-3,3.355,16.092,16.092,0,0,0-.314,3.122,11.967,11.967,0,0,0,.78,4.729,11.29,11.29,0,0,0,2.779,4.414c1.179,1.068,3.489,2.3,4.644,1.833.448-.18,1.094-3.393.972-4.228-.113-.8-.509-.812-1.141-1.17-1.062-.6-2.247-1.787-1.472-3.073,1.109-1.833,3.163-.992,3.905,1.542,0,0,.8,1.423,1.26,1.2S193.984,33.954,186.22,29.766Z" transform="translate(-161.927 -18.587)" fill="#110239"/>
        <path id="Trazado_120283" data-name="Trazado 120283" d="M182.264,32.788a1.76,1.76,0,0,1,1.973.518c.794.928.419,2.421-.364,1.862s-.471-1.048-.608-1.507A1.456,1.456,0,0,0,182.264,32.788Z" transform="translate(-157.13 -12.481)" fill="#e45940"/>
        <path id="Trazado_120284" data-name="Trazado 120284" d="M173.627,76.389s9.4,7.292,28.893,4.045a42.359,42.359,0,0,1,1.583-11.07c1.638-5.474,4.089-16.139,4.158-21.77.081-6.361-3.408-9.225-3.408-9.225S201.2,41.8,195.74,37.331a23.935,23.935,0,0,0-15.176,14.2A128.259,128.259,0,0,0,173.627,76.389Z" transform="translate(-173.627 -3.588)" fill="#57dbd8"/>
        <path id="Trazado_120285" data-name="Trazado 120285" d="M183.061,40.7c-5.031,5.436-.163,18.813,6.2,26.277a33.525,33.525,0,0,1,.806-3.413c.864-2.884,1.944-7.205,2.791-11.474a10.114,10.114,0,0,1-4.071-4.848C186.83,42.506,185.561,39.3,183.061,40.7Z" transform="translate(-159.589 2.213)" fill="#00a7cc"/>
        <path id="Trazado_120286" data-name="Trazado 120286" d="M197.522,53.332a5.107,5.107,0,0,0,2.369,1.222,3.087,3.087,0,0,1,1.208.308,6.415,6.415,0,0,0,1.347.483,2.553,2.553,0,0,1,1.277.611c.387.451-.358.594-.867.614-.553.026-2.008-.922-2.441-.527s1.408,1.44,1.778,1.641c.87.48,1.513.1,2.412.111.527.009.765.172.4.661-.271.364-.8.375-1.216.4a5.359,5.359,0,0,1-2.59-.422,6.323,6.323,0,0,0,2.375.646c.466.035,2.488-.16,2.5.579.015,1.487-4.47.538-5.13.023a7.361,7.361,0,0,0,2.348.8c.48.111,1.621.32.992.94-.925.911-3.134-.6-4.24-1.094a8.531,8.531,0,0,0,2.025,1.211c.925.492.241,1-.792.661a11.429,11.429,0,0,1-1.429-.669,7.977,7.977,0,0,1-3.539-3.757c-.358-.637-1.682-1.435-1.548-2.054C195.019,54.528,196.655,53.905,197.522,53.332Z" transform="translate(-133.275 26.974)" fill="#f4af9c"/>
        <path id="Trazado_120287" data-name="Trazado 120287" d="M224.878,78.575l-3.771,5.116s-24.162-10.461-26.333-13.223-9.274-12.885-10.386-15.58c-2.575-6.254-5.771-13.709,0-15.018,3.149-.713,5.18.081,7.135,4.717,2.663,6.306,8.32,16.293,10.621,19.331C203.036,65.093,224.878,78.575,224.878,78.575Z" transform="translate(-159.255 0.823)" fill="#57dbd8"/>
        <path id="Trazado_120288" data-name="Trazado 120288" d="M205.638,43.241c.343.544-.6,2.875-1.5,3.853a1.675,1.675,0,0,1-2.238.16c-.754-.454-1.653-.617-1.766-1.059-.16-1.737,1.449-.431,2.162-.175,0,0-1.941-.966-1.915-1.8.076-1.566,2.465.242,3.137.544a3.99,3.99,0,0,1-1.848-1.231.605.605,0,0,1-.073-.917c.518-.483,2.555.981,2.555.981-.367-.265-1.854-.8-1.254-1.484.4-.457,1-.076,1.353.032A2.136,2.136,0,0,1,205.638,43.241Z" transform="translate(-123.012 5.125)" fill="#f4af9c"/>
        <path id="Trazado_120289" data-name="Trazado 120289" d="M201.727,44.172c.227-.09.442-.137.663-.2,0-.012-.02-.015-.017-.029.084-.6,2.345-.748,2.846-1.007,1.519-.794.908-1.749.218-1.531-.471.146-1.536.463-1.944.643a7.228,7.228,0,0,1-1.568.18,11.11,11.11,0,0,0-1.95,1.353C199.2,44.088,200.9,44.51,201.727,44.172Z" transform="translate(-123.681 4.127)" fill="#f88667"/>
      </g>
      <path id="Trazado_120290" data-name="Trazado 120290" d="M272.915,48.9c.5,1.362-4.007,4.269-10.069,6.5s-11.378,2.927-11.879,1.568,4.007-4.269,10.069-6.5S272.415,47.542,272.915,48.9Z" transform="translate(173.953 42.925)" fill="#d0d1de"/>
      <path id="Trazado_120291" data-name="Trazado 120291" d="M268.81,39.459c.576,1.33-3.757,4.49-9.682,7.057s-11.195,3.568-11.771,2.238,3.757-4.49,9.682-7.057S268.234,38.129,268.81,39.459Z" transform="translate(167.032 25.089)" fill="#d0d1de"/>
      <path id="Trazado_120292" data-name="Trazado 120292" d="M272.175,78.556c-.428,1.385-5.776.957-11.943-.954s-10.819-4.583-10.389-5.968,5.776-.957,11.943.954S272.606,77.17,272.175,78.556Z" transform="translate(171.827 86.111)" fill="#d0d1de"/>
      <path id="Trazado_120293" data-name="Trazado 120293" d="M267.915,89.769c-.541,1.344-5.837.48-11.826-1.929s-10.406-5.456-9.865-6.8,5.837-.483,11.826,1.929S268.456,88.422,267.915,89.769Z" transform="translate(164.878 104.416)" fill="#d0d1de"/>
      <path id="Trazado_120294" data-name="Trazado 120294" d="M274.964,63.246c-.076,1.449-5.363,2.351-11.812,2.017s-11.614-1.781-11.538-3.23,5.363-2.351,11.812-2.017S275.04,61.8,274.964,63.246Z" transform="translate(175.259 65.342)" fill="#d0d1de"/>
    </g>
  </g>
</svg>
