<svg xmlns="http://www.w3.org/2000/svg" width="396" height="276.961" viewBox="0 0 396 276.961">
  <g id="Grupo_56725" data-name="Grupo 56725" transform="translate(-284 -1701.863)">
    <g id="Grupo_55674" data-name="Grupo 55674" transform="translate(52 -7143.137)">
      <path id="Trazado_120247" data-name="Trazado 120247" d="M0,0H396V276.961H0Z" transform="translate(232 8845)" fill="none"/>
    </g>
    <g id="Grupo_56715" data-name="Grupo 56715" transform="translate(333.286 1372.957)">
      <g id="Grupo_56715-2" data-name="Grupo 56715" transform="translate(90.46 370.218)">
        <path id="Rectángulo_29868" data-name="Rectángulo 29868" d="M1.663,0h109.2a1.662,1.662,0,0,1,1.662,1.662v183.52a1.663,1.663,0,0,1-1.663,1.663H1.663A1.663,1.663,0,0,1,0,185.182V1.663A1.663,1.663,0,0,1,1.663,0Z" fill="#110239"/>
        <rect id="Rectángulo_29869" data-name="Rectángulo 29869" width="96.448" height="163.702" transform="translate(8.62 7.728)" fill="#d0d1de"/>
        <path id="Trazado_120175" data-name="Trazado 120175" d="M73.965,417.329A3.034,3.034,0,1,1,77,414.295,3.034,3.034,0,0,1,73.965,417.329Z" transform="translate(-17.703 -235.703)" fill="#fff"/>
      </g>
      <rect id="Rectángulo_29870" data-name="Rectángulo 29870" width="4.73" height="3.825" rx="0.397" transform="translate(102.798 383.023)" fill="#fff"/>
      <rect id="Rectángulo_29871" data-name="Rectángulo 29871" width="4.73" height="3.825" rx="0.397" transform="translate(115.701 383.023)" fill="#fff"/>
      <rect id="Rectángulo_29872" data-name="Rectángulo 29872" width="4.73" height="3.825" rx="0.397" transform="translate(178.022 383.023)" fill="#fff"/>
      <rect id="Rectángulo_29873" data-name="Rectángulo 29873" width="4.73" height="3.825" rx="0.397" transform="translate(163.563 383.023)" fill="#fff"/>
      <rect id="Rectángulo_29874" data-name="Rectángulo 29874" width="4.73" height="3.825" rx="0.397" transform="translate(187.082 383.023)" fill="#fff"/>
      <g id="Grupo_56718" data-name="Grupo 56718" transform="translate(122.06 429.544)">
        <path id="Trazado_120180" data-name="Trazado 120180" d="M112.928,380.9a23.116,23.116,0,1,1-23.116-23.117A23.115,23.115,0,0,1,112.928,380.9Z" transform="translate(-66.695 -357.781)" fill="#fff"/>
        <path id="Trazado_120181" data-name="Trazado 120181" d="M80.017,371.281c-.381-.008-3.633-9.363-4.734-8.995-1.549.515-5.772,2.557-5.876,4.32s8.526,16.926,9.97,16.926c3.034,0,15.779-16.826,14.745-18.73s-5.839-4.537-6.559-3.813C87.032,361.52,80.343,371.289,80.017,371.281Z" transform="translate(-58.06 -347.955)" fill="#57dbd8"/>
      </g>
      <g id="Grupo_56724" data-name="Grupo 56724" transform="translate(30.714 336.908)">
        <g id="Grupo_56721" data-name="Grupo 56721" transform="translate(0 53.083)">
          <path id="Trazado_120185" data-name="Trazado 120185" d="M44.157,375.692a.985.985,0,1,0-1.3,1.478q3.6,3.173,7.514,6.416a.986.986,0,1,0,1.256-1.52Q47.734,378.851,44.157,375.692Z" transform="translate(-9.355 -320.273)" fill="#57dbd8"/>
          <path id="Trazado_120186" data-name="Trazado 120186" d="M57.149,362.947a.986.986,0,0,0,.334-1.913c-3.239-1.168-6.391-2.236-9.371-3.171a.985.985,0,0,0-.59,1.879c2.955.927,6.082,1.983,9.29,3.146A1.013,1.013,0,0,0,57.149,362.947Z" transform="translate(-1.553 -352.166)" fill="#57dbd8"/>
          <path id="Trazado_120187" data-name="Trazado 120187" d="M39.152,370.9a.984.984,0,1,0-1.427,1.354c2.177,2.289,4.534,4.643,7.006,7a.985.985,0,0,0,1.357-1.427C43.638,375.5,41.306,373.165,39.152,370.9Z" transform="translate(-18.521 -329.045)" fill="#57dbd8"/>
          <path id="Trazado_120188" data-name="Trazado 120188" d="M55.105,384.275a.987.987,0,0,0-1.138,1.612q3.974,2.8,8.124,5.607a.975.975,0,0,0,.551.169.984.984,0,0,0,.551-1.8Q59.063,387.073,55.105,384.275Z" transform="translate(10.603 -304.614)" fill="#57dbd8"/>
          <path id="Trazado_120189" data-name="Trazado 120189" d="M49.511,380.126A.985.985,0,0,0,48.3,381.68q3.813,2.975,7.857,5.981a.986.986,0,0,0,1.379-.205.983.983,0,0,0-.205-1.376Q53.308,383.091,49.511,380.126Z" transform="translate(0.415 -312.179)" fill="#57dbd8"/>
          <path id="Trazado_120190" data-name="Trazado 120190" d="M40.857,358.094c2.969.483,6.183,1.157,9.554,2.006a.892.892,0,0,0,.242.031.984.984,0,0,0,.239-1.938c-3.424-.865-6.7-1.551-9.72-2.039a.983.983,0,1,0-.315,1.941Z" transform="translate(-13.864 -355.198)" fill="#57dbd8"/>
          <path id="Trazado_120191" data-name="Trazado 120191" d="M110.189,405.523a.989.989,0,0,0,.879.539,1.029,1.029,0,0,0,.444-.1.99.99,0,0,0,.435-1.326,63.376,63.376,0,0,0-5.284-8.481.984.984,0,1,0-1.593,1.155A61.376,61.376,0,0,1,110.189,405.523Z" transform="translate(103.467 -283.548)" fill="#57dbd8"/>
          <path id="Trazado_120192" data-name="Trazado 120192" d="M32.683,361.885a10.043,10.043,0,0,1,.194-1.992.984.984,0,1,0-1.927-.4,11.715,11.715,0,0,0-.236,2.391,20.865,20.865,0,0,0,1.767,7.759.979.979,0,0,0,.91.615.966.966,0,0,0,.374-.076A.986.986,0,0,0,34.3,368.9,18.921,18.921,0,0,1,32.683,361.885Z" transform="translate(-30.714 -350.548)" fill="#57dbd8"/>
          <path id="Trazado_120193" data-name="Trazado 120193" d="M43.785,355.81l-.593-.006a27.941,27.941,0,0,0-9.461,1.393.987.987,0,0,0,.34,1.913,1.03,1.03,0,0,0,.34-.059,25.841,25.841,0,0,1,8.781-1.275l.567,0h.011a.985.985,0,0,0,.014-1.969Z" transform="translate(-26.422 -355.804)" fill="#57dbd8"/>
          <path id="Trazado_120194" data-name="Trazado 120194" d="M34.809,365.623a.985.985,0,0,0-1.638,1.1,96.832,96.832,0,0,0,5.995,7.938A.984.984,0,1,0,40.68,373.4,94.442,94.442,0,0,1,34.809,365.623Z" transform="translate(-26.569 -338.835)" fill="#57dbd8"/>
          <path id="Trazado_120195" data-name="Trazado 120195" d="M101.33,406.53c-2.972-.806-6.127-1.759-9.38-2.829a.985.985,0,0,0-.615,1.871c3.284,1.082,6.475,2.042,9.481,2.857a.9.9,0,0,0,.258.037.985.985,0,0,0,.256-1.936Z" transform="translate(77.732 -269.24)" fill="#57dbd8"/>
          <path id="Trazado_120196" data-name="Trazado 120196" d="M69.2,393.428q-4.226-2.608-8.315-5.25a.984.984,0,0,0-1.067,1.655q4.1,2.65,8.349,5.273a.985.985,0,0,0,1.034-1.677Z" transform="translate(21.119 -297.516)" fill="#57dbd8"/>
          <path id="Trazado_120197" data-name="Trazado 120197" d="M108.234,406.8a80.563,80.563,0,0,1-9.635-1.315.984.984,0,0,0-.374,1.933,82.284,82.284,0,0,0,9.874,1.348h.067a.984.984,0,0,0,.067-1.966Z" transform="translate(89.981 -265.961)" fill="#57dbd8"/>
          <path id="Trazado_120198" data-name="Trazado 120198" d="M115.837,402.969a1.016,1.016,0,0,0-1.037-.93.984.984,0,0,0-.933,1.037c.014.228.02.452.02.671a8.363,8.363,0,0,1-1.132,4.41c-1.34,2.2-3.888,3.694-7.571,4.427a.986.986,0,0,0,.191,1.952,1.129,1.129,0,0,0,.194-.02c4.247-.848,7.231-2.643,8.868-5.335a10.329,10.329,0,0,0,1.419-5.436C115.857,403.494,115.851,403.23,115.837,402.969Z" transform="translate(102.581 -272.159)" fill="#57dbd8"/>
          <path id="Trazado_120199" data-name="Trazado 120199" d="M101.992,390.736a.984.984,0,1,0-1.4,1.379c2.4,2.438,4.638,4.851,6.663,7.174A.985.985,0,0,0,108.737,398C106.686,395.643,104.416,393.2,101.992,390.736Z" transform="translate(95.186 -293.144)" fill="#57dbd8"/>
          <path id="Trazado_120200" data-name="Trazado 120200" d="M103.5,394.2a.986.986,0,0,0,.669-1.708c-2.32-2.157-4.8-4.377-7.363-6.6a.985.985,0,0,0-1.287,1.492c2.548,2.205,5.006,4.408,7.309,6.551A.994.994,0,0,0,103.5,394.2Z" transform="translate(85.91 -301.798)" fill="#57dbd8"/>
          <path id="Trazado_120201" data-name="Trazado 120201" d="M75.33,396.756q-4.235-2.381-8.512-4.913a.985.985,0,0,0-1,1.7q4.294,2.537,8.548,4.936a.986.986,0,0,0,.966-1.719Z" transform="translate(31.914 -290.849)" fill="#57dbd8"/>
          <path id="Trazado_120202" data-name="Trazado 120202" d="M94.582,404.882c-2.975-1.115-6.045-2.329-9.132-3.607a.983.983,0,1,0-.75,1.817c3.1,1.287,6.2,2.509,9.189,3.632a1.006,1.006,0,0,0,.348.065.985.985,0,0,0,.346-1.908Z" transform="translate(65.85 -273.684)" fill="#57dbd8"/>
          <path id="Trazado_120203" data-name="Trazado 120203" d="M81.6,399.823q-4.315-2.2-8.711-4.556A.985.985,0,0,0,71.958,397q4.416,2.372,8.748,4.576a.986.986,0,0,0,.9-1.756Z" transform="translate(42.964 -284.618)" fill="#57dbd8"/>
          <path id="Trazado_120204" data-name="Trazado 120204" d="M88.011,402.564q-4.386-1.963-8.911-4.132a.984.984,0,1,0-.851,1.775q4.542,2.178,8.958,4.158a1.011,1.011,0,0,0,.4.084.985.985,0,0,0,.4-1.885Z" transform="translate(54.271 -278.866)" fill="#57dbd8"/>
        </g>
        <g id="Grupo_56722" data-name="Grupo 56722" transform="translate(94.725)">
          <path id="Trazado_120205" data-name="Trazado 120205" d="M81.678,357.177a1.068,1.068,0,0,1,.8-1.222.952.952,0,0,1,1.16.772q.872,4.854,1.635,10.04a1.074,1.074,0,0,1-.132.683,1.062,1.062,0,0,1-.708.514.954.954,0,0,1-1.135-.812Q82.548,362.008,81.678,357.177Z" transform="translate(-33.267 -302.493)" fill="#110239"/>
          <path id="Trazado_120206" data-name="Trazado 120206" d="M80.145,350.235a1.067,1.067,0,0,1,.7-1.287.953.953,0,0,1,1.225.663c.848,3.124,1.657,6.441,2.407,9.866a1.073,1.073,0,0,1-.758,1.25A.952.952,0,0,1,82.525,360C81.783,356.609,80.98,353.322,80.145,350.235Z" transform="translate(-36.08 -315.212)" fill="#110239"/>
          <path id="Trazado_120207" data-name="Trazado 120207" d="M83.4,371.425a1.076,1.076,0,0,1,.924-1.132.955.955,0,0,1,1.067.9q.354,5.014.612,10.191a1.036,1.036,0,0,1-.138.584,1.054,1.054,0,0,1-.806.528.957.957,0,0,1-1.045-.924Q83.753,376.423,83.4,371.425Z" transform="translate(-30.128 -276.521)" fill="#110239"/>
          <path id="Trazado_120208" data-name="Trazado 120208" d="M82.724,364.264a1.073,1.073,0,0,1,.871-1.174.959.959,0,0,1,1.112.846q.586,4.955,1.073,10.135a1.073,1.073,0,0,1-.138.629,1.052,1.052,0,0,1-.761.522.955.955,0,0,1-1.087-.874Q83.31,369.2,82.724,364.264Z" transform="translate(-31.358 -289.565)" fill="#110239"/>
          <path id="Trazado_120209" data-name="Trazado 120209" d="M70.262,345.4c-1.135,2.944-2.233,6.205-3.261,9.7a.974.974,0,0,1-.1.236,1.026,1.026,0,0,1-1.146.5.981.981,0,0,1-.663-1.247c1.042-3.548,2.16-6.866,3.318-9.866a1.026,1.026,0,0,1,1.3-.621A.991.991,0,0,1,70.262,345.4Z" transform="translate(-63.322 -324.015)" fill="#110239"/>
          <path id="Trazado_120210" data-name="Trazado 120210" d="M73.005,432.156a1.045,1.045,0,0,1,.008,1.07,1.1,1.1,0,0,1-.326.351.964.964,0,0,1-1.374-.267,62.666,62.666,0,0,1-4.593-9.037,1.063,1.063,0,0,1,.528-1.36.953.953,0,0,1,1.306.486A61.377,61.377,0,0,0,73.005,432.156Z" transform="translate(-60.444 -181.491)" fill="#110239"/>
          <path id="Trazado_120211" data-name="Trazado 120211" d="M75.78,339.726a9.333,9.333,0,0,0-1.829-.818.988.988,0,0,1-.612-1.275,1.029,1.029,0,0,1,1.275-.68,11.267,11.267,0,0,1,2.2.978,20.079,20.079,0,0,1,5.806,5.478,1.036,1.036,0,0,1,.056,1.135,1.072,1.072,0,0,1-.261.3.966.966,0,0,1-1.393-.152A18.216,18.216,0,0,0,75.78,339.726Z" transform="translate(-48.426 -336.908)" fill="#110239"/>
          <path id="Trazado_120212" data-name="Trazado 120212" d="M67.893,346.494l.306-.542a30.528,30.528,0,0,1,6.16-7.913.971.971,0,0,1,1.4.1,1.036,1.036,0,0,1,.079,1.163,1.089,1.089,0,0,1-.23.278,28.432,28.432,0,0,0-5.7,7.357l-.295.52-.006.011a.987.987,0,1,1-1.716-.972Z" transform="translate(-58.424 -335.318)" fill="#110239"/>
          <path id="Trazado_120213" data-name="Trazado 120213" d="M77.835,343.645a1.062,1.062,0,0,1,.48-1.376.956.956,0,0,1,1.326.435,96.373,96.373,0,0,1,3.75,9.416,1.046,1.046,0,0,1-.087.865,1.064,1.064,0,0,1-.528.461.958.958,0,0,1-1.27-.576A95.467,95.467,0,0,0,77.835,343.645Z" transform="translate(-40.36 -327.418)" fill="#110239"/>
          <path id="Trazado_120214" data-name="Trazado 120214" d="M80.1,424.6c.857-3.107,1.683-6.453,2.455-9.947a1.05,1.05,0,0,1,1.2-.82.978.978,0,0,1,.75,1.191c-.781,3.531-1.618,6.913-2.483,10.054a1.063,1.063,0,0,1-.1.253,1.029,1.029,0,0,1-1.129.5A.982.982,0,0,1,80.1,424.6Z" transform="translate(-36.156 -197.779)" fill="#110239"/>
          <path id="Trazado_120215" data-name="Trazado 120215" d="M83.962,388.813q-.051-5.145-.2-10.183a1.07,1.07,0,0,1,.966-1.093.957.957,0,0,1,1.025.947q.156,5.052.208,10.225a1.077,1.077,0,0,1-.143.542,1.038,1.038,0,0,1-.846.531A.959.959,0,0,1,83.962,388.813Z" transform="translate(-29.472 -263.409)" fill="#110239"/>
          <path id="Trazado_120216" data-name="Trazado 120216" d="M77.676,431.01a88.1,88.1,0,0,0,3.9-9.422,1.034,1.034,0,0,1,1.278-.663.989.989,0,0,1,.593,1.286,90.585,90.585,0,0,1-4,9.658l-.034.062a1.015,1.015,0,0,1-1.312.435A1,1,0,0,1,77.676,431.01Z" transform="translate(-40.676 -184.997)" fill="#110239"/>
          <path id="Trazado_120217" data-name="Trazado 120217" d="M71.019,432.642a1.042,1.042,0,0,1-.264-1.407,1,1,0,0,1,1.385-.332q.287.19.573.354a8.052,8.052,0,0,0,4.419,1.166c2.612-.121,5.236-1.694,7.8-4.683a.989.989,0,0,1,1.41-.124,1.022,1.022,0,0,1,.183,1.273,1.119,1.119,0,0,1-.118.166c-2.958,3.444-6.076,5.264-9.267,5.413a9.957,9.957,0,0,1-5.458-1.419C71.46,432.923,71.239,432.785,71.019,432.642Z" transform="translate(-53.284 -173.238)" fill="#110239"/>
          <path id="Trazado_120218" data-name="Trazado 120218" d="M64.467,417.32a1.068,1.068,0,0,1,.716-1.272.952.952,0,0,1,1.214.683c.862,3.4,1.784,6.641,2.739,9.641a1.044,1.044,0,0,1-.1.846,1.073,1.073,0,0,1-.548.469.956.956,0,0,1-1.256-.607C66.268,424.039,65.335,420.755,64.467,417.32Z" transform="translate(-64.434 -193.813)" fill="#110239"/>
          <path id="Trazado_120219" data-name="Trazado 120219" d="M83.766,396.057q.148-5.044.191-10.2a1.067,1.067,0,0,1,1.008-1.054.959.959,0,0,1,.989.989q-.046,5.17-.194,10.239a1.024,1.024,0,0,1-.14.5,1.036,1.036,0,0,1-.885.531A.96.96,0,0,1,83.766,396.057Z" transform="translate(-29.461 -250.259)" fill="#110239"/>
          <path id="Trazado_120220" data-name="Trazado 120220" d="M81.679,417.63c.587-3.264,1.143-6.666,1.649-10.11a1.046,1.046,0,0,1,1.135-.9.968.968,0,0,1,.837,1.126c-.508,3.466-1.067,6.891-1.66,10.175a1.056,1.056,0,0,1-1.163.868A.97.97,0,0,1,81.679,417.63Z" transform="translate(-33.268 -210.809)" fill="#110239"/>
          <path id="Trazado_120221" data-name="Trazado 120221" d="M83.413,403.294q.35-5.023.6-10.2a1.066,1.066,0,0,1,1.048-1.014.963.963,0,0,1,.947,1.031q-.253,5.2-.61,10.242a1.075,1.075,0,0,1-.138.461,1.045,1.045,0,0,1-.927.531A.963.963,0,0,1,83.413,403.294Z" transform="translate(-30.105 -237.094)" fill="#110239"/>
          <path id="Trazado_120222" data-name="Trazado 120222" d="M82.738,410.494q.59-4.972,1.079-10.172a1.049,1.049,0,0,1,1.087-.966.965.965,0,0,1,.9,1.076q-.489,5.225-1.081,10.225a1.071,1.071,0,0,1-.135.41,1.036,1.036,0,0,1-.975.528A.967.967,0,0,1,82.738,410.494Z" transform="translate(-31.335 -223.933)" fill="#110239"/>
        </g>
        <g id="Grupo_56723" data-name="Grupo 56723" transform="translate(9.374 58.169)">
          <path id="Trazado_120223" data-name="Trazado 120223" d="M59.581,404.71c-3.334,1.045-6.587,1.98-9.675,2.781a.991.991,0,0,0-.716,1.214,1.016,1.016,0,0,0,.935.739.966.966,0,0,0,.306-.034c3.118-.812,6.4-1.756,9.77-2.809a.987.987,0,0,0,.655-1.244A1.024,1.024,0,0,0,59.581,404.71Z" transform="translate(-6.724 -272.495)" fill="#fe7062"/>
          <path id="Trazado_120224" data-name="Trazado 120224" d="M52.917,406.477a97.351,97.351,0,0,1-9.919,1.4,1,1,0,0,0-.921,1.073,1.007,1.007,0,0,0,.964.907c.045,0,.09,0,.135-.006a98.289,98.289,0,0,0,10.133-1.43.992.992,0,0,0,.8-1.163A1.014,1.014,0,0,0,52.917,406.477Z" transform="translate(-19.538 -269.253)" fill="#fe7062"/>
          <path id="Trazado_120225" data-name="Trazado 120225" d="M72.548,399.543q-4.673,2.124-9.214,4.059a.982.982,0,0,0-.522,1.306,1.025,1.025,0,0,0,1.334.514q4.559-1.943,9.259-4.082a.975.975,0,0,0,.489-1.315A1.019,1.019,0,0,0,72.548,399.543Z" transform="translate(17.825 -281.93)" fill="#fe7062"/>
          <path id="Trazado_120226" data-name="Trazado 120226" d="M66.125,402.33q-4.82,1.892-9.43,3.534a.984.984,0,0,0-.6,1.27,1.017,1.017,0,0,0,.907.655,1.055,1.055,0,0,0,.393-.059q4.635-1.647,9.492-3.556a.987.987,0,0,0,.562-1.292A1.025,1.025,0,0,0,66.125,402.33Z" transform="translate(5.711 -276.846)" fill="#fe7062"/>
          <path id="Trazado_120227" data-name="Trazado 120227" d="M98.647,362.818a.968.968,0,0,0,.32-.037c3.4-.944,6.689-1.756,9.767-2.41a.993.993,0,0,0,.772-1.18,1.019,1.019,0,0,0-1.208-.758c-3.118.663-6.444,1.486-9.885,2.438a.99.99,0,0,0-.7,1.225A1.018,1.018,0,0,0,98.647,362.818Z" transform="translate(81.056 -356.173)" fill="#fe7062"/>
          <path id="Trazado_120228" data-name="Trazado 120228" d="M93.563,363.567c2.037-.52,4.014-.983,5.916-1.388a.989.989,0,0,0,.77-1.18,1.015,1.015,0,0,0-1.205-.759c-1.818.388-3.705.826-5.646,1.315C92.007,361.907,92.3,363.888,93.563,363.567Z" transform="translate(71.65 -352.9)" fill="#fe7062"/>
          <path id="Trazado_120229" data-name="Trazado 120229" d="M78.838,396.436q-4.542,2.322-9.009,4.481a.979.979,0,0,0-.458,1.329,1.012,1.012,0,0,0,.862.553,1.023,1.023,0,0,0,.494-.1q4.483-2.17,9.051-4.5a.977.977,0,0,0,.427-1.337A1.02,1.02,0,0,0,78.838,396.436Z" transform="translate(29.656 -287.587)" fill="#fe7062"/>
          <path id="Trazado_120230" data-name="Trazado 120230" d="M51.2,388.931a1.034,1.034,0,0,0-1.43-.076c-2.6,2.3-5.1,4.587-7.416,6.818a.975.975,0,0,0-.011,1.4,1.025,1.025,0,0,0,1.433.014c2.3-2.211,4.77-4.483,7.351-6.756A.977.977,0,0,0,51.2,388.931Z" transform="translate(-19.584 -301.55)" fill="#fe7062"/>
          <path id="Trazado_120231" data-name="Trazado 120231" d="M56.618,384.116a1.032,1.032,0,0,0-1.433-.076c-2.6,2.292-5.1,4.587-7.416,6.818a.975.975,0,0,0-.011,1.4,1.03,1.03,0,0,0,.677.3,1.018,1.018,0,0,0,.756-.284c2.3-2.211,4.77-4.483,7.351-6.756A.979.979,0,0,0,56.618,384.116Z" transform="translate(-9.781 -310.266)" fill="#fe7062"/>
          <path id="Trazado_120232" data-name="Trazado 120232" d="M38.962,399.343a1.03,1.03,0,0,0-1.374.4,28.194,28.194,0,0,0-3.528,9.61,1,1,0,0,0,.874,1.115l.087.008a1.011,1.011,0,0,0,1.051-.862,26.316,26.316,0,0,1,3.3-8.922A.981.981,0,0,0,38.962,399.343Z" transform="translate(-34.051 -282.337)" fill="#fe7062"/>
          <path id="Trazado_120233" data-name="Trazado 120233" d="M45.634,409.166c-3.9-.463-6.866-1.536-8.821-3.194a1.027,1.027,0,0,0-1.43.1.978.978,0,0,0,.107,1.4c2.261,1.922,5.6,3.155,9.9,3.663l.076.008a.991.991,0,0,0,.163-1.975Z" transform="translate(-32.085 -270.571)" fill="#fe7062"/>
          <path id="Trazado_120234" data-name="Trazado 120234" d="M43.981,393.89c-2.436,2.643-4.635,5.228-6.534,7.686a.979.979,0,0,0,.2,1.388,1.025,1.025,0,0,0,.567.2,1.013,1.013,0,0,0,.854-.393c1.865-2.41,4.025-4.953,6.422-7.548a.98.98,0,0,0-.073-1.4A1.032,1.032,0,0,0,43.981,393.89Z" transform="translate(-28.277 -292.578)" fill="#fe7062"/>
          <path id="Trazado_120235" data-name="Trazado 120235" d="M96.829,385.561q-4.087,2.781-8.368,5.548a.979.979,0,0,0-.284,1.376,1.018,1.018,0,0,0,.8.444,1,1,0,0,0,.6-.163q4.3-2.785,8.408-5.573a.979.979,0,0,0,.253-1.382A1.033,1.033,0,0,0,96.829,385.561Z" transform="translate(63.561 -307.371)" fill="#fe7062"/>
          <path id="Trazado_120236" data-name="Trazado 120236" d="M115.894,357.652a65.184,65.184,0,0,0-10.279.508,1,1,0,0,0-.879,1.107,1.007,1.007,0,0,0,.961.871.883.883,0,0,0,.171-.008,62.627,62.627,0,0,1,9.947-.492,1,1,0,0,0,1.051-.952A1.027,1.027,0,0,0,115.894,357.652Z" transform="translate(93.813 -357.615)" fill="#fe7062"/>
          <path id="Trazado_120237" data-name="Trazado 120237" d="M112.459,372.167c-2.191,2.284-4.582,4.638-7.1,6.992a.981.981,0,0,0-.031,1.4,1.03,1.03,0,0,0,1.435.031c2.545-2.377,4.961-4.756,7.174-7.068a.978.978,0,0,0-.045-1.4A1.034,1.034,0,0,0,112.459,372.167Z" transform="translate(94.388 -331.849)" fill="#fe7062"/>
          <path id="Trazado_120238" data-name="Trazado 120238" d="M117.394,366.478a1.032,1.032,0,0,0-1.4.323,79.2,79.2,0,0,1-5.815,7.958.975.975,0,0,0,.157,1.393,1.009,1.009,0,0,0,.587.219,1.023,1.023,0,0,0,.837-.368,81.361,81.361,0,0,0,5.961-8.161A.978.978,0,0,0,117.394,366.478Z" transform="translate(103.277 -341.844)" fill="#fe7062"/>
          <path id="Trazado_120239" data-name="Trazado 120239" d="M118.1,362.672a11.047,11.047,0,0,0-4.809-4.205,1.024,1.024,0,0,0-1.36.45.984.984,0,0,0,.461,1.329,9.089,9.089,0,0,1,3.961,3.43,8.757,8.757,0,0,1,1.129,4.972,16.4,16.4,0,0,1-.7,3.868.99.99,0,0,0,.691,1.23,1.018,1.018,0,0,0,1.256-.674,18.242,18.242,0,0,0,.775-4.335A10.674,10.674,0,0,0,118.1,362.672Z" transform="translate(106.663 -356.261)" fill="#fe7062"/>
          <path id="Trazado_120240" data-name="Trazado 120240" d="M91,389.437q-4.231,2.608-8.6,5.194a.979.979,0,0,0-.343,1.362,1.02,1.02,0,0,0,.823.48,1.046,1.046,0,0,0,.57-.143q4.391-2.6,8.638-5.217a.978.978,0,0,0,.315-1.368A1.025,1.025,0,0,0,91,389.437Z" transform="translate(52.528 -300.325)" fill="#fe7062"/>
          <path id="Trazado_120241" data-name="Trazado 120241" d="M107.706,376.993c-2.436,2.093-5.026,4.245-7.7,6.388a.98.98,0,0,0-.143,1.4,1.041,1.041,0,0,0,.742.362,1.009,1.009,0,0,0,.685-.225c2.694-2.16,5.3-4.323,7.753-6.436a.976.976,0,0,0,.09-1.4A1.019,1.019,0,0,0,107.706,376.993Z" transform="translate(84.602 -323.012)" fill="#fe7062"/>
          <path id="Trazado_120242" data-name="Trazado 120242" d="M84.992,393.06q-4.424,2.49-8.809,4.849a.978.978,0,0,0-.4,1.345,1.019,1.019,0,0,0,.846.517,1.05,1.05,0,0,0,.531-.121q4.4-2.368,8.849-4.871a.982.982,0,0,0,.371-1.354A1.028,1.028,0,0,0,84.992,393.06Z" transform="translate(41.222 -293.731)" fill="#fe7062"/>
          <path id="Trazado_120243" data-name="Trazado 120243" d="M102.426,381.428q-3.915,2.958-8.082,5.938a.978.978,0,0,0-.219,1.385,1.024,1.024,0,0,0,.775.407,1.007,1.007,0,0,0,.643-.191q4.184-3,8.121-5.967a.979.979,0,0,0,.185-1.391A1.029,1.029,0,0,0,102.426,381.428Z" transform="translate(74.277 -314.907)" fill="#fe7062"/>
        </g>
        <path id="Trazado_120244" data-name="Trazado 120244" d="M51.545,412.8a8.915,8.915,0,1,1-8.916-8.913A8.916,8.916,0,0,1,51.545,412.8Z" transform="translate(-25.285 -215.73)" fill="#110239"/>
        <path id="Trazado_120245" data-name="Trazado 120245" d="M116.506,398.009a8.915,8.915,0,1,1-8.916-8.913A8.916,8.916,0,0,1,116.506,398.009Z" transform="translate(92.238 -242.492)" fill="#110239"/>
        <path id="Trazado_120246" data-name="Trazado 120246" d="M97.811,370.816A8.916,8.916,0,1,1,88.9,361.9,8.915,8.915,0,0,1,97.811,370.816Z" transform="translate(58.413 -291.693)" fill="#110239"/>
      </g>
    </g>
  </g>
</svg>
