<svg xmlns="http://www.w3.org/2000/svg" width="68" height="68" viewBox="0 0 68 68">
  <g id="Grupo_55828" data-name="Grupo 55828" transform="translate(-0.094 -0.094)">
    <rect id="Rectángulo_29642" data-name="Rectángulo 29642" width="68" height="68" transform="translate(0.094 0.094)" fill="none"/>
    <g id="Grupo_55832" data-name="Grupo 55832">
      <path id="Trazado_118227" data-name="Trazado 118227" d="M58.741,28.447a10.446,10.446,0,0,1-.208,2.076,1.153,1.153,0,0,0,2.259.459,12.767,12.767,0,0,0,.254-2.535A12.583,12.583,0,0,0,55.969,18.3a1.153,1.153,0,1,0-1.384,1.845A10.3,10.3,0,0,1,58.741,28.447Z" transform="translate(-6.874 -2.295)" fill="#fe7062"/>
      <path id="Trazado_118228" data-name="Trazado 118228" d="M44.357,54.435a1.155,1.155,0,0,0-1.518-.6,10.18,10.18,0,0,1-1.038.388,10.461,10.461,0,0,1-7.262-.388,1.153,1.153,0,0,0-.924,2.113,12.735,12.735,0,0,0,8.878.475,12.9,12.9,0,0,0,1.268-.474A1.154,1.154,0,0,0,44.357,54.435Z" transform="translate(-4.182 -6.825)" fill="#fe7062"/>
      <path id="Trazado_118229" data-name="Trazado 118229" d="M16.383,31.905a1.155,1.155,0,0,0,1.131-1.382,10.446,10.446,0,0,1-.208-2.076,10.3,10.3,0,0,1,4.152-8.3A1.153,1.153,0,1,0,20.073,18.3,12.584,12.584,0,0,0,15,28.447a12.767,12.767,0,0,0,.254,2.535A1.154,1.154,0,0,0,16.383,31.905Z" transform="translate(-1.905 -2.295)" fill="#fe7062"/>
      <path id="Trazado_118230" data-name="Trazado 118230" d="M25.472,52.494l-.092-.078a8.869,8.869,0,1,0-12.15.024l-.065.056c-3.046,2.58-4.661,4.257-5.223,11.47a3.522,3.522,0,0,0,2.092,3.063c2.04,1.178,5.662,1.767,9.284,1.767s7.248-.59,9.287-1.767a3.53,3.53,0,0,0,2.086-3.162C30.133,56.752,28.517,55.074,25.472,52.494ZM12.245,45.979a7.046,7.046,0,1,1,7.047,7.047A7.055,7.055,0,0,1,12.245,45.979ZM9.217,64.63c.617-7.305,2.194-8.543,5.334-11.01l.721-.567c.22.1.44.2.669.286l2.581,3.293L15.4,63.267l3.431,3.888c-3.452-.109-6.745-.656-8.594-1.644C9.931,65.347,9.222,64.923,9.217,64.63Zm19.09.916c-1.795.973-5,1.508-8.355,1.609l3.31-3.8-3.012-6.482,2.491-3.217c.234-.09.46-.193.685-.3l.718.572c3.029,2.41,4.55,3.619,5.141,10.647C29.286,64.973,28.6,65.386,28.307,65.546Z" transform="translate(-1.009 -4.713)" fill="#fe7062"/>
      <path id="Trazado_118231" data-name="Trazado 118231" d="M63.472,52.494l-.092-.078a8.869,8.869,0,1,0-12.15.024l-.065.056c-3.046,2.58-4.661,4.257-5.223,11.47a3.522,3.522,0,0,0,2.092,3.063c2.04,1.178,5.662,1.767,9.284,1.767s7.248-.59,9.287-1.767a3.53,3.53,0,0,0,2.086-3.162C68.133,56.752,66.517,55.074,63.472,52.494ZM50.245,45.979a7.046,7.046,0,1,1,7.047,7.047A7.055,7.055,0,0,1,50.245,45.979ZM47.217,64.63c.617-7.305,2.194-8.543,5.334-11.01l.721-.567c.22.1.44.2.669.286l2.581,3.293L53.4,63.267l3.431,3.888c-3.452-.109-6.745-.656-8.594-1.644C47.931,65.347,47.222,64.923,47.217,64.63Zm19.09.916c-1.795.973-5,1.508-8.355,1.609l3.31-3.8-3.012-6.482,2.491-3.217c.234-.09.46-.193.685-.3l.718.572c3.029,2.41,4.55,3.619,5.141,10.647C67.286,64.973,66.6,65.386,66.307,65.546Z" transform="translate(-5.835 -4.713)" fill="#fe7062"/>
      <path id="Trazado_118232" data-name="Trazado 118232" d="M43.5,17.494l-.092-.078a8.869,8.869,0,1,0-12.15.024l-.065.056c-3.046,2.58-4.661,4.257-5.222,11.47a3.522,3.522,0,0,0,2.092,3.063C30.1,33.207,33.724,33.8,37.347,33.8s7.247-.59,9.287-1.767a3.531,3.531,0,0,0,2.086-3.162C48.162,21.752,46.547,20.074,43.5,17.494ZM30.275,10.979a7.046,7.046,0,1,1,7.046,7.047A7.054,7.054,0,0,1,30.275,10.979ZM27.246,29.63c.617-7.305,2.194-8.543,5.335-11.01l.72-.567c.22.1.441.2.669.286l2.582,3.293L33.43,28.267l3.431,3.888c-3.451-.109-6.745-.656-8.594-1.644C27.961,30.347,27.251,29.923,27.246,29.63Zm19.091.916c-1.8.973-5,1.508-8.355,1.609l3.31-3.8L38.28,21.873l2.491-3.217c.234-.09.461-.193.686-.3l.717.572c3.029,2.41,4.55,3.619,5.142,10.647C47.316,29.973,46.63,30.386,46.337,30.546Z" transform="translate(-3.298 -0.268)" fill="#fe7062"/>
    </g>
  </g>
</svg>
