<svg xmlns="http://www.w3.org/2000/svg" width="396" height="276.961" viewBox="0 0 396 276.961">
  <g id="Grupo_56714" data-name="Grupo 56714" transform="translate(-284 -1172.035)">
    <g id="Grupo_55674" data-name="Grupo 55674" transform="translate(52 -7672.965)">
      <rect id="Rectángulo_5163" data-name="Rectángulo 5163" width="396" height="276.961" transform="translate(232 8845)" fill="none"/>
    </g>
    <g id="Grupo_56709" data-name="Grupo 56709" transform="translate(58.84 1043.207)">
      <g id="Grupo_56709-2" data-name="Grupo 56709" transform="translate(294.16 207.244)">
        <path id="Trazado_120148" data-name="Trazado 120148" d="M326.343,162.863v31.508h7.87V172.163a4.063,4.063,0,0,1,4.064-4.064h33.784a4.066,4.066,0,0,1,4.067,4.064v22.207h7.867V162.863a4.066,4.066,0,0,0-4.064-4.067H330.407A4.068,4.068,0,0,0,326.343,162.863Z" transform="translate(-226.273 -158.796)" fill="#d0d1de"/>
        <path id="Rectángulo_29864" data-name="Rectángulo 29864" d="M4.442,0H253.353a4.441,4.441,0,0,1,4.441,4.441V161.284a4.441,4.441,0,0,1-4.441,4.441H4.441A4.441,4.441,0,0,1,0,161.284V4.442A4.442,4.442,0,0,1,4.442,0Z" transform="translate(0 24.902)" fill="#110239"/>
        <path id="Trazado_120149" data-name="Trazado 120149" d="M551.956,212.977V180.614a13.81,13.81,0,0,0-13.812-13.809H307.972a13.81,13.81,0,0,0-13.812,13.809v32.363a35.575,35.575,0,0,0,35.572,35.575H516.381A35.576,35.576,0,0,0,551.956,212.977Z" transform="translate(-294.16 -141.902)" fill="#453964"/>
        <rect id="Rectángulo_29865" data-name="Rectángulo 29865" width="16.402" height="18.623" transform="translate(120.697 99.185)" fill="#d0d1de"/>
        <rect id="Rectángulo_29866" data-name="Rectángulo 29866" width="5.301" height="4.603" transform="translate(126.247 108.113)" fill="#110239"/>
      </g>
      <g id="Grupo_56712" data-name="Grupo 56712" transform="translate(312.696 135.828)">
        <path id="Trazado_120150" data-name="Trazado 120150" d="M322.433,140.412H313.8s-1.241,11.754-3.492,13.153c0,0-2.777,13.884,7.808,13.884,12.8,0,7.8-13.884,7.8-13.884C323.676,152.166,322.433,140.412,322.433,140.412Z" transform="translate(-279.318 -126.16)" fill="#f88667"/>
        <path id="Trazado_120151" data-name="Trazado 120151" d="M322.433,140.412H313.8s-1.241,11.754-3.492,13.153c0,0-2.777,13.884,7.808,13.884,12.8,0,7.8-13.884,7.8-13.884C323.676,152.166,322.433,140.412,322.433,140.412Z" transform="translate(-279.318 -126.16)" fill="#de947f"/>
        <g id="Grupo_56710" data-name="Grupo 56710" transform="translate(27.724)">
          <path id="Trazado_120152" data-name="Trazado 120152" d="M331.312,149.663c-1.194-1.374-2.631.718-2.631.718s1.975-7.774,0-11.178-8.367-1.614-8.367-1.614-6.4-1.794-8.371,1.614,0,11.178,0,11.178-1.433-2.093-2.631-.718,1.971,4.841,2.69,5.261c0,0,4.605,8.61,8.311,8.61s8.308-8.61,8.308-8.61C329.341,154.5,332.509,151.037,331.312,149.663Z" transform="translate(-309.019 -133.11)" fill="#f59f87"/>
          <path id="Trazado_120153" data-name="Trazado 120153" d="M318.722,140.958s-4.841.852-5.379,3.451a10.27,10.27,0,0,0,.258,3.877,25.272,25.272,0,0,1,.414,4.285.746.746,0,0,1-.628-.109,8.855,8.855,0,0,1-1.636-1.978c-.92-1.346-2.242-1.122-2.624-.271,0,0-1.076-12.755,4.26-13.2S318.722,140.958,318.722,140.958Z" transform="translate(-309.037 -133.4)" fill="#110239"/>
          <path id="Trazado_120154" data-name="Trazado 120154" d="M313.166,140.958s4.841.852,5.379,3.451a10.269,10.269,0,0,1-.258,3.877,25.278,25.278,0,0,0-.414,4.285.746.746,0,0,0,.628-.109,8.856,8.856,0,0,0,1.636-1.978c.92-1.346,2.242-1.122,2.624-.271,0,0,1.076-12.755-4.26-13.2S313.166,140.958,313.166,140.958Z" transform="translate(-300.329 -133.4)" fill="#110239"/>
          <path id="Trazado_120155" data-name="Trazado 120155" d="M329.051,141.237A5.948,5.948,0,0,0,325.559,137a16.071,16.071,0,0,0-10.28-.616c-6.769,1.716-6.872,8.728-4.31,10.839a8.308,8.308,0,0,0,6.237,2.382C326.594,149.6,330.5,144.086,329.051,141.237Z" transform="translate(-308.225 -135.828)" fill="#110239"/>
        </g>
        <path id="Trazado_120156" data-name="Trazado 120156" d="M337.554,144.642c-.451,11.8-7.808,10.585-7.808,10.585s-7.351,1.219-7.8-10.585c0,0-11.744,3.246-17.472,7.083a113.373,113.373,0,0,1,2.593,21.754l6.713,26,15.97.79,15.97-.79,6.713-26a113.373,113.373,0,0,1,2.593-21.754C349.3,147.888,337.554,144.642,337.554,144.642Z" transform="translate(-290.948 -117.237)" fill="#57dbd8"/>
        <path id="Trazado_120157" data-name="Trazado 120157" d="M350.575,150.143c-7.3,3.89-10.849,12.839-17.938,17.226-7.335,4.537-12.525-4.63-16.094-9.4a27.714,27.714,0,0,0-11.741-9.347,111.017,111.017,0,0,1,1.564,16.449l6.713,26,15.97.79,15.97-.79,6.713-26a110.3,110.3,0,0,1,1.524-16.2C352.328,149.279,351.421,149.689,350.575,150.143Z" transform="translate(-290.25 -108.833)" fill="#00547a" opacity="0.32" style="mix-blend-mode: multiply;isolation: isolate"/>
        <path id="Trazado_120158" data-name="Trazado 120158" d="M363.279,175.928c0-9.126-11.318-15.127-11.318-15.127H313.929s-11.318,6-11.318,15.127a45.636,45.636,0,0,0,.914,7.046h12.634c-.513.927-.979,1.791-1.35,2.522-.112.221-.236.417-.354.628h9.188c.693,0,.469.289.277-.731-.28-1.452-1.178-2.276-.3-3.8.694-1.194,4.086-2.173,5.454-2.2.3-.006.6-.006.886,0q2.98.07,5.961,0a10.62,10.62,0,0,1,2.217.367c.644.106,2.553-.059,3.377,1.023a4.39,4.39,0,0,1,.647,2.2,20.9,20.9,0,0,1-.348,3.137h11.514a33.836,33.836,0,0,1-2.208-3.15h11.241A45.642,45.642,0,0,0,363.279,175.928Z" transform="translate(-294.87 -83.151)" fill="#fd425f"/>
        <path id="Trazado_120159" data-name="Trazado 120159" d="M363.279,175.928c0-9.126-11.318-15.127-11.318-15.127H313.929s-11.318,6-11.318,15.127a45.636,45.636,0,0,0,.914,7.046h12.634c-.513.927-.979,1.791-1.35,2.522-.112.221-.236.417-.354.628h9.188c.693,0,.469.289.277-.731-.28-1.452-1.178-2.276-.3-3.8.694-1.194,4.086-2.173,5.454-2.2.3-.006.6-.006.886,0q2.98.07,5.961,0a10.62,10.62,0,0,1,2.217.367c.644.106,2.553-.059,3.377,1.023a4.39,4.39,0,0,1,.647,2.2,20.9,20.9,0,0,1-.348,3.137h11.514a33.836,33.836,0,0,1-2.208-3.15h11.241A45.642,45.642,0,0,0,363.279,175.928Z" transform="translate(-294.87 -83.151)" fill="#e86e62"/>
        <path id="Trazado_120160" data-name="Trazado 120160" d="M313.643,146.921s-14.524,31.387-13.467,35.562c.264,1.045,17.929,11.713,26.247,10.183l3.383-.625S317.462,146.7,313.643,146.921Z" transform="translate(-300.121 -112.432)" fill="#57dbd8"/>
        <path id="Trazado_120161" data-name="Trazado 120161" d="M331.684,146.921s14.524,31.387,13.467,35.562c-.264,1.045-17.929,11.713-26.247,10.183l-3.383-.625S327.865,146.7,331.684,146.921Z" transform="translate(-267.637 -112.432)" fill="#57dbd8"/>
        <path id="Trazado_120162" data-name="Trazado 120162" d="M308.1,150.451a21.921,21.921,0,0,1-.557,4.583c-1.284,5.672-3.309,11.592-1.185,17.351a92.745,92.745,0,0,0,6.555,12.966,10.571,10.571,0,0,0,2.3-.134l3.383-.625S312.941,163.806,308.1,150.451Z" transform="translate(-288.916 -104.983)" fill="#00547a" opacity="0.32" style="mix-blend-mode: multiply;isolation: isolate"/>
        <path id="Trazado_120163" data-name="Trazado 120163" d="M323.742,184.01a20.386,20.386,0,0,0,1.608-8.364c-.193-5.8-.227-11.592-.134-17.391.04-2.5.106-4.932.252-7.307-4.708,13.352-9.947,32.6-9.947,32.6l3.383.625A13.873,13.873,0,0,0,323.742,184.01Z" transform="translate(-267.637 -103.935)" fill="#00547a" opacity="0.32" style="mix-blend-mode: multiply;isolation: isolate"/>
        <path id="Trazado_120164" data-name="Trazado 120164" d="M315.085,183.506s-9.213,10.964-10.292,13.3,1.558,5.264,5.146,4.067,5.684-3.647,5.743-5.205,1.974-2.385,2.811-2.509,5.625-5.566,5.146-7.062-2.882-3.134-2.882-3.134Z" transform="translate(-290.78 -36.41)"/>
        <path id="Trazado_120165" data-name="Trazado 120165" d="M322.624,183.506s9.21,10.964,10.289,13.3-1.555,5.264-5.146,4.067-5.684-3.647-5.743-5.205-1.974-2.385-2.811-2.509-5.625-5.566-5.146-7.062,2.882-3.134,2.882-3.134Z" transform="translate(-270.775 -36.41)"/>
        <path id="Trazado_120166" data-name="Trazado 120166" d="M322.46,171.027c-1.1-2.609-1.322-8.131-8.71-8.131-14.232,0-10.9,11.405-10.678,13.109,2.152,16.981,12.478,50.858,12.478,50.858H329.8s-5.183-41.511-5.986-47.91C323.71,178.073,323.213,172.821,322.46,171.027Z" transform="translate(-294.931 -78.732)" fill="#fe7062"/>
        <path id="Trazado_120167" data-name="Trazado 120167" d="M320.75,171.027c1.1-2.609,1.321-8.131,8.709-8.131,14.241,0,10.9,11.405,10.678,13.109-2.152,16.981-12.478,50.858-12.478,50.858H313.406s5.183-41.511,5.986-47.91C319.5,178.073,320,172.821,320.75,171.027Z" transform="translate(-272.098 -78.732)" fill="#fe7062"/>
        <g id="Grupo_56711" data-name="Grupo 56711" transform="translate(9.238 50.953)">
          <rect id="Rectángulo_29867" data-name="Rectángulo 29867" width="41.854" height="2.481" transform="translate(8.635 29.017)" fill="#110239"/>
          <path id="Trazado_120168" data-name="Trazado 120168" d="M359.735,152.215H305.572s-2.923,0-2.422,3.262,7.329,26.076,8.706,26.076h41.6c1.21,0,8.2-22.814,8.7-26.076S359.735,152.215,359.735,152.215Z" transform="translate(-303.092 -152.215)" fill="#110239"/>
          <path id="Trazado_120169" data-name="Trazado 120169" d="M316.363,158.813a2.242,2.242,0,1,1-2.242-2.239A2.241,2.241,0,0,1,316.363,158.813Z" transform="translate(-284.558 -143.02)" fill="#d0d1de"/>
        </g>
      </g>
      <g id="Grupo_56713" data-name="Grupo 56713" transform="translate(396.706 356.584)">
        <path id="Trazado_120170" data-name="Trazado 120170" d="M337.783,206.824l2.512,7.734h8.131l-6.578,4.779,2.512,7.733-6.578-4.779-6.579,4.779,2.513-7.733-6.578-4.779h8.131Z" transform="translate(-327.139 -206.824)" fill="#57dbd8"/>
        <path id="Trazado_120171" data-name="Trazado 120171" d="M347.126,206.824l2.512,7.734h8.131l-6.578,4.779,2.512,7.733-6.578-4.779-6.579,4.779,2.513-7.733-6.578-4.779h8.131Z" transform="translate(-307.432 -206.824)" fill="#57dbd8"/>
        <path id="Trazado_120172" data-name="Trazado 120172" d="M356.468,206.824l2.512,7.734h8.131l-6.578,4.779,2.512,7.733-6.578-4.779-6.579,4.779,2.513-7.733-6.579-4.779h8.131Z" transform="translate(-287.726 -206.824)" fill="#57dbd8"/>
        <path id="Trazado_120173" data-name="Trazado 120173" d="M365.81,206.824l2.512,7.734h8.131l-6.578,4.779,2.512,7.733-6.578-4.779-6.579,4.779,2.513-7.733-6.579-4.779H363.3Z" transform="translate(-268.018 -206.824)" fill="#57dbd8"/>
        <path id="Trazado_120174" data-name="Trazado 120174" d="M375.153,206.824l2.512,7.734H385.8l-6.578,4.779,2.512,7.733-6.578-4.779-6.578,4.779,2.513-7.733-6.579-4.779h8.131Z" transform="translate(-248.312 -206.824)" fill="#57dbd8"/>
      </g>
    </g>
  </g>
</svg>
