<svg xmlns="http://www.w3.org/2000/svg" width="365" height="227.229" viewBox="0 0 365 227.229">
  <g id="Grupo_56945" data-name="Grupo 56945" transform="translate(0 0.364)">
    <g id="Grupo_55713" data-name="Grupo 55713">
      <rect id="Rectángulo_5163" data-name="Rectángulo 5163" width="365" height="227" transform="translate(0 -0.364)" fill="none"/>
    </g>
    <g id="Grupo_56922" data-name="Grupo 56922" transform="translate(26.542 1)">
      <path id="Trazado_120413" data-name="Trazado 120413" d="M56.25,232.725l15.314,13.232,2.619-15.9Z" transform="translate(-13.464 -118.732)" fill="#270049"/>
      <path id="Trazado_120414" data-name="Trazado 120414" d="M445.207,177.945l-16.874,13.461,2.109-14.853Z" transform="translate(-173.916 -95.662)" fill="#270049"/>
      <path id="Trazado_120415" data-name="Trazado 120415" d="M276.766,157.793a32.362,32.362,0,0,1-.956,4.772l-12.456,44.717v.006l-8.8,31.573a32.536,32.536,0,0,1-9.6,15.493c0,.011-.006.011-.011.011a32.516,32.516,0,0,1-26.021,8.105l-32.119-4.152-15.835-2.042-.017-.006-63.674-8.23a32.651,32.651,0,0,1-28.439-31.226l-1.109-31.4L76.7,156.3l-.182-5.142c-.017-.438-.023-.87-.023-1.308a32.456,32.456,0,0,1,3.015-13.56c.068-.148.137-.3.21-.444.41-.853.859-1.689,1.342-2.5a32.744,32.744,0,0,1,11.4-11.41,32.39,32.39,0,0,1,17.592-4.567l90.742,2.548,44.478,1.251A32.646,32.646,0,0,1,276.766,157.793Z" transform="translate(-22.196 -70.135)" fill="#db6256"/>
      <path id="Trazado_120416" data-name="Trazado 120416" d="M285.2,154.311c-.119.546-.256,1.092-.41,1.644l-6.535,23.456-.324,1.172-.688,2.457-1.45,5.221-3.458,12.411v.006l-8.793,31.573a32.677,32.677,0,0,1-8.9,14.845c-.392.37-.8.739-1.206,1.086-.267.233-.54.455-.819.677-.466.381-.938.745-1.428,1.1a32.591,32.591,0,0,1-23.291,5.91l-26.96-3.487-2.531-.33-2.622-.341-.722-.091-4.789-.62-.592-.074-73.423-9.493a32.568,32.568,0,0,1-17.945-8.384c-.142-.131-.29-.267-.432-.4-.216-.21-.432-.415-.631-.631-.1-.091-.182-.171-.267-.262A32.572,32.572,0,0,1,87.825,210.2l-.8-22.432-.034-1.047-.074-2.036-.085-2.343-.017-.506-1.132-32.153-.182-5.142a32.651,32.651,0,0,1,1.1-9.663c.08-.273.154-.546.233-.813.159-.529.33-1.052.518-1.57.046-.137.091-.273.142-.41.21-.569.432-1.12.671-1.667.108-.25.216-.5.33-.739a32.626,32.626,0,0,1,30.549-18.923l69.6,1.957,5.432.148,3.572.1,4.51.125,27.017.756,25.094.705a32.49,32.49,0,0,1,26.5,14.919c.307.478.609.967.887,1.456.154.279.313.552.461.83.046.085.091.165.137.25v.006A32.282,32.282,0,0,1,285.2,154.311Z" transform="translate(-26.07 -67.284)" fill="#fe7062"/>
      <path id="Trazado_120417" data-name="Trazado 120417" d="M327.343,341.275a32.653,32.653,0,0,1-30.359,12.858l-32.117-4.153-19.193-2.48,8.785-2.637L304,338.633Z" transform="translate(-95.148 -165.555)" fill="#db6256"/>
      <path id="Trazado_120418" data-name="Trazado 120418" d="M288.916,151.7v-.006c-.046-.085-.091-.165-.137-.25-.148-.279-.307-.552-.461-.83-.279-.489-.58-.978-.887-1.456a32.49,32.49,0,0,0-26.5-14.919l-52.111-1.462-4.51-.125-3.572-.1-5.432-.148-69.6-1.957a32.626,32.626,0,0,0-30.549,18.923c-.114.239-.222.489-.33.739-.239.546-.461,1.1-.671,1.667-.239.648-.461,1.308-.66,1.979-.08.267-.154.54-.233.813a32.651,32.651,0,0,0-1.1,9.663l.182,5.142L93.5,202.029l.085,2.343.074,2.036.034,1.047.8,22.432a32.572,32.572,0,0,0,9.163,21.545c.085.091.171.171.267.262.2.216.415.421.631.631.142.137.29.273.432.4a32.567,32.567,0,0,0,17.945,8.384l73.423,9.493.592.074,4.789.62.722.091,2.622.341,2.531.33,6.658.859,6.719,27.716,15.831-24.878a32.6,32.6,0,0,0,21.042-6.121c.489-.353.961-.717,1.428-1.1.279-.222.552-.444.819-.677.41-.347.813-.717,1.206-1.086a32.677,32.677,0,0,0,8.9-14.845L279,220.361v-.006l3.458-12.411,1.45-5.221.688-2.457.324-1.172,6.535-23.456A32.351,32.351,0,0,0,288.916,151.7Z" transform="translate(-28.945 -75.772)" fill="none" stroke="#161616" stroke-linecap="round" stroke-linejoin="round" stroke-width="2"/>
      <path id="Trazado_120419" data-name="Trazado 120419" d="M281.327,156.663l-4.562.631-193.821,26.9-5.21.722L76.7,155.8l-.182-5.142c-.017-.438-.023-.87-.023-1.308a32.456,32.456,0,0,1,3.015-13.56c.068-.148.137-.3.21-.444l3.754-.495,117.327-15.431L225.3,116.2l25.094.705a32.49,32.49,0,0,1,26.5,14.919c.307.478.609.967.887,1.456.154.279.313.552.461.83.046.085.091.165.137.25v.006A32.282,32.282,0,0,1,281.327,156.663Z" transform="translate(-22.196 -69.636)" fill="#e48920" opacity="0.45" style="mix-blend-mode: multiply;isolation: isolate"/>
      <path id="Trazado_120420" data-name="Trazado 120420" d="M284.755,144.071,56.25,175.78l5.972-50.337L272.053,98Z" transform="translate(-13.464 -61.788)" fill="#57dbd8"/>
      <g id="Grupo_56925" data-name="Grupo 56925" transform="translate(109.573 101.479)">
        <g id="Grupo_56922-2" data-name="Grupo 56922" transform="translate(4.701 3.651)">
          <path id="Trazado_120421" data-name="Trazado 120421" d="M213.37,244.153a16.637,16.637,0,0,1-1.509,6.824,36.868,36.868,0,0,1-3.77,6.53,59.147,59.147,0,0,1-4.887,5.945q-2.625,2.8-4.917,5.073l14.842-1.839v8.446L181.937,279v-4.464q4.284-4.633,7.572-8.148t5.731-6.17q2.443-2.655,4.1-4.641A30.784,30.784,0,0,0,202,251.957a13.214,13.214,0,0,0,1.418-3.041,10.345,10.345,0,0,0,.423-2.979,3.616,3.616,0,0,0-.362-1.554,3.91,3.91,0,0,0-1.056-1.347,4.635,4.635,0,0,0-1.75-.87,6.123,6.123,0,0,0-2.383-.127,9.736,9.736,0,0,0-5.369,2.354,9.423,9.423,0,0,0-2.956,4.469q-1.871-1.035-3.439-1.927-1.328-.741-2.534-1.405t-1.508-.868a15.941,15.941,0,0,1,2.564-4.33,18.057,18.057,0,0,1,3.62-3.315,19.511,19.511,0,0,1,4.374-2.261,21.676,21.676,0,0,1,4.826-1.172,19.946,19.946,0,0,1,5.219.077,14.607,14.607,0,0,1,5.038,1.639,10.731,10.731,0,0,1,3.771,3.423A9.428,9.428,0,0,1,213.37,244.153Z" transform="translate(-181.937 -225.327)" fill="#db6256"/>
          <path id="Trazado_120422" data-name="Trazado 120422" d="M266.9,261.171l11.945,13.844-10.438,1.293-6.7-7.8-6.7,9.458-10.5,1.3,11.945-16.805-11.945-13.9,10.437-1.293,6.757,7.79,6.7-9.457,10.438-1.293Z" transform="translate(-208.924 -230.009)" fill="#db6256"/>
          <path id="Trazado_120423" data-name="Trazado 120423" d="M329.728,261.4l-9.05,1.122v-32.4l-6.817,4.1-3.259-6.414,11.041-7.643,8.085-1Z" transform="translate(-237.421 -219.169)" fill="#db6256"/>
        </g>
        <g id="Grupo_56923" data-name="Grupo 56923">
          <path id="Trazado_120424" data-name="Trazado 120424" d="M204.674,238.558a16.407,16.407,0,0,1-1.487,6.73,36.46,36.46,0,0,1-3.719,6.441,58.6,58.6,0,0,1-4.82,5.862q-2.589,2.763-4.85,5l14.637-1.814v8.33l-30.763,3.812v-4.4q4.225-4.569,7.468-8.036t5.653-6.086q2.409-2.619,4.046-4.577a30.428,30.428,0,0,0,2.619-3.567,13.069,13.069,0,0,0,1.4-3,10.2,10.2,0,0,0,.416-2.937,3.594,3.594,0,0,0-.356-1.533,3.875,3.875,0,0,0-1.042-1.329,4.567,4.567,0,0,0-1.726-.857,6.043,6.043,0,0,0-2.35-.126,9.6,9.6,0,0,0-5.3,2.323,9.3,9.3,0,0,0-2.916,4.407q-1.845-1.021-3.392-1.9-1.31-.731-2.5-1.386t-1.487-.858a15.72,15.72,0,0,1,2.529-4.27,17.8,17.8,0,0,1,3.57-3.269,19.25,19.25,0,0,1,4.314-2.23,21.412,21.412,0,0,1,4.761-1.156,19.652,19.652,0,0,1,5.147.077,14.416,14.416,0,0,1,4.969,1.615,10.6,10.6,0,0,1,3.718,3.377A9.3,9.3,0,0,1,204.674,238.558Z" transform="translate(-173.672 -219.327)" fill="#db6256"/>
          <path id="Trazado_120425" data-name="Trazado 120425" d="M260.722,240.264l13.686,19.13-10.175,1.261-8.569-12.029-8.628,14.16-10.175,1.26,13.686-22.522-13.686-19.131,10.175-1.261,8.628,12.022L264.293,219l10.116-1.253Z" transform="translate(-200.921 -214.903)" fill="#db6256"/>
          <path id="Trazado_120426" data-name="Trazado 120426" d="M328.85,254.4l-8.926,1.106V223.556L313.2,227.6l-3.214-6.326,10.89-7.537,7.974-.989Z" transform="translate(-232.454 -212.75)" fill="#db6256"/>
        </g>
        <g id="Grupo_56924" data-name="Grupo 56924">
          <path id="Trazado_120427" data-name="Trazado 120427" d="M204.674,238.558a16.407,16.407,0,0,1-1.487,6.73,36.46,36.46,0,0,1-3.719,6.441,58.6,58.6,0,0,1-4.82,5.862q-2.589,2.763-4.85,5l14.637-1.814v8.33l-30.763,3.812v-4.4q4.225-4.569,7.468-8.036t5.653-6.086q2.409-2.619,4.046-4.577a30.428,30.428,0,0,0,2.619-3.567,13.069,13.069,0,0,0,1.4-3,10.2,10.2,0,0,0,.416-2.937,3.594,3.594,0,0,0-.356-1.533,3.875,3.875,0,0,0-1.042-1.329,4.567,4.567,0,0,0-1.726-.857,6.043,6.043,0,0,0-2.35-.126,9.6,9.6,0,0,0-5.3,2.323,9.3,9.3,0,0,0-2.916,4.407q-1.845-1.021-3.392-1.9-1.31-.731-2.5-1.386t-1.487-.858a15.72,15.72,0,0,1,2.529-4.27,17.8,17.8,0,0,1,3.57-3.269,19.25,19.25,0,0,1,4.314-2.23,21.412,21.412,0,0,1,4.761-1.156,19.652,19.652,0,0,1,5.147.077,14.416,14.416,0,0,1,4.969,1.615,10.6,10.6,0,0,1,3.718,3.377A9.3,9.3,0,0,1,204.674,238.558Z" transform="translate(-173.672 -219.327)" fill="#fff"/>
          <path id="Trazado_120428" data-name="Trazado 120428" d="M260.722,240.264l13.686,19.13-10.175,1.261-8.569-12.029-8.628,14.16-10.175,1.26,13.686-22.522-13.686-19.131,10.175-1.261,8.628,12.022L264.293,219l10.116-1.253Z" transform="translate(-200.921 -214.903)" fill="#fff"/>
          <path id="Trazado_120429" data-name="Trazado 120429" d="M328.85,254.4l-8.926,1.106V223.556L313.2,227.6l-3.214-6.326,10.89-7.537,7.974-.989Z" transform="translate(-232.454 -212.75)" fill="#fff"/>
        </g>
      </g>
      <g id="Grupo_56928" data-name="Grupo 56928" transform="translate(55.033 47.614)">
        <g id="Grupo_56926" data-name="Grupo 56926">
          <path id="Trazado_120430" data-name="Trazado 120430" d="M86.829,164.761A7.23,7.23,0,0,1,89.86,165a6.706,6.706,0,0,1,2.5,1.371,6.829,6.829,0,0,1,1.7,2.287,7.007,7.007,0,0,1,.628,2.985,8.288,8.288,0,0,1-.613,3.123,9.263,9.263,0,0,1-1.68,2.721,9.7,9.7,0,0,1-2.5,2.005,8.235,8.235,0,0,1-3.062,1.008l-4.335.537v6.251l-4.712.584V165.882Zm-.534,11.406a3.565,3.565,0,0,0,1.35-.45,4.376,4.376,0,0,0,1.1-.89,4.074,4.074,0,0,0,.738-1.192,3.656,3.656,0,0,0,.267-1.383,3.11,3.11,0,0,0-.267-1.287,2.909,2.909,0,0,0-.738-1.008,3.118,3.118,0,0,0-1.1-.618,3.084,3.084,0,0,0-1.35-.115l-3.8.471v6.942Z" transform="translate(-77.782 -138.164)" fill="#1a0f91"/>
          <path id="Trazado_120431" data-name="Trazado 120431" d="M126.638,181.779l-4.461-6.232-3.455.428v6.784l-4.712.584V161.357l9.455-1.172a6.94,6.94,0,0,1,2.921.235,6.686,6.686,0,0,1,2.418,1.317,6.5,6.5,0,0,1,1.649,2.2,6.757,6.757,0,0,1,.613,2.908,8.043,8.043,0,0,1-1.1,4.078,9.174,9.174,0,0,1-2.89,3.107L132.1,181.1Zm-3.675-10.727a3.39,3.39,0,0,0,1.241-.4,3.669,3.669,0,0,0,1.005-.816,4.017,4.017,0,0,0,.675-1.1,3.315,3.315,0,0,0,.251-1.272,2.872,2.872,0,0,0-.927-2.147,2.618,2.618,0,0,0-1.005-.566,2.95,2.95,0,0,0-1.241-.1l-4.241.526v6.407Z" transform="translate(-93.404 -136.192)" fill="#1a0f91"/>
          <path id="Trazado_120432" data-name="Trazado 120432" d="M161.238,154.171a10.624,10.624,0,0,1,4.533.365,9.868,9.868,0,0,1,6.164,5.44,10.408,10.408,0,0,1,.91,4.379,12.057,12.057,0,0,1-.925,4.654,13.926,13.926,0,0,1-2.51,4,14.167,14.167,0,0,1-3.686,2.938,12.208,12.208,0,0,1-4.485,1.467,10.626,10.626,0,0,1-4.533-.365,9.864,9.864,0,0,1-6.164-5.44,10.421,10.421,0,0,1-.909-4.379,12.049,12.049,0,0,1,.925-4.654,14.106,14.106,0,0,1,2.494-4,13.908,13.908,0,0,1,3.686-2.939A12.342,12.342,0,0,1,161.238,154.171Zm0,18.879a6.8,6.8,0,0,0,2.676-.928,8.682,8.682,0,0,0,2.2-1.875,8.781,8.781,0,0,0,1.481-2.508,7.721,7.721,0,0,0,.535-2.8,6.72,6.72,0,0,0-.535-2.666,6.121,6.121,0,0,0-1.481-2.125,6.257,6.257,0,0,0-2.2-1.314,5.838,5.838,0,0,0-2.676-.264,6.8,6.8,0,0,0-2.677.928,8.859,8.859,0,0,0-2.2,1.86,8.541,8.541,0,0,0-1.48,2.492,7.718,7.718,0,0,0-.535,2.8,6.722,6.722,0,0,0,.535,2.666,6.28,6.28,0,0,0,1.48,2.141,6.135,6.135,0,0,0,2.2,1.329A5.838,5.838,0,0,0,161.238,173.049Z" transform="translate(-108.765 -133.584)" fill="#1a0f91"/>
          <path id="Trazado_120433" data-name="Trazado 120433" d="M218.971,147.178v21.988l-4.712.584V155.866l-6.47,9.6-6.5-7.99v13.884l-4.712.584V149.954l4.712-.584,6.5,8.115,6.47-9.722Z" transform="translate(-129.009 -130.608)" fill="#1a0f91"/>
          <path id="Trazado_120434" data-name="Trazado 120434" d="M253.909,142.687a10.624,10.624,0,0,1,4.533.365,9.868,9.868,0,0,1,6.164,5.44,10.408,10.408,0,0,1,.91,4.379,12.045,12.045,0,0,1-.926,4.654,13.912,13.912,0,0,1-2.509,4,14.164,14.164,0,0,1-3.686,2.938,12.214,12.214,0,0,1-4.485,1.467,10.626,10.626,0,0,1-4.533-.365,9.868,9.868,0,0,1-6.164-5.44,10.419,10.419,0,0,1-.909-4.379,12.034,12.034,0,0,1,.926-4.654,14.1,14.1,0,0,1,2.493-4,13.912,13.912,0,0,1,3.686-2.938A12.35,12.35,0,0,1,253.909,142.687Zm0,18.879a6.808,6.808,0,0,0,2.676-.928,8.77,8.77,0,0,0,3.683-4.383,7.721,7.721,0,0,0,.535-2.8,6.72,6.72,0,0,0-.535-2.666,6.111,6.111,0,0,0-1.481-2.125,6.256,6.256,0,0,0-2.2-1.313,5.832,5.832,0,0,0-2.676-.265,6.8,6.8,0,0,0-2.677.928,8.836,8.836,0,0,0-2.2,1.859,8.55,8.55,0,0,0-1.481,2.492,7.713,7.713,0,0,0-.535,2.8,6.722,6.722,0,0,0,.535,2.666,6.288,6.288,0,0,0,1.481,2.141,6.117,6.117,0,0,0,2.2,1.329A5.832,5.832,0,0,0,253.909,161.565Z" transform="translate(-148.727 -128.632)" fill="#1a0f91"/>
          <path id="Trazado_120435" data-name="Trazado 120435" d="M309.251,154.052a15.85,15.85,0,0,1-3.942,4.132,10.937,10.937,0,0,1-5.136,2.019,10.631,10.631,0,0,1-4.492-.354A10.008,10.008,0,0,1,292,157.822a9.886,9.886,0,0,1-2.5-3.38,10.493,10.493,0,0,1-.92-4.425,12.077,12.077,0,0,1,.9-4.6,14.111,14.111,0,0,1,2.466-4,13.9,13.9,0,0,1,3.681-2.968,12.266,12.266,0,0,1,4.539-1.49,9.243,9.243,0,0,1,4.994.638,10.457,10.457,0,0,1,3.864,3.039l-3.926,3.157a8.251,8.251,0,0,0-.848-1.041,4.979,4.979,0,0,0-1.068-.841,4.487,4.487,0,0,0-1.351-.508,5.076,5.076,0,0,0-1.665-.044,6.766,6.766,0,0,0-2.67.928,8.846,8.846,0,0,0-2.2,1.859,8.553,8.553,0,0,0-1.475,2.492,7.715,7.715,0,0,0-.535,2.8,6.721,6.721,0,0,0,.535,2.666,6.119,6.119,0,0,0,1.475,2.126,6.22,6.22,0,0,0,2.2,1.314,5.794,5.794,0,0,0,2.67.267,5.517,5.517,0,0,0,2.875-1.22,8.646,8.646,0,0,0,2.057-2.47Z" transform="translate(-168.684 -126.162)" fill="#1a0f91"/>
          <path id="Trazado_120436" data-name="Trazado 120436" d="M335.652,156.369l-4.712.584V134.965l4.712-.584Z" transform="translate(-186.95 -125.09)" fill="#1a0f91"/>
          <path id="Trazado_120437" data-name="Trazado 120437" d="M364.286,137.406a10.532,10.532,0,0,1-2.592,7.123,10.26,10.26,0,0,1-6.749,3.513,7.992,7.992,0,0,1-6.718-1.851,8.352,8.352,0,0,1-2.577-6.476V135.7a10.6,10.6,0,0,1,2.569-7.106,10.111,10.111,0,0,1,6.694-3.521,8.089,8.089,0,0,1,6.764,1.854,8.3,8.3,0,0,1,2.607,6.464Zm-4.463-3.5a6.09,6.09,0,0,0-1.3-4.117,3.832,3.832,0,0,0-3.6-1.226,4.83,4.83,0,0,0-3.535,2.11,7.606,7.606,0,0,0-1.266,4.436v4.049a6.279,6.279,0,0,0,1.273,4.168,3.739,3.739,0,0,0,3.559,1.231,4.933,4.933,0,0,0,3.589-2.117,7.6,7.6,0,0,0,1.288-4.485Zm-3.958-15.246,4.985-.618.031.088-4.249,4.514-3.819.473Z" transform="translate(-193.294 -118.046)" fill="#1a0f91"/>
          <path id="Trazado_120438" data-name="Trazado 120438" d="M398.637,147.274l-9.36-11.875v13.036l-4.712.584V127.03l4.335-.537,9.392,11.9V125.329l4.712-.584v21.988Z" transform="translate(-210.074 -120.935)" fill="#1a0f91"/>
        </g>
      </g>
      <g id="Grupo_56931" data-name="Grupo 56931" transform="translate(86.922 165.178)">
        <g id="Grupo_56929" data-name="Grupo 56929" transform="translate(7.032)">
          <circle id="Elipse_4277" data-name="Elipse 4277" cx="1.809" cy="1.809" r="1.809" transform="translate(0 6.288)" fill="#57dbd8"/>
          <circle id="Elipse_4278" data-name="Elipse 4278" cx="1.809" cy="1.809" r="1.809" transform="translate(7.817 5.39)" fill="#57dbd8"/>
          <circle id="Elipse_4279" data-name="Elipse 4279" cx="1.809" cy="1.809" r="1.809" transform="translate(15.633 4.492)" fill="#57dbd8"/>
          <circle id="Elipse_4280" data-name="Elipse 4280" cx="1.809" cy="1.809" r="1.809" transform="translate(23.45 3.593)" fill="#57dbd8"/>
          <circle id="Elipse_4281" data-name="Elipse 4281" cx="1.809" cy="1.809" r="1.809" transform="translate(31.267 2.695)" fill="#57dbd8"/>
          <circle id="Elipse_4282" data-name="Elipse 4282" cx="1.809" cy="1.809" r="1.809" transform="translate(46.9 0.898)" fill="#57dbd8"/>
          <circle id="Elipse_4283" data-name="Elipse 4283" cx="1.809" cy="1.809" r="1.809" transform="translate(54.717)" fill="#57dbd8"/>
        </g>
        <g id="Grupo_56930" data-name="Grupo 56930" transform="translate(0 7.728)">
          <circle id="Elipse_4284" data-name="Elipse 4284" cx="1.809" cy="1.809" r="1.809" transform="translate(0 6.288)" fill="#57dbd8"/>
          <circle id="Elipse_4285" data-name="Elipse 4285" cx="1.809" cy="1.809" r="1.809" transform="translate(7.817 5.39)" fill="#57dbd8"/>
          <circle id="Elipse_4286" data-name="Elipse 4286" cx="1.809" cy="1.809" r="1.809" transform="translate(15.633 4.492)" fill="#57dbd8"/>
          <circle id="Elipse_4287" data-name="Elipse 4287" cx="1.809" cy="1.809" r="1.809" transform="translate(31.267 2.695)" fill="#57dbd8"/>
          <circle id="Elipse_4288" data-name="Elipse 4288" cx="1.809" cy="1.809" r="1.809" transform="translate(23.683 3.548)" fill="#57dbd8"/>
          <circle id="Elipse_4289" data-name="Elipse 4289" cx="1.809" cy="1.809" r="1.809" transform="translate(39.083 1.797)" fill="#57dbd8"/>
          <circle id="Elipse_4290" data-name="Elipse 4290" cx="1.809" cy="1.809" r="1.809" transform="translate(46.9 0.898)" fill="#57dbd8"/>
          <circle id="Elipse_4291" data-name="Elipse 4291" cx="1.809" cy="1.809" r="1.809" transform="translate(54.717)" fill="#57dbd8"/>
        </g>
      </g>
      <g id="Grupo_56934" data-name="Grupo 56934" transform="translate(254.418 12.8)">
        <g id="Grupo_56932" data-name="Grupo 56932" transform="translate(6.918 0)">
          <circle id="Elipse_4292" data-name="Elipse 4292" cx="1.846" cy="1.846" r="1.846" transform="translate(0 8.219)" fill="#57dbd8"/>
          <circle id="Elipse_4293" data-name="Elipse 4293" cx="1.846" cy="1.846" r="1.846" transform="translate(7.944 7.045)" fill="#57dbd8"/>
          <circle id="Elipse_4294" data-name="Elipse 4294" cx="1.846" cy="1.846" r="1.846" transform="translate(15.888 5.871)" fill="#57dbd8"/>
          <circle id="Elipse_4295" data-name="Elipse 4295" cx="1.846" cy="1.846" r="1.846" transform="translate(23.832 4.697)" fill="#57dbd8"/>
          <circle id="Elipse_4296" data-name="Elipse 4296" cx="1.846" cy="1.846" r="1.846" transform="translate(31.776 3.523)" fill="#57dbd8"/>
          <circle id="Elipse_4297" data-name="Elipse 4297" cx="1.846" cy="1.846" r="1.846" transform="translate(39.72 2.348)" fill="#57dbd8"/>
          <circle id="Elipse_4298" data-name="Elipse 4298" cx="1.846" cy="1.846" r="1.846" transform="translate(47.664 1.174)" fill="#57dbd8"/>
          <circle id="Elipse_4299" data-name="Elipse 4299" cx="1.846" cy="1.846" r="1.846" transform="translate(55.608)" fill="#57dbd8"/>
        </g>
        <g id="Grupo_56933" data-name="Grupo 56933" transform="translate(0 8.115)">
          <circle id="Elipse_4300" data-name="Elipse 4300" cx="1.846" cy="1.846" r="1.846" transform="translate(0 8.219)" fill="#57dbd8"/>
          <circle id="Elipse_4301" data-name="Elipse 4301" cx="1.846" cy="1.846" r="1.846" transform="translate(7.944 7.045)" fill="#57dbd8"/>
          <circle id="Elipse_4302" data-name="Elipse 4302" cx="1.846" cy="1.846" r="1.846" transform="translate(15.888 5.871)" fill="#57dbd8"/>
          <circle id="Elipse_4303" data-name="Elipse 4303" cx="1.846" cy="1.846" r="1.846" transform="translate(23.832 4.697)" fill="#57dbd8"/>
          <circle id="Elipse_4304" data-name="Elipse 4304" cx="1.846" cy="1.846" r="1.846" transform="translate(31.776 3.523)" fill="#57dbd8"/>
          <circle id="Elipse_4305" data-name="Elipse 4305" cx="1.846" cy="1.846" r="1.846" transform="translate(39.72 2.348)" fill="#57dbd8"/>
          <circle id="Elipse_4306" data-name="Elipse 4306" cx="1.846" cy="1.846" r="1.846" transform="translate(47.664 1.174)" fill="#57dbd8"/>
          <circle id="Elipse_4307" data-name="Elipse 4307" cx="1.846" cy="1.846" r="1.846" transform="translate(55.608)" fill="#57dbd8"/>
        </g>
      </g>
      <g id="Grupo_56935" data-name="Grupo 56935" transform="translate(110.535 12.786)">
        <path id="Trazado_120448" data-name="Trazado 120448" d="M223.419,77.6l7.683,5.9-5.728,7.464Z" transform="translate(-194.087 -77.605)" fill="#57dbd8"/>
        <path id="Trazado_120449" data-name="Trazado 120449" d="M202.908,80.3l7.683,5.9-5.728,7.464Z" transform="translate(-188.242 -78.768)" fill="#57dbd8"/>
        <path id="Trazado_120450" data-name="Trazado 120450" d="M182.4,83l7.683,5.9-5.728,7.464Z" transform="translate(-182.397 -79.106)" fill="#57dbd8"/>
      </g>
      <g id="Grupo_56936" data-name="Grupo 56936" transform="translate(44.876 192.612)">
        <path id="Trazado_120451" data-name="Trazado 120451" d="M214.346,378.2l10.233,8.282-8.047,9.941Z" transform="translate(-182.533 -378.204)" fill="#1a0f91"/>
        <path id="Trazado_120452" data-name="Trazado 120452" d="M186.38,381.149l10.233,8.282-8.047,9.941Z" transform="translate(-170.473 -379.474)" fill="#1a0f91"/>
        <path id="Trazado_120453" data-name="Trazado 120453" d="M158.413,384.1l10.233,8.282-8.047,9.941Z" transform="translate(-158.413 -380.744)" fill="#1a0f91"/>
      </g>
      <g id="Grupo_56937" data-name="Grupo 56937" transform="translate(155.915 151.07)">
        <rect id="Rectángulo_30054" data-name="Rectángulo 30054" width="73.029" height="16.03" rx="8.015" transform="matrix(0.992, -0.129, 0.129, 0.992, 1.422, 11.362)" fill="#e48920"/>
        <rect id="Rectángulo_30055" data-name="Rectángulo 30055" width="73.029" height="16.03" rx="8.015" transform="matrix(0.992, -0.129, 0.129, 0.992, 0, 9.443)" fill="#57dbd8"/>
      </g>
      <g id="Grupo_56943" data-name="Grupo 56943" transform="translate(0 9.031)">
        <circle id="Elipse_4308" data-name="Elipse 4308" cx="2.654" cy="2.654" r="2.654" transform="translate(244.559 178.286)" fill="#57dbd8" stroke="#4e1d80" stroke-linecap="round" stroke-miterlimit="10" stroke-width="2"/>
        <circle id="Elipse_4309" data-name="Elipse 4309" cx="2.654" cy="2.654" r="2.654" transform="translate(243.895 10.877)" fill="#57dbd8" stroke="#4e1d80" stroke-linecap="round" stroke-miterlimit="10" stroke-width="2"/>
        <circle id="Elipse_4310" data-name="Elipse 4310" cx="2.654" cy="2.654" r="2.654" transform="translate(10.521 130.176)" fill="#57dbd8" stroke="#4e1d80" stroke-linecap="round" stroke-miterlimit="10" stroke-width="2"/>
        <g id="Grupo_56938" data-name="Grupo 56938" transform="translate(1.32 13.531)">
          <line id="Línea_580" data-name="Línea 580" y2="5.154" transform="translate(9.242)" fill="none" stroke="#57dbd8" stroke-linecap="round" stroke-miterlimit="10" stroke-width="2"/>
          <line id="Línea_581" data-name="Línea 581" x1="3.644" y2="3.645" transform="translate(12.092 2.724)" fill="none" stroke="#57dbd8" stroke-linecap="round" stroke-miterlimit="10" stroke-width="2"/>
          <line id="Línea_582" data-name="Línea 582" x1="5.154" transform="translate(13.248 9.242)" fill="none" stroke="#57dbd8" stroke-linecap="round" stroke-miterlimit="10" stroke-width="2"/>
          <line id="Línea_583" data-name="Línea 583" x1="3.645" y1="3.644" transform="translate(12.034 12.092)" fill="none" stroke="#57dbd8" stroke-linecap="round" stroke-miterlimit="10" stroke-width="2"/>
          <line id="Línea_584" data-name="Línea 584" y1="5.154" transform="translate(9.16 13.249)" fill="none" stroke="#57dbd8" stroke-linecap="round" stroke-miterlimit="10" stroke-width="2"/>
          <line id="Línea_585" data-name="Línea 585" y1="3.644" x2="3.644" transform="translate(2.666 12.034)" fill="none" stroke="#57dbd8" stroke-linecap="round" stroke-miterlimit="10" stroke-width="2"/>
          <line id="Línea_586" data-name="Línea 586" x2="5.154" transform="translate(0 9.16)" fill="none" stroke="#57dbd8" stroke-linecap="round" stroke-miterlimit="10" stroke-width="2"/>
          <line id="Línea_587" data-name="Línea 587" x2="3.644" y2="3.644" transform="translate(2.724 2.666)" fill="none" stroke="#57dbd8" stroke-linecap="round" stroke-miterlimit="10" stroke-width="2"/>
        </g>
        <g id="Grupo_56939" data-name="Grupo 56939" transform="translate(175.281 0)">
          <line id="Línea_588" data-name="Línea 588" y2="2.947" transform="translate(5.284)" fill="none" stroke="#91b3fa" stroke-linecap="round" stroke-miterlimit="10" stroke-width="2"/>
          <line id="Línea_589" data-name="Línea 589" x1="2.083" y2="2.084" transform="translate(6.913 1.557)" fill="none" stroke="#91b3fa" stroke-linecap="round" stroke-miterlimit="10" stroke-width="2"/>
          <line id="Línea_590" data-name="Línea 590" x1="2.947" transform="translate(7.574 5.284)" fill="none" stroke="#91b3fa" stroke-linecap="round" stroke-miterlimit="10" stroke-width="2"/>
          <line id="Línea_591" data-name="Línea 591" x1="2.084" y1="2.083" transform="translate(6.88 6.913)" fill="none" stroke="#91b3fa" stroke-linecap="round" stroke-miterlimit="10" stroke-width="2"/>
          <line id="Línea_592" data-name="Línea 592" y1="2.946" transform="translate(5.237 7.574)" fill="none" stroke="#91b3fa" stroke-linecap="round" stroke-miterlimit="10" stroke-width="2"/>
          <line id="Línea_593" data-name="Línea 593" y1="2.083" x2="2.083" transform="translate(1.524 6.88)" fill="none" stroke="#91b3fa" stroke-linecap="round" stroke-miterlimit="10" stroke-width="2"/>
          <line id="Línea_594" data-name="Línea 594" x2="2.946" transform="translate(0 5.237)" fill="none" stroke="#91b3fa" stroke-linecap="round" stroke-miterlimit="10" stroke-width="2"/>
          <line id="Línea_595" data-name="Línea 595" x2="2.083" y2="2.083" transform="translate(1.557 1.524)" fill="none" stroke="#91b3fa" stroke-linecap="round" stroke-miterlimit="10" stroke-width="2"/>
        </g>
        <g id="Grupo_56940" data-name="Grupo 56940" transform="translate(297.564 196.047)">
          <line id="Línea_596" data-name="Línea 596" y2="2.947" transform="translate(5.284)" fill="none" stroke="#57dbd8" stroke-linecap="round" stroke-miterlimit="10" stroke-width="2"/>
          <line id="Línea_597" data-name="Línea 597" x1="2.083" y2="2.084" transform="translate(6.913 1.557)" fill="none" stroke="#57dbd8" stroke-linecap="round" stroke-miterlimit="10" stroke-width="2"/>
          <line id="Línea_598" data-name="Línea 598" x1="2.947" transform="translate(7.574 5.284)" fill="none" stroke="#57dbd8" stroke-linecap="round" stroke-miterlimit="10" stroke-width="2"/>
          <line id="Línea_599" data-name="Línea 599" x1="2.084" y1="2.083" transform="translate(6.88 6.913)" fill="none" stroke="#57dbd8" stroke-linecap="round" stroke-miterlimit="10" stroke-width="2"/>
          <line id="Línea_600" data-name="Línea 600" y1="2.946" transform="translate(5.237 7.574)" fill="none" stroke="#57dbd8" stroke-linecap="round" stroke-miterlimit="10" stroke-width="2"/>
          <line id="Línea_601" data-name="Línea 601" y1="2.083" x2="2.083" transform="translate(1.524 6.88)" fill="none" stroke="#57dbd8" stroke-linecap="round" stroke-miterlimit="10" stroke-width="2"/>
          <line id="Línea_602" data-name="Línea 602" x2="2.946" transform="translate(0 5.237)" fill="none" stroke="#57dbd8" stroke-linecap="round" stroke-miterlimit="10" stroke-width="2"/>
          <line id="Línea_603" data-name="Línea 603" x2="2.083" y2="2.083" transform="translate(1.557 1.524)" fill="none" stroke="#57dbd8" stroke-linecap="round" stroke-miterlimit="10" stroke-width="2"/>
        </g>
        <g id="Grupo_56941" data-name="Grupo 56941" transform="translate(0 170.42)">
          <line id="Línea_604" data-name="Línea 604" y2="2.947" transform="translate(5.284)" fill="none" stroke="#57dbd8" stroke-linecap="round" stroke-miterlimit="10" stroke-width="2"/>
          <line id="Línea_605" data-name="Línea 605" x1="2.083" y2="2.084" transform="translate(6.913 1.557)" fill="none" stroke="#57dbd8" stroke-linecap="round" stroke-miterlimit="10" stroke-width="2"/>
          <line id="Línea_606" data-name="Línea 606" x1="2.947" transform="translate(7.574 5.284)" fill="none" stroke="#57dbd8" stroke-linecap="round" stroke-miterlimit="10" stroke-width="2"/>
          <line id="Línea_607" data-name="Línea 607" x1="2.084" y1="2.083" transform="translate(6.88 6.913)" fill="none" stroke="#57dbd8" stroke-linecap="round" stroke-miterlimit="10" stroke-width="2"/>
          <line id="Línea_608" data-name="Línea 608" y1="2.946" transform="translate(5.237 7.574)" fill="none" stroke="#57dbd8" stroke-linecap="round" stroke-miterlimit="10" stroke-width="2"/>
          <line id="Línea_609" data-name="Línea 609" y1="2.083" x2="2.083" transform="translate(1.524 6.88)" fill="none" stroke="#57dbd8" stroke-linecap="round" stroke-miterlimit="10" stroke-width="2"/>
          <line id="Línea_610" data-name="Línea 610" x2="2.946" transform="translate(0 5.237)" fill="none" stroke="#57dbd8" stroke-linecap="round" stroke-miterlimit="10" stroke-width="2"/>
          <line id="Línea_611" data-name="Línea 611" x2="2.083" y2="2.083" transform="translate(1.557 1.524)" fill="none" stroke="#57dbd8" stroke-linecap="round" stroke-miterlimit="10" stroke-width="2"/>
        </g>
        <g id="Grupo_56942" data-name="Grupo 56942" transform="translate(308.084 130.225)">
          <line id="Línea_612" data-name="Línea 612" y2="2.947" transform="translate(5.284)" fill="none" stroke="#57dbd8" stroke-linecap="round" stroke-miterlimit="10" stroke-width="2"/>
          <line id="Línea_613" data-name="Línea 613" x1="2.083" y2="2.084" transform="translate(6.913 1.557)" fill="none" stroke="#57dbd8" stroke-linecap="round" stroke-miterlimit="10" stroke-width="2"/>
          <line id="Línea_614" data-name="Línea 614" x1="2.947" transform="translate(7.574 5.284)" fill="none" stroke="#57dbd8" stroke-linecap="round" stroke-miterlimit="10" stroke-width="2"/>
          <line id="Línea_615" data-name="Línea 615" x1="2.084" y1="2.083" transform="translate(6.88 6.913)" fill="none" stroke="#57dbd8" stroke-linecap="round" stroke-miterlimit="10" stroke-width="2"/>
          <line id="Línea_616" data-name="Línea 616" y1="2.946" transform="translate(5.237 7.574)" fill="none" stroke="#57dbd8" stroke-linecap="round" stroke-miterlimit="10" stroke-width="2"/>
          <line id="Línea_617" data-name="Línea 617" y1="2.083" x2="2.083" transform="translate(1.524 6.88)" fill="none" stroke="#57dbd8" stroke-linecap="round" stroke-miterlimit="10" stroke-width="2"/>
          <line id="Línea_618" data-name="Línea 618" x2="2.946" transform="translate(0 5.237)" fill="none" stroke="#57dbd8" stroke-linecap="round" stroke-miterlimit="10" stroke-width="2"/>
          <line id="Línea_619" data-name="Línea 619" x2="2.083" y2="2.083" transform="translate(1.557 1.524)" fill="none" stroke="#57dbd8" stroke-linecap="round" stroke-miterlimit="10" stroke-width="2"/>
        </g>
      </g>
      <g id="Grupo_56944" data-name="Grupo 56944" transform="translate(31.458)">
        <path id="Trazado_120454" data-name="Trazado 120454" d="M203.083,34.333" transform="translate(-108.24 -34.333)" fill="none" stroke="#fff" stroke-linecap="round" stroke-miterlimit="10" stroke-width="1"/>
        <path id="Trazado_120455" data-name="Trazado 120455" d="M265,71" transform="translate(-134.94 -50.145)" fill="none" stroke="#fff" stroke-linecap="round" stroke-miterlimit="10" stroke-width="1"/>
        <path id="Trazado_120456" data-name="Trazado 120456" d="M141,99" transform="translate(-81.468 -62.219)" fill="none" stroke="#fff" stroke-linecap="round" stroke-miterlimit="10" stroke-width="1"/>
        <path id="Trazado_120457" data-name="Trazado 120457" d="M466,108" transform="translate(-221.616 -66.1)" fill="none" stroke="#fff" stroke-linecap="round" stroke-miterlimit="10" stroke-width="1"/>
        <path id="Trazado_120458" data-name="Trazado 120458" d="M38.667,143.667" transform="translate(-37.339 -81.481)" fill="none" stroke="#fff" stroke-linecap="round" stroke-miterlimit="10" stroke-width="1"/>
        <path id="Trazado_120459" data-name="Trazado 120459" d="M474.333,231.667" transform="translate(-225.21 -119.428)" fill="none" stroke="#fff" stroke-linecap="round" stroke-miterlimit="10" stroke-width="1"/>
        <path id="Trazado_120460" data-name="Trazado 120460" d="M453.5,363.833" transform="translate(-216.226 -176.422)" fill="none" stroke="#fff" stroke-linecap="round" stroke-miterlimit="10" stroke-width="1"/>
        <path id="Trazado_120461" data-name="Trazado 120461" d="M394,410" transform="translate(-190.568 -196.33)" fill="none" stroke="#fff" stroke-linecap="round" stroke-miterlimit="10" stroke-width="1"/>
        <path id="Trazado_120462" data-name="Trazado 120462" d="M142.333,405.667" transform="translate(-82.043 -194.461)" fill="none" stroke="#fff" stroke-linecap="round" stroke-miterlimit="10" stroke-width="1"/>
        <path id="Trazado_120463" data-name="Trazado 120463" d="M36.333,369.667" transform="translate(-36.333 -178.937)" fill="none" stroke="#fff" stroke-linecap="round" stroke-miterlimit="10" stroke-width="1"/>
        <path id="Trazado_120464" data-name="Trazado 120464" d="M36.667,258" transform="translate(-36.477 -130.784)" fill="none" stroke="#fff" stroke-linecap="round" stroke-miterlimit="10" stroke-width="1"/>
        <path id="Trazado_120465" data-name="Trazado 120465" d="M360.083,38.5" transform="translate(-175.942 -36.13)" fill="none" stroke="#fff" stroke-linecap="round" stroke-miterlimit="10" stroke-width="1"/>
        <path id="Trazado_120466" data-name="Trazado 120466" d="M439,315.5" transform="translate(-209.973 -155.579)" fill="none" stroke="#fff" stroke-linecap="round" stroke-miterlimit="10" stroke-width="1"/>
        <path id="Trazado_120467" data-name="Trazado 120467" d="M82,345" transform="translate(-56.026 -168.3)" fill="none" stroke="#fff" stroke-linecap="round" stroke-miterlimit="10" stroke-width="1"/>
        <path id="Trazado_120468" data-name="Trazado 120468" d="M250.333,386.333" transform="translate(-128.615 -186.124)" fill="none" stroke="#fff" stroke-linecap="round" stroke-miterlimit="10" stroke-width="1"/>
        <path id="Trazado_120469" data-name="Trazado 120469" d="M399.5,88.5" transform="translate(-192.94 -57.691)" fill="none" stroke="#fff" stroke-linecap="round" stroke-miterlimit="10" stroke-width="0.5"/>
        <path id="Trazado_120470" data-name="Trazado 120470" d="M468,166.5" transform="translate(-222.479 -91.327)" fill="none" stroke="#fff" stroke-linecap="round" stroke-miterlimit="10" stroke-width="0.5"/>
        <path id="Trazado_120471" data-name="Trazado 120471" d="M84.333,60.667" transform="translate(-57.032 -45.689)" fill="none" stroke="#fff" stroke-linecap="round" stroke-miterlimit="10" stroke-width="1"/>
      </g>
    </g>
  </g>
</svg>
