<svg xmlns="http://www.w3.org/2000/svg" width="499" height="365" viewBox="0 0 499 365">
  <g id="Grupo_57106" data-name="Grupo 57106" transform="translate(-908 -392)">
    <rect id="Rectángulo_29602" data-name="Rectángulo 29602" width="499" height="365" transform="translate(908 392)" fill="none"/>
    <g id="Grupo_56425" data-name="Grupo 56425" transform="translate(908 400)">
      <rect id="Rectángulo_5708" data-name="Rectángulo 5708" width="494" height="357" fill="none"/>
      <g id="Grupo_56445" data-name="Grupo 56445" transform="translate(20.167 15)">
        <rect id="Rectángulo_5906" data-name="Rectángulo 5906" width="421.625" height="22.453" rx="11.227" transform="translate(12.915 251.28)" fill="#91b3fa"/>
        <path id="Trazado_105171" data-name="Trazado 105171" d="M352.841,210.653l30.7,12.241,38.823-34.816,106.891,73.042v44.113H189.06V78.365L331.194,232.613Z" transform="translate(-177.553 -42.179)" fill="#57dbd8"/>
        <g id="Grupo_56427" data-name="Grupo 56427" transform="translate(0)">
          <g id="Grupo_56426" data-name="Grupo 56426" transform="translate(15.454 13.65)">
            <path id="Trazado_105172" data-name="Trazado 105172" d="M194.152,47.156,326.766,197.9l21.458-23.225,31.41,13.362,39.9-38.179,105.773,77.119v9.27l-105.382-76.83-39.307,37.611L349.39,183.749l-22.708,24.581L189.06,51.882A53.231,53.231,0,0,0,194.152,47.156Z" transform="translate(-189.06 -47.156)" fill="#f9c141"/>
          </g>
          <path id="Trazado_105173" data-name="Trazado 105173" d="M632.762,28.254l31.292,9.5-20.7,18.561Z" transform="translate(-632.762 -28.254)" fill="#f9c141"/>
        </g>
        <g id="Grupo_56433" data-name="Grupo 56433" transform="translate(49.89 179.991)">
          <g id="Grupo_56428" data-name="Grupo 56428">
            <rect id="Rectángulo_5907" data-name="Rectángulo 5907" width="84.001" height="139.484" rx="4.828" fill="#0c0236"/>
            <rect id="Rectángulo_5908" data-name="Rectángulo 5908" width="72.001" height="122.207" transform="translate(5.565 5.769)" fill="#d0d1de"/>
            <path id="Trazado_105174" data-name="Trazado 105174" d="M537.161,518.078a2.265,2.265,0,1,0-2.265-2.265A2.265,2.265,0,0,0,537.161,518.078Z" transform="translate(-495.16 -382.491)" fill="#fff"/>
          </g>
          <rect id="Rectángulo_5909" data-name="Rectángulo 5909" width="3.531" height="2.855" rx="1.153" transform="translate(71.26 9.559)" fill="#fff"/>
          <rect id="Rectángulo_5910" data-name="Rectángulo 5910" width="3.531" height="2.855" rx="1.153" transform="translate(61.628 9.559)" fill="#fff"/>
          <rect id="Rectángulo_5911" data-name="Rectángulo 5911" width="3.531" height="2.855" rx="1.153" transform="translate(15.104 9.559)" fill="#fff"/>
          <rect id="Rectángulo_5912" data-name="Rectángulo 5912" width="3.531" height="2.855" rx="1.153" transform="translate(25.898 9.559)" fill="#fff"/>
          <rect id="Rectángulo_5913" data-name="Rectángulo 5913" width="3.531" height="2.855" rx="1.153" transform="translate(8.34 9.559)" fill="#fff"/>
          <g id="Grupo_56431" data-name="Grupo 56431" transform="translate(10.878 31.906)">
            <path id="Trazado_105179" data-name="Trazado 105179" d="M522.595,388.621a30.379,30.379,0,1,0,30.38-30.38A30.378,30.378,0,0,0,522.595,388.621Z" transform="translate(-522.595 -358.241)" fill="#fff"/>
            <path id="Trazado_105180" data-name="Trazado 105180" d="M549.084,380.888c.5-.013,4.775-12.3,6.22-11.822,2.032.678,7.587,3.36,7.722,5.676s-11.2,22.243-13.1,22.243c-3.989,0-20.735-22.109-19.381-24.615s7.674-5.96,8.622-5.012C539.867,368.058,548.654,380.9,549.084,380.888Z" transform="translate(-517.179 -350.233)" fill="#57dbd8"/>
          </g>
          <g id="Grupo_56432" data-name="Grupo 56432" transform="translate(26.921 111.76)">
            <rect id="Rectángulo_5914" data-name="Rectángulo 5914" width="28.67" height="9.099" rx="4.517" fill="#fe7062"/>
          </g>
        </g>
        <g id="Grupo_56437" data-name="Grupo 56437" transform="translate(164.451 160.714)">
          <g id="Grupo_56436" data-name="Grupo 56436">
            <rect id="Rectángulo_5915" data-name="Rectángulo 5915" width="258.268" height="158.76" fill="#0c0236"/>
            <rect id="Rectángulo_5916" data-name="Rectángulo 5916" width="233.581" height="137.49" transform="translate(12.344 10.635)" fill="#fff"/>
            <path id="Trazado_105181" data-name="Trazado 105181" d="M120.788,452.333H268.113s-.732-55.513-18.815-63.491-30.183,32.178-38.692,32.709-7.759-32.874-20.144-37.828c-31.911-12.764-28.654,37.563-34.5,37.031s-11.1-46.472-19.146-46.472C117.065,374.282,120.788,452.333,120.788,452.333Z" transform="translate(-37.554 -317.121)" fill="#e3e5ec"/>
            <path id="Trazado_105182" data-name="Trazado 105182" d="M120.509,454.328H267.834s-3.723-47.336-21.807-55.314-26.061,30.316-34.57,30.848-16.488-26.594-29.784-27.657-22.338,31.379-28.188,30.847-8.972-51.59-17.02-51.59C120.509,381.463,120.509,454.328,120.509,454.328Z" transform="translate(-37.274 -319.116)" fill="#57dbd8"/>
            <path id="Trazado_105183" data-name="Trazado 105183" d="M120.519,463.376H267.844s-4.787-23.4-22.87-31.38-27.657,14.094-36.166,14.626-11.967-31.513-25.264-32.576-5.916,38.693-26.992,38.693c-15.291,0-12.96-32.709-21.008-32.709C119.588,420.029,120.519,463.376,120.519,463.376Z" transform="translate(-37.285 -328.165)" fill="#91b3fa"/>
            <rect id="Rectángulo_5917" data-name="Rectángulo 5917" width="43.678" height="7.654" transform="translate(22.408 54.692)" fill="#e3e5ec"/>
            <rect id="Rectángulo_5918" data-name="Rectángulo 5918" width="43.678" height="7.654" transform="translate(22.408 71.725)" fill="#e3e5ec"/>
            <rect id="Rectángulo_5919" data-name="Rectángulo 5919" width="43.678" height="7.654" transform="translate(22.408 88.758)" fill="#00c7e1"/>
            <rect id="Rectángulo_5920" data-name="Rectángulo 5920" width="43.678" height="7.654" transform="translate(22.408 105.792)" fill="#e3e5ec"/>
            <rect id="Rectángulo_5921" data-name="Rectángulo 5921" width="43.678" height="7.654" transform="translate(22.408 122.825)" fill="#91b3fa"/>
            <rect id="Rectángulo_5922" data-name="Rectángulo 5922" width="7.976" height="7.976" transform="translate(226.555 18.895)" fill="#00c7e1"/>
            <rect id="Rectángulo_5923" data-name="Rectángulo 5923" width="36.177" height="7.976" transform="translate(182.687 18.895)" fill="#e3e5ec"/>
            <rect id="Rectángulo_5924" data-name="Rectángulo 5924" width="7.976" height="7.976" transform="translate(226.555 32.284)" fill="#00c7e1"/>
            <rect id="Rectángulo_5925" data-name="Rectángulo 5925" width="36.177" height="7.976" transform="translate(182.687 32.284)" fill="#e3e5ec"/>
            <rect id="Rectángulo_5926" data-name="Rectángulo 5926" width="7.976" height="7.976" transform="translate(226.555 45.672)" fill="#00c7e1"/>
            <rect id="Rectángulo_5927" data-name="Rectángulo 5927" width="36.177" height="7.976" transform="translate(182.687 45.672)" fill="#e3e5ec"/>
            <rect id="Rectángulo_5928" data-name="Rectángulo 5928" width="113.572" height="11.109" transform="translate(22.409 18.895)" fill="#e3e5ec"/>
            <rect id="Rectángulo_5929" data-name="Rectángulo 5929" width="56.971" height="9.4" transform="translate(109.991 42.539)" fill="#e3e5ec"/>
            <g id="Grupo_56435" data-name="Grupo 56435" transform="translate(152.66 17.496)">
              <g id="Grupo_56434" data-name="Grupo 56434">
                <path id="Trazado_105184" data-name="Trazado 105184" d="M217.173,322.873c2.85.214,5.449,1.431,5.467,4.279l-4.749.027c-.032-1.077-1.137-1.3-1.831-1.3-.436,0-1.847.011-1.843.883.012,1.95,8.753-.128,8.785,5.39.019,3.311-2.566,4.559-5.747,4.808l.226,3.516-2.9.018.159-3.545c-2.953-.29-5.708-1.659-5.726-4.637l4.749-.027v.1c.033,1.309,1.5,1.558,2.242,1.553.719,0,2.131-.063,2.124-1.013-.012-2.028-8.754-.128-8.785-5.466-.017-3.081,2.363-4.276,5.313-4.549l-.2-3.541,2.9-.018Z" transform="translate(-209.014 -319.354)" fill="#00c7e1"/>
              </g>
            </g>
            <path id="Trazado_105185" data-name="Trazado 105185" d="M233.6,327.294l4.469-8.7,4.468,8.7h-3.066v12.993h-2.842V327.294Z" transform="translate(-93.639 -301.647)" fill="#fe7062"/>
          </g>
        </g>
        <g id="Grupo_56438" data-name="Grupo 56438" transform="translate(286.329 18.071)">
          <ellipse id="Elipse_4634" data-name="Elipse 4634" cx="61.735" cy="61.735" rx="61.735" ry="61.735" transform="translate(110.511 165.576) rotate(-153.514)" fill="#91b3fa"/>
          <ellipse id="Elipse_4635" data-name="Elipse 4635" cx="46.793" cy="46.793" rx="46.793" ry="46.793" transform="translate(111.311 142.501) rotate(-160.532)" fill="#fff"/>
          <ellipse id="Elipse_4636" data-name="Elipse 4636" cx="33.423" cy="33.423" rx="33.423" ry="33.423" transform="matrix(-0.769, -0.64, 0.64, -0.769, 87.098, 129.859)" fill="#91b3fa"/>
          <path id="Trazado_105186" data-name="Trazado 105186" d="M168.1,169.329a23,23,0,1,0-30.848,10.329A23,23,0,0,0,168.1,169.329Z" transform="translate(-64.725 -76.282)" fill="#fff"/>
          <path id="Trazado_105187" data-name="Trazado 105187" d="M161.783,168.573a10.617,10.617,0,1,0-14.237,4.767A10.617,10.617,0,0,0,161.783,168.573Z" transform="translate(-69.493 -81.05)" fill="#91b3fa"/>
        </g>
        <g id="Grupo_56439" data-name="Grupo 56439" transform="translate(371.057 49.392)">
          <path id="Trazado_105188" data-name="Trazado 105188" d="M67.49,114.974c.281,1.394,1.56,5.925-6.881,7.6-8.037,1.591-18.737,2.816-18.737,2.816s8.4-6.742,15.181-11.338C64.176,109.223,66.97,113.618,67.49,114.974Z" transform="translate(13.015 -104.373)" fill="#02cddb"/>
          <path id="Trazado_105189" data-name="Trazado 105189" d="M125.541,122.764l-9.681,6.145a57.624,57.624,0,0,1-9.2,4.741L52.414,155.693,99.138,127.65a57.642,57.642,0,0,1,17.01-6.814l7.36-1.657A9.639,9.639,0,0,0,125.541,122.764Z" transform="translate(-52.414 -106.412)" fill="#0c0236"/>
          <path id="Trazado_105190" data-name="Trazado 105190" d="M40.7,129.254s13.581,8.317,24.11,5.373-6.23-13.139-6.23-13.139Z" transform="translate(13.299 -107.054)" fill="#57dbd8"/>
          <path id="Trazado_105191" data-name="Trazado 105191" d="M52.747,123.759s3.271-15.586,12.639-21.223,5.28,13.549,5.28,13.549Z" transform="translate(1.333 -101.5)" fill="#57dbd8"/>
        </g>
        <g id="Grupo_56444" data-name="Grupo 56444" transform="translate(130.854 40.331)">
          <path id="Trazado_105193" data-name="Trazado 105193" d="M385.017,249s-8.774,31.647-13.089,36.826-18.414,12.8-18.414,12.8l3.74,6.617s25.621-13.056,30.065-23.735a80.7,80.7,0,0,0,5.179-16.4c.707-3.917,3.6-13.661,2.158-17.55C393.715,245.029,387.032,243.678,385.017,249Z" transform="translate(-263.195 -196)" fill="#00bad0"/>
          <path id="Trazado_105194" data-name="Trazado 105194" d="M385.017,249s-8.774,31.647-13.089,36.826-18.414,12.8-18.414,12.8l3.74,6.617s25.621-13.056,30.065-23.735a80.7,80.7,0,0,0,5.179-16.4c.707-3.917,3.6-13.661,2.158-17.55C393.715,245.029,387.032,243.678,385.017,249Z" transform="translate(-263.195 -196)" fill="#00a2cb" opacity="0.65" style="mix-blend-mode: multiply;isolation: isolate"/>
          <path id="Trazado_105195" data-name="Trazado 105195" d="M440.356,332.078l-6.467-6.041s-25.862-1.9-27.371.368,24.522,14.549,27.864,14.325S439.916,334.57,440.356,332.078Z" transform="translate(-406.455 -128.015)" fill="#0c0236"/>
          <path id="Trazado_105196" data-name="Trazado 105196" d="M434.219,283.308s-24.455-6.224-26.469-2.2-27.4,83.644-27.4,83.644l6.467,6.041s27.225-67.2,35.109-74.222S437.862,286.079,434.219,283.308Z" transform="translate(-352.913 -166.734)" fill="#ff876b"/>
          <path id="Trazado_105197" data-name="Trazado 105197" d="M434.219,283.308s-24.455-6.224-26.469-2.2-27.4,83.644-27.4,83.644l6.467,6.041s27.225-67.2,35.109-74.222S437.862,286.079,434.219,283.308Z" transform="translate(-352.913 -166.734)" fill="#eb945c"/>
          <g id="Grupo_56440" data-name="Grupo 56440" transform="translate(76.036 98.603)">
            <path id="Trazado_105198" data-name="Trazado 105198" d="M390.242,275.27a21.778,21.778,0,0,1-5.083-2.041,6.773,6.773,0,0,0-4.317-1.221c-1.162.167-10.56,4.078-8.058,5.827.812.568,2.838-.425,3.649-.716,1.153-.413,2.317-.977,3.421-1.469-1.01-.052-6.091,2.1-5.558,3.292.936,2.087,6.084-.7,7.281-1.375-.916.143-4.1,1.338-4.093,2.5.005,1.824,3.787.3,4.607-.117a5.572,5.572,0,0,1,1.724-.84,6.887,6.887,0,0,1,2.3.407,13.449,13.449,0,0,0,4.006.078c.785-.072,2.607.094,3-.577a2.9,2.9,0,0,0-.507-2.853A5.71,5.71,0,0,0,390.242,275.27Z" transform="translate(-372.363 -271.962)" fill="#ff876b"/>
            <path id="Trazado_105199" data-name="Trazado 105199" d="M390.242,275.27a21.778,21.778,0,0,1-5.083-2.041,6.773,6.773,0,0,0-4.317-1.221c-1.162.167-10.56,4.078-8.058,5.827.812.568,2.838-.425,3.649-.716,1.153-.413,2.317-.977,3.421-1.469-1.01-.052-6.091,2.1-5.558,3.292.936,2.087,6.084-.7,7.281-1.375-.916.143-4.1,1.338-4.093,2.5.005,1.824,3.787.3,4.607-.117a5.572,5.572,0,0,1,1.724-.84,6.887,6.887,0,0,1,2.3.407,13.449,13.449,0,0,0,4.006.078c.785-.072,2.607.094,3-.577a2.9,2.9,0,0,0-.507-2.853A5.71,5.71,0,0,0,390.242,275.27Z" transform="translate(-372.363 -271.962)" fill="#eb945c"/>
          </g>
          <g id="Grupo_56441" data-name="Grupo 56441" transform="translate(45.799 59.646)">
            <path id="Trazado_105200" data-name="Trazado 105200" d="M391.954,250.908l-5.752,2.361,19.758,47.677,5.817-3.142Z" transform="translate(-386.203 -250.908)" fill="#0c0236"/>
            <rect id="Rectángulo_5930" data-name="Rectángulo 5930" width="37.618" height="5.843" transform="translate(23.469 46.064)" fill="#0c0236"/>
          </g>
          <path id="Trazado_105201" data-name="Trazado 105201" d="M379.791,297.2c-5.033-2.877-5.873-6.054-3.086-16.58s-4.507-21.445-11.522-24.333c-5.153-2.122-9.679-3.058-12.813-8.552s2.8-17.208-7.122-25.886c-7.231-6.321-17.609-1.271-17.609-1.271-2.231-1.236-3.153,11.783-3.314,21.574,12.567,19.241,8.987,44.377,4.407,65.913a9.93,9.93,0,0,1-.461,1.445c.988,16.669,1.78,30.471,1.78,30.471s30.215,17.108,50.768,2.461S389.872,302.971,379.791,297.2Z" transform="translate(-206.376 -218.672)" fill="#0c0236"/>
          <path id="Trazado_105202" data-name="Trazado 105202" d="M391.062,326.825l-7.671,4.411s-9.4,24.167-7.673,26.276,21.1-19.18,21.865-22.44S393.316,327.976,391.062,326.825Z" transform="translate(-306.496 -126.71)" fill="#0c0236"/>
          <path id="Trazado_105203" data-name="Trazado 105203" d="M416.945,280.934s-49.293,3.453-53.9,7.864,37.246,81.054,37.246,81.054l6.868-3.949S396.8,329.46,394.119,321.02s-7.864-18.6-6.905-19.948,50.637,6.137,50.252-7.864S416.945,280.934,416.945,280.934Z" transform="translate(-322.596 -165.788)" fill="#ffb280"/>
          <path id="Trazado_105204" data-name="Trazado 105204" d="M350.23,239.672s5.179,14.1,2.013,24.6l17.263-4.171s-7.062-23.593-10.084-27.619S350.23,239.672,350.23,239.672Z" transform="translate(-231.572 -207.673)" fill="#ffb280"/>
          <path id="Trazado_105205" data-name="Trazado 105205" d="M359.868,247.938c5.653,0,6.136,8.569,6.406,12.943l3.232-.781s-7.062-23.593-10.084-27.619-9.192,7.192-9.192,7.192a58.163,58.163,0,0,1,2.9,13.685C354.332,252.728,358.192,247.938,359.868,247.938Z" transform="translate(-231.572 -207.673)" fill="#eb945c"/>
          <path id="Trazado_105206" data-name="Trazado 105206" d="M362.8,226.249s-6.707,3.2-8.308,5.906-.2,6.441-.335,8.911-.814,6.139-.44,6.741,2.844,0,3.243.533,3.6,2.537,4.605,4.805,2.335,2.47,4.672,1.334,11.278-12.946,11.378-18.484S369.44,223.98,362.8,226.249Z" transform="translate(-245.927 -212.624)" fill="#ffb280"/>
          <g id="Grupo_56443" data-name="Grupo 56443" transform="translate(111.951 22.912)">
            <g id="Grupo_56442" data-name="Grupo 56442">
              <path id="Trazado_105207" data-name="Trazado 105207" d="M363.511,233.951c.165.612.02,1.216-.339,1.317s-.816-.309-.982-.92-.022-1.214.339-1.317C362.877,232.9,363.308,233.324,363.511,233.951Z" transform="translate(-359.601 -229.393)" fill="#231f20"/>
              <path id="Trazado_105208" data-name="Trazado 105208" d="M361.091,232.362s5.188-2.165,6.289-.923a26.988,26.988,0,0,0-5.283,1.989C360.388,234.427,360.314,232.743,361.091,232.362Z" transform="translate(-360.617 -231.054)" fill="#0c0236"/>
              <path id="Trazado_105209" data-name="Trazado 105209" d="M361.526,239.417l4.106-1.558a6.785,6.785,0,0,1-2.346,3.5A4.959,4.959,0,0,0,361.526,239.417Z" transform="translate(-360.55 -225.268)" fill="#fff"/>
            </g>
          </g>
          <path id="Trazado_105210" data-name="Trazado 105210" d="M353.21,221.972s-3.129,6.259-3.453,8.741,2.05,9.819,3.453,10.791.215-8.2,3.776-5.4-.216,8.093,0,9.172,1.834,4.533,5.5,4.857,9.712-17.913,5.719-22.444S357.417,221.972,353.21,221.972Z" transform="translate(-230.657 -215.865)" fill="#0c0236"/>
          <path id="Trazado_105211" data-name="Trazado 105211" d="M381,220.825a9.9,9.9,0,0,0-12.049.538c-6.15,4.964-5.934,12.41-11.007,11.762,0,0,3.345,8.632,10.684,6.581S383.55,226,381,220.825Z" transform="translate(-257.833 -218.385)" fill="#0c0236"/>
          <path id="Trazado_105212" data-name="Trazado 105212" d="M429.915,273.505l-22.864-1.724s-11.9,13.285-23.65,13.285H343.219s2.172,18.338,11.846,31.6c0,0,38.172,1.2,56.776-.333S448.134,294.288,429.915,273.505Z" transform="translate(-286.657 -173.514)" fill="#ff4464"/>
          <path id="Trazado_105213" data-name="Trazado 105213" d="M394.376,276.19c-.653-.892-1.349-1.787-2.134-2.685l-22.864-1.724S357.8,284.688,346.2,285.035C360.2,286.454,386.965,289.551,394.376,276.19Z" transform="translate(-248.985 -173.514)" fill="#ff2349"/>
          <path id="Trazado_105214" data-name="Trazado 105214" d="M387.16,281.647c5.825-.57,11.481-1.961,17.215-2.686H379.169C381.658,280.241,382.884,282.066,387.16,281.647Z" transform="translate(-319.987 -167.408)" fill="#ff2349"/>
          <path id="Trazado_105215" data-name="Trazado 105215" d="M371.358,242.7s-10.5,4.128-14.055,4.511c0,0-7.392,16.3-10.269,20.714s7.292,21.289,7.866,28.58c0,0,6.113,5.834,24.633,2.246C379.532,298.753,384.365,252.96,371.358,242.7Z" transform="translate(-235.617 -198.239)" fill="#00bad0"/>
          <path id="Trazado_105216" data-name="Trazado 105216" d="M364.773,248.226c-3.214-1.473-8.8.033-10.362,3.253-1.933,3.986.054,11.063-.181,15.372-.246,4.531-.529,10.558-1.676,14.972a31.144,31.144,0,0,1-6.032,11.181c2.372,1.436,9.251,4.315,23.617,1.532,0,0,2.948-27.923-1.956-45.045C366.848,249.037,365.612,248.61,364.773,248.226Z" transform="translate(-226.223 -194.023)" fill="#00a2cb" opacity="0.65" style="mix-blend-mode: multiply;isolation: isolate"/>
          <path id="Trazado_105217" data-name="Trazado 105217" d="M388.3,275.27a21.844,21.844,0,0,1-5.083-2.041,6.767,6.767,0,0,0-4.315-1.221c-1.164.167-10.56,4.078-8.058,5.827.812.568,2.838-.425,3.649-.716,1.153-.413,2.315-.977,3.421-1.469-1.01-.052-6.093,2.1-5.56,3.292.938,2.087,6.084-.7,7.281-1.375-.914.143-4.1,1.338-4.093,2.5.007,1.824,3.787.3,4.609-.117a5.557,5.557,0,0,1,1.724-.84,6.9,6.9,0,0,1,2.3.407,13.448,13.448,0,0,0,4.006.078c.784-.072,2.607.094,3-.577a2.9,2.9,0,0,0-.507-2.853A5.719,5.719,0,0,0,388.3,275.27Z" transform="translate(-290.786 -173.359)" fill="#ffb280"/>
          <path id="Trazado_105218" data-name="Trazado 105218" d="M344.358,297.82l2.013,7.568s49.486-5.754,50.637-14.529-2.015-49.625-13.953-45.382-.144,33.873-2.015,36.175S344.358,297.82,344.358,297.82Z" transform="translate(-248.429 -196.141)" fill="#00bad0"/>
        </g>
      </g>
    </g>
  </g>
</svg>
