<svg xmlns="http://www.w3.org/2000/svg" width="365" height="227" viewBox="0 0 365 227">
  <g id="Grupo_56959" data-name="Grupo 56959" transform="translate(0 -0.418)">
    <g id="Grupo_55715" data-name="Grupo 55715" transform="translate(0 0)">
      <rect id="Rectángulo_5163" data-name="Rectángulo 5163" width="365" height="227" transform="translate(0 0.418)" fill="none"/>
    </g>
    <g id="Grupo_56957" data-name="Grupo 56957" transform="translate(32 5)">
      <g id="Grupo_56922" data-name="Grupo 56922" transform="translate(0 3.696)">
        <g id="Grupo_56931" data-name="Grupo 56931" transform="translate(81.631 155.125)">
          <g id="Grupo_56929" data-name="Grupo 56929" transform="translate(6.604)">
            <circle id="Elipse_4277" data-name="Elipse 4277" cx="1.699" cy="1.699" r="1.699" transform="translate(0 5.905)" fill="#00dad7"/>
            <circle id="Elipse_4278" data-name="Elipse 4278" cx="1.699" cy="1.699" r="1.699" transform="translate(7.341 5.062)" fill="#00dad7"/>
            <circle id="Elipse_4279" data-name="Elipse 4279" cx="1.699" cy="1.699" r="1.699" transform="translate(14.682 4.219)" fill="#00dad7"/>
            <circle id="Elipse_4280" data-name="Elipse 4280" cx="1.699" cy="1.699" r="1.699" transform="translate(22.023 3.374)" fill="#00dad7"/>
            <circle id="Elipse_4281" data-name="Elipse 4281" cx="1.699" cy="1.699" r="1.699" transform="translate(29.364 2.531)" fill="#00dad7"/>
            <circle id="Elipse_4282" data-name="Elipse 4282" cx="1.699" cy="1.699" r="1.699" transform="translate(44.046 0.843)" fill="#00dad7"/>
            <circle id="Elipse_4283" data-name="Elipse 4283" cx="1.699" cy="1.699" r="1.699" transform="translate(51.387)" fill="#00dad7"/>
          </g>
          <g id="Grupo_56930" data-name="Grupo 56930" transform="translate(0 7.258)">
            <circle id="Elipse_4284" data-name="Elipse 4284" cx="1.699" cy="1.699" r="1.699" transform="translate(0 5.905)" fill="#00dad7"/>
            <circle id="Elipse_4285" data-name="Elipse 4285" cx="1.699" cy="1.699" r="1.699" transform="translate(7.341 5.062)" fill="#00dad7"/>
            <circle id="Elipse_4286" data-name="Elipse 4286" cx="1.699" cy="1.699" r="1.699" transform="translate(14.682 4.219)" fill="#00dad7"/>
            <circle id="Elipse_4287" data-name="Elipse 4287" cx="1.699" cy="1.699" r="1.699" transform="translate(29.364 2.531)" fill="#00dad7"/>
            <circle id="Elipse_4288" data-name="Elipse 4288" cx="1.699" cy="1.699" r="1.699" transform="translate(22.242 3.332)" fill="#00dad7"/>
            <circle id="Elipse_4289" data-name="Elipse 4289" cx="1.699" cy="1.699" r="1.699" transform="translate(36.704 1.688)" fill="#00dad7"/>
            <circle id="Elipse_4290" data-name="Elipse 4290" cx="1.699" cy="1.699" r="1.699" transform="translate(44.046 0.843)" fill="#00dad7"/>
            <circle id="Elipse_4291" data-name="Elipse 4291" cx="1.699" cy="1.699" r="1.699" transform="translate(51.387)" fill="#00dad7"/>
          </g>
        </g>
        <g id="Grupo_56934" data-name="Grupo 56934" transform="translate(238.932 12.021)">
          <g id="Grupo_56932" data-name="Grupo 56932" transform="translate(6.497)">
            <circle id="Elipse_4292" data-name="Elipse 4292" cx="1.734" cy="1.734" r="1.734" transform="translate(0 7.719)" fill="#00dad7"/>
            <circle id="Elipse_4293" data-name="Elipse 4293" cx="1.734" cy="1.734" r="1.734" transform="translate(7.46 6.616)" fill="#00dad7"/>
            <circle id="Elipse_4294" data-name="Elipse 4294" cx="1.734" cy="1.734" r="1.734" transform="translate(14.921 5.514)" fill="#00dad7"/>
            <circle id="Elipse_4295" data-name="Elipse 4295" cx="1.734" cy="1.734" r="1.734" transform="translate(22.381 4.411)" fill="#00dad7"/>
            <circle id="Elipse_4296" data-name="Elipse 4296" cx="1.734" cy="1.734" r="1.734" transform="translate(29.842 3.309)" fill="#00dad7"/>
            <circle id="Elipse_4297" data-name="Elipse 4297" cx="1.734" cy="1.734" r="1.734" transform="translate(37.303 2.205)" fill="#00dad7"/>
            <circle id="Elipse_4298" data-name="Elipse 4298" cx="1.734" cy="1.734" r="1.734" transform="translate(44.763 1.103)" fill="#00dad7"/>
            <circle id="Elipse_4299" data-name="Elipse 4299" cx="1.734" cy="1.734" r="1.734" transform="translate(52.224)" fill="#00dad7"/>
          </g>
          <g id="Grupo_56933" data-name="Grupo 56933" transform="translate(0 7.621)">
            <circle id="Elipse_4300" data-name="Elipse 4300" cx="1.734" cy="1.734" r="1.734" transform="translate(0 7.719)" fill="#00dad7"/>
            <circle id="Elipse_4301" data-name="Elipse 4301" cx="1.734" cy="1.734" r="1.734" transform="translate(7.46 6.616)" fill="#00dad7"/>
            <circle id="Elipse_4302" data-name="Elipse 4302" cx="1.734" cy="1.734" r="1.734" transform="translate(14.921 5.514)" fill="#00dad7"/>
            <circle id="Elipse_4303" data-name="Elipse 4303" cx="1.734" cy="1.734" r="1.734" transform="translate(22.381 4.411)" fill="#00dad7"/>
            <circle id="Elipse_4304" data-name="Elipse 4304" cx="1.734" cy="1.734" r="1.734" transform="translate(29.842 3.309)" fill="#00dad7"/>
            <circle id="Elipse_4305" data-name="Elipse 4305" cx="1.734" cy="1.734" r="1.734" transform="translate(37.303 2.205)" fill="#00dad7"/>
            <circle id="Elipse_4306" data-name="Elipse 4306" cx="1.734" cy="1.734" r="1.734" transform="translate(44.763 1.103)" fill="#00dad7"/>
            <circle id="Elipse_4307" data-name="Elipse 4307" cx="1.734" cy="1.734" r="1.734" transform="translate(52.224)" fill="#00dad7"/>
          </g>
        </g>
        <g id="Grupo_56935" data-name="Grupo 56935" transform="translate(103.81 12.003)">
          <path id="Trazado_120448" data-name="Trazado 120448" d="M1534.1,67.734l7.215,5.541-5.379,7.01Z" transform="translate(-1506.552 -67.734)" fill="#00dad7"/>
          <path id="Trazado_120449" data-name="Trazado 120449" d="M1496.53,71.671l7.216,5.541-5.379,7.01Z" transform="translate(-1482.76 -70.227)" fill="#00dad7"/>
          <path id="Trazado_120450" data-name="Trazado 120450" d="M1458.974,77.72l7.215,5.541-5.38,7.01Z" transform="translate(-1458.974 -74.058)" fill="#00dad7"/>
        </g>
        <g id="Grupo_56936" data-name="Grupo 56936" transform="translate(42.144 180.885)">
          <path id="Trazado_120451" data-name="Trazado 120451" d="M1372.274,528.325l9.61,7.778-7.557,9.336Z" transform="translate(-1342.397 -528.325)" fill="#181492"/>
          <path id="Trazado_120452" data-name="Trazado 120452" d="M1331.534,532.625l9.61,7.778-7.557,9.336Z" transform="translate(-1316.595 -531.048)" fill="#181492"/>
          <path id="Trazado_120453" data-name="Trazado 120453" d="M1290.791,536.931l9.61,7.778-7.557,9.336Z" transform="translate(-1290.791 -533.776)" fill="#181492"/>
        </g>
        <g id="Grupo_56943" data-name="Grupo 56943" transform="translate(0 8.481)">
          <circle id="Elipse_4308" data-name="Elipse 4308" cx="2.492" cy="2.492" r="2.492" transform="translate(229.673 167.435)" fill="#00dad7" stroke="#581d80" stroke-linecap="round" stroke-miterlimit="10" stroke-width="2"/>
          <circle id="Elipse_4309" data-name="Elipse 4309" cx="2.492" cy="2.492" r="2.492" transform="translate(229.051 10.215)" fill="#00dad7" stroke="#581d80" stroke-linecap="round" stroke-miterlimit="10" stroke-width="2"/>
          <circle id="Elipse_4310" data-name="Elipse 4310" cx="2.492" cy="2.492" r="2.492" transform="translate(9.88 122.253)" fill="#00dad7" stroke="#581d80" stroke-linecap="round" stroke-miterlimit="10" stroke-width="2"/>
          <g id="Grupo_56938" data-name="Grupo 56938" transform="translate(1.239 12.707)">
            <line id="Línea_580" data-name="Línea 580" y2="4.84" transform="translate(8.679)" fill="none" stroke="#00dad7" stroke-linecap="round" stroke-miterlimit="10" stroke-width="2"/>
            <line id="Línea_581" data-name="Línea 581" x1="3.422" y2="3.423" transform="translate(11.356 2.558)" fill="none" stroke="#00dad7" stroke-linecap="round" stroke-miterlimit="10" stroke-width="2"/>
            <line id="Línea_582" data-name="Línea 582" x1="4.84" transform="translate(12.442 8.68)" fill="none" stroke="#00dad7" stroke-linecap="round" stroke-miterlimit="10" stroke-width="2"/>
            <line id="Línea_583" data-name="Línea 583" x1="3.423" y1="3.422" transform="translate(11.302 11.356)" fill="none" stroke="#00dad7" stroke-linecap="round" stroke-miterlimit="10" stroke-width="2"/>
            <line id="Línea_584" data-name="Línea 584" y1="4.84" transform="translate(8.602 12.443)" fill="none" stroke="#00dad7" stroke-linecap="round" stroke-miterlimit="10" stroke-width="2"/>
            <line id="Línea_585" data-name="Línea 585" y1="3.422" x2="3.422" transform="translate(2.504 11.302)" fill="none" stroke="#00dad7" stroke-linecap="round" stroke-miterlimit="10" stroke-width="2"/>
            <line id="Línea_586" data-name="Línea 586" x2="4.84" transform="translate(0 8.602)" fill="none" stroke="#00dad7" stroke-linecap="round" stroke-miterlimit="10" stroke-width="2"/>
            <line id="Línea_587" data-name="Línea 587" x2="3.422" y2="3.422" transform="translate(2.558 2.504)" fill="none" stroke="#00dad7" stroke-linecap="round" stroke-miterlimit="10" stroke-width="2"/>
          </g>
          <g id="Grupo_56939" data-name="Grupo 56939" transform="translate(164.612)">
            <line id="Línea_588" data-name="Línea 588" y2="2.768" transform="translate(4.962)" fill="none" stroke="#83b5f9" stroke-linecap="round" stroke-miterlimit="10" stroke-width="2"/>
            <line id="Línea_589" data-name="Línea 589" x1="1.956" y2="1.957" transform="translate(6.492 1.462)" fill="none" stroke="#83b5f9" stroke-linecap="round" stroke-miterlimit="10" stroke-width="2"/>
            <line id="Línea_590" data-name="Línea 590" x1="2.768" transform="translate(7.113 4.962)" fill="none" stroke="#83b5f9" stroke-linecap="round" stroke-miterlimit="10" stroke-width="2"/>
            <line id="Línea_591" data-name="Línea 591" x1="1.957" y1="1.956" transform="translate(6.461 6.492)" fill="none" stroke="#83b5f9" stroke-linecap="round" stroke-miterlimit="10" stroke-width="2"/>
            <line id="Línea_592" data-name="Línea 592" y1="2.767" transform="translate(4.918 7.113)" fill="none" stroke="#83b5f9" stroke-linecap="round" stroke-miterlimit="10" stroke-width="2"/>
            <line id="Línea_593" data-name="Línea 593" y1="1.956" x2="1.956" transform="translate(1.431 6.461)" fill="none" stroke="#83b5f9" stroke-linecap="round" stroke-miterlimit="10" stroke-width="2"/>
            <line id="Línea_594" data-name="Línea 594" x2="2.767" transform="translate(0 4.918)" fill="none" stroke="#83b5f9" stroke-linecap="round" stroke-miterlimit="10" stroke-width="2"/>
            <line id="Línea_595" data-name="Línea 595" x2="1.956" y2="1.956" transform="translate(1.462 1.431)" fill="none" stroke="#83b5f9" stroke-linecap="round" stroke-miterlimit="10" stroke-width="2"/>
          </g>
          <g id="Grupo_56940" data-name="Grupo 56940" transform="translate(279.453 184.115)">
            <line id="Línea_596" data-name="Línea 596" y2="2.768" transform="translate(4.962)" fill="none" stroke="#00dad7" stroke-linecap="round" stroke-miterlimit="10" stroke-width="2"/>
            <line id="Línea_597" data-name="Línea 597" x1="1.956" y2="1.957" transform="translate(6.492 1.462)" fill="none" stroke="#00dad7" stroke-linecap="round" stroke-miterlimit="10" stroke-width="2"/>
            <line id="Línea_598" data-name="Línea 598" x1="2.768" transform="translate(7.113 4.962)" fill="none" stroke="#00dad7" stroke-linecap="round" stroke-miterlimit="10" stroke-width="2"/>
            <line id="Línea_599" data-name="Línea 599" x1="1.957" y1="1.956" transform="translate(6.461 6.492)" fill="none" stroke="#00dad7" stroke-linecap="round" stroke-miterlimit="10" stroke-width="2"/>
            <line id="Línea_600" data-name="Línea 600" y1="2.767" transform="translate(4.918 7.113)" fill="none" stroke="#00dad7" stroke-linecap="round" stroke-miterlimit="10" stroke-width="2"/>
            <line id="Línea_601" data-name="Línea 601" y1="1.956" x2="1.956" transform="translate(1.431 6.461)" fill="none" stroke="#00dad7" stroke-linecap="round" stroke-miterlimit="10" stroke-width="2"/>
            <line id="Línea_602" data-name="Línea 602" x2="2.767" transform="translate(0 4.918)" fill="none" stroke="#00dad7" stroke-linecap="round" stroke-miterlimit="10" stroke-width="2"/>
            <line id="Línea_603" data-name="Línea 603" x2="1.956" y2="1.956" transform="translate(1.462 1.431)" fill="none" stroke="#00dad7" stroke-linecap="round" stroke-miterlimit="10" stroke-width="2"/>
          </g>
          <g id="Grupo_56941" data-name="Grupo 56941" transform="translate(0 160.048)">
            <line id="Línea_604" data-name="Línea 604" y2="2.768" transform="translate(4.962)" fill="none" stroke="#00dad7" stroke-linecap="round" stroke-miterlimit="10" stroke-width="2"/>
            <line id="Línea_605" data-name="Línea 605" x1="1.956" y2="1.957" transform="translate(6.492 1.462)" fill="none" stroke="#00dad7" stroke-linecap="round" stroke-miterlimit="10" stroke-width="2"/>
            <line id="Línea_606" data-name="Línea 606" x1="2.768" transform="translate(7.113 4.962)" fill="none" stroke="#00dad7" stroke-linecap="round" stroke-miterlimit="10" stroke-width="2"/>
            <line id="Línea_607" data-name="Línea 607" x1="1.957" y1="1.956" transform="translate(6.461 6.492)" fill="none" stroke="#00dad7" stroke-linecap="round" stroke-miterlimit="10" stroke-width="2"/>
            <line id="Línea_608" data-name="Línea 608" y1="2.767" transform="translate(4.918 7.113)" fill="none" stroke="#00dad7" stroke-linecap="round" stroke-miterlimit="10" stroke-width="2"/>
            <line id="Línea_609" data-name="Línea 609" y1="1.956" x2="1.956" transform="translate(1.431 6.461)" fill="none" stroke="#00dad7" stroke-linecap="round" stroke-miterlimit="10" stroke-width="2"/>
            <line id="Línea_610" data-name="Línea 610" x2="2.767" transform="translate(0 4.918)" fill="none" stroke="#00dad7" stroke-linecap="round" stroke-miterlimit="10" stroke-width="2"/>
            <line id="Línea_611" data-name="Línea 611" x2="1.956" y2="1.956" transform="translate(1.462 1.431)" fill="none" stroke="#00dad7" stroke-linecap="round" stroke-miterlimit="10" stroke-width="2"/>
          </g>
          <g id="Grupo_56942" data-name="Grupo 56942" transform="translate(289.333 122.299)">
            <line id="Línea_612" data-name="Línea 612" y2="2.768" transform="translate(4.962)" fill="none" stroke="#00dad7" stroke-linecap="round" stroke-miterlimit="10" stroke-width="2"/>
            <line id="Línea_613" data-name="Línea 613" x1="1.956" y2="1.957" transform="translate(6.492 1.462)" fill="none" stroke="#00dad7" stroke-linecap="round" stroke-miterlimit="10" stroke-width="2"/>
            <line id="Línea_614" data-name="Línea 614" x1="2.768" transform="translate(7.113 4.962)" fill="none" stroke="#00dad7" stroke-linecap="round" stroke-miterlimit="10" stroke-width="2"/>
            <line id="Línea_615" data-name="Línea 615" x1="1.957" y1="1.956" transform="translate(6.461 6.492)" fill="none" stroke="#00dad7" stroke-linecap="round" stroke-miterlimit="10" stroke-width="2"/>
            <line id="Línea_616" data-name="Línea 616" y1="2.767" transform="translate(4.918 7.113)" fill="none" stroke="#00dad7" stroke-linecap="round" stroke-miterlimit="10" stroke-width="2"/>
            <line id="Línea_617" data-name="Línea 617" y1="1.956" x2="1.956" transform="translate(1.431 6.461)" fill="none" stroke="#00dad7" stroke-linecap="round" stroke-miterlimit="10" stroke-width="2"/>
            <line id="Línea_618" data-name="Línea 618" x2="2.767" transform="translate(0 4.918)" fill="none" stroke="#00dad7" stroke-linecap="round" stroke-miterlimit="10" stroke-width="2"/>
            <line id="Línea_619" data-name="Línea 619" x2="1.956" y2="1.956" transform="translate(1.462 1.431)" fill="none" stroke="#00dad7" stroke-linecap="round" stroke-miterlimit="10" stroke-width="2"/>
          </g>
        </g>
        <g id="Grupo_56944" data-name="Grupo 56944" transform="translate(29.543)">
          <path id="Trazado_120454" data-name="Trazado 120454" d="M1499.345,35" transform="translate(-1410.275 -34.998)" fill="none" stroke="#fff" stroke-linecap="round" stroke-miterlimit="10" stroke-width="1"/>
          <path id="Trazado_120455" data-name="Trazado 120455" d="M1589.546,88.414" transform="translate(-1467.402 -68.828)" fill="none" stroke="#fff" stroke-linecap="round" stroke-miterlimit="10" stroke-width="1"/>
          <path id="Trazado_120456" data-name="Trazado 120456" d="M1408.9,129.205" transform="translate(-1352.994 -94.663)" fill="none" stroke="#fff" stroke-linecap="round" stroke-miterlimit="10" stroke-width="1"/>
          <path id="Trazado_120457" data-name="Trazado 120457" d="M1882.365,142.316" transform="translate(-1652.855 -102.966)" fill="none" stroke="#fff" stroke-linecap="round" stroke-miterlimit="10" stroke-width="1"/>
          <path id="Trazado_120458" data-name="Trazado 120458" d="M1259.825,194.275" transform="translate(-1258.578 -135.874)" fill="none" stroke="#fff" stroke-linecap="round" stroke-miterlimit="10" stroke-width="1"/>
          <path id="Trazado_120459" data-name="Trazado 120459" d="M1894.5,322.476" transform="translate(-1660.542 -217.068)" fill="none" stroke="#fff" stroke-linecap="round" stroke-miterlimit="10" stroke-width="1"/>
          <path id="Trazado_120460" data-name="Trazado 120460" d="M1864.154,515.014" transform="translate(-1641.321 -339.009)" fill="none" stroke="#fff" stroke-linecap="round" stroke-miterlimit="10" stroke-width="1"/>
          <path id="Trazado_120461" data-name="Trazado 120461" d="M1777.474,582.271" transform="translate(-1586.424 -381.606)" fill="none" stroke="#fff" stroke-linecap="round" stroke-miterlimit="10" stroke-width="1"/>
          <path id="Trazado_120462" data-name="Trazado 120462" d="M1410.844,575.96" transform="translate(-1354.224 -377.609)" fill="none" stroke="#fff" stroke-linecap="round" stroke-miterlimit="10" stroke-width="1"/>
          <path id="Trazado_120463" data-name="Trazado 120463" d="M1256.424,523.515" transform="translate(-1256.424 -344.393)" fill="none" stroke="#fff" stroke-linecap="round" stroke-miterlimit="10" stroke-width="1"/>
          <path id="Trazado_120464" data-name="Trazado 120464" d="M1256.91,360.836" transform="translate(-1256.732 -241.363)" fill="none" stroke="#fff" stroke-linecap="round" stroke-miterlimit="10" stroke-width="1"/>
          <path id="Trazado_120465" data-name="Trazado 120465" d="M1728.064,41.068" transform="translate(-1555.131 -38.842)" fill="none" stroke="#fff" stroke-linecap="round" stroke-miterlimit="10" stroke-width="1"/>
          <path id="Trazado_120466" data-name="Trazado 120466" d="M1843.031,444.6" transform="translate(-1627.943 -294.416)" fill="none" stroke="#fff" stroke-linecap="round" stroke-miterlimit="10" stroke-width="1"/>
          <path id="Trazado_120467" data-name="Trazado 120467" d="M1322.951,487.58" transform="translate(-1298.558 -321.634)" fill="none" stroke="#fff" stroke-linecap="round" stroke-miterlimit="10" stroke-width="1"/>
          <path id="Trazado_120468" data-name="Trazado 120468" d="M1568.18,547.794" transform="translate(-1453.87 -359.77)" fill="none" stroke="#fff" stroke-linecap="round" stroke-miterlimit="10" stroke-width="1"/>
          <path id="Trazado_120469" data-name="Trazado 120469" d="M1785.486,113.909" transform="translate(-1591.498 -84.975)" fill="none" stroke="#fff" stroke-linecap="round" stroke-miterlimit="10" stroke-width="0.5"/>
          <path id="Trazado_120470" data-name="Trazado 120470" d="M1885.277,227.539" transform="translate(-1654.699 -156.941)" fill="none" stroke="#fff" stroke-linecap="round" stroke-miterlimit="10" stroke-width="0.5"/>
          <path id="Trazado_120471" data-name="Trazado 120471" d="M1326.35,73.361" transform="translate(-1300.711 -59.295)" fill="none" stroke="#fff" stroke-linecap="round" stroke-miterlimit="10" stroke-width="1"/>
        </g>
      </g>
      <g id="Grupo_56956" data-name="Grupo 56956" transform="translate(76.025)">
        <g id="Grupo_56955" data-name="Grupo 56955" transform="translate(0)">
          <g id="Grupo_56954" data-name="Grupo 56954">
            <g id="Grupo_56953" data-name="Grupo 56953">
              <g id="shield">
                <g id="Grupo_56952" data-name="Grupo 56952">
                  <g id="Grupo_56947" data-name="Grupo 56947" transform="translate(10.611)">
                    <path id="Trazado_120472" data-name="Trazado 120472" d="M1557.013,57.883l-9.97.292c-2.141,0-13.607-.391-30.646-8.119-12.727-5.761-24.882-18.1-24.994-18.221l-6.782-6.918h-10.593c-.149.129-8.452,19.379-21.172,25.139-17.064,7.728-28.537,8.119-30.653,8.119l-.163.007-9.905-.466v76.1c0,56.843,59.147,104.607,61.893,106.447h10.593l5.307-3.572c2.739-1.844,67.168-46.032,67.168-102.875V67.634Z" transform="translate(-1412.135 -24.917)" fill="#c4574c"/>
                  </g>
                  <g id="Grupo_56948" data-name="Grupo 56948">
                    <path id="Trazado_120473" data-name="Trazado 120473" d="M1528.078,57.883l-9.97.292c-2.141,0-13.593-.391-30.642-8.119-12.731-5.761-24.882-18.1-25-18.221l-6.767-6.918-6.782,6.918c-.145.12-12.282,12.461-24.994,18.221-17.057,7.728-28.53,8.119-30.661,8.119l-.156.007-9.912-.466v76.1c0,56.843,64.447,101.031,67.208,102.875l5.3,3.572,5.3-3.572c2.732-1.844,67.175-46.032,67.175-102.875V67.634Z" transform="translate(-1383.195 -24.917)" fill="#fe7062"/>
                  </g>
                  <g id="Grupo_56951" data-name="Grupo 56951" transform="translate(9.477 13.555)">
                    <g id="Grupo_56949" data-name="Grupo 56949">
                      <path id="Trazado_120474" data-name="Trazado 120474" d="M1444.217,82.118c-21.252,9.6-35.175,8.93-35.175,8.93v66.179c0,52.479,63.027,95,63.027,95V61.886S1458.784,75.491,1444.217,82.118Z" transform="translate(-1409.042 -61.886)" fill="#feb4ad"/>
                    </g>
                    <g id="Grupo_56950" data-name="Grupo 56950" transform="translate(63.027)">
                      <path id="Trazado_120475" data-name="Trazado 120475" d="M1608.771,82.118c-14.568-6.626-27.835-20.232-27.835-20.232V252.232s63-42.525,63-95V91.048S1630.008,91.722,1608.771,82.118Z" transform="translate(-1580.936 -61.886)" fill="#feb4ad"/>
                    </g>
                  </g>
                </g>
              </g>
            </g>
          </g>
        </g>
      </g>
      <g id="freepik--character-2--inject-45" transform="translate(90.574 28.83)">
        <path id="Trazado_118600" data-name="Trazado 118600" d="M1545.408,107.512h0c.392-1.381,3.2-4.009,5.994-3.954a2.413,2.413,0,0,1,.783.157l54.235,30.839a5.123,5.123,0,0,1,2.082,2.237,5.186,5.186,0,0,1,.559,2.276V256.412c0,2.986-3.444,5.84-6.682,4.474h0a1.114,1.114,0,0,1-.213-.084l-54.24-30.912a5.2,5.2,0,0,1-2.617-4.507V108.077A1.255,1.255,0,0,1,1545.408,107.512Z" transform="translate(-1500.415 -103.552)" fill="#455a64"/>
        <path id="Trazado_118601" data-name="Trazado 118601" d="M1605.912,180.576a2.583,2.583,0,0,0-1.308-2.237l-50.389-28.669a1.3,1.3,0,0,0-1.94,1.118V245.4a2.612,2.612,0,0,0,1.309,2.237l50.366,28.722a1.3,1.3,0,0,0,1.94-1.118Z" transform="translate(-1504.828 -132.649)" fill="#91b3fa"/>
        <path id="Trazado_118602" data-name="Trazado 118602" d="M1605.912,180.576a2.583,2.583,0,0,0-1.308-2.237l-50.389-28.669a1.3,1.3,0,0,0-1.94,1.118V245.4a2.612,2.612,0,0,0,1.309,2.237l50.366,28.722a1.3,1.3,0,0,0,1.94-1.118Z" transform="translate(-1504.828 -132.649)" opacity="0.2" style="isolation: isolate"/>
        <path id="Trazado_118603" data-name="Trazado 118603" d="M1605.912,180.576a2.583,2.583,0,0,0-1.308-2.237l-50.389-28.669a1.3,1.3,0,0,0-1.94,1.118V245.4a2.612,2.612,0,0,0,1.309,2.237l50.366,28.722a1.3,1.3,0,0,0,1.94-1.118Z" transform="translate(-1504.828 -132.649)" fill="#91b3fa" opacity="0.1" style="isolation: isolate"/>
        <path id="Trazado_118604" data-name="Trazado 118604" d="M1707.592,196.482V313.816c0,2.986-3.445,5.84-6.682,4.474h0a1.285,1.285,0,0,0,1.728-1.207V199.725a5.173,5.173,0,0,0-.915-2.863l5.329-2.667A5.183,5.183,0,0,1,1707.592,196.482Z" transform="translate(-1598.964 -160.956)" opacity="0.3" style="isolation: isolate"/>
        <path id="Trazado_118605" data-name="Trazado 118605" d="M1551.522,103.544a2.408,2.408,0,0,1,.784.156l54.24,30.844a5.118,5.118,0,0,1,2.083,2.237l-5.329,2.667a5.167,5.167,0,0,0-1.752-1.679l-54.24-30.855a1.288,1.288,0,0,0-1.757.474c-.016.028-.03.056-.044.085h0A7.29,7.29,0,0,1,1551.522,103.544Z" transform="translate(-1500.541 -103.544)" fill="#fff" opacity="0.1" style="isolation: isolate"/>
        <path id="Trazado_118606" data-name="Trazado 118606" d="M1605.954,165.483c-.385-.219-.7-.044-.7.391a1.551,1.551,0,0,0,.693,1.2l10.625,6.151c.379.223.688.04.688-.4a1.517,1.517,0,0,0-.682-1.185Z" transform="translate(-1538.383 -142.712)" fill="#263238"/>
        <path id="Trazado_118607" data-name="Trazado 118607" d="M1642.469,186.544c-.38-.219-.688-.045-.688.4a1.534,1.534,0,0,0,.688,1.2c.38.219.693.039.693-.4A1.51,1.51,0,0,0,1642.469,186.544Z" transform="translate(-1561.516 -156.051)" fill="#263238"/>
        <path id="Trazado_118608" data-name="Trazado 118608" d="M1622.673,162.892c-.76-.441-1.377-.089-1.377.782a3.032,3.032,0,0,0,1.37,2.388c.761.438,1.392.084,1.392-.793A3.042,3.042,0,0,0,1622.673,162.892Z" transform="translate(-1548.542 -141.01)" fill="#263238"/>
        <path id="Trazado_118609" data-name="Trazado 118609" d="M1620.222,463.8c-1.554-.894-2.8-.179-2.8,1.6a6.2,6.2,0,0,0,2.8,4.871c1.549.9,2.835.162,2.841-1.621A6.2,6.2,0,0,0,1620.222,463.8Z" transform="translate(-1546.091 -331.463)" fill="#263238"/>
        <path id="Trazado_118610" data-name="Trazado 118610" d="M1521.091,145.912l-18.319,15.2,6.677,3.858,18.312-15.2Z" transform="translate(-1473.476 -130.377)" fill="#91b3fa"/>
        <path id="Trazado_118611" data-name="Trazado 118611" d="M1557.5,166.96l-18.313,15.2,6.677,3.854,18.308-15.2Z" transform="translate(-1496.542 -143.707)" fill="#91b3fa"/>
        <path id="Trazado_118612" data-name="Trazado 118612" d="M1575.708,177.48l-18.308,15.2,6.677,3.858,18.308-15.2Z" transform="translate(-1508.074 -150.37)" fill="#fff"/>
        <path id="Trazado_118613" data-name="Trazado 118613" d="M1539.292,156.434l-18.313,15.2,6.677,3.853,18.314-15.2Z" transform="translate(-1485.007 -137.041)" fill="#fff"/>
        <path id="Trazado_118614" data-name="Trazado 118614" d="M1630.33,209.033l-18.3,15.2,6.677,3.858,18.3-15.2Z" transform="translate(-1542.672 -170.354)" fill="#91b3fa"/>
        <path id="Trazado_118615" data-name="Trazado 118615" d="M1593.917,188l-18.308,15.2,6.677,3.853,18.307-15.2Z" transform="translate(-1519.607 -157.035)" fill="#91b3fa"/>
        <path id="Trazado_118616" data-name="Trazado 118616" d="M1655.339,223.482l-6.8-3.931-18.3,15.2,6.816,3.937Z" transform="translate(-1554.205 -177.015)" fill="#fff"/>
        <path id="Trazado_118617" data-name="Trazado 118617" d="M1612.128,198.511l-18.307,15.2,6.677,3.858,18.3-15.2Z" transform="translate(-1531.141 -163.69)" fill="#fff"/>
        <path id="Trazado_118618" data-name="Trazado 118618" d="M1502.772,187.377l6.677,3.859h0a2.578,2.578,0,0,1-3.864,2.237h0a5.642,5.642,0,0,1-2.8-4.877Z" transform="translate(-1473.476 -156.638)" fill="#91b3fa"/>
        <path id="Trazado_118619" data-name="Trazado 118619" d="M1520.981,197.9l6.677,3.858h0a2.578,2.578,0,0,1-3.864,2.237h0a5.631,5.631,0,0,1-2.8-4.876Z" transform="translate(-1485.009 -163.304)" fill="#e0e0e0"/>
        <path id="Trazado_118620" data-name="Trazado 118620" d="M1539.191,208.424l6.677,3.85h0a2.578,2.578,0,0,1-3.864,2.237h0a5.633,5.633,0,0,1-2.8-4.877Z" transform="translate(-1496.542 -169.968)" fill="#91b3fa"/>
        <path id="Trazado_118621" data-name="Trazado 118621" d="M1557.4,218.924l6.677,3.858h0a2.572,2.572,0,0,1-3.864,2.237h0a5.625,5.625,0,0,1-2.8-4.871Z" transform="translate(-1508.074 -176.618)" fill="#e0e0e0"/>
        <path id="Trazado_118622" data-name="Trazado 118622" d="M1575.609,229.455l6.677,3.847h0a2.578,2.578,0,0,1-3.864,2.237h0a5.631,5.631,0,0,1-2.8-4.876Z" transform="translate(-1519.607 -183.288)" fill="#91b3fa"/>
        <path id="Trazado_118623" data-name="Trazado 118623" d="M1593.821,239.947l6.677,3.853h0a2.578,2.578,0,0,1-3.864,2.237h0a5.643,5.643,0,0,1-2.8-4.877Z" transform="translate(-1531.141 -189.933)" fill="#e0e0e0"/>
        <path id="Trazado_118624" data-name="Trazado 118624" d="M1612.028,250.485l6.677,3.858h0a2.572,2.572,0,0,1-3.862,2.236h0a5.59,5.59,0,0,1-2.8-4.876Z" transform="translate(-1542.672 -196.607)" fill="#91b3fa"/>
        <path id="Trazado_118625" data-name="Trazado 118625" d="M1502.772,187.377l6.677,3.859h0a2.578,2.578,0,0,1-3.864,2.237h0a5.642,5.642,0,0,1-2.8-4.877Z" transform="translate(-1473.476 -156.638)" opacity="0.2" style="isolation: isolate"/>
        <path id="Trazado_118626" data-name="Trazado 118626" d="M1539.191,208.424l6.677,3.85h0a2.578,2.578,0,0,1-3.864,2.237h0a5.633,5.633,0,0,1-2.8-4.877Z" transform="translate(-1496.542 -169.968)" opacity="0.2" style="isolation: isolate"/>
        <path id="Trazado_118627" data-name="Trazado 118627" d="M1575.609,229.455l6.677,3.847h0a2.578,2.578,0,0,1-3.864,2.237h0a5.631,5.631,0,0,1-2.8-4.876Z" transform="translate(-1519.607 -183.288)" opacity="0.2" style="isolation: isolate"/>
        <path id="Trazado_118628" data-name="Trazado 118628" d="M1612.028,250.485l6.677,3.858h0a2.572,2.572,0,0,1-3.862,2.236h0a5.59,5.59,0,0,1-2.8-4.876Z" transform="translate(-1542.672 -196.607)" opacity="0.2" style="isolation: isolate"/>
        <path id="Trazado_118629" data-name="Trazado 118629" d="M1630.237,261.007l6.816,3.915h0a2.571,2.571,0,0,1-3.858,2.237h0a5.914,5.914,0,0,1-2.958-5.127Z" transform="translate(-1554.205 -203.271)" fill="#e0e0e0"/>
        <path id="Trazado_118630" data-name="Trazado 118630" d="M1609.008,314.676a16.445,16.445,0,0,1,5.67,1.752,18.123,18.123,0,0,1,8.8,10.133,16.473,16.473,0,0,1,.933,5.86,27.765,27.765,0,0,0-1.9-5.469,23.274,23.274,0,0,0-8.36-9.629A28,28,0,0,0,1609.008,314.676Z" transform="translate(-1540.759 -237.261)" fill="#91b3fa"/>
        <path id="Trazado_118631" data-name="Trazado 118631" d="M1623.253,380.232a10.389,10.389,0,0,0,3.192-.559,8.989,8.989,0,0,0,5.268-4.624,10.247,10.247,0,0,0,.967-3.092,7.26,7.26,0,0,1-.431,3.322,7.826,7.826,0,0,1-5.647,4.954A7.27,7.27,0,0,1,1623.253,380.232Z" transform="translate(-1549.781 -273.539)" fill="#91b3fa"/>
        <path id="Trazado_118632" data-name="Trazado 118632" d="M1598.319,345.482a25.377,25.377,0,0,0,.067,4.474,22.649,22.649,0,0,0,3.221,9.472,25.3,25.3,0,0,0,2.678,3.607,14.008,14.008,0,0,1-3.358-3.154,16.271,16.271,0,0,1-3.358-9.864A14.018,14.018,0,0,1,1598.319,345.482Z" transform="translate(-1533.515 -256.772)" fill="#91b3fa"/>
        <path id="Trazado_118633" data-name="Trazado 118633" d="M1647.425,328.644a15.515,15.515,0,0,1,3.26,4.53,17.081,17.081,0,0,1,.884,12.6,15.75,15.75,0,0,1-2.6,4.943,26.876,26.876,0,0,0,1.679-5.189,21.972,21.972,0,0,0-.839-11.972A26.047,26.047,0,0,0,1647.425,328.644Z" transform="translate(-1565.09 -246.108)" fill="#91b3fa"/>
        <path id="Trazado_118634" data-name="Trazado 118634" d="M1589.168,316.295a8.6,8.6,0,0,1,1.588-4.234,9.194,9.194,0,0,1,9.328-3.785,8.693,8.693,0,0,1,4.088,1.935,11.652,11.652,0,0,0-4.194-1.152,10.121,10.121,0,0,0-8.606,3.49A11.623,11.623,0,0,0,1589.168,316.295Z" transform="translate(-1528.194 -233.099)" fill="#91b3fa"/>
        <path id="Trazado_118635" data-name="Trazado 118635" d="M1477.928,282.586h0a7.062,7.062,0,0,0-7.666,5.782l-2.595,14.539L1451.4,314.286l3.635,4.423,15.476-8.131a7.711,7.711,0,0,0,3.808-4.63l4.989-16.826Z" transform="translate(-1440.937 -216.914)" fill="#f7ccb1"/>
        <path id="Trazado_118636" data-name="Trazado 118636" d="M1501.613,298.209a7.547,7.547,0,0,1-3.285-3.45l1.46-6.666a7.063,7.063,0,0,1,7.616-5.508l.246.028,1.376,6.548-2.148,9.64A7.591,7.591,0,0,1,1501.613,298.209Z" transform="translate(-1470.662 -216.914)" fill="#455a64"/>
        <path id="Trazado_118637" data-name="Trazado 118637" d="M1500.666,319.281a7.591,7.591,0,0,0,5.267.593l-.559,2.376c-2.019.453-7.191.3-8.541-3.97l.559-2.461A7.538,7.538,0,0,0,1500.666,319.281Z" transform="translate(-1469.715 -237.985)" fill="#455a64"/>
        <path id="Trazado_118638" data-name="Trazado 118638" d="M1501.613,298.209a7.547,7.547,0,0,1-3.285-3.45l1.46-6.666a7.063,7.063,0,0,1,7.616-5.508l.246.028,1.376,6.548-2.148,9.64A7.591,7.591,0,0,1,1501.613,298.209Z" transform="translate(-1470.662 -216.914)" fill="#fff" opacity="0.2" style="isolation: isolate"/>
        <path id="Trazado_118639" data-name="Trazado 118639" d="M1500.666,319.281a7.591,7.591,0,0,0,5.267.593l-.559,2.376c-2.019.453-7.191.3-8.541-3.97l.559-2.461A7.538,7.538,0,0,0,1500.666,319.281Z" transform="translate(-1469.715 -237.985)" fill="#fff" opacity="0.5" style="isolation: isolate"/>
        <path id="Trazado_118640" data-name="Trazado 118640" d="M1513.718,288.935s.649-4.949,3.6-6.24c0,0,7.068,2.117,12.929,4.345a67.892,67.892,0,0,1,6.8,2.908c1.331,1.152,5.15,4.58,6.945,5.5a8.535,8.535,0,0,0,2.8.839h0a9.774,9.774,0,0,1,3.479,1.269c5.379,3.109,9.724,10.625,9.709,16.814,0,4.055-1.9,6.509-4.714,6.85h-.128a6.36,6.36,0,0,1-1.337,0c-4.891-.045-12.738-.084-15.819-.967C1523.582,316.028,1512.264,305.6,1513.718,288.935Z" transform="translate(-1480.329 -217.007)" fill="#455a64"/>
        <path id="Trazado_118641" data-name="Trazado 118641" d="M1533.051,287.575l-2.108-3.825-8.483,5.715,3.358,4.507a5.65,5.65,0,0,0,4.552.184,5.791,5.791,0,0,0,3.075-3.445A4.04,4.04,0,0,0,1533.051,287.575Z" transform="translate(-1485.945 -217.675)" fill="#f7ccb1"/>
        <path id="Trazado_118642" data-name="Trazado 118642" d="M1530.149,285.2c0,4.608-3.663,6.766-5.9,7.583l-1.789-2.4Z" transform="translate(-1485.945 -218.591)" opacity="0.2" style="isolation: isolate"/>
        <path id="Trazado_118643" data-name="Trazado 118643" d="M1513.069,249.017a15.571,15.571,0,0,0,.274-5.564,5.256,5.256,0,0,0-3.358-4.161,6.278,6.278,0,0,0-3.786-3.316,17.261,17.261,0,0,0-4.971-.6,24.116,24.116,0,0,0-5.536.308,8.187,8.187,0,0,0-4.741,2.689,7.9,7.9,0,0,0-1.376,6.073,17.763,17.763,0,0,0,2.3,5.944c3.556.252,7.18.657,10.736.912a28.692,28.692,0,0,0,5.452.051A10.146,10.146,0,0,0,1513.069,249.017Z" transform="translate(-1465.035 -187.008)" fill="#263238"/>
        <path id="Trazado_118644" data-name="Trazado 118644" d="M1493.777,249.171a30.4,30.4,0,0,0,1.745,16.244,5.9,5.9,0,0,0,2.208,3.059,6.217,6.217,0,0,0,3.914.33,20.208,20.208,0,0,0,6.224-1.752,8.494,8.494,0,0,0,4.307-4.642,3.742,3.742,0,0,0,3.775-1.482,7.059,7.059,0,0,0,1.224-4.116c0-.934-.173-2.035-1.012-2.443a2.267,2.267,0,0,0-2.388.593,7.1,7.1,0,0,0-2.326,3.49c-.615-2.276-1.571-4.473-2.186-6.71a3.9,3.9,0,0,0-1.325-2.365c-.949-.61-2.19-.263-3.294,0A21.633,21.633,0,0,1,1493.777,249.171Z" transform="translate(-1467.518 -195.69)" fill="#f7ccb1"/>
        <path id="Trazado_118645" data-name="Trazado 118645" d="M1507.96,268.207l-2.656,4.467,3.165.6Z" transform="translate(-1475.08 -207.831)" fill="#f7a36f"/>
        <path id="Trazado_118646" data-name="Trazado 118646" d="M1518.11,286.219l-2.4,1.168a1.566,1.566,0,0,0,1.825.52A1.421,1.421,0,0,0,1518.11,286.219Z" transform="translate(-1481.667 -219.239)" fill="#f28f8f"/>
        <path id="Trazado_118647" data-name="Trazado 118647" d="M1518.11,286.219l-2.4,1.168a1.566,1.566,0,0,0,1.825.52A1.421,1.421,0,0,0,1518.11,286.219Z" transform="translate(-1481.667 -219.239)" opacity="0.3" style="isolation: isolate"/>
        <path id="Trazado_118648" data-name="Trazado 118648" d="M1518.405,288.709a1.445,1.445,0,0,0,.833-.078,1.276,1.276,0,0,0,.643-1.269,1.54,1.54,0,0,0-.949.33A1.524,1.524,0,0,0,1518.405,288.709Z" transform="translate(-1483.377 -219.962)" fill="#f28f8f"/>
        <path id="Trazado_118649" data-name="Trazado 118649" d="M1521.913,267.281a.911.911,0,1,1-1-.816h0a.91.91,0,0,1,1,.814Z" transform="translate(-1484.448 -206.725)" fill="#263238"/>
        <path id="Trazado_118650" data-name="Trazado 118650" d="M1501.4,268.546a.826.826,0,1,1-.824-.828.826.826,0,0,1,.824.828Z" transform="translate(-1471.561 -207.521)" fill="#263238"/>
        <path id="Trazado_118651" data-name="Trazado 118651" d="M1497.429,260.1l-1.868,1.588a1.3,1.3,0,0,1,.252-1.46A1.538,1.538,0,0,1,1497.429,260.1Z" transform="translate(-1468.832 -202.59)" fill="#263238"/>
        <path id="Trazado_118652" data-name="Trazado 118652" d="M1521.15,259.48l2.142,1.185a1.3,1.3,0,0,0-.531-1.381A1.545,1.545,0,0,0,1521.15,259.48Z" transform="translate(-1485.116 -202.089)" fill="#263238"/>
        <path id="Trazado_118653" data-name="Trazado 118653" d="M1489.852,232.62a74.277,74.277,0,0,0,23.486,0c-.365-9.505-4.642-12.621-12.022-12.621S1489.768,223.958,1489.852,232.62Z" transform="translate(-1465.293 -177.299)" fill="#455a64"/>
        <path id="Trazado_118654" data-name="Trazado 118654" d="M1489.854,237.639c0-3.64.7-6.436,2.086-8.468l3.092-.866a10.2,10.2,0,0,1,4.474-.235l2.947.492a4.692,4.692,0,0,1,3.914,4.088l.677,5.737h0A74.691,74.691,0,0,1,1489.854,237.639Z" transform="translate(-1465.295 -182.318)" fill="#455a64"/>
        <path id="Trazado_118655" data-name="Trazado 118655" d="M1489.854,237.639c0-3.64.7-6.436,2.086-8.468l3.092-.866a10.2,10.2,0,0,1,4.474-.235l2.947.492a4.692,4.692,0,0,1,3.914,4.088l.677,5.737h0A74.691,74.691,0,0,1,1489.854,237.639Z" transform="translate(-1465.295 -182.318)" fill="#fff" opacity="0.29" style="isolation: isolate"/>
        <path id="Trazado_118656" data-name="Trazado 118656" d="M1482.734,232.592h1.364a11.4,11.4,0,0,1,1.314.051,18.138,18.138,0,0,1,10.781,4.573l4.6,4.127a74.656,74.656,0,0,1-17.133-.75l-2.993-3.629a2.684,2.684,0,0,1,2.069-4.373Z" transform="translate(-1459.098 -185.273)" fill="#455a64"/>
        <path id="Trazado_118657" data-name="Trazado 118657" d="M1482.734,232.592h1.364a11.4,11.4,0,0,1,1.314.051,18.138,18.138,0,0,1,10.781,4.573l4.6,4.127a74.656,74.656,0,0,1-17.133-.75l-2.993-3.629a2.684,2.684,0,0,1,2.069-4.373Z" transform="translate(-1459.098 -185.273)" opacity="0.2" style="isolation: isolate"/>
        <path id="Trazado_118658" data-name="Trazado 118658" d="M1422.874,350.263l20.85,12.112,20.981-12.112-20.841-12.118Z" transform="translate(-1422.874 -252.125)" fill="#91b3fa"/>
        <g id="Grupo_55895" data-name="Grupo 55895" transform="translate(0 86.02)" opacity="0.3">
          <path id="Trazado_118659" data-name="Trazado 118659" d="M1422.874,350.263l20.85,12.112,20.981-12.112-20.841-12.118Z" transform="translate(-1422.874 -338.145)" fill="#fff"/>
        </g>
        <path id="Trazado_118660" data-name="Trazado 118660" d="M1422.874,371.193l.062,21.2,20.846,12.112-.062-21.2Z" transform="translate(-1422.874 -273.056)" fill="#91b3fa"/>
        <g id="Grupo_55896" data-name="Grupo 55896" transform="translate(0 98.137)" opacity="0.1">
          <path id="Trazado_118661" data-name="Trazado 118661" d="M1422.874,371.193l.062,21.2,20.846,12.112-.062-21.2Z" transform="translate(-1422.874 -371.193)" fill="#fff"/>
        </g>
        <path id="Trazado_118662" data-name="Trazado 118662" d="M1479.738,383.307l.062,21.2,20.98-12.112-.061-21.2Z" transform="translate(-1458.888 -273.057)" fill="#91b3fa"/>
        <path id="Trazado_118663" data-name="Trazado 118663" d="M1457.642,355.92l-7.057-4.312,3.6-2.077,7.085,4.227Z" transform="translate(-1440.424 -259.337)" fill="#e0e0e0"/>
        <path id="Trazado_118664" data-name="Trazado 118664" d="M1452.877,355.8l3.629-2.164,7.2-4.294,3.59,2.086-7.154,4.373-3.635,2.22-9.6,5.871-3.847-2.237Z" transform="translate(-1435.659 -259.216)" fill="#fff"/>
        <path id="Trazado_118665" data-name="Trazado 118665" d="M1483.368,366.955l9.855,5.877-3.858,2.231-9.629-5.888Z" transform="translate(-1458.887 -270.372)" fill="#e0e0e0"/>
        <path id="Trazado_118666" data-name="Trazado 118666" d="M1442.834,382.922l3.847,2.237-.034.017-.056,21.1-3.892-2.259.057-21.053Z" transform="translate(-1435.431 -280.484)" fill="#e0e0e0"/>
        <path id="Trazado_118667" data-name="Trazado 118667" d="M1505.991,385.215l3.858-2.231.034.017.061,21.176-3.892,2.242-.061-21.2Z" transform="translate(-1475.515 -280.523)" fill="#fff"/>
        <path id="Trazado_118668" data-name="Trazado 118668" d="M1505.991,385.215l3.858-2.231.034.017.061,21.176-3.892,2.242-.061-21.2Z" transform="translate(-1475.515 -280.523)" opacity="0.2" style="isolation: isolate"/>
        <path id="Trazado_118669" data-name="Trazado 118669" d="M1472.244,384.431l4.362,2.667-4.362,2.522-4.35-2.527Z" transform="translate(-1451.387 -281.44)" fill="#fff"/>
        <path id="Trazado_118670" data-name="Trazado 118670" d="M1526.438,332.031s-1.627-23.682-1.971-25.163c-1.3-5.631-9.467-5.229-10.244.5-.318,2.336,3.411,25.034,3.411,25.034l-13.51,14.293-2.735,2.511-2.438-.492-5.559.525a.683.683,0,0,0-.6.56h0a.687.687,0,0,0,.5.8l3.674.9-2.651,1.812a3.213,3.213,0,0,1-1.236.511l-4.154.788a.76.76,0,0,0-.621.8h0a.766.766,0,0,0,.492.671l2.237.833a10.75,10.75,0,0,0,8.947-.638l4.808-2.673a11.936,11.936,0,0,0,1.985-1.342L1524.017,338A6.748,6.748,0,0,0,1526.438,332.031Z" transform="translate(-1464.313 -229.772)" fill="#f7ccb1"/>
        <path id="Trazado_118671" data-name="Trazado 118671" d="M1556.524,322.443l-1.728-12.861a6.724,6.724,0,0,1,13.348-1.633h0l1.44,13.124a16.085,16.085,0,0,1-13.063,1.353Z" transform="translate(-1506.393 -229.259)" fill="#455a64"/>
        <path id="Trazado_118672" data-name="Trazado 118672" d="M1556.524,322.443l-1.728-12.861a6.724,6.724,0,0,1,13.348-1.633h0l1.44,13.124a16.085,16.085,0,0,1-13.063,1.353Z" transform="translate(-1506.393 -229.259)" fill="#fff" opacity="0.2" style="isolation: isolate"/>
        <path id="Trazado_118673" data-name="Trazado 118673" d="M1566.583,356.027a16.448,16.448,0,0,0,6.151-2.044l.33,3.025c-5.81,4.474-12.934,1.711-12.934,1.711l-.459-3.383A16.415,16.415,0,0,0,1566.583,356.027Z" transform="translate(-1509.513 -262.156)" fill="#455a64"/>
        <path id="Trazado_118674" data-name="Trazado 118674" d="M1566.583,356.027a16.448,16.448,0,0,0,6.151-2.044l.33,3.025c-5.81,4.474-12.934,1.711-12.934,1.711l-.459-3.383A16.415,16.415,0,0,0,1566.583,356.027Z" transform="translate(-1509.513 -262.156)" fill="#fff" opacity="0.5" style="isolation: isolate"/>
      </g>
    </g>
  </g>
</svg>
