<svg xmlns="http://www.w3.org/2000/svg" width="586" height="365" viewBox="0 0 586 365">
  <g id="Grupo_55824" data-name="Grupo 55824" transform="translate(-800.333 -125)">
    <rect id="Rectángulo_29478" data-name="Rectángulo 29478" width="586" height="365" transform="translate(800.333 125)" fill="none"/>
    <g id="Grupo_55823" data-name="Grupo 55823" transform="translate(809.165 131.98)">
      <g id="Grupo_55765" data-name="Grupo 55765" transform="translate(339.292 28.226)">
        <path id="Trazado_118072" data-name="Trazado 118072" d="M471.862,154.418a11.241,11.241,0,0,1,7.354-6.544,14.253,14.253,0,0,1,28.118-2.67,11.2,11.2,0,0,1,11.44,6.359,14.245,14.245,0,0,1,20.47,2.855Z" transform="translate(-337.799 -39.835)" fill="#fff"/>
        <path id="Trazado_118073" data-name="Trazado 118073" d="M393.727,59.471a8.151,8.151,0,0,0-5.332-4.744,10.334,10.334,0,0,0-20.387-1.936,8.306,8.306,0,0,0-.936-.055,8.134,8.134,0,0,0-7.359,4.666,10.329,10.329,0,0,0-14.842,2.069Z" transform="translate(-344.87 -44.813)" fill="#fff"/>
      </g>
      <g id="Grupo_55766" data-name="Grupo 55766" transform="translate(435.497 67.697)">
        <path id="Trazado_118074" data-name="Trazado 118074" d="M396.168,75.357h5.366a26.978,26.978,0,0,0,4.83,11.147l-3.945,3.945a2.1,2.1,0,0,0,0,2.962l3.986,3.986a2.1,2.1,0,0,0,2.963,0l4.155-4.155A26.952,26.952,0,0,0,424.468,97.3v6.357a2.1,2.1,0,0,0,2.1,2.1H432.2a2.1,2.1,0,0,0,2.1-2.1V96.872a26.905,26.905,0,0,0,9.982-4.583l5.117,5.111a2.1,2.1,0,0,0,2.962,0l3.987-3.988a2.094,2.094,0,0,0,0-2.962l-5.327-5.328a27.048,27.048,0,0,0,3.868-9.764H462.6a2.1,2.1,0,0,0,2.1-2.1V67.625a2.1,2.1,0,0,0-2.1-2.1h-7.711a27.085,27.085,0,0,0-3.868-9.771l5.327-5.327a2.1,2.1,0,0,0,0-2.963l-3.987-3.987a2.1,2.1,0,0,0-2.962,0l-5.117,5.112a27.012,27.012,0,0,0-9.982-4.577V37.23a2.1,2.1,0,0,0-2.1-2.1h-5.637a2.1,2.1,0,0,0-2.1,2.1v6.356a26.943,26.943,0,0,0-10.944,4.05l-4.155-4.155a2.1,2.1,0,0,0-2.963,0l-3.986,3.986a2.1,2.1,0,0,0,0,2.963l3.945,3.945a26.883,26.883,0,0,0-4.83,11.154h-5.366a2.1,2.1,0,0,0-2.1,2.1v5.637A2.1,2.1,0,0,0,396.168,75.357ZM414.2,74.192a14.5,14.5,0,0,1,7.333-16.627,14.066,14.066,0,0,1,3.824-1.35,14.479,14.479,0,0,1,7.5.482,14.059,14.059,0,0,1,3.171,1.522,14.514,14.514,0,0,1,5.062,5.538,14,14,0,0,1,1.141,2.935,14.5,14.5,0,0,1,0,7.5,14.123,14.123,0,0,1-1.135,2.93,14.451,14.451,0,0,1-5.068,5.538,14.031,14.031,0,0,1-3.171,1.522,14.491,14.491,0,0,1-7.5.482,14.045,14.045,0,0,1-3.824-1.35,14.487,14.487,0,0,1-5.545-5.062A14.337,14.337,0,0,1,414.2,74.192Z" transform="translate(-394.073 -35.134)" fill="#ea5854"/>
        <path id="Trazado_118075" data-name="Trazado 118075" d="M396.168,65.529h5.366a26.883,26.883,0,0,1,4.83-11.154l-3.945-3.945a2.1,2.1,0,0,1,0-2.963l3.986-3.986a2.1,2.1,0,0,1,2.963,0l4.155,4.155a26.943,26.943,0,0,1,10.944-4.05V37.23a2.1,2.1,0,0,1,2.1-2.1H432.2a2.1,2.1,0,0,1,2.1,2.1v6.784a27.012,27.012,0,0,1,9.982,4.577l5.117-5.112a2.1,2.1,0,0,1,2.962,0l3.987,3.987a2.1,2.1,0,0,1,0,2.963l-5.327,5.327a27.085,27.085,0,0,1,3.868,9.771h.716a41.09,41.09,0,0,1-15.3,12.93,14.361,14.361,0,0,0,.8-1.337,14.124,14.124,0,0,0,1.135-2.93,14.5,14.5,0,0,0,0-7.5,14,14,0,0,0-1.141-2.935,14.514,14.514,0,0,0-5.062-5.538,14.059,14.059,0,0,0-3.171-1.522,14.479,14.479,0,0,0-7.5-.482,14.066,14.066,0,0,0-3.824,1.35,14.523,14.523,0,0,0-5.545,5.062,14.513,14.513,0,0,0,0,15.625,14.508,14.508,0,0,0,4.239,4.289,40.679,40.679,0,0,1-18.3-5.412c-.148-.584-.284-1.174-.395-1.773H399.12a41.126,41.126,0,0,1-5.047-4.119V67.625A2.1,2.1,0,0,1,396.168,65.529Z" transform="translate(-394.073 -35.134)" fill="#fe7062"/>
      </g>
      <g id="Grupo_55787" data-name="Grupo 55787" transform="translate(114.721 22.896)">
        <g id="Grupo_55776" data-name="Grupo 55776" transform="translate(0 50.374)">
          <rect id="Rectángulo_29621" data-name="Rectángulo 29621" width="72.102" height="47.067" transform="translate(208.633 255.052) rotate(-180)" fill="#1a0f91"/>
          <rect id="Rectángulo_29622" data-name="Rectángulo 29622" width="72.102" height="20.889" transform="translate(208.633 228.875) rotate(-180)" fill="#0e35af"/>
          <path id="Rectángulo_29623" data-name="Rectángulo 29623" d="M0,0H345.165a0,0,0,0,1,0,0V172.592a19.27,19.27,0,0,1-19.27,19.27H19.27A19.27,19.27,0,0,1,0,172.592V0A0,0,0,0,1,0,0Z" transform="translate(345.165 191.862) rotate(-180)" fill="#1a0f91"/>
          <rect id="Rectángulo_29624" data-name="Rectángulo 29624" width="321.099" height="166.325" transform="translate(333.132 186.694) rotate(-180)" fill="#91b3fa"/>
          <path id="Rectángulo_29625" data-name="Rectángulo 29625" d="M19.27,0H325.9a19.27,19.27,0,0,1,19.27,19.27V34.706a0,0,0,0,1,0,0H0a0,0,0,0,1,0,0V19.27A19.27,19.27,0,0,1,19.27,0Z" transform="translate(345.165 218.193) rotate(-180)" fill="#57aff7"/>
          <circle id="Elipse_4179" data-name="Elipse 4179" cx="6.531" cy="6.531" r="6.531" transform="translate(166.051 195.796)" fill="#0058c6"/>
          <path id="Trazado_118076" data-name="Trazado 118076" d="M171.386,341.831H431.467a4.339,4.339,0,0,0,4.338-4.339h0A12.688,12.688,0,0,0,423.118,324.8H179.735a12.687,12.687,0,0,0-12.687,12.687h0A4.338,4.338,0,0,0,171.386,341.831Z" transform="translate(-128.844 -78.266)" fill="#1a0f91"/>
          <g id="Grupo_55775" data-name="Grupo 55775" transform="translate(26.106 35.015)">
            <g id="Grupo_55768" data-name="Grupo 55768" transform="translate(0 10.349)">
              <rect id="Rectángulo_29626" data-name="Rectángulo 29626" width="71.182" height="17.804" rx="2.192" transform="translate(71.182 17.804) rotate(-180)" fill="#afd9ff"/>
              <g id="Grupo_55767" data-name="Grupo 55767" transform="translate(5.62 4.709)">
                <path id="Trazado_118077" data-name="Trazado 118077" d="M213.749,142.052l2.725,1.247-.344-2.977,2.028-2.206-2.937-.593-1.471-2.61-1.471,2.61-2.937.593,2.028,2.206-.344,2.977Z" transform="translate(-158.215 -134.914)" fill="#fe7062"/>
                <path id="Trazado_118078" data-name="Trazado 118078" d="M201.642,142.052l2.725,1.247-.344-2.977,2.028-2.206-2.937-.593-1.471-2.61-1.471,2.61-2.937.593,2.028,2.206-.344,2.977Z" transform="translate(-158.89 -134.914)" fill="#fe7062"/>
                <path id="Trazado_118079" data-name="Trazado 118079" d="M189.535,142.052l2.725,1.247-.344-2.977,2.028-2.206-2.937-.593-1.471-2.61-1.471,2.61-2.937.593,2.028,2.206-.344,2.977Z" transform="translate(-159.564 -134.914)" fill="#fe7062"/>
                <path id="Trazado_118080" data-name="Trazado 118080" d="M177.428,142.052l2.725,1.247-.344-2.977,2.028-2.206-2.937-.593-1.471-2.61-1.471,2.61-2.937.593,2.028,2.206L174.7,143.3Z" transform="translate(-160.238 -134.914)" fill="#fe7062"/>
                <path id="Trazado_118081" data-name="Trazado 118081" d="M165.321,142.052l2.725,1.247-.344-2.977,2.028-2.206-2.937-.593-1.471-2.61-1.471,2.61-2.937.593,2.028,2.206L162.6,143.3Z" transform="translate(-160.912 -134.914)" fill="#f7f7f7"/>
              </g>
            </g>
            <g id="Grupo_55772" data-name="Grupo 55772" transform="translate(213.391 0)">
              <rect id="Rectángulo_29627" data-name="Rectángulo 29627" width="79.561" height="24.744" rx="4.384" transform="translate(79.561 24.744) rotate(-180)" fill="#afd9ff"/>
              <g id="Grupo_55771" data-name="Grupo 55771" transform="translate(6.303 3.301)">
                <g id="Grupo_55769" data-name="Grupo 55769" transform="translate(50.948 0)">
                  <circle id="Elipse_4180" data-name="Elipse 4180" cx="6.937" cy="6.937" r="6.937" transform="translate(0 5.335) rotate(-22.612)" fill="#fe7062"/>
                  <path id="Trazado_118082" data-name="Trazado 118082" d="M425.449,137.711a6.907,6.907,0,0,1-9.314,0,4.677,4.677,0,0,1,2.916-3.969,2.885,2.885,0,1,1,3.484,0A4.674,4.674,0,0,1,425.449,137.711Z" transform="translate(-411.722 -123.51)" fill="#f7f7f7"/>
                </g>
                <g id="Grupo_55770" data-name="Grupo 55770" transform="translate(0 5.45)">
                  <rect id="Rectángulo_29628" data-name="Rectángulo 29628" width="36.975" height="1.324" transform="translate(48.048 1.324) rotate(-180)" fill="#dcf1ff"/>
                  <rect id="Rectángulo_29629" data-name="Rectángulo 29629" width="48.048" height="1.324" transform="translate(48.048 4.283) rotate(-180)" fill="#dcf1ff"/>
                  <rect id="Rectángulo_29630" data-name="Rectángulo 29630" width="48.048" height="1.324" transform="translate(48.048 7.242) rotate(-180)" fill="#dcf1ff"/>
                </g>
              </g>
            </g>
            <g id="Grupo_55773" data-name="Grupo 55773" transform="translate(195.304 34.523)">
              <rect id="Rectángulo_29631" data-name="Rectángulo 29631" width="45.374" height="11.349" rx="2.192" transform="translate(97.648 11.349) rotate(-180)" fill="#afd9ff"/>
              <rect id="Rectángulo_29632" data-name="Rectángulo 29632" width="45.374" height="11.349" rx="2.192" transform="translate(97.648 27.385) rotate(-180)" fill="#afd9ff"/>
              <rect id="Rectángulo_29633" data-name="Rectángulo 29633" width="45.374" height="11.349" rx="2.192" transform="translate(97.648 43.42) rotate(-180)" fill="#dcf1ff"/>
              <rect id="Rectángulo_29634" data-name="Rectángulo 29634" width="45.374" height="11.349" rx="2.192" transform="translate(45.374 27.385) rotate(-180)" fill="#fe7062"/>
              <rect id="Rectángulo_29635" data-name="Rectángulo 29635" width="45.374" height="11.349" rx="2.192" transform="translate(45.374 43.42) rotate(-180)" fill="#afd9ff"/>
            </g>
            <g id="Grupo_55774" data-name="Grupo 55774" transform="translate(0 56.233)">
              <rect id="Rectángulo_29636" data-name="Rectángulo 29636" width="45.374" height="11.349" rx="2.192" transform="translate(45.374 11.349) rotate(-180)" fill="#fe7062"/>
              <rect id="Rectángulo_29637" data-name="Rectángulo 29637" width="45.374" height="11.349" rx="2.192" transform="translate(45.374 27.385) rotate(-180)" fill="#afd9ff"/>
              <rect id="Rectángulo_29638" data-name="Rectángulo 29638" width="45.374" height="11.349" rx="2.192" transform="translate(45.374 43.42) rotate(-180)" fill="#dcf1ff"/>
            </g>
          </g>
        </g>
        <g id="Grupo_55786" data-name="Grupo 55786" transform="translate(66.005)">
          <g id="Grupo_55777" data-name="Grupo 55777" transform="translate(43.349 72.768)">
            <path id="Trazado_118083" data-name="Trazado 118083" d="M352.1,117.813c2.048,51.741,26.11,56.981,0,94.305s-116.037,24.1-117.565-4.157,17.461-45.283,5.02-80.643S352.1,117.813,352.1,117.813Z" transform="translate(-234.445 -108.694)" fill="#252384"/>
            <path id="Trazado_118084" data-name="Trazado 118084" d="M344.946,131.364c3.033,23.516,11.1,46.71,6.958,59.456,0,0-.454-14.341-3.14-17.8,0,0,2.681,20.13-5.532,36.458S246.381,222.7,246.381,222.7s-1.814-17.884,0-30.843,5.269-17.994,6.263-24.936c0,0-5.465,11.286-7.592,15.606s-2.413,10.651-2.413,10.651-.577-11.515,3.916-20.327,1.8-33.11.467-42.56,62.523-20.654,69.474-16.866S344.946,131.364,344.946,131.364Z" transform="translate(-233.99 -108.473)" fill="#0c0835"/>
          </g>
          <g id="Grupo_55778" data-name="Grupo 55778" transform="translate(0 120.369)">
            <path id="Trazado_118085" data-name="Trazado 118085" d="M327.1,190.981c30.81,10.436,52.91,14.366,59.295,34.5s15.335,43.033,15.335,43.033H193.383S203.7,221.062,214.992,213.2s55.5-21.024,69-23.281S327.1,190.981,327.1,190.981Z" transform="translate(-193.383 -151.815)" fill="#fdfcdb"/>
            <path id="Trazado_118086" data-name="Trazado 118086" d="M239.867,234.089s-.786,18.891,1.974,31.923h-7.064Z" transform="translate(-191.078 -149.312)" fill="#e2e1c5"/>
            <path id="Trazado_118087" data-name="Trazado 118087" d="M343.521,241.141s.6,14.485-1.514,24.478h5.417Z" transform="translate(-185.107 -148.92)" fill="#e2e1c5"/>
            <path id="Trazado_118088" data-name="Trazado 118088" d="M367.509,218.934c-2.7-7.117-11.413-15.473-11.422-15.482,10.574,4.861,17.975,10.92,21.245,21.233,6.385,20.136,15.335,43.033,15.335,43.033H375.859C376.595,246.273,370.211,226.054,367.509,218.934Z" transform="translate(-184.323 -151.018)" fill="#e2e1c5"/>
            <path id="Trazado_118089" data-name="Trazado 118089" d="M286.212,230.526s14.979-.983,24.064-7.859,7.859-13.75,7.859-13.75,6.63.491,9.085,0-1.069-26.078-15.391-26.545-44.32,5.474-48,5.672-15.834,11.089-12.769,24.886c.491,2.211,6.424-4.013,9.125-.821S265.094,228.808,286.212,230.526Z" transform="translate(-190.199 -152.194)" fill="#0058c6"/>
            <path id="Trazado_118090" data-name="Trazado 118090" d="M289.039,226.314a75.529,75.529,0,0,0,26.094-35.768c1.282-3.749-.884-5.844-4.862-6.483Z" transform="translate(-188.056 -152.098)" fill="#0e35af"/>
            <path id="Trazado_118091" data-name="Trazado 118091" d="M284.929,229.666c-10.536-6.742-20.235-23.317-23.182-28.842s-3.065-10.726,5.957-11.686S284.929,229.666,284.929,229.666Z" transform="translate(-189.676 -151.816)" fill="#0e35af"/>
            <path id="Trazado_118092" data-name="Trazado 118092" d="M266.184,157.489c2.714,21.906,4.268,33.619-3.057,42.7,0,0,13.055,26.52,22.386,31.923,0,0,22.346-15.962,28.484-41.5a31.146,31.146,0,0,1-4.174-14c-.491-8.349.737-22.837.737-22.837Z" transform="translate(-189.499 -153.784)" fill="#f7ccb1"/>
            <path id="Trazado_118093" data-name="Trazado 118093" d="M271.437,212.842c13.626,16.5,27.668,2.574,32.886-4.5a85.481,85.481,0,0,1-19.273,20.737C280.756,226.592,275.673,219.631,271.437,212.842Z" transform="translate(-189.037 -150.746)" fill="#f7bf9d"/>
            <path id="Trazado_118094" data-name="Trazado 118094" d="M309.662,176.6a31.713,31.713,0,0,0,3.96,13.642c-10.109-1.794-31.8-5.952-45.39-10.8-.214-6.006-1.117-13.164-2.208-21.975l27.07-2.26,17.279-1.123C310.2,156.251,309.213,168.982,309.662,176.6Z" transform="translate(-189.338 -153.767)" fill="#f7bf9d"/>
          </g>
          <g id="Grupo_55785" data-name="Grupo 55785" transform="translate(34.298)">
            <g id="Grupo_55779" data-name="Grupo 55779" transform="translate(0 22.116)">
              <path id="Trazado_118095" data-name="Trazado 118095" d="M232.609,106.856c-.869-13.816-1.1-26.387,9.686-42.5s8.5,26.406,8.326,26.893-9.557,18.415-9.557,18.415Z" transform="translate(-225.517 -60.714)" fill="#ffa6a4"/>
              <path id="Trazado_118096" data-name="Trazado 118096" d="M239.049,125.855c1.369,7.945.441,14.506-3.368,15.163s-8.006-5.253-9.376-13.2.609-14.918,4.418-15.575S237.68,117.91,239.049,125.855Z" transform="translate(-225.872 -57.847)" fill="#f97068"/>
              <path id="Trazado_118097" data-name="Trazado 118097" d="M231.549,129.991l2.4.975,2.351,6.513s.4.808.889,1.846a3.365,3.365,0,0,1-1.559.731c-3.375.581-7.052-4-8.8-10.575C229.859,131.055,231.549,129.991,231.549,129.991Z" transform="translate(-225.819 -56.885)" fill="#cb3034"/>
              <path id="Trazado_118098" data-name="Trazado 118098" d="M242.374,101.98c-2.955-.548-11.337,1.674-12.288,6-2.164,9.845,1.43,32.683,8.026,38.32,2.4,2.055,9.1,1.636,11.471.908,6.028-1.851,6.047-11.489,3.844-24.274S246.476,102.739,242.374,101.98Z" transform="translate(-225.672 -58.42)" fill="#f97068"/>
              <path id="Trazado_118099" data-name="Trazado 118099" d="M231.3,129.964c3.068,2.213,4.66,0,4.66,0,2.08,4.422,5.9,4.418,10.727,5.073l2.706-1.432s2.643,1.945,5.122,3.7c-.447,4.4-1.951,7.4-5.033,8.342-2.375.728-9.068,1.148-11.471-.908C235.119,142.272,232.806,136.5,231.3,129.964Z" transform="translate(-225.57 -56.858)" fill="#cb3034"/>
              <path id="Trazado_118100" data-name="Trazado 118100" d="M230.086,107.984c.951-4.329,9.333-6.552,12.288-6a4.406,4.406,0,0,1,.74.21c-5.417-.4-8.252,3.39-8.874,7.732s0,24,6.376,32.665c.814,1.106,2.221,4.336,6.959,5.022-3.009.4-7.567.317-9.463-1.3C231.517,140.667,227.922,117.829,230.086,107.984Z" transform="translate(-225.672 -58.42)" fill="#ffa6a4"/>
              <path id="Trazado_118101" data-name="Trazado 118101" d="M231.3,129.964c3.068,2.213,4.66,0,4.66,0l0,0c1.012,4.244,2.476,8.233,4.552,11.056.814,1.106,2.221,4.336,6.959,5.022-3.009.4-7.567.317-9.463-1.3C235.119,142.272,232.806,136.5,231.3,129.964Z" transform="translate(-225.57 -56.858)" fill="#f97068"/>
              <path id="Trazado_118102" data-name="Trazado 118102" d="M241.3,124.222c1.2,6.936,3.671,12.3,5.528,11.98s2.394-6.2,1.2-13.139-3.67-12.3-5.528-11.979S240.107,117.286,241.3,124.222Z" transform="translate(-225.048 -57.91)" fill="#cb3034"/>
            </g>
            <path id="Trazado_118103" data-name="Trazado 118103" d="M334.036,148.607q-.125.3-.257.6c-3.022,6.963-8.469,14.215-13.8,19.645-7.878,8.026-18.569,15-29.9,16.524-12.183,1.634-23.359-5.143-31.508-13.836a31.34,31.34,0,0,1-7.879-14.3c-1.286-5.712-.588-11.835-1.521-17.673a52.571,52.571,0,0,0-2.824-9.089,66.791,66.791,0,0,1-3.764-29.35c.464-4.107,1.135-9.994,3.358-13.556,2.556-4.094,8.467-7.316,12.456-9.813,12.786-8,29.739-10.931,44.27-6.407,14.853,4.624,26.965,16.532,33.223,30.613,2.979,6.7,4.709,13.3,3.263,20.522C337.351,131.49,337.624,139.934,334.036,148.607Z" transform="translate(-224.961 -38.124)" fill="#f7ccb1"/>
            <path id="Trazado_118104" data-name="Trazado 118104" d="M336.894,114.472s-23.083,6.344-43.464,0-27.3-19.112-29-25.742c0,0-16.648,13.052-19.978,32.31,0,0-1.144-34.193,9.48-38.449s32.865-9.823,35.32-7.613,43.709,25.783,43.709,25.783Z" transform="translate(-224.839 -37.831)" fill="#f7bf9d"/>
            <g id="Grupo_55781" data-name="Grupo 55781" transform="translate(28.347 73.412)">
              <path id="Trazado_118105" data-name="Trazado 118105" d="M310.914,113.014a45.737,45.737,0,0,0-5.206-2.142,28.551,28.551,0,0,0-5.577-1.277,15.6,15.6,0,0,0-5.814-.015c-2.769.755-3.874,1.31-5.22,2.586l.092.253a26.389,26.389,0,0,0,2.847-.035l2.686-.147c1.754-.067,3.477-.494,5.274-.5a35.585,35.585,0,0,1,5.4.436c1.815.252,3.617.675,5.433,1.089Z" transform="translate(-250.699 -109.304)" fill="#0c0835"/>
              <path id="Trazado_118106" data-name="Trazado 118106" d="M252.859,113.577a20.839,20.839,0,0,1,5.322-1.49,28.41,28.41,0,0,1,5.44-.272c1.818.083,3.566.574,5.358.681a52.221,52.221,0,0,0,5.617.24l.092-.253a12.842,12.842,0,0,0-5.255-2.636,16.875,16.875,0,0,0-5.853-.182,24.287,24.287,0,0,0-5.712,1.116,19.115,19.115,0,0,0-5.143,2.564Z" transform="translate(-252.724 -109.293)" fill="#0c0835"/>
              <ellipse id="Elipse_4181" data-name="Elipse 4181" cx="1.754" cy="3.585" rx="1.754" ry="3.585" transform="translate(47.235 10.457)" fill="#0c0835"/>
              <ellipse id="Elipse_4182" data-name="Elipse 4182" cx="1.685" cy="3.585" rx="1.685" ry="3.585" transform="translate(10.402 10.629)" fill="#0c0835"/>
              <path id="Trazado_118107" data-name="Trazado 118107" d="M276.579,138.939a6.709,6.709,0,0,0,2.6,3.324,4.568,4.568,0,0,0,4.112.434c2.13-.9,2.718-3.389-.183-2.826a9.974,9.974,0,0,1-3.362.193C279.155,139.981,276.835,139.6,276.579,138.939Z" transform="translate(-251.396 -107.654)" fill="#d6a78b"/>
              <g id="Grupo_55780" data-name="Grupo 55780" transform="translate(15.666 41.03)">
                <path id="Trazado_118108" data-name="Trazado 118108" d="M298.206,148.17c-7.3.947-24.9,1.373-30.642,1.089,2.352,7.8,8.136,15.439,16.062,15.159C291.759,164.13,296.486,156.3,298.206,148.17Z" transform="translate(-267.564 -148.17)" fill="#c31f2a"/>
                <path id="Trazado_118109" data-name="Trazado 118109" d="M273.685,159.86c6.12-5.154,10.537-.745,10.537-.745,1.395-.946,5.253-2.547,8.641-.257a13.258,13.258,0,0,1-7.068,4.684c-.887.12-1.807.243-2.732.359A13.1,13.1,0,0,1,273.685,159.86Z" transform="translate(-267.223 -147.658)" fill="#fb8384"/>
                <path id="Trazado_118110" data-name="Trazado 118110" d="M296.18,148.371a18.926,18.926,0,0,1-.773,3.85,42.415,42.415,0,0,1-24.882,1.285,41.873,41.873,0,0,1-.677-4.188C276.441,149.418,289.093,149.069,296.18,148.371Z" transform="translate(-267.437 -148.159)" fill="#fff"/>
              </g>
            </g>
            <g id="Grupo_55782" data-name="Grupo 55782" transform="translate(12.887 109.031)">
              <path id="Trazado_118111" data-name="Trazado 118111" d="M252.588,163.63a8.1,8.1,0,0,0,1.741-.042c5.577-.756,8.566-1.173,8.566-1.173l-.342-2.445s-2.985.416-8.556,1.171c-5.136.7-11.722-7.461-13.46-17.056a1.243,1.243,0,0,0-1.385-1.029h0a1.228,1.228,0,0,0-1.054,1.418C239.9,154.6,246.547,163.148,252.588,163.63Z" transform="translate(-238.079 -143.044)" fill="#ffa6a4"/>
              <path id="Trazado_118112" data-name="Trazado 118112" d="M238.388,143.448a1.193,1.193,0,0,0,.016.266c1.805,10.127,8.45,18.675,14.491,19.158a8.159,8.159,0,0,0,1.74-.043c4.4-.6,7.184-.981,8.165-1.117l.1.681s-2.989.417-8.566,1.173a8.1,8.1,0,0,1-1.741.042c-6.042-.481-12.686-9.03-14.49-19.156A1.194,1.194,0,0,1,238.388,143.448Z" transform="translate(-238.079 -143.022)" fill="#f97068"/>
              <path id="Trazado_118113" data-name="Trazado 118113" d="M261.642,163.074l4.893-.67a3.086,3.086,0,0,0,2.639-3.476h0a3.086,3.086,0,0,0-3.476-2.639l-4.893.669a3.086,3.086,0,0,0-2.639,3.476h0A3.087,3.087,0,0,0,261.642,163.074Z" transform="translate(-236.963 -142.308)" fill="#252384"/>
              <path id="Trazado_118114" data-name="Trazado 118114" d="M258.88,157.932a3.113,3.113,0,0,0,.022.609h0a3.087,3.087,0,0,0,3.476,2.639l4.282-.586a3.074,3.074,0,0,0,2.46-1.984c.017.076.043.146.054.224h0a3.086,3.086,0,0,1-2.639,3.476l-4.893.67a3.087,3.087,0,0,1-3.476-2.64h0A3.067,3.067,0,0,1,258.88,157.932Z" transform="translate(-236.963 -142.215)" fill="#261b60"/>
            </g>
            <g id="Grupo_55783" data-name="Grupo 55783" transform="translate(7.743 0.23)">
              <path id="Trazado_118115" data-name="Trazado 118115" d="M269.744,84.437s-24.556,10.313-24.8,43.954c0,0-19.645-21.609-8.1-54.023s44.937-31.186,44.937-31.186Z" transform="translate(-233.206 -39.805)" fill="#252384"/>
              <path id="Trazado_118116" data-name="Trazado 118116" d="M269.123,82.553s-23.95,10.082-24.765,42.763c0-.189,0-.368,0-.562.4-32.973,11.832-41.732,23.128-47.738l2.69,1.927Z" transform="translate(-232.585 -37.92)" fill="#261b60"/>
              <path id="Trazado_118117" data-name="Trazado 118117" d="M337.243,114.572s-67.692,3.929-73.095-30.449S276.1,41.4,284.612,40.578s25.1-2.8,39.289,10.968,30.029,22.1,28.266,66.628Z" transform="translate(-231.54 -39.983)" fill="#252384"/>
              <path id="Trazado_118118" data-name="Trazado 118118" d="M336.41,103.081c-2.952-1.643-5.9-3.329-8.747-5.186q-4.3-2.746-8.435-5.772a177.718,177.718,0,0,1-15.9-12.985A178.587,178.587,0,0,0,318,93.654q3.865,3.443,7.961,6.644c2.71,2.16,5.547,4.167,8.417,6.144Z" transform="translate(-229.302 -37.802)" fill="#0c0835"/>
              <path id="Trazado_118119" data-name="Trazado 118119" d="M298.214,53.707c16.04,8.676,33.678,29.543,34.019,46.828,0,0,6.783-6.3,3.216-15.321s-14.068-19.026-19.886-23.322S298.214,53.707,298.214,53.707Z" transform="translate(-229.586 -39.218)" fill="#0c0835"/>
              <path id="Trazado_118120" data-name="Trazado 118120" d="M331.928,107.182c2.148-5.569.675-24.574,0-29.976s-2.671-9.515-2.885-10.528.25-1.319.25-1.319c-11.168-17.188-27.017-19.646-43.087-24.673l.924-.456c9.082-.72,23.184-.615,35.487,11.317,14.189,13.763,30.029,22.1,28.266,66.628l-14.924-3.6s-23.149,1.341-43.453-4.42C315.082,114.588,329.779,112.748,331.928,107.182Z" transform="translate(-230.255 -39.983)" fill="#0c0835"/>
              <path id="Trazado_118121" data-name="Trazado 118121" d="M272.035,81.692c6.635,10.357,14.845,20.021,46.187,24.522,20.879,3,24.18-1.285,24.18-1.285s-36.443-2.428-51.166-9.9S272.035,81.692,272.035,81.692Z" transform="translate(-231.044 -37.66)" fill="#0c0835"/>
            </g>
            <g id="Grupo_55784" data-name="Grupo 55784" transform="translate(60.815)">
              <path id="Trazado_118122" data-name="Trazado 118122" d="M331.445,66.188c-4.057-11.868-24.393-25.27-47.966-25.6a48.922,48.922,0,0,1,26.193,2.292c14.079,5.238,24.212,13.782,29.786,23.425S331.445,66.188,331.445,66.188Z" transform="translate(-283.479 -39.764)" fill="#ffa6a4"/>
              <path id="Trazado_118123" data-name="Trazado 118123" d="M310.9,46.05a47.32,47.32,0,0,1,20.054,16.084c.649.081,6.53,1.176,6.622,1.193.669.967,1.3,1.945,1.877,2.937.2.347.37.662.523.96-1.844-.127-4.548-.249-5.262.068a3.317,3.317,0,0,1-1.795-.135c-.885-.585-1.479-1.011-1.479-1.011-4.057-11.868-24.393-25.27-47.966-25.6C291.415,40.446,298.013,40.894,310.9,46.05Z" transform="translate(-283.479 -39.721)" fill="#f97068"/>
              <path id="Trazado_118124" data-name="Trazado 118124" d="M332.175,106.721c1.11-22.049-2.006-37.088-4.789-41.181s8.637-2.312,10.93.9c1.485,2.082,6.508,19.621,4.665,40.435S332.175,106.721,332.175,106.721Z" transform="translate(-281.058 -38.462)" fill="#ffa6a4"/>
              <path id="Trazado_118125" data-name="Trazado 118125" d="M329.436,63.163c-.981.372-1.267.862-.571,1.927s3.561,10.4,4.3,18.621.368,16.861.532,17.844,7.363,2.794,9.534,1.808q-.093,1.737-.247,3.511c-.136,1.536-.311,2.84-.519,3.946-2.186.247-5.223.355-7.995.4a44.405,44.405,0,0,1-2.292-4.5c1.11-22.049-2.006-37.088-4.789-41.181C326.262,63.885,327.46,63.19,329.436,63.163Z" transform="translate(-281.058 -38.461)" fill="#f97068"/>
              <path id="Trazado_118126" data-name="Trazado 118126" d="M334.181,103.423c2.883-.849,11.449.5,12.841,4.706,3.166,9.57,1.942,32.657-4.038,38.943-2.179,2.292-8.879,2.564-11.317,2.084-6.186-1.22-7.2-10.8-6.324-23.75S330.18,104.6,334.181,103.423Z" transform="translate(-281.163 -36.233)" fill="#f97068"/>
              <path id="Trazado_118127" data-name="Trazado 118127" d="M342.962,146.094c-2.179,2.292-8.879,2.564-11.317,2.084-3.554-.7-5.4-4.175-6.157-9.452,2.976,2.553,10.582,1.736,14.427,0,0,0-.63-11.493,1.406-17.975a141.66,141.66,0,0,1,5.856,15.493C346.226,140.545,344.825,144.136,342.962,146.094Z" transform="translate(-281.14 -35.255)" fill="#cb3034"/>
              <path id="Trazado_118128" data-name="Trazado 118128" d="M334.7,125.945c-.781,11.562,1.949,21.162,6.1,21.443s8.148-8.866,8.929-20.428-1.949-21.162-6.1-21.443S335.479,114.383,334.7,125.945Z" transform="translate(-280.634 -36.103)" fill="#ffa6a4"/>
              <path id="Trazado_118129" data-name="Trazado 118129" d="M339.922,129.476s5.3.661,7.348,8.683c-1.712,4.941-4.1,8.059-6.541,7.894-2.11-.143-3.85-2.7-4.951-6.7a17.831,17.831,0,0,0,3.565-1.114S338.876,136.367,339.922,129.476Z" transform="translate(-280.567 -34.769)" fill="#f97068"/>
              <path id="Trazado_118130" data-name="Trazado 118130" d="M339.818,126.965c-.586,8.66.98,15.572,4.836,15.832s7.457-6.547,8.042-15.207-2.066-15.891-5.922-16.152S340.4,118.306,339.818,126.965Z" transform="translate(-280.348 -35.774)" fill="#f97068"/>
              <path id="Trazado_118131" data-name="Trazado 118131" d="M345.62,138.8c1.76.118,3.474-.925,4.993-2.8-1.53,3.657-3.7,5.946-5.959,5.793-3.316-.224-4.934-5.372-4.951-12.317C340.527,134.94,342.482,138.584,345.62,138.8Z" transform="translate(-280.348 -34.769)" fill="#cb3034"/>
            </g>
          </g>
        </g>
      </g>
      <g id="Grupo_55804" data-name="Grupo 55804" transform="translate(48.088 116.461)">
        <g id="Grupo_55797" data-name="Grupo 55797" transform="translate(20.402 12.442)">
          <g id="Grupo_55788" data-name="Grupo 55788" transform="translate(33.196 13.941)">
            <path id="Trazado_118132" data-name="Trazado 118132" d="M165.479,168.988c.651,2.4-1.412,4.525-2.077,4.924s-5.19,2.262-7.984,2.329-6.92-5.855-5.456-6.521,11.71-1.4,12.841-1.4A8.521,8.521,0,0,1,165.479,168.988Z" transform="translate(-131.796 -132.769)" fill="#f7ccb1"/>
            <path id="Trazado_118133" data-name="Trazado 118133" d="M156.527,166.172c-.7,7.186-3.193,12.775-4.092,12.875s-9.815-2.894-12.293-3.992-.571-17.963.943-17.666,5.022,3.537,7.837,5.091S156.527,166.172,156.527,166.172Z" transform="translate(-130.276 -131.218)" fill="#2c6c6a"/>
            <path id="Trazado_118134" data-name="Trazado 118134" d="M142.85,171.106c.943,1.438,8.121,5.084,12.025,6.413-.787,2.121-1.578,3.427-2.006,3.475-.769.086-7.416-2.1-10.867-3.415A49.4,49.4,0,0,1,142.85,171.106Z" transform="translate(-130.71 -133.164)" fill="#204b4a"/>
            <path id="Trazado_118135" data-name="Trazado 118135" d="M163.109,163.661c.275,2.851-2.263,3.26-5.39,2.528s-8.649-7.651-11.111-10.779-7.037-8.7-7.934-9.2-2.895-.764-4.791-3.576-.1-8.7.649-9.4,7.768,1.634,8.65,2.813-.017,7.516.282,8.315,6.6,7.319,9.265,8.915S162.909,161.6,163.109,163.661Z" transform="translate(-129.438 -127.774)" fill="#f7ccb1"/>
            <path id="Trazado_118136" data-name="Trazado 118136" d="M139.118,138.421c-.835-.4-1.162-2.212-.632-1.893a5.526,5.526,0,0,0,2.614.3,9.865,9.865,0,0,0,1.683-.12,10.66,10.66,0,0,1,.221,1.43S139.952,138.82,139.118,138.421Z" transform="translate(-130.174 -128.254)" fill="#f2a87b"/>
            <path id="Trazado_118137" data-name="Trazado 118137" d="M133.079,138.957c.422-.909.749-1.6.749-1.6l5.042,4.535a26.771,26.771,0,0,1,2.709-2.137l.469.74a14.175,14.175,0,0,0-1.1,4.683s-.665.8-1.064.865c0,0,5.622,7.984,9.149,11.91,3.506,3.9,5.957,7.278,7.555,8.363-3.192-1.766-7.792-7.528-9.978-10.306-2.462-3.127-7.037-8.7-7.934-9.2s-2.895-.764-4.791-3.576A6.923,6.923,0,0,1,133.079,138.957Z" transform="translate(-129.439 -128.377)" fill="#f2a87b"/>
            <path id="Trazado_118138" data-name="Trazado 118138" d="M142.407,137.927c-.023.465-4.411,4.525-4.867,4.991a.7.7,0,0,1-.5,0c-1.325-1.095-7.481-10.97-7.6-11.326-.115-.332,3.248-3.729,4.285-4.637a.993.993,0,0,1,.877.1C135.826,128.7,142.437,137.326,142.407,137.927Z" transform="translate(-128.926 -126.892)" fill="#0c0835"/>
            <path id="Trazado_118139" data-name="Trazado 118139" d="M141.82,137.933c-.023.465-4.41,4.525-4.867,4.991s-7.975-10.94-8.108-11.326c-.115-.332,3.661-3.674,4.7-4.582a.316.316,0,0,1,.465.046C135.24,128.709,141.85,137.332,141.82,137.933Z" transform="translate(-128.843 -126.898)" fill="#252384"/>
            <path id="Trazado_118140" data-name="Trazado 118140" d="M140.983,137.273c-.021.435-4.126,4.232-4.553,4.668s-7.46-10.235-7.584-10.595c-.108-.312,3.425-3.438,4.394-4.287a.3.3,0,0,1,.435.043C134.827,128.644,141.011,136.71,140.983,137.273Z" transform="translate(-128.843 -126.905)" fill="#57aff7"/>
            <path id="Trazado_118141" data-name="Trazado 118141" d="M138.925,131.915a5.788,5.788,0,0,1-1.872-2.417c-.116-.5-.1-.948.283-1.048s1.7,1.463,2.329,1.929,1.431,1.431,1.181,2.079-1.6.4-1.746.3S138.925,131.915,138.925,131.915Z" transform="translate(-129.999 -127.113)" fill="#ffc5c7"/>
            <path id="Trazado_118142" data-name="Trazado 118142" d="M137.122,128.6c-.189.567,1.475,2.844,2.836,3.5l-.448.558s-.225-.049-.515-.117a4,4,0,0,1-.07-.608,5.788,5.788,0,0,1-1.872-2.417A1.085,1.085,0,0,1,137.122,128.6Z" transform="translate(-129.999 -127.135)" fill="#f2a87b"/>
            <path id="Trazado_118143" data-name="Trazado 118143" d="M140.8,134.772a14.869,14.869,0,0,0-2.968-.867c-.7-.275-.9-1.322-.449-1.5a12.388,12.388,0,0,1,4.042.6c.749.324,1.2,1.819,1.2,1.819Z" transform="translate(-130.021 -127.669)" fill="#ffc5c7"/>
            <path id="Trazado_118144" data-name="Trazado 118144" d="M140.208,134.132a1.579,1.579,0,0,0,.948,0c0,.275.27.413.592.8l-.937-.027a14.87,14.87,0,0,0-2.968-.867,1.118,1.118,0,0,1-.624-.7C137.563,133.915,139.5,134,140.208,134.132Z" transform="translate(-130.031 -127.807)" fill="#f2a87b"/>
            <path id="Trazado_118145" data-name="Trazado 118145" d="M143.926,136.341c-.6.921-3.893.522-4.558.422s-1.109-.516-1.073-.935c.075-.845,4.4-.7,4.765-.563S143.926,136.341,143.926,136.341Z" transform="translate(-130.184 -128.065)" fill="#ffc5c7"/>
            <path id="Trazado_118146" data-name="Trazado 118146" d="M138.341,136.176a5.131,5.131,0,0,0,2.746.79,11,11,0,0,0,1.733.031,13.557,13.557,0,0,1-3.445-.09A1.193,1.193,0,0,1,138.341,136.176Z" transform="translate(-130.19 -128.209)" fill="#f2a87b"/>
          </g>
          <g id="Grupo_55791" data-name="Grupo 55791" transform="translate(13.37 92.277)">
            <g id="Grupo_55789" data-name="Grupo 55789" transform="translate(0.409 100.61)">
              <path id="Trazado_118147" data-name="Trazado 118147" d="M123.29,355.891c-.2,1.746-.9,2.4-3.444,2.744s-6.288.3-8.234-1.6a11.867,11.867,0,0,1-3.294-5.04,9.592,9.592,0,0,0-.4-2.495c-.3-.5-1.883-.811-1.688-3.593S123.29,355.891,123.29,355.891Z" transform="translate(-106.216 -336.851)" fill="#ffdcdc"/>
              <path id="Trazado_118148" data-name="Trazado 118148" d="M106.813,337.869c.287-3.864,9.444-2.374,9.494-.826s2.2,8.035,4.3,10l0,0c2.759,1.255,3.8,4.4,2.685,7.407-.946,2.555-8.035,1.937-9.731,1a11.419,11.419,0,0,1-4.088-4.982h0a11.591,11.591,0,0,0-1.4-3.1c-.848-1.049-1.3-.849-1.7-2.1S106.526,341.733,106.813,337.869Z" transform="translate(-106.218 -335.419)" fill="#fe7062"/>
              <path id="Trazado_118149" data-name="Trazado 118149" d="M115.339,337.957c.88,3.985,2.78,6.581,2.224,7.044s-3.985,1.02-4.634,0a22.112,22.112,0,0,1-1.761-7.044C111.168,336.243,115.339,337.957,115.339,337.957Z" transform="translate(-106.918 -335.671)" fill="#ffdcdc"/>
            </g>
            <g id="Grupo_55790" data-name="Grupo 55790" transform="translate(28.926 94.398)">
              <path id="Trazado_118150" data-name="Trazado 118150" d="M139.619,339.946a11.956,11.956,0,0,1,1.218-7.174c1.47-2.895,1.4-3.143,3.094-3.443s7.885-1.148,7.885-1.148a10.253,10.253,0,0,0,4.691,4.891c3.643,2,4.391,2.695,6.736,2.695s7.529.276,5.49,6.488c0,0-1.647.716-5.772.682s-8.317-.366-9.814-.932-3.061-.865-3.959-.5-3.826.233-5.489,0A15.654,15.654,0,0,1,139.619,339.946Z" transform="translate(-139.455 -328.181)" fill="#fe7062"/>
              <path id="Trazado_118151" data-name="Trazado 118151" d="M161.049,334.351a.407.407,0,0,1,.205.614c-.492.763-1.512,1.6-2.056,1.407a38.558,38.558,0,0,1-5.389-3.992c-.765-.665-1.5-1.929-1.065-2.528s1.564-1.3,2.03-.932a26.983,26.983,0,0,0,3.26,3.689A9.594,9.594,0,0,0,161.049,334.351Z" transform="translate(-141.315 -328.272)" fill="#ffdcdc"/>
              <path id="Trazado_118152" data-name="Trazado 118152" d="M168.724,344.191a77.339,77.339,0,0,1-15.441-.9c-1.925-.5-2.973-1.347-4.818-.649s-7.535-.4-8.434-.748-.649,1.056,0,1.2,4.74,1.01,6.837,1.2,2.2-1.356,4.691-.208,6.587,1.147,8.383,1.147,6.937.4,7.885,0S168.724,344.191,168.724,344.191Z" transform="translate(-139.447 -330.119)" fill="#ffdcdc"/>
            </g>
            <path id="Trazado_118153" data-name="Trazado 118153" d="M116.985,321.31c-2.8.763-10.779.5-11.178-.6s1.1-18.364,1.1-23.853,1.9-19.063,1.6-20.56a11.723,11.723,0,0,1,.2-5.189c.5-2.6.7-32.67,3.094-52.93l31.139,2.928s4.991,19.162,5.39,32.736-.067,20.094,0,22.09-.849,3.992-1.056,5.589.058,13.44.324,17.7.46,12.11.9,13.041-9.412,2.795-10.742,2.129-1.331-.8-1.331-7.718-.932-23.553-.932-26.481-.931-3.46-.532-4.924-1.064-8.117-2.528-13.04-3.194-10.247-3.194-10.247-4.125,26.614-5.456,28.211-1.064,5.722-1.863,8.117-3.193,18.63-3.193,23.554S119.912,320.511,116.985,321.31Z" transform="translate(-105.739 -218.178)" fill="#4d4d4e"/>
            <path id="Trazado_118154" data-name="Trazado 118154" d="M110.375,321.7a19.29,19.29,0,0,1-3.425-.419c-.332-1.42-.687-3.208-1.055-5.284.306-5.809,1.031-15.322,1.031-19.14,0-5.49,1.9-19.063,1.6-20.56a11.734,11.734,0,0,1,.2-5.189c.5-2.6.7-32.67,3.094-52.93l6.266.59,18.336,6.9a139.748,139.748,0,0,1-19.119-1.136s-1.433,16.221-1.481,18.617-1.779,24.761-1.779,26.819-.8,2.653-.931,4.884a3.085,3.085,0,0,0,1.6,3.029s-2.4.8-2.4,1.2-.5,6.821-.5,9.315-1.087,5.889-1.392,13.374-1.3,16.367-1.3,17.365C109.117,320.1,109.121,321.116,110.375,321.7Z" transform="translate(-105.761 -218.178)" fill="#353536"/>
            <path id="Trazado_118155" data-name="Trazado 118155" d="M134.436,239.7l6.687-1.7-5.19,2.495,4.192.1-3.212,1.146s-1,8.339,1.083,13.923c2.284,6.122,3.327,21.757,4.026,22.955s2.495.9,2.495.9-1.9.2-2,1.6.4,5.29.4,9.415a126.061,126.061,0,0,0,.8,13.451c.4,2.783.585,9.593.8,11.4s2.932,1.387,2.932,1.387h0a34.962,34.962,0,0,1-3.912.535c-4.11.387-3.257-1.134-3.251-9.223-.1-7.537-.922-22.339-.922-25.085,0-2.927-.931-3.46-.532-4.924s-1.064-8.117-2.528-13.04-3.194-10.247-3.194-10.247.727-6.806.826-8.4S134.436,239.7,134.436,239.7Z" transform="translate(-109.622 -220.991)" fill="#353536"/>
          </g>
          <g id="Grupo_55792" data-name="Grupo 55792" transform="translate(11.422 26.433)">
            <path id="Trazado_118156" data-name="Trazado 118156" d="M124.647,151.178c7.186,3.526,8.313,3.39,11.406,4.989s3.432,18.431,3.432,21.026.033,12.908.632,15.7,2.895,13.174,3.693,14.771,2.3,4.292.4,5.889-6.074,2.695-15.362,2.1-19.669-6.288-20.168-7.086,3.294-15.47,3.294-18.265a36.518,36.518,0,0,1,.6-6.188c.2-1.3-3.185-7.385-3.937-11.278s-5.764-14.63-5.105-16.6,7.865-4.159,12.7-6.66S124.647,151.178,124.647,151.178Z" transform="translate(-103.469 -142.488)" fill="#2c6c6a"/>
            <path id="Trazado_118157" data-name="Trazado 118157" d="M128.857,154.848a5.187,5.187,0,0,1-.1,1.262,2.994,2.994,0,0,1-.439,1.14,2.3,2.3,0,0,1-2,1.065,6.669,6.669,0,0,1-2.417-.483c-.794-.286-1.552-.669-2.326-1.038.346.251.705.486,1.062.727.382.2.75.425,1.148.6a5.9,5.9,0,0,0,2.547.6l.337-.016.334-.076a2.408,2.408,0,0,0,.642-.244,2.366,2.366,0,0,0,.941-.973A3.692,3.692,0,0,0,128.857,154.848Z" transform="translate(-106.037 -143.351)" fill="#204b4a"/>
            <path id="Trazado_118158" data-name="Trazado 118158" d="M109.411,211.734c-.5-.8,3.294-15.47,3.294-18.265a36.5,36.5,0,0,1,.6-6.187c.2-1.3-3.185-7.386-3.937-11.279a22.058,22.058,0,0,0-.729-2.57l2.955-2.327c2.2,5.111,4,14.093,5.9,16.289s6.288,3.094,6.288,3.094-4.2,1-6.093.6c0,0-1.415,7.885-1.154,11.777s1.05,9.78,1.154,10.579c.039.3.049,1.337.046,2.522C113.125,214.194,109.694,212.184,109.411,211.734Z" transform="translate(-104.202 -145.657)" fill="#204b4a"/>
            <path id="Trazado_118159" data-name="Trazado 118159" d="M118.535,141.45c.232,4.165.166,7.026-.7,7.825,0,0,2.09,6.911,8.383,6.32,2.129-.2,1.664-3.792.466-5.455l.266-5.109Z" transform="translate(-105.507 -141.45)" fill="#f7ccb1"/>
            <path id="Trazado_118160" data-name="Trazado 118160" d="M118.336,148.54h0c.449-1.277.456-3.766.27-7.09l8.416,3.581-.171,3.276h0C125.453,148.955,118.336,148.54,118.336,148.54Z" transform="translate(-105.578 -141.45)" fill="#f7bf9d"/>
          </g>
          <g id="Grupo_55793" data-name="Grupo 55793" transform="translate(0 40.112)">
            <path id="Trazado_118161" data-name="Trazado 118161" d="M94.977,180.7c-1.264,1.93-2.794,6.72-1.929,8.916s8.849,11.976,12.442,15.636,4.391,4.258,5.057,5.456A63.819,63.819,0,0,0,115.2,217.6a4.017,4.017,0,0,0,2.145.848,3.787,3.787,0,0,0,2.986.9,12.028,12.028,0,0,0,3.1,1.447s.5.848.948.923.948-.823,0-2.62-2.345-2.544-2.645-3.693a25.306,25.306,0,0,0-1.509-3.489s2.507,2.392,3.953,2.541,1.579-.7.74-1.4a20.343,20.343,0,0,1-2.985-3.094,6.015,6.015,0,0,0-4.141-2.495,11.253,11.253,0,0,1-3.643-.8,34.788,34.788,0,0,1-5.036-7.4c-1.9-3.66-3.7-8.336-8.155-12.442l1.6-3.194Z" transform="translate(-90.533 -160.697)" fill="#f7ccb1"/>
            <path id="Trazado_118162" data-name="Trazado 118162" d="M127.775,226.3a8.5,8.5,0,0,0-1.913-2.644l-.3-.279c-.09-.087-.246-.2-.282-.248-.156-.182-.3-.422-.451-.639-.3-.449-.585-.906-.909-1.346a12.055,12.055,0,0,0,.644,1.5,4.826,4.826,0,0,0,.424.724,3.237,3.237,0,0,0,.314.3l.287.275c.386.368.755.756,1.126,1.141S127.428,225.876,127.775,226.3Z" transform="translate(-94.948 -166.433)" fill="#f2a87b"/>
            <path id="Trazado_118163" data-name="Trazado 118163" d="M124.445,224.833c-.314-.538-.674-1-1-1.493s-.645-.968-.961-1.5a3.3,3.3,0,0,0,.632,1.727A4.408,4.408,0,0,0,124.445,224.833Z" transform="translate(-94.744 -166.532)" fill="#f2a87b"/>
            <path id="Trazado_118164" data-name="Trazado 118164" d="M122.188,224.9a3.592,3.592,0,0,1-1.438-.766,4.017,4.017,0,0,1-2.145-.848,21.561,21.561,0,0,1-1.844-2.479c.016.018.919.927,1.575,1.677a2.131,2.131,0,0,0,2.114.706l-.234-.973S121.184,224.425,122.188,224.9Z" transform="translate(-93.932 -166.386)" fill="#f2a87b"/>
            <path id="Trazado_118165" data-name="Trazado 118165" d="M92.84,188.248c.106.911.169,1.635,1.694,4.024,1.716,2.689,11.677,14.023,13.823,16.119s2.1,2.229,3.517,5.541c-.6-.936-1.1-1.752-1.326-2.151-.666-1.2-1.464-1.8-5.057-5.456s-11.577-13.44-12.442-15.636A5.526,5.526,0,0,1,92.84,188.248Z" transform="translate(-90.533 -161.767)" fill="#f7bf9d"/>
            <path id="Trazado_118166" data-name="Trazado 118166" d="M100.862,185.164l-.652,1.237a4.628,4.628,0,0,1,1.807,1.027l1.27-2.458Z" transform="translate(-91.585 -161.302)" fill="#f2a87b"/>
            <path id="Trazado_118167" data-name="Trazado 118167" d="M107.7,174.486c1.635-3.751,1.956-9.843,0-13.049s-5.29-4.361-6.06-3.976-2.565,5.387-4.425,7.695-6.925,8.785-7.054,9.33,4.363,4.945,12.44,8.176C103.564,183.047,107.7,174.486,107.7,174.486Z" transform="translate(-90.159 -157.39)" fill="#2c6c6a"/>
            <path id="Trazado_118168" data-name="Trazado 118168" d="M103.52,179.342l-1.065,2.566s5.714-6.179,7.938-10.789a17.546,17.546,0,0,1-1.267,5.315s-4.136,8.561-5.1,8.176c-1.382-.553-2.651-1.14-3.818-1.737Z" transform="translate(-91.585 -159.337)" fill="#204b4a"/>
          </g>
          <g id="Grupo_55796" data-name="Grupo 55796" transform="translate(15.301)">
            <path id="Trazado_118169" data-name="Trazado 118169" d="M112.85,131.657c-1.468-3.586-3.264-7.378-1-9.374a10.759,10.759,0,0,0-3.859-.533,10.353,10.353,0,0,1,3.992-1.064s-.523-6.055.869-8.65c0,0,0,2.662.728,3.726a9.111,9.111,0,0,1,5.788-4.325c4.325-1.2,8.517-1.33,11.511,1.73s6.5,6.985,1.454,12.907a23.62,23.62,0,0,1-14.562,7.852C114.908,134.325,112.85,131.657,112.85,131.657Z" transform="translate(-107.989 -110.647)" fill="#252384"/>
            <path id="Trazado_118170" data-name="Trazado 118170" d="M129.541,121.876a16.118,16.118,0,0,1-3.076.971c-1.045.236-2.1.447-3.157.611s-2.122.306-3.188.408a14.075,14.075,0,0,1-3.22,0,7.986,7.986,0,0,0,3.24.62,19.055,19.055,0,0,0,3.294-.242,19.328,19.328,0,0,0,3.2-.8A8.62,8.62,0,0,0,129.541,121.876Z" transform="translate(-109.253 -112.24)" fill="#0c0835"/>
            <path id="Trazado_118171" data-name="Trazado 118171" d="M117.523,127.537a10.505,10.505,0,0,1-3.065-2.132s1.981,1.4,6.053,1.066a34.678,34.678,0,0,0,6.792-1.18,39.733,39.733,0,0,1-5.744,2.86C120.013,128.549,117.523,127.537,117.523,127.537Z" transform="translate(-108.907 -112.724)" fill="#0c0835"/>
            <path id="Trazado_118172" data-name="Trazado 118172" d="M134.545,124.7c1.891-.935,2.44.014,2.44.812a8.415,8.415,0,0,1-.886,2.5Z" transform="translate(-111.756 -112.586)" fill="#0c0835"/>
            <path id="Trazado_118173" data-name="Trazado 118173" d="M111.306,128.187a17.054,17.054,0,0,0,4.872,5.3s1.313,1.77-.161,2.489c-.061.03-.13.057-.2.083a7.016,7.016,0,0,1-2.5-1.914A26.9,26.9,0,0,1,111.306,128.187Z" transform="translate(-108.46 -113.135)" fill="#0c0835"/>
            <path id="Trazado_118174" data-name="Trazado 118174" d="M116.507,133s-1.547-1.148-2.6,0,.948,6.487,3.294,5.189c0,0,3.893,4.94,6.587,6.338s4.492.7,5.389-.3,3.912-5.092,4.192-9.432c.1-1.547-.349-4.591-.349-5.24s.4-3.193-.149-3.942a2.108,2.108,0,0,0-1.3-.848,21.117,21.117,0,0,1-6.238,1.9,11.255,11.255,0,0,0,1.846-1.447,46.39,46.39,0,0,1-9.78,2.246,22.289,22.289,0,0,1-.15,3.294A13.357,13.357,0,0,1,116.507,133Z" transform="translate(-108.789 -112.65)" fill="#f7ccb1"/>
            <path id="Trazado_118175" data-name="Trazado 118175" d="M114.55,135.915c.14-.978.96-1.171,1.63-.489a5.279,5.279,0,0,1,.815,3.238c-.14.326-1.235.3-1.491-.372s.349-1.1.978-.9a2.411,2.411,0,0,0-.449-1.621c-.548-.635-1.054-.392-1.171-.229A4.335,4.335,0,0,1,114.55,135.915Z" transform="translate(-108.92 -114.105)" fill="#f2a87b"/>
            <g id="Grupo_55795" data-name="Grupo 55795" transform="translate(12.069 15.527)">
              <path id="Trazado_118176" data-name="Trazado 118176" d="M122.053,130.782a7.58,7.58,0,0,1,.7-.619,4.789,4.789,0,0,1,.81-.5,2.607,2.607,0,0,1,.915-.316,2.01,2.01,0,0,1,.963.126l0,.045a4.432,4.432,0,0,1-.45.148l-.432.122c-.28.084-.574.11-.857.206a5.989,5.989,0,0,0-.827.36c-.272.138-.533.3-.8.465Z" transform="translate(-122.053 -128.825)" fill="#0c0835"/>
              <path id="Trazado_118177" data-name="Trazado 118177" d="M134.223,129.577a3.434,3.434,0,0,0-.867-.306,4.63,4.63,0,0,0-.9-.106c-.3-.007-.6.056-.9.053a8.7,8.7,0,0,1-.935-.023l-.013-.043a2.145,2.145,0,0,1,.9-.379,2.816,2.816,0,0,1,.974.035,4.069,4.069,0,0,1,.935.25,3.2,3.2,0,0,1,.826.483Z" transform="translate(-123.267 -128.741)" fill="#0c0835"/>
              <path id="Trazado_118178" data-name="Trazado 118178" d="M125.5,132.946c-.042-.422-.278-.744-.527-.72s-.418.387-.376.809.277.745.527.72S125.547,133.368,125.5,132.946Z" transform="translate(-122.414 -129.235)" fill="#0c0835"/>
              <path id="Trazado_118179" data-name="Trazado 118179" d="M133.255,132.324c-.042-.422-.241-.748-.445-.728s-.335.378-.293.8.241.748.445.728S133.3,132.746,133.255,132.324Z" transform="translate(-123.536 -129.146)" fill="#0c0835"/>
              <path id="Trazado_118180" data-name="Trazado 118180" d="M128.435,137.843a1.884,1.884,0,0,0,2.058-.021.869.869,0,0,1-.479.758,1.285,1.285,0,0,1-.96-.052C128.753,138.394,128.638,138.1,128.435,137.843Z" transform="translate(-122.958 -130.029)" fill="#f2a87b"/>
              <g id="Grupo_55794" data-name="Grupo 55794" transform="translate(3.344 9.9)">
                <path id="Trazado_118181" data-name="Trazado 118181" d="M125.95,140.668a56.569,56.569,0,0,0,5.8-.39,2.925,2.925,0,0,1-5.8.39Z" transform="translate(-125.95 -140.278)" fill="#c31f2a"/>
                <path id="Trazado_118182" data-name="Trazado 118182" d="M127.6,142.959a2.5,2.5,0,0,1,1.342-.013,2.089,2.089,0,0,1,1.794-.177,2.51,2.51,0,0,1-3.136.19Z" transform="translate(-126.185 -140.615)" fill="#fb8384"/>
                <path id="Trazado_118183" data-name="Trazado 118183" d="M130.987,141.467a6.859,6.859,0,0,1-4.286-.166c-.024-.209-.055-.418-.087-.628,1.374-.029,3.589-.2,4.772-.329A3.7,3.7,0,0,1,130.987,141.467Z" transform="translate(-126.044 -140.288)" fill="#fff"/>
              </g>
            </g>
          </g>
        </g>
        <g id="Grupo_55803" data-name="Grupo 55803">
          <g id="Grupo_55802" data-name="Grupo 55802">
            <g id="Grupo_55801" data-name="Grupo 55801">
              <g id="Grupo_55799" data-name="Grupo 55799">
                <path id="Trazado_118186" data-name="Trazado 118186" d="M80.012,116.254a1.926,1.926,0,0,0-1.455-1.2,15.653,15.653,0,0,0-2.619-.386,17.814,17.814,0,0,1-3.041-.491,9.108,9.108,0,0,1-2.09-.773,7.321,7.321,0,0,1-1.63-1.158,7.111,7.111,0,0,1-1.216-1.526,11.353,11.353,0,0,1-.883-1.865,9.339,9.339,0,0,1-.65-4.284,7.809,7.809,0,0,1,1.194-3.445,9.748,9.748,0,0,1,2.437-2.572A12.629,12.629,0,0,1,73.121,96.9a11.429,11.429,0,0,1,4.024-.748,9.8,9.8,0,0,1,3.749.723,8.74,8.74,0,0,1,3.118,2.183l-3.764,5.53c-.329-.2-.7-.451-1.123-.76a4.567,4.567,0,0,0-1.463-.707,2.919,2.919,0,0,0-1.848.132,3.3,3.3,0,0,0-1.155.714A2.469,2.469,0,0,0,74,105.038a1.9,1.9,0,0,0,.049,1.237,2.6,2.6,0,0,0,1.211,1.377,7.245,7.245,0,0,0,1.986.757,16.1,16.1,0,0,0,2.125.35q1.021.1,1.578.173a6.777,6.777,0,0,1,2.9.942,5.222,5.222,0,0,1,1.673,1.727,14.045,14.045,0,0,1,1.043,2.222Zm7.206,9.773h0a3.493,3.493,0,0,1-4.49-2.06l-.14-.378a3.492,3.492,0,0,1,2.06-4.489h0a3.492,3.492,0,0,1,4.49,2.06l.14.378A3.492,3.492,0,0,1,87.218,126.028Z" transform="translate(-66.385 -96.148)" fill="#fe7062"/>
              </g>
              <g id="Grupo_55800" data-name="Grupo 55800" transform="translate(20.918 2.702)">
                <path id="Trazado_118187" data-name="Trazado 118187" d="M96.5,114.182a1.407,1.407,0,0,0-.5-1.28,11.45,11.45,0,0,0-1.535-1.171,12.923,12.923,0,0,1-1.766-1.388,6.631,6.631,0,0,1-1.061-1.232A5.33,5.33,0,0,1,91,107.8a5.177,5.177,0,0,1-.236-1.4,8.269,8.269,0,0,1,.1-1.5,6.8,6.8,0,0,1,1.1-2.963,5.688,5.688,0,0,1,1.979-1.775,7.1,7.1,0,0,1,2.464-.78,9.236,9.236,0,0,1,2.539.022,8.362,8.362,0,0,1,2.832.945,7.168,7.168,0,0,1,2.136,1.787,6.367,6.367,0,0,1,1.218,2.495l-4.356,2.2c-.139-.244-.289-.536-.447-.882a3.336,3.336,0,0,0-.684-.968,2.125,2.125,0,0,0-1.225-.569,2.411,2.411,0,0,0-.989.047,1.793,1.793,0,0,0-.8.454,1.382,1.382,0,0,0-.406.807,1.891,1.891,0,0,0,.286,1.306,5.242,5.242,0,0,0,1,1.185,11.7,11.7,0,0,0,1.231.974c.412.281.727.505.946.668a4.93,4.93,0,0,1,1.514,1.624,3.8,3.8,0,0,1,.457,1.694,10.225,10.225,0,0,1-.119,1.786Zm1.144,8.781h0a2.548,2.548,0,0,1-2.137-2.9l.045-.291a2.547,2.547,0,0,1,2.9-2.136h0a2.547,2.547,0,0,1,2.136,2.9l-.044.291A2.547,2.547,0,0,1,97.641,122.964Z" transform="translate(-90.761 -99.297)" fill="#fe7062"/>
              </g>
            </g>
          </g>
        </g>
      </g>
      <g id="Grupo_55818" data-name="Grupo 55818" transform="translate(435.966 233.633)">
        <g id="Grupo_55817" data-name="Grupo 55817" transform="translate(0 0)">
          <g id="Grupo_55812" data-name="Grupo 55812" transform="translate(0 18.136)">
            <path id="Trazado_118202" data-name="Trazado 118202" d="M436.042,265.153a5.522,5.522,0,0,0,.659,3.335,23.945,23.945,0,0,1,2.944,12.221c-.088,2.792-.662,5.65.1,8.338,1.312,4.639,6.207,7.507,7.783,12.062,1.4,4.039.1,9.118,3,12.253a2.709,2.709,0,0,0,2.82.979,3.434,3.434,0,0,0,1.215-1.009c3.327-3.779,6.89-8.373,5.864-13.3-.965-4.631-5.738-7.761-6.642-12.405-.739-3.794,1.2-8.171-.973-11.368-.6-.882-1.459-1.556-2.114-2.4-2.585-3.32-1.628-8.611-4.607-11.582a6.878,6.878,0,0,0-3.511-1.8,5.457,5.457,0,0,0-6.537,4.679Z" transform="translate(-436.002 -260.354)" fill="#fe7062"/>
            <g id="Grupo_55811" data-name="Grupo 55811" transform="translate(5.923 6.195)">
              <path id="Trazado_118203" data-name="Trazado 118203" d="M454.624,323.674c.2-2.47.285-4.942.377-7.42-.112-2.469-.244-4.941-.456-7.41s-.489-4.937-.925-7.392a31.478,31.478,0,0,0-2.056-7.223c-1.791-4.531-3.241-9.27-4.7-13.965l-2.123-7.079q-1.31-3.468-2.546-6.963c.36,2.456.923,4.867,1.415,7.294l2.127,7.1c1.473,4.719,2.908,9.428,4.744,14.072a30.181,30.181,0,0,1,1.983,6.976c.428,2.4.7,4.84.912,7.285s.349,4.9.443,7.359Z" transform="translate(-441.581 -266.222)" fill="#ffa6a4"/>
              <path id="Trazado_118204" data-name="Trazado 118204" d="M441.613,273.325a5.789,5.789,0,0,0,1.5,1.487,8.807,8.807,0,0,0,.945.48,3.618,3.618,0,0,1,.859.594l.112.1.1-.153c.235-.36.523-.695.748-1.06s.447-.733.64-1.114a8.7,8.7,0,0,0,.8-2.466l-.07-.035a8.709,8.709,0,0,0-1.481,2.128c-.187.384-.337.786-.5,1.182s-.248.832-.393,1.237l.212-.052a3.586,3.586,0,0,1-.821-.645,8.637,8.637,0,0,0-.736-.759,5.829,5.829,0,0,0-1.864-.99Z" transform="translate(-441.613 -265.947)" fill="#ffa6a4"/>
              <path id="Trazado_118205" data-name="Trazado 118205" d="M442.182,281.337c.424.349.861.727,1.321,1.043a10.969,10.969,0,0,0,1.425.888c.509.244,1.048.437,1.537.714a9.62,9.62,0,0,1,1.378.97l.154.126.156-.2a24.714,24.714,0,0,0,1.8-2.792,17.58,17.58,0,0,0,1.3-3.074l-.069-.039a17.54,17.54,0,0,0-1.961,2.7,24.548,24.548,0,0,0-1.461,2.984l.309-.078a9.974,9.974,0,0,1-1.479-.81c-.466-.315-.881-.71-1.33-1.054a9.777,9.777,0,0,0-1.453-.857,6.46,6.46,0,0,0-1.616-.6Z" transform="translate(-441.581 -265.512)" fill="#ffa6a4"/>
              <path id="Trazado_118206" data-name="Trazado 118206" d="M445.025,291.8a7.07,7.07,0,0,0,1.519,1.126,5.78,5.78,0,0,0,1.726.687,4.468,4.468,0,0,1,1.671.8c.5.376.981.791,1.477,1.116l.375.246.279-.418a11.754,11.754,0,0,0,1.073-1.933,10.3,10.3,0,0,0,.693-2.141l-.087-.048a10.274,10.274,0,0,0-1.438,1.731,11.753,11.753,0,0,0-1.058,1.941l.653-.172a11.206,11.206,0,0,0-1.765-.7,5.1,5.1,0,0,1-1.629-.908,5.3,5.3,0,0,0-1.608-.955,6.531,6.531,0,0,0-1.84-.462Z" transform="translate(-441.423 -264.829)" fill="#ffa6a4"/>
            </g>
          </g>
          <g id="Grupo_55814" data-name="Grupo 55814" transform="translate(15.566)">
            <path id="Trazado_118207" data-name="Trazado 118207" d="M458.078,325.441c1.93-.318,9.17-2.634,8.664-4.524-2.17-8.113-4.341-17.317,3.174-21.286,3.616-1.91,8.155-2.88,10.214-6.413,2.121-3.639.56-8.265-1.344-12.022s-4.194-7.78-3.378-11.912c.853-4.327,4.946-7.521,5.6-11.883.893-5.955-4.89-10.754-10.446-13.08-1.89-.791-3.966-1.466-5.957-.986a7.313,7.313,0,0,0-3.632,2.347c-3.9,4.363-3.743,10.947-2.852,16.734s2.253,11.9.074,17.33c-1.549,3.858-4.861,7.489-3.974,11.551.355,1.627,1.37,3.047,1.757,4.666,1.043,4.367-2.584,8.3-4.248,12.473a15.308,15.308,0,0,0,3.4,16.04,3.4,3.4,0,0,0,2.953.965Z" transform="translate(-450.747 -243.175)" fill="#ffa6a4"/>
            <g id="Grupo_55813" data-name="Grupo 55813" transform="translate(6.631 9.404)">
              <path id="Trazado_118208" data-name="Trazado 118208" d="M457.044,325.035c.448-3.211.894-6.412,1.467-9.589.136-.795.3-1.585.431-2.38s.192-1.6.323-2.39c.24-1.59.507-3.174.811-4.751a62.479,62.479,0,0,1,2.422-9.26,19.253,19.253,0,0,1,2.025-4.187,5.736,5.736,0,0,1,1.464-1.55,7.671,7.671,0,0,0,1.953-1.816,8.026,8.026,0,0,0,1.409-5.039,24.786,24.786,0,0,0-.723-4.943c-.744-3.186-1.681-6.264-2.2-9.4a21.56,21.56,0,0,1,.192-9.3c.253-.729.452-1.473.693-2.216a15.48,15.48,0,0,1,.923-2.164,21.7,21.7,0,0,1,2.7-3.967,18.242,18.242,0,0,0-3.45,3.5,16.605,16.605,0,0,0-1.357,2.111,8.7,8.7,0,0,0-.934,2.348,23.006,23.006,0,0,0-.224,9.936c.542,3.252,1.495,6.376,2.219,9.485a23.4,23.4,0,0,1,.685,4.637,6.562,6.562,0,0,1-1.12,4.138,6.208,6.208,0,0,1-1.583,1.464,7.152,7.152,0,0,0-1.862,1.941,20.646,20.646,0,0,0-2.2,4.517,63.773,63.773,0,0,0-2.484,9.487c-.308,1.6-.579,3.2-.821,4.81-.111.806-.261,1.6-.358,2.411s-.118,1.623-.17,2.433C457.105,318.549,456.984,321.792,457.044,325.035Z" transform="translate(-457.028 -252.083)" fill="#fe7062"/>
              <path id="Trazado_118209" data-name="Trazado 118209" d="M469.578,261.2a4.953,4.953,0,0,0-1.454.864,5.228,5.228,0,0,0-1.137,1.2,7.782,7.782,0,0,1-.967,1.345,12.072,12.072,0,0,1-1.265,1.073l.572.036c-.192-.416-.431-.806-.649-1.2a12.125,12.125,0,0,0-.718-1.155c-.25-.376-.537-.73-.81-1.091s-.584-.7-.832-1.078l-.1.016a3.8,3.8,0,0,0,.286,1.418,9.4,9.4,0,0,0,.587,1.271,8.6,8.6,0,0,0,.758,1.158,12.866,12.866,0,0,0,.874,1.078l.359.376.214-.34a9.565,9.565,0,0,1,.941-1.352,6.588,6.588,0,0,1,1.276-1.043,6.315,6.315,0,0,0,1.16-1.14,10.06,10.06,0,0,0,.962-1.349Z" transform="translate(-456.739 -251.576)" fill="#fe7062"/>
              <path id="Trazado_118210" data-name="Trazado 118210" d="M462.542,272.889a7.91,7.91,0,0,0,.865,1.529,10.936,10.936,0,0,0,1.106,1.327c.417.4.9.738,1.344,1.1a8.046,8.046,0,0,1,1.178,1.255l.112.146.158-.126a13.2,13.2,0,0,0,1.509-1.385c.437-.5.9-.971,1.308-1.489s.791-1.051,1.154-1.6.7-1.122,1.078-1.656l-.056-.081a6.87,6.87,0,0,0-1.635,1.219,15.38,15.38,0,0,0-1.358,1.459c-.423.509-.782,1.066-1.175,1.6s-.707,1.16-1.072,1.614l.269.02a7.087,7.087,0,0,1-1.189-1.236c-.337-.469-.638-.969-.99-1.419a15.193,15.193,0,0,0-1.184-1.234,12.8,12.8,0,0,0-1.345-1.1Z" transform="translate(-456.721 -250.979)" fill="#fe7062"/>
              <path id="Trazado_118211" data-name="Trazado 118211" d="M475.478,281.914c-.609.716-1.241,1.374-1.888,2s-1.345,1.183-2.022,1.79a6.558,6.558,0,0,1-2.359,1.37,8.684,8.684,0,0,1-2.712.3l.4.283a18.339,18.339,0,0,0-.643-2.195,12.289,12.289,0,0,0-.933-2.091,10.233,10.233,0,0,0-1.337-1.891,5.019,5.019,0,0,0-1.88-1.355l-.05.086a7.332,7.332,0,0,1,1.357,1.7,21.181,21.181,0,0,1,1.013,1.919l.9,1.994c.3.667.558,1.364.818,2.04l.126.327.278-.043a15.711,15.711,0,0,0,2.754-.787,27.7,27.7,0,0,0,2.645-1.085,6.921,6.921,0,0,0,2.222-1.825,7.1,7.1,0,0,0,1.391-2.5Z" transform="translate(-456.748 -250.521)" fill="#fe7062"/>
              <path id="Trazado_118212" data-name="Trazado 118212" d="M458.254,288.694a5.483,5.483,0,0,0-.377,2.253,7.345,7.345,0,0,0,.421,2.26,8.114,8.114,0,0,0,1.158,1.973l1.351,1.8.1.128.156-.111a19.668,19.668,0,0,1,2.355-1.327c.791-.425,1.611-.789,2.432-1.138s1.638-.712,2.481-1.028c.835-.342,1.694-.615,2.567-.944l-.015-.1a12.936,12.936,0,0,0-5.455,1.108,17.147,17.147,0,0,0-2.447,1.363,16.538,16.538,0,0,0-2.155,1.791l.252.017a6.235,6.235,0,0,1-1.247-1.78,15.3,15.3,0,0,1-.706-2.031,16.071,16.071,0,0,1-.775-4.211Z" transform="translate(-456.981 -250.044)" fill="#fe7062"/>
            </g>
          </g>
          <g id="Grupo_55816" data-name="Grupo 55816" transform="translate(2.617 68.592)">
            <g id="Grupo_55815" data-name="Grupo 55815">
              <path id="Trazado_118213" data-name="Trazado 118213" d="M445.635,342.759H466.3a4.154,4.154,0,0,0,3.837-3.9l3.271-25.42c.358-2.782-1.46-5.287-3.837-5.287H442.364c-2.376,0-4.2,2.505-3.837,5.287l3.272,25.42A4.152,4.152,0,0,0,445.635,342.759Z" transform="translate(-438.481 -308.149)" fill="#b4dff9"/>
            </g>
            <path id="Trazado_118214" data-name="Trazado 118214" d="M442.364,308.149h4.5c-2.377,0-4.2,2.505-3.837,5.287l3.271,25.42a4.153,4.153,0,0,0,3.837,3.9h-4.5a4.152,4.152,0,0,1-3.837-3.9l-3.272-25.42C438.168,310.654,439.987,308.149,442.364,308.149Z" transform="translate(-438.481 -308.149)" fill="#a2d4f9"/>
          </g>
        </g>
      </g>
      <g id="Grupo_55822" data-name="Grupo 55822" transform="translate(0 0)">
        <g id="Grupo_55819" data-name="Grupo 55819" transform="translate(496.047 159.881)">
          <rect id="Rectángulo_29639" data-name="Rectángulo 29639" width="74.705" height="44.742" rx="6.849" transform="translate(74.705 44.742) rotate(-180)" fill="#a2d4f9"/>
          <path id="Trazado_118215" data-name="Trazado 118215" d="M497.387,215.693h66.644a4.031,4.031,0,0,0,4.031-4.03L530.709,186.87l-37.352,24.794A4.03,4.03,0,0,0,497.387,215.693Z" transform="translate(-493.356 -170.951)" fill="#b4dff9"/>
          <path id="Trazado_118216" data-name="Trazado 118216" d="M497.387,171.791h66.644a4.031,4.031,0,0,1,4.031,4.03l-37.352,24.793-37.352-24.793A4.03,4.03,0,0,1,497.387,171.791Z" transform="translate(-493.356 -171.791)" fill="#fafdff"/>
        </g>
        <g id="Grupo_55820" data-name="Grupo 55820" transform="translate(50.233)">
          <path id="Trazado_118217" data-name="Trazado 118217" d="M76.851,18.076H225.931a8.41,8.41,0,0,1,8.41,8.41V61.353a8.41,8.41,0,0,1-8.41,8.41H210.956l5.1,12.6-16.968-12.6H76.851a8.409,8.409,0,0,1-8.409-8.41V26.486A8.409,8.409,0,0,1,76.851,18.076Z" transform="translate(-68.442 -18.076)" fill="#91b3fa"/>
          <path id="Trazado_118218" data-name="Trazado 118218" d="M83.868,34.3a1.965,1.965,0,0,1,1.965-1.965H199.451a1.965,1.965,0,0,1,0,3.929H85.833A1.965,1.965,0,0,1,83.868,34.3ZM85.833,45.09h129.4a1.965,1.965,0,0,0,0-3.929H85.833a1.965,1.965,0,0,0,0,3.929Zm56.81,8.824h72.589a1.965,1.965,0,0,0,0-3.929H142.642a1.965,1.965,0,1,0,0,3.929Z" transform="translate(-67.583 -17.282)" fill="#fff"/>
        </g>
        <g id="Grupo_55825" data-name="Grupo 55825" transform="translate(357.156 15.901)">
          <path id="Trazado_118217-2" data-name="Trazado 118217" d="M186.974,18.076H74.771a6.329,6.329,0,0,0-6.329,6.329V50.647a6.329,6.329,0,0,0,6.329,6.329H86.042L82.2,66.457l12.771-9.48h92a6.329,6.329,0,0,0,6.329-6.329V24.405A6.329,6.329,0,0,0,186.974,18.076Z" transform="translate(-68.442 -18.076)" fill="#fe7062"/>
          <path id="Trazado_118218-2" data-name="Trazado 118218" d="M184.214,33.815a1.479,1.479,0,0,0-1.479-1.479H97.223a1.479,1.479,0,1,0,0,2.957h85.513A1.479,1.479,0,0,0,184.214,33.815Zm-1.479,8.12H85.346a1.479,1.479,0,0,1,0-2.957h97.39a1.479,1.479,0,1,1,0,2.957Zm-42.757,6.642H85.346a1.479,1.479,0,0,1,0-2.957h54.633a1.479,1.479,0,1,1,0,2.957Z" transform="translate(-71.61 -21.006)" fill="#fff"/>
        </g>
        <path id="Trazado_118219" data-name="Trazado 118219" d="M24.139,165.531a17.534,17.534,0,0,0,21.355,27.474l13.752,13.752-4.653,4.654a1.544,1.544,0,0,0,0,2.185l3.221,3.221a1.546,1.546,0,0,0,2.186,0l4.653-4.653,2.821,2.821-5.447,5.447a1.546,1.546,0,0,0,0,2.186l3.221,3.22a1.546,1.546,0,0,0,2.186,0l5.446-5.446,2.094,2.093a1.546,1.546,0,0,0,2.186,0l3.931-3.932a1.546,1.546,0,0,0,0-2.186l-29.48-29.48a17.534,17.534,0,0,0-27.474-21.356Zm5.492,5.493a9.777,9.777,0,1,1,0,13.826A9.776,9.776,0,0,1,29.631,171.024Z" transform="translate(-19 85.664)" fill="#1a0f91"/>
        <g id="Grupo_55821" data-name="Grupo 55821" transform="matrix(0.891, 0.454, -0.454, 0.891, 511.796, 214.57)">
          <path id="Trazado_118220" data-name="Trazado 118220" d="M518.677,263.712a3.286,3.286,0,0,1,.6-3.165,26.678,26.678,0,0,1,3.018-3.363,30.392,30.392,0,0,0,3.458-3.963,15.5,15.5,0,0,0,1.9-3.3,12.535,12.535,0,0,0,.878-3.3,12.123,12.123,0,0,0-.069-3.331,19.384,19.384,0,0,0-.874-3.413,15.94,15.94,0,0,0-3.821-6.336,13.318,13.318,0,0,0-5.326-3.222,16.638,16.638,0,0,0-6.008-.719,21.529,21.529,0,0,0-5.831,1.16,19.49,19.49,0,0,0-6.1,3.409,16.775,16.775,0,0,0-4.136,5.04,14.916,14.916,0,0,0-1.711,6.27l10.978,3.157c.213-.619.432-1.359.645-2.224a7.808,7.808,0,0,1,1.15-2.524A4.978,4.978,0,0,1,510,242.048a5.627,5.627,0,0,1,2.3-.322,4.2,4.2,0,0,1,2.036.695,3.25,3.25,0,0,1,1.286,1.679,4.437,4.437,0,0,1-.088,3.13,12.368,12.368,0,0,1-1.782,3.162,27.607,27.607,0,0,1-2.409,2.777q-1.237,1.241-1.883,1.95a11.561,11.561,0,0,0-2.775,4.4,8.92,8.92,0,0,0-.312,4.1,24.063,24.063,0,0,0,1.054,4.056Zm1.2,20.7h0a5.964,5.964,0,0,0,3.65-7.6l-.229-.649a5.963,5.963,0,0,0-7.6-3.65h0a5.964,5.964,0,0,0-3.648,7.6l.228.649A5.964,5.964,0,0,0,519.876,284.412Z" transform="translate(-494.656 -229.571)" fill="#fff"/>
        </g>
      </g>
    </g>
  </g>
</svg>
