<svg xmlns="http://www.w3.org/2000/svg" width="254" height="421" viewBox="0 0 254 421">
  <g id="Grupo_57047" data-name="Grupo 57047" transform="translate(-1118 -3655)">
    <rect id="Rectángulo_29524" data-name="Rectángulo 29524" width="254" height="421" transform="translate(1118 3655)" fill="none"/>
    <g id="Grupo_57045" data-name="Grupo 57045" transform="translate(-575.325 3470.856)">
      <path id="Trazado_120632" data-name="Trazado 120632" d="M1948.57,531.409c-5.75-12.268-12.177-26.358-17.246-40.512-7.914-22.1-12.511-44.341-6.03-60.01.225-.546.465-1.086.718-1.615,12.71-26.6,11.6-50.921,4.847-70.172a87.2,87.2,0,0,0-19.6-31.911c-4.918-4.993-9.83-8.492-13.936-10.227-27.176-11.482-62.762-21.8-154.26,43.062a137.609,137.609,0,0,0-20.121,47.231,198.569,198.569,0,0,0-4.441,33.593c-.631,12.426-.643,25.278,1.015,37.564a163.859,163.859,0,0,0,9.1,34.656c4.135,11.258,8.582,22.284,12.56,33.646a142.162,142.162,0,0,1,8.093,40.6,153.893,153.893,0,0,1-3.909,40.484c-3.156,14.037-7.918,27.321-12.565,40.569q-.538,1.535-1.081,3.066c56.956-.411,117.137-.893,159.934-1.245l11.536-.092q5.485-.046,10.45-.09,3.482-.025,6.69-.056c9.04-.073,16.357-.132,21.522-.176l7.33-.062C1949.523,668.639,1986.813,613,1948.57,531.409Z" transform="translate(-21.784 -95.292)" fill="#57dbd8" opacity="0.348"/>
      <g id="Grupo_57041" data-name="Grupo 57041" transform="translate(1784.102 219.954)">
        <path id="Trazado_120683" data-name="Trazado 120683" d="M0,0H104.009V133.715H0Z" transform="translate(3.806 77.075) rotate(-10.086)" fill="#fff"/>
        <g id="Grupo_57035" data-name="Grupo 57035" transform="translate(17.018 85.05)">
          <g id="Grupo_57034" data-name="Grupo 57034">
            <path id="Trazado_120633" data-name="Trazado 120633" d="M2206.247,693.2l-29.765,5.294a.575.575,0,0,1-.667-.466h0a.576.576,0,0,1,.466-.667l29.765-5.295a.575.575,0,0,1,.667.466h0A.575.575,0,0,1,2206.247,693.2Z" transform="translate(-2175.805 -692.056)" fill="#aec3ff"/>
            <path id="Trazado_120634" data-name="Trazado 120634" d="M2209.393,710.885l-29.765,5.294a.575.575,0,0,1-.667-.466h0a.576.576,0,0,1,.466-.667l29.765-5.294a.576.576,0,0,1,.667.466h0A.575.575,0,0,1,2209.393,710.885Z" transform="translate(-2178.261 -705.863)" fill="#aec3ff"/>
            <path id="Trazado_120635" data-name="Trazado 120635" d="M2212.539,728.572l-29.765,5.295a.575.575,0,0,1-.667-.466h0a.576.576,0,0,1,.466-.667l29.766-5.294a.575.575,0,0,1,.667.466h0A.575.575,0,0,1,2212.539,728.572Z" transform="translate(-2180.717 -719.669)" fill="#aec3ff"/>
          </g>
          <path id="Trazado_120636" data-name="Trazado 120636" d="M2403.562,746.354l-20.552,3.655a.828.828,0,0,1-.96-.67h0a.828.828,0,0,1,.67-.96l20.552-3.656a.828.828,0,0,1,.96.67h0A.828.828,0,0,1,2403.562,746.354Z" transform="translate(-2336.791 -733.159)" fill="#aec3ff"/>
          <path id="Trazado_120637" data-name="Trazado 120637" d="M2516.085,731.346l-12.64,2.248a.828.828,0,0,1-.961-.67h0a.829.829,0,0,1,.671-.96l12.64-2.248a.828.828,0,0,1,.96.67h0A.828.828,0,0,1,2516.085,731.346Z" transform="translate(-2430.802 -721.444)" fill="#aec3ff"/>
          <path id="Trazado_120638" data-name="Trazado 120638" d="M2424.135,761.043l-31.573,5.616a.827.827,0,0,1-.96-.67h0a.827.827,0,0,1,.67-.96l31.573-5.616a.828.828,0,0,1,.96.67h0A.828.828,0,0,1,2424.135,761.043Z" transform="translate(-2344.248 -744.625)" fill="#aec3ff"/>
          <path id="Trazado_120639" data-name="Trazado 120639" d="M2370.981,832l-20.552,3.656a.828.828,0,0,1-.96-.67h0a.828.828,0,0,1,.67-.96l20.552-3.656a.828.828,0,0,1,.96.67h0A.828.828,0,0,1,2370.981,832Z" transform="translate(-2311.358 -800.016)" fill="#aec3ff"/>
          <path id="Trazado_120640" data-name="Trazado 120640" d="M2483.5,816.994l-12.64,2.248a.828.828,0,0,1-.96-.67h0a.828.828,0,0,1,.67-.96l12.64-2.248a.828.828,0,0,1,.96.67h0A.828.828,0,0,1,2483.5,816.994Z" transform="translate(-2405.37 -788.301)" fill="#aec3ff"/>
          <path id="Trazado_120641" data-name="Trazado 120641" d="M2401.758,833.808l-49.36,8.78a.828.828,0,0,1-.96-.67h0a.828.828,0,0,1,.67-.96l49.359-8.78a.828.828,0,0,1,.96.67h0A.828.828,0,0,1,2401.758,833.808Z" transform="translate(-2312.895 -801.425)" fill="#aec3ff"/>
          <path id="Trazado_120642" data-name="Trazado 120642" d="M2379.349,885.875l-20.552,3.656a.827.827,0,0,1-.96-.67h0a.827.827,0,0,1,.67-.96l20.552-3.656a.828.828,0,0,1,.96.67h0A.828.828,0,0,1,2379.349,885.875Z" transform="translate(-2317.891 -842.069)" fill="#aec3ff"/>
          <path id="Trazado_120643" data-name="Trazado 120643" d="M2495.595,871.115l-12.64,2.248a.828.828,0,0,1-.96-.67h0a.828.828,0,0,1,.67-.96l12.64-2.248a.828.828,0,0,1,.96.67h0A.828.828,0,0,1,2495.595,871.115Z" transform="translate(-2414.808 -830.548)" fill="#aec3ff"/>
          <path id="Trazado_120644" data-name="Trazado 120644" d="M2393.689,902.86l-31.573,5.616a.828.828,0,0,1-.96-.67h0a.828.828,0,0,1,.67-.96l31.573-5.616a.827.827,0,0,1,.96.67h0A.828.828,0,0,1,2393.689,902.86Z" transform="translate(-2320.481 -855.328)" fill="#aec3ff"/>
          <path id="Trazado_120645" data-name="Trazado 120645" d="M2249.029,1154.628l-20.552,3.656a.828.828,0,0,1-.96-.67h0a.828.828,0,0,1,.67-.96L2248.74,1153a.829.829,0,0,1,.96.67h0A.828.828,0,0,1,2249.029,1154.628Z" transform="translate(-2216.162 -1051.859)" fill="#aec3ff"/>
          <path id="Trazado_120646" data-name="Trazado 120646" d="M2365.275,1139.869l-12.641,2.248a.828.828,0,0,1-.96-.67h0a.828.828,0,0,1,.67-.96l12.64-2.248a.828.828,0,0,1,.96.67h0A.828.828,0,0,1,2365.275,1139.869Z" transform="translate(-2313.079 -1040.338)" fill="#aec3ff"/>
          <path id="Trazado_120647" data-name="Trazado 120647" d="M2263.37,1171.614l-31.573,5.616a.827.827,0,0,1-.96-.67h0a.827.827,0,0,1,.669-.96l31.573-5.616a.828.828,0,0,1,.96.67h0A.828.828,0,0,1,2263.37,1171.614Z" transform="translate(-2218.753 -1065.118)" fill="#aec3ff"/>
        </g>
        <g id="Grupo_57037" data-name="Grupo 57037" transform="translate(15.546)">
          <path id="Trazado_120648" data-name="Trazado 120648" d="M2249.409,496.427s4.866,5.379,5.143,7.849-2.186,7.924-1,10.3c.368.74,5.958,8.106,7.671,8.522,1.159.282,2.833-2.617,1.173-5.441-1.68-2.86-2.012-8.538-1.74-11.037.463-4.263,3.483-14.179,4.034-12.317l9.41-1.493-8.911-3.648Z" transform="translate(-2231.789 -448.627)" fill="#e59365"/>
          <path id="Trazado_120649" data-name="Trazado 120649" d="M2234.375,528.321s-.833,10.8-.007,14.924c.331,1.654,1.928,6.973,3.507,7.547,2.606.947,4.031-3.632,2.9-8.6-.31-1.36,1.831-9.754,3.26-13.591,3.551-9.54,5.694-15.283,5.694-15.283Z" transform="translate(-2219.762 -467.48)" fill="#f2a36d"/>
          <g id="Grupo_57036" data-name="Grupo 57036">
            <path id="Trazado_120650" data-name="Trazado 120650" d="M2261.426,376.286c-2.309,1.355-4.466,2.638-6.343,3.776-1.044.637-2,1.226-2.849,1.759-1.364.86-2.435,1.566-3.111,2.068-1.731,1.281-4.573,2.844-6.668,4.99l0,0s-.008.005-.012.009a9.88,9.88,0,0,0-4.423,8.377c-.385,5.161-5.181,12.75-11.7,20.345a60.545,60.545,0,0,0-7.772,12.6c-.355.788-1.018,2.615-1.783,4.547-1.064,2.693-2.324,5.59-3.222,6.162a1.447,1.447,0,0,1-1.2-.078,7.653,7.653,0,0,1-3.55-2.919c-1.539-3.18-.341-8.04,2.6-15.725,2.8-7.321,2.4-11.017,1.314-14.285a7.72,7.72,0,0,0-4.867-5.4,23.731,23.731,0,0,0-3.057-1.118,13.336,13.336,0,0,0-5.4-.446,9.48,9.48,0,0,0-2.053.53,9.7,9.7,0,0,0-4.378,3.45c-.042.056-.083.112-.127.167v0h0a16.274,16.274,0,0,1-1.745,1.912c-1.262,1.2-2.688,2.275-3.995,3.367a16.045,16.045,0,0,0-3.257,3.394v0a6.3,6.3,0,0,0-.959,2.377c-.478,2.8-1.907,5.572-3.331,8.644v0a39.8,39.8,0,0,0-2.72,7.269c-1.591,6.419-5.227,7.1-7.133,5.16-.024-.023-.049-.049-.072-.074-.584-.63-.59-4.105-.434-7.231.116-2.34.321-4.485.443-5.1.373-1.9,3.541-9.386,5.063-17.121,1.136-5.77,10.156-14.389,16.511-25.766,3.164-5.661,15.334-7.221,28.053-14.6.684-.4,1.434-.667,2.144-1.014h0q3.045-1.49,5.963-3.209a83.816,83.816,0,0,1,8.6.394q2.906.281,5.829.752h0q4.64.746,9.3,1.948A100.68,100.68,0,0,1,2261.426,376.286Z" transform="translate(-2169.095 -350.232)" fill="#ffb27d"/>
            <path id="Trazado_120651" data-name="Trazado 120651" d="M2441.724,368.448l-2.2,1.419-.576.371-10.2,6.585-.43-.46-21.105-22.514.061-.052h0s9.232-6.576,9.94-6.662c.2-.025.389-.049.583-.071,1.044.856,2.675,2.269,4.61,3.974,6.2,5.462,15.495,13.921,18.412,16.58Z" transform="translate(-2354.967 -337.704)" fill="#9fc1f4"/>
            <path id="Trazado_120652" data-name="Trazado 120652" d="M2492.69,329.151l-13.079,9.372s-2.058-.762-4.5-1.963c-.419-.206-.851-.425-1.285-.656a26.165,26.165,0,0,1-4.307-2.768c-5.7-4.7-10.936-11.261-14.134-15.632,0,0,0,0,0,0-1.151-1.57-2.037-2.857-2.586-3.673.1-.013,6.314-4.642,12.992-9.431C2475.992,310.25,2486.224,318.746,2492.69,329.151Z" transform="translate(-2390.55 -304.399)" fill="#f99746"/>
            <path id="Trazado_120653" data-name="Trazado 120653" d="M2514.317,452.116a1.19,1.19,0,1,1,.388,1.638A1.19,1.19,0,0,1,2514.317,452.116Z" transform="translate(-2438.438 -419.266)" fill="#2a4e96"/>
          </g>
        </g>
        <path id="Trazado_120654" data-name="Trazado 120654" d="M2098.237,622.734l56.975-10.134-7.019,31.521-40.448,8.994Z" transform="translate(-2098.237 -544.981)" fill="#f6f6f6"/>
        <g id="Grupo_57040" data-name="Grupo 57040" transform="translate(71.649 140.157)">
          <g id="Grupo_57038" data-name="Grupo 57038" transform="translate(0 3.773)">
            <path id="Trazado_120655" data-name="Trazado 120655" d="M2462.609,972.384a19.692,19.692,0,1,0-10.371,25.844A19.611,19.611,0,0,0,2462.609,972.384Zm-11.27,23.745a17.409,17.409,0,1,1,9.168-22.848A17.427,17.427,0,0,1,2451.339,996.129Z" transform="translate(-2424.809 -960.429)" fill="#8c9df4"/>
          </g>
          <g id="Grupo_57039" data-name="Grupo 57039" transform="translate(4.681)">
            <path id="Trazado_120656" data-name="Trazado 120656" d="M2462.263,976.256a3.341,3.341,0,0,1-2.075-.711l-12.767-10.007a3.338,3.338,0,0,1,4.119-5.254l9.4,7.368,10.007-22.442a3.338,3.338,0,1,1,6.1,2.719L2465.3,974.277a3.336,3.336,0,0,1-3.033,1.979Z" transform="translate(-2446.143 -943.231)" fill="#f77d48"/>
          </g>
        </g>
      </g>
      <path id="Trazado_120659" data-name="Trazado 120659" d="M1830.182,1507.945l-19.787.092c-1.065-.895.72-2.945,2.594-3.091a11.546,11.546,0,0,1,3.022.343c.256-3.618,1.735-19.883,7.6-19.257,6.593.7.033,7.16-1.812,10.974a90.5,90.5,0,0,0-3.46,8.786c.535.114,1.09.225,1.656.326.861-2.685,4.069-11.721,8.2-11.215,4.855.593,2.921,4.219-.508,6.381-2.516,1.59-5.6,3.849-7.071,4.94a21.031,21.031,0,0,0,3.871.292C1827.879,1506.42,1829.538,1507.411,1830.182,1507.945Z" transform="translate(-94.162 -932.408)" fill="#d2e0ff"/>
      <path id="Trazado_120660" data-name="Trazado 120660" d="M2006.437,1582.191v.154a.3.3,0,0,1-.265.323l-55.5.308-7.052.046-161.364.909a.3.3,0,0,1-.265-.324v-.138a.291.291,0,0,1,.265-.323l51.479-.293,11.22-.062,22.78-.123,13.1-.077,18.02-.108,11.22-.061,30.109-.17,13.575-.077,52.411-.292C2006.324,1581.867,2006.437,1582.022,2006.437,1582.191Z" transform="translate(-72.062 -1007.855)" fill="#233862"/>
      <g id="Grupo_57043" data-name="Grupo 57043" transform="matrix(0.978, -0.208, 0.208, 0.978, 1794.945, 480.911)">
        <rect id="Rectángulo_30060" data-name="Rectángulo 30060" width="73.854" height="56.957" transform="translate(13.681 72.733) rotate(-79)" fill="#c2d5e5"/>
        <rect id="Rectángulo_30061" data-name="Rectángulo 30061" width="73.854" height="56.956" transform="translate(11.963 72.497) rotate(-79.002)" fill="#e3e8ec"/>
        <rect id="Rectángulo_30062" data-name="Rectángulo 30062" width="56.956" height="73.854" transform="translate(4.283 13.234) rotate(-12.225)" fill="#f1f5f9"/>
        <rect id="Rectángulo_30063" data-name="Rectángulo 30063" width="56.957" height="73.854" transform="translate(2.782 13.547) rotate(-12.226)" fill="#fff"/>
        <g id="_10" data-name="10" transform="translate(0 13.95)">
          <g id="Grupo_57042" data-name="Grupo 57042">
            <path id="Trazado_120661" data-name="Trazado 120661" d="M56.3,40.488,56.427.166,2.418,0A2.178,2.178,0,0,0,.925.587l0,.007A2.166,2.166,0,0,0,.222,2.189L0,74.065l57.408.178a3.719,3.719,0,0,0,.444-.254h0c2.311-1.293,2.938-4.315,2.948-7.232L60.859,47.4Z" transform="translate(1.826)" fill="#e0a830"/>
            <path id="Trazado_120662" data-name="Trazado 120662" d="M56.3,40.488,56.426.166,2.418,0A2.178,2.178,0,0,0,.925.587l0,.007A2.166,2.166,0,0,0,.222,2.189L0,74.065l57.408.178a3.8,3.8,0,0,0,.444-.254h0c2.311-1.293,2.938-4.315,2.948-7.232l.06-19.353Z" fill="#fe7062"/>
            <rect id="Rectángulo_30064" data-name="Rectángulo 30064" width="53.96" height="6.94" transform="matrix(0.003, -1, 1, 0.003, 42.952, 65.868)" fill="#fff"/>
          </g>
        </g>
      </g>
      <g id="Grupo_57046" data-name="Grupo 57046" transform="translate(1874.543 394.641) rotate(20)">
        <rect id="Rectángulo_30060-2" data-name="Rectángulo 30060" width="62.751" height="48.394" transform="matrix(-0.191, -0.982, 0.982, -0.191, 11.973, 71.032)" fill="#c2d5e5"/>
        <rect id="Rectángulo_30061-2" data-name="Rectángulo 30061" width="62.75" height="48.394" transform="translate(13.433 70.83) rotate(-100.998)" fill="#e3e8ec"/>
        <rect id="Rectángulo_30062-2" data-name="Rectángulo 30062" width="48.394" height="62.75" transform="translate(54.176 72.572) rotate(-167.775)" fill="#f1f5f9"/>
        <rect id="Rectángulo_30063-2" data-name="Rectángulo 30063" width="48.394" height="62.751" transform="matrix(-0.977, -0.212, 0.212, -0.977, 55.45, 72.838)" fill="#fff"/>
        <g id="_10-2" data-name="10" transform="translate(17.841 11.853)">
          <g id="Grupo_57042-2" data-name="Grupo 57042">
            <path id="Trazado_120661-2" data-name="Trazado 120661" d="M3.872,34.4,3.766.141,49.655,0a1.85,1.85,0,0,1,1.268.5l0,.006a1.841,1.841,0,0,1,.6,1.355l.188,61.07-48.777.151a3.186,3.186,0,0,1-.377-.216h0C.592,61.766.059,59.2.051,56.72L0,40.277Z" fill="#e0a830"/>
            <path id="Trazado_120662-2" data-name="Trazado 120662" d="M3.872,34.4,3.767.141,49.655,0a1.852,1.852,0,0,1,1.269.5l0,.006a1.84,1.84,0,0,1,.6,1.355l.188,61.07-48.778.151a3.225,3.225,0,0,1-.377-.216h0C.592,61.766.059,59.2.051,56.72L0,40.277Z" transform="translate(1.551)" fill="#fe7062"/>
            <rect id="Rectángulo_30064-2" data-name="Rectángulo 30064" width="45.848" height="5.897" transform="translate(10.87 55.984) rotate(-90.178)" fill="#fff"/>
          </g>
        </g>
      </g>
      <g id="Grupo_57044" data-name="Grupo 57044" transform="translate(1699.564 248.474)">
        <path id="Trazado_120663" data-name="Trazado 120663" d="M1946.115,1549.177s-.024-5.135.78-6.847,3.748-8.678,3.748-8.678l11.634-.054s2.193,6.333,2.338,8.406.033,7.088.033,7.088Z" transform="translate(-1911.312 -1222.601)" fill="#1b3051"/>
        <path id="Trazado_120664" data-name="Trazado 120664" d="M2130.847,1548.521s-.023-5.136-.763-6.84-3.456-8.645-3.456-8.645l-10.491.048s-1.922,6.352-2.034,8.426.032,7.088.032,7.088Z" transform="translate(-2029.437 -1222.206)" fill="#1b3051"/>
        <path id="Trazado_120665" data-name="Trazado 120665" d="M1992.926,599.844s-.317,11.437-1.757,16.568l-11.547,8.135,43.639,6.323-10.467-14.321s-3.211-15.319-1.59-21S1992.926,599.844,1992.926,599.844Z" transform="translate(-1934.879 -561.591)" fill="#ffb27d"/>
        <path id="Trazado_120666" data-name="Trazado 120666" d="M2024.28,619.494s3.487,8.286,9.981,8.073S2042.2,620,2042.2,620Z" transform="translate(-1966.29 -579.662)" fill="#ed985f"/>
        <path id="Trazado_120667" data-name="Trazado 120667" d="M2000.574,518.347s-2.147-10.462-3.625-13.627-2.764-17.309,13.457-18.116c0,0,6.224.7,9.63-1.386,0,0,.01,2.074-.841,2.81a10.782,10.782,0,0,1,10.019,3.491c4.415,4.859-2.825,21.971-2.44,25.994Z" transform="translate(-1946.492 -485.218)" fill="#2c3a64"/>
        <path id="Trazado_120668" data-name="Trazado 120668" d="M2023.381,561.416c-4.707-.061-13.4-6.288-13.435-14.049l-.056-12.111c-.013-2.834,1.952-5.162,4.368-5.173l17.956-.083c2.415-.011,4.4,2.3,4.415,5.132l.053,11.425C2036.719,554.7,2028.779,561.487,2023.381,561.416Z" transform="translate(-1956.168 -516.716)" fill="#ffb27d"/>
        <path id="Trazado_120669" data-name="Trazado 120669" d="M2008.49,535.328s-.01-7.277,5.75-8.423,18.68,3.46,20.484-1.855-24.958-5.1-26.29-1.708S2008.49,535.328,2008.49,535.328Z" transform="translate(-1954.738 -510.321)" fill="#2c3a64"/>
        <path id="Trazado_120670" data-name="Trazado 120670" d="M1944.057,986.692s2.1,56.038-.5,88.03.374,76.483.374,76.483a20.756,20.756,0,0,0,18.292-.085s10.148-61.828,10.014-76.531c-.142-15.658,10.961-85.635,10.961-85.635Z" transform="translate(-1908.764 -837.932)" fill="#2b478b"/>
        <path id="Trazado_120671" data-name="Trazado 120671" d="M2072.5,1149.953a20.744,20.744,0,0,1-18.29.085s-10.719-61.731-10.722-76.435c0-6.613-2.1-22.9-4.519-39.5-3.315-22.714-7.236-46.025-7.236-46.025l40.634-2.728s-3.092,56.159-.2,88.123S2072.5,1149.953,2072.5,1149.953Z" transform="translate(-1971.532 -836.986)" fill="#2b478b"/>
        <path id="Trazado_120672" data-name="Trazado 120672" d="M2060.647,1142.929c0-6.613-2.1-22.9-4.52-39.5,2.387-9.936,8.271-19.514,8.271-19.514C2072,1104.921,2060.647,1142.929,2060.647,1142.929Z" transform="translate(-1988.69 -906.313)" fill="#233862"/>
        <path id="Trazado_120673" data-name="Trazado 120673" d="M1964.923,722.911c-14.321-34.522-39.768-52.231-58.217-52.753-4.022,5.394-6.923,6.656-10.615,8.137-5.958-.8-11.009-8.106-11.01-8.274-6.491.7-35.735,4.117-55.407,52.392-1.534,3.763-1.79,12.7,5.314,21.466,5.053,6.235,12.963,14.359,25.215,23.894a41.8,41.8,0,0,0,2.173-6.458s-7.322-14.088-11.736-23.63c-2.144-4.645-4.649-9.962,11.243-20.9.451,12.13,2.468,26.5.974,39.489-1.995,17.33,1.517,17.007,1.517,17.007s4.732.9,11.331,1.748a160.216,160.216,0,0,0,20.357,1.461c15.809-.073,33.121-3.509,33.121-3.509,1.891.015,2.619-4.286,2.739-10.65a39.341,39.341,0,0,0,1.853,5.1c12.164-9.648,20-17.845,24.993-24.126C1965.792,734.471,1966.48,726.664,1964.923,722.911Zm-21.863,14.345c-3.517,8.332-9.559,19.862-11.118,22.951-.007-10.375-1.3-25.013-1.89-35.863-.194-3.574-.4-6.9-.606-9.989C1939.157,722.1,1948.058,725.415,1943.06,737.255Z" transform="translate(-1828.792 -615.199)" fill="#f9ddbf"/>
        <path id="Trazado_120674" data-name="Trazado 120674" d="M2012.238,660.611s-2.968.976-3.506,3.174c0,0,8.838,7.793,13.921,7.892Z" transform="translate(-1955.354 -608.582)" fill="#f99746"/>
        <path id="Trazado_120675" data-name="Trazado 120675" d="M2055.661,670.495l9.971-11.564s3.118,1.352,3.1,3.594C2068.731,662.525,2059.972,670.78,2055.661,670.495Z" transform="translate(-1988.361 -607.4)" fill="#f99746"/>
        <path id="Trazado_120676" data-name="Trazado 120676" d="M2037.128,694.913s-7.346,66.09-4.644,74.129a55.093,55.093,0,0,0,4.714,10.211,2.713,2.713,0,0,0,4.694-.032c2.016-3.537,4.647-8.654,4.635-11.245-.02-4.2-6.145-73.135-6.145-73.135Z" transform="translate(-1971.64 -632.657)" fill="#f99746"/>
        <path id="Trazado_120677" data-name="Trazado 120677" d="M2041.285,683.5a48.223,48.223,0,0,1,7.439-.212.779.779,0,0,1,.6,1.155c-.782,1.424-2.382,3.894-4.066,3.9C2042.9,688.355,2039.188,683.672,2041.285,683.5Z" transform="translate(-1977.814 -624.472)" fill="#f99746"/>
        <path id="Trazado_120678" data-name="Trazado 120678" d="M2042.607,608.881a5.147,5.147,0,0,0,4.035,1.893,4.789,4.789,0,0,0,3.755-1.93A25.535,25.535,0,0,0,2042.607,608.881Z" transform="translate(-1979.18 -571.964)" fill="#fff"/>
        <path id="Trazado_120679" data-name="Trazado 120679" d="M1934.824,972.157s5.642-5.134,9.258-2.727c3.824,2.547,5.545,6.323,3.4,6.594-2.089.264-8.619-.471-9.224.508s-3.329,2.856-4.166,1.379S1934.824,972.157,1934.824,972.157Z" transform="translate(-1902.684 -825.339)" fill="#ffb27d"/>
        <path id="Trazado_120680" data-name="Trazado 120680" d="M1877.068,921.746a41.826,41.826,0,0,1-2.173,6.459c-12.252-9.535-20.161-17.659-25.215-23.894,3.786-.3,9.31-1.679,15.652-6.195C1869.746,907.658,1877.068,921.746,1877.068,921.746Z" transform="translate(-1843.484 -775.632)" fill="#ffb27d"/>
        <path id="Trazado_120681" data-name="Trazado 120681" d="M2151.726,973.128s-4.854-4.45-9.076-1.439c-2.356,1.68-4,6.1-1.928,5.729s6.995-.855,7.609.118,2.853,2.4,4.178,1.34C2154.127,977.58,2151.726,973.128,2151.726,973.128Z" transform="translate(-2047.524 -826.645)" fill="#ffb27d"/>
        <path id="Trazado_120682" data-name="Trazado 120682" d="M2175.168,920.411a41.877,41.877,0,0,0,2.233,6.438c12.164-9.648,20-17.845,24.992-24.126-3.789-.265-9.324-1.593-15.709-6.049C2182.36,906.255,2175.168,920.411,2175.168,920.411Z" transform="translate(-2072.417 -774.617)" fill="#ffb27d"/>
        <g id="Grupo_57049" data-name="Grupo 57049" transform="translate(58.299 18.623)">
          <path id="Trazado_118749" data-name="Trazado 118749" d="M199.21,146.28a1.22,1.22,0,0,0,1.21,1.21,1.17,1.17,0,0,0,1.239-1.1v-.023a1.229,1.229,0,0,0-1.2-1.22,1.181,1.181,0,0,0-1.249,1.107Z" transform="translate(-197.778 -138.325)" fill="#263238"/>
          <path id="Trazado_118750" data-name="Trazado 118750" d="M198.241,144.47c.15.16,1.07-.54,2.38-.56s2.29.62,2.43.46-.09-.36-.51-.66a3.317,3.317,0,0,0-1.95-.56,3.245,3.245,0,0,0-1.9.65C198.3,144.13,198.161,144.47,198.241,144.47Z" transform="translate(-198.219 -138.325)" fill="#263238"/>
          <path id="Trazado_118751" data-name="Trazado 118751" d="M186.47,146.06a1.221,1.221,0,0,0,1.2,1.21,1.17,1.17,0,0,0,1.239-1.1v-.023a1.229,1.229,0,0,0-1.2-1.22,1.169,1.169,0,0,0-1.238,1.1Z" transform="translate(-172.288 -138.325)" fill="#263238"/>
          <path id="Trazado_118752" data-name="Trazado 118752" d="M185.3,144.47c.16.16,1.07-.54,2.39-.56s2.29.62,2.43.45-.09-.35-.52-.65a3.4,3.4,0,0,0-1.95-.57,3.252,3.252,0,0,0-1.89.65C185.357,144.15,185.227,144.47,185.3,144.47Z" transform="translate(-172.345 -138.325)" fill="#263238"/>
          <path id="Trazado_118753" data-name="Trazado 118753" d="M197.677,154.35a8.435,8.435,0,0,0-2.14-.35c-.34,0-.66-.09-.72-.32a1.716,1.716,0,0,1,.21-1l.95-2.57a44.387,44.387,0,0,0,2.11-6.73,44.757,44.757,0,0,0-2.65,6.54c-.31.91-.62,1.77-.9,2.59a2,2,0,0,0-.16,1.32.893.893,0,0,0,.57.49,2.026,2.026,0,0,0,.57.06A8.872,8.872,0,0,0,197.677,154.35Z" transform="translate(-189.326 -138.325)" fill="#263238"/>
          <path id="Trazado_118757" data-name="Trazado 118757" d="M184.562,139.36c.14.36,1.45.16,3,.32s2.81.56,3,.24c.08-.16-.14-.49-.65-.83a5.19,5.19,0,0,0-4.56-.42C184.782,138.91,184.5,139.19,184.562,139.36Z" transform="translate(-172.04 -138.325)" fill="#263238"/>
          <path id="Trazado_118758" data-name="Trazado 118758" d="M198.22,140.68c.23.29,1.13,0,2.22-.07s2,.17,2.22-.15c.1-.15-.06-.45-.46-.72a3,3,0,0,0-1.82-.46,3.151,3.151,0,0,0-1.77.63C198.23,140.23,198.11,140.54,198.22,140.68Z" transform="translate(-197.778 -138.325)" fill="#263238"/>
        </g>
      </g>
    </g>
  </g>
</svg>
