<svg xmlns="http://www.w3.org/2000/svg" width="353" height="305" viewBox="0 0 353 305">
  <g id="Grupo_56006" data-name="Grupo 56006" transform="translate(-223 -5953)">
    <rect id="Rectángulo_29477" data-name="Rectángulo 29477" width="353" height="305" transform="translate(223 5953)" fill="none"/>
    <g id="Grupo_56005" data-name="Grupo 56005" transform="translate(-403 84)">
      <g id="Grupo_56004" data-name="Grupo 56004" transform="translate(639 5905)">
        <g id="Grupo_55978" data-name="Grupo 55978" transform="translate(219.839 94.432)">
          <path id="Trazado_119226" data-name="Trazado 119226" d="M236.482,240.257h86.612s10.292-36.6,4.857-40.38-10.124,11.546-15.284-6.908-9.2-41.046-25.757-37.993S268.886,204.73,257.437,206.7,234.592,226.539,236.482,240.257Z" transform="translate(-228.298 -154.696)" fill="#57dbd8"/>
          <line id="Línea_552" data-name="Línea 552" x2="88.181" transform="translate(0 85.56)" fill="none" stroke="#1a0f91" stroke-miterlimit="10" stroke-width="1"/>
        </g>
        <g id="Grupo_55979" data-name="Grupo 55979" transform="translate(29.555 0)">
          <path id="Trazado_119227" data-name="Trazado 119227" d="M40.375,105.2h99.539s-14.673-4.255-17.112-9.54-4.166-8.553-9.045-8.96-7.129.407-11.594-6.3-10.97-9.351-16.458-7.522S75.949,90.772,67.207,92.6s-11.587.2-14.433,1.83S43.017,104.594,40.375,105.2Z" transform="translate(-40.375 -61.257)" fill="#91b3fa"/>
          <path id="Trazado_119228" data-name="Trazado 119228" d="M226.573,103.829H327.064s2.433-9.808-3.76-12.858-7.521,2.615-13.049-1.09,1.769-25.935-8.184-28.332-22.855,22.883-34.763,22.23-15.667-2.179-20.09,1.308S231.144,103.176,226.573,103.829Z" transform="translate(-38.131 -61.388)" fill="#91b3fa"/>
        </g>
        <g id="Grupo_55982" data-name="Grupo 55982" transform="translate(199.665 30.739)">
          <rect id="Rectángulo_29676" data-name="Rectángulo 29676" width="58.602" height="74.973" fill="#fe7062"/>
          <g id="Grupo_55981" data-name="Grupo 55981" transform="translate(8.658 13.536)">
            <g id="Grupo_55980" data-name="Grupo 55980">
              <line id="Línea_553" data-name="Línea 553" x2="34.062" fill="none" stroke="#fff" stroke-miterlimit="10" stroke-width="0.977"/>
              <line id="Línea_554" data-name="Línea 554" x2="41.285" transform="translate(0 6.843)" fill="none" stroke="#fff" stroke-miterlimit="10" stroke-width="0.977"/>
              <line id="Línea_555" data-name="Línea 555" x2="41.285" transform="translate(0 13.686)" fill="none" stroke="#fff" stroke-miterlimit="10" stroke-width="0.977"/>
              <line id="Línea_556" data-name="Línea 556" x2="41.285" transform="translate(0 20.529)" fill="none" stroke="#fff" stroke-miterlimit="10" stroke-width="0.977"/>
              <line id="Línea_557" data-name="Línea 557" x2="41.285" transform="translate(0 27.372)" fill="none" stroke="#fff" stroke-miterlimit="10" stroke-width="0.977"/>
              <line id="Línea_558" data-name="Línea 558" x2="41.285" transform="translate(0 34.215)" fill="none" stroke="#fff" stroke-miterlimit="10" stroke-width="0.977"/>
              <line id="Línea_559" data-name="Línea 559" x2="41.285" transform="translate(0 41.058)" fill="none" stroke="#fff" stroke-miterlimit="10" stroke-width="0.977"/>
              <line id="Línea_560" data-name="Línea 560" x2="41.285" transform="translate(0 47.901)" fill="none" stroke="#fff" stroke-miterlimit="10" stroke-width="0.977"/>
            </g>
          </g>
        </g>
        <g id="Grupo_55991" data-name="Grupo 55991" transform="translate(29.327 27.876)">
          <path id="Trazado_119229" data-name="Trazado 119229" d="M180.652,213.6c-.933,3.42-2.736,7.815-3.161,11.727s6.832,6.132,7.774,4.168c.122-.257-1.526-1.618-.154-5.251,1.647-4.359,2.488-6.226,1.715-9.247C186.239,212.705,181.228,211.495,180.652,213.6Z" transform="translate(-38.495 -87.443)" fill="#db9b76"/>
          <path id="Trazado_119230" data-name="Trazado 119230" d="M238.913,154.278s-11.467,5.918-18.865,5.179-25.523-3-32.18,3.772-33.29,39.506-32,41.91S186.758,231.031,193.047,229s34.068-30.331,41.077-34.585,17.482-9.432,17.482-9.432Z" transform="translate(-38.756 -88.145)" fill="#db9b76"/>
          <path id="Trazado_119231" data-name="Trazado 119231" d="M124.963,147.258s19.9,10.619,28.41,11.174,23.445-.74,34.194,2.219,1.539,8.138,5.311,11.836,30.386,19.17,34.473,21.824,5.179,6.136,2.4,8.523-6.1,1.649-11.282-1.311-14.98-9.987-15.535-8.507,16.645,12.232,19.049,14.254,2.775,5.351-1.109,7.385-7.213,2.219-10.542,0-14.611-10.542-15.906-9.247,5.918,5.179,10.543,8.645c4.313,3.235,7.582,4.3,7.953,6.89s-3.666,7.19-10.357,4.994c-3.945-1.3-14.426-9.063-16.029-7.953s15.289,7.891,15.043,10.6-3.823,7.243-14.016,2.343c-6.22-2.991-44.058-29.591-48-32.551s-37.3-20.529-37.3-20.529Z" transform="translate(-39.402 -88.229)" fill="#fca"/>
          <path id="Trazado_119232" data-name="Trazado 119232" d="M204.545,183.152s-1.294,5.674-5.733,8.2c.463,3.36-2.034,9.925-7.4,11.734-.463,3.753-3.685,9.853-7.49,11.138" transform="translate(-38.418 -87.797)" fill="none" stroke="#db9b76" stroke-linecap="round" stroke-linejoin="round" stroke-width="0.972"/>
          <path id="Trazado_119233" data-name="Trazado 119233" d="M162.268,164.976c-.1-1.6,7.522-2.343,12.7-4.069s14.18-4.488,21.578-4.155,16.391,2.254,22.56,2.588,1.606,7.239-4.312,8.966-18.888,6.165-22.637,4.068-7.078-2.958-12.873-2.465S162.515,168.8,162.268,164.976Z" transform="translate(-38.679 -88.115)" fill="#db9b76"/>
          <ellipse id="Elipse_4208" data-name="Elipse 4208" cx="20.221" cy="47.99" rx="20.221" ry="47.99" transform="matrix(0.932, -0.362, 0.362, 0.932, 223.036, 14.653)" fill="#1a0f91"/>
          <line id="Línea_561" data-name="Línea 561" y1="7.167" x2="15.998" transform="translate(265.906 73.347)" fill="none" stroke="#5f72b6" stroke-miterlimit="10" stroke-width="0.972"/>
          <path id="Trazado_119234" data-name="Trazado 119234" d="M245.722,146.816s-5.579,2.173-7.787,2.867c-1.51.475-3.292,1.151-4.268,1.53a.748.748,0,0,0-.41,1c1.441,3.23,7.32,16.418,8.745,19.776,1.627,3.835,6.043,15.805,6.625,16.5s13.713-4.532,13.713-4.532Z" transform="translate(-37.824 -88.235)" fill="#222b49"/>
          <path id="Trazado_119235" data-name="Trazado 119235" d="M242.8,145.71,295.2,115.9s5.179,7.028,4.808,14.519,6.473,11.559,6.289,24.5c-.085,5.917,4.623,11.282,4.623,11.282l-49.936,21.639Z" transform="translate(-37.708 -88.607)" fill="#91b3fa"/>
          <line id="Línea_562" data-name="Línea 562" x1="58.197" y2="33.507" transform="translate(205.089 23.596)" fill="none" stroke="#fff" stroke-miterlimit="10" stroke-width="0.972"/>
          <line id="Línea_563" data-name="Línea 563" y1="12.896" x2="28.119" transform="translate(212.85 62.188)" fill="none" stroke="#222b49" stroke-miterlimit="10" stroke-width="0.972"/>
          <g id="Grupo_55984" data-name="Grupo 55984" transform="translate(215.693 63.267)">
            <path id="Trazado_119236" data-name="Trazado 119236" d="M259.008,154.312a2.867,2.867,0,1,1-2.867-2.866A2.867,2.867,0,0,1,259.008,154.312Z" transform="translate(-253.275 -151.446)" fill="#fff"/>
            <g id="Grupo_55983" data-name="Grupo 55983" transform="translate(1.745 1.819)">
              <path id="Trazado_119237" data-name="Trazado 119237" d="M255.57,153.528a.285.285,0,1,1-.285-.285A.285.285,0,0,1,255.57,153.528Z" transform="translate(-254.999 -153.243)" fill="#222b49"/>
              <path id="Trazado_119238" data-name="Trazado 119238" d="M257.222,153.528a.285.285,0,1,1-.285-.285A.285.285,0,0,1,257.222,153.528Z" transform="translate(-254.979 -153.243)" fill="#222b49"/>
              <path id="Trazado_119239" data-name="Trazado 119239" d="M255.57,155.035a.285.285,0,1,1-.285-.284A.285.285,0,0,1,255.57,155.035Z" transform="translate(-254.999 -153.225)" fill="#222b49"/>
              <path id="Trazado_119240" data-name="Trazado 119240" d="M257.222,155.035a.285.285,0,1,1-.285-.284A.285.285,0,0,1,257.222,155.035Z" transform="translate(-254.979 -153.225)" fill="#222b49"/>
            </g>
          </g>
          <g id="Grupo_55986" data-name="Grupo 55986" transform="translate(226.909 58.582)">
            <circle id="Elipse_4209" data-name="Elipse 4209" cx="2.867" cy="2.867" r="2.867" fill="#fff"/>
            <g id="Grupo_55985" data-name="Grupo 55985" transform="translate(1.745 1.818)">
              <path id="Trazado_119241" data-name="Trazado 119241" d="M266.653,148.9a.285.285,0,1,1-.285-.285A.285.285,0,0,1,266.653,148.9Z" transform="translate(-266.082 -148.613)" fill="#222b49"/>
              <path id="Trazado_119242" data-name="Trazado 119242" d="M268.3,148.9a.285.285,0,1,1-.285-.285A.285.285,0,0,1,268.3,148.9Z" transform="translate(-266.062 -148.613)" fill="#222b49"/>
              <path id="Trazado_119243" data-name="Trazado 119243" d="M266.653,150.406a.285.285,0,1,1-.285-.285A.285.285,0,0,1,266.653,150.406Z" transform="translate(-266.082 -148.595)" fill="#222b49"/>
              <path id="Trazado_119244" data-name="Trazado 119244" d="M268.3,150.406a.285.285,0,1,1-.285-.285A.285.285,0,0,1,268.3,150.406Z" transform="translate(-266.062 -148.595)" fill="#222b49"/>
            </g>
          </g>
          <ellipse id="Elipse_4210" data-name="Elipse 4210" cx="47.99" cy="20.221" rx="47.99" ry="20.221" transform="matrix(0.362, -0.932, 0.932, 0.362, 0, 89.459)" fill="#1a0f91"/>
          <line id="Línea_564" data-name="Línea 564" x1="15.998" y1="7.167" transform="translate(13.601 73.347)" fill="none" stroke="#ff781d" stroke-linecap="round" stroke-linejoin="round" stroke-width="0.972"/>
          <path id="Trazado_119245" data-name="Trazado 119245" d="M127.194,146.191s5.141,2.882,7.249,3.839c1.262.573,3.176,1.45,4.151,1.831a.748.748,0,0,1,.41,1c-1.441,3.23-6.95,15.779-8.374,19.137-1.627,3.835-8.09,17.5-8.671,18.193s-11.668-6.222-11.668-6.222Z" transform="translate(-39.305 -88.242)" fill="#ab5317"/>
          <path id="Trazado_119246" data-name="Trazado 119246" d="M130.323,145.71,77.921,115.9s-.486,9.618-7.884,13.809c-6.525,3.7-13.106,11.385-7.836,23.21,3.375,7.574,0,13.286,0,13.286l49.936,21.639Z" transform="translate(-39.908 -88.607)" fill="#fe7062"/>
          <line id="Línea_565" data-name="Línea 565" x2="58.197" y2="33.507" transform="translate(32.219 23.596)" fill="none" stroke="#fff" stroke-linecap="round" stroke-linejoin="round" stroke-width="0.972"/>
          <line id="Línea_566" data-name="Línea 566" x1="28.119" y1="12.896" transform="translate(54.536 62.188)" fill="none" stroke="#ab5317" stroke-miterlimit="10" stroke-width="0.972"/>
          <g id="Grupo_55988" data-name="Grupo 55988" transform="translate(74.079 63.267)">
            <path id="Trazado_119247" data-name="Trazado 119247" d="M113.347,154.312a2.867,2.867,0,1,0,2.866-2.866A2.866,2.866,0,0,0,113.347,154.312Z" transform="translate(-113.347 -151.446)" fill="#fff"/>
            <g id="Grupo_55987" data-name="Grupo 55987" transform="translate(1.745 1.819)">
              <path id="Trazado_119248" data-name="Trazado 119248" d="M116.723,153.528a.285.285,0,1,0,.285-.285A.286.286,0,0,0,116.723,153.528Z" transform="translate(-115.051 -153.243)" fill="#222b49"/>
              <path id="Trazado_119249" data-name="Trazado 119249" d="M115.071,153.528a.285.285,0,1,0,.285-.285A.285.285,0,0,0,115.071,153.528Z" transform="translate(-115.071 -153.243)" fill="#222b49"/>
              <path id="Trazado_119250" data-name="Trazado 119250" d="M116.723,155.035a.285.285,0,1,0,.285-.284A.286.286,0,0,0,116.723,155.035Z" transform="translate(-115.051 -153.225)" fill="#222b49"/>
              <path id="Trazado_119251" data-name="Trazado 119251" d="M115.071,155.035a.285.285,0,1,0,.285-.284A.285.285,0,0,0,115.071,155.035Z" transform="translate(-115.071 -153.225)" fill="#222b49"/>
            </g>
          </g>
          <g id="Grupo_55990" data-name="Grupo 55990" transform="translate(62.862 58.582)">
            <circle id="Elipse_4211" data-name="Elipse 4211" cx="2.867" cy="2.867" r="2.867" fill="#fff"/>
            <g id="Grupo_55989" data-name="Grupo 55989" transform="translate(1.745 1.818)">
              <path id="Trazado_119252" data-name="Trazado 119252" d="M105.64,148.9a.285.285,0,1,0,.285-.285A.286.286,0,0,0,105.64,148.9Z" transform="translate(-103.968 -148.613)" fill="#222b49"/>
              <path id="Trazado_119253" data-name="Trazado 119253" d="M103.988,148.9a.285.285,0,1,0,.285-.285A.285.285,0,0,0,103.988,148.9Z" transform="translate(-103.988 -148.613)" fill="#222b49"/>
              <path id="Trazado_119254" data-name="Trazado 119254" d="M105.64,150.406a.285.285,0,1,0,.285-.285A.286.286,0,0,0,105.64,150.406Z" transform="translate(-103.968 -148.595)" fill="#222b49"/>
              <path id="Trazado_119255" data-name="Trazado 119255" d="M103.988,150.406a.285.285,0,1,0,.285-.285A.285.285,0,0,0,103.988,150.406Z" transform="translate(-103.988 -148.595)" fill="#222b49"/>
            </g>
          </g>
          <path id="Trazado_119256" data-name="Trazado 119256" d="M141.849,200.783c0-3.947,3.452-16.522,6.782-16.152s5.425,2.836,5.055,6.905-4.193,12.576-3.453,13.933,2.836,1.726,1.727,2.465S141.849,206.7,141.849,200.783Z" transform="translate(-38.925 -87.779)" fill="#db9b76"/>
          <path id="Trazado_119257" data-name="Trazado 119257" d="M155.336,212.431c-1.233-2.136-1.356-6.042,0-10.11s4.956-13.288,6.164-13.564c2.712-.616,6.042,1.973,6.905,5.426s-6.829,18.517-5.718,19.628,1.827,1.465,1.548,1.989C163.218,217.717,157.185,215.636,155.336,212.431Z" transform="translate(-38.774 -87.73)" fill="#db9b76"/>
          <path id="Trazado_119258" data-name="Trazado 119258" d="M166.658,219.253c-.309-2.123,3.193-15.785,5.69-16.34s5.314,2.468,5.685,5.428-3.618,13-3.08,13.874c.486.786,1.6,1.341,1.509,1.7C175.831,226.56,167.336,223.92,166.658,219.253Z" transform="translate(-38.626 -87.56)" fill="#db9b76"/>
        </g>
        <g id="Grupo_55993" data-name="Grupo 55993" transform="translate(238.747 100.8)">
          <g id="Grupo_55992" data-name="Grupo 55992" transform="translate(15.112)">
            <path id="Trazado_119259" data-name="Trazado 119259" d="M262.008,251.636h60.1s10.838-28.21,10.509-37.405-5.255-6.577-2.3-18.889,7.882-33.018-.986-34.324-25.945,40.732-34.156,43.359-16.093,7.883-22.99,20.362S262.008,251.636,262.008,251.636Z" transform="translate(-262.008 -160.989)" fill="#57dbd8"/>
            <path id="Trazado_119260" data-name="Trazado 119260" d="M329.92,161.263s-16.571,55.889-34.641,90.37" transform="translate(-261.607 -160.985)" fill="none" stroke="#1a0f91" stroke-miterlimit="10" stroke-width="1"/>
            <path id="Trazado_119261" data-name="Trazado 119261" d="M305.694,190.817s-7.785,31.5-16.386,60.46" transform="translate(-261.679 -160.629)" fill="none" stroke="#1a0f91" stroke-miterlimit="10" stroke-width="1"/>
            <path id="Trazado_119262" data-name="Trazado 119262" d="M329.188,198.076s-15.909,36.147-27.006,53.113" transform="translate(-261.524 -160.542)" fill="none" stroke="#1a0f91" stroke-miterlimit="10" stroke-width="1"/>
          </g>
          <line id="Línea_567" data-name="Línea 567" x2="84.883" transform="translate(0 90.648)" fill="none" stroke="#1a0f91" stroke-miterlimit="10" stroke-width="1"/>
        </g>
        <g id="Grupo_55995" data-name="Grupo 55995" transform="translate(244.684 121.4)">
          <ellipse id="Elipse_4212" data-name="Elipse 4212" cx="10.345" cy="4.093" rx="10.345" ry="4.093" transform="translate(38.833 104.445)" fill="#c3c4c9"/>
          <ellipse id="Elipse_4213" data-name="Elipse 4213" cx="10.345" cy="4.093" rx="10.345" ry="4.093" transform="translate(0 104.445)" fill="#c3c4c9"/>
          <g id="Grupo_55994" data-name="Grupo 55994" transform="translate(0.378)">
            <path id="Trazado_119263" data-name="Trazado 119263" d="M276.451,203.934h-7.041a.742.742,0,0,1-.692-.476l-4.529-11.784a.45.45,0,0,1,.42-.612h7.041a.74.74,0,0,1,.691.476l4.53,11.784A.451.451,0,0,1,276.451,203.934Z" transform="translate(-253.186 -181.226)" fill="#db9b76"/>
            <path id="Trazado_119264" data-name="Trazado 119264" d="M302.669,282.709l2.386,2.6s-3.869,3.218-4.846,3.507a17.294,17.294,0,0,1-3.869,0c-1.012,0,1.555-.867,2.386-1.735s1.556-4.376,1.556-4.376Z" transform="translate(-252.801 -180.121)" fill="#5f72b6"/>
            <path id="Trazado_119265" data-name="Trazado 119265" d="M266.962,282.809s2.115,5.854-.271,5.854H260.4c-1.031,0-6.834-3.359-6.237-4.018s3.633.141,4.61.094,3.092-.236,4.067-1.083.922-1.177.922-1.177Z" transform="translate(-253.307 -180.124)" fill="#5f72b6"/>
            <path id="Trazado_119266" data-name="Trazado 119266" d="M277.13,225.188s-10.1,33.627-14.983,58.685h5.523s12.374-33.952,14.924-38.509l1.289,15.187s10.481,17.464,16.339,23.322h3.906s-10.739-20.068-11.391-27.878a122.246,122.246,0,0,1-.217-17.573c.217-4.447,1.736-10.3-.542-13.234Z" transform="translate(-253.21 -180.814)" fill="#3c3f51"/>
            <path id="Trazado_119267" data-name="Trazado 119267" d="M303.868,283.452s-3.244-6.062-6.273-12.819h0a44.433,44.433,0,0,0-8.913-6.922,23.984,23.984,0,0,1-5.057-3.58s10.481,17.464,16.339,23.322Z" transform="translate(-252.951 -180.393)" fill="#282b38"/>
            <path id="Trazado_119268" data-name="Trazado 119268" d="M262.109,209.1a35.386,35.386,0,0,0-3.363-1.79,22.732,22.732,0,0,0-4.158-1.518c-.9-.073-1.627.108-1.085.687a28.627,28.627,0,0,1,2.676,2.621c.217.488-1.627-.09-1.989.235s.723.977,1.482,1.085,2.17-.072,3.11.145,3.327,1.157,3.327,1.157Z" transform="translate(-253.316 -181.048)" fill="#ffc8a4"/>
            <path id="Trazado_119269" data-name="Trazado 119269" d="M282.615,199.16s-3.958,5.786-4.555,6.816-1.654,3.09-2.6,4.556c-.29.448-1.085,1.9-1.736,1.952s-12.421-4.177-12.421-4.177l-.976,3.58s2.332.923,3.851,1.736,4.989,2.5,6.237,2.984,5.858,2.278,6.942,1.519,4.922-7.269,4.922-7.269Z" transform="translate(-253.232 -181.128)" fill="#445285"/>
            <path id="Trazado_119270" data-name="Trazado 119270" d="M270.109,202.037a20.914,20.914,0,0,0-.4-4.3c-.362-.724-1.519-3.942-1.844-3.8s.47,2.315,0,2.423-2.6-3.435-3.074-3.4-.108,5.206.831,6.273a31.676,31.676,0,0,1,2.17,2.4c.036.218.832,2.531.832,2.531Z" transform="translate(-253.18 -181.203)" fill="#ffc8a4"/>
            <path id="Trazado_119271" data-name="Trazado 119271" d="M285.155,183.577s-1.127,6.132-.932,7.259,2.159,1.03,2.8,2.109.491,4.17.491,4.17h5.4a31.907,31.907,0,0,1-.245-5.1c.2-1.374,1.472-6.721,0-8.193S285.891,182.743,285.155,183.577Z" transform="translate(-252.944 -181.325)" fill="#ffc8a4"/>
            <path id="Trazado_119272" data-name="Trazado 119272" d="M282.786,183.284c.461,2.308,5.428,1.373,6.344,1.9s.654,2.878.981,3.466.785-.85,1.57-.327.393,2.223-.523,2.223c.72,1.112.916,2.224,1.5,2.093s1.634-2.8,1.7-4.671-.784-3.178-.523-4.289-1.7-2.223-3.336-2.223S282.263,180.668,282.786,183.284Z" transform="translate(-252.962 -181.343)" fill="#ab5317"/>
            <path id="Trazado_119273" data-name="Trazado 119273" d="M285.837,196.959s-.724-.777.8-1.067,7.738-.162,8.027.533-.723,1.2,0,2.432.9,6.292.054,10.992-2.728,10.125-2.222,12.077,1.591,4.773-.361,4.773H278.172c-2.17,0-1.953-.8-1.446-2.821a20.964,20.964,0,0,0,.578-2.892s-1.952,1.085-2.748-.578-7.232-17.284-6.943-17.79,2.025-1.736,2.531-1.3,5.888,9.377,6.8,9.908c.651.38,2.983-2.007,2.983-2.007s1.561-6.284,1.79-7.7C282.04,199.509,283.451,196.959,285.837,196.959Z" transform="translate(-253.144 -181.169)" fill="#5f72b6"/>
            <path id="Trazado_119274" data-name="Trazado 119274" d="M279.778,209.139s2.224-2.386,3.2-3.145a32.675,32.675,0,0,0,3.689-3.418c.6-.759-.434-.108-1.3.434s-2.442,2.095-3.174,2.675-2,1.78-2,1.78Z" transform="translate(-252.997 -181.091)" fill="#445285"/>
            <path id="Trazado_119275" data-name="Trazado 119275" d="M277.191,220.821s2.459-2.07,3.055-2.635,3.417-2.68,4.448-3.547,3.406-3.146,4.062-3.58,1.253-1.9,1.632-1.464-.933,2.386-1.632,2.821-4.876,3.8-5.961,4.773-5.844,5.047-5.844,5.047Z" transform="translate(-253.031 -181.003)" fill="#445285"/>
            <path id="Trazado_119276" data-name="Trazado 119276" d="M282.35,245.249s1.465-5.1,2.767-6.4a12.424,12.424,0,0,0,2.6-4.122c1.193,1.193-1.193,2.821-1.952,5.262s-3.124,8.721-3.124,8.721Z" transform="translate(-252.966 -180.699)" fill="#282b38"/>
          </g>
        </g>
        <g id="Grupo_55997" data-name="Grupo 55997" transform="translate(0 100.569)">
          <g id="Grupo_55996" data-name="Grupo 55996" transform="translate(5.417)">
            <path id="Trazado_119277" data-name="Trazado 119277" d="M125.044,242.784s-8.036-7.812-9.152-16.963-1.115-18.749-8.927-19.642-5.357,14.285-8.259,14.508-4.24-41.069-15.847-41.738-9.262,17.179-7.589,26.784c1.045,6,1.325,8.95-2.03,8.95-5.647,0-5.336-16.539-7.344-29.93s-5.8-23.66-20.311-23.66-6.027,20.088-1.339,28.57,10.49,18.526,5.357,19.865-8.928-12.5-17.41-11.606-12.053,16.74-3.794,25.221-12.946,3.349-11.83,19.642Z" transform="translate(-16.525 -160.756)" fill="#57dbd8"/>
            <path id="Trazado_119278" data-name="Trazado 119278" d="M47.68,160.76S63.1,210.754,68.872,242.788" transform="translate(-16.149 -160.76)" fill="none" stroke="#1a0f91" stroke-miterlimit="10" stroke-width="1"/>
            <path id="Trazado_119279" data-name="Trazado 119279" d="M28.345,198.986a156.836,156.836,0,0,0,31.181,43.341" transform="translate(-16.382 -160.299)" fill="none" stroke="#1a0f91" stroke-miterlimit="10" stroke-width="1"/>
            <path id="Trazado_119280" data-name="Trazado 119280" d="M79.8,178.871s7.137,30.25,5.622,63.7" transform="translate(-15.762 -160.542)" fill="none" stroke="#1a0f91" stroke-miterlimit="10" stroke-width="1"/>
            <path id="Trazado_119281" data-name="Trazado 119281" d="M107.447,206.462s-1.163,16.723-3.708,35.775" transform="translate(-15.474 -160.209)" fill="none" stroke="#1a0f91" stroke-miterlimit="10" stroke-width="1"/>
          </g>
          <line id="Línea_568" data-name="Línea 568" x2="123.092" transform="translate(0 82.082)" fill="none" stroke="#1a0f91" stroke-miterlimit="10" stroke-width="1"/>
        </g>
        <g id="Grupo_55999" data-name="Grupo 55999" transform="translate(17.42 115.436)">
          <ellipse id="Elipse_4214" data-name="Elipse 4214" cx="10.345" cy="4.093" rx="10.345" ry="4.093" transform="translate(16.196 110.409)" fill="#c3c4c9"/>
          <ellipse id="Elipse_4215" data-name="Elipse 4215" cx="10.345" cy="4.093" rx="10.345" ry="4.093" transform="translate(0 110.409)" fill="#c3c4c9"/>
          <g id="Grupo_55998" data-name="Grupo 55998" transform="translate(1.764)">
            <path id="Trazado_119282" data-name="Trazado 119282" d="M41.246,195.152l4.354-.835s3.9,2.294,4.5,6.546S51.645,225.1,51.645,225.1l-9.2-.444Z" transform="translate(-29.993 -175.223)" fill="#fff"/>
            <path id="Trazado_119283" data-name="Trazado 119283" d="M53.413,278.3s.093,3.95,1.308,5.806,4.261,3.284,4.261,3.284,2.808.428,2.237,1.142-11.755,0-12.8,0,.667-2.95.9-3.855a63.671,63.671,0,0,0,.19-6.377Z" transform="translate(-29.911 -174.211)" fill="#bf3e65"/>
            <path id="Trazado_119284" data-name="Trazado 119284" d="M39.812,278.3s-1.181,3.95.033,5.806,4.261,3.284,4.261,3.284,2.807.428,2.237,1.142-11.755,0-12.8,0,.667-2.95.9-3.855,1.464-6.377,1.464-6.377Z" transform="translate(-30.09 -174.211)" fill="#bf3e65"/>
            <path id="Trazado_119285" data-name="Trazado 119285" d="M36.817,222.966H54.283s2.98,22.317,2.34,34.247-2,22.972-2,22.972H48.24l1.016-22.717-2.491-16.752s0,21.194-5.886,39.47H34.835l3.971-24.114Z" transform="translate(-30.07 -174.877)" fill="#3c3f51"/>
            <path id="Trazado_119286" data-name="Trazado 119286" d="M46.627,233.2c-.81,0,0,7.393,0,7.393l2.49,16.752C50.7,250.459,47.436,233.2,46.627,233.2Z" transform="translate(-29.933 -174.754)" fill="#282b38"/>
            <path id="Trazado_119287" data-name="Trazado 119287" d="M48.927,260.788l-.847,18.941h6.382s.4-3.282.875-8.2Z" transform="translate(-29.911 -174.422)" fill="#282b38"/>
            <path id="Trazado_119288" data-name="Trazado 119288" d="M66.232,206.5a7.435,7.435,0,0,0,1.269-1.333c.1-.317-.031-1.015,1.364-1.809s2.031-.825,2-.6-1.713.826-1.269,1.111a7.539,7.539,0,0,0,3.014.1c.222-.128,1.586-1.111,1.9-.73s-.73,1.65-1.079,2.157a8.617,8.617,0,0,1-4.727,1.936c-2.031.126-2.253,1.015-2.253,1.015Z" transform="translate(-29.692 -175.122)" fill="#db9b76"/>
            <path id="Trazado_119289" data-name="Trazado 119289" d="M45.2,194.611a6.129,6.129,0,0,1,3.109,3.681,18.867,18.867,0,0,1,1.206,8.313c-.281,2.7.248,8.249.536,11.486s-.474,8.376.859,8.566,2.856.318,3.617-.635,0-6.98,0-6.98S68.046,208.509,68.172,208s-.761-2.284-1.333-2.158S54.656,212,54.656,212a45.483,45.483,0,0,0-.895-7.424c-.692-2.538-3.23-8.168-4.5-8.875A29.765,29.765,0,0,0,44.82,194.1Z" transform="translate(-29.95 -175.225)" fill="#f95384"/>
            <path id="Trazado_119290" data-name="Trazado 119290" d="M54.413,218.844s5.348-4.168,9.347-7.387c-.783-1.363-6.49,2.149-7.374,1.866-.946-.3.043-2.5.565-2.77h0c-1.417.731-2.411,1.247-2.411,1.247C54.651,213.619,54.287,217.289,54.413,218.844Z" transform="translate(-29.835 -175.027)" fill="#bf3e65"/>
            <path id="Trazado_119291" data-name="Trazado 119291" d="M55.513,212.434l-4.458.895a.513.513,0,0,1-.6-.63l2.782-10.973a.587.587,0,0,1,.454-.431l4.457-.894a.513.513,0,0,1,.6.628L55.967,212A.585.585,0,0,1,55.513,212.434Z" transform="translate(-29.882 -175.149)" fill="#5f72b6"/>
            <path id="Trazado_119292" data-name="Trazado 119292" d="M54.617,202.746c-.086.344-.342.577-.572.519s-.345-.384-.259-.728.343-.577.573-.518S54.7,202.4,54.617,202.746Z" transform="translate(-29.842 -175.13)" fill="#222b49"/>
            <path id="Trazado_119293" data-name="Trazado 119293" d="M46.325,211.37a14.4,14.4,0,0,0,1.745-1.015c.476-.381,2.6-2.951,3.268-3.173s2.126-.762,2.379,0-1.459,1.242-1.586,1.493.856-.033.889.188-.793.349-1.047.7-1.174,3.046-2.728,3.014a6.117,6.117,0,0,0-2.919.793Z" transform="translate(-29.932 -175.072)" fill="#db9b76"/>
            <path id="Trazado_119294" data-name="Trazado 119294" d="M51.494,182.852a5.848,5.848,0,0,1-.317,3.443,14.142,14.142,0,0,0-.6,2.983s-1.143.063-1.4.635-.762,2.157-1.841,2.284a5.094,5.094,0,0,0-1.523.349l-.348,3.14a4.77,4.77,0,0,1-4.22-.856,46.629,46.629,0,0,0,.771-5.209c.054-1.645.593-7.2,3.29-8.149S51.494,182.852,51.494,182.852Z" transform="translate(-29.993 -175.38)" fill="#ffc8a4"/>
            <path id="Trazado_119295" data-name="Trazado 119295" d="M41.38,194.1s2.728,1.966,3.3,4.442,1.523,6.346.825,8.566A13.324,13.324,0,0,0,45,211.618l2.284-1.079.318,3.237L45.5,214.981s-.127,4.125,0,6.537.444,4.949-.7,5.521-8.821.507-9.646-.508.508-6.346.508-6.346-2.919,1.586-4.569.508-.889-5.014,0-7.87,2.983-10.279,3.554-12.881S38.207,194.992,41.38,194.1Z" transform="translate(-30.127 -175.225)" fill="#f95384"/>
            <path id="Trazado_119296" data-name="Trazado 119296" d="M39.164,203.2s-2.03,8.821-2.158,9.836c-1.269.571-2.728,1.269-1.776,1.205a68.413,68.413,0,0,0,9.709-2.728v-1.557s-4.886,2.255-5.775,1.684-.064-1.837.064-2.918S39.164,203.2,39.164,203.2Z" transform="translate(-30.069 -175.116)" fill="#bf3e65"/>
            <path id="Trazado_119297" data-name="Trazado 119297" d="M41.482,218.137a7.191,7.191,0,0,0,2.712-2.856l-8.582,4.648s-1.333,5.33-.508,6.346a3.829,3.829,0,0,0,2,.631C36.341,224.776,39.627,219.183,41.482,218.137Z" transform="translate(-30.07 -174.97)" fill="#bf3e65"/>
            <path id="Trazado_119298" data-name="Trazado 119298" d="M44.305,179.005a4.223,4.223,0,1,0-4.2,4.556,4.415,4.415,0,0,0,1.233-.176c-.112.907-.131,1.85-.2,2.773a5.518,5.518,0,0,0,.935,3.756s1.557-3.549,3.634-3.708c.811-.062,1.143-2.618,2.665-2.618a10.1,10.1,0,0,0,3.189-.666C49.993,179.428,46.567,178.281,44.305,179.005Z" transform="translate(-30.058 -175.45)" fill="#222b49"/>
          </g>
        </g>
        <line id="Línea_569" data-name="Línea 569" x1="2.11" y2="6.846" transform="translate(119.181 168.665)" fill="none" stroke="#fff" stroke-miterlimit="10" stroke-width="0.972"/>
        <g id="Grupo_56003" data-name="Grupo 56003" transform="translate(60.469 166.286)">
          <g id="Grupo_56002" data-name="Grupo 56002">
            <g id="Grupo_56000" data-name="Grupo 56000">
              <path id="Trazado_119299" data-name="Trazado 119299" d="M168.062,278.521H81.605L70.921,225.694h86.456Z" transform="translate(-70.921 -225.694)" fill="#222b49"/>
              <path id="Trazado_119300" data-name="Trazado 119300" d="M163.407,273.805H86.958l-8.8-43.507h76.448Z" transform="translate(-70.834 -225.639)" fill="#47b3b0"/>
            </g>
            <g id="Grupo_56001" data-name="Grupo 56001">
              <path id="Trazado_119301" data-name="Trazado 119301" d="M84.16,278.521H81.605L70.921,225.694h2.554Z" transform="translate(-70.921 -225.694)" fill="#5f72b6"/>
            </g>
            <line id="Línea_570" data-name="Línea 570" y1="43.507" x2="13.411" transform="translate(32.041 4.66)" fill="none" stroke="#fff" stroke-miterlimit="10" stroke-width="0.9"/>
            <line id="Línea_571" data-name="Línea 571" x1="13.411" y2="43.507" transform="translate(44.628 4.66)" fill="none" stroke="#fff" stroke-miterlimit="10" stroke-width="0.9"/>
            <line id="Línea_572" data-name="Línea 572" x1="10.132" y2="32.869" transform="translate(48.57 15.297)" fill="none" stroke="#fff" stroke-miterlimit="10" stroke-width="0.9"/>
            <rect id="Rectángulo_29677" data-name="Rectángulo 29677" width="136.824" height="4.834" transform="translate(10.685 52.827)" fill="#5f72b6"/>
            <rect id="Rectángulo_29678" data-name="Rectángulo 29678" width="86.273" height="4.834" transform="translate(61.235 52.827)" fill="#222b49"/>
            <line id="Línea_573" data-name="Línea 573" x2="136.824" transform="translate(10.685 52.827)" fill="none" stroke="#5f72b6" stroke-linecap="round" stroke-linejoin="round" stroke-width="0.9"/>
          </g>
          <path id="Trazado_119302" data-name="Trazado 119302" d="M105.111,274.06h31.4l7.417-9.31,6.312,4.655,20.83-23.592,5.365,4.734,2.683-18.463-17.2,6.786,3.314,2.683L148.665,256.7l-11.993-9.468Z" transform="translate(-70.509 -225.617)" fill="#fe7062"/>
          <line id="Línea_574" data-name="Línea 574" x2="155.775" transform="translate(3.595 57.47)" fill="none" stroke="#1a0f91" stroke-miterlimit="10" stroke-width="1"/>
        </g>
      </g>
    </g>
  </g>
</svg>
