<svg xmlns="http://www.w3.org/2000/svg" xmlns:xlink="http://www.w3.org/1999/xlink" width="202" height="185" viewBox="0 0 202 185">
  <defs>
    <linearGradient id="linear-gradient" x1="-4.588" y1="0.133" x2="-4.299" y2="0.624" gradientUnits="objectBoundingBox">
      <stop offset="0" stop-color="#ffc444"/>
      <stop offset="0.996" stop-color="#f36f56"/>
    </linearGradient>
    <clipPath id="clip-path">
      <path id="Trazado_120570" data-name="Trazado 120570" d="M874.628,807.318c-4.772-5.476-3.2-16.39-.047-23.2,3.685-7.953,8.054-7.122,10.438-13.531,4.439-11.931-8.887-19.7-5.364-32.091,2.88-10.126,12.879-8.774,15.557-20.134,1.933-8.2-2.344-12.84,1.69-19.421.345-.562,4.151-6.576,10.119-6.743,6.024-.169,10.728,5.717,12.716,10.018,3.673,7.951-1.389,11.676-.493,22.7,1.22,15.008,11.324,16.988,9.938,28.224-1.145,9.279-8.3,10.069-9.364,20.382-.989,9.577,4.821,12.375,3.539,18.754C920.406,806.95,884.361,818.487,874.628,807.318Z" transform="translate(-871.604 -692.194)" fill="#57dbd8"/>
    </clipPath>
    <linearGradient id="linear-gradient-2" x1="0.422" y1="0.517" x2="0.352" y2="0.841" gradientUnits="objectBoundingBox">
      <stop offset="0" stop-color="#40447e"/>
      <stop offset="0.996" stop-color="#3c3b6b"/>
    </linearGradient>
    <linearGradient id="linear-gradient-3" x1="0.48" y1="0.467" x2="0.372" y2="0.528" xlink:href="#linear-gradient-2"/>
    <linearGradient id="linear-gradient-4" x1="0" y1="0.5" x2="1" y2="0.5" xlink:href="#linear-gradient-2"/>
    <linearGradient id="linear-gradient-7" x1="0.907" y1="-0.248" x2="-0.059" y2="1.524" gradientUnits="objectBoundingBox">
      <stop offset="0" stop-color="#ff9085"/>
      <stop offset="1" stop-color="#fb6fbb"/>
    </linearGradient>
    <linearGradient id="linear-gradient-8" x1="5.384" y1="-2.41" x2="5.564" y2="2.649" gradientUnits="objectBoundingBox">
      <stop offset="0.004" stop-color="#26264f"/>
      <stop offset="1" stop-color="#444b8c"/>
    </linearGradient>
    <linearGradient id="linear-gradient-9" x1="19.133" y1="1.152" x2="19.011" y2="-5.07" gradientUnits="objectBoundingBox">
      <stop offset="0" stop-color="#ab316d"/>
      <stop offset="1" stop-color="#792d3d"/>
    </linearGradient>
    <linearGradient id="linear-gradient-10" x1="8.21" y1="-1.484" x2="8.495" y2="1.472" xlink:href="#linear-gradient-8"/>
    <linearGradient id="linear-gradient-11" x1="13.732" y1="1.353" x2="13.646" y2="-3.032" xlink:href="#linear-gradient-9"/>
    <linearGradient id="linear-gradient-12" x1="-42.277" y1="0.129" x2="-43.766" y2="3.296" xlink:href="#linear-gradient-9"/>
    <linearGradient id="linear-gradient-13" x1="-0.447" y1="0.662" x2="0.562" y2="0.662" gradientUnits="objectBoundingBox">
      <stop offset="0" stop-color="#aa80f9"/>
      <stop offset="0.996" stop-color="#6165d7"/>
    </linearGradient>
    <linearGradient id="linear-gradient-14" x1="-10.446" y1="-0.277" x2="-9.904" y2="2.244" xlink:href="#linear-gradient-7"/>
    <linearGradient id="linear-gradient-15" x1="-4.667" y1="5.304" x2="-5.469" y2="6.093" xlink:href="#linear-gradient-9"/>
    <linearGradient id="linear-gradient-16" x1="-67.32" y1="21.279" x2="-71.229" y2="26.437" xlink:href="#linear-gradient-9"/>
  </defs>
  <g id="Grupo_57026" data-name="Grupo 57026" transform="translate(-279 -6580)">
    <rect id="Rectángulo_29561" data-name="Rectángulo 29561" width="202" height="185" transform="translate(279 6580)" fill="none"/>
    <g id="Grupo_57024" data-name="Grupo 57024" transform="translate(-220.195 6103.982)">
      <path id="Trazado_120556" data-name="Trazado 120556" d="M554.636,491.585c-5.929,8.488,1.023,22.25-7.775,28.634-8.564,6.214-19.085-3.972-27.157,1.377-11.973,7.935-9.787,44.245,7.719,66.805,5.265,6.785,9.664,9.424,11.612,17.1,4.183,16.476-10.519,26.277-7.721,34.426,6.3,18.348,103.188,33.744,142.063-21.4,18.156-25.754,20.873-62.942,4.651-91.187C648.714,476.3,567.94,472.538,554.636,491.585Z" fill="#f4f7fa"/>
      <g id="Grupo_57005" data-name="Grupo 57005" transform="translate(516.402 481.195)">
        <path id="Trazado_120557" data-name="Trazado 120557" d="M626.139,519.543a4.5,4.5,0,0,0,.753-8.939c-.118-.01-.235-.011-.352-.01a25.849,25.849,0,0,0-.594-3.738c.108-.044.216-.09.323-.145a4.693,4.693,0,0,0,2.025-5.978,3.975,3.975,0,0,0-5.5-2.111c-.109.056-.212.119-.314.183a23.727,23.727,0,0,0-2.248-2.887c.075-.1.15-.2.219-.305a4.694,4.694,0,0,0-1-6.233,3.975,3.975,0,0,0-5.777,1.161c-.068.1-.128.212-.186.321a21.029,21.029,0,0,0-3.3-1.262c.02-.124.039-.25.05-.377.208-2.469.658-5.256-1.625-5.412-5.28-.362-6.423,2.248-6.631,4.717-.011.128-.013.254-.014.38a21.025,21.025,0,0,0-3.464.692c-.039-.117-.081-.233-.13-.347-.96-2.234-.786-3.724-2.968-2.887-4.757,1.825-5.518,4.521-4.558,6.755.05.117.107.228.165.337a23.721,23.721,0,0,0-2.7,2.47c-.09-.08-.181-.16-.279-.233a3.975,3.975,0,0,0-5.777,1.161,4.693,4.693,0,0,0,1,6.233c.1.072.195.135.294.2a25.86,25.86,0,0,0-1.211,3.586c-.115-.02-.23-.039-.348-.049a4.5,4.5,0,0,0-.753,8.94c.118.01.235.011.352.01a25.865,25.865,0,0,0,.594,3.738c-.108.044-.216.09-.323.145a4.694,4.694,0,0,0-2.025,5.979,3.975,3.975,0,0,0,5.5,2.111c.109-.056.212-.118.314-.183a23.723,23.723,0,0,0,2.248,2.887c-.076.1-.15.2-.219.305a4.694,4.694,0,0,0,1,6.233c1.87,1.4,5.919.76,7.239-1.282.068-.1-1.335-.091-1.277-.2a21.028,21.028,0,0,0,3.3,1.262c-.02.124-.039.25-.05.377a4.156,4.156,0,1,0,8.256.7c.011-.128.013-.254.014-.38a21.023,21.023,0,0,0,3.464-.692c.039.117.08.233.13.347a3.975,3.975,0,0,0,5.5,2.111,4.693,4.693,0,0,0,2.025-5.979c-.05-.117-.107-.228-.165-.337a23.733,23.733,0,0,0,2.7-2.47c.09.081.182.16.279.233a3.975,3.975,0,0,0,5.777-1.161,4.694,4.694,0,0,0-1-6.233c-.1-.072-.195-.135-.294-.2a25.873,25.873,0,0,0,1.21-3.586C625.905,519.514,626.021,519.533,626.139,519.543Zm-23.44,9.868c-8.277-.7-14.376-8.528-13.621-17.491s8.077-15.663,16.354-14.966,14.376,8.528,13.621,17.491S610.976,530.108,602.7,529.411Z" transform="translate(-577.47 -483.776)" fill="#bfc6d1"/>
        <path id="Trazado_120558" data-name="Trazado 120558" d="M1064.89,535.19a4.694,4.694,0,0,0,2.025-5.979,3.975,3.975,0,0,0-5.5-2.111c-.109.056-.212.119-.314.183a23.717,23.717,0,0,0-2.248-2.887c.076-.1.15-.2.219-.305,1.32-2.042,2.334-6.092.33-7.293-3.8-2.28-5.783.18-7.1,2.221-.068.1-.127.212-.186.321a21.024,21.024,0,0,0-3.3-1.262c.02-.124.039-.249.05-.377a4.635,4.635,0,0,0-1.133-3.484q-.762,5.79-1.427,11.591c7.1,1.788,12.058,8.986,11.373,17.116a16.31,16.31,0,0,1-10.834,14.321c.013.753.033,1.508.026,2.262-.019,2.046-.152,4.1-.286,6.146q.843-.17,1.666-.408c.039.117.081.233.13.347.96,2.234,3.1,3.592,6.928,1.8,2.115-.993,1.558-3.431.6-5.665-.05-.117-.107-.228-.165-.337a23.733,23.733,0,0,0,2.7-2.47c.09.081.182.16.279.233,1.87,1.4,6.067.614,7.386-1.428s-.736-4.566-2.606-5.967c-.1-.072-.195-.135-.294-.2a25.861,25.861,0,0,0,1.21-3.586c.115.02.23.039.348.049a4.5,4.5,0,0,0,.753-8.94c-.118-.01-.235-.011-.352-.01a25.852,25.852,0,0,0-.594-3.738C1064.676,535.291,1064.784,535.245,1064.89,535.19Z" transform="translate(-1016.091 -512.255)" fill="#bfc6d1"/>
        <path id="Trazado_120559" data-name="Trazado 120559" d="M659.145,519.239a4.5,4.5,0,0,0,.753-8.94c-.118-.01-.235-.011-.351-.01a25.865,25.865,0,0,0-.594-3.738c.108-.044.216-.09.323-.145a4.693,4.693,0,0,0,2.025-5.978,3.975,3.975,0,0,0-5.5-2.111c-.109.056-.212.119-.314.183a23.73,23.73,0,0,0-2.248-2.887c.076-.1.15-.2.219-.305a4.694,4.694,0,0,0-1-6.233,3.975,3.975,0,0,0-5.777,1.161c-.068.1-.127.212-.186.321a21.02,21.02,0,0,0-3.3-1.262c.02-.124.039-.25.05-.377a4.156,4.156,0,1,0-8.256-.7c-.011.128-.013.254-.014.38a21.027,21.027,0,0,0-3.464.692c-.04-.117-.081-.233-.13-.347a3.975,3.975,0,0,0-5.5-2.111,4.694,4.694,0,0,0-2.025,5.978c.05.117.107.228.165.337a23.734,23.734,0,0,0-2.7,2.47c-.09-.08-.182-.16-.279-.233a3.975,3.975,0,0,0-5.777,1.161,4.693,4.693,0,0,0,1,6.233c.1.072.195.135.294.2a25.872,25.872,0,0,0-1.211,3.586c-.115-.02-.23-.039-.348-.049a4.5,4.5,0,0,0-.753,8.94c.118.01.235.011.351.01a25.9,25.9,0,0,0,.594,3.738c-.108.044-.216.09-.323.145a4.694,4.694,0,0,0-2.025,5.979,3.975,3.975,0,0,0,5.5,2.111c.109-.056.212-.119.314-.183a23.735,23.735,0,0,0,2.248,2.887c-.076.1-.15.2-.219.305a4.693,4.693,0,0,0,1,6.233,3.975,3.975,0,0,0,5.777-1.161c.068-.1.127-.212.186-.321a21.037,21.037,0,0,0,3.3,1.262c-.02.124-.039.25-.05.377a4.156,4.156,0,1,0,8.256.7c.011-.128.013-.254.014-.38a21.018,21.018,0,0,0,3.464-.692c.04.117.081.233.13.347a3.975,3.975,0,0,0,5.5,2.111,4.693,4.693,0,0,0,2.025-5.978c-.05-.117-.107-.228-.165-.338a23.72,23.72,0,0,0,2.7-2.47c.09.08.181.16.279.233a3.975,3.975,0,0,0,5.777-1.161,4.694,4.694,0,0,0-1-6.233c-.1-.072-.195-.135-.294-.2a25.874,25.874,0,0,0,1.211-3.586C658.911,519.21,659.026,519.229,659.145,519.239Zm-23.44,9.868c-8.277-.7-14.376-8.528-13.621-17.491s8.077-15.664,16.355-14.966,14.376,8.528,13.621,17.491S643.982,529.8,635.7,529.107Z" transform="translate(-608.349 -484.066)" fill="#d8dee8"/>
      </g>
      <g id="Grupo_57006" data-name="Grupo 57006" transform="translate(616.484 562.533)">
        <path id="Trazado_120560" data-name="Trazado 120560" d="M2189.951,1789.649a5.483,5.483,0,0,0,.918-10.893c-.144-.012-.287-.013-.429-.013a31.467,31.467,0,0,0-.723-4.554c.132-.054.263-.11.393-.177a5.719,5.719,0,0,0,2.468-7.285,4.843,4.843,0,0,0-6.7-2.573c-.132.068-.258.144-.383.223a28.977,28.977,0,0,0-2.739-3.517c.092-.12.182-.242.267-.372a5.719,5.719,0,0,0-1.215-7.6,4.843,4.843,0,0,0-7.039,1.415c-.082.128-.155.259-.227.391a25.61,25.61,0,0,0-4.021-1.537c.025-.151.047-.3.06-.46.253-3.008.8-6.4-1.98-6.595-6.434-.441-7.827,2.739-8.081,5.747-.013.156-.016.31-.017.463a25.636,25.636,0,0,0-4.221.843c-.048-.142-.1-.284-.158-.423-1.17-2.722-.959-4.538-3.617-3.518-5.8,2.224-6.724,5.509-5.554,8.231.061.142.13.278.2.411a28.917,28.917,0,0,0-3.289,3.01c-.11-.1-.221-.194-.34-.284a4.844,4.844,0,0,0-7.039,1.415,5.719,5.719,0,0,0,1.214,7.6c.117.088.237.165.358.24a31.484,31.484,0,0,0-1.475,4.37c-.14-.025-.281-.047-.424-.059a5.483,5.483,0,0,0-.917,10.893c.144.012.286.014.428.013a31.541,31.541,0,0,0,.723,4.555c-.132.054-.263.11-.393.176a5.72,5.72,0,0,0-2.468,7.285,4.843,4.843,0,0,0,6.7,2.572c.133-.068.259-.144.383-.223a28.92,28.92,0,0,0,2.739,3.518c-.092.12-.183.242-.267.372a5.719,5.719,0,0,0,1.215,7.6c2.279,1.707,7.213.926,8.821-1.562.083-.128-1.626-.112-1.555-.243a25.615,25.615,0,0,0,4.021,1.537c-.025.152-.047.3-.06.46a5.064,5.064,0,1,0,10.06.847c.013-.156.016-.31.017-.464a25.618,25.618,0,0,0,4.221-.843c.048.142.1.283.158.423a4.844,4.844,0,0,0,6.7,2.572,5.719,5.719,0,0,0,2.468-7.285c-.061-.142-.13-.278-.2-.411a28.879,28.879,0,0,0,3.289-3.01c.11.1.221.195.34.284a4.843,4.843,0,0,0,7.039-1.415,5.719,5.719,0,0,0-1.215-7.6c-.117-.087-.237-.164-.358-.24a31.494,31.494,0,0,0,1.475-4.37C2189.666,1789.614,2189.807,1789.636,2189.951,1789.649Zm-28.563,12.025c-10.086-.85-17.517-10.392-16.6-21.314s9.842-19.086,19.929-18.237,17.517,10.392,16.6,21.313S2171.474,1802.523,2161.388,1801.673Z" transform="translate(-2130.646 -1746.065)" fill="#bfc6d1"/>
        <path id="Trazado_120561" data-name="Trazado 120561" d="M2724.586,1808.714a5.72,5.72,0,0,0,2.468-7.285,4.843,4.843,0,0,0-6.7-2.572c-.132.068-.259.145-.383.223a28.961,28.961,0,0,0-2.739-3.518c.092-.12.182-.242.267-.372,1.608-2.488,2.844-7.423.4-8.887-4.635-2.778-7.047.219-8.656,2.707-.082.128-.155.259-.227.391a25.625,25.625,0,0,0-4.02-1.537c.025-.151.047-.3.06-.46a5.647,5.647,0,0,0-1.381-4.245q-.929,7.055-1.739,14.125c8.656,2.179,14.693,10.95,13.858,20.857-.707,8.395-6.144,15.155-13.2,17.451.016.918.04,1.837.031,2.756-.023,2.494-.185,4.992-.349,7.489q1.027-.208,2.03-.5c.048.142.1.284.158.423,1.169,2.722,3.782,4.377,8.442,2.19,2.578-1.21,1.9-4.181.729-6.9-.061-.142-.13-.277-.2-.411a28.914,28.914,0,0,0,3.289-3.01c.11.1.221.195.34.284,2.279,1.707,7.392.749,9-1.74s-.9-5.564-3.176-7.271c-.117-.087-.237-.165-.358-.24a31.578,31.578,0,0,0,1.475-4.369c.14.025.281.047.425.059a5.483,5.483,0,0,0,.917-10.893c-.144-.012-.287-.014-.428-.013a31.5,31.5,0,0,0-.724-4.554C2724.324,1808.837,2724.456,1808.781,2724.586,1808.714Z" transform="translate(-2665.122 -1780.768)" fill="#bfc6d1"/>
        <path id="Trazado_120562" data-name="Trazado 120562" d="M2230.17,1789.278a5.483,5.483,0,0,0,.917-10.893c-.144-.012-.286-.014-.428-.013a31.536,31.536,0,0,0-.723-4.555c.132-.054.263-.11.393-.177a5.718,5.718,0,0,0,2.468-7.285,4.844,4.844,0,0,0-6.7-2.572c-.132.068-.259.145-.383.223a28.872,28.872,0,0,0-2.739-3.518c.092-.12.183-.242.267-.372a5.719,5.719,0,0,0-1.215-7.6,4.843,4.843,0,0,0-7.039,1.415c-.082.127-.155.259-.227.391a25.6,25.6,0,0,0-4.021-1.537c.025-.152.047-.3.06-.46a5.064,5.064,0,1,0-10.06-.847c-.013.156-.016.31-.017.464a25.612,25.612,0,0,0-4.221.843c-.048-.142-.1-.284-.158-.423a4.843,4.843,0,0,0-6.7-2.572,5.719,5.719,0,0,0-2.468,7.285c.061.142.13.278.2.411a28.887,28.887,0,0,0-3.289,3.01c-.11-.1-.221-.194-.34-.284a4.843,4.843,0,0,0-7.039,1.415,5.719,5.719,0,0,0,1.214,7.6c.117.088.237.165.358.24a31.5,31.5,0,0,0-1.475,4.369c-.14-.025-.281-.047-.424-.059a5.483,5.483,0,0,0-.917,10.893c.144.012.286.014.428.013a31.537,31.537,0,0,0,.723,4.554c-.132.054-.263.11-.393.177a5.72,5.72,0,0,0-2.468,7.285,4.843,4.843,0,0,0,6.7,2.572c.132-.068.259-.144.383-.223a28.907,28.907,0,0,0,2.739,3.518c-.092.12-.183.242-.267.372a5.719,5.719,0,0,0,1.214,7.6,4.844,4.844,0,0,0,7.039-1.415c.082-.128.156-.259.227-.391a25.658,25.658,0,0,0,4.021,1.537c-.025.152-.047.3-.061.46a5.064,5.064,0,1,0,10.06.847c.013-.156.016-.31.017-.464a25.628,25.628,0,0,0,4.221-.843c.048.142.1.284.158.423a4.843,4.843,0,0,0,6.7,2.572,5.719,5.719,0,0,0,2.468-7.285c-.061-.142-.13-.278-.2-.411a28.885,28.885,0,0,0,3.289-3.01c.11.1.221.194.341.283a4.843,4.843,0,0,0,7.039-1.415,5.72,5.72,0,0,0-1.215-7.6c-.117-.087-.237-.165-.358-.24a31.554,31.554,0,0,0,1.475-4.37C2229.885,1789.244,2230.026,1789.266,2230.17,1789.278Zm-28.563,12.025c-10.086-.85-17.517-10.392-16.6-21.313s9.842-19.087,19.928-18.237,17.518,10.392,16.6,21.313S2211.693,1802.152,2201.607,1801.3Z" transform="translate(-2168.274 -1746.419)" fill="#d8dee8"/>
      </g>
      <g id="Grupo_57010" data-name="Grupo 57010" transform="translate(535.355 494.625)">
        <path id="Trazado_120563" data-name="Trazado 120563" d="M874.628,807.318c-4.772-5.476-3.2-16.39-.047-23.2,3.685-7.953,8.054-7.122,10.438-13.531,4.439-11.931-8.887-19.7-5.364-32.091,2.88-10.126,12.879-8.774,15.557-20.134,1.933-8.2-2.344-12.84,1.69-19.421.345-.562,4.151-6.576,10.119-6.743,6.024-.169,10.728,5.717,12.716,10.018,3.673,7.951-1.389,11.676-.493,22.7,1.22,15.008,11.324,16.988,9.938,28.224-1.145,9.279-8.3,10.069-9.364,20.382-.989,9.577,4.821,12.375,3.539,18.754C920.406,806.95,884.361,818.487,874.628,807.318Z" transform="translate(-871.604 -692.194)" fill="url(#linear-gradient)"/>
        <g id="Grupo_57009" data-name="Grupo 57009" transform="translate(0 0)">
          <path id="Trazado_120564" data-name="Trazado 120564" d="M874.628,807.318c-4.772-5.476-3.2-16.39-.047-23.2,3.685-7.953,8.054-7.122,10.438-13.531,4.439-11.931-8.887-19.7-5.364-32.091,2.88-10.126,12.879-8.774,15.557-20.134,1.933-8.2-2.344-12.84,1.69-19.421.345-.562,4.151-6.576,10.119-6.743,6.024-.169,10.728,5.717,12.716,10.018,3.673,7.951-1.389,11.676-.493,22.7,1.22,15.008,11.324,16.988,9.938,28.224-1.145,9.279-8.3,10.069-9.364,20.382-.989,9.577,4.821,12.375,3.539,18.754C920.406,806.95,884.361,818.487,874.628,807.318Z" transform="translate(-871.604 -692.194)" fill="#57dbd8"/>
          <g id="Grupo_57008" data-name="Grupo 57008" clip-path="url(#clip-path)">
            <g id="Grupo_57007" data-name="Grupo 57007" transform="translate(8.918 -7.176)">
              <path id="Trazado_120565" data-name="Trazado 120565" d="M1052.963,651.8c-8.371,13.6-8.565,22.979-6.783,29.3,2.215,7.854,7.059,12.142,5.929,19.046-.845,5.159-5.314,4.979-8.6,11.811-2.737,5.7-2.312,11.089-1.968,15.442,1.2,15.223,9.363,18.074,7.514,27.45-1.221,6.192-5.837,10.305-10.26,14.247a43.3,43.3,0,0,1-16.346,9.087Z" transform="translate(-1021.65 -647.225)" fill="#57dbd8" opacity="0.7" style="mix-blend-mode: soft-light;isolation: isolate"/>
              <path id="Trazado_120566" data-name="Trazado 120566" d="M1164.149,1100.407s-3.479,13.747,10.465,34.022Z" transform="translate(-1153.855 -1066.927)" fill="#57dbd8" opacity="0.7" style="mix-blend-mode: soft-light;isolation: isolate"/>
              <path id="Trazado_120567" data-name="Trazado 120567" d="M1356.824,1341.719s3.545,24.455-23.247,37.262Z" transform="translate(-1312.727 -1292.69)" fill="#57dbd8" opacity="0.7" style="mix-blend-mode: soft-light;isolation: isolate"/>
              <path id="Trazado_120568" data-name="Trazado 120568" d="M1010.065,1871.707s-2.375,20.3,22.029,34.42Z" transform="translate(-1010.002 -1788.527)" fill="#57dbd8" opacity="0.7" style="mix-blend-mode: soft-light;isolation: isolate"/>
              <path id="Trazado_120569" data-name="Trazado 120569" d="M1402.013,580.831s5.668,19.883-13.136,32.385Z" transform="translate(-1364.464 -580.831)" fill="#57dbd8" opacity="0.7" style="mix-blend-mode: soft-light;isolation: isolate"/>
            </g>
          </g>
        </g>
      </g>
      <g id="Grupo_57011" data-name="Grupo 57011" transform="translate(517.445 552.44)">
        <path id="Trazado_120571" data-name="Trazado 120571" d="M782.607,2860.305l-162.178-1.412v4.179a2.217,2.217,0,0,0,1.665,2.271l45.859,8.229a6.3,6.3,0,0,0,1.645.077l111.246-9.383a2.11,2.11,0,0,0,1.762-2.217Z" transform="translate(-618.704 -2777.093)" fill="url(#linear-gradient-2)"/>
        <path id="Trazado_120572" data-name="Trazado 120572" d="M705.354,1665.873l-108.186,7.645a3.222,3.222,0,0,1-3.51-3.247v-77.34a3.5,3.5,0,0,1,3.51-3.5H705.354a3.03,3.03,0,0,1,2.884,3.16v69.914A3.3,3.3,0,0,1,705.354,1665.873Z" transform="translate(-593.658 -1589.435)" fill="url(#linear-gradient-3)"/>
        <path id="Trazado_120573" data-name="Trazado 120573" d="M732.125,1665.873l-108.186,7.645a3.222,3.222,0,0,1-3.51-3.247v-77.34a3.5,3.5,0,0,1,3.51-3.5H732.125a3.03,3.03,0,0,1,2.884,3.16v69.914A3.3,3.3,0,0,1,732.125,1665.873Z" transform="translate(-618.704 -1589.435)" fill="url(#linear-gradient-4)"/>
        <path id="Trazado_120574" data-name="Trazado 120574" d="M797.083,1726.14l-100.764,6.641a2.64,2.64,0,0,1-2.856-2.665V1662.4a2.87,2.87,0,0,1,2.856-2.865l100.764-.417a2.484,2.484,0,0,1,2.38,2.589v61.673A2.7,2.7,0,0,1,797.083,1726.14Z" transform="translate(-687.032 -1654.631)" fill="#91b3fa"/>
        <path id="Trazado_120575" data-name="Trazado 120575" d="M1537.495,1603.385a1.247,1.247,0,1,1-1.244-1.3A1.278,1.278,0,0,1,1537.495,1603.385Z" transform="translate(-1474.346 -1601.27)" fill="#fff"/>
        <path id="Trazado_120576" data-name="Trazado 120576" d="M729.426,2769.969l-109,8.047,47.525,8.529a6.3,6.3,0,0,0,1.645.077l113.008-9.532-51.448-7.067A8.27,8.27,0,0,0,729.426,2769.969Z" transform="translate(-618.704 -2693.877)" fill="url(#linear-gradient-4)"/>
        <path id="Trazado_120577" data-name="Trazado 120577" d="M867.249,2799.6l90.743-6.8,28.084,3.827-89.961,7.268Z" transform="translate(-849.619 -2715.26)" opacity="0.3" fill="url(#linear-gradient-4)" style="mix-blend-mode: multiply;isolation: isolate"/>
      </g>
      <g id="Grupo_57016" data-name="Grupo 57016" transform="translate(545.124 492.916)">
        <path id="Trazado_120578" data-name="Trazado 120578" d="M1023.209,754.334V799.99a2.827,2.827,0,0,0,2.865,2.761l93.951.538a2.609,2.609,0,0,0,2.629-2.611V756.994Z" transform="translate(-1023.209 -748.621)" fill="#ebeff2"/>
        <path id="Trazado_120579" data-name="Trazado 120579" d="M1120.025,668.419l-93.951-2.75a2.71,2.71,0,0,0-2.865,2.661v4.678l99.445,2.59v-4.476A2.722,2.722,0,0,0,1120.025,668.419Z" transform="translate(-1023.209 -665.668)" fill="#57dbd8"/>
        <g id="Grupo_57015" data-name="Grupo 57015" transform="translate(7.41 12.811)">
          <g id="Grupo_57014" data-name="Grupo 57014">
            <g id="Grupo_57012" data-name="Grupo 57012" transform="translate(15.968)">
              <path id="Trazado_120580" data-name="Trazado 120580" d="M1386.007,882.05l5.239-17.574a19.711,19.711,0,0,1,13.639,18.379Z" transform="translate(-1386.007 -864.476)" fill="#fe7062"/>
            </g>
            <g id="Grupo_57013" data-name="Grupo 57013" transform="translate(0 3.64)">
              <path id="Trazado_120581" data-name="Trazado 120581" d="M1407.374,1157.247a14.055,14.055,0,0,1-5.294,9.971l-8.214-10.557Z" transform="translate(-1377.392 -1141.473)" fill="#fff"/>
              <path id="Trazado_120582" data-name="Trazado 120582" d="M1221.407,934.269c-3.181-2.994-7.023-6.62-10.083-9.521a15.018,15.018,0,0,1,10.4-3.786,15.638,15.638,0,0,1,3.53.483Z" transform="translate(-1206.612 -920.959)" fill="#fff"/>
              <path id="Trazado_120583" data-name="Trazado 120583" d="M1152.33,1003.178l-11.562,8.018a14.284,14.284,0,0,1-2.57-8.159,13.954,13.954,0,0,1,3.811-9.6q1.272,1.2,2.823,2.67C1147.956,999.062,1151.091,1002.013,1152.33,1003.178Z" transform="translate(-1138.198 -988.771)" fill="#fff"/>
              <path id="Trazado_120584" data-name="Trazado 120584" d="M1201.163,1164.9l-.223,13.259a15.436,15.436,0,0,1-10.9-5.536Z" transform="translate(-1186.697 -1149.183)" fill="#fff"/>
              <path id="Trazado_120585" data-name="Trazado 120585" d="M1379.418,1173.912l7.932,10.187a15.075,15.075,0,0,1-8.146,2.521Z" transform="translate(-1363.675 -1157.612)" fill="#fff"/>
            </g>
          </g>
          <path id="Trazado_120586" data-name="Trazado 120586" d="M1767.96,934.686l-47.7-.969v-4.466l47.7,1.063Z" transform="translate(-1682.751 -925.077)" fill="#bfc8d6"/>
          <path id="Trazado_120587" data-name="Trazado 120587" d="M1767.96,1059.944l-47.7-.8v-4.467l47.7.892Z" transform="translate(-1682.751 -1042.424)" fill="#bfc8d6"/>
          <path id="Trazado_120588" data-name="Trazado 120588" d="M1767.96,1185.2l-47.7-.627v-4.467l47.7.722Z" transform="translate(-1682.751 -1159.77)" fill="#bfc8d6"/>
          <path id="Trazado_120589" data-name="Trazado 120589" d="M1767.96,1310.459l-47.7-.456v-4.467l47.7.551Z" transform="translate(-1682.751 -1277.116)" fill="#bfc8d6"/>
        </g>
        <path id="Trazado_120590" data-name="Trazado 120590" d="M1088.339,705.826a1.2,1.2,0,0,1-1.269,1.182,1.287,1.287,0,0,1-1.27-1.252,1.2,1.2,0,0,1,1.27-1.182A1.287,1.287,0,0,1,1088.339,705.826Z" transform="translate(-1081.767 -702.066)" fill="#fff"/>
      </g>
      <g id="Grupo_57019" data-name="Grupo 57019" transform="translate(545.124 554.726)">
        <g id="Grupo_57017" data-name="Grupo 57017" transform="translate(0 0)">
          <path id="Trazado_120591" data-name="Trazado 120591" d="M1023.209,1714.555v45.656a2.737,2.737,0,0,0,2.865,2.684l93.951-1.988a2.7,2.7,0,0,0,2.629-2.682v-43.684Z" transform="translate(-1023.209 -1708.766)" fill="#ebeff2"/>
          <path id="Trazado_120592" data-name="Trazado 120592" d="M1120.025,1625.128l-93.951-.224a2.8,2.8,0,0,0-2.865,2.738v4.678l99.445-.083v-4.476A2.635,2.635,0,0,0,1120.025,1625.128Z" transform="translate(-1023.209 -1624.904)" fill="#fe7062"/>
          <path id="Trazado_120593" data-name="Trazado 120593" d="M1088.339,1664a1.271,1.271,0,1,1-1.269-1.218A1.243,1.243,0,0,1,1088.339,1664Z" transform="translate(-1081.767 -1660.339)" fill="#fff"/>
        </g>
        <g id="Grupo_57018" data-name="Grupo 57018" transform="translate(12.525 13.602)">
          <path id="Trazado_120594" data-name="Trazado 120594" d="M1224.813,1873.835l-7.23.134v-34.08l7.23-.027Z" transform="translate(-1217.583 -1839.613)" fill="#fff"/>
          <path id="Trazado_120595" data-name="Trazado 120595" d="M1224.813,2132.9l-7.23.134v-16.18l7.23-.083Z" transform="translate(-1217.583 -2098.681)" fill="#fe7062"/>
          <path id="Trazado_120596" data-name="Trazado 120596" d="M1380.674,1873.119l-7.167.133v-33.931l7.167-.026Z" transform="translate(-1363.459 -1839.082)" fill="#fff"/>
          <path id="Trazado_120597" data-name="Trazado 120597" d="M1380.674,2247.635l-7.167.133v-8.055l7.167-.108Z" transform="translate(-1363.459 -2213.597)" fill="#fe7062"/>
          <path id="Trazado_120598" data-name="Trazado 120598" d="M1535.173,1872.409l-7.1.132v-33.783l7.1-.026Z" transform="translate(-1508.061 -1838.555)" fill="#fff"/>
          <path id="Trazado_120599" data-name="Trazado 120599" d="M1535.173,2300.428l-7.1.132v-4.21l7.1-.118Z" transform="translate(-1508.061 -2266.574)" fill="#57dbd8"/>
          <path id="Trazado_120600" data-name="Trazado 120600" d="M1688.328,1871.7l-7.043.131V1838.2l7.043-.026Z" transform="translate(-1651.405 -1838.033)" fill="#fff"/>
          <path id="Trazado_120601" data-name="Trazado 120601" d="M1688.328,1977.162l-7.043.131v-26.35l7.043-.049Z" transform="translate(-1651.405 -1943.49)" fill="#57dbd8"/>
          <path id="Trazado_120602" data-name="Trazado 120602" d="M1840.155,1871.007l-6.982.13v-33.49l6.982-.026Z" transform="translate(-1793.506 -1837.515)" fill="#fff"/>
          <path id="Trazado_120603" data-name="Trazado 120603" d="M1840.155,2019.16l-6.982.129v-23.254l6.982-.057Z" transform="translate(-1793.506 -1985.669)" fill="#57dbd8"/>
          <path id="Trazado_120604" data-name="Trazado 120604" d="M1990.675,1870.315l-6.922.128V1837.1l6.922-.025Z" transform="translate(-1934.383 -1837.002)" fill="#fff"/>
          <path id="Trazado_120605" data-name="Trazado 120605" d="M1990.675,1940.492l-6.922.128v-28.5l6.922-.04Z" transform="translate(-1934.383 -1907.18)" fill="#91b3fa"/>
          <path id="Trazado_120606" data-name="Trazado 120606" d="M2139.9,1869.629l-6.863.127v-33.2l6.863-.025Z" transform="translate(-2074.049 -1836.494)" fill="#fff"/>
          <path id="Trazado_120607" data-name="Trazado 120607" d="M2139.9,2055.018l-6.863.127v-20.394l6.863-.064Z" transform="translate(-2074.049 -2021.883)" fill="#fe7062"/>
          <path id="Trazado_120608" data-name="Trazado 120608" d="M2287.852,1868.948l-6.8.126v-33.06l6.8-.025Z" transform="translate(-2212.521 -1835.989)" fill="#fff"/>
          <path id="Trazado_120609" data-name="Trazado 120609" d="M2287.852,2181.347l-6.8.126v-11.478l6.8-.091Z" transform="translate(-2212.521 -2148.387)" fill="url(#linear-gradient-7)"/>
        </g>
      </g>
      <g id="Grupo_57022" data-name="Grupo 57022" transform="translate(597.284 532.667)">
        <path id="Trazado_120610" data-name="Trazado 120610" d="M2201.907,3068.037s-5.846,2.657-5.942,3.081,3.76-.142,5.334-.081,2.868-.4,2.726-1.071-.693-2.343-.693-2.343Z" transform="translate(-2172.554 -2952.6)" fill="url(#linear-gradient-8)"/>
        <path id="Trazado_120611" data-name="Trazado 120611" d="M2284.884,3036.007l.356,2.632a2.06,2.06,0,0,0,1.547-.06l.265-2.887Z" transform="translate(-2255.745 -2922.726)" fill="url(#linear-gradient-9)"/>
        <path id="Trazado_120612" data-name="Trazado 120612" d="M2650.88,3041.557l.68,1.092a1.3,1.3,0,0,1,.156,1.021c-.238.908-.712,2.677-.92,3.138-.282.628-4.065,1-4.065,1s-.338-.475.448-1.048,1.291-.664,1.568-1.51a22.18,22.18,0,0,0,.462-3.24Z" transform="translate(-2594.208 -2928.214)" fill="url(#linear-gradient-10)"/>
        <path id="Trazado_120613" data-name="Trazado 120613" d="M2668.247,2993.95a35.249,35.249,0,0,1,1.463,3.886s.394.5,1.141-.239.338-.333.338-.333l-.14-3.627Z" transform="translate(-2614.406 -2883.381)" fill="url(#linear-gradient-11)"/>
        <path id="Trazado_120614" data-name="Trazado 120614" d="M2231.748,2166.747c-.308,7.852-.321,16.383.131,25.5.509,10.263,1.531,19.748,2.819,28.347.479.015.982.018,1.508,0,.355-.01.7-.027,1.031-.05a65.275,65.275,0,0,0,2.167-6.928,66.712,66.712,0,0,0,1.512-8.112c1.126-8.894-.194-9.67.72-16.26.809-5.837,1.96-6.065,3.311-14.353,1.466-8.993.375-10.342-.156-10.829C2242.532,2161.985,2237.226,2163.4,2231.748,2166.747Z" transform="translate(-2205.826 -2106.351)" fill="#1a0f91"/>
        <path id="Trazado_120616" data-name="Trazado 120616" d="M2292.513,2154.548a176.324,176.324,0,0,1,24.171,51.735,3.153,3.153,0,0,0,1.726.268,3.212,3.212,0,0,0,1.955-1.056,50.79,50.79,0,0,0,.448-12.521,43.139,43.139,0,0,0-1.761-9.411c-1.423-4.59-2.4-4.848-4.258-9.7-1.927-5.041-1.46-6.3-3.306-12.607a83.236,83.236,0,0,0-4.121-11.06Z" transform="translate(-2262.883 -2094.284)" fill="#1a0f91"/>
        <path id="Trazado_120617" data-name="Trazado 120617" d="M1837.927,1305.272s-1-1.2-1.638-2.089a37.11,37.11,0,0,0-3.577-3.373s-.211.409.424,1.041,1.966,1.711,1.675,2.186-1.127.906-.5,1.777,1.678.244,2.235.941,1.131,1.459,1.131,1.459Z" transform="translate(-1832.678 -1298.699)" fill="url(#linear-gradient-12)"/>
        <path id="Trazado_120618" data-name="Trazado 120618" d="M1887.235,1365.06l-2,2.512a37.372,37.372,0,0,0,6.9,14.66c4.483,5.728,14.045,14.307,20,11.495,3.628-1.714,8.527-7.6,6.766-10.433-1.692-2.727-9.015-1.438-14.044-2.574C1899.926,1379.607,1893.528,1376.019,1887.235,1365.06Z" transform="translate(-1881.847 -1359.745)" fill="#91b3fa"/>
        <path id="Trazado_120619" data-name="Trazado 120619" d="M2504.189,1703s3.9,13.276,1.484,18.384-10.122-.5-10.122-.5Z" transform="translate(-2452.837 -1675.908)" fill="#1a0f91"/>
        <path id="Trazado_120620" data-name="Trazado 120620" d="M2492.986,1703.243s3.9,13.276,1.484,18.384-10.122-.5-10.122-.5Z" transform="translate(-2442.356 -1676.136)" opacity="0.3" fill="url(#linear-gradient-13)" style="mix-blend-mode: multiply;isolation: isolate"/>
        <path id="Trazado_120621" data-name="Trazado 120621" d="M2181.826,1626.541c-5.01-.091-8.869.073-11,2.3-2.253,2.352.131,4.9-.238,10.932-.564,9.235-6.39,11.616-6.628,20.978a23.876,23.876,0,0,0,.957,7.26,25.138,25.138,0,0,0,6.639,5.624c4.592,2.658,7.209,2.12,13.756,3.76,10.709,2.681,11.732,6.13,16.991,5.131,5.315-1.01,9.9-5.6,9.279-8.054-.371-1.469-2.512-1-5.037-3.2-3.254-2.833-2.084-5.63-4.578-8.7-3.583-4.4-8.378-1.559-11.432-5.377-3.09-3.862-2.067-11.627.374-15.9,1.594-2.791,2.232-6.036,3.576-8.955a2.009,2.009,0,0,0,.168-1.13c-.27-1.877-3.428-2.829-5.82-3.526A28.321,28.321,0,0,0,2181.826,1626.541Z" transform="translate(-2142.604 -1604.359)" fill="#91b3fa"/>
        <path id="Trazado_120622" data-name="Trazado 120622" d="M2365.674,1620.523l.98-.325s.287,1.331,3.466,1.429a4.745,4.745,0,0,0,2.88-1.051l.685.477a5.189,5.189,0,0,1-3.795,1.885A4.723,4.723,0,0,1,2365.674,1620.523Z" transform="translate(-2331.33 -1598.443)" fill="url(#linear-gradient-14)"/>
        <g id="Grupo_57020" data-name="Grupo 57020" transform="translate(35.095 0)">
          <path id="Trazado_120623" data-name="Trazado 120623" d="M2377.375,1490.3a4.232,4.232,0,0,1,.728-2.977c.751-1.127.931-1.274,1.256-1.452l.45-.224.052-.015a4.96,4.96,0,0,1,1.4.042c.592.184,1.01,2.7.509,6.161q.036.407.072.815c1.347-.186,1.737-.058,1.806.123a4.148,4.148,0,0,1-2.072,3.123,4.089,4.089,0,0,1-3.986-1.438c-.054-.215-.045-.03,1.051-.665.1-.318.414-1.18.515-1.5C2378.928,1492.143,2377.573,1491.368,2377.375,1490.3Z" transform="translate(-2377.322 -1472.512)" fill="url(#linear-gradient-15)"/>
          <path id="Trazado_120624" data-name="Trazado 120624" d="M2399.531,1538.494c.3-.339.73.044.69.514a.859.859,0,0,1-.972.783C2398.816,1539.658,2399.132,1538.949,2399.531,1538.494Z" transform="translate(-2397.641 -1521.882)" fill="url(#linear-gradient-16)"/>
          <path id="Trazado_120625" data-name="Trazado 120625" d="M2448.114,1283.827c-6.536-3.7-17.343,1.371-22.236,7.605-2.273,2.9-3.018,5.694-6.388,6.993-2.562.988-7.029,1.342-10.125-.781-.39-.267-1.972-1.406-4.233-2.758a4.669,4.669,0,0,0-3.154-.956,2.286,2.286,0,0,0-1.73,1.014,2.312,2.312,0,0,0,.155,2.14c.21.344.339.345.4.595.174.7-.979,1.4-.8,1.723.129.231.75-.069.961.2.232.3-.388.821-.42,1.773a3.767,3.767,0,0,0-.219,2.963,12.249,12.249,0,0,0,1.829,4.446c3.5,4.992,6.006,8.563,9.69,9.821,4.878,1.666,7.55-2.182,17.421-5.831,13.517-5,18.429-1.451,22.332-6.215C2456.476,1300.617,2454.9,1287.666,2448.114,1283.827Z" transform="translate(-2398.527 -1282.574)" fill="#26264f"/>
        </g>
      </g>
      <g id="Grupo_57023" data-name="Grupo 57023" transform="translate(527.699 609.667)">
        <path id="Trazado_120627" data-name="Trazado 120627" d="M752.8,2510.613v19.308a1.174,1.174,0,0,0,1.36,1.067l84.887-5.847a1.013,1.013,0,0,0,.914-1.012v-15.786Z" transform="translate(-752.799 -2506.358)" fill="#ebeff2"/>
        <path id="Trazado_120628" data-name="Trazado 120628" d="M839.045,2477.536l-84.887,1.775a1.305,1.305,0,0,0-1.36,1.189v1.979l87.16-2.4v-1.617A.908.908,0,0,0,839.045,2477.536Z" transform="translate(-752.799 -2477.536)" fill="#57dbd8"/>
        <path id="Trazado_120629" data-name="Trazado 120629" d="M911.921,2568.6l-78.413,4.829v-13.1l78.413-2.656Z" transform="translate(-828.308 -2552.511)" fill="#fff"/>
        <path id="Trazado_120630" data-name="Trazado 120630" d="M911.921,2608.98l-78.413,4.829v-8.422c2.931,5.563,6.021,6.646,8.328,6.572,3.217-.1,4.934-2.462,9.7-2.779,4.657-.31,6.211,1.756,9.631,1.483,6.389-.509,8.1-8.4,13.145-8.656,3.941-.2,6.576,4.479,9.969,4.118,2.453-.261,3.043-2.932,4.883-2.987,1.657-.049,1.726,2.114,3.89,2.207,3.14.135,6.159-4.306,10.378-4.505,2.308-.109,5.153,1.044,8.484,5.195Z" transform="translate(-828.307 -2592.889)" fill="#fe7062"/>
        <path id="Trazado_120631" data-name="Trazado 120631" d="M784.164,2520.464a.578.578,0,0,1-.6.528.546.546,0,0,1-.6-.5.578.578,0,0,1,.6-.528A.546.546,0,0,1,784.164,2520.464Z" transform="translate(-781.02 -2517.23)" fill="#fff"/>
      </g>
    </g>
  </g>
</svg>
