<svg xmlns="http://www.w3.org/2000/svg" xmlns:xlink="http://www.w3.org/1999/xlink" width="393.978" height="294.718" viewBox="0 0 393.978 294.718">
  <defs>
    <linearGradient id="linear-gradient" x1="1.086" y1="1.014" x2="0.335" y2="0.363" gradientUnits="objectBoundingBox">
      <stop offset="0" stop-color="#dae3fe"/>
      <stop offset="1" stop-color="#e9effd"/>
    </linearGradient>
    <linearGradient id="linear-gradient-2" x1="1.981" y1="-2.442" x2="1.467" y2="-1.422" gradientUnits="objectBoundingBox">
      <stop offset="0" stop-color="#e1473d"/>
      <stop offset="1" stop-color="#e9605a"/>
    </linearGradient>
    <linearGradient id="linear-gradient-3" x1="1.254" y1="-0.405" x2="-0.56" y2="1.772" gradientUnits="objectBoundingBox">
      <stop offset="0" stop-color="#4f52ff"/>
      <stop offset="1" stop-color="#4042e2"/>
    </linearGradient>
    <linearGradient id="linear-gradient-4" x1="0" y1="0.5" x2="1" y2="0.5" xlink:href="#linear-gradient"/>
    <linearGradient id="linear-gradient-6" x1="-3.574" y1="0.5" x2="4.574" y2="0.5" xlink:href="#linear-gradient"/>
    <linearGradient id="linear-gradient-7" x1="0.229" y1="0.5" x2="0.771" y2="0.5" xlink:href="#linear-gradient"/>
    <linearGradient id="linear-gradient-8" x1="1.572" y1="-1.533" x2="-0.374" y2="2.157" xlink:href="#linear-gradient-3"/>
    <linearGradient id="linear-gradient-10" x1="0.568" y1="-61.596" x2="0.023" y2="-52.383" gradientUnits="objectBoundingBox">
      <stop offset="0" stop-color="#09005d"/>
      <stop offset="1" stop-color="#1a0f91"/>
    </linearGradient>
    <linearGradient id="linear-gradient-11" x1="39.554" y1="-52.547" x2="38.389" y2="-51.712" xlink:href="#linear-gradient-10"/>
    <linearGradient id="linear-gradient-12" x1="-34.652" y1="4.474" x2="-34.637" y2="8.118" xlink:href="#linear-gradient-10"/>
    <linearGradient id="linear-gradient-13" x1="-69.942" y1="3.704" x2="-69.915" y2="7.135" xlink:href="#linear-gradient-10"/>
    <linearGradient id="linear-gradient-14" x1="-15.233" y1="0.5" x2="-14.233" y2="0.5" xlink:href="#linear-gradient-10"/>
    <linearGradient id="linear-gradient-15" x1="55.121" y1="-13.109" x2="21.456" y2="-4.721" xlink:href="#linear-gradient-10"/>
    <linearGradient id="linear-gradient-16" x1="0" y1="0.5" x2="1" y2="0.5" xlink:href="#linear-gradient-2"/>
  </defs>
  <g id="Grupo_57242" data-name="Grupo 57242" transform="translate(-186 -613)">
    <g id="Image_Place_Holder" data-name="Image Place Holder" transform="translate(186 641.025)">
      <rect id="Image_Place_Holder-2" data-name="Image Place Holder" width="393.978" height="266.693" rx="10" fill="#dad7fa"/>
    </g>
    <g id="Grupo_56141" data-name="Grupo 56141">
      <rect id="Rectángulo_29690" data-name="Rectángulo 29690" width="280" height="256" transform="translate(243 613)" fill="none"/>
      <g id="Grupo_56140" data-name="Grupo 56140" transform="translate(-221.275 158)">
        <path id="Trazado_119454" data-name="Trazado 119454" d="M720.4,637.133c-24.519,57.732-89.832,90.074-146.471,81.35-9.216-1.42-34.483-5.648-56.854-25.6-43.065-38.4-52.274-114.452-17.535-168.043,25.284-39.005,70.608-61.116,113.674-60.01,9.276.238,44.828,1.706,76.072,27.469a117.175,117.175,0,0,1,23.833,27.041C734.538,552.839,736.379,599.508,720.4,637.133Z" transform="translate(0 -8.893)" fill="url(#linear-gradient)"/>
        <g id="Grupo_56116" data-name="Grupo 56116" transform="translate(562.847 455)">
          <g id="Grupo_56110" data-name="Grupo 56110" transform="translate(0 0)">
            <g id="Grupo_56106" data-name="Grupo 56106" transform="translate(13.349)" opacity="0.3">
              <path id="Trazado_119455" data-name="Trazado 119455" d="M1655.667,493.615a.907.907,0,0,1-.869-.943c.04-.972.038-1.96-.005-2.938a.907.907,0,0,1,.848-.945h.018a.907.907,0,0,1,.946.866c.046,1.029.048,2.069.005,3.092a.907.907,0,0,1-.847.868A.859.859,0,0,1,1655.667,493.615Zm-1.411-8.622c-.176-.962-.395-1.925-.651-2.864a.907.907,0,1,1,1.75-.477c.269.988.5,2,.685,3.013a.907.907,0,0,1-.729,1.055.938.938,0,0,1-.107.013A.907.907,0,0,1,1654.256,484.993Zm-2.222-7.367c-.385-.9-.813-1.786-1.273-2.646a.907.907,0,1,1,1.6-.856c.485.905.936,1.843,1.341,2.786a.907.907,0,1,1-1.666.715Zm-3.814-6.685c-.576-.788-1.193-1.56-1.833-2.3a.907.907,0,0,1,1.368-1.191c.674.774,1.324,1.587,1.93,2.417a.907.907,0,0,1-1.464,1.07Zm-5.208-5.668c-.735-.639-1.507-1.256-2.3-1.833a.907.907,0,1,1,1.07-1.464c.83.607,1.643,1.256,2.416,1.928a.907.907,0,1,1-1.19,1.368Zm-6.332-4.375c-.859-.462-1.749-.892-2.644-1.279a.907.907,0,0,1,.719-1.665c.942.407,1.879.86,2.783,1.346a.907.907,0,0,1-.858,1.6Zm-33.669-.422a.907.907,0,0,1,.373-1.227c.905-.483,1.844-.932,2.79-1.336a.907.907,0,0,1,.712,1.668c-.9.384-1.789.811-2.649,1.269a.906.906,0,0,1-1.227-.374Zm26.529-2.438c-.94-.259-1.9-.48-2.86-.657a.907.907,0,1,1,.33-1.783c1.009.186,2.023.419,3.012.692a.907.907,0,1,1-.481,1.748Zm-19.258-.659a.907.907,0,0,1,.639-1.112c.99-.268,2.005-.5,3.016-.679a.907.907,0,1,1,.323,1.785c-.961.174-1.925.391-2.866.646a.917.917,0,0,1-.18.03A.907.907,0,0,1,1610.281,457.379Zm11.659-.534c-.973-.042-1.961-.042-2.936,0a.907.907,0,0,1-.1-1.811h.019c1.027-.044,2.067-.044,3.091,0a.907.907,0,0,1,.02,1.811C1622.006,456.846,1621.973,456.846,1621.94,456.845Z" transform="translate(-1597.58 -455)" fill="#91b3fa"/>
              <path id="Trazado_119456" data-name="Trazado 119456" d="M1545.872,531.292a.9.9,0,0,0,.505-.195c.366-.291.744-.579,1.124-.856a.907.907,0,1,0-1.069-1.465c-.4.292-.8.594-1.183.9a.907.907,0,0,0,.622,1.615Z" transform="translate(-1544.907 -521.845)" fill="#91b3fa"/>
            </g>
            <g id="Grupo_56107" data-name="Grupo 56107" transform="translate(0 30.474)" opacity="0.3">
              <path id="Trazado_119457" data-name="Trazado 119457" d="M1401.877,790.2a.907.907,0,0,0,.844-.818c.045-.465.1-.938.164-1.4a.907.907,0,1,0-1.8-.247c-.067.491-.125.988-.172,1.478a.907.907,0,0,0,.816.989A.924.924,0,0,0,1401.877,790.2Z" transform="translate(-1400.782 -786.946)" fill="#91b3fa"/>
              <path id="Trazado_119458" data-name="Trazado 119458" d="M1436.164,890.816a.907.907,0,0,1-.026-1.813c.953-.014,1.921-.068,2.887-.162a.907.907,0,0,1,.176,1.805q-.628.061-1.253.1C1437.354,890.784,1436.753,890.807,1436.164,890.816Zm6.819-1.655a.907.907,0,0,1,.673-1.091c.936-.222,1.872-.486,2.783-.784a.907.907,0,1,1,.564,1.723c-.959.314-1.945.592-2.929.825a.906.906,0,0,1-1.092-.673Zm-11.753,1.387c-1-.124-2.011-.291-3-.5a.907.907,0,0,1,.373-1.775c.94.2,1.9.358,2.85.475a.907.907,0,0,1-.052,1.8A.929.929,0,0,1,1431.23,890.548Zm19.142-3.814a.907.907,0,0,1,.417-1.213c.863-.421,1.718-.884,2.541-1.376a.907.907,0,0,1,.93,1.557c-.867.518-1.768,1.006-2.676,1.449a.906.906,0,0,1-1.213-.417Zm-26.893,1.968c-.949-.34-1.9-.726-2.817-1.147a.907.907,0,1,1,.754-1.649c.874.4,1.774.766,2.675,1.089a.907.907,0,1,1-.613,1.707Zm-7.159-3.5c-.854-.541-1.694-1.124-2.5-1.734a.907.907,0,1,1,1.1-1.445c.764.579,1.563,1.133,2.374,1.648a.907.907,0,0,1-.97,1.532Zm-6.226-4.978c-.716-.715-1.41-1.467-2.062-2.237a.907.907,0,1,1,1.383-1.172c.62.732,1.279,1.446,1.959,2.125a.907.907,0,0,1-1.281,1.284Zm-4.992-6.218c-.542-.854-1.055-1.74-1.522-2.635a.907.907,0,1,1,1.607-.84c.444.85.93,1.692,1.446,2.5a.907.907,0,1,1-1.531.972Zm-3.505-7.166c-.34-.95-.644-1.927-.9-2.9a.907.907,0,1,1,1.753-.465c.246.928.535,1.856.858,2.758a.907.907,0,1,1-1.707.611Zm-1.844-7.753c-.092-.738-.163-1.487-.21-2.228q-.025-.4-.042-.8a.9.9,0,0,1,.868-.943.906.906,0,0,1,.944.868q.016.381.04.763c.045.7.112,1.416.2,2.118a.907.907,0,0,1-.787,1.012l-.056.005A.907.907,0,0,1,1399.752,859.086Z" transform="translate(-1399.499 -848.853)" fill="#91b3fa"/>
              <path id="Trazado_119459" data-name="Trazado 119459" d="M2025.313,1132.474a.9.9,0,0,0,.509-.2c.383-.307.767-.628,1.141-.954a.907.907,0,0,0-1.192-1.367c-.355.31-.719.615-1.083.906a.907.907,0,0,0,.625,1.612Z" transform="translate(-1966.985 -1098.263)" fill="#91b3fa"/>
            </g>
            <g id="Grupo_56109" data-name="Grupo 56109" transform="translate(8.838 8.632)">
              <path id="Trazado_119460" data-name="Trazado 119460" d="M1546.971,589.631a.424.424,0,0,0,0-.492l-2.987-4.2a22.478,22.478,0,0,0,1.65-7.09l4.532-2.455a.424.424,0,0,0,.216-.442l-1.012-6.1a.424.424,0,0,0-.347-.349l-5.082-.86a22.469,22.469,0,0,0-3.851-6.178l1.47-4.944a.424.424,0,0,0-.16-.465l-5.032-3.6a.424.424,0,0,0-.492,0l-4.2,2.987a22.465,22.465,0,0,0-7.09-1.65l-2.455-4.532a.423.423,0,0,0-.442-.216l-6.1,1.012a.424.424,0,0,0-.349.347l-.86,5.082a22.464,22.464,0,0,0-6.178,3.851l-4.944-1.47a.424.424,0,0,0-.465.16l-3.6,5.032a.424.424,0,0,0,0,.492l2.987,4.205a22.47,22.47,0,0,0-1.65,7.09l-4.533,2.455a.424.424,0,0,0-.216.442l1.012,6.1a.424.424,0,0,0,.347.349l5.082.86a22.472,22.472,0,0,0,3.851,6.178l-1.47,4.944a.424.424,0,0,0,.16.465l5.032,3.6a.424.424,0,0,0,.492,0l4.2-2.987a22.468,22.468,0,0,0,7.09,1.65l2.455,4.533a.424.424,0,0,0,.442.216l6.1-1.012a.424.424,0,0,0,.348-.347l.861-5.082a22.475,22.475,0,0,0,6.178-3.851l4.944,1.47a.424.424,0,0,0,.466-.16Z" transform="translate(-1495.768 -549.028)" fill="#91b3fa"/>
              <g id="Grupo_56108" data-name="Grupo 56108" transform="translate(21.092 21.091)">
                <path id="Trazado_119461" data-name="Trazado 119461" d="M1731.22,791.19a6.215,6.215,0,1,1,.913.009A6.226,6.226,0,0,1,1731.22,791.19Zm-2.566-9.837a4.768,4.768,0,1,0,3.476-1.112,4.836,4.836,0,0,0-.707-.007A4.734,4.734,0,0,0,1728.654,781.353Z" transform="translate(-1725.516 -778.773)" fill="#bdd0fb"/>
              </g>
              <path id="Trazado_119462" data-name="Trazado 119462" d="M1641.794,709.567a15.543,15.543,0,0,0,1.561-.179h0q.246-.041.49-.089a15.426,15.426,0,0,0,2.356-.667l.031-.012.088-.034.171-.067a.363.363,0,0,0,.229-.36.374.374,0,0,0-.025-.111.363.363,0,0,0-.471-.2A14.584,14.584,0,0,1,1630,704.016a14.474,14.474,0,0,1-3.521-7.331,14.749,14.749,0,0,1-.17-1.489,14.567,14.567,0,0,1,28.91-3.277,14.572,14.572,0,0,1-.813,7.716.363.363,0,1,0,.675.266,15.245,15.245,0,0,0,1.03-6.558,15.292,15.292,0,0,0-17.763-14.127,15.3,15.3,0,0,0-12.763,16.024,15.646,15.646,0,0,0,.179,1.563,15.294,15.294,0,0,0,16.026,12.763Z" transform="translate(-1613.643 -667.077)" fill="#bdd0fb"/>
            </g>
          </g>
          <g id="Grupo_56115" data-name="Grupo 56115" transform="translate(59.868 30.547)">
            <g id="Grupo_56111" data-name="Grupo 56111" transform="translate(14.799)" opacity="0.3">
              <path id="Trazado_119463" data-name="Trazado 119463" d="M2525.658,1089.367a.56.56,0,0,0,.51-.436c.1-.464.2-.937.274-1.407a.56.56,0,0,0-1.105-.181c-.073.447-.161.9-.261,1.341a.56.56,0,0,0,.423.67A.57.57,0,0,0,2525.658,1089.367Z" transform="translate(-2496.399 -1059.412)" fill="#91b3fa"/>
              <path id="Trazado_119464" data-name="Trazado 119464" d="M2242.6,813.427a.56.56,0,0,1-.538-.581,23.209,23.209,0,0,0-.03-2.35q-.015-.246-.037-.494a.56.56,0,0,1,.511-.605.58.58,0,0,1,.6.511q.022.259.038.517a24.177,24.177,0,0,1,.031,2.464.56.56,0,0,1-.523.537Zm-1.017-6.239a23.13,23.13,0,0,0-.752-2.742.56.56,0,1,1,1.06-.362,24.225,24.225,0,0,1,.788,2.875.56.56,0,0,1-1.1.23Zm-1.837-5.371a23.109,23.109,0,0,0-1.4-2.474.56.56,0,0,1,.938-.612,24.172,24.172,0,0,1,1.472,2.595.56.56,0,0,1-.258.749.569.569,0,0,1-.21.055A.56.56,0,0,1,2239.746,801.816Zm-3.1-4.755a23.1,23.1,0,0,0-1.965-2.055.56.56,0,0,1,.76-.823,24.331,24.331,0,0,1,2.061,2.155.56.56,0,0,1-.856.723Zm-4.168-3.854a23.325,23.325,0,0,0-2.406-1.516.56.56,0,1,1,.538-.982,24.449,24.449,0,0,1,2.521,1.589.56.56,0,0,1-.654.91Zm-4.978-2.726a22.98,22.98,0,0,0-2.7-.882.56.56,0,0,1,.281-1.084,24.1,24.1,0,0,1,2.832.926.56.56,0,1,1-.413,1.041Zm-5.491-1.425a23.039,23.039,0,0,0-2.837-.193.56.56,0,0,1,.007-1.121,24.282,24.282,0,0,1,2.975.2.56.56,0,0,1-.036,1.114A.546.546,0,0,1,2222.008,789.056Zm-9.152.057a.559.559,0,0,1,.411-.677,24.381,24.381,0,0,1,2.546-.478c.13-.018.26-.034.39-.049a.56.56,0,0,1,.129,1.113c-.122.014-.244.029-.368.046a23.213,23.213,0,0,0-2.431.456.558.558,0,0,1-.676-.411Z" transform="translate(-2212.839 -787.743)" fill="#91b3fa"/>
            </g>
            <g id="Grupo_56112" data-name="Grupo 56112" transform="translate(0 35.548)" opacity="0.3">
              <path id="Trazado_119465" data-name="Trazado 119465" d="M2073.8,1187.765a24.357,24.357,0,0,1-2.931-.029.56.56,0,1,1,.079-1.117,23.146,23.146,0,0,0,2.8.028.56.56,0,0,1,.064,1.118Zm2.269-.781a.559.559,0,0,1,.457-.647,23.432,23.432,0,0,0,2.724-.639.56.56,0,0,1,.321,1.073,24.481,24.481,0,0,1-2.855.669l-.06.007A.56.56,0,0,1,2076.065,1186.984Zm-8.109.366a24.306,24.306,0,0,1-2.838-.737.56.56,0,0,1,.347-1.065,23.2,23.2,0,0,0,2.708.7.56.56,0,1,1-.216,1.1Zm13.628-1.878a.56.56,0,0,1,.288-.738,22.99,22.99,0,0,0,2.489-1.278.56.56,0,1,1,.572.963,24.047,24.047,0,0,1-2.61,1.34.571.571,0,0,1-.189.046A.56.56,0,0,1,2081.584,1185.472Zm-19.192.064a24.364,24.364,0,0,1-2.578-1.4.56.56,0,0,1,.593-.951,23.033,23.033,0,0,0,2.458,1.333.56.56,0,0,1-.474,1.015Zm-4.968-3.1a24.454,24.454,0,0,1-2.169-1.974.56.56,0,0,1,.8-.781,23.373,23.373,0,0,0,2.069,1.883.56.56,0,0,1-.7.872Zm-4.084-4.2a24.154,24.154,0,0,1-1.632-2.438.56.56,0,1,1,.967-.565,22.889,22.889,0,0,0,1.557,2.325.56.56,0,0,1-.891.679Z" transform="translate(-2051.632 -1174.962)" fill="#91b3fa"/>
              <path id="Trazado_119466" data-name="Trazado 119466" d="M2431.81,1241.273a.556.556,0,0,0,.306-.116c.38-.293.751-.6,1.107-.909a.56.56,0,0,0-.737-.844c-.338.3-.694.587-1.055.867a.56.56,0,0,0,.379,1Z" transform="translate(-2396.367 -1233.364)" fill="#91b3fa"/>
            </g>
            <g id="Grupo_56114" data-name="Grupo 56114" transform="translate(2.666 5.731)">
              <path id="Trazado_119467" data-name="Trazado 119467" d="M2114.938,877.338a.284.284,0,0,0,0-.329l-2-2.814a15.038,15.038,0,0,0,1.1-4.744l3.033-1.643a.284.284,0,0,0,.145-.3l-.677-4.084a.283.283,0,0,0-.232-.233l-3.4-.576a15.028,15.028,0,0,0-2.577-4.134l.984-3.308a.283.283,0,0,0-.107-.311l-3.367-2.409a.284.284,0,0,0-.329,0l-2.814,2a15.029,15.029,0,0,0-4.744-1.1l-1.643-3.033a.283.283,0,0,0-.3-.145l-4.084.677a.284.284,0,0,0-.233.232l-.576,3.4a15.027,15.027,0,0,0-4.134,2.577l-3.308-.984a.283.283,0,0,0-.311.107l-2.409,3.367a.283.283,0,0,0,0,.329l2,2.814a15.018,15.018,0,0,0-1.1,4.744l-3.033,1.643a.283.283,0,0,0-.144.3l.677,4.084a.284.284,0,0,0,.233.233l3.4.576a15.022,15.022,0,0,0,2.576,4.134l-.984,3.308a.283.283,0,0,0,.107.312l3.366,2.409a.284.284,0,0,0,.33,0l2.814-2a15.033,15.033,0,0,0,4.744,1.1l1.643,3.033a.284.284,0,0,0,.3.145l4.084-.677a.283.283,0,0,0,.233-.232l.576-3.4a15.033,15.033,0,0,0,4.134-2.577l3.309.984a.283.283,0,0,0,.311-.107Z" transform="translate(-2080.675 -850.169)" fill="#91b3fa"/>
              <g id="Grupo_56113" data-name="Grupo 56113" transform="translate(14.039 14.039)">
                <path id="Trazado_119468" data-name="Trazado 119468" d="M2237.482,1011.554a4.221,4.221,0,1,1,.628.006A4.349,4.349,0,0,1,2237.482,1011.554Zm-2.755-4.48a3.115,3.115,0,0,0,2.847,3.364h0a3.116,3.116,0,0,0,.517-6.211,3.154,3.154,0,0,0-.458,0A3.121,3.121,0,0,0,2234.728,1007.074Z" transform="translate(-2233.596 -1003.097)" fill="#bdd0fb"/>
              </g>
              <path id="Trazado_119469" data-name="Trazado 119469" d="M2175.281,954.747q.53-.034,1.066-.122a10.613,10.613,0,0,0,2.074-.564l.09-.035a.56.56,0,1,0-.412-1.041,9.463,9.463,0,0,1-1.935.536h0l-.109.017a9.338,9.338,0,0,1-4.6-.432,9.492,9.492,0,0,1-2.254-1.17l-.017-.012-.052-.037a9.37,9.37,0,0,1-3.815-6.126,9.61,9.61,0,0,1-.11-.964,9.431,9.431,0,1,1,18.19,2.874.56.56,0,1,0,1.042.411,10.551,10.551,0,1,0-20.35-3.216,10.686,10.686,0,0,0,.123,1.078A10.565,10.565,0,0,0,2175.281,954.747Z" transform="translate(-2156.413 -925.999)" fill="#bdd0fb"/>
            </g>
          </g>
        </g>
        <g id="Grupo_56118" data-name="Grupo 56118" transform="translate(657.487 570.503)">
          <path id="Trazado_119470" data-name="Trazado 119470" d="M2502.04,1716.132a3.028,3.028,0,0,0-3.125-2.975l-65.589,2.1a3.029,3.029,0,0,0-2.931,3.118L2433.631,1827a3.029,3.029,0,0,0,3.057,2.939l64.271-.625a3.029,3.029,0,0,0,3-3.082Z" transform="translate(-2430.393 -1713.156)" fill="#91b3fa"/>
          <g id="Grupo_56117" data-name="Grupo 56117" transform="translate(5.379 8.289)" opacity="0.43">
            <path id="Trazado_119471" data-name="Trazado 119471" d="M2548.407,1803.447H2490c-.568,0-1.024.3-1.018.842l.055,5.1a1.152,1.152,0,0,0,1.044,1.125l58.574.047a1.139,1.139,0,0,0,1.01-1.175l-.177-5.084A.961.961,0,0,0,2548.407,1803.447Z" transform="translate(-2488.981 -1803.447)" fill="#fff"/>
            <path id="Trazado_119472" data-name="Trazado 119472" d="M2549.99,1922.187l-58.662-.1a1.084,1.084,0,0,0-1.021,1.087l.056,5.211a1.094,1.094,0,0,0,1.048,1.065l58.83.162a1.042,1.042,0,0,0,1.018-1.068l-.179-5.259A1.166,1.166,0,0,0,2549.99,1922.187Z" transform="translate(-2490.185 -1911.197)" fill="#fff"/>
            <path id="Trazado_119473" data-name="Trazado 119473" d="M2551.6,2049.131l-58.927-.2c-.573,0-1.035.262-1.029.811l.057,5.257a1.011,1.011,0,0,0,1.051.969l59.088.263a.962.962,0,0,0,1.026-.969l-.181-5.305C2552.666,2049.4,2552.184,2049.133,2551.6,2049.131Z" transform="translate(-2491.4 -2026.394)" fill="#fff"/>
            <path id="Trazado_119474" data-name="Trazado 119474" d="M2553.211,2172.927l-59.186-.3a.947.947,0,0,0-1.032.923l.057,5.3c.006.555.477.868,1.054.872l59.348.365c.587,0,1.053-.307,1.034-.867l-.183-5.353A1.026,1.026,0,0,0,2553.211,2172.927Z" transform="translate(-2492.625 -2138.734)" fill="#fff"/>
            <path id="Trazado_119475" data-name="Trazado 119475" d="M2554.838,2297.8l-59.447-.4a1.036,1.036,0,0,0-1.035,1.037l.058,5.35a1.194,1.194,0,0,0,1.063,1.172l59.619.473a1.123,1.123,0,0,0,1.029-1.166l-.185-5.4A1.127,1.127,0,0,0,2554.838,2297.8Z" transform="translate(-2493.862 -2252.051)" fill="#fff"/>
            <path id="Trazado_119476" data-name="Trazado 119476" d="M2556.478,2423.771l-59.71-.509a1.137,1.137,0,0,0-1.039,1.154l.058,5.4a1.1,1.1,0,0,0,1.066,1.075l59.884.578a1.033,1.033,0,0,0,1.037-1.064l-.186-5.448A1.244,1.244,0,0,0,2556.478,2423.771Z" transform="translate(-2495.109 -2366.36)" fill="#fff"/>
            <path id="Trazado_119477" data-name="Trazado 119477" d="M2558.146,2555.247l-59.986-.619c-.583-.006-1.053.3-1.046.868l.059,5.445a1.016,1.016,0,0,0,1.069.976l60.152.687a.952.952,0,0,0,1.045-.96l-.187-5.5A.993.993,0,0,0,2558.146,2555.247Z" transform="translate(-2496.367 -2485.667)" fill="#fff"/>
            <path id="Trazado_119478" data-name="Trazado 119478" d="M2559.815,2683.484l-60.254-.728a.989.989,0,0,0-1.05.985l.059,5.494c.006.575.485.867,1.073.875l60.421.8c.6.008,1.074-.274,1.054-.854l-.189-5.547A1.091,1.091,0,0,0,2559.815,2683.484Z" transform="translate(-2497.636 -2602.032)" fill="#fff"/>
            <path id="Trazado_119479" data-name="Trazado 119479" d="M2561.5,2812.858l-60.525-.838a1.086,1.086,0,0,0-1.053,1.1l.06,5.543a1.2,1.2,0,0,0,1.082,1.185l60.7.912a1.113,1.113,0,0,0,1.048-1.164l-.191-5.6A1.2,1.2,0,0,0,2561.5,2812.858Z" transform="translate(-2498.917 -2719.429)" fill="#fff"/>
          </g>
        </g>
        <g id="Grupo_56120" data-name="Grupo 56120" transform="translate(613.8 539.115)">
          <path id="Trazado_119480" data-name="Trazado 119480" d="M2029.77,1373.72a2.523,2.523,0,0,0-2.741-2.457l-70.158,6.077a2.559,2.559,0,0,0-2.347,2.514v141.034a2.507,2.507,0,0,0,2.6,2.419H2030.6a2.437,2.437,0,0,0,2.523-2.5Z" transform="translate(-1954.525 -1371.254)" fill="#91b3fa"/>
          <g id="Grupo_56119" data-name="Grupo 56119" transform="translate(7.653 9.566)" opacity="0.68">
            <path id="Trazado_119481" data-name="Trazado 119481" d="M2044.133,1513.307l-5.355.363c-.587.038-.887.58-.887,1.211v128.647c0,.644.131,1.408.724,1.408h5.589a1.249,1.249,0,0,0,1.087-1.291l-.08-129.2A1.083,1.083,0,0,0,2044.133,1513.307Z" transform="translate(-2037.891 -1509.829)" fill="#bdd0fb"/>
            <path id="Trazado_119482" data-name="Trazado 119482" d="M2180.429,1504.027l-5.6.367a1.292,1.292,0,0,0-1.167,1.225l.134,129.594a1.328,1.328,0,0,0,1.182,1.294h5.662c.6,0,1.007-.649,1.006-1.3l-.217-130.034A1.029,1.029,0,0,0,2180.429,1504.027Z" transform="translate(-2161.196 -1501.402)" fill="#bdd0fb" opacity="0.7"/>
            <path id="Trazado_119483" data-name="Trazado 119483" d="M2325.224,1494.626l-5.675.372a1.1,1.1,0,0,0-.948,1.218l.275,130.451c0,.652.354,1.3.964,1.3h5.737a1.389,1.389,0,0,0,1.255-1.307l-.36-130.9A1.217,1.217,0,0,0,2325.224,1494.626Z" transform="translate(-2292.831 -1492.864)" fill="#bdd0fb"/>
            <path id="Trazado_119484" data-name="Trazado 119484" d="M2468.669,1485.1l-5.749.377a1.183,1.183,0,0,0-1.054,1.233l.417,131.3a1.237,1.237,0,0,0,1.073,1.31h5.813a1.314,1.314,0,0,0,1.174-1.315l-.5-131.751A1.152,1.152,0,0,0,2468.669,1485.1Z" transform="translate(-2422.944 -1484.215)" fill="#bdd0fb"/>
            <path id="Trazado_119485" data-name="Trazado 119485" d="M2614,1475.453l-5.826.382a1.279,1.279,0,0,0-1.162,1.247l.562,132.157a1.327,1.327,0,0,0,1.186,1.318h5.891a1.246,1.246,0,0,0,1.091-1.323l-.651-132.616A1.092,1.092,0,0,0,2614,1475.453Z" transform="translate(-2554.76 -1475.451)" fill="#bdd0fb"/>
          </g>
        </g>
        <g id="Grupo_56127" data-name="Grupo 56127" transform="translate(573.624 568.209)">
          <path id="Trazado_119486" data-name="Trazado 119486" d="M1577.391,1690.857a2.732,2.732,0,0,0-2.842-2.692l-55.961,2.244a1.761,1.761,0,0,0-1.69,1.8l2.841,119.632,56.585-.69a2.732,2.732,0,0,0,2.7-2.77Z" transform="translate(-1516.897 -1688.163)" fill="#bdd0fb"/>
          <g id="Grupo_56126" data-name="Grupo 56126" transform="translate(6.312 9.355)" opacity="0.5">
            <g id="Grupo_56121" data-name="Grupo 56121">
              <path id="Trazado_119487" data-name="Trazado 119487" d="M1594.768,1805.459l-9.005,0-.106-15.391h9.025Z" transform="translate(-1585.656 -1790.07)" fill="#fff"/>
              <path id="Trazado_119488" data-name="Trazado 119488" d="M1736.188,1805.43l-8.971,0-.078-15.362h8.991Z" transform="translate(-1714.15 -1790.07)" fill="#fff"/>
              <path id="Trazado_119489" data-name="Trazado 119489" d="M1884.892,1805.4l-8.936,0-.048-15.332h8.956Z" transform="translate(-1849.261 -1790.07)" fill="#fff"/>
              <path id="Trazado_119490" data-name="Trazado 119490" d="M2029.5,1805.406l-9.091-.015-.208-15.32h9.3Z" transform="translate(-1980.307 -1790.07)" fill="#fff"/>
            </g>
            <g id="Grupo_56122" data-name="Grupo 56122" transform="translate(0.152 21.858)">
              <path id="Trazado_119491" data-name="Trazado 119491" d="M1596.393,2044.785l-8.977.048-.106-15.278,9-.028Z" transform="translate(-1587.31 -2029.402)" fill="#fff"/>
              <path id="Trazado_119492" data-name="Trazado 119492" d="M1737.371,2044.312l-8.944.048-.077-15.25,8.963-.028Z" transform="translate(-1715.402 -2028.998)" fill="#fff"/>
              <path id="Trazado_119493" data-name="Trazado 119493" d="M1885.613,2043.816l-8.909.048-.048-15.22,8.928-.028Z" transform="translate(-1850.093 -2028.574)" fill="#fff"/>
              <path id="Trazado_119494" data-name="Trazado 119494" d="M2031.829,2043.334l-9.064.048.075-15.191,8.989-.028Z" transform="translate(-1982.789 -2028.162)" fill="#fff"/>
            </g>
            <g id="Grupo_56123" data-name="Grupo 56123" transform="translate(0.308 44.231)">
              <path id="Trazado_119495" data-name="Trazado 119495" d="M1598.062,2289.781l-8.948.077-.1-15.18,8.968-.057Z" transform="translate(-1589.009 -2274.367)" fill="#fff"/>
              <path id="Trazado_119496" data-name="Trazado 119496" d="M1738.586,2288.856l-8.915.076-.077-15.152,8.934-.057Z" transform="translate(-1716.688 -2273.553)" fill="#fff"/>
              <path id="Trazado_119497" data-name="Trazado 119497" d="M1886.352,2287.883l-8.88.076-.047-15.123,8.9-.057Z" transform="translate(-1850.947 -2272.696)" fill="#fff"/>
              <path id="Trazado_119498" data-name="Trazado 119498" d="M2032.108,2286.94l-9.035.076.075-15.094,8.96-.057Z" transform="translate(-1983.224 -2271.865)" fill="#fff"/>
            </g>
            <g id="Grupo_56124" data-name="Grupo 56124" transform="translate(0.463 66.461)">
              <path id="Trazado_119499" data-name="Trazado 119499" d="M1599.718,2532.857l-8.92.1-.1-14.725,8.939-.086Z" transform="translate(-1590.696 -2517.772)" fill="#fff"/>
              <path id="Trazado_119500" data-name="Trazado 119500" d="M1739.792,2531.486l-8.887.1-.075-14.7,8.906-.086Z" transform="translate(-1717.966 -2516.551)" fill="#fff"/>
              <path id="Trazado_119501" data-name="Trazado 119501" d="M1887.087,2530.044l-8.853.1-.046-14.67,8.871-.085Z" transform="translate(-1851.795 -2515.267)" fill="#fff"/>
              <path id="Trazado_119502" data-name="Trazado 119502" d="M2032.38,2528.645l-9.008.1.076-14.642,8.932-.085Z" transform="translate(-1983.651 -2514.021)" fill="#fff"/>
            </g>
            <g id="Grupo_56125" data-name="Grupo 56125" transform="translate(0.617 88.552)">
              <path id="Trazado_119503" data-name="Trazado 119503" d="M1601.366,2774.746l-8.891.133-.1-14.631,8.91-.114Z" transform="translate(-1592.373 -2759.63)" fill="#fff"/>
              <path id="Trazado_119504" data-name="Trazado 119504" d="M1740.992,2772.934l-8.859.132-.074-14.6,8.877-.114Z" transform="translate(-1719.235 -2758.008)" fill="#fff"/>
              <path id="Trazado_119505" data-name="Trazado 119505" d="M1887.817,2771.027l-8.824.132-.046-14.577,8.843-.113Z" transform="translate(-1852.638 -2756.302)" fill="#fff"/>
              <path id="Trazado_119506" data-name="Trazado 119506" d="M2032.657,2769.178l-8.98.131.076-14.55,8.9-.113Z" transform="translate(-1984.082 -2754.646)" fill="#fff"/>
            </g>
          </g>
        </g>
        <g id="Grupo_56128" data-name="Grupo 56128" transform="translate(502.384 560.585)">
          <rect id="Rectángulo_29691" data-name="Rectángulo 29691" width="88.455" height="62.321" rx="21.666" transform="translate(0)" fill="url(#linear-gradient-2)"/>
          <rect id="Rectángulo_29692" data-name="Rectángulo 29692" width="88.455" height="62.321" rx="21.666" transform="translate(3.438)" fill="#fe7062"/>
          <path id="Trazado_119507" data-name="Trazado 119507" d="M956.946,1742.215c-.68,0-1.255-.008-1.71-.018a1.564,1.564,0,0,1-.383-3.07,76.5,76.5,0,0,0,11.7-4.617c-15.477-1.262-18.567-9.211-19.164-12.847-1.507-9.17,6.452-19.545,17.74-23.129,11.52-3.654,23.189-2.338,29.732,3.356,3.477,3.026,7.249,8.821,5.47,19.25C997,1740.652,966.573,1742.215,956.946,1742.215Zm-1.33-.385h0Zm-.322-2.441h0Zm22.362-7.63-4.9,2.734a107.685,107.685,0,0,1-9.823,4.732c11.949-.72,32.164-4.1,34.629-18.557,1.251-7.34-.278-12.946-4.545-16.659-6.62-5.762-18.349-5.555-27.039-2.8-9.842,3.125-17.086,12.282-15.819,20,1.151,7,9.126,10.922,21.888,10.654Z" transform="translate(-928.26 -1688.1)" fill="#fff"/>
        </g>
        <g id="Grupo_56130" data-name="Grupo 56130" transform="translate(503.463 487.306)">
          <rect id="Rectángulo_29693" data-name="Rectángulo 29693" width="88.455" height="62.321" rx="21.666" transform="translate(0 0)" fill="url(#linear-gradient-3)"/>
          <rect id="Rectángulo_29694" data-name="Rectángulo 29694" width="88.455" height="62.321" rx="21.666" transform="translate(3.425 0.307)" fill="#1a0f91"/>
          <g id="Grupo_56129" data-name="Grupo 56129" transform="translate(19.179 8.903)">
            <path id="Trazado_119508" data-name="Trazado 119508" d="M1009.438,948.47H967.747a6.2,6.2,0,0,1-6.2-6.2v-32.2a6.2,6.2,0,0,1,6.2-6.2h41.692a6.2,6.2,0,0,1,6.2,6.2v32.2A6.2,6.2,0,0,1,1009.438,948.47Zm-41.692-42.44a4.051,4.051,0,0,0-4.047,4.047v32.2a4.051,4.051,0,0,0,4.047,4.047h41.692a4.051,4.051,0,0,0,4.047-4.047v-32.2a4.051,4.051,0,0,0-4.047-4.047Z" transform="translate(-961.551 -903.881)" fill="url(#linear-gradient-4)"/>
            <path id="Trazado_119509" data-name="Trazado 119509" d="M1006.425,944.476l-25.132-18.854,1.29-1.719,23.877,17.913,24.482-17.366,1.244,1.753Z" transform="translate(-979.48 -922.066)" fill="url(#linear-gradient-4)"/>
            <rect id="Rectángulo_29695" data-name="Rectángulo 29695" width="2.149" height="31.814" transform="translate(35.513 14.879) rotate(-29.435)" fill="url(#linear-gradient-6)"/>
            <rect id="Rectángulo_29696" data-name="Rectángulo 29696" width="31.814" height="2.149" transform="matrix(0.483, -0.876, 0.876, 0.483, 1.167, 41.301)" fill="url(#linear-gradient-7)"/>
          </g>
        </g>
        <g id="Grupo_56131" data-name="Grupo 56131" transform="translate(502.384 635.575)">
          <rect id="Rectángulo_29697" data-name="Rectángulo 29697" width="88.455" height="62.321" rx="21.666" transform="translate(0 0)" fill="url(#linear-gradient-8)"/>
          <rect id="Rectángulo_29698" data-name="Rectángulo 29698" width="88.455" height="62.321" rx="21.666" transform="translate(3.438 0)" fill="#1a0f91"/>
          <path id="Trazado_119510" data-name="Trazado 119510" d="M1061.663,2556.939c-3.45,0-7.505-1.617-12.09-4.827h0c-3.031-2.123-16.261-15.353-18.384-18.384-3.824-5.464-5.388-10.176-4.647-14.007a9.318,9.318,0,0,1,4.251-6.08l2.013-1.313a3.276,3.276,0,0,1,4.5.922l5.558,8.337a3.769,3.769,0,0,1-.954,5.185l-.038.026-.958.622a3.341,3.341,0,0,0-.457,5.248l.027.027,10.152,10.153a3.343,3.343,0,0,0,5.25-.457l.647-1a3.768,3.768,0,0,1,5.186-.955l8.336,5.557a3.274,3.274,0,0,1,.923,4.5l-1.313,2.013a9.319,9.319,0,0,1-6.08,4.25A10.1,10.1,0,0,1,1061.663,2556.939Zm-10.857-6.587c4.969,3.479,9.132,4.925,12.367,4.3a7.126,7.126,0,0,0,4.689-3.315l1.313-2.013a1.118,1.118,0,0,0-.315-1.536l-8.336-5.557a1.628,1.628,0,0,0-2.231.4l-.608.937a5.491,5.491,0,0,1-8.611.765l-10.1-10.1a5.491,5.491,0,0,1,.766-8.61l.937-.608a1.63,1.63,0,0,0,.4-2.23l-5.558-8.337a1.12,1.12,0,0,0-1.536-.315l-2.012,1.313a7.126,7.126,0,0,0-3.315,4.689c-.626,3.237.82,7.4,4.3,12.366,1.993,2.846,15.01,15.863,17.857,17.856Z" transform="translate(-1000.156 -2503.555)" fill="url(#linear-gradient-4)"/>
        </g>
        <g id="Grupo_56139" data-name="Grupo 56139" transform="translate(590.148 532.083)">
          <g id="Grupo_56134" data-name="Grupo 56134" transform="translate(0 56.653)">
            <g id="Grupo_56132" data-name="Grupo 56132" transform="translate(18.516 40.396)">
              <path id="Trazado_119511" data-name="Trazado 119511" d="M1944.009,2355.778c-.033,0-.066,0-.1,0l-43.386-.044a1.977,1.977,0,0,1,0-3.954l43.386.044a1.978,1.978,0,0,1,.1,3.952Z" transform="translate(-1898.584 -2351.782)" fill="url(#linear-gradient-10)"/>
            </g>
            <g id="Grupo_56133" data-name="Grupo 56133">
              <path id="Trazado_119512" data-name="Trazado 119512" d="M1700.541,1912.813c.016.03.031.06.044.091l18.255,40.142a2,2,0,0,1-.941,2.628,1.915,1.915,0,0,1-2.576-.965l-18.255-40.142a2,2,0,0,1,.941-2.628A1.923,1.923,0,0,1,1700.541,1912.813Z" transform="translate(-1696.887 -1911.755)" fill="url(#linear-gradient-11)"/>
            </g>
          </g>
          <g id="Grupo_56137" data-name="Grupo 56137" transform="translate(26.451 0)">
            <g id="Grupo_56135" data-name="Grupo 56135" transform="translate(22.103 81.032)">
              <path id="Trazado_119513" data-name="Trazado 119513" d="M2245.338,3082.593a43.966,43.966,0,0,1,.53,4.612,1.986,1.986,0,0,1-1.79,2.1c-3.7.359-12.133,1.022-17.516.246a.9.9,0,0,1-.5-1.554,27.959,27.959,0,0,1,16.4-6.969Z" transform="translate(-2225.777 -2998.059)" fill="url(#linear-gradient-12)"/>
              <path id="Trazado_119514" data-name="Trazado 119514" d="M2395.651,3026.724l-1.873,4.59a1.529,1.529,0,0,1-1.57.949,8.308,8.308,0,0,1-1.53-.3,2.01,2.01,0,0,1-1.336-2.5l1.414-4.727Z" transform="translate(-2374.249 -2946.943)" fill="#ec986a"/>
              <path id="Trazado_119515" data-name="Trazado 119515" d="M2755.063,3137.938a19.655,19.655,0,0,0-5.21,7.161,1.711,1.711,0,0,0,1.625,2.273h7.716a1.819,1.819,0,0,0,1.8-2.128C2760.5,3142.465,2759.083,3137.949,2755.063,3137.938Z" transform="translate(-2701.648 -3049.749)" fill="url(#linear-gradient-13)"/>
              <path id="Trazado_119516" data-name="Trazado 119516" d="M2801.325,3087.807s-.757,3.352-1.34,5.568a.708.708,0,0,1-.926.483,6.457,6.457,0,0,0-2.809-.51.546.546,0,0,1-.6-.545l-.073-5.568Z" transform="translate(-2743.267 -3003.701)" fill="#ec986a"/>
              <path id="Trazado_119517" data-name="Trazado 119517" d="M2415.364,2185.989l-22.806,69.577s4.375,2.865,6.458,2.745L2426.1,2202.4s4.741,34.454,2.444,59.189l7.759.592s12.616-63.21,3.061-84.861Z" transform="translate(-2377.247 -2177.315)" fill="url(#linear-gradient-14)"/>
              <path id="Trazado_119518" data-name="Trazado 119518" d="M2745.448,2370.1l.028,0a.221.221,0,0,0,.191-.247l-.885-7.025a.221.221,0,0,0-.438.055l.885,7.025A.221.221,0,0,0,2745.448,2370.1Z" transform="translate(-2696.736 -2345.619)" fill="url(#linear-gradient-15)"/>
            </g>
            <path id="Trazado_119519" data-name="Trazado 119519" d="M2374.762,1604.9s18.477,1.641,15.864,14.806a179.5,179.5,0,0,1,14.989,41.864,1.331,1.331,0,0,1-1.081,1.583l-30.771,5.269a1.657,1.657,0,0,1-1.884-1.218l-7.352-28.415L2361.662,1652l-9.1-2.372,7.663-38.821S2361.292,1605.142,2374.762,1604.9Z" transform="translate(-2318.817 -1576.417)" fill="#fe7062"/>
            <path id="Trazado_119520" data-name="Trazado 119520" d="M2453.584,1839.155a.245.245,0,0,0,.049-.005.23.23,0,0,0,.175-.273l-2.565-11.778a.229.229,0,1,0-.448.1l2.565,11.778A.229.229,0,0,0,2453.584,1839.155Z" transform="translate(-2408.03 -1778.054)" fill="url(#linear-gradient-16)"/>
            <path id="Trazado_119521" data-name="Trazado 119521" d="M2438.474,2141.473a4.393,4.393,0,0,1,3.177-.413l2.141.533a.775.775,0,0,0,.958-.666l2.216-19.719c2.77,1.315,6.767,1.158,8.085,1.062l-5.1,23.248h-17.844Z" transform="translate(-2391.063 -2045.326)" fill="#ec986a"/>
            <path id="Trazado_119522" data-name="Trazado 119522" d="M1985.009,1743.39l.539-1.792a3.546,3.546,0,0,1,2.072-2.268l9.755-3.923s.147-1.251-2.061-2.1a2.935,2.935,0,0,1-1.692-3.323s3.017,1.376,7.434,3.559a10.337,10.337,0,0,1,4.695,5.111l22.1,26.947-2.595,1.783a6.929,6.929,0,0,1-10.046-2.465l-11.974-22.962A44.632,44.632,0,0,1,1985.009,1743.39Z" transform="translate(-1985.009 -1690.017)" fill="#ec986a"/>
            <path id="Trazado_119523" data-name="Trazado 119523" d="M2586.951,1821.686a22.2,22.2,0,0,0,2.259-.106l.164-.018,6.728-31.369a.229.229,0,1,0-.448-.1L2589,1821.139c-1,.088-6.348.443-9.171-1.557l5.828-27.254-1.217-2.293a.229.229,0,0,0-.405.215l1.139,2.145-5.855,27.379.117.088C2581.471,1821.4,2584.757,1821.686,2586.951,1821.686Z" transform="translate(-2524.755 -1744.447)" fill="url(#linear-gradient-16)"/>
            <g id="Grupo_56136" data-name="Grupo 56136" transform="translate(32.644)">
              <path id="Trazado_118723" data-name="Trazado 118723" d="M2412.856,1325.6l4.729,20.923c.732,3.238-11.189,6.476-12.161,3.143h0l-.011-.04c-.735-2.512-1.368-4.842-1.368-4.842s-4.941.647-6.382-4.063c-.683-2.229-1.707-6.893-2.6-11.179a9.449,9.449,0,0,1,6.6-10.977l.217-.063a9.117,9.117,0,0,1,10.925,6.841C2412.821,1325.432,2412.839,1325.517,2412.856,1325.6Z" transform="translate(-2389.883 -1316.102)" fill="#ec986a"/>
              <path id="Trazado_118724" data-name="Trazado 118724" d="M2494.57,1571.361a11.484,11.484,0,0,0,5.663-3.56s-.459,3.852-5.3,4.779Z" transform="translate(-2480.434 -1542.724)" fill="#d27345"/>
              <path id="Trazado_118725" data-name="Trazado 118725" d="M2418.535,1459.074c.112.066.485-.458,1.24-.673s1.363,0,1.416-.117-.1-.186-.386-.283a1.914,1.914,0,0,0-1.164-.019,1.868,1.868,0,0,0-.95.65C2418.512,1458.87,2418.483,1459.045,2418.535,1459.074Z" transform="translate(-2411.359 -1442.913)" fill="#263238"/>
              <path id="Trazado_118726" data-name="Trazado 118726" d="M2495.5,1436.553c.112.066.487-.453,1.235-.672s1.368,0,1.421-.118-.1-.181-.386-.283a1.919,1.919,0,0,0-1.17-.017,1.864,1.864,0,0,0-.95.65C2495.48,1436.349,2495.451,1436.525,2495.5,1436.553Z" transform="translate(-2481.26 -1422.46)" fill="#263238"/>
              <path id="Trazado_118727" data-name="Trazado 118727" d="M2461.516,1445.239a5.289,5.289,0,0,0-1.238.133c-.188.055-.376.048-.447-.067a.965.965,0,0,1-.042-.608c.039-.5.085-1.023.158-1.577a25.907,25.907,0,0,0,.152-4.054,25.1,25.1,0,0,0-.481,4.032c-.037.55-.077,1.07-.109,1.575a1.138,1.138,0,0,0,.115.753.508.508,0,0,0,.389.184,1.416,1.416,0,0,0,.325-.052A4.583,4.583,0,0,0,2461.516,1445.239Z" transform="translate(-2448.575 -1425.808)" fill="#263238"/>
              <path id="Trazado_118728" data-name="Trazado 118728" d="M2481.872,1398.2c.131.172.829-.131,1.71-.277s1.639-.114,1.7-.324c.021-.1-.154-.252-.483-.36a2.819,2.819,0,0,0-1.352-.069,2.862,2.862,0,0,0-1.246.526C2481.924,1397.908,2481.815,1398.107,2481.872,1398.2Z" transform="translate(-2468.889 -1387.706)" fill="#263238"/>
              <path id="Trazado_118729" data-name="Trazado 118729" d="M2410.751,1425.067c.174.129.622-.182,1.227-.359s1.139-.216,1.209-.422-.1-.243-.37-.332a1.787,1.787,0,0,0-1.077.024,1.74,1.74,0,0,0-.885.618C2410.69,1424.819,2410.67,1425,2410.751,1425.067Z" transform="translate(-2404.269 -1412.019)" fill="#263238"/>
              <path id="Trazado_118730" data-name="Trazado 118730" d="M2518.442,1319.712h0a3.9,3.9,0,0,1,2.141,2l.028.1c.577,1.293.949,2.672,1.538,3.962a6.4,6.4,0,0,0,2.726,3.155c.523.262,1.33.311,1.524-.235a1.192,1.192,0,0,0-.009-.667c-.7-3.327-.656-6.475-1.651-9.877a3.008,3.008,0,0,0-1.876-1.985c-.862-.3-1.885-.576-2.568.033s-1.272,2.386-1.7,3.194" transform="translate(-2502.115 -1313.888)" fill="#263238"/>
              <path id="Trazado_118731" data-name="Trazado 118731" d="M2580.313,1420.823c.07-.058,2.959-1.913,3.807,1.364s-2.6,3.432-2.634,3.343S2580.313,1420.823,2580.313,1420.823Z" transform="translate(-2558.306 -1408.718)" fill="#ec986a"/>
              <path id="Trazado_118732" data-name="Trazado 118732" d="M2596.709,1433.982s.069.023.175.048a.594.594,0,0,0,.422-.124,1.45,1.45,0,0,0,.326-1.427,1.943,1.943,0,0,0-.368-.772.671.671,0,0,0-.541-.325.3.3,0,0,0-.3.241c-.019.1.045.154,0,.173s-.085-.037-.095-.177a.4.4,0,0,1,.078-.24.459.459,0,0,1,.294-.16.822.822,0,0,1,.723.352,1.936,1.936,0,0,1,.429.853,1.515,1.515,0,0,1-.467,1.624.594.594,0,0,1-.538.046C2596.739,1434.06,2596.7,1433.991,2596.709,1433.982Z" transform="translate(-2572.856 -1418.68)" fill="#d27345"/>
              <path id="Trazado_118733" data-name="Trazado 118733" d="M2359.009,1297.424c.422-1.524-2.3-2.741-4.041-2.777s-3.618,1.356-5.045,2.344a9.19,9.19,0,0,1-2.833,1.647,7.46,7.46,0,0,1-2.2.08,5.409,5.409,0,0,0-2.186.194,2.028,2.028,0,0,0-1.4,1.58,1.272,1.272,0,0,0,1.125,1.4h0a1.353,1.353,0,0,0,.172.007,1.653,1.653,0,1,0,.438,3.063c-.559-.214-1.076.557-.874,1.123a1.739,1.739,0,0,0,1.482.892,6.254,6.254,0,0,0,4.289-1.33c1.256-.875,2.338-1.985,3.569-2.9s3.286-2.492,4.817-2.407c1.127.061,2.178,1.091,2.669.65a2.039,2.039,0,0,0,.6-1.749,5.79,5.79,0,0,0-.6-1.825" transform="translate(-2340.593 -1294.646)" fill="#263238"/>
              <path id="Trazado_118734" data-name="Trazado 118734" d="M2357.8,1311.165c.028-.008.236.191.694.466a4.615,4.615,0,0,0,2.126.617,4.264,4.264,0,0,0,3.047-1.022,15.448,15.448,0,0,0,2.417-3.322,6.958,6.958,0,0,1,3.129-2.775,3.889,3.889,0,0,1,3.4.164,2.937,2.937,0,0,1,1.36,1.851,2.36,2.36,0,0,1,.03.611c-.02.142-.042.217-.055.214a4.673,4.673,0,0,0-.109-.817,2.884,2.884,0,0,0-1.322-1.677,3.7,3.7,0,0,0-3.166-.083,6.82,6.82,0,0,0-2.952,2.723,14.76,14.76,0,0,1-2.5,3.37,4.562,4.562,0,0,1-5.443.267,2.717,2.717,0,0,1-.484-.4C2357.863,1311.226,2357.8,1311.171,2357.8,1311.165Z" transform="translate(-2356.217 -1303.882)" fill="#445a65"/>
              <path id="Trazado_118735" data-name="Trazado 118735" d="M2541.938,1342.9a.882.882,0,0,1-.365-.271,2.258,2.258,0,0,1-.494-1.095c-.236-1.059.362-2.448.056-3.914a3.33,3.33,0,0,0-.924-1.824,2.533,2.533,0,0,0-1.5-.688,2.279,2.279,0,0,0-1.122.167,2.394,2.394,0,0,1-.387.2,1.044,1.044,0,0,1,.33-.313,2.123,2.123,0,0,1,1.2-.288,2.7,2.7,0,0,1,1.7.7,3.569,3.569,0,0,1,1.039,1.983,6.27,6.27,0,0,1-.027,2.214,6.414,6.414,0,0,0-.114,1.731A2.562,2.562,0,0,0,2541.938,1342.9Z" transform="translate(-2519.151 -1331.173)" fill="#445a65"/>
              <path id="Trazado_118736" data-name="Trazado 118736" d="M2470.929,1508.2a3.3,3.3,0,0,1-.458,2.141,2.069,2.069,0,0,1-1.915.951,3.4,3.4,0,0,1-1.685-.951Z" transform="translate(-2455.278 -1488.591)" fill="#fff"/>
            </g>
          </g>
          <g id="Grupo_56138" data-name="Grupo 56138" transform="translate(7.878 100.646)">
            <path id="Trazado_119524" data-name="Trazado 119524" d="M2232.244,2435.4c.176.6,16.978,52.216,21.238,65.3.491,1.508-.88,2.989-2.765,2.989a2.815,2.815,0,0,1-2.777-1.8l-18.652-61.945Z" transform="translate(-2188.29 -2431.324)" fill="#7d97f4"/>
            <path id="Trazado_119525" data-name="Trazado 119525" d="M1950.162,2435.4c-.176.6-16.978,52.216-21.238,65.3-.491,1.508.88,2.989,2.765,2.989a2.815,2.815,0,0,0,2.777-1.8l18.652-61.945Z" transform="translate(-1915.409 -2431.324)" fill="#7d97f4"/>
            <path id="Trazado_119526" data-name="Trazado 119526" d="M2153.633,2412.957H2164.1v8.4a2.175,2.175,0,0,1-2.161,2.187H2160.5v18.876a1.636,1.636,0,1,1-3.271,0v-18.876h-.729a2.886,2.886,0,0,1-2.868-2.9Z" transform="translate(-2119.579 -2410.938)" fill="#7d97f4"/>
            <path id="Trazado_119527" data-name="Trazado 119527" d="M1859.185,2390.97h-73.221a2.213,2.213,0,0,0-2.173,1.359l-1.022,3.2c-.368,1.151.713,2.272,2.186,2.265l75.132-.349c1.456-.007,2.519-1.115,2.163-2.255l-.889-2.85A2.21,2.21,0,0,0,1859.185,2390.97Z" transform="translate(-1782.697 -2390.97)" fill="#7d97f4"/>
          </g>
        </g>
      </g>
    </g>
  </g>
</svg>
