<svg xmlns="http://www.w3.org/2000/svg" width="68" height="68" viewBox="0 0 68 68">
  <g id="Grupo_55826" data-name="Grupo 55826" transform="translate(-0.201 -0.094)">
    <rect id="Rectángulo_29640" data-name="Rectángulo 29640" width="68" height="68" transform="translate(0.201 0.094)" fill="none"/>
    <circle id="Elipse_4183" data-name="Elipse 4183" cx="1.764" cy="1.764" r="1.764" transform="translate(42.153 16.692)" fill="#fe7062"/>
    <circle id="Elipse_4184" data-name="Elipse 4184" cx="1.764" cy="1.764" r="1.764" transform="translate(47.444 16.692)" fill="#fe7062"/>
    <circle id="Elipse_4185" data-name="Elipse 4185" cx="1.764" cy="1.764" r="1.764" transform="translate(52.734 16.692)" fill="#fe7062"/>
    <path id="Trazado_118221" data-name="Trazado 118221" d="M-141.43,7a13.09,13.09,0,0,0-1.65.106,12.332,12.332,0,0,0-10.555,10.235,12.187,12.187,0,0,0,.567,5.954,12.17,12.17,0,0,0,2.437,4.056c.457.5-.044,1.866-1.087,4.068-.624,1.316,0,2.035,1.469,2.035h.08c3.466,0,4.65-.008,6.68-2.2a12.586,12.586,0,0,0,2.058.168c.3,0,.612-.01.921-.033a12.413,12.413,0,0,0,11.417-11.777A12.273,12.273,0,0,0-141.43,7Zm.77,22.04q-.388.028-.77.028a10.465,10.465,0,0,1-1.7-.14,4.071,4.071,0,0,0-.665-.055,4.064,4.064,0,0,0-2.983,1.305,3.061,3.061,0,0,1-1.33,1.046c.554-1.918.582-3.867-.9-5.506a9.914,9.914,0,0,1-2-3.318,9.933,9.933,0,0,1-.459-4.883,10.147,10.147,0,0,1,8.656-8.361,10.88,10.88,0,0,1,1.384-.089,10.144,10.144,0,0,1,7.352,3.1,9.856,9.856,0,0,1,2.8,7.228A10.279,10.279,0,0,1-140.66,29.04Z" transform="translate(190.637 -0.889)" fill="#fe7062"/>
    <path id="Trazado_118222" data-name="Trazado 118222" d="M-163.632,42.508l-.127-.108a12.3,12.3,0,0,0,3.87-8.96,12.345,12.345,0,0,0-12.345-12.345A12.345,12.345,0,0,0-184.58,33.439a12.3,12.3,0,0,0,3.907,8.994l-.092.077c-4.239,3.592-6.487,5.927-7.269,15.967,0,1.18.505,2.877,2.911,4.265,2.84,1.639,7.881,2.459,12.924,2.459s10.088-.821,12.927-2.459c2.405-1.39,2.909-3.086,2.9-4.4C-157.145,48.435-159.393,46.1-163.632,42.508Zm-18.411-9.069a9.819,9.819,0,0,1,9.808-9.808,9.819,9.819,0,0,1,9.808,9.808,9.819,9.819,0,0,1-9.808,9.808A9.819,9.819,0,0,1-182.043,33.439ZM-186.258,59.4c.859-10.168,3.055-11.892,7.426-15.326l1-.79c.306.14.613.278.931.4l3.594,4.582-4.346,9.236,4.775,5.413c-4.8-.152-9.388-.912-11.963-2.289C-185.263,60.4-186.252,59.809-186.258,59.4Zm26.574,1.275c-2.5,1.355-6.963,2.1-11.631,2.239l4.609-5.289L-170.9,48.6l3.467-4.478c.326-.125.641-.269.955-.416l1,.8c4.217,3.355,6.334,5.039,7.157,14.822C-158.322,59.879-159.276,60.453-159.684,60.677Z" transform="translate(194.988 -2.679)" fill="#fe7062"/>
  </g>
</svg>
