<svg xmlns="http://www.w3.org/2000/svg" width="138" height="138" viewBox="0 0 138 138">
  <g id="Grupo_56629" data-name="Grupo 56629" transform="translate(-1072 -8364)">
    <circle id="Elipse_4255" data-name="Elipse 4255" cx="69" cy="69" r="69" transform="translate(1072 8364)" fill="#fff"/>
    <g id="Grupo_56537" data-name="Grupo 56537" transform="translate(1061.363 8250.26)">
      <g id="_12" data-name="12" transform="translate(42.798 184.295)">
        <g id="Grupo_56523" data-name="Grupo 56523" transform="translate(41.309)">
          <g id="Grupo_56522" data-name="Grupo 56522">
            <g id="Grupo_56519" data-name="Grupo 56519" transform="translate(0 26.975)" style="isolation: isolate">
              <path id="Trazado_119955" data-name="Trazado 119955" d="M101.783,183.405v10.151c0,3.857-5.179,7.115-12.3,8.156a32.41,32.41,0,0,1-4.884.354,32.831,32.831,0,0,1-6.537-.634c-6.246-1.275-10.639-4.325-10.639-7.876V183.405c0,3.55,4.392,6.587,10.639,7.865a34.185,34.185,0,0,0,11.421.28C96.6,190.52,101.783,187.262,101.783,183.405Z" transform="translate(-67.417 -174.897)" fill="#15202e"/>
              <path id="Trazado_119956" data-name="Trazado 119956" d="M84.6,178.334c-9.488,0-17.182,3.809-17.182,8.5s7.694,8.508,17.182,8.508,17.187-3.81,17.187-8.508S94.094,178.334,84.6,178.334Z" transform="translate(-67.419 -178.334)" fill="#16405e"/>
            </g>
            <g id="Grupo_56520" data-name="Grupo 56520" transform="translate(0 13.488)" style="isolation: isolate">
              <path id="Trazado_119957" data-name="Trazado 119957" d="M101.783,175.364v10.164c0,3.854-5.179,7.114-12.3,8.144a33.895,33.895,0,0,1-11.421-.282c-6.246-1.277-10.639-4.312-10.639-7.862V175.364c0,3.55,4.392,6.6,10.639,7.877a32.965,32.965,0,0,0,6.537.631,32.415,32.415,0,0,0,4.884-.351C96.6,182.478,101.783,179.221,101.783,175.364Z" transform="translate(-67.417 -166.859)" fill="#15202e"/>
              <path id="Trazado_119958" data-name="Trazado 119958" d="M84.6,170.295c-9.488,0-17.182,3.809-17.182,8.5s7.694,8.506,17.182,8.506,17.187-3.809,17.187-8.506S94.094,170.295,84.6,170.295Z" transform="translate(-67.419 -170.295)" fill="#16405e"/>
            </g>
            <g id="Grupo_56521" data-name="Grupo 56521" style="isolation: isolate">
              <path id="Trazado_119959" data-name="Trazado 119959" d="M101.783,167.322v10.164c0,3.856-5.179,7.116-12.3,8.157a34.014,34.014,0,0,1-11.421-.282c-6.246-1.277-10.639-4.325-10.639-7.876V167.322c0,3.554,4.392,6.6,10.639,7.879a32.959,32.959,0,0,0,6.537.633,32.193,32.193,0,0,0,4.884-.354C96.6,174.438,101.783,171.179,101.783,167.322Z" transform="translate(-67.417 -158.822)" fill="#15202e"/>
              <path id="Trazado_119960" data-name="Trazado 119960" d="M84.6,162.256c-9.488,0-17.182,3.809-17.182,8.5s7.694,8.506,17.182,8.506,17.187-3.807,17.187-8.506S94.094,162.256,84.6,162.256Z" transform="translate(-67.419 -162.256)" fill="#16405e"/>
              <path id="Trazado_119961" data-name="Trazado 119961" d="M82.355,163.9c-6.416,0-11.619,2.575-11.619,5.751s5.2,5.751,11.619,5.751,11.622-2.572,11.622-5.751S88.772,163.9,82.355,163.9Z" transform="translate(-65.171 -161.144)" fill="#17283d"/>
            </g>
          </g>
          <path id="Trazado_119962" data-name="Trazado 119962" d="M85.184,172.3v10.164a34.014,34.014,0,0,1-11.421-.282V172.018a32.959,32.959,0,0,0,6.537.633A32.193,32.193,0,0,0,85.184,172.3Z" transform="translate(-63.119 -155.639)" fill="#17283d"/>
          <path id="Trazado_119963" data-name="Trazado 119963" d="M85.184,180.339V190.49a33.895,33.895,0,0,1-11.421-.282V180.059a32.964,32.964,0,0,0,6.537.631A32.415,32.415,0,0,0,85.184,180.339Z" transform="translate(-63.119 -150.189)" fill="#17283d"/>
          <path id="Trazado_119964" data-name="Trazado 119964" d="M80.3,188.724a32.64,32.64,0,0,0,4.884-.351v10.161a32.41,32.41,0,0,1-4.884.354,32.831,32.831,0,0,1-6.537-.634V188.093A32.96,32.96,0,0,0,80.3,188.724Z" transform="translate(-63.119 -144.744)" fill="#17283d"/>
        </g>
        <g id="Grupo_56528" data-name="Grupo 56528">
          <g id="Grupo_56527" data-name="Grupo 56527">
            <g id="Grupo_56524" data-name="Grupo 56524" transform="translate(0 26.975)" style="isolation: isolate">
              <path id="Trazado_119965" data-name="Trazado 119965" d="M77.162,183.405v10.151c0,3.857-5.179,7.115-12.3,8.156a32.439,32.439,0,0,1-4.887.354,32.843,32.843,0,0,1-6.537-.634C47.2,200.156,42.8,197.106,42.8,193.556V183.405c0,3.55,4.394,6.587,10.637,7.865a34.2,34.2,0,0,0,11.424.28C71.983,190.52,77.162,187.262,77.162,183.405Z" transform="translate(-42.796 -174.897)" fill="#14b0bf"/>
              <path id="Trazado_119966" data-name="Trazado 119966" d="M59.98,178.334c-9.486,0-17.182,3.809-17.182,8.5s7.7,8.508,17.182,8.508,17.186-3.81,17.186-8.508S69.473,178.334,59.98,178.334Z" transform="translate(-42.798 -178.334)" fill="#17c5cc"/>
            </g>
            <g id="Grupo_56525" data-name="Grupo 56525" transform="translate(0 13.488)" style="isolation: isolate">
              <path id="Trazado_119967" data-name="Trazado 119967" d="M77.162,175.364v10.164c0,3.854-5.179,7.114-12.3,8.144a33.915,33.915,0,0,1-11.424-.282C47.2,192.113,42.8,189.078,42.8,185.528V175.364c0,3.55,4.394,6.6,10.637,7.877a32.977,32.977,0,0,0,6.537.631,32.444,32.444,0,0,0,4.887-.351C71.983,182.478,77.162,179.221,77.162,175.364Z" transform="translate(-42.796 -166.859)" fill="#14b0bf"/>
              <path id="Trazado_119968" data-name="Trazado 119968" d="M59.98,170.295c-9.486,0-17.182,3.809-17.182,8.5s7.7,8.506,17.182,8.506S77.166,183.5,77.166,178.8,69.473,170.295,59.98,170.295Z" transform="translate(-42.798 -170.295)" fill="#17c5cc"/>
            </g>
            <g id="Grupo_56526" data-name="Grupo 56526" style="isolation: isolate">
              <path id="Trazado_119969" data-name="Trazado 119969" d="M77.162,167.322v10.164c0,3.856-5.179,7.116-12.3,8.157a34.034,34.034,0,0,1-11.424-.282C47.2,184.085,42.8,181.036,42.8,177.486V167.322c0,3.554,4.394,6.6,10.637,7.879a32.971,32.971,0,0,0,6.537.633,32.222,32.222,0,0,0,4.887-.354C71.983,174.438,77.162,171.179,77.162,167.322Z" transform="translate(-42.796 -158.822)" fill="#14b0bf"/>
              <path id="Trazado_119970" data-name="Trazado 119970" d="M59.98,162.256c-9.486,0-17.182,3.809-17.182,8.5s7.7,8.506,17.182,8.506,17.186-3.807,17.186-8.506S69.473,162.256,59.98,162.256Z" transform="translate(-42.798 -162.256)" fill="#17c5cc"/>
              <path id="Trazado_119971" data-name="Trazado 119971" d="M57.734,163.9c-6.414,0-11.619,2.575-11.619,5.751s5.2,5.751,11.619,5.751,11.622-2.572,11.622-5.751S64.153,163.9,57.734,163.9Z" transform="translate(-40.55 -161.144)" fill="#2dd"/>
            </g>
          </g>
          <path id="Trazado_119972" data-name="Trazado 119972" d="M60.565,172.3v10.164a34.034,34.034,0,0,1-11.424-.282V172.018a32.971,32.971,0,0,0,6.537.633A32.222,32.222,0,0,0,60.565,172.3Z" transform="translate(-38.499 -155.639)" fill="#1ab9c1"/>
          <path id="Trazado_119973" data-name="Trazado 119973" d="M60.565,180.339V190.49a33.915,33.915,0,0,1-11.424-.282V180.059a32.977,32.977,0,0,0,6.537.631A32.444,32.444,0,0,0,60.565,180.339Z" transform="translate(-38.499 -150.189)" fill="#1ab9c1"/>
          <path id="Trazado_119974" data-name="Trazado 119974" d="M55.678,188.724a32.669,32.669,0,0,0,4.887-.351v10.161a32.439,32.439,0,0,1-4.887.354,32.843,32.843,0,0,1-6.537-.634V188.093A32.972,32.972,0,0,0,55.678,188.724Z" transform="translate(-38.499 -144.744)" fill="#1ab9c1"/>
        </g>
        <g id="Grupo_56533" data-name="Grupo 56533" transform="translate(21.655 4.546)">
          <g id="Grupo_56532" data-name="Grupo 56532">
            <g id="Grupo_56529" data-name="Grupo 56529" transform="translate(0 26.975)" style="isolation: isolate">
              <path id="Trazado_119975" data-name="Trazado 119975" d="M90.067,191.334v10.151c0,3.857-5.179,7.114-12.3,8.157a32.391,32.391,0,0,1-4.884.351,32.985,32.985,0,0,1-6.537-.631c-6.243-1.28-10.637-4.325-10.637-7.877V191.334c0,3.552,4.394,6.585,10.637,7.864a34.012,34.012,0,0,0,11.421.282C84.888,198.448,90.067,195.19,90.067,191.334Z" transform="translate(-55.703 -182.824)" fill="#c5d5e6"/>
              <path id="Trazado_119976" data-name="Trazado 119976" d="M72.887,186.262c-9.486,0-17.182,3.809-17.182,8.506s7.7,8.5,17.182,8.5,17.187-3.809,17.187-8.5S82.378,186.262,72.887,186.262Z" transform="translate(-55.705 -186.262)" fill="#97b0cc"/>
            </g>
            <g id="Grupo_56530" data-name="Grupo 56530" transform="translate(0 13.489)" style="isolation: isolate">
              <path id="Trazado_119977" data-name="Trazado 119977" d="M90.067,183.291v10.164c0,3.856-5.179,7.117-12.3,8.147a32.6,32.6,0,0,1-4.884.352,33.107,33.107,0,0,1-6.537-.633c-6.243-1.28-10.637-4.315-10.637-7.867V183.291c0,3.555,4.394,6.6,10.637,7.879a32.981,32.981,0,0,0,6.537.633,32.383,32.383,0,0,0,4.884-.352C84.888,190.408,90.067,187.15,90.067,183.291Z" transform="translate(-55.703 -174.79)" fill="#c5d5e6"/>
              <path id="Trazado_119978" data-name="Trazado 119978" d="M72.887,178.224c-9.486,0-17.182,3.809-17.182,8.5s7.7,8.508,17.182,8.508,17.187-3.807,17.187-8.508S82.378,178.224,72.887,178.224Z" transform="translate(-55.705 -178.224)" fill="#97b0cc"/>
            </g>
            <g id="Grupo_56531" data-name="Grupo 56531" style="isolation: isolate">
              <path id="Trazado_119979" data-name="Trazado 119979" d="M90.067,175.251v10.164c0,3.856-5.179,7.115-12.3,8.157a34.2,34.2,0,0,1-11.421-.284c-6.243-1.277-10.637-4.324-10.637-7.874V175.251c0,3.552,4.394,6.6,10.637,7.877a34.012,34.012,0,0,0,11.421.282C84.888,182.365,90.067,179.108,90.067,175.251Z" transform="translate(-55.703 -166.75)" fill="#c5d5e6"/>
              <path id="Trazado_119980" data-name="Trazado 119980" d="M72.887,170.184c-9.486,0-17.182,3.812-17.182,8.5s7.7,8.508,17.182,8.508,17.187-3.809,17.187-8.508S82.378,170.184,72.887,170.184Z" transform="translate(-55.705 -170.184)" fill="#fff"/>
              <path id="Trazado_119981" data-name="Trazado 119981" d="M70.445,171.969c-6.149,0-11.135,2.468-11.135,5.513s4.986,5.51,11.135,5.51,11.137-2.466,11.137-5.51S76.6,171.969,70.445,171.969Z" transform="translate(-53.262 -168.974)" fill="#c5d5e6"/>
            </g>
          </g>
          <path id="Trazado_119982" data-name="Trazado 119982" d="M73.469,180.228V190.39a34.2,34.2,0,0,1-11.421-.284V179.946a34.012,34.012,0,0,0,11.421.282Z" transform="translate(-51.406 -163.567)" fill="#fff"/>
          <path id="Trazado_119983" data-name="Trazado 119983" d="M73.469,188.267v10.152a32.6,32.6,0,0,1-4.884.352,33.107,33.107,0,0,1-6.537-.633V187.987a32.981,32.981,0,0,0,6.537.633A32.383,32.383,0,0,0,73.469,188.267Z" transform="translate(-51.406 -158.117)" fill="#fff"/>
          <path id="Trazado_119984" data-name="Trazado 119984" d="M68.585,196.655a32.822,32.822,0,0,0,4.884-.352v10.162a32.391,32.391,0,0,1-4.884.351,32.985,32.985,0,0,1-6.537-.631V196.021A32.978,32.978,0,0,0,68.585,196.655Z" transform="translate(-51.406 -152.672)" fill="#fff"/>
        </g>
      </g>
      <g id="Grupo_56534" data-name="Grupo 56534" transform="translate(50.509 123.104)">
        <path id="Trazado_119985" data-name="Trazado 119985" d="M54.655,134.237a4.43,4.43,0,1,0,4.431-4.5A4.468,4.468,0,0,0,54.655,134.237Z" transform="translate(-51.125 -129.74)" fill="#2dd"/>
        <path id="Trazado_119986" data-name="Trazado 119986" d="M53.36,136.245a2.5,2.5,0,0,1,2.48-2.57H66.7a2.507,2.507,0,0,1,2.483,2.529c0,3.82,0,7.517.008,11.388a2.463,2.463,0,0,1-2.442,2.488h-.008l-.026,0c.036,3.247.043,6.492.018,9.68a2.464,2.464,0,0,1-2.447,2.465h-.02a2.467,2.467,0,0,1-2.426-2.5c.028-3.664.015-5.868-.038-9.6h-.851c-.056,3.689-.074,5.87-.046,9.529a2.471,2.471,0,0,1-2.429,2.506h-.018a2.466,2.466,0,0,1-2.447-2.467c-.023-3.186-.015-6.415.023-9.631a2.592,2.592,0,0,1-.314.023l-.077,0a2.468,2.468,0,0,1-2.37-2.562C53.4,143.644,53.427,139.988,53.36,136.245Z" transform="translate(-53.275 -123.614)" fill="#2dd"/>
      </g>
      <g id="Grupo_56535" data-name="Grupo 56535" transform="translate(71.25 123.104)">
        <path id="Trazado_119987" data-name="Trazado 119987" d="M62.766,134.237a4.431,4.431,0,1,0,4.431-4.5A4.468,4.468,0,0,0,62.766,134.237Z" transform="translate(-59.239 -129.74)" fill="#fe7062"/>
        <path id="Trazado_119988" data-name="Trazado 119988" d="M61.47,136.245a2.5,2.5,0,0,1,2.483-2.57H74.816A2.506,2.506,0,0,1,77.3,136.2c-.005,3.82,0,7.517.008,11.388a2.463,2.463,0,0,1-2.442,2.488h-.005l-.026,0c.036,3.247.043,6.492.015,9.68a2.462,2.462,0,0,1-2.444,2.465h-.023a2.467,2.467,0,0,1-2.426-2.5c.028-3.664.015-5.868-.038-9.6h-.849c-.059,3.689-.077,5.87-.046,9.529a2.473,2.473,0,0,1-2.432,2.506h-.015a2.465,2.465,0,0,1-2.447-2.467c-.023-3.186-.015-6.415.023-9.631a2.555,2.555,0,0,1-.314.023l-.079,0a2.467,2.467,0,0,1-2.368-2.562C61.508,143.644,61.534,139.988,61.47,136.245Z" transform="translate(-61.386 -123.614)" fill="#fe7062"/>
      </g>
      <g id="Grupo_56536" data-name="Grupo 56536" transform="translate(91.99 123.104)">
        <path id="Trazado_119989" data-name="Trazado 119989" d="M70.878,134.237a4.431,4.431,0,1,0,4.428-4.5A4.467,4.467,0,0,0,70.878,134.237Z" transform="translate(-67.351 -129.74)" fill="#215372"/>
        <path id="Trazado_119990" data-name="Trazado 119990" d="M69.579,136.245a2.5,2.5,0,0,1,2.483-2.57H82.923a2.509,2.509,0,0,1,2.485,2.529c-.005,3.82,0,7.517.005,11.388a2.461,2.461,0,0,1-2.439,2.488h-.008l-.023,0c.031,3.247.038,6.492.015,9.68a2.466,2.466,0,0,1-2.447,2.465h-.02a2.465,2.465,0,0,1-2.426-2.5c.026-3.664.013-5.868-.038-9.6h-.851c-.059,3.689-.074,5.87-.046,9.529a2.472,2.472,0,0,1-2.432,2.506H74.68a2.468,2.468,0,0,1-2.447-2.467c-.023-3.186-.015-6.415.028-9.631a2.6,2.6,0,0,1-.317.023l-.077,0a2.462,2.462,0,0,1-2.368-2.562C69.617,143.644,69.646,139.988,69.579,136.245Z" transform="translate(-69.498 -123.614)" fill="#215372"/>
      </g>
      <path id="Trazado_119991" data-name="Trazado 119991" d="M104.791,164.931h-1.258V152.66H48.652v12.271H47.394V151.4h57.4Z" transform="translate(3.115 14.682)" fill="#fe7062"/>
      <rect id="Rectángulo_29752" data-name="Rectángulo 29752" width="1.258" height="26.401" transform="translate(78.579 158.961)" fill="#fe7062"/>
      <path id="Trazado_119992" data-name="Trazado 119992" d="M67.316,147.965a2,2,0,0,0-2-2h0a2,2,0,0,0-2.007,2h0a2.005,2.005,0,0,0,2.007,2h0a2.006,2.006,0,0,0,2-2Z" transform="translate(13.899 10.995)" fill="#fff"/>
      <path id="Trazado_119993" data-name="Trazado 119993" d="M67.316,163.7a2,2,0,0,0-2-2h0a2,2,0,0,0-2.007,2h0a2,2,0,0,0,2.007,2h0a2,2,0,0,0,2-2Z" transform="translate(13.899 21.66)" fill="#fff"/>
      <path id="Trazado_119994" data-name="Trazado 119994" d="M50.584,160.678a2.005,2.005,0,0,0-2-2.007h0a2.005,2.005,0,0,0-2,2.007h0a2,2,0,0,0,2,2h0a2,2,0,0,0,2-2Z" transform="translate(2.559 19.609)" fill="#fff"/>
      <path id="Trazado_119995" data-name="Trazado 119995" d="M84.044,160.678a2.005,2.005,0,0,0-2-2.007h0a2.005,2.005,0,0,0-2,2.007h0a2,2,0,0,0,2,2h0a2,2,0,0,0,2-2Z" transform="translate(25.238 19.609)" fill="#fff"/>
    </g>
  </g>
</svg>
