<svg xmlns="http://www.w3.org/2000/svg" width="500" height="270" viewBox="0 0 500 270">
  <g id="Grupo_57105" data-name="Grupo 57105" transform="translate(-180 -9153)">
    <g id="Grupo_57097" data-name="Grupo 57097">
      <path id="Trazado_119603" data-name="Trazado 119603" d="M0,0H500V270H0Z" transform="translate(180 9153)" fill="none"/>
    </g>
    <g id="Grupo_57098" data-name="Grupo 57098" transform="translate(-778.11 9060.151)">
      <g id="Grupo_57093" data-name="Grupo 57093" transform="translate(1028.842 100.855)">
        <g id="Grupo_57089" data-name="Grupo 57089" transform="translate(0 67.688)">
          <g id="Grupo_57102" data-name="Grupo 57102" transform="translate(-379.037 -294.576)">
            <g id="Grupo_57103" data-name="Grupo 57103" transform="translate(315.305 227.409)" opacity="0.394">
              <path id="Trazado_120818" data-name="Trazado 120818" d="M802.552,478.336l-43.072,12.3L705.008,455.65l-149.977,73.4v44.329H1032.35V345.4L832.925,500.4Z" transform="translate(-555.031 -313.454)" fill="#02cddb"/>
              <g id="Grupo_57099" data-name="Grupo 57099" transform="translate(0 0)">
                <g id="Grupo_57098-2" data-name="Grupo 57098" transform="translate(0 12.05)">
                  <path id="Trazado_120819" data-name="Trazado 120819" d="M1022.043,322.35,835.025,477.515,804.764,453.61l-44.3,13.754-56.268-39.3L555.031,507.445v9.542l148.616-79.081,55.434,38.714,44.038-13.674,32.025,25.3,194.082-161.031A71.371,71.371,0,0,1,1022.043,322.35Z" transform="translate(-555.031 -322.35)" fill="#f9c141"/>
                </g>
                <path id="Trazado_120820" data-name="Trazado 120820" d="M873.669,308.39,848.9,316.777l16.385,16.386Z" transform="translate(-387.24 -308.39)" fill="#f9c141"/>
              </g>
            </g>
            <g id="Grupo_57101" data-name="Grupo 57101" transform="translate(315.304 220.883)">
              <ellipse id="Elipse_4322" data-name="Elipse 4322" cx="38.836" cy="38.836" rx="38.836" ry="38.836" fill="#1a0f91"/>
              <ellipse id="Elipse_4323" data-name="Elipse 4323" cx="29.436" cy="29.436" rx="29.436" ry="29.436" transform="matrix(0.122, -0.993, 0.993, 0.122, 6.024, 64.455)" fill="#fff"/>
              <ellipse id="Elipse_4324" data-name="Elipse 4324" cx="21.026" cy="21.026" rx="21.026" ry="21.026" transform="translate(13.542 23.203) rotate(-13.283)" fill="#1a0f91"/>
              <path id="Trazado_120825" data-name="Trazado 120825" d="M794.634,143.452a14.471,14.471,0,1,1-14.471-14.471A14.471,14.471,0,0,1,794.634,143.452Z" transform="translate(-741.327 -104.616)" fill="#fff"/>
              <path id="Trazado_120826" data-name="Trazado 120826" d="M800.036,156.645a6.679,6.679,0,1,1-6.679-6.679A6.678,6.678,0,0,1,800.036,156.645Z" transform="translate(-754.521 -117.809)" fill="#1a0f91"/>
            </g>
            <g id="Grupo_57100" data-name="Grupo 57100" transform="translate(574.992 239.456)">
              <path id="Trazado_120821" data-name="Trazado 120821" d="M593.008,63.813H411.77A11.491,11.491,0,0,0,400.279,75.3v58.443a11.491,11.491,0,0,0,11.491,11.492h52.475l-14.06,36.773,36.772-36.773h106.05A11.492,11.492,0,0,0,604.5,133.747V75.3A11.491,11.491,0,0,0,593.008,63.813Z" transform="translate(-400.279 -63.813)" fill="#d0d1de"/>
              <rect id="Rectángulo_30083" data-name="Rectángulo 30083" width="122.138" height="7.033" transform="translate(68.292 15.76)" fill="#fff"/>
              <rect id="Rectángulo_30084" data-name="Rectángulo 30084" width="122.138" height="7.032" transform="translate(68.292 30.107)" fill="#fff"/>
              <rect id="Rectángulo_30085" data-name="Rectángulo 30085" width="122.138" height="7.032" transform="translate(68.292 44.454)" fill="#fff"/>
              <rect id="Rectángulo_30086" data-name="Rectángulo 30086" width="81.065" height="7.032" transform="translate(68.292 58.802)" fill="#fff"/>
              <path id="Trazado_120822" data-name="Trazado 120822" d="M464.194,110.588a23.563,23.563,0,1,1-23.563-23.563A23.563,23.563,0,0,1,464.194,110.588Z" transform="translate(-405.572 -71.131)" fill="#0c0236"/>
              <path id="Trazado_120823" data-name="Trazado 120823" d="M455.066,108.047a6.652,6.652,0,1,1-6.649-6.858A6.756,6.756,0,0,1,455.066,108.047Z" transform="translate(-413.359 -75.596)" fill="#fff"/>
              <path id="Trazado_120824" data-name="Trazado 120824" d="M446.108,122.728h-.238a11.805,11.805,0,0,0-11.806,11.805v7.527a22.924,22.924,0,0,0,23.85,0v-7.527A11.805,11.805,0,0,0,446.108,122.728Z" transform="translate(-410.93 -82.386)" fill="#fff"/>
            </g>
          </g>
          <g id="Grupo_57081" data-name="Grupo 57081">
            <path id="Trazado_120738" data-name="Trazado 120738" d="M1040.714,342.3a13.571,13.571,0,0,0,4.052,3.359l183.181,105.81a23.344,23.344,0,0,0,6.889,2.636,36.652,36.652,0,0,0,7.41.791,28.74,28.74,0,0,0,14.318-3.427l87.167-50.346c2.46-1.419,5.133-3.872,5.77-6.643a6.3,6.3,0,0,0,.155-1.409v12.995c.009,3.572-2.76,6.439-5.924,8.264l-87.167,50.356a23.3,23.3,0,0,1-6.889,2.626c-7.072,1.516-15.5.976-21.728-2.626l-183.181-105.82a18.967,18.967,0,0,1-2.3-1.564,9.286,9.286,0,0,1-3.618-6.758h-.009v-13.16h.009A8.687,8.687,0,0,0,1040.714,342.3Z" transform="translate(-1038.842 -275.348)" fill="#526877"/>
            <path id="Trazado_120739" data-name="Trazado 120739" d="M1518.7,500.246a1.56,1.56,0,0,1,1.447-.183,1.451,1.451,0,0,1,.7,1.428v.927a4.757,4.757,0,0,1-2.151,3.726l-14.743,8.515a1.31,1.31,0,0,1-2.151-1.236v-.936a4.755,4.755,0,0,1,2.151-3.717Z" transform="translate(-1250.023 -349.505)" fill="#161426"/>
            <path id="Trazado_120740" data-name="Trazado 120740" d="M1471.076,533.809c2.055-2.085,4.023-1.255,3.965.9-.087,3.234-3.29,6.39-5.027,5.31a1.855,1.855,0,0,1-.6-.648,2.775,2.775,0,0,1-.231-1.709,6.452,6.452,0,0,1,.608-2.036s0-.01.009-.01a7.224,7.224,0,0,0,.454-.791A6.374,6.374,0,0,1,1471.076,533.809Z" transform="translate(-1235.127 -364.397)" fill="#161426"/>
            <path id="Trazado_120741" data-name="Trazado 120741" d="M1044.275,289.456c1.5,1.815,2.712,2.3,7.979,5.377.1.058,178.511,103.156,179.437,103.609a24.631,24.631,0,0,0,10.575,2.22l-.019,2.2a36.655,36.655,0,0,1-7.41-.791,23.347,23.347,0,0,1-6.889-2.636l-183.181-105.81a13.574,13.574,0,0,1-4.052-3.359,8.688,8.688,0,0,1-1.862-4.914,5.712,5.712,0,0,1,.145-1.622c.647-2.771,3.309-5.223,5.77-6.641l87.166-50.347a28.8,28.8,0,0,1,14.309-3.427l-.019,2.2a27.23,27.23,0,0,0-5.635.58,23.67,23.67,0,0,0-8.4,3.63c-2.847,1.709,6.474-3.794-32.719,18.845-6.378,3.688-12.727,7.443-19.1,11.122s-12.784,7.289-19.153,11.016c-2.653,1.554-5.3,3.128-7.96,4.634a71.947,71.947,0,0,0-7.506,4.48C1042.422,282.485,1041.554,286.183,1044.275,289.456Z" transform="translate(-1038.843 -223.315)" fill="#6c8090"/>
            <g id="Grupo_57077" data-name="Grupo 57077" transform="translate(33.314 92.279)">
              <path id="Trazado_120742" data-name="Trazado 120742" d="M1116.168,403.12l1.461-.844-16.07-9.283-1.461.844Z" transform="translate(-1100.099 -392.993)" fill="#3f3b53"/>
              <path id="Trazado_120743" data-name="Trazado 120743" d="M1131.107,412.092v-2.03l-1.461.844v2.03Z" transform="translate(-1113.577 -400.779)" fill="#2c293b"/>
              <path id="Trazado_120744" data-name="Trazado 120744" d="M1116.168,405.858v-2.03l-16.07-9.283v2.03Z" transform="translate(-1100.099 -393.701)" fill="#575757"/>
            </g>
            <path id="Trazado_120745" data-name="Trazado 120745" d="M1454.93,549.446h0a1.232,1.232,0,0,0,.565-.954h0c0-.346-.255-.481-.565-.3h0a1.231,1.231,0,0,0-.565.954h0C1454.365,549.49,1454.62,549.625,1454.93,549.446Z" transform="translate(-1228.383 -371.47)" fill="#161426"/>
            <g id="Grupo_57078" data-name="Grupo 57078" transform="translate(281.803 132.222)">
              <path id="Trazado_120746" data-name="Trazado 120746" d="M1590.12,472.686h0A1.912,1.912,0,0,0,1591,471.2v-4.176c0-.536-.4-.747-.877-.468h0a1.909,1.909,0,0,0-.877,1.481v4.177C1589.243,472.753,1589.637,472.964,1590.12,472.686Z" transform="translate(-1571.711 -466.437)" fill="#161426"/>
              <path id="Trazado_120747" data-name="Trazado 120747" d="M1583.673,476.41h0a1.91,1.91,0,0,0,.876-1.481v-4.177c0-.536-.394-.747-.876-.468h0a1.909,1.909,0,0,0-.877,1.481v4.177C1582.8,476.478,1583.19,476.689,1583.673,476.41Z" transform="translate(-1568.77 -468.136)" fill="#161426"/>
              <path id="Trazado_120748" data-name="Trazado 120748" d="M1577.225,480.135h0a1.909,1.909,0,0,0,.877-1.481v-4.177c0-.536-.394-.747-.877-.468h0a1.911,1.911,0,0,0-.877,1.481v4.177C1576.348,480.2,1576.743,480.413,1577.225,480.135Z" transform="translate(-1565.829 -469.835)" fill="#161426"/>
              <path id="Trazado_120749" data-name="Trazado 120749" d="M1570.778,483.859h0a1.911,1.911,0,0,0,.877-1.481V478.2c0-.536-.4-.747-.877-.468h0a1.911,1.911,0,0,0-.877,1.481v4.177C1569.9,483.927,1570.3,484.137,1570.778,483.859Z" transform="translate(-1562.888 -471.533)" fill="#161426"/>
              <path id="Trazado_120750" data-name="Trazado 120750" d="M1564.33,487.584h0a1.91,1.91,0,0,0,.877-1.481v-4.177c0-.536-.394-.747-.877-.468h0a1.911,1.911,0,0,0-.877,1.481v4.177C1563.453,487.652,1563.848,487.862,1564.33,487.584Z" transform="translate(-1559.947 -473.233)" fill="#161426"/>
              <path id="Trazado_120751" data-name="Trazado 120751" d="M1557.883,491.308h0a1.91,1.91,0,0,0,.877-1.481v-4.177c0-.536-.395-.746-.877-.468h0a1.909,1.909,0,0,0-.877,1.481v4.176C1557.006,491.376,1557.4,491.587,1557.883,491.308Z" transform="translate(-1557.006 -474.932)" fill="#161426"/>
            </g>
            <path id="Trazado_120752" data-name="Trazado 120752" d="M1433.8,349.09l-87.167,50.346a28.742,28.742,0,0,1-14.319,3.427l.019-2.2a25.323,25.323,0,0,0,9.6-1.8,33.275,33.275,0,0,0,4.448-2.414c2.846-1.709-6.474,3.794,32.719-18.845,6.378-3.688,12.727-7.444,19.1-11.122s12.794-7.289,19.152-11.015c2.654-1.555,5.3-3.129,7.97-4.634,5.278-2.974,7.768-4.132,9.4-6.478,2.132-3.07,1.64-7.125-3.628-10.243-.2-.126-183.393-105.974-184.222-106.379a24.76,24.76,0,0,0-10.585-2.221l.019-2.2a36.755,36.755,0,0,1,7.42.792,23.486,23.486,0,0,1,6.9,2.635L1433.8,332.552a13.639,13.639,0,0,1,4.062,3.359,8.627,8.627,0,0,1,1.862,5.127,6.316,6.316,0,0,1-.155,1.409C1438.928,345.218,1436.255,347.671,1433.8,349.09Z" transform="translate(-1128.906 -223.315)" fill="#6c8090"/>
            <g id="Grupo_57079" data-name="Grupo 57079" transform="translate(3.808 2.201)">
              <path id="Trazado_120753" data-name="Trazado 120753" d="M1163.372,231.525c-2.128-1.23-3.314-1.915-3.378-1.942a24.77,24.77,0,0,0-10.584-2.221,27.4,27.4,0,0,0-5.632.585,23.534,23.534,0,0,0-8.4,3.629c-2.642,1.59,5.237-3.062-25.227,14.509l-7.5,4.332c-6.376,3.692-12.728,7.444-19.1,11.123q-2.622,1.515-5.252,3.007c-4.636,2.66-9.287,5.3-13.908,8.007-2.65,1.558-5.292,3.13-7.958,4.634a73.361,73.361,0,0,0-7.507,4.483c-3.315,2.664-4.193,6.361-1.472,9.633,1.511,1.814,2.714,2.3,7.982,5.379l77.478,44.757c48.318,27.913,101.454,58.6,101.969,58.851a24.551,24.551,0,0,0,10.569,2.221,25.3,25.3,0,0,0,9.6-1.8,31.935,31.935,0,0,0,4.445-2.413c2.848-1.709-6.471,3.793,32.727-18.842,6.376-3.692,12.728-7.444,19.1-11.128s12.792-7.289,19.16-11.013c2.642-1.554,5.292-3.13,7.958-4.634,5.285-2.971,7.769-4.131,9.4-6.48,2.057-2.952,1.677-6.809-3.037-9.871q-.285-.192-.593-.37C1344.029,335.85,1188.442,245.943,1163.372,231.525Z" transform="translate(-1045.844 -227.362)" fill="#6c8090"/>
              <path id="Trazado_120754" data-name="Trazado 120754" d="M1344.8,336.335c4.715,3.062,5.094,6.919,3.037,9.871-1.629,2.349-4.113,3.509-9.4,6.48-2.666,1.5-5.316,3.08-7.958,4.634-6.368,3.724-12.776,7.334-19.16,11.013s-12.728,7.436-19.1,11.128c-39.2,22.635-29.879,17.132-32.727,18.842a31.932,31.932,0,0,1-4.445,2.413c-6.131,2.564-14.508,2.347-20.164-.425-.847-.414-155.989-90.057-179.447-103.607-5.268-3.08-6.471-3.565-7.982-5.379-2.721-3.272-1.843-6.969,1.472-9.633,1.807-1.443,3.38-2.01,15.465-9.117,3.6-2.11,68.434-39.443,70.983-40.978a23.535,23.535,0,0,1,8.4-3.629,26.334,26.334,0,0,1,16.217,1.636C1160.112,229.634,1155.141,226.771,1344.8,336.335Z" transform="translate(-1045.844 -227.362)" fill="#57dbd8"/>
            </g>
            <g id="Grupo_57080" data-name="Grupo 57080" transform="translate(44.07 25.488)">
              <path id="Trazado_120755" data-name="Trazado 120755" d="M1140.894,274.16a3.1,3.1,0,0,1,2.856,0l1.06.609-19.4,11.208a3.157,3.157,0,0,1-2.866,0l-1.051-.608Z" transform="translate(-1120.612 -271.837)" fill="#030000"/>
              <path id="Trazado_120756" data-name="Trazado 120756" d="M1143.013,270.525l1.34.772a.87.87,0,0,1,0,1.651l-.28.165-1.061-.609a3.105,3.105,0,0,0-2.856,0l-19.4,11.209-.28-.165a1.036,1.036,0,0,1-.6-.81v-.02a1,1,0,0,1,.6-.82l19.684-11.372A3.138,3.138,0,0,1,1143.013,270.525Z" transform="translate(-1119.875 -270.181)" fill="#0b2235"/>
            </g>
            <path id="Trazado_120757" data-name="Trazado 120757" d="M1198.127,248.3a6.455,6.455,0,0,0,5.844,0c1.614-.932,1.614-2.444,0-3.376a6.455,6.455,0,0,0-5.844,0C1196.513,245.853,1196.513,247.364,1198.127,248.3Z" transform="translate(-1110.948 -232.851)" fill="#6c8090"/>
          </g>
          <g id="Grupo_57082" data-name="Grupo 57082" transform="translate(38.829 45.682)" opacity="0.27">
            <path id="Trazado_120758" data-name="Trazado 120758" d="M1155.607,310.571,1115.88,333.52a5.16,5.16,0,0,1-4.673,0h0c-1.291-.745-1.291-1.954,0-2.7l39.727-22.949a5.161,5.161,0,0,1,4.673,0h0C1156.9,308.617,1156.9,309.826,1155.607,310.571Z" transform="translate(-1110.239 -307.313)" fill="#6c8090"/>
            <path id="Trazado_120759" data-name="Trazado 120759" d="M1160.781,333.242l-27.724,16.016a5.163,5.163,0,0,1-4.673,0h0c-1.291-.746-1.291-1.954,0-2.7l27.724-16.016a5.16,5.16,0,0,1,4.673,0h0C1162.072,331.288,1162.072,332.5,1160.781,333.242Z" transform="translate(-1118.074 -317.654)" fill="#6c8090"/>
            <path id="Trazado_120760" data-name="Trazado 120760" d="M1177.958,343.165l-27.725,16.016a5.16,5.16,0,0,1-4.673,0h0c-1.291-.746-1.291-1.954,0-2.7l27.725-16.016a5.161,5.161,0,0,1,4.673,0h0C1179.249,341.211,1179.249,342.419,1177.958,343.165Z" transform="translate(-1125.909 -322.18)" fill="#6c8090"/>
          </g>
          <g id="Grupo_57083" data-name="Grupo 57083" transform="translate(116.329 34.358)" opacity="0.27">
            <path id="Trazado_120761" data-name="Trazado 120761" d="M1298.109,289.749,1258.382,312.7a5.16,5.16,0,0,1-4.673,0h0c-1.291-.745-1.291-1.954,0-2.7l39.726-22.949a5.162,5.162,0,0,1,4.673,0h0C1299.4,287.795,1299.4,289,1298.109,289.749Z" transform="translate(-1252.741 -286.49)" fill="#6c8090"/>
            <path id="Trazado_120762" data-name="Trazado 120762" d="M1303.283,312.419l-27.725,16.016a5.162,5.162,0,0,1-4.672,0h0c-1.291-.746-1.291-1.954,0-2.7l27.724-16.016a5.16,5.16,0,0,1,4.673,0h0C1304.574,310.465,1304.574,311.674,1303.283,312.419Z" transform="translate(-1260.576 -296.831)" fill="#6c8090"/>
            <path id="Trazado_120763" data-name="Trazado 120763" d="M1320.46,322.342l-27.725,16.016a5.161,5.161,0,0,1-4.673,0h0c-1.29-.746-1.29-1.954,0-2.7l27.725-16.016a5.161,5.161,0,0,1,4.673,0h0C1321.75,320.388,1321.75,321.6,1320.46,322.342Z" transform="translate(-1268.411 -301.357)" fill="#6c8090"/>
          </g>
          <g id="Grupo_57084" data-name="Grupo 57084" transform="translate(99.88 84.22)" opacity="0.27">
            <path id="Trazado_120764" data-name="Trazado 120764" d="M1267.864,381.432l-39.727,22.949a5.164,5.164,0,0,1-4.673,0h0c-1.291-.746-1.291-1.954,0-2.7l39.727-22.949a5.164,5.164,0,0,1,4.673,0h0C1269.154,379.478,1269.154,380.686,1267.864,381.432Z" transform="translate(-1222.496 -378.173)" fill="#6c8090"/>
            <path id="Trazado_120765" data-name="Trazado 120765" d="M1273.039,404.1l-27.725,16.016a5.161,5.161,0,0,1-4.673,0h0c-1.29-.746-1.29-1.954,0-2.7l27.725-16.016a5.16,5.16,0,0,1,4.673,0h0C1274.329,402.149,1274.329,403.357,1273.039,404.1Z" transform="translate(-1230.331 -388.515)" fill="#6c8090"/>
            <path id="Trazado_120766" data-name="Trazado 120766" d="M1290.215,414.025l-27.725,16.016a5.163,5.163,0,0,1-4.673,0h0c-1.291-.746-1.291-1.955,0-2.7l27.725-16.016a5.16,5.16,0,0,1,4.673,0h0C1291.5,412.071,1291.5,413.28,1290.215,414.025Z" transform="translate(-1238.166 -393.041)" fill="#6c8090"/>
          </g>
          <path id="Trazado_120767" data-name="Trazado 120767" d="M1222.843,365.051l-27.528,15.9a9.619,9.619,0,0,1-8.709,0l-15.7-9.072c-2.406-1.39-2.406-3.642,0-5.031l27.528-15.9a9.619,9.619,0,0,1,8.709,0l15.7,9.071C1225.248,361.409,1225.248,363.662,1222.843,365.051Z" transform="translate(-1098.258 -281.06)" fill="#fbfbfb" opacity="0.69"/>
          <g id="Grupo_57085" data-name="Grupo 57085" transform="translate(181.219 73.177)" opacity="0.27">
            <path id="Trazado_120768" data-name="Trazado 120768" d="M1417.425,361.127,1377.7,384.076a5.163,5.163,0,0,1-4.673,0h0c-1.291-.746-1.291-1.955,0-2.7l39.727-22.949a5.164,5.164,0,0,1,4.673,0h0C1418.715,359.173,1418.715,360.381,1417.425,361.127Z" transform="translate(-1372.057 -357.868)" fill="#6c8090"/>
            <path id="Trazado_120769" data-name="Trazado 120769" d="M1422.6,383.8l-27.725,16.016a5.16,5.16,0,0,1-4.673,0h0c-1.291-.745-1.291-1.954,0-2.7l27.724-16.016a5.161,5.161,0,0,1,4.673,0h0C1423.89,381.844,1423.89,383.052,1422.6,383.8Z" transform="translate(-1379.892 -368.21)" fill="#6c8090"/>
            <path id="Trazado_120770" data-name="Trazado 120770" d="M1439.776,393.72l-27.725,16.016a5.163,5.163,0,0,1-4.673,0h0c-1.291-.746-1.291-1.955,0-2.7L1435.1,391.02a5.163,5.163,0,0,1,4.673,0h0C1441.066,391.766,1441.066,392.975,1439.776,393.72Z" transform="translate(-1387.727 -372.736)" fill="#6c8090"/>
          </g>
          <path id="Trazado_120771" data-name="Trazado 120771" d="M1342.159,436.43l-27.528,15.9a9.619,9.619,0,0,1-8.709,0l-15.7-9.072c-2.405-1.389-2.405-3.642,0-5.031l27.528-15.9a9.619,9.619,0,0,1,8.709,0l15.7,9.071C1344.565,432.788,1344.565,435.04,1342.159,436.43Z" transform="translate(-1152.684 -313.619)" fill="#fbfbfb" opacity="0.69"/>
          <path id="Trazado_120772" data-name="Trazado 120772" d="M1375.842,345.778l-27.528,15.9a9.62,9.62,0,0,1-8.71,0l-15.7-9.071c-2.405-1.39-2.405-3.642,0-5.031l27.528-15.9a9.62,9.62,0,0,1,8.71,0l15.7,9.072C1378.247,342.136,1378.247,344.388,1375.842,345.778Z" transform="translate(-1168.049 -272.268)" fill="#fbfbfb" opacity="0.69"/>
          <g id="Grupo_57086" data-name="Grupo 57086" transform="translate(172.696 124.211)" opacity="0.27">
            <path id="Trazado_120773" data-name="Trazado 120773" d="M1401.754,454.965l-39.727,22.949a5.16,5.16,0,0,1-4.673,0h0c-1.291-.746-1.291-1.954,0-2.7l39.727-22.949a5.164,5.164,0,0,1,4.673,0h0C1403.044,453.01,1403.044,454.219,1401.754,454.965Z" transform="translate(-1356.386 -451.707)" fill="#6c8090"/>
            <path id="Trazado_120774" data-name="Trazado 120774" d="M1406.928,477.635,1379.2,493.651a5.164,5.164,0,0,1-4.673,0h0c-1.291-.746-1.291-1.954,0-2.7l27.725-16.016a5.16,5.16,0,0,1,4.673,0h0C1408.218,475.682,1408.218,476.89,1406.928,477.635Z" transform="translate(-1364.221 -462.048)" fill="#6c8090"/>
            <path id="Trazado_120775" data-name="Trazado 120775" d="M1424.1,487.558l-27.724,16.016a5.161,5.161,0,0,1-4.673,0h0c-1.291-.746-1.291-1.954,0-2.7l27.725-16.016a5.163,5.163,0,0,1,4.673,0h0C1425.394,485.6,1425.394,486.813,1424.1,487.558Z" transform="translate(-1372.056 -466.574)" fill="#6c8090"/>
          </g>
          <path id="Trazado_120776" data-name="Trazado 120776" d="M1509.731,419.311l-27.528,15.9a9.623,9.623,0,0,1-8.709,0l-15.7-9.072c-2.405-1.39-2.405-3.642,0-5.031l27.528-15.9a9.62,9.62,0,0,1,8.71,0l15.7,9.071C1512.136,415.669,1512.136,417.922,1509.731,419.311Z" transform="translate(-1229.122 -305.81)" fill="#fbfbfb" opacity="0.69"/>
          <path id="Trazado_120777" data-name="Trazado 120777" d="M1253.088,274.872l-27.528,15.9a9.619,9.619,0,0,1-8.709,0l-15.7-9.071c-2.405-1.39-2.405-3.642,0-5.031l27.528-15.9a9.622,9.622,0,0,1,8.709,0l15.7,9.072C1255.493,271.23,1255.493,273.483,1253.088,274.872Z" transform="translate(-1112.054 -239.924)" fill="#fbfbfb" opacity="0.69"/>
          <g id="Grupo_57088" data-name="Grupo 57088" transform="translate(210.576 111.854)">
            <path id="Trazado_120778" data-name="Trazado 120778" d="M1466.964,457.6c-.987-1.758-3.723-2.961-5.746-3.357a10.584,10.584,0,0,0-7.162,1.04q-2.187,1.266-2.187,2.893v1.233c0,1.482,1.459,2.6,2.743,3.346a11.468,11.468,0,0,0,7.073,1.3c1.972-.272,4.475-1.26,5.364-3.018a2.22,2.22,0,0,0,.251-1.009v-1.236A2.421,2.421,0,0,0,1466.964,457.6Zm-5.95-4.881,10.688,6.174,1.313-.758V456.9l-2.671-1.543,6.157.763,1.621-.934v-1.236l-8.1-.928c.067-2.575.056-1.815.056-3.374l-1.7.981c0,1.554-.006.754.028,3.606l-6.082-3.511-1.309.757ZM1483.2,466.1c-7.726,5.1-19.629,5.968-28.706,3.577-4.38-1.155-9.3-3.407-12.121-6.971a8.967,8.967,0,0,1-.017-11.859c7.08-8.953,27.528-11.121,39.7-4.131l.014.008a17.02,17.02,0,0,1,4.947,4.1C1491.336,456.278,1489.13,462.189,1483.2,466.1Z" transform="translate(-1432.463 -435.184)" fill="#c8bfd1" style="mix-blend-mode: multiply;isolation: isolate"/>
            <g id="Grupo_57087" data-name="Grupo 57087">
              <path id="Trazado_120779" data-name="Trazado 120779" d="M1428.289,461.021a17.031,17.031,0,0,0,4.961,4.1c8.363,4.8,20.809,5.338,30.063,2.107,3.56-1.243,7.293-3.281,9.635-6.236a9.454,9.454,0,0,0,2.232-5.917h.005v6.392h0c0,5.177-4.634,9.01-9.358,11.164-8.921,4.065-21.541,4.065-30.471-.02-4.711-2.161-9.317-5.985-9.317-11.144v-6.361h.006A9.581,9.581,0,0,0,1428.289,461.021Z" transform="translate(-1426.037 -440.886)" fill="#cb5145"/>
              <path id="Trazado_120780" data-name="Trazado 120780" d="M1494.55,449.9v1.235l-1.62.934v-1.233Z" transform="translate(-1456.55 -438.526)" fill="#f9aed6"/>
              <path id="Trazado_120781" data-name="Trazado 120781" d="M1487.461,450.942v1.233l-6.157-.763-.363-.209v-1.071Z" transform="translate(-1451.082 -438.631)" fill="#f9aed6"/>
              <path id="Trazado_120782" data-name="Trazado 120782" d="M1485.418,455.323v1.236l-1.313.757V456.08Z" transform="translate(-1452.525 -440.999)" fill="#f9aed6"/>
              <path id="Trazado_120783" data-name="Trazado 120783" d="M1475.141,451.537v1.235l-10.688-6.174v-1.235Z" transform="translate(-1443.561 -436.456)" fill="#f9aed6"/>
              <path id="Trazado_120784" data-name="Trazado 120784" d="M1476.454,449.242l-1.313.758-10.688-6.175,1.31-.757,6.081,3.511a31.575,31.575,0,0,0-.028-3.606l1.7-.981-.087,3.371c.656.06-2.281-.262,8.132.931l-1.62.936-6.52-.81-.036,1.049C1473.438,447.5,1473.649,447.621,1476.454,449.242Z" transform="translate(-1443.561 -434.918)" fill="#faf9fb"/>
              <path id="Trazado_120785" data-name="Trazado 120785" d="M1452.882,444.007c-.987-1.758-3.724-2.961-5.746-3.357a10.585,10.585,0,0,0-7.163,1.04q-2.187,1.266-2.187,2.893v1.232c0,1.483,1.46,2.6,2.743,3.346a11.464,11.464,0,0,0,7.073,1.3c1.972-.272,4.475-1.26,5.363-3.018a2.223,2.223,0,0,0,.252-1.009V445.2A2.424,2.424,0,0,0,1452.882,444.007Zm-5.95-4.88,10.688,6.174,1.313-.757v-1.236l-2.671-1.543,6.157.763,1.62-.934V440.36l-8.1-.928c.067-2.575.056-1.815.056-3.373l-1.7.981c0,1.554-.005.754.028,3.606l-6.081-3.511-1.31.757Zm22.186,13.386c-7.726,5.1-19.628,5.968-28.706,3.578-4.38-1.155-9.3-3.407-12.121-6.971a8.967,8.967,0,0,1-.017-11.86c7.08-8.953,27.528-11.121,39.7-4.131l.014.008a17.035,17.035,0,0,1,4.947,4.095C1477.253,442.69,1475.048,448.6,1469.118,452.513Z" transform="translate(-1426.04 -428.985)" fill="#fe7062"/>
              <path id="Trazado_120786" data-name="Trazado 120786" d="M1461.171,455.032c.051-1.163-1.152-2.057-2.16-2.638a8.125,8.125,0,0,0-7.961-.4,2.609,2.609,0,0,0-1.553,2.091c-.045,1.09,1.417,2.07,2.36,2.616a8.051,8.051,0,0,0,7.805.293A2.553,2.553,0,0,0,1461.171,455.032Zm1.9-.229c0,1.229-1.113,2.268-2.187,2.89a11.091,11.091,0,0,1-10.5-.159c-1.287-.743-2.743-1.863-2.743-3.342q0-1.627,2.187-2.893a11.012,11.012,0,0,1,10.655.257C1461.685,452.252,1463.068,453.406,1463.068,454.8Z" transform="translate(-1435.89 -438.592)" fill="#faf9fb"/>
              <path id="Trazado_120787" data-name="Trazado 120787" d="M1460.68,455.583a4.4,4.4,0,0,1,2.045,1.953c-.711,1.848-5.143,3.458-9.2,1.121a5.139,5.139,0,0,1-2.232-2C1452.031,454.741,1456.415,453.113,1460.68,455.583Z" transform="translate(-1437.558 -440.546)" fill="#fe7062"/>
              <path id="Trazado_120788" data-name="Trazado 120788" d="M1462.728,455.747a1.733,1.733,0,0,1-.112.752,4.4,4.4,0,0,0-2.045-1.953c-4.252-2.463-8.646-.85-9.386,1.071a1.324,1.324,0,0,1-.129-.612,2.609,2.609,0,0,1,1.553-2.091,8.125,8.125,0,0,1,7.961.4Q1462.637,454.5,1462.728,455.747Z" transform="translate(-1437.449 -439.509)" fill="#f9aed6"/>
              <path id="Trazado_120789" data-name="Trazado 120789" d="M1450.38,461.01a11.091,11.091,0,0,0,10.5.159c1.074-.622,2.187-1.661,2.187-2.89v1.235a2.223,2.223,0,0,1-.252,1.009c-.888,1.756-3.388,2.746-5.364,3.018a11.463,11.463,0,0,1-7.073-1.3c-1.283-.741-2.743-1.863-2.743-3.346v-1.232C1447.637,459.146,1449.093,460.266,1450.38,461.01Z" transform="translate(-1435.89 -442.068)" fill="#f9aed6"/>
            </g>
          </g>
          <g id="Grupo_57104" data-name="Grupo 57104" transform="matrix(0.53, -0.848, 0.848, 0.53, -26.575, -35.657)">
            <path id="Trazado_120827" data-name="Trazado 120827" d="M883.659,266.726c.629-.809,2.912-3.323-2-7.115-4.676-3.611-11.187-7.843-11.187-7.843s3.251,7.052,6.151,12.2C879.67,269.372,882.887,267.434,883.659,266.726Z" transform="translate(-844.14 -215.874)" fill="#91b3fa"/>
            <path id="Trazado_120828" data-name="Trazado 120828" d="M845.207,212.2l-4.272-7.08a41.575,41.575,0,0,0-4.413-6.017L808.6,167.429l21.137,33.123a41.567,41.567,0,0,0,8.787,9.868l4.217,3.436A6.937,6.937,0,0,1,845.207,212.2Z" transform="translate(-808.6 -167.429)" fill="#91b3fa"/>
            <path id="Trazado_120829" data-name="Trazado 120829" d="M870.029,249.2s11.439-1,17.288,4.285-8.246,6.477-8.246,6.477Z" transform="translate(-843.885 -214.353)" fill="#91b3fa"/>
            <path id="Trazado_120830" data-name="Trazado 120830" d="M868.883,249.268s-2.9,11.111,1.333,17.761,7.765-7.046,7.765-7.046Z" transform="translate(-842.67 -214.438)" fill="#91b3fa"/>
          </g>
        </g>
        <ellipse id="Elipse_4321" data-name="Elipse 4321" cx="44.99" cy="25.975" rx="44.99" ry="25.975" transform="translate(73.573 112.566)" fill="#b4a8c3" style="mix-blend-mode: multiply;isolation: isolate"/>
        <path id="Trazado_120790" data-name="Trazado 120790" d="M1251.864,319.8c14.79,8.54,14.79,22.384,0,30.923s-38.77,8.539-53.561,0-14.79-22.384,0-30.923S1237.074,311.257,1251.864,319.8Z" transform="translate(-1106.52 -196.716)" fill="#2f2c61"/>
        <g id="Grupo_57092" data-name="Grupo 57092" transform="translate(75.555)">
          <g id="Grupo_57090" data-name="Grupo 57090">
            <path id="Trazado_120791" data-name="Trazado 120791" d="M1265.01,276.751a115.161,115.161,0,0,1-1.942,16.094,29.714,29.714,0,0,1-20.613,23.449,82.74,82.74,0,0,1-22.905,3.522h-.375c-8.144-.052-16.923-4.661-23.281-11.252-4.881-5.089-8.338-11.343-8.921-17.6-.181-1.981-.3-4.13-.3-6.513,0-11.187,6.6-20.017,15.46-25.533a7.425,7.425,0,0,0,3.095,2.447,10.646,10.646,0,0,0,4.3.8,8.041,8.041,0,0,0,3.587-.816c1.528,5.827,7.885,9.31,13.919,9.31,8.455,0,11.912-5.684,13.272-13.855a7.458,7.458,0,0,0,3.056-1.813,26.68,26.68,0,0,0,5.425-8.2C1260.569,247.488,1265.01,265.02,1265.01,276.751Z" transform="translate(-1181.83 -166.341)" fill="#1a0f91"/>
            <path id="Trazado_120792" data-name="Trazado 120792" d="M1313.841,156.634c2.18,3.779,3.8,7.371,3.8,11.695,0,3.983-1.56,10.391-5.528,10.391a3.925,3.925,0,0,1-.865-.1,19.482,19.482,0,0,0,.678-5.571c0-2.557-.271-5.152-.271-7.524,0-2.857,2.29-4.633,2.29-7.47A9.96,9.96,0,0,0,1313.841,156.634Z" transform="translate(-1238.653 -125.211)" fill="#163a46"/>
            <path id="Trazado_120793" data-name="Trazado 120793" d="M1301.345,176.4c-.065.087-.134.177-.2.264a23.214,23.214,0,0,0-2.543,2.2,21.359,21.359,0,0,1-3.84,1.916.688.688,0,0,1-.895-.568c0-3.413,4.66-6.1,7.043-9.012.071-.087.143-.175.209-.264.055-.071.108-.142.159-.213a.583.583,0,0,1,1.033.171A5.962,5.962,0,0,1,1301.345,176.4Z" transform="translate(-1230.725 -131.527)" fill="#8b532c"/>
            <path id="Trazado_120794" data-name="Trazado 120794" d="M1307.449,181.366c0,.039,0,.075-.006.114-.067.049-.134.1-.2.151C1307.315,181.543,1307.384,181.453,1307.449,181.366Z" transform="translate(-1236.828 -136.492)" fill="#e79065"/>
            <path id="Trazado_120795" data-name="Trazado 120795" d="M1281.645,146.264c-.067.09-.138.177-.209.264-2.242-4.436-6.254-5.29-9.435-5.8a12.03,12.03,0,0,0-6.092.624c-2.927,1.088-6.087,1.786-8.42,3.966a11.973,11.973,0,0,0-1.347,1.516.034.034,0,0,1-.008.01c-.059.079-.12.16-.177.244a.019.019,0,0,1-.01.01c-1.8,2.193-6.805,1.635-.5-13.428,2.389-5.7-1.4-8.927-4.273-13.163a40.333,40.333,0,0,1,10.9-3.655c1.717-.071,3.514-.47,5.251-.47,4.946,0,7.076,4.171,9.551,8.256a9.1,9.1,0,0,0,1.051,2.127,37.425,37.425,0,0,1,5.25,4.794,13.612,13.612,0,0,1,3.256,6.712,9.96,9.96,0,0,1,.1,1.424c0,2.837-2.29,4.613-2.29,7.47,0,2.372.271,4.967.271,7.524a19.5,19.5,0,0,1-.677,5.571,11.156,11.156,0,0,1-1.18,2.667h0c-.354-2.532-.938-3.5-.938-6.915,0-1.4.088-2.785.143-4.176,0-.039,0-.075.006-.114a5.962,5.962,0,0,0,.963-5.5.583.583,0,0,0-1.033-.171C1281.752,146.123,1281.7,146.193,1281.645,146.264Z" transform="translate(-1211.254 -106.852)" fill="#b16d42"/>
            <path id="Trazado_120796" data-name="Trazado 120796" d="M1264.089,161.029c3.181.506,7.193,1.361,9.435,5.8-2.384,2.909-7.043,5.6-7.043,9.012a.688.688,0,0,0,.895.568,21.359,21.359,0,0,0,3.84-1.916,18.337,18.337,0,0,0-5.111,8.825,14.142,14.142,0,0,0-.24,1.436,13.23,13.23,0,0,0-.092,1.556c0,8.983,4.458,7.672,4.458,11.386,0,1.2-.857,3.787-2.923,3.787-1.536,0-3.244-1.192-4.367-1.192h-.017a.841.841,0,0,0-.213,1.645c1.458.448,2.983,1.155,2.983,2.766a3.211,3.211,0,0,1-.144.915c-2.376,1.163-4.489,1.159-7.027,1.159a9.661,9.661,0,0,1-2.577-.354,14.889,14.889,0,0,0,8.1,2.546c.179,0,.356,0,.533-.012a13.118,13.118,0,0,0-4.655,3.165,12.036,12.036,0,0,1-7.912,2.756,30.2,30.2,0,0,1-10.881-2.41q-.958-.443-1.9-.923v0c-.852-7.585-5.394-13.981-5.394-20.512a14.214,14.214,0,0,1,.319-3.01,4.882,4.882,0,0,1,2.8-3.443c5.093-2.225,7.2-11.829,11.078-17.174a.019.019,0,0,0,.01-.01,2.359,2.359,0,0,0,.177-.244.033.033,0,0,0,.008-.01,11.975,11.975,0,0,1,1.347-1.516c2.333-2.18,5.494-2.878,8.42-3.966A12.029,12.029,0,0,1,1264.089,161.029Zm3.136,33.236a1.987,1.987,0,0,0-1.332-.482,2.338,2.338,0,0,0-2.4,2.176,4.245,4.245,0,0,0,.325,1.318C1264.02,195.912,1265.985,194.607,1267.225,194.265Zm-9.014-13.578c0-1.436-.9-2.424-2.831-2.424-9.008,0-15.5,6.594-17.07,8.343,4.322-2.105,12.913-3.686,12.932-3.688C1253.273,182.562,1258.211,183.172,1258.211,180.687Zm-6.625,9.706a.491.491,0,0,0-.724-.566c-.185.112-.37.221-.56.325a37.862,37.862,0,0,1-6.388,2.3c-.92.258-1.8.476-2.546.627a.653.653,0,0,0-.33,1.106,8.611,8.611,0,0,0,4.523,2.571l0,0a4.412,4.412,0,0,0,.567.039C1249.362,196.8,1250.85,192.74,1251.587,190.393Z" transform="translate(-1203.343 -127.149)" fill="#f8a57d"/>
            <path id="Trazado_120797" data-name="Trazado 120797" d="M1300.389,194.646a.351.351,0,0,1,.586.293c-.228,2.522-1.023,5.64-5.034,5.64h-.02a2.241,2.241,0,0,1-.771-1.68,2.633,2.633,0,0,1,.122-.775A21.668,21.668,0,0,0,1300.389,194.646Z" transform="translate(-1231.312 -142.508)" fill="#1a0f91"/>
            <path id="Trazado_120798" data-name="Trazado 120798" d="M1302.569,184.055a23.215,23.215,0,0,1,2.543-2.2A10.906,10.906,0,0,1,1302.569,184.055Z" transform="translate(-1234.696 -136.714)" fill="#8b532c"/>
            <path id="Trazado_120799" data-name="Trazado 120799" d="M1287.165,240.394a2.337,2.337,0,0,1-2.107,2.221c.368.065.732.088,1.1.132-.1,1.981-1.082,1.735-3.033,2.475-.177.009-.354.013-.533.013a14.889,14.889,0,0,1-8.1-2.546,9.66,9.66,0,0,0,2.577.354c2.538,0,4.651,0,7.027-1.159A26.459,26.459,0,0,0,1287.165,240.394Z" transform="translate(-1221.89 -163.418)" fill="#c95057"/>
            <path id="Trazado_120800" data-name="Trazado 120800" d="M1294.046,201.894a2.241,2.241,0,0,0,.771,1.68,4.854,4.854,0,0,1-2.087-.47,14.207,14.207,0,0,1,.24-1.436q.626-.265,1.2-.549A2.634,2.634,0,0,0,1294.046,201.894Z" transform="translate(-1230.208 -145.503)" fill="#f5debf"/>
            <path id="Trazado_120801" data-name="Trazado 120801" d="M1290.769,221.377a1.987,1.987,0,0,1,1.332.482c-1.24.342-3.2,1.647-3.407,3.012a4.245,4.245,0,0,1-.325-1.318A2.338,2.338,0,0,1,1290.769,221.377Z" transform="translate(-1228.219 -154.743)" fill="#ffbc9a"/>
            <path id="Trazado_120802" data-name="Trazado 120802" d="M1182.959,155.114c-1.931.844-2.729,2.571-2.729,4.7,0,3.188,1.794,7.271,4.271,10.631l.006.008a6.388,6.388,0,0,0,1.045,1.326c2.432,2.884,5.316,4.961,7.777,4.961,2.042,0,4.322-1.424,4.322-4.932,0-7.478-9.041-16.778-13.984-16.778A2.476,2.476,0,0,0,1182.959,155.114Zm58.01-45.349a24.021,24.021,0,0,0-10.7-2.373c-22.725,0-37.239,25.49-38.16,39.122-.612,9.024,8.569,17.276,8.569,25.8,0,3.75-1.552,7.363-5.423,7.363a13.488,13.488,0,0,1-5.329-1.428l-.006,0c-5.27-3.155-10.013-9.905-11.593-15.3a12.366,12.366,0,0,1-.557-3.421c0-3.681,1.861-6.639,4.233-9.476.869-1.043,1.808-2.068,2.748-3.11,2.848-8.129,9.765-29.833,25.062-39.88a31.183,31.183,0,0,1,13.033-4.947,32.566,32.566,0,0,1,4.377-.293,15.86,15.86,0,0,1,6.207,1.334A34.224,34.224,0,0,1,1240.969,109.764Z" transform="translate(-1177.768 -100.209)" fill="#526877"/>
            <path id="Trazado_120803" data-name="Trazado 120803" d="M1260.952,265.521a7.929,7.929,0,0,0,1.54-.313c-1.369,8.172-4.825,13.857-13.276,13.857-6.035,0-12.393-3.492-13.918-9.317a7.5,7.5,0,0,0,1.037-.629c1.444,4.7,6.68,7.593,11.976,7.593C1253.963,276.712,1259.686,273.419,1260.952,265.521Z" transform="translate(-1204.01 -174.737)" fill="#b5365b"/>
            <path id="Trazado_120804" data-name="Trazado 120804" d="M1259.438,260.3a7.913,7.913,0,0,0,2.384.126c-1.266,7.9-6.989,11.19-12.641,11.19-5.3,0-10.532-2.89-11.976-7.593a9.538,9.538,0,0,0,3.7-7.6,21.6,21.6,0,0,0-.136-2.394q.943.482,1.9.923A80.473,80.473,0,0,0,1259.438,260.3Z" transform="translate(-1204.88 -169.638)" fill="#da8156"/>
            <path id="Trazado_120805" data-name="Trazado 120805" d="M1259.133,192.839c1.934,0,2.831.989,2.831,2.424,0,2.485-4.939,1.875-6.97,2.231-.019,0-8.61,1.583-12.932,3.688C1243.631,199.433,1250.125,192.839,1259.133,192.839Z" transform="translate(-1207.096 -141.726)" fill="#8b532c"/>
            <path id="Trazado_120806" data-name="Trazado 120806" d="M1259.05,214.042a.491.491,0,0,1,.724.566c-.736,2.347-2.225,6.4-5.453,6.4a4.412,4.412,0,0,1-.567-.039l0,0a2.964,2.964,0,0,1-1.967-2.967,2.558,2.558,0,0,1,.319-1.336,37.867,37.867,0,0,0,6.388-2.3C1258.68,214.264,1258.865,214.154,1259.05,214.042Z" transform="translate(-1211.53 -151.364)" fill="#1a0f91"/>
            <path id="Trazado_120807" data-name="Trazado 120807" d="M1214.066,194.7v0a21.6,21.6,0,0,1,.136,2.394,9.539,9.539,0,0,1-3.7,7.6,7.517,7.517,0,0,1-1.037.629,7.962,7.962,0,0,1-3.594.816c-3.227,0-5.776-1.039-7.393-3.25a10.479,10.479,0,0,1-1.789-4.758c-9.926-2.206-18.02-13.277-18.02-23.489,0-.533.022-1.063.067-1.588,1.58,5.392,6.323,12.142,11.593,15.3l.006,0a11.172,11.172,0,0,0,5.65,1.773c4.814,0,8.463-2.432,8.463-8.31,0-6.155-4.3-12-6.522-17.435a24.524,24.524,0,0,1-1.168-7.552c0-12.093,7.668-25.958,21.344-32.857,2.87,4.237,6.663,7.461,4.273,13.163-6.309,15.063-1.305,15.62.5,13.428-3.876,5.345-5.986,14.949-11.078,17.174a4.883,4.883,0,0,0-2.8,3.443,14.222,14.222,0,0,0-.319,3.01C1208.672,180.72,1213.213,187.117,1214.066,194.7Z" transform="translate(-1178.18 -110.312)" fill="#d48b5f"/>
            <path id="Trazado_120808" data-name="Trazado 120808" d="M1247.25,221.9a30.2,30.2,0,0,0,10.881,2.41,12.037,12.037,0,0,0,7.912-2.756,13.116,13.116,0,0,1,4.655-3.165c1.951-.74,2.931-.494,3.033-2.475-.368-.045-.732-.067-1.1-.132a2.337,2.337,0,0,0,2.107-2.221,26.457,26.457,0,0,1-3.067,1.489,3.211,3.211,0,0,0,.144-.915c0-1.611-1.525-2.318-2.984-2.766a.841.841,0,0,1,.213-1.645h.017c1.123,0,2.831,1.192,4.367,1.192,2.066,0,2.923-2.585,2.923-3.787,0-3.713-4.458-2.4-4.458-11.385a13.23,13.23,0,0,1,.092-1.556,4.853,4.853,0,0,0,2.087.47h.02c4.011,0,4.806-3.118,5.034-5.64a.351.351,0,0,0-.586-.293,21.668,21.668,0,0,1-5.117,3.478q-.573.284-1.2.549a18.337,18.337,0,0,1,5.111-8.825,10.9,10.9,0,0,0,2.543-2.2c.065-.053.132-.1.2-.151-.055,1.391-.143,2.779-.143,4.176,0,3.41.584,4.383.938,6.915a32.221,32.221,0,0,1,.266,4.534c0,1.432-.063,2.874-.163,4.3a69.5,69.5,0,0,1-4.564,15.546,26.718,26.718,0,0,1-5.418,8.207,7.666,7.666,0,0,1-3.051,1.808,7.828,7.828,0,0,1-3.923.187A80.464,80.464,0,0,1,1247.25,221.9Z" transform="translate(-1209.462 -136.588)" fill="#e79065"/>
            <path id="Trazado_120809" data-name="Trazado 120809" d="M1249.474,220.268a2.963,2.963,0,0,0,1.967,2.967,8.611,8.611,0,0,1-4.523-2.571.653.653,0,0,1,.33-1.106c.746-.151,1.626-.368,2.546-.627A2.556,2.556,0,0,0,1249.474,220.268Z" transform="translate(-1209.221 -153.628)" fill="#f5debf"/>
            <path id="Trazado_120810" data-name="Trazado 120810" d="M1231.146,98.855a28.268,28.268,0,0,1,8.184,1.907,31.183,31.183,0,0,0-13.033,4.947,22.9,22.9,0,0,0-9.889-2.083c-.793,0-1.653.063-2.5.085v0A33.334,33.334,0,0,1,1231.146,98.855Z" transform="translate(-1194.255 -98.855)" fill="#b16d42"/>
            <path id="Trazado_120811" data-name="Trazado 120811" d="M1201.382,107.628a22.9,22.9,0,0,1,9.889,2.083c-15.3,10.047-22.214,31.751-25.062,39.88-.939,1.041-1.879,2.067-2.748,3.11l0,0a30.3,30.3,0,0,1-2.489-10.947c0-15.748,7.528-27.765,17.916-34.041v0C1199.728,107.691,1200.589,107.628,1201.382,107.628Z" transform="translate(-1179.228 -102.857)" fill="#d48b5f"/>
            <path id="Trazado_120812" data-name="Trazado 120812" d="M1205.449,184.346c3.871,0,5.423-3.612,5.423-7.363,0-8.526-9.181-16.778-8.569-25.8.921-13.632,15.435-39.122,38.16-39.122a24.022,24.022,0,0,1,10.7,2.373l0,0a47.19,47.19,0,0,1,8.727,15.154,37.441,37.441,0,0,0-5.25-4.794,9.1,9.1,0,0,1-1.051-2.127c-2.475-4.084-4.6-8.256-9.551-8.256-1.737,0-3.535.4-5.251.47a40.333,40.333,0,0,0-10.9,3.655c-13.676,6.9-21.344,20.764-21.344,32.857a24.52,24.52,0,0,0,1.168,7.552c2.221,5.435,6.522,11.28,6.522,17.435,0,5.878-3.649,8.31-8.463,8.31a11.172,11.172,0,0,1-5.65-1.773A13.488,13.488,0,0,0,1205.449,184.346Z" transform="translate(-1187.964 -104.878)" fill="#163a46"/>
            <path id="Trazado_120813" data-name="Trazado 120813" d="M1196.3,220.486c0,1.961-1.137,3.583-3.167,3.583a2.963,2.963,0,0,1-.559-.063,15.4,15.4,0,0,1-5.278-5.962,3.705,3.705,0,0,1,1.06-4.48,3.167,3.167,0,0,1,1.926-.665C1192.423,212.9,1196.3,217.333,1196.3,220.486Z" transform="translate(-1181.957 -150.877)" fill="#0b2235"/>
            <path id="Trazado_120814" data-name="Trazado 120814" d="M1187.617,216.4c-.36-.427-.71-.87-1.045-1.326l-.007-.008c-2.477-3.36-4.271-7.444-4.271-10.631,0-2.128.8-3.854,2.729-4.7a2.476,2.476,0,0,1,.708-.085c4.944,0,13.985,9.3,13.985,16.778,0,3.508-2.28,4.932-4.322,4.932C1192.933,221.363,1190.049,219.286,1187.617,216.4Zm-2.449-4.4a15.407,15.407,0,0,0,5.278,5.962,2.965,2.965,0,0,0,.559.063c2.03,0,3.167-1.623,3.167-3.583,0-3.153-3.873-7.586-6.018-7.586a3.166,3.166,0,0,0-1.926.665A3.705,3.705,0,0,0,1185.168,212Z" transform="translate(-1179.832 -144.834)" fill="#fe7062"/>
          </g>
          <path id="Trazado_120815" data-name="Trazado 120815" d="M1272.742,276.751a115.147,115.147,0,0,1-1.942,16.094,29.714,29.714,0,0,1-20.613,23.449,82.74,82.74,0,0,1-22.905,3.522h-.375c-8.144-.052-16.923-4.661-23.281-11.252.686.09,1.4.194,2.124.311,64.416,9.84,42.288-52.064,42.288-52.064a7.457,7.457,0,0,0,3.056-1.813,26.68,26.68,0,0,0,5.425-8.2C1268.3,247.488,1272.742,265.02,1272.742,276.751Z" transform="translate(-1189.563 -166.341)" fill="#1a0f91" style="mix-blend-mode: multiply;isolation: isolate"/>
          <g id="Grupo_57091" data-name="Grupo 57091" transform="translate(9.028 67.059)">
            <path id="Trazado_120816" data-name="Trazado 120816" d="M1235.838,238.863a3.179,3.179,0,0,1-2.654,1.955c-.337.052-.609.1-.829.129-1.968.35-.064.194-5.244.583a14.71,14.71,0,0,1-3.068.039,28.418,28.418,0,0,1-6.125-.673,18.655,18.655,0,0,1-2.991-.738,20.272,20.272,0,0,1-2.914-.984,33.382,33.382,0,0,1-17.583-16.095.634.634,0,0,1,.31-.854.457.457,0,0,1,.259-.065.63.63,0,0,1,.544.272,35.763,35.763,0,0,0,17.7,13.388,23.724,23.724,0,0,0,2.655.751,16.174,16.174,0,0,0,2.706.557,27.071,27.071,0,0,0,5.516.427c1.813.065.648.116,5.555-.3,2.668-.194,3.716-1.45,5.853.35A1.05,1.05,0,0,1,1235.838,238.863Z" transform="translate(-1194.368 -222.159)" fill="#51495e"/>
            <path id="Trazado_120817" data-name="Trazado 120817" d="M1236.369,238.863a3.179,3.179,0,0,1-2.654,1.955c-.337.052-.609.1-.829.129a1.119,1.119,0,0,0,.557-.919c0-1.282-1.308-1.554-2.577-1.554-.88,0-1.01.091-3.029.091-14.774,0-24.55-5.14-32.306-16.405a.629.629,0,0,1,.544.272,35.764,35.764,0,0,0,17.7,13.388,23.713,23.713,0,0,0,2.654.751,16.17,16.17,0,0,0,2.706.557,27.07,27.07,0,0,0,5.516.427c1.813.065.648.116,5.555-.3,2.667-.194,3.716-1.45,5.852.35A1.05,1.05,0,0,1,1236.369,238.863Z" transform="translate(-1194.898 -222.159)" fill="#373140"/>
          </g>
        </g>
      </g>
    </g>
  </g>
</svg>
