<svg xmlns="http://www.w3.org/2000/svg" width="93" height="94" viewBox="0 0 93 94">
  <g id="Grupo_57245" data-name="Grupo 57245" transform="translate(-1169 -2874)">
    <ellipse id="Elipse_4178" data-name="Elipse 4178" cx="46.5" cy="47" rx="46.5" ry="47" transform="translate(1169 2874)" fill="#fe7062"/>
    <path id="Trazado_120135" data-name="Trazado 120135" d="M601.2,533.739h30.288l-6.619-4.5a5.518,5.518,0,1,1,6.207-9.124l21.411,14.566.013.007.013.009.024.02c.125.086.235.2.353.292a5.42,5.42,0,0,1,.443.375l.05.048c.057.059.1.134.156.2s.083.1.125.156c.116.143.241.278.344.43l.059.09.013.016c.05.079.075.162.12.241.024.042.042.085.066.127.083.158.175.309.245.474.013.035.026.07.04.1.059.153.09.307.134.462s.1.3.134.46c.005.035.009.068.017.1.031.182.037.364.05.548.005.072.017.142.02.213s.02.132.02.2v.009c0,.029-.007.061-.007.09,0,.177-.033.349-.053.524-.017.158-.018.318-.05.474-.005.026-.015.052-.02.077-.039.175-.1.34-.16.51-.048.149-.077.3-.138.447-.009.022-.02.041-.029.063-.068.156-.162.3-.245.451a5.16,5.16,0,0,1-.25.453l0,.007-.015.018c-.094.136-.212.256-.318.384a5.468,5.468,0,0,1-.371.43c-.044.044-.094.083-.14.125-.092.085-.191.153-.287.23-.143.112-.28.232-.434.331-.022.015-.039.033-.061.048l-21.953,13.793a5.517,5.517,0,1,1-5.869-9.343l5.736-3.6H601.2a5.517,5.517,0,0,1,0-11.035Z" transform="translate(590.319 2381.842)" fill="#fff"/>
  </g>
</svg>
