<svg id="Grupo_55846" data-name="Grupo 55846" xmlns="http://www.w3.org/2000/svg" xmlns:xlink="http://www.w3.org/1999/xlink" width="361" height="305" viewBox="0 0 361 305">
  <defs>
    <clipPath id="clip-path">
      <path id="Trazado_118384" data-name="Trazado 118384" d="M152.57,250.737l-15.9-9.188a2.936,2.936,0,0,0-2.64,0l-12.809,7.4a.8.8,0,0,0,0,1.521l15.9,9.181a2.913,2.913,0,0,0,2.632,0l12.817-7.393c.32-.31.151-1-.159-1.322C152.405,250.931,152.4,250.925,152.57,250.737Z" transform="translate(-120.661 -241.236)" fill="none"/>
    </clipPath>
  </defs>
  <g id="Grupo_55867" data-name="Grupo 55867" transform="translate(18.016 16.434)">
    <g id="freepik--Floor--inject-1--inject-13" transform="translate(0 106.892)">
      <path id="Trazado_118244" data-name="Trazado 118244" d="M293.531,269.891c-63.735,33.293-167.062,33.293-230.8,0s-63.728-87.278,0-120.571,167.062-33.294,230.8,0S357.258,236.62,293.531,269.891Z" transform="translate(-14.936 -124.35)" fill="#f5f5f5"/>
    </g>
    <g id="freepik--Shadow--inject-1--inject-13" transform="translate(33.392 165.896)">
      <path id="Trazado_118245" data-name="Trazado 118245" d="M295.5,220.516c-16.605,8.507-43.532,8.507-60.082,0s-16.6-22.3,0-30.791,43.532-8.5,60.082,0S312.109,212.02,295.5,220.516Z" transform="translate(-222.991 -183.354)" fill="#e0e0e0"/>
    </g>
    <g id="freepik--Bags--inject-1--inject-13" transform="translate(186.861 39.561)">
      <path id="Trazado_118246" data-name="Trazado 118246" d="M128.592,86.216a.342.342,0,0,0,.342-.335V72.19c0-5.713-3.141-12.171-7-14.392a4.413,4.413,0,0,0-4.518-.281c-1.788,1.027-2.807,3.506-2.807,6.792V77.917a.327.327,0,0,0,.319.335h.016a.334.334,0,0,0,.342-.327V64.332c0-3.042.9-5.324,2.472-6.207a3.665,3.665,0,0,1,3.8.282c3.666,2.122,6.655,8.314,6.655,13.8V85.9a.335.335,0,0,0,.355.314Z" transform="translate(-89.076 -57.019)" fill="#455a64"/>
      <path id="Trazado_118247" data-name="Trazado 118247" d="M140.716,134.335l1.5-64.374,10.953-6.313,1.3,62.754Z" transform="translate(-140.716 -57.019)" fill="#286a69"/>
      <path id="Trazado_118249" data-name="Trazado 118249" d="M140.724,85.881l1.293,62.746L103.52,126.4l-1.3-62.754Z" transform="translate(-89.768 -57.019)" fill="#2e8180"/>
      <g id="Grupo_55847" data-name="Grupo 55847" transform="translate(12.452 6.629)" opacity="0.4">
        <path id="Trazado_118250" data-name="Trazado 118250" d="M102.22,63.648Z" transform="translate(-102.22 -63.648)" fill="#57dbd8"/>
      </g>
      <path id="Trazado_118251" data-name="Trazado 118251" d="M154.469,92.187l-1.491,64.374-38.5-22.226,1.5-64.374Z" transform="translate(-114.474 -57.019)" fill="#57dbd8"/>
      <path id="Trazado_118252" data-name="Trazado 118252" d="M114.672,85.881l-10.961,6.306-1.491,64.374,13.745-7.934Z" transform="translate(-63.716 -57.019)" fill="#3aa5a3"/>
      <g id="Grupo_55848" data-name="Grupo 55848" transform="translate(38.504 28.863)" opacity="0.2">
        <path id="Trazado_118253" data-name="Trazado 118253" d="M115.965,148.628Z" transform="translate(-102.22 -85.881)" fill="#57dbd8"/>
      </g>
      <path id="Trazado_118254" data-name="Trazado 118254" d="M102.22,156.561,107.78,147l1-38.93.989,38.36h0l6.2,2.2Z" transform="translate(-63.716 -57.019)" opacity="0.2" style="isolation: isolate"/>
      <g id="Grupo_55849" data-name="Grupo 55849" transform="translate(27.155 33.343)" opacity="0.2">
        <path id="Trazado_118255" data-name="Trazado 118255" d="M125.937,90.575a3.043,3.043,0,0,1,1.377,2.38c0,.875-.616,1.24-1.377.807a3.048,3.048,0,0,1-1.377-2.427C124.56,90.46,125.176,90.1,125.937,90.575Z" transform="translate(-124.56 -90.362)"/>
      </g>
      <g id="Grupo_55850" data-name="Grupo 55850" transform="translate(13.517 25.392)" opacity="0.2">
        <path id="Trazado_118256" data-name="Trazado 118256" d="M139.575,82.6a3.045,3.045,0,0,1,1.377,2.381c0,.883-.616,1.24-1.377.806a3.04,3.04,0,0,1-1.369-2.38C138.206,82.519,138.814,82.162,139.575,82.6Z" transform="translate(-138.206 -82.411)"/>
      </g>
      <path id="Trazado_118257" data-name="Trazado 118257" d="M139.516,92.469a.342.342,0,0,0,.373-.373V78.4c0-5.705-3.142-12.17-6.991-14.384a4.418,4.418,0,0,0-4.518-.289c-1.787,1.035-2.814,3.514-2.814,6.8V84.185a.342.342,0,1,0,.677.1.348.348,0,0,0,0-.1v-13.6c0-3.043.9-5.325,2.472-6.215a3.649,3.649,0,0,1,3.8.289c3.666,2.115,6.656,8.307,6.656,13.8V92.149A.343.343,0,0,0,139.516,92.469Z" transform="translate(-110.984 -57.019)" fill="#455a64"/>
      <path id="Trazado_118258" data-name="Trazado 118258" d="M77.674,119.251a.282.282,0,0,0,.289-.274V107.56c0-4.785-2.632-10.185-5.857-12.049a3.692,3.692,0,0,0-3.8-.236c-1.521.86-2.358,2.937-2.358,5.69v11.41a.289.289,0,0,0,.571,0v-11.41c0-2.548.761-4.442,2.069-5.2a3.133,3.133,0,0,1,3.217.244c3.043,1.772,5.568,6.952,5.568,11.554v11.41a.282.282,0,0,0,.281.282Z" transform="translate(10.562 -57.019)" fill="#455a64"/>
      <path id="Trazado_118259" data-name="Trazado 118259" d="M87.813,159.535l1.255-53.892,9.173-5.279,1.088,52.531Z" transform="translate(-32.673 -57.019)" fill="#286a69"/>
      <path id="Trazado_118261" data-name="Trazado 118261" d="M87.813,118.97,88.9,171.5,56.672,152.895l-1.088-52.531Z" transform="translate(9.984 -57.019)" fill="#2e8180"/>
      <g id="Grupo_55852" data-name="Grupo 55852" transform="translate(65.568 43.345)" opacity="0.4">
        <path id="Trazado_118262" data-name="Trazado 118262" d="M55.584,100.364Z" transform="translate(-55.584 -100.364)" fill="#57dbd8"/>
      </g>
      <path id="Trazado_118263" data-name="Trazado 118263" d="M99.329,124.249l-1.247,53.9L65.845,159.535,67.1,105.643Z" transform="translate(-10.706 -57.019)" fill="#57dbd8"/>
      <path id="Trazado_118264" data-name="Trazado 118264" d="M66.005,118.97l-9.173,5.279-1.247,53.9L67.093,171.5Z" transform="translate(31.792 -57.019)" fill="#3aa5a3"/>
      <g id="Grupo_55853" data-name="Grupo 55853" transform="translate(87.376 61.951)" opacity="0.2">
        <path id="Trazado_118265" data-name="Trazado 118265" d="M67.093,171.5Z" transform="translate(-55.584 -118.97)" fill="#57dbd8"/>
      </g>
      <path id="Trazado_118266" data-name="Trazado 118266" d="M55.584,178.148l4.655-8.01.829-32.586.837,32.107,5.188,1.841Z" transform="translate(31.792 -57.019)" opacity="0.2" style="isolation: isolate"/>
      <g id="Grupo_55854" data-name="Grupo 55854" transform="translate(77.876 65.701)" opacity="0.2">
        <path id="Trazado_118267" data-name="Trazado 118267" d="M75.445,122.864a2.571,2.571,0,0,1,1.148,2c0,.76-.517,1.034-1.148.669a2.506,2.506,0,0,1-1.156-1.993C74.289,122.8,74.806,122.522,75.445,122.864Z" transform="translate(-74.289 -122.72)" fill="#455a64"/>
      </g>
      <g id="Grupo_55855" data-name="Grupo 55855" transform="translate(66.458 59.049)" opacity="0.2">
        <path id="Trazado_118268" data-name="Trazado 118268" d="M86.863,116.224a2.539,2.539,0,0,1,1.148,1.993c0,.76-.517,1.034-1.148.677a2.528,2.528,0,0,1-1.149-1.993C85.714,116.155,86.193,115.859,86.863,116.224Z" transform="translate(-85.714 -116.068)" fill="#455a64"/>
      </g>
      <path id="Trazado_118269" data-name="Trazado 118269" d="M86.885,124.484a.288.288,0,0,0,.281-.281V112.755c0-4.777-2.624-10.177-5.857-12.041a3.7,3.7,0,0,0-3.8-.243c-1.521.867-2.35,2.943-2.35,5.689v11.41a.274.274,0,0,0,.266.282h.015a.281.281,0,0,0,.281-.282V106.16c0-2.54.761-4.434,2.077-5.2a3.087,3.087,0,0,1,3.21.244c3.043,1.772,5.568,6.952,5.568,11.546V124.2a.289.289,0,0,0,.3.282Z" transform="translate(-7.853 -57.019)" fill="#455a64"/>
    </g>
    <g id="freepik--Plants--inject-1--inject-13" transform="translate(277.424 151.975)">
      <path id="Trazado_118270" data-name="Trazado 118270" d="M40.891,205.486l-3.849-1.97s.647-7.279,1.955-14.551c1.8-10,9.835-19.823,18.7-19.526s6.777,6.929,2.754,10.322C57.9,181.914,43.591,192.5,40.891,205.486Z" transform="translate(-37.042 -169.432)" fill="#91b3fa"/>
      <g id="Grupo_55856" data-name="Grupo 55856" opacity="0.1">
        <path id="Trazado_118271" data-name="Trazado 118271" d="M40.891,205.486l-3.849-1.97s.647-7.279,1.955-14.551c1.8-10,9.835-19.823,18.7-19.526s6.777,6.929,2.754,10.322C57.9,181.914,43.591,192.5,40.891,205.486Z" transform="translate(-37.042 -169.432)" fill="#57dbd8"/>
      </g>
      <path id="Trazado_118272" data-name="Trazado 118272" d="M41.374,204.672h.046a.486.486,0,0,0,.433-.525c-1.027-10.124,8.832-28.022,20.34-32.335a.479.479,0,1,0-.334-.9c-11.836,4.449-22.014,22.865-20.964,33.362A.471.471,0,0,0,41.374,204.672Z" transform="translate(-39.419 -169.432)" fill="#fff"/>
      <path id="Trazado_118273" data-name="Trazado 118273" d="M32.366,214.036,31.2,206.3a22.75,22.75,0,0,1,7.166-13.037c6.389-5.857,15.372-8.466,21.374-6.687s5.134,7.675-.16,9.668-12.444,1.9-19.016,6.481C36.086,205.912,32.145,211.343,32.366,214.036Z" transform="translate(-31.202 -169.432)" fill="#57dbd8"/>
      <path id="Trazado_118274" data-name="Trazado 118274" d="M35.288,209.236a.478.478,0,0,0,.464-.395c1.7-9.539,16.522-19.549,27.384-18.492a.463.463,0,0,0,.515-.406l0-.02a.472.472,0,0,0-.413-.523l-.013,0c-11.471-1.141-26.623,9.128-28.4,19.275a.472.472,0,0,0,.372.554l.008,0Z" transform="translate(-34.573 -169.432)" fill="#fff"/>
    </g>
    <g id="freepik--Calculator--inject-1--inject-13" transform="translate(98.222 89.57)">
      <path id="Trazado_118275" data-name="Trazado 118275" d="M178.323,154.949l17.632-10.178,22.264-12.855h.054c2-1.111,3.248-3.552,3.248-7.044,0-3.346,1.141-5.727,2.989-6.9L209.3,126.751l-2.4,1.385-22.234,12.832-.243.144c-1.909,1.141-3.088,3.553-3.088,6.953S180.2,153.785,178.323,154.949Z" transform="translate(-159.725 -107.027)" fill="#91b3fa"/>
      <g id="Grupo_55857" data-name="Grupo 55857" transform="translate(18.598 10.946)" opacity="0.1">
        <path id="Trazado_118276" data-name="Trazado 118276" d="M178.323,154.949l17.632-10.178,22.264-12.855h.054c2-1.111,3.248-3.552,3.248-7.044,0-3.346,1.141-5.727,2.989-6.9L209.3,126.751l-2.4,1.385-22.234,12.832-.243.144c-1.909,1.141-3.088,3.553-3.088,6.953S180.2,153.785,178.323,154.949Z" transform="translate(-178.323 -117.973)"/>
      </g>
      <path id="Trazado_118277" data-name="Trazado 118277" d="M195.9,130.182v5.362c0,6.9,4.838,15.282,10.809,18.728,2.944,1.7,5.621,1.886,7.569.806l.22-.129c1.879-1.164,3.043-3.553,3.043-6.915s1.179-5.811,3.088-6.952l.244-.145L243.108,128.1c-4.107-4.145-7.028-10.4-7.028-15.753v-5.325Z" transform="translate(-195.902 -107.027)" fill="#91b3fa"/>
      <path id="Trazado_118278" data-name="Trazado 118278" d="M138.054,140.937c1.948-1.027,4.564-.829,7.485.852a18.147,18.147,0,0,1,3.8,2.982c4.108,4.138,7.021,10.391,7.021,15.746,0,6.9,4.846,15.281,10.817,18.734L178,185.5,218.151,162.3l-10.817-6.245c-5.971-3.446-10.816-11.836-10.816-18.735S191.68,122.043,185.7,118.6c-2.937-1.7-5.606-1.879-7.554-.806h0l-.258.144-15.213,8.778-2.4,1.385Z" transform="translate(-113.097 -107.027)" fill="#91b3fa"/>
      <g id="Grupo_55858" data-name="Grupo 55858" transform="translate(24.957 10.095)" opacity="0.4">
        <path id="Trazado_118279" data-name="Trazado 118279" d="M138.054,140.937c1.948-1.027,4.564-.829,7.485.852a18.147,18.147,0,0,1,3.8,2.982c4.108,4.138,7.021,10.391,7.021,15.746,0,6.9,4.846,15.281,10.817,18.734L178,185.5,218.151,162.3l-10.817-6.245c-5.971-3.446-10.816-11.836-10.816-18.735S191.68,122.043,185.7,118.6c-2.937-1.7-5.606-1.879-7.554-.806h0l-.258.144-15.213,8.778-2.4,1.385Z" transform="translate(-138.054 -117.122)" fill="#fff"/>
      </g>
      <path id="Trazado_118280" data-name="Trazado 118280" d="M60.81,165.537c.251-1.674,1.612-2.282,3.255-1.331l5.979,3.445,12.17,7.021a58.624,58.624,0,0,1,6.413,4.077,76.128,76.128,0,0,1,8.724,8.824c5.325,6.085,10.649,12.688,15.974,15.761l27.6,15.935a7.288,7.288,0,0,1,3.294,5.705v10.231c0,1.947-1.271,2.822-2.906,2.1a7.357,7.357,0,0,0,6.2-.2l36.649-21.169a7.289,7.289,0,0,0,3.293-5.705V200a7.273,7.273,0,0,0-3.293-5.705L156.56,178.323c-5.324-3.042-10.649-9.675-15.973-15.753a76.347,76.347,0,0,0-8.755-8.8,58.8,58.8,0,0,0-6.4-4.07l-12.17-7.021-5.972-3.453a7.281,7.281,0,0,0-6.587,0L64.027,160.4A7.372,7.372,0,0,0,60.81,165.537Z" transform="translate(-5.16 -107.027)" fill="#455a64"/>
      <path id="Trazado_118281" data-name="Trazado 118281" d="M62.6,226.518s46.346-26.524,46.339-26.752v10.459a7.274,7.274,0,0,1-3.294,5.7L68.971,237.107a7.281,7.281,0,0,1-6.587,0l-1.567-.906Z" transform="translate(73.355 -107.027)" fill="#37474f"/>
      <path id="Trazado_118282" data-name="Trazado 118282" d="M107.354,164.2l18.126,10.474a59.451,59.451,0,0,1,6.412,4.07c8.231,6.648,16.461,19.845,24.691,24.584l27.6,15.974a7.27,7.27,0,0,1,3.294,5.705v10.23c0,2.1-1.476,2.952-3.294,1.9l-76.826-44.361a7.287,7.287,0,0,1-3.293-5.705V166.1C104.053,164,105.528,163.148,107.354,164.2Z" transform="translate(-48.441 -107.027)" fill="#263238"/>
      <path id="Trazado_118283" data-name="Trazado 118283" d="M129.083,171.1a58.553,58.553,0,0,1,6.412,4.077,49.237,49.237,0,0,1,4.495,4.206,2.047,2.047,0,0,0,2.366.343l28.273-16.324a1.141,1.141,0,0,0,.526-1.526,1.162,1.162,0,0,0-.252-.338,49.543,49.543,0,0,0-4.51-4.206,58.79,58.79,0,0,0-6.4-4.069c-3.461-2.009-7.34-4.253-10.839-6.261a2.942,2.942,0,0,0-2.64,0l-28.266,16.316a.807.807,0,0,0,0,1.522Z" transform="translate(-45.867 -107.027)" fill="#37474f"/>
      <path id="Trazado_118284" data-name="Trazado 118284" d="M146.33,148.384a2.929,2.929,0,0,1,2.64,0l10.839,6.268a58.794,58.794,0,0,1,6.4,4.069,50.585,50.585,0,0,1,4.51,4.2l.137.175a1.455,1.455,0,0,1-.411.358l-28.273,16.323a2.047,2.047,0,0,1-2.366-.342,49.239,49.239,0,0,0-4.495-4.206,58.564,58.564,0,0,0-6.412-4.078l-10.84-6.26-.129-.091.129-.091Z" transform="translate(-45.688 -107.027)" fill="#fff"/>
      <path id="Trazado_118285" data-name="Trazado 118285" d="M63.906,230.086c0,.989.761,1.361,1.651.836l33.78-19.5a3.526,3.526,0,0,0,1.643-2.738c0-.989-.76-1.362-1.643-.837l-33.78,19.511A3.53,3.53,0,0,0,63.906,230.086Z" transform="translate(78.222 -107.027)" fill="#263238"/>
      <path id="Trazado_118286" data-name="Trazado 118286" d="M101.231,194.86v-1.354l1.567-.114,3.514-2.046a3.639,3.639,0,0,1,3.293,0l2.374,1.369,1.194-.091v1.316h0a1.132,1.132,0,0,1-.677.973l-4.427,2.556a3.641,3.641,0,0,1-3.294,0l-2.89-1.666a1.163,1.163,0,0,1-.677-.935h0Z" transform="translate(28.727 -107.027)" fill="#e0e0e0"/>
      <path id="Trazado_118287" data-name="Trazado 118287" d="M106.327,190.007l-4.435,2.556a1,1,0,0,0,0,1.9l2.891,1.666a3.639,3.639,0,0,0,3.293,0l4.427-2.556a1,1,0,0,0,0-1.9l-2.883-1.666A3.639,3.639,0,0,0,106.327,190.007Z" transform="translate(28.712 -107.027)" fill="#f5f5f5"/>
      <path id="Trazado_118288" data-name="Trazado 118288" d="M89.593,188.151V186.8l1.567-.114,3.545-2.046a3.641,3.641,0,0,1,3.294,0l2.373,1.369,1.194-.084v1.309h0a1.143,1.143,0,0,1-.684.966l-4.427,2.555a3.6,3.6,0,0,1-3.294,0l-2.883-1.665a1.152,1.152,0,0,1-.685-.936Z" transform="translate(51.949 -107.027)" fill="#e0e0e0"/>
      <path id="Trazado_118289" data-name="Trazado 118289" d="M94.7,183.3l-4.427,2.563a1,1,0,0,0,0,1.9l2.883,1.7a3.641,3.641,0,0,0,3.294,0l4.427-2.563a1,1,0,0,0,0-1.9L98,183.328A3.645,3.645,0,0,0,94.7,183.3Z" transform="translate(51.95 -107.027)" fill="#f5f5f5"/>
      <path id="Trazado_118290" data-name="Trazado 118290" d="M112.83,201.546v-1.354l1.521-.114,3.553-2.046a3.639,3.639,0,0,1,3.293,0l2.366,1.369,1.2-.091v1.316h0a1.141,1.141,0,0,1-.677.973l-4.435,2.556a3.641,3.641,0,0,1-3.294,0l-2.882-1.666a1.146,1.146,0,0,1-.677-.935h0Z" transform="translate(5.543 -107.027)" fill="#e0e0e0"/>
      <path id="Trazado_118291" data-name="Trazado 118291" d="M117.874,196.693l-4.427,2.556a1,1,0,0,0,0,1.9l2.883,1.665a3.639,3.639,0,0,0,3.293,0l4.435-2.555a1,1,0,0,0,0-1.9l-2.89-1.666A3.648,3.648,0,0,0,117.874,196.693Z" transform="translate(5.603 -107.027)" fill="#f5f5f5"/>
      <path id="Trazado_118292" data-name="Trazado 118292" d="M110.45,189.513v-1.354l1.567-.114L115.562,186a3.648,3.648,0,0,1,3.294,0l2.373,1.37,1.194-.092v1.316h0a1.141,1.141,0,0,1-.677.974l-4.435,2.556a3.646,3.646,0,0,1-3.293,0l-2.883-1.666a1.183,1.183,0,0,1-.685-.936h0Z" transform="translate(10.235 -107.027)" fill="#e0e0e0"/>
      <path id="Trazado_118293" data-name="Trazado 118293" d="M115.539,184.66l-4.427,2.555a1,1,0,0,0,0,1.9l2.883,1.666a3.646,3.646,0,0,0,3.293,0l4.45-2.556a1,1,0,0,0,0-1.9l-2.89-1.665A3.642,3.642,0,0,0,115.539,184.66Z" transform="translate(10.258 -107.027)" fill="#f5f5f5"/>
      <path id="Trazado_118294" data-name="Trazado 118294" d="M98.865,182.8V181.45l1.567-.114,3.545-2.047a3.646,3.646,0,0,1,3.293,0l2.374,1.37,1.194-.084v1.278h0a1.134,1.134,0,0,1-.677.973l-4.435,2.556a3.639,3.639,0,0,1-3.293,0l-2.883-1.666a1.139,1.139,0,0,1-.677-.935h0Z" transform="translate(33.405 -107.027)" fill="#e0e0e0"/>
      <path id="Trazado_118295" data-name="Trazado 118295" d="M104.008,177.951l-4.427,2.563a1,1,0,0,0,0,1.9l2.845,1.665a3.639,3.639,0,0,0,3.293,0l4.435-2.563a1,1,0,0,0,0-1.9l-2.891-1.665A3.641,3.641,0,0,0,104.008,177.951Z" transform="translate(33.374 -107.027)" fill="#f5f5f5"/>
      <path id="Trazado_118296" data-name="Trazado 118296" d="M122.035,196.2v-1.354l1.567-.114,3.544-2.047a3.648,3.648,0,0,1,3.294,0l2.373,1.37,1.194-.092v1.316h0a1.157,1.157,0,0,1-.684.974l-4.427,2.556a3.648,3.648,0,0,1-3.294,0l-2.89-1.666a1.163,1.163,0,0,1-.677-.936h0Z" transform="translate(-12.934 -107.027)" fill="#e0e0e0"/>
      <path id="Trazado_118297" data-name="Trazado 118297" d="M127.154,191.346,122.72,193.9a1,1,0,0,0,0,1.9l2.89,1.666a3.641,3.641,0,0,0,3.294,0l4.427-2.556a1,1,0,0,0,0-1.9l-2.883-1.666A3.642,3.642,0,0,0,127.154,191.346Z" transform="translate(-12.942 -107.027)" fill="#f5f5f5"/>
      <path id="Trazado_118298" data-name="Trazado 118298" d="M91.913,200.23v-1.354l1.567-.114,3.545-2.046a3.6,3.6,0,0,1,3.294,0l2.373,1.369,1.194-.091v1.354h0a1.154,1.154,0,0,1-.677.973l-4.434,2.556a3.641,3.641,0,0,1-3.294,0L92.6,201.211a1.18,1.18,0,0,1-.685-.935h0Z" transform="translate(47.309 -107.027)" fill="#e0e0e0"/>
      <path id="Trazado_118299" data-name="Trazado 118299" d="M97.017,195.377l-4.427,2.556a1,1,0,0,0,0,1.9l2.883,1.665a3.641,3.641,0,0,0,3.294,0l4.434-2.555a1,1,0,0,0,0-1.9l-2.89-1.666A3.648,3.648,0,0,0,97.017,195.377Z" transform="translate(47.317 -107.027)" fill="#f5f5f5"/>
      <path id="Trazado_118300" data-name="Trazado 118300" d="M80.39,193.521v-1.354l1.521-.114,3.552-2.046a3.641,3.641,0,0,1,3.294,0l2.366,1.369,1.2-.091V192.6h0a1.14,1.14,0,0,1-.677.973l-4.434,2.556a3.641,3.641,0,0,1-3.294,0l-2.883-1.666a1.148,1.148,0,0,1-.677-.935h0Z" transform="translate(70.425 -107.027)" fill="#e0e0e0"/>
      <path id="Trazado_118301" data-name="Trazado 118301" d="M85.439,188.7l-4.434,2.555a1,1,0,0,0,0,1.9l2.883,1.628a3.646,3.646,0,0,0,3.293,0l4.435-2.556a1,1,0,0,0,0-1.9l-2.883-1.665A3.642,3.642,0,0,0,85.439,188.7Z" transform="translate(70.487 -107.027)" fill="#f5f5f5"/>
      <path id="Trazado_118302" data-name="Trazado 118302" d="M103.513,206.954V205.6l1.567-.114,3.552-2.084a3.6,3.6,0,0,1,3.294,0l2.373,1.369,1.179-.1v1.316h0a1.165,1.165,0,0,1-.685.974l-4.427,2.556a3.646,3.646,0,0,1-3.293,0l-2.883-1.666a1.18,1.18,0,0,1-.685-.936h0Z" transform="translate(24.125 -107.027)" fill="#e0e0e0"/>
      <path id="Trazado_118303" data-name="Trazado 118303" d="M108.579,202.063l-4.427,2.556a1,1,0,0,0,0,1.9l2.906,1.666a3.646,3.646,0,0,0,3.293,0l4.427-2.556a1,1,0,0,0,0-1.9l-2.883-1.666A3.644,3.644,0,0,0,108.579,202.063Z" transform="translate(24.178 -107.027)" fill="#f5f5f5"/>
      <path id="Trazado_118304" data-name="Trazado 118304" d="M82.633,205.57v-1.354L84.2,204.1l3.545-2.054a3.648,3.648,0,0,1,3.294,0l2.373,1.369,1.194-.083v1.338h0a1.139,1.139,0,0,1-.685.966L89.494,208.2a3.646,3.646,0,0,1-3.293,0l-2.891-1.666a1.166,1.166,0,0,1-.677-.943Z" transform="translate(65.869 -107.027)" fill="#e0e0e0"/>
      <path id="Trazado_118305" data-name="Trazado 118305" d="M87.752,200.709l-4.435,2.564a1,1,0,0,0,0,1.9l2.891,1.666a3.639,3.639,0,0,0,3.293,0l4.427-2.556a1,1,0,0,0,0-1.9l-2.882-1.674A3.648,3.648,0,0,0,87.752,200.709Z" transform="translate(65.862 -107.027)" fill="#f5f5f5"/>
      <path id="Trazado_118306" data-name="Trazado 118306" d="M71.048,198.861v-1.354l1.567-.114,3.545-2.046a3.639,3.639,0,0,1,3.293,0l2.374,1.369,1.194-.091v1.316h0a1.14,1.14,0,0,1-.677.973l-4.435,2.556a3.639,3.639,0,0,1-3.293,0L71.733,199.8a1.178,1.178,0,0,1-.685-.935h0Z" transform="translate(89.039 -107.027)" fill="#e0e0e0"/>
      <path id="Trazado_118307" data-name="Trazado 118307" d="M76.152,194.023l-4.427,2.556a1,1,0,0,0,0,1.9l2.883,1.627a3.639,3.639,0,0,0,3.293,0l4.435-2.555a1,1,0,0,0,0-1.9l-2.875-1.628A3.648,3.648,0,0,0,76.152,194.023Z" transform="translate(89.047 -107.027)" fill="#f5f5f5"/>
      <path id="Trazado_118308" data-name="Trazado 118308" d="M94.218,212.279v-1.354l1.559-.114,3.552-2.054a3.641,3.641,0,0,1,3.294,0L105,210.126l1.194-.083v1.315h0a1.131,1.131,0,0,1-.677.966l-4.427,2.564a3.646,3.646,0,0,1-3.293,0L94.9,213.222a1.15,1.15,0,0,1-.677-.943Z" transform="translate(42.7 -107.027)" fill="#e0e0e0"/>
      <path id="Trazado_118309" data-name="Trazado 118309" d="M99.337,207.4,94.9,209.959a1,1,0,0,0,0,1.9l2.89,1.666a3.641,3.641,0,0,0,3.294,0l4.427-2.555a1,1,0,0,0,0-1.9l-2.883-1.674A3.648,3.648,0,0,0,99.337,207.4Z" transform="translate(42.692 -107.027)" fill="#f5f5f5"/>
      <path id="Trazado_118310" data-name="Trazado 118310" d="M106.945,173.577h0l.281-1.164,1.172-.1,3.8-2.213a4.535,4.535,0,0,1,5.4.464,2.388,2.388,0,0,1,.532.951h.335l-.3,1.232h0a3.417,3.417,0,0,1-1.7,2.046l-4.671,2.693a2.015,2.015,0,0,1-2.365-.343q-1.1-1.179-2.214-2.434A1.214,1.214,0,0,1,106.945,173.577Z" transform="translate(17.734 -107.027)" fill="#e0e0e0"/>
      <path id="Trazado_118311" data-name="Trazado 118311" d="M111.759,176.308l4.67-2.693c1.818-1.05,2.282-2.921,1.134-4.214s-3.583-1.521-5.4-.464l-4.67,2.693a1.2,1.2,0,0,0-.514,1.62,1.167,1.167,0,0,0,.2.281q1.11,1.255,2.213,2.434A2.01,2.01,0,0,0,111.759,176.308Z" transform="translate(18.077 -107.027)" fill="#f5f5f5"/>
      <path id="Trazado_118312" data-name="Trazado 118312" d="M130.8,188.1h0l.281-1.179h.335a4.147,4.147,0,0,1,1.133-.943l4.663-2.693a1.94,1.94,0,0,1,2.327.381c.761.814,1.453,1.62,2.176,2.4l.662-.053-.3,1.224h0a1.194,1.194,0,0,1-.586.761l-4.663,2.693c-1.817,1.049-4.282.882-5.461-.411A2.281,2.281,0,0,1,130.8,188.1Z" transform="translate(-29.987 -107.027)" fill="#e0e0e0"/>
      <path id="Trazado_118313" data-name="Trazado 118313" d="M136.791,189.459l4.663-2.692a1.15,1.15,0,0,0,.514-1.541,1.172,1.172,0,0,0-.24-.323q-1.1-1.187-2.214-2.434a1.939,1.939,0,0,0-2.327-.38l-4.663,2.692c-1.826,1.05-2.366,2.974-1.194,4.268S134.966,190.494,136.791,189.459Z" transform="translate(-29.691 -107.027)" fill="#f5f5f5"/>
      <path id="Trazado_118314" data-name="Trazado 118314" d="M118.581,180.727h0l.282-1.149.89-.06,5.59-3.226a2.427,2.427,0,0,1,2.906.472c.571.639,1.133,1.263,1.7,1.879a1.851,1.851,0,0,1,.144.2h.563l-.289,1.2h0a1.475,1.475,0,0,1-.76.959l-5.987,3.453a2.509,2.509,0,0,1-2.951-.426c-.571-.608-1.141-1.24-1.7-1.871A1.523,1.523,0,0,1,118.581,180.727Z" transform="translate(-6.088 -107.027)" fill="#e0e0e0"/>
      <path id="Trazado_118315" data-name="Trazado 118315" d="M118.933,180.955c.563.632,1.133,1.263,1.7,1.871a2.524,2.524,0,0,0,2.959.426l5.986-3.453a1.437,1.437,0,0,0,.638-1.931,1.472,1.472,0,0,0-.295-.4c-.571-.616-1.134-1.239-1.7-1.878a2.427,2.427,0,0,0-2.906-.472l-5.986,3.453a1.522,1.522,0,0,0-.619,2.061A1.552,1.552,0,0,0,118.933,180.955Z" transform="translate(-5.778 -107.027)" fill="#f5f5f5"/>
    </g>
    <g id="freepik--Character--inject-1--inject-13" transform="translate(25.056)">
      <path id="Trazado_118316" data-name="Trazado 118316" d="M278.913,138.576l23.759-13.723,1.727,40.093-25.486,14.78Z" transform="translate(-267.038 -17.457)" fill="#91b3fa"/>
      <path id="Trazado_118317" data-name="Trazado 118317" d="M316.274,179.725,304.4,172.869l7.121-37.036,4.754,2.743Z" transform="translate(-304.399 -17.457)" fill="#37474f"/>
      <path id="Trazado_118318" data-name="Trazado 118318" d="M304.4,172.869l7.751-1.006,4.124,7.862Z" transform="translate(-304.399 -17.457)" fill="#37474f"/>
      <path id="Trazado_118319" data-name="Trazado 118319" d="M304.4,172.869l7.751-1.006,4.124,7.862Z" transform="translate(-304.399 -17.457)" fill="#37474f"/>
      <path id="Trazado_118320" data-name="Trazado 118320" d="M304.4,172.869l7.751-1.006,4.124,7.862Z" transform="translate(-304.399 -17.457)" fill="#91b3fa"/>
      <path id="Trazado_118321" data-name="Trazado 118321" d="M304.4,172.869l7.751-1.006,4.124,7.862Z" transform="translate(-304.399 -17.457)" opacity="0.1" style="isolation: isolate"/>
      <path id="Trazado_118322" data-name="Trazado 118322" d="M304.4,171.863l4.124-36.03v43.892Z" transform="translate(-296.649 -17.457)" fill="#91b3fa"/>
      <path id="Trazado_118323" data-name="Trazado 118323" d="M304.4,171.863l4.124-36.03v43.892Z" transform="translate(-296.649 -17.457)" opacity="0.2" style="isolation: isolate"/>
      <path id="Trazado_118324" data-name="Trazado 118324" d="M309.153,124.852l-4.155-.3-.6-2.438L280.64,135.833h4.754v2.743Z" transform="translate(-273.519 -17.457)" fill="#91b3fa"/>
      <path id="Trazado_118325" data-name="Trazado 118325" d="M309.153,124.852l-4.155-.3-.6-2.438L280.64,135.833h4.754v2.743Z" transform="translate(-273.519 -17.457)" opacity="0.2" style="isolation: isolate"/>
      <path id="Trazado_118326" data-name="Trazado 118326" d="M295.531,136.869c0,.345.254.5.559.315a1.222,1.222,0,0,0,.549-.955c0-.355-.244-.5-.549-.325A1.232,1.232,0,0,0,295.531,136.869Z" transform="translate(-275.896 -17.457)" fill="#91b3fa"/>
      <path id="Trazado_118327" data-name="Trazado 118327" d="M295.531,136.869c0,.345.254.5.559.315a1.222,1.222,0,0,0,.549-.955c0-.355-.244-.5-.549-.325A1.232,1.232,0,0,0,295.531,136.869Z" transform="translate(-275.896 -17.457)" opacity="0.3" style="isolation: isolate"/>
      <path id="Trazado_118328" data-name="Trazado 118328" d="M288.482,132.684c0,.356.254.5.559.325a1.22,1.22,0,0,0,.548-1.016c0-.345-.244-.5-.548-.315A1.228,1.228,0,0,0,288.482,132.684Z" transform="translate(-261.797 -17.457)" fill="#91b3fa"/>
      <path id="Trazado_118329" data-name="Trazado 118329" d="M288.482,132.684c0,.356.254.5.559.325a1.22,1.22,0,0,0,.548-1.016c0-.345-.244-.5-.548-.315A1.228,1.228,0,0,0,288.482,132.684Z" transform="translate(-261.797 -17.457)" opacity="0.3" style="isolation: isolate"/>
      <path id="Trazado_118330" data-name="Trazado 118330" d="M300.3,134.055c0,.356.254.5.559.325a1.215,1.215,0,0,0,.548-.965c0-.345-.243-.487-.548-.314A1.23,1.23,0,0,0,300.3,134.055Z" transform="translate(-285.425 -17.457)" fill="#91b3fa"/>
      <path id="Trazado_118331" data-name="Trazado 118331" d="M300.3,134.055c0,.356.254.5.559.325a1.215,1.215,0,0,0,.548-.965c0-.345-.243-.487-.548-.314A1.23,1.23,0,0,0,300.3,134.055Z" transform="translate(-285.425 -17.457)" opacity="0.2" style="isolation: isolate"/>
      <path id="Trazado_118332" data-name="Trazado 118332" d="M293.185,129.88c0,.356.254.5.558.326a1.217,1.217,0,0,0,.549-.965c0-.346-.244-.5-.549-.315A1.226,1.226,0,0,0,293.185,129.88Z" transform="translate(-271.203 -17.457)" fill="#91b3fa"/>
      <path id="Trazado_118333" data-name="Trazado 118333" d="M293.185,129.88c0,.356.254.5.558.326a1.217,1.217,0,0,0,.549-.965c0-.346-.244-.5-.549-.315A1.226,1.226,0,0,0,293.185,129.88Z" transform="translate(-271.203 -17.457)" opacity="0.2" style="isolation: isolate"/>
      <path id="Trazado_118334" data-name="Trazado 118334" d="M311.52,135.833h4.754l-4.124,36.03-7.751,1.006Z" transform="translate(-304.399 -17.457)" fill="#91b3fa"/>
      <path id="Trazado_118335" data-name="Trazado 118335" d="M285.993,122.11l.6,2.438-.6,3.047-1.2.7Z" transform="translate(-255.113 -17.457)" fill="#91b3fa"/>
      <path id="Trazado_118336" data-name="Trazado 118336" d="M298.3,55.524c-3.3,0-9.944,1.077-13.388,16.172a118.542,118.542,0,0,0-2.031,11.966c-.925,7.11-2.032,12.982-2.9,19.706-.122.935-.569,3.688-.681,4.541-.63,4.561-1.9,7.415-1.9,10.879.519,2.093,1.727,4.409,6.4,4.886,4.388-1.412,3.535-2.093,3.636-6.024s-1.127-4.835-.731-9.518c1.686-11.1,5.008-30.027,5.008-30.027Z" transform="translate(-259.431 -17.457)" fill="#f7ccb1"/>
      <path id="Trazado_118337" data-name="Trazado 118337" d="M292.907,134.055a.325.325,0,0,0,.315-.264s.822-4.886,1.838-8.563c.813-2.915,2.885-3.677,4.714-4.347.406-.143.792-.285,1.127-.437a.315.315,0,0,0,.164-.414v0a.316.316,0,0,0-.415-.163h0c-.335.152-.7.284-1.087.426-1.879.681-4.2,1.534-5.079,4.764-1.016,3.718-1.859,8.584-1.869,8.635a.325.325,0,0,0,.264.365Z" transform="translate(-277.426 -17.457)" fill="#455a64"/>
      <path id="Trazado_118338" data-name="Trazado 118338" d="M291.978,114.644a17.357,17.357,0,0,1,1.849,4.246c.162.8,1.452.091,1.7-1.016a34.721,34.721,0,0,0,0-5.079,16.707,16.707,0,0,1,.549,4.794c-.264,1.565-.681,1.91-1.758,2.3s-1.015-.6-1.32-1.889S291.978,114.644,291.978,114.644Z" transform="translate(-271.784 -17.457)" fill="#f28f8f"/>
      <path id="Trazado_118339" data-name="Trazado 118339" d="M289.377,136.209V126.7c0-2.113,0-4.5,3.424-6.511,1.218-.711,2.143-.935,2.6-.64s.4,1.087.4,1.1v11.661a.315.315,0,0,0,.63,0V120.677a1.921,1.921,0,0,0-.691-1.666c-.691-.436-1.777-.223-3.25.63-3.759,2.205-3.749,4.9-3.738,7.06v9.508a.315.315,0,1,0,.629,0v0Z" transform="translate(-268.909 -17.457)" fill="#455a64"/>
      <path id="Trazado_118340" data-name="Trazado 118340" d="M292.576,129.88a.314.314,0,0,0,.315-.264l1.168-7.2a.314.314,0,0,0-.254-.365.324.324,0,0,0-.365.264l-1.179,7.171a.316.316,0,0,0,.254.366Z" transform="translate(-270.046 -17.457)" fill="#455a64"/>
      <path id="Trazado_118341" data-name="Trazado 118341" d="M289.945,119.743c1.727-.7,3.545-2.032,4.185-1.311a3.047,3.047,0,0,1-1.372,4.815,8.61,8.61,0,0,1-6.033-.193Z" transform="translate(-265.271 -17.457)" fill="#f7ccb1"/>
      <path id="Trazado_118342" data-name="Trazado 118342" d="M293.144,55.169c-5.15,0-11.366,1.625-13.845,6.389-2.651,5.079-4.4,18.7-4.4,18.7s1.95,4.195,9.142,3.728Z" transform="translate(-251.771 -17.457)" fill="#37474f"/>
      <path id="Trazado_118343" data-name="Trazado 118343" d="M244.064,182.042c1.28-.671,2.1.965,3.261,2.275.822.914,2.092,2.367,2.285,3.413.274,1.554-1.117,3.992-2.661,5.333s-3.342,2.306-3.9,5.252a7.162,7.162,0,0,1-4.764,6.013c-3.342,1.442-7.822,1.016-9.345,0-1.8-1.168-.153-2.438,2.367-6.1,3.291-4.713,5.861-8.075,5.861-12.474Z" transform="translate(-161.551 -17.457)" fill="#263238"/>
      <path id="Trazado_118344" data-name="Trazado 118344" d="M240.7,178.181l2.7,3.962a3.818,3.818,0,0,1-.914,5.282l-.081.051a4.064,4.064,0,0,1-5.181-.8l-4.215-4.6Z" transform="translate(-160.815 -17.457)" fill="#ffa8a7"/>
      <path id="Trazado_118345" data-name="Trazado 118345" d="M235.766,100.839c-.173,5.079,1.259,25.466,4.744,34.537s5.515,14.638,6.612,16.517,32.729,32.678,32.729,32.678,5.374-.4,6.227-5.6c0,0-12.961-22.033-15.775-26.553s-12.748-11.448-12.748-11.448l.9-39.525Z" transform="translate(-205.556 -17.457)" fill="#37474f"/>
      <rect id="Rectángulo_29647" data-name="Rectángulo 29647" width="6.857" height="9.985" transform="translate(37.183 190.995) rotate(-167.19)" fill="#ffa8a7"/>
      <path id="Trazado_118346" data-name="Trazado 118346" d="M252.774,100.839h32.079c.284,3.555,1.015,5.546,1.208,14.14.244,13.906-12.687,39.169-12.687,39.169.163,1.889.965,9.812-.833,16.831C269.7,182.062,261.967,200.8,261.967,200.8s-4.836.691-7.243-2.1c0,0,4.277-38.071,5.435-47.823,1.249-10.554,4.449-29.824,4.449-29.824a49.469,49.469,0,0,1-5.739-6.877,34.387,34.387,0,0,1-6.1-13.337" transform="translate(-222.564 -17.457)" fill="#37474f"/>
      <path id="Trazado_118347" data-name="Trazado 118347" d="M251.77,92.956c-1.443-14.871-5.943-25.323-6.6-29.062L240.8,82.3a133.1,133.1,0,0,1,3.261,15.013c.183,1.27,2.255,12.322,1.93,17.035a3.363,3.363,0,0,1-1.016,2.194c-1.6,1.575-2.082,2.936-3.159,4.7-.843,1.392-1.717,1.879-1.493,2.215a1.85,1.85,0,0,0,2.489.315,13.051,13.051,0,0,0,2.326-2.032,17.208,17.208,0,0,1-1.676,5.231c-1.9,3.769-1.585,5.75,3.687,4.642,3.3-.7,5.485-3.311,6.359-11.122a67.713,67.713,0,0,0-.051-8.452C253.2,105.491,252.207,97.416,251.77,92.956Z" transform="translate(-177.627 -17.457)" fill="#f7ccb1"/>
      <path id="Trazado_118348" data-name="Trazado 118348" d="M263.981,55.474c6.146,1.483,14.536,3.413,16.964,10.076s5.079,19.3,5.079,19.3c-1.92,2.245-7.893,3.424-10.473,2.032l-1.209-3.992v17.9c-4.8,5.231-21.575,7.669-32.079,0V67.4c0-5.343,2.967-11.753,11.174-12.19Z" transform="translate(-212.013 -17.457)" fill="#455a64"/>
      <path id="Trazado_118349" data-name="Trazado 118349" d="M257.063,82.93l-3.078-9.7,3.078,14.048Z" transform="translate(-194.775 -17.457)" fill="#37474f"/>
      <path id="Trazado_118350" data-name="Trazado 118350" d="M259.046,28.139a3.655,3.655,0,0,1,3.047,1.015c1.3,1.331,1.016,3.789,0,9.437l-4.012.467Z" transform="translate(-204.772 -17.457)" fill="#263238"/>
      <path id="Trazado_118351" data-name="Trazado 118351" d="M286.721,26.5A6.309,6.309,0,0,1,284.212,26c-1.229-.711-1.554.691-.884,1.9a5.759,5.759,0,0,0,4.663,3.1c0-.173,1.148-3.139,1.148-3.139Z" transform="translate(-255.851 -17.457)" fill="#263238"/>
      <path id="Trazado_118352" data-name="Trazado 118352" d="M278.486,39.119c.6.356,1.442-.792,2.184-1.564a2.58,2.58,0,0,1,4.327.711c1.219,2.57-1.554,5.983-3.18,7.111a2.854,2.854,0,0,1-3.331.294l-.427,9.823a10.482,10.482,0,0,1-7.9,6c-5.77.782-4.581-3.982-2.692-6.308V51.614a13.675,13.675,0,0,1-4.388.223c-.752-.2-2.55-2.367-3.708-4.805-1.3-2.722-3.463-7.567-1.533-15.755,2.031-8.8,11.519-9.061,17.156-5.515S278.486,39.119,278.486,39.119Z" transform="translate(-226.091 -17.457)" fill="#f7ccb1"/>
      <path id="Trazado_118353" data-name="Trazado 118353" d="M284.811,40.135c.294,0,1.442-1.889,2.184-2.57,1.015-.934-.3-9.4-.3-9.4s1.016-3.22-1.016-5.343-5.973-1.778-8.847-1.879a25.873,25.873,0,0,1-10.29-2.032c-4.064-1.778-4.4-2.031-4.907-.193s-.7,5.912,1.737,8.665L264.7,29.55s1.239,1.016,5.079,1.514,10.31-1.585,11.174-1.7c1.1-.153,1.341.924,1.93,3.85C283.368,35.727,283.8,40.135,284.811,40.135Z" transform="translate(-232.416 -17.457)" fill="#263238"/>
      <path id="Trazado_118354" data-name="Trazado 118354" d="M258.632,28.789l3.6-1.93a2.031,2.031,0,0,0-2.722-.9A2.142,2.142,0,0,0,258.632,28.789Z" transform="translate(-204.358 -17.457)" fill="#263238"/>
      <path id="Trazado_118355" data-name="Trazado 118355" d="M265.088,51.593s5.344-1.077,7.213-2.031a6.217,6.217,0,0,0,2.59-2.55,8.422,8.422,0,0,1-1.473,3.047c-1.361,1.748-8.33,3.048-8.33,3.048Z" transform="translate(-223.705 -17.457)" fill="#f7a36f"/>
      <path id="Trazado_118356" data-name="Trazado 118356" d="M272.91,38.906a1.077,1.077,0,1,0,1.077-1.117,1.1,1.1,0,0,0-1.077,1.117Z" transform="translate(-231.699 -17.457)" fill="#263238"/>
      <path id="Trazado_118357" data-name="Trazado 118357" d="M271.525,34.863l2.3,1.26a1.361,1.361,0,0,0-.538-1.819,1.269,1.269,0,0,0-1.725.5C271.545,34.822,271.535,34.842,271.525,34.863Z" transform="translate(-229.227 -17.457)" fill="#263238"/>
      <path id="Trazado_118358" data-name="Trazado 118358" d="M276.773,46.067l-2.448.915a1.29,1.29,0,0,0,1.627.826l.039-.014A1.371,1.371,0,0,0,276.773,46.067Z" transform="translate(-234.902 -17.457)" fill="#f7a36f"/>
      <path id="Trazado_118359" data-name="Trazado 118359" d="M282.774,35.747l2.093-1.605a1.259,1.259,0,0,0-1.752-.323.8.8,0,0,0-.066.049A1.371,1.371,0,0,0,282.774,35.747Z" transform="translate(-251.112 -17.457)" fill="#263238"/>
      <path id="Trazado_118360" data-name="Trazado 118360" d="M281.809,38.6a1.112,1.112,0,1,0,0-.011Z" transform="translate(-249.497 -17.457)" fill="#263238"/>
      <path id="Trazado_118361" data-name="Trazado 118361" d="M280.427,38.469l1.016,6.369-3.535-.416Z" transform="translate(-243.076 -17.457)" fill="#f7a36f"/>
      <path id="Trazado_118362" data-name="Trazado 118362" d="M292.2,203.678l.213-.955c-.7.132-3.7,5.079-6.684,7.283-3.26,2.377-6.094,3.779-7.547,4.846-1.95,1.432.874,4.357,5.668,4.621,2.387.133,6.725-.6,8.055-1.858s2.306-3.373,3.363-4.287,3.21-1.707,3.931-2.875a8.379,8.379,0,0,0,.416-3.6c0-1.259-.081-2.631-.508-2.61a5.676,5.676,0,0,1-.172.731,8.3,8.3,0,0,1-4.063.894C293.745,205.77,291.642,205.506,292.2,203.678Z" transform="translate(-260.945 -17.457)" fill="#263238"/>
      <path id="Trazado_118363" data-name="Trazado 118363" d="M276.953,144.416s2.844-20.234,3.606-23.363c0,0-4.592-2.549-6.329-4.54a51.327,51.327,0,0,0,4.328,5.414Z" transform="translate(-238.515 -17.457)" fill="#263238"/>
      <path id="Trazado_118364" data-name="Trazado 118364" d="M265.464,143.746s-3.423,8.523-4.8,10.4c0,0,.345,6.491.295,7.8l1.8,1.575a40.351,40.351,0,0,0-.8-8.757A52.885,52.885,0,0,0,265.464,143.746Z" transform="translate(-209.849 -17.457)" fill="#263238"/>
    </g>
    <g id="freepik--credit-card--inject-1--inject-13" transform="translate(82.774 175.612)">
      <path id="Trazado_118365" data-name="Trazado 118365" d="M257.24,247.17l-93.149-53.786a2.913,2.913,0,0,0-2.632,0L102.3,227.545a2.9,2.9,0,0,0-1.315,2.282v.525a2.9,2.9,0,0,0,1.315,2.282l93.15,53.778a2.877,2.877,0,0,0,2.624,0l59.179-34.731a2.915,2.915,0,0,0,1.308-2.282A2.885,2.885,0,0,0,257.24,247.17Z" transform="translate(-100.98 -193.07)" fill="#91b3fa"/>
      <g id="Grupo_55859" data-name="Grupo 55859" opacity="0.2">
        <path id="Trazado_118366" data-name="Trazado 118366" d="M257.24,247.17l-93.149-53.786a2.913,2.913,0,0,0-2.632,0L102.3,227.545a2.9,2.9,0,0,0-1.315,2.282v.525a2.9,2.9,0,0,0,1.315,2.282l93.15,53.778a2.877,2.877,0,0,0,2.624,0l59.179-34.731a2.915,2.915,0,0,0,1.308-2.282A2.885,2.885,0,0,0,257.24,247.17Z" transform="translate(-100.98 -193.07)" fill="#161146"/>
      </g>
      <path id="Trazado_118367" data-name="Trazado 118367" d="M162.775,249.421a2.911,2.911,0,0,1-1.308,2.282l-59.179,34.724a4.726,4.726,0,0,1-1.308.32V276.47l3.088-41.029,33.986-1.788,23.4,13.517A2.882,2.882,0,0,1,162.775,249.421Z" transform="translate(-5.199 -193.07)" fill="#91b3fa"/>
      <line id="Línea_545" data-name="Línea 545" x1="59.179" y2="34.724" transform="translate(97.089 58.611)" fill="none"/>
      <path id="Trazado_118368" data-name="Trazado 118368" d="M162.775,249.421a2.911,2.911,0,0,1-1.308,2.282l-59.179,34.724a4.726,4.726,0,0,1-1.308.32V276.47l3.088-41.029,33.986-1.788,23.4,13.517A2.882,2.882,0,0,1,162.775,249.421Z" transform="translate(-5.199 -193.07)" fill="#91b3fa"/>
      <line id="Línea_546" data-name="Línea 546" x1="59.179" y2="34.724" transform="translate(97.089 58.611)" fill="none"/>
      <g id="Grupo_55860" data-name="Grupo 55860" transform="translate(95.781 40.583)" opacity="0.2">
        <path id="Trazado_118369" data-name="Trazado 118369" d="M162.775,249.421a2.911,2.911,0,0,1-1.308,2.282l-59.179,34.724a4.726,4.726,0,0,1-1.308.32V276.47l3.088-41.029,33.986-1.788,23.4,13.517A2.882,2.882,0,0,1,162.775,249.421Z" transform="translate(-100.98 -233.653)" fill="#161146"/>
        <line id="Línea_547" data-name="Línea 547" x1="59.179" y2="34.724" transform="translate(1.308 18.028)" fill="none"/>
      </g>
      <path id="Trazado_118370" data-name="Trazado 118370" d="M161.476,193.384l-59.164,34.161a.8.8,0,0,0,0,1.521l93.15,53.779a2.919,2.919,0,0,0,2.632,0l59.163-34.154a.806.806,0,0,0,0-1.521l-93.149-53.786A2.913,2.913,0,0,0,161.476,193.384Z" transform="translate(-100.997 -193.07)" fill="#1a0f91"/>
      <path id="Trazado_118371" data-name="Trazado 118371" d="M151.471,232.056a1.125,1.125,0,0,0,.48-.16l5.78-3.339c.175-.1.267-.2.282-.282s-.061-.182-.221-.273l-2.578-1.484a3.73,3.73,0,0,0-3.925,0,1.525,1.525,0,0,0-.624.578.571.571,0,0,0,0,.594,2.957,2.957,0,0,0-2.282.342,1.59,1.59,0,0,0-.936,1.171c-.022.411.328.86,1.035,1.271l2.51,1.407A.85.85,0,0,0,151.471,232.056Zm1.415-3.8c-.175-.107-.266-.213-.258-.328s.106-.235.3-.349a1.209,1.209,0,0,1,.6-.183,1.153,1.153,0,0,1,.563.16l.95.555-1.209.692Zm-2.83,1.468c-.19-.107-.266-.229-.243-.358a.584.584,0,0,1,.327-.365,1.373,1.373,0,0,1,.677-.2,1.158,1.158,0,0,1,.616.16l1.065.616-1.346.761Z" transform="translate(-46.905 -193.07)" fill="#fff"/>
      <path id="Trazado_118372" data-name="Trazado 118372" d="M160.806,229.158a.7.7,0,0,0,.152-.145l3.879-4.769a.476.476,0,0,0,.114-.243c0-.061-.061-.122-.175-.183l-.76-.456a.694.694,0,0,0-.328-.1,1.392,1.392,0,0,0-.41.068l-8.269,2.236a.76.76,0,0,0-.235.084c-.061,0-.092.069-.092.107s0,.076.084.106l1.339.761a.648.648,0,0,0,.251.076.762.762,0,0,0,.3-.046l1.263-.373,1.81,1.043-.661.722a.227.227,0,0,0-.076.175.291.291,0,0,0,.144.145l1.331.76A.336.336,0,0,0,160.806,229.158Zm-1.179-3.431,2.228-.669-1.171,1.285Z" transform="translate(-61.077 -193.07)" fill="#fff"/>
      <path id="Trazado_118373" data-name="Trazado 118373" d="M164.219,225.3a1.1,1.1,0,0,0,.479-.16l5.789-3.346c.172-.1.263-.188.274-.274s-.066-.178-.229-.274l-.684-.4a.934.934,0,0,0-.3-.114,1.1,1.1,0,0,0-.38,0l-5.325.761,3.043-1.765c.167-.1.266-.2.281-.281s-.061-.183-.22-.274l-.845-.487a.914.914,0,0,0-.479-.129,1.1,1.1,0,0,0-.487.16l-5.788,3.346c-.173.1-.264.188-.274.274s.076.175.243.274L160,223a.919.919,0,0,0,.3.122,1.063,1.063,0,0,0,.373,0l5.324-.761-3.042,1.772c-.173.1-.264.193-.274.274s.076.175.243.274l.837.487A.9.9,0,0,0,164.219,225.3Z" transform="translate(-71.283 -193.07)" fill="#fff"/>
      <path id="Trazado_118374" data-name="Trazado 118374" d="M165.222,218.79c-.053,0-.091.068-.091.107s0,.076.084.106l1.339.761a.937.937,0,0,0,.213.091.51.51,0,0,0,.213,0l4.51-.647-2.442,1.415c-.174.1-.266.19-.281.282s.068.175.236.273l.844.48a.822.822,0,0,0,.464.137,1.014,1.014,0,0,0,.479-.168l5.781-3.331c.175-.1.267-.2.282-.282s-.061-.182-.221-.274l-.837-.486a.906.906,0,0,0-.479-.13,1.089,1.089,0,0,0-.487.16l-2.4,1.384,1.141-2.533a.129.129,0,0,0,0-.129.567.567,0,0,0-.167-.129l-1.331-.761a.388.388,0,0,0-.183-.046.347.347,0,0,0-.19.054.257.257,0,0,0-.129.144l-1.134,2.792-4.967.646A.576.576,0,0,0,165.222,218.79Z" transform="translate(-83.43 -193.07)" fill="#fff"/>
      <path id="Trazado_118375" data-name="Trazado 118375" d="M179.742,216.173a7.231,7.231,0,0,0,3.492-1.034c1.163-.677,1.764-1.339,1.818-2.008s-.442-1.286-1.461-1.879a7.062,7.062,0,0,0-1.354-.6,5.877,5.877,0,0,0-1.339-.274.462.462,0,0,0-.273.053.471.471,0,0,0-.145.153l-.357.639c-.054.068-.054.121,0,.152a.64.64,0,0,0,.243.061,4.052,4.052,0,0,1,1.521.517c.54.3.761.646.708,1.019s-.441.761-1.134,1.164a4.44,4.44,0,0,1-2.046.639,3.306,3.306,0,0,1-1.81-.419,2.045,2.045,0,0,1-.921-.92.348.348,0,0,0-.106-.137.41.41,0,0,0-.259,0l-1.156.213a.775.775,0,0,0-.228.076.171.171,0,0,0-.084.168c.1.5.624,1.026,1.567,1.566A6.216,6.216,0,0,0,179.742,216.173Z" transform="translate(-101.35 -193.07)" fill="#fff"/>
      <path id="Trazado_118376" data-name="Trazado 118376" d="M187.512,213.732a.735.735,0,0,0,.16-.145l3.871-4.769a.355.355,0,0,0,.114-.244c0-.06-.06-.121-.167-.182l-.761-.456a.636.636,0,0,0-.319-.1,1.412,1.412,0,0,0-.418.068l-8.269,2.236a.7.7,0,0,0-.228.084c-.061,0-.091.069-.091.107s0,.076.084.106l1.338.761a.585.585,0,0,0,.244.076.765.765,0,0,0,.3-.046l1.263-.373,1.818,1.05-.669.761c-.054.061-.084.122-.069.167a.258.258,0,0,0,.145.145l1.331.76A.32.32,0,0,0,187.512,213.732ZM186.34,210.3l2.222-.669-1.172,1.285Z" transform="translate(-114.505 -193.07)" fill="#fff"/>
      <path id="Trazado_118377" data-name="Trazado 118377" d="M190.559,209.875a1.1,1.1,0,0,0,.487-.16l5.781-3.339c.167-.1.259-.19.274-.281s-.053-.175-.221-.274l-2.122-1.225a4.322,4.322,0,0,0-4.655,0c-.951.548-1.286,1.111-1.012,1.689l-3,.761a.623.623,0,0,0-.191.068.183.183,0,0,0-.1.122c0,.045,0,.083.091.121l1.209.7a1.013,1.013,0,0,0,.244.092.536.536,0,0,0,.258,0l2.746-.761.67.388-1.719.989c-.175.1-.267.2-.274.281s.061.175.228.274l.844.487A.88.88,0,0,0,190.559,209.875Zm1.24-3.354c-.525-.3-.5-.616.053-.936a1.522,1.522,0,0,1,1.59-.061l.685.4-1.689.973Z" transform="translate(-124.345 -193.07)" fill="#fff"/>
      <path id="Trazado_118378" data-name="Trazado 118378" d="M195.073,206.7a1.1,1.1,0,0,0,.479-.159l5.781-3.34c.167-.1.266-.19.282-.281s-.061-.175-.221-.266l-1.909-1.1a5.9,5.9,0,0,0-3.081-.829,7.041,7.041,0,0,0-3.347,1.034c-1.133.662-1.726,1.3-1.772,1.924s.426,1.225,1.415,1.8l1.9,1.1A.821.821,0,0,0,195.073,206.7Zm-1-2.107c-.418-.243-.578-.5-.487-.76a2.791,2.791,0,0,1,1.217-1.05,4.748,4.748,0,0,1,1.8-.692,2.128,2.128,0,0,1,1.346.281l.685.4-3.88,2.244Z" transform="translate(-134.343 -193.07)" fill="#fff"/>
      <path id="Trazado_118379" data-name="Trazado 118379" d="M152.57,250.737l-15.9-9.188a2.936,2.936,0,0,0-2.64,0l-12.809,7.4a.8.8,0,0,0,0,1.521l15.9,9.181a2.913,2.913,0,0,0,2.632,0l12.817-7.393c.32-.31.151-1-.159-1.322C152.405,250.931,152.4,250.925,152.57,250.737Z" transform="translate(-14.847 -193.07)" fill="#e0e0e0"/>
      <g id="Grupo_55863" data-name="Grupo 55863" transform="translate(105.814 48.166)">
        <g id="Grupo_55862" data-name="Grupo 55862" clip-path="url(#clip-path)">
          <g id="Grupo_55861" data-name="Grupo 55861" transform="translate(2.13 -0.881)">
            <path id="Trazado_118380" data-name="Trazado 118380" d="M122.787,258.96l11.091-6.275a2.7,2.7,0,0,1,2.662,0l7.759,4.472.38-.654-7.759-4.48a3.46,3.46,0,0,0-3.415,0l-11.09,6.275Z" transform="translate(-116.482 -240.355)" fill="#fff"/>
            <path id="Trazado_118381" data-name="Trazado 118381" d="M138.069,249.612a3.481,3.481,0,0,0,1.742-.464l10.8-6.245-.38-.654-10.809,6.237a2.705,2.705,0,0,1-2.715,0l-7.721-4.457-.38.661,7.72,4.458A3.459,3.459,0,0,0,138.069,249.612Z" transform="translate(-128.607 -240.355)" fill="#fff"/>
            <path id="Trazado_118382" data-name="Trazado 118382" d="M144.618,248.258l.38-.662-8.7-5.02,2.328-1.346,9.082,5.241.38-.654-9.463-5.461-3.849,2.221Z" transform="translate(-132.251 -240.355)" fill="#fff"/>
            <path id="Trazado_118383" data-name="Trazado 118383" d="M134.456,260.854l3.857-2.221-9.911-5.682-.38.654,8.763,5.028-2.328,1.339-9.143-5.271-.38.654Z" transform="translate(-112.633 -240.355)" fill="#fff"/>
          </g>
        </g>
      </g>
      <path id="Trazado_118385" data-name="Trazado 118385" d="M163.884,262.847l-14.59-8.42a4.362,4.362,0,0,0-3.955,0l-2.221,1.285a1.2,1.2,0,0,0,0,2.282l14.582,8.42a4.362,4.362,0,0,0,3.955,0l2.229-1.285A1.206,1.206,0,0,0,163.884,262.847Z" transform="translate(-48.44 -193.07)" fill="#91b3fa"/>
      <g id="Grupo_55864" data-name="Grupo 55864" transform="translate(93.096 60.883)" opacity="0.7">
        <path id="Trazado_118386" data-name="Trazado 118386" d="M164.644,262.847l-14.589-8.42a4.364,4.364,0,0,0-3.956,0l-2.221,1.285a1.2,1.2,0,0,0,0,2.282l14.582,8.42a4.362,4.362,0,0,0,3.955,0l2.229-1.285A1.206,1.206,0,0,0,164.644,262.847Z" transform="translate(-143.057 -253.953)" fill="#fff"/>
      </g>
      <path id="Trazado_118387" data-name="Trazado 118387" d="M185.506,250.357l-14.582-8.413a4.368,4.368,0,0,0-3.955,0l-2.229,1.286a1.206,1.206,0,0,0,0,2.282l14.589,8.42a4.347,4.347,0,0,0,3.948,0l2.229-1.285A1.209,1.209,0,0,0,185.506,250.357Z" transform="translate(-91.695 -193.07)" fill="#91b3fa"/>
      <path id="Trazado_118388" data-name="Trazado 118388" d="M185.506,250.357l-14.582-8.413a4.368,4.368,0,0,0-3.955,0l-2.229,1.286a1.206,1.206,0,0,0,0,2.282l14.589,8.42a4.347,4.347,0,0,0,3.948,0l2.229-1.285A1.209,1.209,0,0,0,185.506,250.357Z" transform="translate(-91.695 -193.07)" fill="#91b3fa"/>
      <path id="Trazado_118389" data-name="Trazado 118389" d="M185.506,250.357l-14.582-8.413a4.368,4.368,0,0,0-3.955,0l-2.229,1.286a1.206,1.206,0,0,0,0,2.282l14.589,8.42a4.347,4.347,0,0,0,3.948,0l2.229-1.285A1.209,1.209,0,0,0,185.506,250.357Z" transform="translate(-91.695 -193.07)" fill="#fff" opacity="0.7" style="isolation: isolate"/>
      <path id="Trazado_118390" data-name="Trazado 118390" d="M207.142,237.867l-14.589-8.42a4.347,4.347,0,0,0-3.948,0l-2.228,1.285a1.2,1.2,0,0,0,0,2.282l14.581,8.421a4.37,4.37,0,0,0,3.956,0l2.228-1.286A1.206,1.206,0,0,0,207.142,237.867Z" transform="translate(-134.957 -193.07)" fill="#91b3fa"/>
      <path id="Trazado_118391" data-name="Trazado 118391" d="M207.142,237.867l-14.589-8.42a4.347,4.347,0,0,0-3.948,0l-2.228,1.285a1.2,1.2,0,0,0,0,2.282l14.581,8.421a4.37,4.37,0,0,0,3.956,0l2.228-1.286A1.206,1.206,0,0,0,207.142,237.867Z" transform="translate(-134.957 -193.07)" fill="#fff" opacity="0.7" style="isolation: isolate"/>
      <path id="Trazado_118392" data-name="Trazado 118392" d="M228.763,225.385l-14.581-8.421a4.37,4.37,0,0,0-3.956,0L208,218.25a1.206,1.206,0,0,0,0,2.282l14.589,8.42a4.362,4.362,0,0,0,3.955,0l2.221-1.285A1.2,1.2,0,0,0,228.763,225.385Z" transform="translate(-178.211 -193.07)" fill="#91b3fa"/>
      <path id="Trazado_118393" data-name="Trazado 118393" d="M228.763,225.385l-14.581-8.421a4.37,4.37,0,0,0-3.956,0L208,218.25a1.206,1.206,0,0,0,0,2.282l14.589,8.42a4.362,4.362,0,0,0,3.955,0l2.221-1.285A1.2,1.2,0,0,0,228.763,225.385Z" transform="translate(-178.211 -193.07)" fill="#fff" opacity="0.7" style="isolation: isolate"/>
      <path id="Trazado_118394" data-name="Trazado 118394" d="M198.663,224.061c-.639.373-.57,1.012.16,1.438l37.53,21.663a2.733,2.733,0,0,0,2.48.092c.639-.373.571-1.012-.159-1.43l-37.531-21.671A2.776,2.776,0,0,0,198.663,224.061Z" transform="translate(-178.94 -193.07)" fill="#91b3fa"/>
      <g id="Grupo_55865" data-name="Grupo 55865" transform="translate(19.286 30.743)" opacity="0.1">
        <path id="Trazado_118395" data-name="Trazado 118395" d="M198.663,224.061c-.639.373-.57,1.012.16,1.438l37.53,21.663a2.733,2.733,0,0,0,2.48.092c.639-.373.571-1.012-.159-1.43l-37.531-21.671A2.776,2.776,0,0,0,198.663,224.061Z" transform="translate(-198.226 -223.813)"/>
      </g>
      <path id="Trazado_118396" data-name="Trazado 118396" d="M218.377,227.636c-.646.373-.578,1.012.152,1.43l24.037,13.867a2.73,2.73,0,0,0,2.48.091c.639-.365.57-1.011-.16-1.43l-24.029-13.866A2.733,2.733,0,0,0,218.377,227.636Z" transform="translate(-204.861 -193.07)" fill="#91b3fa"/>
      <g id="Grupo_55866" data-name="Grupo 55866" transform="translate(13.073 34.313)" opacity="0.1">
        <path id="Trazado_118397" data-name="Trazado 118397" d="M218.377,227.636c-.646.373-.578,1.012.152,1.43l24.037,13.867a2.73,2.73,0,0,0,2.48.091c.639-.365.57-1.011-.16-1.43l-24.029-13.866A2.733,2.733,0,0,0,218.377,227.636Z" transform="translate(-217.934 -227.382)"/>
      </g>
    </g>
  </g>
  <rect id="Rectángulo_29462" data-name="Rectángulo 29462" width="361" height="305" fill="none"/>
</svg>
