<svg id="Grupo_57247" data-name="Grupo 57247" xmlns="http://www.w3.org/2000/svg" width="62" height="62" viewBox="0 0 62 62">
  <circle id="Elipse_4266" data-name="Elipse 4266" cx="31" cy="31" r="31" fill="#fe7062"/>
  <path id="Trazado_120338" data-name="Trazado 120338" d="M268.854,66.235l-.117-.1a11.223,11.223,0,1,0-15.376.03l-.082.071c-3.854,3.264-5.9,5.387-6.611,14.517,0,1.073.46,2.615,2.647,3.877,2.581,1.489,7.165,2.235,11.749,2.235s9.173-.747,11.754-2.235c2.185-1.263,2.644-2.806,2.639-4C274.753,71.622,272.709,69.5,268.854,66.235ZM253.017,57.99a8.017,8.017,0,1,1,8.017,8.017A8.026,8.026,0,0,1,253.017,57.99Zm-3.144,22.888c.633-8.09,2.253-9.463,5.479-12.195l.739-.629c.226.112.454.221.688.317l2.652,3.648-3.207,7.348,3.524,4.307c-3.545-.12-6.928-.726-8.828-1.821C250.607,81.672,249.876,81.2,249.872,80.878Zm21.342.973c-1.911,1.1-5.326,1.709-8.9,1.825l3.524-4.308-3.207-7.348,2.652-3.648c.249-.1.491-.218.729-.338l.763.648c3.226,2.734,4.845,4.1,5.475,12.071C272.257,81.2,271.527,81.67,271.214,81.851Z" transform="translate(-229.669 -35.767)" fill="#fff"/>
</svg>
