<svg xmlns="http://www.w3.org/2000/svg" width="365" height="227" viewBox="0 0 365 227">
  <g id="Grupo_56964" data-name="Grupo 56964" transform="translate(0 0.476)">
    <g id="Grupo_55719" data-name="Grupo 55719" transform="translate(0 0)">
      <rect id="Rectángulo_5163" data-name="Rectángulo 5163" width="365" height="227" transform="translate(0 -0.476)" fill="none"/>
    </g>
    <g id="Grupo_56961" data-name="Grupo 56961" transform="translate(6 1.207)">
      <rect id="Rectángulo_29478" data-name="Rectángulo 29478" width="353" height="220" transform="translate(0 2.318)" fill="none"/>
      <g id="Grupo_55823" data-name="Grupo 55823" transform="translate(8.831)">
        <g id="Grupo_55765" data-name="Grupo 55765" transform="translate(201.054 24.377)">
          <path id="Trazado_118072" data-name="Trazado 118072" d="M471.862,146.365a6.763,6.763,0,0,1,4.424-3.937,8.575,8.575,0,0,1,16.917-1.606,6.74,6.74,0,0,1,6.883,3.826,8.571,8.571,0,0,1,12.315,1.717Z" transform="translate(-391.204 -77.428)" fill="#fff"/>
          <path id="Trazado_118073" data-name="Trazado 118073" d="M374.264,53.632a4.9,4.9,0,0,0-3.208-2.854,6.217,6.217,0,0,0-12.266-1.165,5,5,0,0,0-.563-.033,4.894,4.894,0,0,0-4.428,2.807,6.214,6.214,0,0,0-8.929,1.245Z" transform="translate(-344.87 -44.813)" fill="#fff"/>
        </g>
        <g id="Grupo_55766" data-name="Grupo 55766" transform="translate(261.653 56.22)">
          <path id="Trazado_118074" data-name="Trazado 118074" d="M395.333,59.334h3.229a16.231,16.231,0,0,0,2.906,6.706l-2.373,2.374a1.26,1.26,0,0,0,0,1.782l2.4,2.4a1.261,1.261,0,0,0,1.783,0l2.5-2.5a16.215,16.215,0,0,0,6.584,2.441V76.36a1.26,1.26,0,0,0,1.26,1.26h3.391a1.26,1.26,0,0,0,1.26-1.26V72.278a16.188,16.188,0,0,0,6.006-2.757l3.079,3.075a1.261,1.261,0,0,0,1.782,0l2.4-2.4a1.26,1.26,0,0,0,0-1.782l-3.205-3.206a16.273,16.273,0,0,0,2.327-5.875H435.3a1.26,1.26,0,0,0,1.26-1.26V54.682a1.26,1.26,0,0,0-1.26-1.261h-4.639a16.3,16.3,0,0,0-2.327-5.879l3.205-3.205a1.261,1.261,0,0,0,0-1.783l-2.4-2.4a1.261,1.261,0,0,0-1.782,0l-3.079,3.076a16.251,16.251,0,0,0-6.006-2.754V36.4a1.26,1.26,0,0,0-1.26-1.26H413.62a1.26,1.26,0,0,0-1.26,1.26v3.824a16.21,16.21,0,0,0-6.584,2.437l-2.5-2.5a1.261,1.261,0,0,0-1.783,0l-2.4,2.4a1.261,1.261,0,0,0,0,1.783l2.373,2.373a16.174,16.174,0,0,0-2.906,6.711h-3.229a1.26,1.26,0,0,0-1.26,1.261v3.391A1.26,1.26,0,0,0,395.333,59.334Zm10.847-.7a8.722,8.722,0,0,1,4.412-10,8.463,8.463,0,0,1,2.3-.812,8.711,8.711,0,0,1,4.512.29,8.459,8.459,0,0,1,1.908.916,8.732,8.732,0,0,1,3.046,3.332,8.423,8.423,0,0,1,.686,1.766,8.725,8.725,0,0,1,0,4.512,8.5,8.5,0,0,1-.683,1.763,8.694,8.694,0,0,1-3.049,3.332,8.442,8.442,0,0,1-1.908.916,8.719,8.719,0,0,1-4.512.29,8.45,8.45,0,0,1-2.3-.812,8.716,8.716,0,0,1-3.336-3.045A8.625,8.625,0,0,1,406.18,58.633Z" transform="translate(-394.073 -35.135)" fill="#ea5854"/>
          <path id="Trazado_118075" data-name="Trazado 118075" d="M395.333,53.421h3.229a16.174,16.174,0,0,1,2.906-6.711l-2.373-2.373a1.261,1.261,0,0,1,0-1.783l2.4-2.4a1.261,1.261,0,0,1,1.783,0l2.5,2.5a16.21,16.21,0,0,1,6.584-2.437V36.395a1.261,1.261,0,0,1,1.26-1.261h3.391a1.261,1.261,0,0,1,1.26,1.261v4.082a16.251,16.251,0,0,1,6.006,2.754l3.079-3.076a1.261,1.261,0,0,1,1.782,0l2.4,2.4a1.261,1.261,0,0,1,0,1.783l-3.205,3.205a16.3,16.3,0,0,1,2.327,5.879h.431a24.721,24.721,0,0,1-9.207,7.779,8.623,8.623,0,0,0,.478-.8,8.5,8.5,0,0,0,.683-1.763,8.725,8.725,0,0,0,0-4.512,8.423,8.423,0,0,0-.686-1.766,8.732,8.732,0,0,0-3.046-3.332,8.46,8.46,0,0,0-1.908-.916,8.711,8.711,0,0,0-4.512-.29,8.463,8.463,0,0,0-2.3.812,8.737,8.737,0,0,0-3.336,3.046,8.732,8.732,0,0,0,0,9.4,8.729,8.729,0,0,0,2.551,2.58A24.474,24.474,0,0,1,398.8,60.4c-.089-.351-.171-.706-.237-1.066h-1.453a24.744,24.744,0,0,1-3.036-2.478V54.682A1.26,1.26,0,0,1,395.333,53.421Z" transform="translate(-394.073 -35.134)" fill="#fe7062"/>
        </g>
        <g id="Grupo_56963" data-name="Grupo 56963" transform="translate(41.653 115.61)">
          <path id="Trazado_118074-2" data-name="Trazado 118074" d="M395.333,59.334h3.229a16.231,16.231,0,0,0,2.906,6.706l-2.373,2.374a1.26,1.26,0,0,0,0,1.782l2.4,2.4a1.261,1.261,0,0,0,1.783,0l2.5-2.5a16.215,16.215,0,0,0,6.584,2.441V76.36a1.26,1.26,0,0,0,1.26,1.26h3.391a1.26,1.26,0,0,0,1.26-1.26V72.278a16.188,16.188,0,0,0,6.006-2.757l3.079,3.075a1.261,1.261,0,0,0,1.782,0l2.4-2.4a1.26,1.26,0,0,0,0-1.782l-3.205-3.206a16.273,16.273,0,0,0,2.327-5.875H435.3a1.26,1.26,0,0,0,1.26-1.26V54.682a1.26,1.26,0,0,0-1.26-1.261h-4.639a16.3,16.3,0,0,0-2.327-5.879l3.205-3.205a1.261,1.261,0,0,0,0-1.783l-2.4-2.4a1.261,1.261,0,0,0-1.782,0l-3.079,3.076a16.251,16.251,0,0,0-6.006-2.754V36.4a1.26,1.26,0,0,0-1.26-1.26H413.62a1.26,1.26,0,0,0-1.26,1.26v3.824a16.21,16.21,0,0,0-6.584,2.437l-2.5-2.5a1.261,1.261,0,0,0-1.783,0l-2.4,2.4a1.261,1.261,0,0,0,0,1.783l2.373,2.373a16.174,16.174,0,0,0-2.906,6.711h-3.229a1.26,1.26,0,0,0-1.26,1.261v3.391A1.26,1.26,0,0,0,395.333,59.334Zm10.847-.7a8.722,8.722,0,0,1,4.412-10,8.463,8.463,0,0,1,2.3-.812,8.711,8.711,0,0,1,4.512.29,8.459,8.459,0,0,1,1.908.916,8.732,8.732,0,0,1,3.046,3.332,8.423,8.423,0,0,1,.686,1.766,8.725,8.725,0,0,1,0,4.512,8.5,8.5,0,0,1-.683,1.763,8.694,8.694,0,0,1-3.049,3.332,8.442,8.442,0,0,1-1.908.916,8.719,8.719,0,0,1-4.512.29,8.45,8.45,0,0,1-2.3-.812,8.716,8.716,0,0,1-3.336-3.045A8.625,8.625,0,0,1,406.18,58.633Z" transform="translate(-394.073 -35.135)" fill="#ea5854"/>
          <path id="Trazado_118075-2" data-name="Trazado 118075" d="M395.333,53.421h3.229a16.174,16.174,0,0,1,2.906-6.711l-2.373-2.373a1.261,1.261,0,0,1,0-1.783l2.4-2.4a1.261,1.261,0,0,1,1.783,0l2.5,2.5a16.21,16.21,0,0,1,6.584-2.437V36.395a1.261,1.261,0,0,1,1.26-1.261h3.391a1.261,1.261,0,0,1,1.26,1.261v4.082a16.251,16.251,0,0,1,6.006,2.754l3.079-3.076a1.261,1.261,0,0,1,1.782,0l2.4,2.4a1.261,1.261,0,0,1,0,1.783l-3.205,3.205a16.3,16.3,0,0,1,2.327,5.879h.431a24.721,24.721,0,0,1-9.207,7.779,8.623,8.623,0,0,0,.478-.8,8.5,8.5,0,0,0,.683-1.763,8.725,8.725,0,0,0,0-4.512,8.423,8.423,0,0,0-.686-1.766,8.732,8.732,0,0,0-3.046-3.332,8.46,8.46,0,0,0-1.908-.916,8.711,8.711,0,0,0-4.512-.29,8.463,8.463,0,0,0-2.3.812,8.737,8.737,0,0,0-3.336,3.046,8.732,8.732,0,0,0,0,9.4,8.729,8.729,0,0,0,2.551,2.58A24.474,24.474,0,0,1,398.8,60.4c-.089-.351-.171-.706-.237-1.066h-1.453a24.744,24.744,0,0,1-3.036-2.478V54.682A1.26,1.26,0,0,1,395.333,53.421Z" transform="translate(-394.073 -35.134)" fill="#fe7062"/>
        </g>
        <g id="Grupo_55787" data-name="Grupo 55787" transform="translate(65.945 21.171)">
          <g id="Grupo_55776" data-name="Grupo 55776" transform="translate(0 30.307)">
            <rect id="Rectángulo_29621" data-name="Rectángulo 29621" width="43.379" height="28.317" transform="translate(125.521 153.449) rotate(-180)" fill="#1a0f91"/>
            <rect id="Rectángulo_29622" data-name="Rectángulo 29622" width="43.379" height="12.568" transform="translate(125.521 137.699) rotate(-180)" fill="#0e35af"/>
            <path id="Rectángulo_29623" data-name="Rectángulo 29623" d="M0,0H207.664a0,0,0,0,1,0,0V96.161a19.27,19.27,0,0,1-19.27,19.27H19.27A19.27,19.27,0,0,1,0,96.161V0A0,0,0,0,1,0,0Z" transform="translate(207.664 115.431) rotate(-180)" fill="#1a0f91"/>
            <rect id="Rectángulo_29624" data-name="Rectángulo 29624" width="193.185" height="100.067" transform="translate(200.424 112.322) rotate(-180)" fill="#91b3fa"/>
            <path id="Rectángulo_29625" data-name="Rectángulo 29625" d="M19.27,0H188.394a19.27,19.27,0,0,1,19.27,19.27v1.61a0,0,0,0,1,0,0H0a0,0,0,0,1,0,0V19.27A19.27,19.27,0,0,1,19.27,0Z" transform="translate(207.664 131.273) rotate(-180)" fill="#57aff7"/>
            <circle id="Elipse_4179" data-name="Elipse 4179" cx="3.929" cy="3.929" r="3.929" transform="translate(99.902 117.798)" fill="#0058c6"/>
            <path id="Trazado_118076" data-name="Trazado 118076" d="M169.658,335.049H326.132a2.61,2.61,0,0,0,2.61-2.61h0a7.633,7.633,0,0,0-7.633-7.633H174.681a7.633,7.633,0,0,0-7.633,7.633h0A2.61,2.61,0,0,0,169.658,335.049Z" transform="translate(-144.063 -176.478)" fill="#1a0f91"/>
            <g id="Grupo_55775" data-name="Grupo 55775" transform="translate(15.707 21.067)">
              <g id="Grupo_55768" data-name="Grupo 55768" transform="translate(0 6.226)">
                <rect id="Rectángulo_29626" data-name="Rectángulo 29626" width="42.826" height="10.712" rx="2.192" transform="translate(42.826 10.712) rotate(-180)" fill="#afd9ff"/>
                <g id="Grupo_55767" data-name="Grupo 55767" transform="translate(3.381 2.833)">
                  <path id="Trazado_118077" data-name="Trazado 118077" d="M211.993,139.209l1.639.75-.207-1.791,1.22-1.327-1.767-.357-.885-1.57-.885,1.57-1.767.357,1.22,1.327-.207,1.791Z" transform="translate(-178.582 -134.914)" fill="#fe7062"/>
                  <path id="Trazado_118078" data-name="Trazado 118078" d="M199.886,139.209l1.639.75-.207-1.791,1.22-1.327-1.767-.357-.885-1.57-.885,1.57-1.767.357,1.22,1.327-.207,1.791Z" transform="translate(-174.164 -134.914)" fill="#fe7062"/>
                  <path id="Trazado_118079" data-name="Trazado 118079" d="M187.779,139.209l1.639.75-.207-1.791,1.22-1.327-1.767-.357-.885-1.57-.885,1.57-1.767.357,1.22,1.327-.207,1.791Z" transform="translate(-169.747 -134.914)" fill="#fe7062"/>
                  <path id="Trazado_118080" data-name="Trazado 118080" d="M175.672,139.209l1.639.75-.207-1.791,1.22-1.327-1.767-.357-.885-1.57-.885,1.57-1.767.357,1.22,1.327-.207,1.791Z" transform="translate(-165.33 -134.914)" fill="#fe7062"/>
                  <path id="Trazado_118081" data-name="Trazado 118081" d="M163.565,139.209l1.639.75L165,138.168l1.22-1.327-1.767-.357-.885-1.57-.885,1.57-1.767.357,1.22,1.327-.207,1.791Z" transform="translate(-160.912 -134.914)" fill="#f7f7f7"/>
                </g>
              </g>
              <g id="Grupo_55772" data-name="Grupo 55772" transform="translate(128.384 0)">
                <rect id="Rectángulo_29627" data-name="Rectángulo 29627" width="47.867" height="14.887" rx="4.384" transform="translate(47.867 14.887) rotate(-180)" fill="#afd9ff"/>
                <g id="Grupo_55771" data-name="Grupo 55771" transform="translate(3.792 1.986)">
                  <g id="Grupo_55769" data-name="Grupo 55769" transform="translate(30.652 0)">
                    <circle id="Elipse_4180" data-name="Elipse 4180" cx="4.174" cy="4.174" r="4.174" transform="translate(0 3.209) rotate(-22.612)" fill="#fe7062"/>
                    <path id="Trazado_118082" data-name="Trazado 118082" d="M421.739,134.07a4.155,4.155,0,0,1-5.6,0,2.814,2.814,0,0,1,1.754-2.388,1.736,1.736,0,1,1,2.1,0A2.812,2.812,0,0,1,421.739,134.07Z" transform="translate(-413.48 -125.526)" fill="#f7f7f7"/>
                  </g>
                  <g id="Grupo_55770" data-name="Grupo 55770" transform="translate(0 3.279)">
                    <rect id="Rectángulo_29628" data-name="Rectángulo 29628" width="22.245" height="0.797" transform="translate(28.907 0.797) rotate(-180)" fill="#dcf1ff"/>
                    <rect id="Rectángulo_29629" data-name="Rectángulo 29629" width="28.907" height="0.797" transform="translate(28.907 2.577) rotate(-180)" fill="#dcf1ff"/>
                    <rect id="Rectángulo_29630" data-name="Rectángulo 29630" width="28.907" height="0.797" transform="translate(28.907 4.357) rotate(-180)" fill="#dcf1ff"/>
                  </g>
                </g>
              </g>
              <g id="Grupo_55773" data-name="Grupo 55773" transform="translate(117.502 20.771)">
                <rect id="Rectángulo_29631" data-name="Rectángulo 29631" width="27.299" height="6.828" rx="2.192" transform="translate(58.748 6.828) rotate(-180)" fill="#afd9ff"/>
                <rect id="Rectángulo_29632" data-name="Rectángulo 29632" width="27.299" height="6.828" rx="2.192" transform="translate(58.748 16.476) rotate(-180)" fill="#afd9ff"/>
                <rect id="Rectángulo_29633" data-name="Rectángulo 29633" width="27.299" height="6.828" rx="2.192" transform="translate(58.748 26.123) rotate(-180)" fill="#dcf1ff"/>
                <rect id="Rectángulo_29634" data-name="Rectángulo 29634" width="27.299" height="6.828" rx="2.192" transform="translate(27.299 16.476) rotate(-180)" fill="#fe7062"/>
                <rect id="Rectángulo_29635" data-name="Rectángulo 29635" width="27.299" height="6.828" rx="2.192" transform="translate(27.299 26.123) rotate(-180)" fill="#afd9ff"/>
              </g>
              <g id="Grupo_55774" data-name="Grupo 55774" transform="translate(0 33.832)">
                <rect id="Rectángulo_29636" data-name="Rectángulo 29636" width="27.299" height="6.828" rx="2.192" transform="translate(27.299 6.828) rotate(-180)" fill="#fe7062"/>
                <rect id="Rectángulo_29637" data-name="Rectángulo 29637" width="27.299" height="6.828" rx="2.192" transform="translate(27.299 16.476) rotate(-180)" fill="#afd9ff"/>
                <rect id="Rectángulo_29638" data-name="Rectángulo 29638" width="27.299" height="6.828" rx="2.192" transform="translate(27.299 26.123) rotate(-180)" fill="#dcf1ff"/>
              </g>
            </g>
          </g>
          <g id="Grupo_55786" data-name="Grupo 55786" transform="translate(39.711)">
            <g id="Grupo_55777" data-name="Grupo 55777" transform="translate(26.08 43.78)">
              <path id="Trazado_118083" data-name="Trazado 118083" d="M305.23,114.18c1.232,31.129,15.709,34.282,0,56.738s-69.812,14.5-70.732-2.5S245,141.173,237.519,119.9,305.23,114.18,305.23,114.18Z" transform="translate(-234.445 -108.694)" fill="#252384"/>
              <path id="Trazado_118084" data-name="Trazado 118084" d="M304.181,123.917c1.825,14.148,6.679,28.1,4.186,35.771,0,0-.273-8.628-1.889-10.707,0,0,1.613,12.111-3.328,21.935s-58.269,7.953-58.269,7.953-1.091-10.76,0-18.556,3.17-10.826,3.768-15c0,0-3.288,6.79-4.568,9.389a19.319,19.319,0,0,0-1.452,6.408s-.347-6.928,2.356-12.23,1.082-19.92.281-25.606,37.616-12.426,41.8-10.147S304.181,123.917,304.181,123.917Z" transform="translate(-237.426 -110.144)" fill="#0c0835"/>
            </g>
            <g id="Grupo_55778" data-name="Grupo 55778" transform="translate(0 72.418)">
              <path id="Trazado_118085" data-name="Trazado 118085" d="M273.83,190.246c18.537,6.279,31.833,8.643,35.674,20.757s9.226,25.89,9.226,25.89H193.383s6.205-28.549,13-33.277,33.389-12.649,41.515-14.007S273.83,190.246,273.83,190.246Z" transform="translate(-193.383 -166.683)" fill="#fdfcdb"/>
              <path id="Trazado_118086" data-name="Trazado 118086" d="M237.84,234.089s-.473,11.366,1.188,19.206h-4.25Z" transform="translate(-208.486 -183.084)" fill="#e2e1c5"/>
              <path id="Trazado_118087" data-name="Trazado 118087" d="M342.918,241.141s.363,8.715-.911,14.727h3.259Z" transform="translate(-247.61 -185.657)" fill="#e2e1c5"/>
              <path id="Trazado_118088" data-name="Trazado 118088" d="M362.959,212.766c-1.624-4.282-6.866-9.309-6.872-9.314,6.362,2.925,10.815,6.57,12.782,12.775,3.841,12.115,9.226,25.89,9.226,25.89H367.982C368.425,229.214,364.585,217.05,362.959,212.766Z" transform="translate(-252.747 -171.906)" fill="#e2e1c5"/>
              <path id="Trazado_118089" data-name="Trazado 118089" d="M272.012,211.333s9.012-.591,14.478-4.728,4.728-8.273,4.728-8.273a32.4,32.4,0,0,0,5.466,0c1.477-.3-.643-15.689-9.26-15.971s-26.664,3.293-28.88,3.413-9.526,6.671-7.682,14.972c.3,1.33,3.865-2.414,5.49-.494S259.307,210.3,272.012,211.333Z" transform="translate(-214.247 -164.205)" fill="#0058c6"/>
              <path id="Trazado_118090" data-name="Trazado 118090" d="M289.039,209.483a45.441,45.441,0,0,0,15.7-21.519c.771-2.255-.532-3.516-2.925-3.9Z" transform="translate(-228.284 -164.832)" fill="#0e35af"/>
              <path id="Trazado_118091" data-name="Trazado 118091" d="M274.982,213.514c-6.339-4.056-12.174-14.028-13.947-17.353s-1.844-6.453,3.584-7.031S274.982,213.514,274.982,213.514Z" transform="translate(-217.674 -166.677)" fill="#0e35af"/>
              <path id="Trazado_118092" data-name="Trazado 118092" d="M264.966,156.013c1.633,13.18,2.568,20.227-1.839,25.693,0,0,7.854,15.955,13.468,19.206,0,0,13.444-9.6,17.137-24.967a18.739,18.739,0,0,1-2.511-8.421,127.568,127.568,0,0,1,.443-13.739Z" transform="translate(-218.83 -153.784)" fill="#f7ccb1"/>
              <path id="Trazado_118093" data-name="Trazado 118093" d="M271.437,211.05c8.2,9.927,16.646,1.548,19.785-2.708a51.428,51.428,0,0,1-11.6,12.476C277.043,219.322,273.986,215.134,271.437,211.05Z" transform="translate(-221.862 -173.69)" fill="#f7bf9d"/>
              <path id="Trazado_118094" data-name="Trazado 118094" d="M292.278,167.635a19.08,19.08,0,0,0,2.382,8.207c-6.082-1.079-19.129-3.581-27.308-6.5-.129-3.613-.672-7.92-1.329-13.221l16.286-1.36,10.4-.676A123.782,123.782,0,0,0,292.278,167.635Z" transform="translate(-219.887 -153.895)" fill="#f7bf9d"/>
            </g>
            <g id="Grupo_55785" data-name="Grupo 55785" transform="translate(20.635)">
              <g id="Grupo_55779" data-name="Grupo 55779" transform="translate(0 13.306)">
                <path id="Trazado_118095" data-name="Trazado 118095" d="M232.461,88.475c-.523-8.312-.659-15.875,5.827-25.569s5.115,15.887,5.009,16.18-5.75,11.079-5.75,11.079Z" transform="translate(-228.194 -60.714)" fill="#ffa6a4"/>
                <path id="Trazado_118096" data-name="Trazado 118096" d="M233.8,120.415c.824,4.78.265,8.727-2.026,9.122s-4.817-3.16-5.641-7.941.366-8.975,2.658-9.37S232.976,115.635,233.8,120.415Z" transform="translate(-225.872 -79.499)" fill="#f97068"/>
                <path id="Trazado_118097" data-name="Trazado 118097" d="M229.669,129.788l1.443.587,1.414,3.918s.239.486.535,1.111a2.025,2.025,0,0,1-.938.44c-2.031.349-4.243-2.4-5.293-6.362C228.652,130.428,229.669,129.788,229.669,129.788Z" transform="translate(-226.221 -85.804)" fill="#cb3034"/>
                <path id="Trazado_118098" data-name="Trazado 118098" d="M237.228,101.948c-1.778-.33-6.821,1.007-7.393,3.612-1.3,5.923.861,19.663,4.829,23.055,1.446,1.237,5.472.984,6.9.546,3.627-1.113,3.638-6.912,2.313-14.6S239.7,102.4,237.228,101.948Z" transform="translate(-227.18 -75.74)" fill="#f97068"/>
                <path id="Trazado_118099" data-name="Trazado 118099" d="M231.3,129.964c1.846,1.331,2.8,0,2.8,0,1.251,2.661,3.55,2.658,6.454,3.052l1.628-.861s1.59,1.17,3.082,2.227c-.269,2.648-1.174,4.449-3.028,5.019-1.429.438-5.456.69-6.9-.546C233.6,137.369,232.206,133.9,231.3,129.964Z" transform="translate(-227.852 -85.981)" fill="#cb3034"/>
                <path id="Trazado_118100" data-name="Trazado 118100" d="M229.835,105.56c.572-2.6,5.615-3.942,7.393-3.612a2.65,2.65,0,0,1,.445.126c-3.259-.241-4.965,2.039-5.339,4.652s0,14.437,3.836,19.652a5.569,5.569,0,0,0,4.187,3.021c-1.81.238-4.553.191-5.693-.785C230.7,125.223,228.533,111.483,229.835,105.56Z" transform="translate(-227.18 -75.74)" fill="#ffa6a4"/>
                <path id="Trazado_118101" data-name="Trazado 118101" d="M231.3,129.964c1.846,1.331,2.8,0,2.8,0v0a18.912,18.912,0,0,0,2.739,6.652,5.569,5.569,0,0,0,4.187,3.021c-1.81.238-4.553.191-5.693-.785C233.6,137.369,232.206,133.9,231.3,129.964Z" transform="translate(-227.852 -85.981)" fill="#f97068"/>
                <path id="Trazado_118102" data-name="Trazado 118102" d="M241.048,118.983c.72,4.173,2.208,7.4,3.326,7.208s1.44-3.731.721-7.9-2.208-7.4-3.326-7.207S240.329,114.81,241.048,118.983Z" transform="translate(-231.269 -79.087)" fill="#cb3034"/>
              </g>
              <path id="Trazado_118103" data-name="Trazado 118103" d="M297.464,116.984q-.075.182-.154.364a42.046,42.046,0,0,1-8.3,11.819c-4.739,4.829-11.172,9.027-17.991,9.941-7.329.983-14.054-3.094-18.956-8.324a18.855,18.855,0,0,1-4.74-8.6c-.774-3.437-.354-7.121-.915-10.633a31.628,31.628,0,0,0-1.7-5.469,40.184,40.184,0,0,1-2.264-17.658c.279-2.471.683-6.013,2.02-8.156,1.538-2.463,5.094-4.4,7.494-5.9,7.693-4.814,17.892-6.576,26.635-3.855,8.936,2.782,16.223,9.946,19.988,18.418,1.792,4.032,2.833,8,1.963,12.347C299.459,106.685,299.623,111.765,297.464,116.984Z" transform="translate(-231.841 -50.513)" fill="#f7ccb1"/>
              <path id="Trazado_118104" data-name="Trazado 118104" d="M300.056,98.539s-13.887,3.817-26.149,0-16.423-11.5-17.445-15.487c0,0-10.016,7.853-12.019,19.439,0,0-.688-20.571,5.7-23.132s19.773-5.91,21.25-4.58,26.3,15.512,26.3,15.512Z" transform="translate(-232.639 -52.43)" fill="#f7bf9d"/>
              <g id="Grupo_55781" data-name="Grupo 55781" transform="translate(17.055 44.167)">
                <path id="Trazado_118105" data-name="Trazado 118105" d="M302.223,111.536a27.518,27.518,0,0,0-3.132-1.289,17.177,17.177,0,0,0-3.355-.769,9.387,9.387,0,0,0-3.5-.009,6.21,6.21,0,0,0-3.141,1.556l.055.152a15.878,15.878,0,0,0,1.713-.021l1.616-.088c1.055-.04,2.092-.3,3.173-.3a21.41,21.41,0,0,1,3.246.262c1.092.152,2.176.406,3.268.655Z" transform="translate(-265.995 -109.304)" fill="#0c0835"/>
                <path id="Trazado_118106" data-name="Trazado 118106" d="M252.805,111.953a12.537,12.537,0,0,1,3.2-.9,17.093,17.093,0,0,1,3.273-.164c1.094.05,2.146.346,3.223.41a31.418,31.418,0,0,0,3.38.144l.055-.152a7.726,7.726,0,0,0-3.162-1.586,10.152,10.152,0,0,0-3.521-.109,14.612,14.612,0,0,0-3.437.671,11.5,11.5,0,0,0-3.094,1.543Z" transform="translate(-252.724 -109.375)" fill="#0c0835"/>
                <ellipse id="Elipse_4181" data-name="Elipse 4181" cx="1.055" cy="2.157" rx="1.055" ry="2.157" transform="translate(28.418 6.291)" fill="#0c0835"/>
                <ellipse id="Elipse_4182" data-name="Elipse 4182" cx="1.014" cy="2.157" rx="1.014" ry="2.157" transform="translate(6.258 6.395)" fill="#0c0835"/>
                <path id="Trazado_118107" data-name="Trazado 118107" d="M276.579,138.939a4.036,4.036,0,0,0,1.566,2,2.748,2.748,0,0,0,2.474.261c1.282-.542,1.635-2.039-.11-1.7a6,6,0,0,1-2.023.116C278.129,139.566,276.733,139.338,276.579,138.939Z" transform="translate(-261.428 -120.117)" fill="#d6a78b"/>
                <g id="Grupo_55780" data-name="Grupo 55780" transform="translate(9.425 24.685)">
                  <path id="Trazado_118108" data-name="Trazado 118108" d="M286,148.17a160.366,160.366,0,0,1-18.436.655c1.415,4.692,4.9,9.289,9.664,9.12C282.121,157.772,284.964,153.062,286,148.17Z" transform="translate(-267.564 -148.17)" fill="#c31f2a"/>
                  <path id="Trazado_118109" data-name="Trazado 118109" d="M273.685,158.864c3.682-3.1,6.339-.448,6.339-.448a4.817,4.817,0,0,1,5.2-.154,7.977,7.977,0,0,1-4.252,2.818c-.534.072-1.087.146-1.644.216A7.883,7.883,0,0,1,273.685,158.864Z" transform="translate(-269.797 -151.523)" fill="#fb8384"/>
                  <path id="Trazado_118110" data-name="Trazado 118110" d="M285.69,148.371a11.387,11.387,0,0,1-.465,2.316,25.519,25.519,0,0,1-14.97.773,25.2,25.2,0,0,1-.407-2.52C273.814,149,281.427,148.791,285.69,148.371Z" transform="translate(-268.397 -148.243)" fill="#fff"/>
                </g>
              </g>
              <g id="Grupo_55782" data-name="Grupo 55782" transform="translate(7.753 65.597)">
                <path id="Trazado_118111" data-name="Trazado 118111" d="M246.808,155.429a4.876,4.876,0,0,0,1.047-.025c3.355-.455,5.154-.706,5.154-.706l-.206-1.471s-1.8.25-5.148.7c-3.09.422-7.053-4.489-8.1-10.261a.748.748,0,0,0-.833-.619h0a.739.739,0,0,0-.634.853C239.176,150,243.174,155.14,246.808,155.429Z" transform="translate(-238.079 -143.044)" fill="#ffa6a4"/>
                <path id="Trazado_118112" data-name="Trazado 118112" d="M238.265,143.448a.718.718,0,0,0,.01.16c1.086,6.093,5.084,11.236,8.719,11.526a4.909,4.909,0,0,0,1.047-.026c2.649-.359,4.322-.59,4.912-.672l.057.41s-1.8.251-5.154.706a4.875,4.875,0,0,1-1.047.025c-3.635-.29-7.632-5.433-8.718-11.525A.719.719,0,0,1,238.265,143.448Z" transform="translate(-238.079 -143.191)" fill="#f97068"/>
                <path id="Trazado_118113" data-name="Trazado 118113" d="M260.246,160.36l2.944-.4a1.857,1.857,0,0,0,1.588-2.091h0a1.857,1.857,0,0,0-2.091-1.588l-2.944.4a1.857,1.857,0,0,0-1.588,2.092h0A1.857,1.857,0,0,0,260.246,160.36Z" transform="translate(-245.397 -147.866)" fill="#252384"/>
                <path id="Trazado_118114" data-name="Trazado 118114" d="M258.584,157.932a1.871,1.871,0,0,0,.013.366h0a1.857,1.857,0,0,0,2.092,1.588l2.576-.353a1.849,1.849,0,0,0,1.48-1.193c.01.046.026.088.032.135h0a1.857,1.857,0,0,1-1.588,2.091l-2.944.4a1.857,1.857,0,0,1-2.092-1.588h0A1.845,1.845,0,0,1,258.584,157.932Z" transform="translate(-245.398 -148.476)" fill="#261b60"/>
              </g>
              <g id="Grupo_55783" data-name="Grupo 55783" transform="translate(4.658 0.139)">
                <path id="Trazado_118115" data-name="Trazado 118115" d="M255.189,68s-14.774,6.2-14.921,26.445c0,0-11.819-13-4.875-32.5s27.036-18.763,27.036-18.763Z" transform="translate(-233.206 -41.148)" fill="#252384"/>
                <path id="Trazado_118116" data-name="Trazado 118116" d="M259.257,80.347s-14.409,6.066-14.9,25.728c0-.114,0-.222,0-.338.241-19.838,7.119-25.108,13.915-28.721l1.618,1.159Z" transform="translate(-237.275 -53.495)" fill="#261b60"/>
                <path id="Trazado_118117" data-name="Trazado 118117" d="M307.718,84.859s-40.726,2.364-43.976-18.319,7.19-25.7,12.312-26.2,15.1-1.682,23.638,6.6,18.066,13.3,17.006,40.086Z" transform="translate(-244.123 -39.983)" fill="#252384"/>
                <path id="Trazado_118118" data-name="Trazado 118118" d="M323.231,93.543c-1.776-.988-3.549-2-5.263-3.12q-2.586-1.652-5.075-3.473a106.917,106.917,0,0,1-9.566-7.812,107.444,107.444,0,0,0,8.825,8.733q2.326,2.071,4.79,4c1.63,1.3,3.337,2.507,5.064,3.7Z" transform="translate(-258.791 -54.269)" fill="#0c0835"/>
                <path id="Trazado_118119" data-name="Trazado 118119" d="M298.214,53.707c9.65,5.22,20.262,17.774,20.467,28.173a8.61,8.61,0,0,0,1.935-9.218c-2.145-5.43-8.464-11.446-11.964-14.031S298.214,53.707,298.214,53.707Z" transform="translate(-256.925 -44.99)" fill="#0c0835"/>
                <path id="Trazado_118120" data-name="Trazado 118120" d="M313.714,80.412c1.292-3.35.406-14.785,0-18.035a30.533,30.533,0,0,0-1.736-6.334c-.13-.609.151-.793.151-.793-6.719-10.341-16.254-11.82-25.923-14.844l.556-.274c5.464-.433,13.948-.37,21.35,6.809,8.537,8.28,18.066,13.3,17.006,40.086l-8.979-2.167S302.211,85.665,290,82.2C303.579,84.868,312.421,83.761,313.714,80.412Z" transform="translate(-252.544 -39.983)" fill="#0c0835"/>
                <path id="Trazado_118121" data-name="Trazado 118121" d="M272.035,81.692c3.992,6.231,8.931,12.045,27.788,14.754,12.562,1.8,14.548-.773,14.548-.773s-21.926-1.461-30.783-5.956S272.035,81.692,272.035,81.692Z" transform="translate(-247.373 -55.201)" fill="#0c0835"/>
              </g>
              <g id="Grupo_55784" data-name="Grupo 55784" transform="translate(36.588)">
                <path id="Trazado_118122" data-name="Trazado 118122" d="M312.337,55.662c-2.441-7.14-14.676-15.2-28.858-15.4a29.433,29.433,0,0,1,15.758,1.379c8.47,3.152,14.567,8.292,17.92,14.093S312.337,55.662,312.337,55.662Z" transform="translate(-283.479 -39.764)" fill="#ffa6a4"/>
                <path id="Trazado_118123" data-name="Trazado 118123" d="M299.979,43.853a28.469,28.469,0,0,1,12.065,9.677c.391.049,3.929.708,3.984.718.4.582.784,1.17,1.129,1.767.121.209.222.4.314.577a11.87,11.87,0,0,0-3.166.041,2,2,0,0,1-1.08-.081c-.532-.352-.89-.608-.89-.608-2.441-7.14-14.676-15.2-28.858-15.4C288.253,40.482,292.223,40.751,299.979,43.853Z" transform="translate(-283.479 -40.046)" fill="#f97068"/>
                <path id="Trazado_118124" data-name="Trazado 118124" d="M330.095,89.368c.668-13.266-1.207-22.314-2.881-24.776s5.2-1.391,6.576.542c.894,1.253,3.916,11.8,2.807,24.327S330.095,89.368,330.095,89.368Z" transform="translate(-299.341 -48.301)" fill="#ffa6a4"/>
                <path id="Trazado_118125" data-name="Trazado 118125" d="M328.447,63.163c-.59.224-.762.519-.344,1.159a43.336,43.336,0,0,1,2.586,11.2c.443,4.95.222,10.144.32,10.736s4.43,1.681,5.736,1.088q-.056,1.045-.149,2.112c-.082.924-.187,1.709-.312,2.374-1.315.149-3.142.213-4.81.239a26.716,26.716,0,0,1-1.379-2.706c.668-13.265-1.207-22.314-2.881-24.776C326.537,63.6,327.258,63.18,328.447,63.163Z" transform="translate(-299.341 -48.302)" fill="#f97068"/>
                <path id="Trazado_118126" data-name="Trazado 118126" d="M330.553,103.327c1.735-.511,6.888.3,7.726,2.831,1.9,5.758,1.169,19.647-2.429,23.43-1.311,1.379-5.342,1.543-6.809,1.254-3.722-.734-4.33-6.5-3.8-14.289S328.146,104.035,330.553,103.327Z" transform="translate(-298.655 -62.903)" fill="#f97068"/>
                <path id="Trazado_118127" data-name="Trazado 118127" d="M336,136c-1.311,1.379-5.342,1.543-6.809,1.254-2.139-.422-3.246-2.512-3.7-5.686,1.79,1.536,6.367,1.044,8.68,0,0,0-.379-6.915.846-10.814a85.229,85.229,0,0,1,3.523,9.321C337.965,132.659,337.122,134.819,336,136Z" transform="translate(-298.806 -69.312)" fill="#cb3034"/>
                <path id="Trazado_118128" data-name="Trazado 118128" d="M334.645,117.8c-.47,6.956,1.172,12.732,3.669,12.9s4.9-5.334,5.372-12.29-1.172-12.732-3.669-12.9S335.115,110.849,334.645,117.8Z" transform="translate(-302.118 -63.753)" fill="#ffa6a4"/>
                <path id="Trazado_118129" data-name="Trazado 118129" d="M338.271,129.476s3.19.4,4.421,5.224c-1.03,2.972-2.465,4.849-3.935,4.75-1.27-.086-2.316-1.627-2.979-4.033a10.728,10.728,0,0,0,2.145-.67S337.642,133.622,338.271,129.476Z" transform="translate(-302.56 -72.497)" fill="#f97068"/>
                <path id="Trazado_118130" data-name="Trazado 118130" d="M339.771,120.777c-.353,5.21.589,9.369,2.91,9.525s4.487-3.939,4.838-9.149-1.243-9.561-3.563-9.718S340.123,115.567,339.771,120.777Z" transform="translate(-303.992 -65.913)" fill="#f97068"/>
                <path id="Trazado_118131" data-name="Trazado 118131" d="M343.263,135.084a3.721,3.721,0,0,0,3-1.682c-.92,2.2-2.225,3.577-3.585,3.485-1.995-.135-2.969-3.232-2.979-7.41C340.2,132.763,341.375,134.956,343.263,135.084Z" transform="translate(-303.993 -72.497)" fill="#cb3034"/>
              </g>
            </g>
          </g>
        </g>
        <g id="Grupo_55804" data-name="Grupo 55804" transform="translate(25.856 77.463)">
          <g id="Grupo_55803" data-name="Grupo 55803">
            <g id="Grupo_55802" data-name="Grupo 55802">
              <g id="Grupo_55801" data-name="Grupo 55801">
                <g id="Grupo_55799" data-name="Grupo 55799">
                  <path id="Trazado_118186" data-name="Trazado 118186" d="M74.584,108.245a1.159,1.159,0,0,0-.875-.722,9.416,9.416,0,0,0-1.576-.232,10.718,10.718,0,0,1-1.83-.3,5.479,5.479,0,0,1-1.257-.465,4.4,4.4,0,0,1-.98-.7,4.278,4.278,0,0,1-.732-.918,6.831,6.831,0,0,1-.531-1.122,5.618,5.618,0,0,1-.391-2.577,4.7,4.7,0,0,1,.718-2.072A5.864,5.864,0,0,1,68.6,97.6a7.6,7.6,0,0,1,1.842-1,6.876,6.876,0,0,1,2.421-.45,5.9,5.9,0,0,1,2.256.435A5.258,5.258,0,0,1,76.989,97.9l-2.264,3.327c-.2-.119-.423-.271-.676-.457a2.748,2.748,0,0,0-.88-.425,1.756,1.756,0,0,0-1.112.08,1.984,1.984,0,0,0-.695.43,1.486,1.486,0,0,0-.4.647,1.143,1.143,0,0,0,.029.744,1.564,1.564,0,0,0,.728.829,4.359,4.359,0,0,0,1.195.455,9.685,9.685,0,0,0,1.278.211q.614.058.949.1a4.078,4.078,0,0,1,1.742.567,3.142,3.142,0,0,1,1.007,1.039,8.451,8.451,0,0,1,.627,1.337Zm4.335,5.88h0a2.1,2.1,0,0,1-2.7-1.239l-.084-.228a2.1,2.1,0,0,1,1.239-2.7h0a2.1,2.1,0,0,1,2.7,1.239l.084.228A2.1,2.1,0,0,1,78.919,114.125Z" transform="translate(-66.385 -96.148)" fill="#fe7062"/>
                </g>
                <g id="Grupo_55800" data-name="Grupo 55800" transform="translate(12.585 1.626)">
                  <path id="Trazado_118187" data-name="Trazado 118187" d="M94.212,108.252a.846.846,0,0,0-.3-.77,6.889,6.889,0,0,0-.924-.7,7.775,7.775,0,0,1-1.063-.835,3.989,3.989,0,0,1-.638-.741,3.207,3.207,0,0,1-.379-.79,3.115,3.115,0,0,1-.142-.844,4.975,4.975,0,0,1,.057-.9,4.093,4.093,0,0,1,.661-1.783,3.422,3.422,0,0,1,1.191-1.068,4.272,4.272,0,0,1,1.482-.469,5.557,5.557,0,0,1,1.528.013,5.031,5.031,0,0,1,1.7.568A4.313,4.313,0,0,1,98.67,101a3.831,3.831,0,0,1,.733,1.5l-2.621,1.323c-.084-.147-.174-.323-.269-.531a2.007,2.007,0,0,0-.411-.582,1.279,1.279,0,0,0-.737-.342,1.451,1.451,0,0,0-.6.028,1.079,1.079,0,0,0-.481.273.831.831,0,0,0-.244.485,1.138,1.138,0,0,0,.172.786,3.154,3.154,0,0,0,.6.713,7.041,7.041,0,0,0,.741.586c.248.169.437.3.569.4a2.966,2.966,0,0,1,.911.977,2.286,2.286,0,0,1,.275,1.019,6.151,6.151,0,0,1-.072,1.074Zm.688,5.283h0a1.533,1.533,0,0,1-1.286-1.745l.027-.175a1.533,1.533,0,0,1,1.745-1.285h0a1.533,1.533,0,0,1,1.285,1.745l-.026.175A1.533,1.533,0,0,1,94.9,113.536Z" transform="translate(-90.761 -99.297)" fill="#fe7062"/>
                </g>
              </g>
            </g>
          </g>
        </g>
        <g id="Grupo_55822" data-name="Grupo 55822" transform="translate(0 15.396)">
          <g id="Grupo_55819" data-name="Grupo 55819" transform="translate(286.44 87.19)">
            <rect id="Rectángulo_29639" data-name="Rectángulo 29639" width="44.945" height="26.919" rx="6.849" transform="translate(44.945 26.919) rotate(-180)" fill="#a2d4f9"/>
            <path id="Trazado_118215" data-name="Trazado 118215" d="M495.781,204.211h40.1a2.425,2.425,0,0,0,2.425-2.424L515.829,186.87l-22.472,14.917A2.424,2.424,0,0,0,495.781,204.211Z" transform="translate(-493.357 -177.293)" fill="#b4dff9"/>
            <path id="Trazado_118216" data-name="Trazado 118216" d="M495.781,171.791h40.1a2.425,2.425,0,0,1,2.425,2.424l-22.472,14.916-22.472-14.916A2.424,2.424,0,0,1,495.781,171.791Z" transform="translate(-493.357 -171.791)" fill="#fafdff"/>
          </g>
          <g id="Grupo_55820" data-name="Grupo 55820" transform="translate(22.222)">
            <path id="Trazado_118217" data-name="Trazado 118217" d="M73.5,18.076h89.692a5.06,5.06,0,0,1,5.06,5.06V44.113a5.06,5.06,0,0,1-5.06,5.06h-9.009l3.071,7.578-10.209-7.578H73.5a5.059,5.059,0,0,1-5.059-5.06V23.136A5.059,5.059,0,0,1,73.5,18.076Z" transform="translate(-68.442 -18.076)" fill="#57dbd8"/>
            <path id="Trazado_118218" data-name="Trazado 118218" d="M83.868,33.518a1.182,1.182,0,0,1,1.182-1.182h68.357a1.182,1.182,0,0,1,0,2.364H85.05A1.182,1.182,0,0,1,83.868,33.518Zm1.182,6.491H162.9a1.182,1.182,0,0,0,0-2.364H85.05a1.182,1.182,0,0,0,0,2.364Zm34.179,5.309H162.9a1.182,1.182,0,0,0,0-2.364H119.229a1.182,1.182,0,1,0,0,2.364Z" transform="translate(-74.07 -23.279)" fill="#fff"/>
          </g>
          <g id="Grupo_55825" data-name="Grupo 55825" transform="translate(206.878 9.567)">
            <path id="Trazado_118217-2" data-name="Trazado 118217" d="M139.755,18.076H72.25a3.808,3.808,0,0,0-3.808,3.808V37.672A3.808,3.808,0,0,0,72.25,41.48h6.781l-2.311,5.7,7.683-5.7h55.353a3.808,3.808,0,0,0,3.807-3.808V21.884A3.808,3.808,0,0,0,139.755,18.076Z" transform="translate(-68.442 -18.076)" fill="#fe7062"/>
            <path id="Trazado_118218-2" data-name="Trazado 118218" d="M144.24,33.226a.89.89,0,0,0-.89-.89H91.9a.89.89,0,1,0,0,1.779H143.35A.89.89,0,0,0,144.24,33.226Zm-.89,4.885H84.757a.89.89,0,0,1,0-1.779H143.35a.89.89,0,1,1,0,1.779Zm-25.724,4H84.757a.89.89,0,0,1,0-1.779h32.869a.89.89,0,1,1,0,1.779Z" transform="translate(-76.493 -25.519)" fill="#fff"/>
          </g>
          <path id="Trazado_118219" data-name="Trazado 118219" d="M21.177,162.569a7.427,7.427,0,0,0,9.045,11.637l5.825,5.825L34.076,182a.654.654,0,0,0,0,.926l1.364,1.364a.655.655,0,0,0,.926,0l1.971-1.971,1.195,1.195-2.307,2.307a.655.655,0,0,0,0,.926l1.364,1.364a.655.655,0,0,0,.926,0l2.307-2.307.887.887a.655.655,0,0,0,.926,0l1.665-1.666a.655.655,0,0,0,0-.926L32.814,171.615a7.427,7.427,0,0,0-11.637-9.046ZM23.5,164.9a4.141,4.141,0,1,1,0,5.856A4.141,4.141,0,0,1,23.5,164.9Z" transform="translate(-19 -17.827)" fill="#1a0f91"/>
          <g id="Grupo_55821" data-name="Grupo 55821" transform="matrix(0.891, 0.454, -0.454, 0.891, 297.071, 137.093)">
            <path id="Trazado_118220" data-name="Trazado 118220" d="M14.452,20.54a1.977,1.977,0,0,1,.361-1.9,16.05,16.05,0,0,1,1.816-2.024,18.284,18.284,0,0,0,2.081-2.384,9.323,9.323,0,0,0,1.144-1.984,7.542,7.542,0,0,0,.528-1.984,7.294,7.294,0,0,0-.041-2A11.661,11.661,0,0,0,19.815,6.2a9.59,9.59,0,0,0-2.3-3.812,8.013,8.013,0,0,0-3.2-1.938A10.01,10.01,0,0,0,10.7.02a12.953,12.953,0,0,0-3.508.7A11.726,11.726,0,0,0,3.518,2.769,10.092,10.092,0,0,0,1.03,5.8,8.974,8.974,0,0,0,0,9.573l6.6,1.9c.128-.372.26-.817.388-1.338a4.7,4.7,0,0,1,.692-1.519A3,3,0,0,1,9.232,7.506a3.385,3.385,0,0,1,1.381-.194,2.524,2.524,0,0,1,1.225.418,1.955,1.955,0,0,1,.774,1.01,2.67,2.67,0,0,1-.053,1.883,7.441,7.441,0,0,1-1.072,1.9A16.611,16.611,0,0,1,10.038,14.2q-.744.747-1.133,1.173a6.956,6.956,0,0,0-1.67,2.645,5.366,5.366,0,0,0-.188,2.464,14.476,14.476,0,0,0,.634,2.44Zm.721,12.454h0a3.588,3.588,0,0,0,2.2-4.575l-.138-.391a3.588,3.588,0,0,0-4.575-2.2h0a3.588,3.588,0,0,0-2.2,4.575l.137.391A3.588,3.588,0,0,0,15.173,32.994Z" fill="#fe7062"/>
          </g>
        </g>
        <g id="Grupo_56922" data-name="Grupo 56922" transform="translate(14.705)">
          <g id="Grupo_56935" data-name="Grupo 56935" transform="translate(121.275 3.335)">
            <path id="Trazado_120448" data-name="Trazado 120448" d="M1534.1,67.734l7.215,5.541-5.379,7.01Z" transform="translate(-1506.552 -67.734)" fill="#00dad7"/>
            <path id="Trazado_120449" data-name="Trazado 120449" d="M1496.53,71.671l7.216,5.541-5.379,7.01Z" transform="translate(-1482.76 -70.227)" fill="#00dad7"/>
            <path id="Trazado_120450" data-name="Trazado 120450" d="M1458.974,77.72l7.215,5.541-5.38,7.01Z" transform="translate(-1458.974 -74.058)" fill="#00dad7"/>
          </g>
          <g id="Grupo_56936" data-name="Grupo 56936" transform="translate(44.608 189.584)">
            <path id="Trazado_120451" data-name="Trazado 120451" d="M1372.274,528.325l5.486,4.44-4.314,5.329Z" transform="translate(-1355.219 -528.325)" fill="#181492"/>
            <path id="Trazado_120452" data-name="Trazado 120452" d="M1331.534,532.625l5.486,4.44-4.314,5.329Z" transform="translate(-1323.006 -531.725)" fill="#181492"/>
            <path id="Trazado_120453" data-name="Trazado 120453" d="M1290.791,536.931l5.486,4.44-4.314,5.329Z" transform="translate(-1290.791 -535.13)" fill="#181492"/>
          </g>
          <g id="Grupo_56943" data-name="Grupo 56943" transform="translate(0 14.335)">
            <circle id="Elipse_4309" data-name="Elipse 4309" cx="2.492" cy="2.492" r="2.492" transform="translate(227.812 10.215)" fill="#00dad7" stroke="#581d80" stroke-linecap="round" stroke-miterlimit="10" stroke-width="2"/>
            <circle id="Elipse_4310" data-name="Elipse 4310" cx="2.492" cy="2.492" r="2.492" transform="translate(8.641 122.253)" fill="#00dad7" stroke="#581d80" stroke-linecap="round" stroke-miterlimit="10" stroke-width="2"/>
            <g id="Grupo_56938" data-name="Grupo 56938" transform="translate(0 44.707)">
              <line id="Línea_580" data-name="Línea 580" y2="4.84" transform="translate(8.679)" fill="none" stroke="#00dad7" stroke-linecap="round" stroke-miterlimit="10" stroke-width="2"/>
              <line id="Línea_581" data-name="Línea 581" x1="3.422" y2="3.423" transform="translate(11.356 2.558)" fill="none" stroke="#00dad7" stroke-linecap="round" stroke-miterlimit="10" stroke-width="2"/>
              <line id="Línea_582" data-name="Línea 582" x1="4.84" transform="translate(12.442 8.68)" fill="none" stroke="#00dad7" stroke-linecap="round" stroke-miterlimit="10" stroke-width="2"/>
              <line id="Línea_583" data-name="Línea 583" x1="3.423" y1="3.422" transform="translate(11.302 11.356)" fill="none" stroke="#00dad7" stroke-linecap="round" stroke-miterlimit="10" stroke-width="2"/>
              <line id="Línea_584" data-name="Línea 584" y1="4.84" transform="translate(8.602 12.443)" fill="none" stroke="#00dad7" stroke-linecap="round" stroke-miterlimit="10" stroke-width="2"/>
              <line id="Línea_585" data-name="Línea 585" y1="3.422" x2="3.422" transform="translate(2.504 11.302)" fill="none" stroke="#00dad7" stroke-linecap="round" stroke-miterlimit="10" stroke-width="2"/>
              <line id="Línea_586" data-name="Línea 586" x2="4.84" transform="translate(0 8.602)" fill="none" stroke="#00dad7" stroke-linecap="round" stroke-miterlimit="10" stroke-width="2"/>
              <line id="Línea_587" data-name="Línea 587" x2="3.422" y2="3.422" transform="translate(2.558 2.504)" fill="none" stroke="#00dad7" stroke-linecap="round" stroke-miterlimit="10" stroke-width="2"/>
            </g>
            <g id="Grupo_56939" data-name="Grupo 56939" transform="translate(163.373)">
              <line id="Línea_588" data-name="Línea 588" y2="2.768" transform="translate(4.962)" fill="none" stroke="#83b5f9" stroke-linecap="round" stroke-miterlimit="10" stroke-width="2"/>
              <line id="Línea_589" data-name="Línea 589" x1="1.956" y2="1.957" transform="translate(6.492 1.462)" fill="none" stroke="#83b5f9" stroke-linecap="round" stroke-miterlimit="10" stroke-width="2"/>
              <line id="Línea_590" data-name="Línea 590" x1="2.768" transform="translate(7.113 4.962)" fill="none" stroke="#83b5f9" stroke-linecap="round" stroke-miterlimit="10" stroke-width="2"/>
              <line id="Línea_591" data-name="Línea 591" x1="1.957" y1="1.956" transform="translate(6.461 6.492)" fill="none" stroke="#83b5f9" stroke-linecap="round" stroke-miterlimit="10" stroke-width="2"/>
              <line id="Línea_592" data-name="Línea 592" y1="2.767" transform="translate(4.918 7.113)" fill="none" stroke="#83b5f9" stroke-linecap="round" stroke-miterlimit="10" stroke-width="2"/>
              <line id="Línea_593" data-name="Línea 593" y1="1.956" x2="1.956" transform="translate(1.431 6.461)" fill="none" stroke="#83b5f9" stroke-linecap="round" stroke-miterlimit="10" stroke-width="2"/>
              <line id="Línea_594" data-name="Línea 594" x2="2.767" transform="translate(0 4.918)" fill="none" stroke="#83b5f9" stroke-linecap="round" stroke-miterlimit="10" stroke-width="2"/>
              <line id="Línea_595" data-name="Línea 595" x2="1.956" y2="1.956" transform="translate(1.462 1.431)" fill="none" stroke="#83b5f9" stroke-linecap="round" stroke-miterlimit="10" stroke-width="2"/>
            </g>
            <g id="Grupo_56940" data-name="Grupo 56940" transform="translate(278.214 184.115)">
              <line id="Línea_596" data-name="Línea 596" y2="2.768" transform="translate(4.962)" fill="none" stroke="#00dad7" stroke-linecap="round" stroke-miterlimit="10" stroke-width="2"/>
              <line id="Línea_597" data-name="Línea 597" x1="1.956" y2="1.957" transform="translate(6.492 1.462)" fill="none" stroke="#00dad7" stroke-linecap="round" stroke-miterlimit="10" stroke-width="2"/>
              <line id="Línea_598" data-name="Línea 598" x1="2.768" transform="translate(7.113 4.962)" fill="none" stroke="#00dad7" stroke-linecap="round" stroke-miterlimit="10" stroke-width="2"/>
              <line id="Línea_599" data-name="Línea 599" x1="1.957" y1="1.956" transform="translate(6.461 6.492)" fill="none" stroke="#00dad7" stroke-linecap="round" stroke-miterlimit="10" stroke-width="2"/>
              <line id="Línea_600" data-name="Línea 600" y1="2.767" transform="translate(4.918 7.113)" fill="none" stroke="#00dad7" stroke-linecap="round" stroke-miterlimit="10" stroke-width="2"/>
              <line id="Línea_601" data-name="Línea 601" y1="1.956" x2="1.956" transform="translate(1.431 6.461)" fill="none" stroke="#00dad7" stroke-linecap="round" stroke-miterlimit="10" stroke-width="2"/>
              <line id="Línea_602" data-name="Línea 602" x2="2.767" transform="translate(0 4.918)" fill="none" stroke="#00dad7" stroke-linecap="round" stroke-miterlimit="10" stroke-width="2"/>
              <line id="Línea_603" data-name="Línea 603" x2="1.956" y2="1.956" transform="translate(1.462 1.431)" fill="none" stroke="#00dad7" stroke-linecap="round" stroke-miterlimit="10" stroke-width="2"/>
            </g>
            <g id="Grupo_56941" data-name="Grupo 56941" transform="translate(17.282 148.048)">
              <line id="Línea_604" data-name="Línea 604" y2="2.768" transform="translate(4.962)" fill="none" stroke="#00dad7" stroke-linecap="round" stroke-miterlimit="10" stroke-width="2"/>
              <line id="Línea_605" data-name="Línea 605" x1="1.956" y2="1.957" transform="translate(6.492 1.462)" fill="none" stroke="#00dad7" stroke-linecap="round" stroke-miterlimit="10" stroke-width="2"/>
              <line id="Línea_606" data-name="Línea 606" x1="2.768" transform="translate(7.113 4.962)" fill="none" stroke="#00dad7" stroke-linecap="round" stroke-miterlimit="10" stroke-width="2"/>
              <line id="Línea_607" data-name="Línea 607" x1="1.957" y1="1.956" transform="translate(6.461 6.492)" fill="none" stroke="#00dad7" stroke-linecap="round" stroke-miterlimit="10" stroke-width="2"/>
              <line id="Línea_608" data-name="Línea 608" y1="2.767" transform="translate(4.918 7.113)" fill="none" stroke="#00dad7" stroke-linecap="round" stroke-miterlimit="10" stroke-width="2"/>
              <line id="Línea_609" data-name="Línea 609" y1="1.956" x2="1.956" transform="translate(1.431 6.461)" fill="none" stroke="#00dad7" stroke-linecap="round" stroke-miterlimit="10" stroke-width="2"/>
              <line id="Línea_610" data-name="Línea 610" x2="2.767" transform="translate(0 4.918)" fill="none" stroke="#00dad7" stroke-linecap="round" stroke-miterlimit="10" stroke-width="2"/>
              <line id="Línea_611" data-name="Línea 611" x2="1.956" y2="1.956" transform="translate(1.462 1.431)" fill="none" stroke="#00dad7" stroke-linecap="round" stroke-miterlimit="10" stroke-width="2"/>
            </g>
            <g id="Grupo_56942" data-name="Grupo 56942" transform="translate(288.094 122.299)">
              <line id="Línea_612" data-name="Línea 612" y2="2.768" transform="translate(4.962)" fill="none" stroke="#00dad7" stroke-linecap="round" stroke-miterlimit="10" stroke-width="2"/>
              <line id="Línea_613" data-name="Línea 613" x1="1.956" y2="1.957" transform="translate(6.492 1.462)" fill="none" stroke="#00dad7" stroke-linecap="round" stroke-miterlimit="10" stroke-width="2"/>
              <line id="Línea_614" data-name="Línea 614" x1="2.768" transform="translate(7.113 4.962)" fill="none" stroke="#00dad7" stroke-linecap="round" stroke-miterlimit="10" stroke-width="2"/>
              <line id="Línea_615" data-name="Línea 615" x1="1.957" y1="1.956" transform="translate(6.461 6.492)" fill="none" stroke="#00dad7" stroke-linecap="round" stroke-miterlimit="10" stroke-width="2"/>
              <line id="Línea_616" data-name="Línea 616" y1="2.767" transform="translate(4.918 7.113)" fill="none" stroke="#00dad7" stroke-linecap="round" stroke-miterlimit="10" stroke-width="2"/>
              <line id="Línea_617" data-name="Línea 617" y1="1.956" x2="1.956" transform="translate(1.431 6.461)" fill="none" stroke="#00dad7" stroke-linecap="round" stroke-miterlimit="10" stroke-width="2"/>
              <line id="Línea_618" data-name="Línea 618" x2="2.767" transform="translate(0 4.918)" fill="none" stroke="#00dad7" stroke-linecap="round" stroke-miterlimit="10" stroke-width="2"/>
              <line id="Línea_619" data-name="Línea 619" x2="1.956" y2="1.956" transform="translate(1.462 1.431)" fill="none" stroke="#00dad7" stroke-linecap="round" stroke-miterlimit="10" stroke-width="2"/>
            </g>
          </g>
          <g id="Grupo_56944" data-name="Grupo 56944" transform="translate(32.007)">
            <path id="Trazado_120454" data-name="Trazado 120454" d="M1499.345,35" transform="translate(-1410.275 -34.998)" fill="none" stroke="#fff" stroke-linecap="round" stroke-miterlimit="10" stroke-width="1"/>
            <path id="Trazado_120455" data-name="Trazado 120455" d="M1589.546,88.414" transform="translate(-1467.402 -68.828)" fill="none" stroke="#fff" stroke-linecap="round" stroke-miterlimit="10" stroke-width="1"/>
            <path id="Trazado_120456" data-name="Trazado 120456" d="M1408.9,129.205" transform="translate(-1352.994 -94.663)" fill="none" stroke="#fff" stroke-linecap="round" stroke-miterlimit="10" stroke-width="1"/>
            <path id="Trazado_120457" data-name="Trazado 120457" d="M1882.365,142.316" transform="translate(-1652.855 -102.966)" fill="none" stroke="#fff" stroke-linecap="round" stroke-miterlimit="10" stroke-width="1"/>
            <path id="Trazado_120458" data-name="Trazado 120458" d="M1259.825,194.275" transform="translate(-1258.578 -135.874)" fill="none" stroke="#fff" stroke-linecap="round" stroke-miterlimit="10" stroke-width="1"/>
            <path id="Trazado_120459" data-name="Trazado 120459" d="M1894.5,322.476" transform="translate(-1660.542 -217.068)" fill="none" stroke="#fff" stroke-linecap="round" stroke-miterlimit="10" stroke-width="1"/>
            <path id="Trazado_120460" data-name="Trazado 120460" d="M1864.154,515.014" transform="translate(-1641.321 -339.009)" fill="none" stroke="#fff" stroke-linecap="round" stroke-miterlimit="10" stroke-width="1"/>
            <path id="Trazado_120461" data-name="Trazado 120461" d="M1777.474,582.271" transform="translate(-1586.424 -381.606)" fill="none" stroke="#fff" stroke-linecap="round" stroke-miterlimit="10" stroke-width="1"/>
            <path id="Trazado_120462" data-name="Trazado 120462" d="M1410.844,575.96" transform="translate(-1354.224 -377.609)" fill="none" stroke="#fff" stroke-linecap="round" stroke-miterlimit="10" stroke-width="1"/>
            <path id="Trazado_120463" data-name="Trazado 120463" d="M1256.424,523.515" transform="translate(-1256.424 -344.393)" fill="none" stroke="#fff" stroke-linecap="round" stroke-miterlimit="10" stroke-width="1"/>
            <path id="Trazado_120464" data-name="Trazado 120464" d="M1256.91,360.836" transform="translate(-1256.732 -241.363)" fill="none" stroke="#fff" stroke-linecap="round" stroke-miterlimit="10" stroke-width="1"/>
            <path id="Trazado_120465" data-name="Trazado 120465" d="M1728.064,41.068" transform="translate(-1555.131 -38.842)" fill="none" stroke="#fff" stroke-linecap="round" stroke-miterlimit="10" stroke-width="1"/>
            <path id="Trazado_120466" data-name="Trazado 120466" d="M1843.031,444.6" transform="translate(-1627.943 -294.416)" fill="none" stroke="#fff" stroke-linecap="round" stroke-miterlimit="10" stroke-width="1"/>
            <path id="Trazado_120467" data-name="Trazado 120467" d="M1322.951,487.58" transform="translate(-1298.558 -321.634)" fill="none" stroke="#fff" stroke-linecap="round" stroke-miterlimit="10" stroke-width="1"/>
            <path id="Trazado_120468" data-name="Trazado 120468" d="M1568.18,547.794" transform="translate(-1453.87 -359.77)" fill="none" stroke="#fff" stroke-linecap="round" stroke-miterlimit="10" stroke-width="1"/>
            <path id="Trazado_120469" data-name="Trazado 120469" d="M1785.486,113.909" transform="translate(-1591.498 -84.975)" fill="none" stroke="#fff" stroke-linecap="round" stroke-miterlimit="10" stroke-width="0.5"/>
            <path id="Trazado_120470" data-name="Trazado 120470" d="M1885.277,227.539" transform="translate(-1654.699 -156.941)" fill="none" stroke="#fff" stroke-linecap="round" stroke-miterlimit="10" stroke-width="0.5"/>
            <path id="Trazado_120471" data-name="Trazado 120471" d="M1326.35,73.361" transform="translate(-1300.711 -59.295)" fill="none" stroke="#fff" stroke-linecap="round" stroke-miterlimit="10" stroke-width="1"/>
          </g>
        </g>
      </g>
    </g>
  </g>
</svg>
