<svg xmlns="http://www.w3.org/2000/svg" width="45.73" height="61.832" viewBox="0 0 45.73 61.832">
  <g id="Grupo_57248" data-name="Grupo 57248" transform="translate(-203.361 -7025.897)">
    <rect id="Line" width="15.977" height="2.425" transform="translate(204.226 7025.897)" fill="#12263f"/>
    <g id="Grupo_56879" data-name="Grupo 56879" transform="translate(197.82 7035.253)">
      <path id="Trazado_104927" data-name="Trazado 104927" d="M28.406,6.747A22.865,22.865,0,1,0,51.271,29.612,22.891,22.891,0,0,0,28.406,6.747Zm0,44.678A21.814,21.814,0,1,1,50.22,29.612,21.838,21.838,0,0,1,28.406,51.425Z" transform="translate(0)" fill="#12263f"/>
      <path id="Trazado_120348" data-name="Trazado 120348" d="M46.162,27.455l-9.7-9.7a1.246,1.246,0,0,0-1.763,0l-4.409,4.409a1.246,1.246,0,0,0,0,1.763l1.251,1.251-1.816,1.815a4.989,4.989,0,0,0-5.5-.295l-1.881-1.882.89-.89a1.246,1.246,0,0,0,0-1.763l-4.409-4.409a1.246,1.246,0,0,0-1.763,0l-9.7,9.7a1.247,1.247,0,0,0,0,1.763l4.409,4.409a1.247,1.247,0,0,0,1.763,0l.89-.891,2.005,2.006c-.532,2.033,1.421,4.948,3.724,7.251a17.257,17.257,0,0,0,4.087,3.121,5.416,5.416,0,0,0,2.435.7,2.506,2.506,0,0,0,1.84-.729l1.763-1.763h0l3.337-3.337c.066,0,.132.019.2.019a3.715,3.715,0,0,0,3.019-5.9l1.814-1.813,1.34,1.34a1.247,1.247,0,0,0,1.763,0l4.409-4.409A1.247,1.247,0,0,0,46.162,27.455Zm-38.081.694,9.677-9.677,4.466,4.466-9.677,9.677Zm28.076,9.807a1.4,1.4,0,0,1-1.963.036l-.036-.036-.007.007s-.008,0-.011-.007l-3-3.062a1.38,1.38,0,0,0-1.98,0,1.451,1.451,0,0,0,0,2.021l3,3.061.01.009-2.018,2.062-3.008-3.071a1.38,1.38,0,0,0-1.98,0,1.45,1.45,0,0,0,0,2.021l3.008,3.071-.01.01h0l-.982,1c-.42.191-2.608-.571-5.533-3.557s-3.668-5.222-3.5-5.633a1.45,1.45,0,0,0,0-2.021l-3-3.062,5.016-5.121,3,3.06c.006.006.012.007.017.012l-.341.348a2.177,2.177,0,0,0,0,3.032,2.069,2.069,0,0,0,2.969,0l2.826-2.887a2.1,2.1,0,0,0,.4-.611c.041.037.087.065.127.1l6.994,7.143a1.48,1.48,0,0,1,0,2.061Zm4.636-5.342L31.13,23.3l4.606-4.6,9.543,9.435Z" transform="translate(2.18 -0.253)" fill="#12263f"/>
    </g>
  </g>
</svg>
