<svg id="Grupo_56965" data-name="Grupo 56965" xmlns="http://www.w3.org/2000/svg" xmlns:xlink="http://www.w3.org/1999/xlink" width="365" height="236" viewBox="0 0 365 236">
  <defs>
    <linearGradient id="linear-gradient" x1="-0.086" y1="1.014" x2="0.665" y2="0.363" gradientUnits="objectBoundingBox">
      <stop offset="0" stop-color="#dae3fe"/>
      <stop offset="1" stop-color="#e9effd"/>
    </linearGradient>
    <linearGradient id="linear-gradient-2" x1="-2.019" y1="-0.038" x2="-1.074" y2="-1.186" gradientUnits="objectBoundingBox">
      <stop offset="0" stop-color="#4f52ff"/>
      <stop offset="1" stop-color="#4042e2"/>
    </linearGradient>
    <linearGradient id="linear-gradient-3" x1="0.83" y1="1.057" x2="2.001" y2="1.743" xlink:href="#linear-gradient-2"/>
    <linearGradient id="linear-gradient-4" x1="0.441" y1="0.94" x2="2.699" y2="1.727" xlink:href="#linear-gradient-2"/>
    <linearGradient id="linear-gradient-5" x1="-2.002" y1="-0.037" x2="0.373" y2="0.48" gradientUnits="objectBoundingBox">
      <stop offset="0" stop-color="#09005d"/>
      <stop offset="1" stop-color="#1a0f91"/>
    </linearGradient>
    <linearGradient id="linear-gradient-6" x1="-2.933" y1="-0.554" x2="1.914" y2="1.831" gradientUnits="objectBoundingBox">
      <stop offset="0" stop-color="#febbba"/>
      <stop offset="1" stop-color="#ff928e"/>
    </linearGradient>
    <linearGradient id="linear-gradient-7" x1="0.054" y1="-0.73" x2="1.211" y2="2.452" xlink:href="#linear-gradient-2"/>
    <linearGradient id="linear-gradient-8" x1="-0.638" y1="-2.591" x2="1.869" y2="4.221" xlink:href="#linear-gradient-2"/>
    <linearGradient id="linear-gradient-9" x1="-1.927" y1="0.63" x2="4.166" y2="1.792" xlink:href="#linear-gradient-2"/>
    <linearGradient id="linear-gradient-10" x1="-0.492" y1="-0.373" x2="0.534" y2="0.555" xlink:href="#linear-gradient-2"/>
    <linearGradient id="linear-gradient-11" x1="0.327" y1="0.544" x2="3.503" y2="-2.074" xlink:href="#linear-gradient-2"/>
  </defs>
  <g id="Grupo_56967" data-name="Grupo 56967" transform="translate(0 5)">
    <rect id="Rectángulo_5163" data-name="Rectángulo 5163" width="365" height="227" transform="translate(0 0.306)" fill="none"/>
  </g>
  <g id="Grupo_56968" data-name="Grupo 56968" transform="translate(7.483)">
    <g id="Grupo_56966" data-name="Grupo 56966" transform="translate(39)">
      <g id="Grupo_56102" data-name="Grupo 56102" transform="translate(13.592 23.482)">
        <path id="Trazado_119396" data-name="Trazado 119396" d="M521.39,601.156c22.308,47.058,81.732,73.42,133.264,66.309,8.385-1.157,31.374-4.6,51.727-20.865,39.181-31.3,47.561-93.289,15.954-136.972-23-31.793-64.241-49.816-103.424-48.914-8.44.194-40.786,1.391-69.212,22.39a100.108,100.108,0,0,0-21.684,22.041C508.527,532.448,506.852,570.488,521.39,601.156Z" transform="translate(-511.267 -460.681)" fill="url(#linear-gradient)"/>
        <g id="Grupo_56056" data-name="Grupo 56056" transform="translate(94.145 40.647)">
          <g id="Grupo_56051" data-name="Grupo 56051" transform="translate(0 0)">
            <path id="Trazado_119397" data-name="Trazado 119397" d="M1207.281,2362.05c16.231-3.579,4-27.657,3.427-28.589l29.087,10.214s2.6,14-15.5,26.879a26.016,26.016,0,0,1-13.581,4.951A22.907,22.907,0,0,0,1207.281,2362.05Z" transform="translate(-1160.606 -2239.517)" fill="url(#linear-gradient-2)"/>
            <path id="Trazado_119398" data-name="Trazado 119398" d="M1569.047,2651.015c4.769-5.828,12.682-3.609,12.682-3.609,9.43,2.937,15.942,3.474,20.355,2.5a22.907,22.907,0,0,1,3.43,13.455c-9.452.62-17.658-4.012-21.368-6.532a2.99,2.99,0,0,0-4.1.7c-.96,1.33-1.781,3.011-1.162,4.358,1.221,2.656-1.752,4.457-2.282,3.519s-.884-7.3-.884-7.3-4.6,8.32-6.411,11.528-5.683,1.617-5.683,1.617S1564.278,2656.843,1569.047,2651.015Z" transform="translate(-1555.41 -2527.374)" fill="#ffbe9d"/>
            <path id="Trazado_119399" data-name="Trazado 119399" d="M823.192,1874.046s-20.423-16.089-73.988,6.8c0,0-5.793,6.39-3.819,14.177s29.87,51.114,29.735,70.546c0,0,20.155,13.806,48.262,3.42C823.382,1968.985,836.034,1918.519,823.192,1874.046Z" transform="translate(-711.775 -1812.676)" fill="url(#linear-gradient-3)"/>
            <path id="Trazado_119400" data-name="Trazado 119400" d="M1267.314,1670.005l7.329,17.174a4.729,4.729,0,0,1-.838,5.053c-2.532,2.761-7.669,6.354-15.8,3.253a7.293,7.293,0,0,1-4.6-5.617l-3.118-18.822Z" transform="translate(-1199.232 -1630.388)" fill="#f5b797"/>
            <path id="Trazado_119401" data-name="Trazado 119401" d="M463.839,2000.109c5.911-10.155-14.127-42.577-14.127-42.577l13.629-21.879s47.263,56.448,23.013,83.508a23.889,23.889,0,0,1-11.189,7.339C474.184,2012.364,468.361,2004.3,463.839,2000.109Z" transform="translate(-351.924 -1874.283)" fill="url(#linear-gradient-4)"/>
            <path id="Trazado_119402" data-name="Trazado 119402" d="M794.2,2230.549a.67.67,0,0,0,.768-.306c6.045-10.382-13.31-41.928-14.136-43.266a.671.671,0,0,0-1.141.705c.2.32,19.761,32.194,14.118,41.886a.671.671,0,0,0,.242.917A.68.68,0,0,0,794.2,2230.549Z" transform="translate(-681.796 -2104.736)" fill="url(#linear-gradient-5)"/>
            <path id="Trazado_119403" data-name="Trazado 119403" d="M691.51,2698.734c3.626,1.006,7,2.809,10.644,3.736,4.046,1.03,8.045,2.24,12.12,3.157,6.338,1.427,14.678,3.063,20.244-1.293.469-.367,4.244-4.635,4.51-4.481,10.107,5.839,12.073,19.485,12.073,26.1-18.427,10.076-47.408-9.545-55.214-15.279a6.108,6.108,0,0,0-4.453-1.135c-3.192.438-8.695,1.026-11.6.374-4.245-.954-11.441,13.758-18.075,8.615C661.761,2718.532,669.512,2692.635,691.51,2698.734Z" transform="translate(-627.112 -2574.026)" fill="#ffbe9d"/>
            <g id="Grupo_56050" data-name="Grupo 56050" transform="translate(35.497)">
              <path id="Trazado_119404" data-name="Trazado 119404" d="M1318.594,1373.562s-4.628,14.988-4.209,22.537-.655,12.6,8.188,13.141,15.669-4.593,18.794-12.508c0,0,4.919-12.207,3-16.768S1318.594,1373.562,1318.594,1373.562Z" transform="translate(-1309.758 -1358.218)" fill="#ffbe9d"/>
              <path id="Trazado_119405" data-name="Trazado 119405" d="M1208.019,1219.648l-1.1.122s3.485-9.772-.667-10.957-20.236-2.638-24.251-7.84c-3.871-5.015-1.729-12.289,2.419-14.721a.588.588,0,0,1,.774.191l.438.644a.593.593,0,0,0,1.074-.233h0a.59.59,0,0,1,1.038-.279c1.225,1.553,4.34,3.953,12.038,4.5,10.924.782,18.483,4.324,19.482,11.7a.593.593,0,0,0,.966.381c.736-.57,1.976-.937,3.824.3,3.215,2.143,2.727,8.688-3.127,14.68a.59.59,0,0,0,.133.941c1.253.63,3.2,2.245-1.047,5.16-4.34,2.982-7.1,3.017-8.161,2.868a.593.593,0,0,1-.514-.56l-.326-6.6a.593.593,0,0,0-.658-.56Z" transform="translate(-1179.973 -1186.178)" fill="#1a0f91"/>
              <path id="Trazado_119406" data-name="Trazado 119406" d="M1311.185,1526.849s1.355-9.4,5.735-7.292-.983,10.468-4.236,11.176Z" transform="translate(-1283.256 -1491.977)" fill="url(#linear-gradient-6)"/>
              <g id="Grupo_56104" data-name="Grupo 56104" transform="matrix(-0.978, -0.208, 0.208, -0.978, 20.727, 46.188)">
                <path id="Trazado_118772" data-name="Trazado 118772" d="M2.412,1.228A1.214,1.214,0,0,0,1.243,0,1.16,1.16,0,0,0,0,1.075V1.09a1.207,1.207,0,0,0,1.16,1.225,1.159,1.159,0,0,0,1.251-1.06V1.228Z" transform="translate(15.632 12.091)" fill="#263238"/>
                <path id="Trazado_118773" data-name="Trazado 118773" d="M4.793.024C4.646-.133,3.734.539,2.436.53S.179-.124.041.033s.083.35.5.654a3.3,3.3,0,0,0,1.916.6A3.071,3.071,0,0,0,4.3.678C4.71.371,4.867.085,4.793.024Z" transform="translate(13.334 15.629)" fill="#263238"/>
                <path id="Trazado_118774" data-name="Trazado 118774" d="M2.411,1.229A1.206,1.206,0,0,0,1.251,0,1.163,1.163,0,0,0,0,1.066V1.09A1.216,1.216,0,0,0,1.17,2.315,1.15,1.15,0,0,0,2.411,1.263h0Z" transform="translate(2.647 11.704)" fill="#263238"/>
                <path id="Trazado_118775" data-name="Trazado 118775" d="M4.8.024C4.655-.133,3.734.539,2.436.53S.179-.124.041.033.124.392.538.7a3.325,3.325,0,0,0,1.916.589,3.177,3.177,0,0,0,1.888-.6C4.738.383,4.876.1,4.8.024Z" transform="translate(0.551 14.742)" fill="#263238"/>
                <path id="Trazado_118776" data-name="Trazado 118776" d="M.626.082A8.263,8.263,0,0,0,2.735.468c.332,0,.645.1.7.332a1.759,1.759,0,0,1-.221.985L2.219,4.309A45.561,45.561,0,0,0,0,10.912,42.967,42.967,0,0,0,2.763,4.465c.322-.921.645-1.731.921-2.542a1.839,1.839,0,0,0,.175-1.3A.82.82,0,0,0,3.315.137,2.222,2.222,0,0,0,2.754.054,8.479,8.479,0,0,0,.626.082Z" transform="translate(9.47 5.051)" fill="#263238"/>
                <path id="Trazado_118778" data-name="Trazado 118778" d="M3.879,2a2.337,2.337,0,0,1-2.109.866A2.155,2.155,0,0,1,.3,2.065,1.355,1.355,0,0,1,.2.518,1.587,1.587,0,0,1,1.908.095a4.943,4.943,0,0,1,1.658.995,1.472,1.472,0,0,1,.368.387.45.45,0,0,1,0,.479" transform="translate(5.674)" fill="#eb996e"/>
                <path id="Trazado_118779" data-name="Trazado 118779" d="M5.934.778C5.8.428,4.506.594,2.986.4S.224-.2.021.115C-.071.262.141.6.638.944a5.164,5.164,0,0,0,4.513.516C5.7,1.232,5.989.956,5.934.778Z" transform="translate(0 16.262)" fill="#263238"/>
                <path id="Trazado_118780" data-name="Trazado 118780" d="M4.434.131c-.23-.295-1.124,0-2.2,0S.244-.072.032.241C-.06.389.032.684.483.96a2.926,2.926,0,0,0,1.787.488A3.026,3.026,0,0,0,4.029.859C4.407.576,4.536.278,4.434.131Z" transform="translate(13.214 18.668)" fill="#263238"/>
                <path id="Trazado_118786" data-name="Trazado 118786" d="M0,2.91A5.912,5.912,0,0,1,2.358,1,6.46,6.46,0,0,1,5.222,0,18.935,18.935,0,0,1,2.588,1.427,26.057,26.057,0,0,1,0,2.91Z" transform="translate(5.068 0.242)" fill="#263238"/>
              </g>
            </g>
            <path id="Trazado_119407" data-name="Trazado 119407" d="M1264.257,2973.07c-.057,0-.114,0-.171,0l-74.365-1.151a3.165,3.165,0,1,1,.131-6.319l74.365,1.15a3.227,3.227,0,0,1,3.263,3.211A3.26,3.26,0,0,1,1264.257,2973.07Z" transform="translate(-1186.458 -2819.894)" fill="#1a0f91"/>
          </g>
          <g id="Grupo_56055" data-name="Grupo 56055" transform="translate(43.452 3.476)">
            <g id="Grupo_56053" data-name="Grupo 56053" transform="translate(0 29.083)">
              <g id="Grupo_56052" data-name="Grupo 56052" transform="translate(5.401)">
                <path id="Trazado_119408" data-name="Trazado 119408" d="M1284.207,1595.548c13.249,1.124,24.089-9.251,24.166-9.407V1583.8c-.073.149-11.5,11.679-24.09,10.611Z" transform="translate(-1284.207 -1583.803)" fill="url(#linear-gradient-7)"/>
              </g>
              <path id="Trazado_119409" data-name="Trazado 119409" d="M1564.263,1702.318a1.517,1.517,0,0,0,1.422,1.6h3.791a1.517,1.517,0,0,0,1.422-1.6h0a1.517,1.517,0,0,0-1.422-1.6h-3.791a1.517,1.517,0,0,0-1.422,1.6Z" transform="translate(-1564.263 -1691.147)" fill="url(#linear-gradient-8)"/>
            </g>
            <g id="Grupo_56054" data-name="Grupo 56054" transform="translate(6.942)">
              <path id="Trazado_119410" data-name="Trazado 119410" d="M1327.905,1245.945s3.026-16.145-15.638-16.235a.218.218,0,0,1-.049-.43c5.113-1.178,19.953-2.923,20.177,16.451C1329.551,1246.756,1327.905,1245.945,1327.905,1245.945Z" transform="translate(-1312.049 -1228.628)" fill="url(#linear-gradient-9)"/>
              <path id="Trazado_119411" data-name="Trazado 119411" d="M1252.932,1414.814c7.283,1.478,6.388,10.689,6.388,10.689.525,6.684-1.426,10-3.926,11.577a5.755,5.755,0,0,1-8.807-4.445c-.135-1.819-.289-3.548-.424-4.162C1245.836,1426.984,1245.648,1413.335,1252.932,1414.814Z" transform="translate(-1233.656 -1399.465)" fill="url(#linear-gradient-10)"/>
            </g>
            <path id="Trazado_119412" data-name="Trazado 119412" d="M1271.479,1443.955a3.311,3.311,0,0,1,3.612,1.95c4.353,10.084-.992,16.644-3.615,16.781-2.766.144-2.709-13.161-2.122-16.571A2.431,2.431,0,0,1,1271.479,1443.955Z" transform="translate(-1245.93 -1426.278)" fill="url(#linear-gradient-11)"/>
          </g>
        </g>
        <g id="Grupo_56057" data-name="Grupo 56057" transform="translate(0 192.362)">
          <path id="Trazado_119413" data-name="Trazado 119413" d="M728.075,3046.066a4.1,4.1,0,0,0-.471-2.59,2.07,2.07,0,0,0-1.728-1.14H499.325a2.52,2.52,0,0,0-2.172,1.664,4.877,4.877,0,0,0-.169,3.456l2.455,7.433c.562,1.7,1.78,2.792,3.121,2.792H724.321c1.247,0,2.319-1.237,2.555-2.949Z" transform="translate(-496.471 -3042.063)" fill="#91b3fa"/>
          <path id="Trazado_119414" data-name="Trazado 119414" d="M499.49,3054.881H721.239c1.386,0,2.578-1.34,2.833-3.187l1.2-8.666a4.355,4.355,0,0,0-.507-2.763,2.334,2.334,0,0,0-1.971-1.277H496.255a2.778,2.778,0,0,0-2.428,1.826,5.131,5.131,0,0,0-.18,3.652l2.455,7.433C496.7,3053.71,498.031,3054.881,499.49,3054.881Zm225.225-11.926-1.2,8.665c-.217,1.572-1.175,2.712-2.277,2.712H499.49c-1.211,0-2.331-1.021-2.853-2.6l-2.455-7.433a4.579,4.579,0,0,1,.158-3.26,2.241,2.241,0,0,1,1.916-1.5H722.793a1.792,1.792,0,0,1,1.485,1,3.809,3.809,0,0,1,.437,2.417Z" transform="translate(-493.395 -3038.988)" fill="#91b3fa"/>
        </g>
        <g id="Grupo_56060" data-name="Grupo 56060" transform="translate(2.042 99.828)">
          <path id="Trazado_119415" data-name="Trazado 119415" d="M1929.667,1917.279c1.25,10.214,6.874,51.715,8.483,63.572a2.722,2.722,0,0,1-2.78,3.086l-95.4-2.73a2.726,2.726,0,0,1-2.584-2.134l-14.84-66.83a2.727,2.727,0,0,1,2.821-3.313l101.749,5.96A2.723,2.723,0,0,1,1929.667,1917.279Z" transform="translate(-1822.484 -1908.925)" fill="#1a0f91"/>
          <g id="Grupo_56058" data-name="Grupo 56058" transform="translate(47.141 46.873)">
            <path id="Trazado_119416" data-name="Trazado 119416" d="M2243.926,2487.815l14.1,40.017-32.784.695-2.73-40.472a3.145,3.145,0,0,1,3.347-3.35l15.31,1.017A3.145,3.145,0,0,1,2243.926,2487.815Z" transform="translate(-2222.23 -2484.425)" fill="#2b2479"/>
            <path id="Trazado_119417" data-name="Trazado 119417" d="M2220.562,2525.738l.262-.005,33.162-.7-14.225-40.374a3.416,3.416,0,0,0-3-2.276l-15.31-1.017a3.419,3.419,0,0,0-3.638,3.642Zm32.655-1.24-32.143.682-2.712-40.211a2.87,2.87,0,0,1,3.054-3.058l15.31,1.016a2.868,2.868,0,0,1,2.518,1.911Z" transform="translate(-2217.807 -2481.356)" fill="#2b2479"/>
          </g>
          <g id="Grupo_56059" data-name="Grupo 56059" transform="translate(41.291 87.202)">
            <path id="Trazado_119418" data-name="Trazado 119418" d="M2113.8,2980.6h0a1.7,1.7,0,0,1-1.618,2.233h-51.341a1.7,1.7,0,0,1-1.7-1.7v-2.2a1.7,1.7,0,0,1,1.776-1.7l51.341,2.2A1.7,1.7,0,0,1,2113.8,2980.6Z" transform="translate(-2058.863 -2976.952)" fill="#1a0f91"/>
            <path id="Trazado_119419" data-name="Trazado 119419" d="M2057.756,2980.032H2109.1a1.977,1.977,0,0,0,1.878-2.593,1.986,1.986,0,0,0-1.793-1.359l-51.341-2.2a1.977,1.977,0,0,0-2.062,1.975v2.2A1.979,1.979,0,0,0,2057.756,2980.032Zm0-5.607h.063l51.341,2.2a1.436,1.436,0,0,1,1.3.982h0a1.429,1.429,0,0,1-1.357,1.874h-51.341a1.43,1.43,0,0,1-1.428-1.428v-2.2a1.429,1.429,0,0,1,1.427-1.429Z" transform="translate(-2055.78 -2973.876)" fill="#91b3fa"/>
          </g>
          <path id="Trazado_119420" data-name="Trazado 119420" d="M1996.989,2004.526l.677-.085-4.687-36.964a4.813,4.813,0,0,0-4.482-4.2l-87.927-5.31-.041.681,87.927,5.31a4.13,4.13,0,0,1,3.847,3.6Z" transform="translate(-1888.365 -1953.953)" fill="#91b3fa"/>
          <rect id="Rectángulo_29682" data-name="Rectángulo 29682" width="8.067" height="0.682" transform="translate(110.97 69.104) rotate(-97.184)" fill="#91b3fa"/>
        </g>
        <g id="Grupo_56071" data-name="Grupo 56071" transform="translate(46.57 24.187)">
          <path id="Trazado_119421" data-name="Trazado 119421" d="M2315.5,760.642v20.58a4.579,4.579,0,0,1-4.364,4.574L2285.4,787a4.579,4.579,0,0,1-4.794-4.574V760.642a4.578,4.578,0,0,1,4.579-4.579h25.736A4.579,4.579,0,0,1,2315.5,760.642Z" transform="translate(-2280.607 -756.063)" fill="#fe7062"/>
          <g id="Grupo_56070" data-name="Grupo 56070" transform="translate(6.142 4.69)">
            <g id="Grupo_56069" data-name="Grupo 56069">
              <g id="Grupo_56068" data-name="Grupo 56068" transform="translate(0 0.117)">
                <g id="Grupo_56067" data-name="Grupo 56067">
                  <g id="Grupo_56063" data-name="Grupo 56063">
                    <g id="Grupo_56061" data-name="Grupo 56061">
                      <path id="Trazado_119422" data-name="Trazado 119422" d="M2366.65,820.076l1.005-3.714,2.931-1.6.391.715-2.624,1.416-3.126,11.464-.1.341h-12.756a3.617,3.617,0,0,1-3.06-1.654l-.572-.755a5.933,5.933,0,0,1-1.021-3.185v-3.03Zm-18.005,3.03a5.079,5.079,0,0,0,.838,2.747l.506.85a2.922,2.922,0,0,0,2.385,1.38h12.13l.664-2.45,1.258-4.634h-17.782Z" transform="translate(-2347.721 -814.765)" fill="#fff"/>
                    </g>
                    <g id="Grupo_56062" data-name="Grupo 56062" transform="translate(1.719 10.794)">
                      <path id="Trazado_119423" data-name="Trazado 119423" d="M2417.332,953.884a.458.458,0,0,0,.411.461h14.967c.227,0,.459-.354.459-.58v-7.057c0-.078-.046-.062-.083-.124l-.689,2.525h-.152v4.312h-14.5A.458.458,0,0,0,2417.332,953.884Z" transform="translate(-2417.332 -946.584)" fill="#fff"/>
                    </g>
                  </g>
                  <g id="Grupo_56065" data-name="Grupo 56065" transform="translate(4.77 5.721)">
                    <rect id="Rectángulo_29683" data-name="Rectángulo 29683" width="0.546" height="7.683" transform="translate(4.712)" fill="#fff"/>
                    <g id="Grupo_56064" data-name="Grupo 56064">
                      <rect id="Rectángulo_29684" data-name="Rectángulo 29684" width="0.546" height="7.683" transform="translate(9.538)" fill="#fff"/>
                      <rect id="Rectángulo_29685" data-name="Rectángulo 29685" width="0.546" height="7.683" fill="#fff"/>
                    </g>
                  </g>
                  <g id="Grupo_56066" data-name="Grupo 56066" transform="translate(0.728 7.981)">
                    <rect id="Rectángulo_29686" data-name="Rectángulo 29686" width="17.77" height="0.489" fill="#fff"/>
                    <rect id="Rectángulo_29687" data-name="Rectángulo 29687" width="16.549" height="0.489" transform="translate(0.445 2.674)" fill="#fff"/>
                  </g>
                </g>
                <path id="Trazado_119424" data-name="Trazado 119424" d="M2426.568,1047.8a1.765,1.765,0,1,1-1.765,1.765A1.765,1.765,0,0,1,2426.568,1047.8Zm0,2.83a1.065,1.065,0,1,0-1.065-1.065A1.065,1.065,0,0,0,2426.568,1050.634Z" transform="translate(-2411.388 -1028.722)" fill="#fff"/>
                <path id="Trazado_119425" data-name="Trazado 119425" d="M2560.492,1047.8a1.765,1.765,0,1,1-1.765,1.765A1.765,1.765,0,0,1,2560.492,1047.8Zm0,2.83a1.065,1.065,0,1,0-1.065-1.065A1.065,1.065,0,0,0,2560.492,1050.634Z" transform="translate(-2556.279 -1028.722)" fill="#fff"/>
              </g>
              <path id="Trazado_119426" data-name="Trazado 119426" d="M2320.755,814.165a.829.829,0,0,0,.829.829h2.759a.829.829,0,0,0,.829-.829h0a.829.829,0,0,0-.829-.829h-2.759a.829.829,0,0,0-.829.829Z" transform="translate(-2299.708 -813.336)" fill="#fff"/>
            </g>
          </g>
        </g>
        <g id="Grupo_56073" data-name="Grupo 56073" transform="translate(101.32 0.062)">
          <path id="Trazado_119427" data-name="Trazado 119427" d="M1636.71,466.347v22.076a4.912,4.912,0,0,1-4.681,4.906l-27.606,1.3a4.912,4.912,0,0,1-5.142-4.906V466.347a4.911,4.911,0,0,1,4.911-4.911H1631.8A4.911,4.911,0,0,1,1636.71,466.347Z" transform="translate(-1599.281 -461.436)" fill="#fe7062"/>
          <g id="Grupo_56072" data-name="Grupo 56072" transform="translate(6.572 7.503)">
            <path id="Trazado_119428" data-name="Trazado 119428" d="M1683.216,572.147h19.025a2.589,2.589,0,0,0,2.586-2.586V555.649a2.589,2.589,0,0,0-2.586-2.586h-19.025a2.589,2.589,0,0,0-2.586,2.586v13.913A2.589,2.589,0,0,0,1683.216,572.147Zm19.025-17.38a.883.883,0,0,1,.882.882v13.913a.883.883,0,0,1-.882.882h-19.025a.883.883,0,0,1-.882-.882V555.649a.883.883,0,0,1,.882-.882Z" transform="translate(-1680.63 -553.063)" fill="#fff"/>
            <path id="Trazado_119429" data-name="Trazado 119429" d="M1699.359,569.473a.85.85,0,0,0,.493-.157l10.661-7.56a.852.852,0,0,0-.986-1.39l-10.167,7.21-10.035-7.127a.852.852,0,1,0-.987,1.389l10.528,7.478A.851.851,0,0,0,1699.359,569.473Z" transform="translate(-1687.278 -559.624)" fill="#fff"/>
            <path id="Trazado_119430" data-name="Trazado 119430" d="M1696.992,630.622l.247-1.686-.115.844.714-.464c-.2-.317-4.042-7.042-6.579-11.485a.852.852,0,1,0-1.48.845s1.645,2.881,3.292,5.762c.824,1.441,1.649,2.882,2.27,3.963C1696.579,630.557,1696.579,630.557,1696.992,630.622Z" transform="translate(-1674.382 -612.133)" fill="#fff"/>
            <path id="Trazado_119431" data-name="Trazado 119431" d="M1867.783,630.624c.412-.065.412-.065,1.649-2.22.621-1.081,1.446-2.522,2.27-3.963,1.648-2.881,3.293-5.762,3.293-5.762a.852.852,0,0,0-1.48-.845c-2.536,4.442-6.38,11.167-6.578,11.484l.714.464Z" transform="translate(-1866.166 -612.136)" fill="#fff"/>
          </g>
        </g>
        <g id="Grupo_56075" data-name="Grupo 56075" transform="translate(15.342 62.605)">
          <path id="Trazado_119432" data-name="Trazado 119432" d="M2703.779,1309.657v19.417a4.32,4.32,0,0,1-4.117,4.315l-24.282,1.141a4.32,4.32,0,0,1-4.523-4.316v-20.558a4.32,4.32,0,0,1,4.32-4.32h24.282A4.32,4.32,0,0,1,2703.779,1309.657Z" transform="translate(-2670.857 -1305.337)" fill="#fe7062"/>
          <path id="Trazado_119433" data-name="Trazado 119433" d="M2744.317,1349.873a1.332,1.332,0,0,0,.92-.332l.7-.645a1.47,1.47,0,0,0,.4-1.35,2.963,2.963,0,0,0-.77-1.524l-.469-.511c-.033-.036-.067-.071-.1-.106l-8.758-8.758a.216.216,0,0,0-.3.3l8.758,8.758c.03.03.06.061.089.093l.468.511a2.529,2.529,0,0,1,.662,1.3,1.057,1.057,0,0,1-.263.968l-.7.645c-.494.453-1.511.182-2.221-.592l-.469-.511c-.029-.031-.057-.064-.084-.1l-6.994-8.319a.216.216,0,0,0-.33.278l6.994,8.318q.048.056.1.111l.468.511A2.723,2.723,0,0,0,2744.317,1349.873Zm-.213-1.374a.892.892,0,0,0,.619-.223c.487-.447.323-1.392-.373-2.151a2.5,2.5,0,0,0-1.08-.715.937.937,0,0,0-1.277,1.172,2.493,2.493,0,0,0,.619,1.137A2.169,2.169,0,0,0,2744.1,1348.5Zm-1.249-2.723a1.036,1.036,0,0,1,.291.047,2.064,2.064,0,0,1,.886.594c.506.552.692,1.272.4,1.541-.261.239-.941.08-1.5-.531h0a2.06,2.06,0,0,1-.515-.934.658.658,0,0,1,.115-.607A.469.469,0,0,1,2742.855,1345.776Zm-10.905-9.358a.215.215,0,0,0,.165-.354l-2.523-3-.158.1a4.562,4.562,0,0,1-5.865-.813,5.1,5.1,0,0,1-1.332-3.976.473.473,0,0,1,.332-.407.5.5,0,0,1,.524.135l2.719,2.964a1.145,1.145,0,0,0,.937.365l1.462-.126a1.14,1.14,0,0,0,1.024-.939l.252-1.446a1.146,1.146,0,0,0-.283-.965l-2.719-2.964a.494.494,0,0,1-.09-.534.473.473,0,0,1,.434-.295,5.108,5.108,0,0,1,3.847,1.67,4.562,4.562,0,0,1,.3,5.913l-.11.149,3.269,3.269a.216.216,0,0,0,.3-.3l-3.009-3.009a4.976,4.976,0,0,0-.441-6.309,5.52,5.52,0,0,0-4.173-1.81.9.9,0,0,0-.823.556.92.92,0,0,0,.168,1l2.718,2.964a.711.711,0,0,1,.176.6l-.251,1.446a.708.708,0,0,1-.636.583l-1.462.126a.711.711,0,0,1-.582-.227l-2.719-2.964a.92.92,0,0,0-.977-.253.9.9,0,0,0-.625.771,5.532,5.532,0,0,0,1.443,4.313,4.976,4.976,0,0,0,6.247.984l2.287,2.72A.215.215,0,0,0,2731.95,1336.417Z" transform="translate(-2717.608 -1322.219)" fill="#fff"/>
          <g id="Grupo_56074" data-name="Grupo 56074" transform="translate(5.023 14.008)">
            <path id="Trazado_119434" data-name="Trazado 119434" d="M2859.6,1490.169q.086,0,.173-.007a1.988,1.988,0,0,0,1.384-.729l8.127-9.95a1.019,1.019,0,0,0-.12-1.418l-1.6-1.4a1.019,1.019,0,0,0-1.421.074l-8.756,9.4a2,2,0,0,0,.149,2.877l.754.657A1.986,1.986,0,0,0,2859.6,1490.169Zm7.583-13.07,1.6,1.4a.446.446,0,0,1,.053.621l-8.127,9.95a1.429,1.429,0,0,1-2.047.173l-.754-.658a1.429,1.429,0,0,1-.106-2.051l8.756-9.4a.446.446,0,0,1,.622-.032Z" transform="translate(-2856.844 -1476.412)" fill="#fff"/>
          </g>
          <path id="Trazado_119435" data-name="Trazado 119435" d="M2737.908,1349.319l7.053-8.25a.511.511,0,0,0,.3-.1l2.116-1.623a.483.483,0,0,0,.137-.166l.938-1.855a.592.592,0,0,0-.17-.7l-.529-.461a.592.592,0,0,0-.721-.073l-1.714,1.182a.476.476,0,0,0-.14.149l-1.369,2.27a.522.522,0,0,0-.053.405l-7.267,8.163Zm6.878-8.709-6.943,8.121-.721-.543,7.145-8.026-.074-.134a.132.132,0,0,1-.015-.123l1.369-2.27a.052.052,0,0,1,.015-.016l1.714-1.182a.175.175,0,0,1,.193.043l.528.461a.175.175,0,0,1,.069.185l-.937,1.855a.049.049,0,0,1-.015.018l-2.115,1.623a.113.113,0,0,1-.089.011Z" transform="translate(-2720.959 -1333.48)" fill="#fff"/>
        </g>
        <g id="Grupo_56101" data-name="Grupo 56101" transform="translate(160.321 13.796)">
          <path id="Trazado_119436" data-name="Trazado 119436" d="M914.453,634.328v23.219a5.166,5.166,0,0,1-4.923,5.16l-29.035,1.364a5.166,5.166,0,0,1-5.408-5.16V634.328a5.166,5.166,0,0,1,5.166-5.166h29.035A5.166,5.166,0,0,1,914.453,634.328Z" transform="translate(-875.086 -629.162)" fill="#fe7062"/>
          <g id="Grupo_56099" data-name="Grupo 56099" transform="translate(9.609 7.273)">
            <g id="Grupo_56097" data-name="Grupo 56097" transform="translate(0.537 0.473)">
              <g id="Grupo_56078" data-name="Grupo 56078" transform="translate(8.162 0.063)">
                <g id="Grupo_56076" data-name="Grupo 56076" transform="translate(0.3 0.3)">
                  <path id="Trazado_119437" data-name="Trazado 119437" d="M1049.971,739.6a35.45,35.45,0,0,0,.506,6.165c.092.508.2,1.014.325,1.515a14.607,14.607,0,0,0,.453,1.482,7.047,7.047,0,0,0,.676,1.4,2.787,2.787,0,0,0,.508.594,1.449,1.449,0,0,0,.332.215,1,1,0,0,0,.388.092.975.975,0,0,0,.392-.072,1.36,1.36,0,0,0,.34-.2,2.647,2.647,0,0,0,.519-.585,6.805,6.805,0,0,0,.686-1.392,14.372,14.372,0,0,0,.458-1.481c.128-.5.235-1.006.328-1.514.185-1.016.31-2.042.4-3.071s.127-2.061.132-3.093c0-.516-.011-1.032-.03-1.548s-.047-1.031-.085-1.546c-.076-1.029-.19-2.056-.358-3.074-.085-.509-.184-1.016-.3-1.518a14.621,14.621,0,0,0-.429-1.488c-.086-.243-.181-.484-.288-.72a5.284,5.284,0,0,0-.369-.683,2.54,2.54,0,0,0-.507-.589,1.292,1.292,0,0,0-.335-.2.941.941,0,0,0-.386-.069,1.019,1.019,0,0,0-.381.09,1.482,1.482,0,0,0-.331.208,2.83,2.83,0,0,0-.518.578,6.978,6.978,0,0,0-.711,1.376,14.158,14.158,0,0,0-.487,1.47c-.137.5-.253,1-.354,1.507A32.459,32.459,0,0,0,1049.971,739.6Zm.152,0q0-1.542.122-3.081a29.851,29.851,0,0,1,.4-3.056c.095-.505.2-1.007.336-1.5a14.119,14.119,0,0,1,.468-1.466,6.913,6.913,0,0,1,.688-1.37,2.779,2.779,0,0,1,.5-.573,1.445,1.445,0,0,1,.318-.2.947.947,0,0,1,.363-.089.888.888,0,0,1,.366.069,1.243,1.243,0,0,1,.32.2,2.489,2.489,0,0,1,.489.581,5.208,5.208,0,0,1,.357.678c.1.234.195.474.278.717a14.556,14.556,0,0,1,.411,1.484c.113.5.206,1.007.284,1.515.157,1.016.259,2.04.324,3.067s.088,2.055.086,3.083-.031,2.056-.108,3.081-.194,2.047-.37,3.06c-.088.506-.191,1.01-.314,1.508a14.179,14.179,0,0,1-.443,1.473,6.716,6.716,0,0,1-.665,1.377,2.564,2.564,0,0,1-.5.569,1.274,1.274,0,0,1-.317.193.87.87,0,0,1-.359.068.906.906,0,0,1-.355-.087,1.368,1.368,0,0,1-.311-.2,2.7,2.7,0,0,1-.486-.579,6.952,6.952,0,0,1-.655-1.382,14.561,14.561,0,0,1-.438-1.474c-.122-.5-.224-1-.311-1.509-.175-1.013-.291-2.035-.368-3.06S1050.122,740.627,1050.123,739.6Z" transform="translate(-1049.971 -728.211)" fill="#fff"/>
                </g>
                <g id="Grupo_56077" data-name="Grupo 56077">
                  <path id="Trazado_119438" data-name="Trazado 119438" d="M1049.83,747.991a1.283,1.283,0,0,0,.474-.095,1.636,1.636,0,0,0,.414-.247,2.889,2.889,0,0,0,.58-.651,7.035,7.035,0,0,0,.719-1.455,14.543,14.543,0,0,0,.468-1.513c.124-.483.232-.985.332-1.535.177-.974.307-1.988.4-3.1.083-1.01.128-2.059.133-3.117,0-.553-.013-1.1-.03-1.56-.02-.524-.049-1.048-.086-1.557-.082-1.118-.2-2.132-.362-3.1-.092-.552-.192-1.056-.306-1.539a14.836,14.836,0,0,0-.438-1.518c-.1-.276-.2-.52-.3-.745a5.585,5.585,0,0,0-.39-.722,2.8,2.8,0,0,0-.569-.658,1.589,1.589,0,0,0-.414-.248,1.252,1.252,0,0,0-.507-.09,1.3,1.3,0,0,0-.49.115,1.764,1.764,0,0,0-.4.249,3.08,3.08,0,0,0-.575.64,7.212,7.212,0,0,0-.743,1.436,14.3,14.3,0,0,0-.5,1.5c-.134.484-.251.984-.359,1.529a32.49,32.49,0,0,0-.571,6.216h0a35.49,35.49,0,0,0,.511,6.217c.1.55.207,1.052.329,1.536a14.81,14.81,0,0,0,.463,1.513,7.3,7.3,0,0,0,.707,1.457,3.04,3.04,0,0,0,.565.659,1.745,1.745,0,0,0,.4.259,1.283,1.283,0,0,0,.506.118Zm.156-22.8a.6.6,0,0,1,.227.047.946.946,0,0,1,.243.152,2.158,2.158,0,0,1,.428.511,4.9,4.9,0,0,1,.335.638c.093.208.18.434.268.692a14.246,14.246,0,0,1,.4,1.452c.106.47.2.958.281,1.495.147.951.252,1.945.321,3.039.06.935.088,1.937.085,3.064,0,1.04-.033,2.069-.107,3.06-.082,1.088-.2,2.079-.367,3.031-.093.532-.194,1.019-.31,1.487a13.879,13.879,0,0,1-.434,1.441,6.369,6.369,0,0,1-.634,1.315,2.222,2.222,0,0,1-.435.5.968.968,0,0,1-.241.148.635.635,0,0,1-.237.047.612.612,0,0,1-.24-.06,1.068,1.068,0,0,1-.241-.16,2.373,2.373,0,0,1-.43-.515,6.594,6.594,0,0,1-.625-1.321,14.157,14.157,0,0,1-.428-1.443c-.114-.466-.214-.953-.307-1.488-.162-.943-.282-1.934-.364-3.031-.075-.989-.113-2.018-.113-3.059h0c0-1.037.039-2.065.121-3.055a29.217,29.217,0,0,1,.4-3.026c.1-.527.207-1.012.331-1.482a13.7,13.7,0,0,1,.458-1.434,6.555,6.555,0,0,1,.657-1.31,2.439,2.439,0,0,1,.445-.51,1.141,1.141,0,0,1,.25-.162.64.64,0,0,1,.246-.062Z" transform="translate(-1046.313 -724.541)" fill="#fff"/>
                </g>
              </g>
              <g id="Grupo_56081" data-name="Grupo 56081" transform="translate(2.977)">
                <g id="Grupo_56079" data-name="Grupo 56079" transform="translate(0.3 0.301)">
                  <path id="Trazado_119439" data-name="Trazado 119439" d="M978.55,738.89a15.1,15.1,0,0,0,.531,3.939,12.709,12.709,0,0,0,1.642,3.612,10.407,10.407,0,0,0,1.254,1.542,8.806,8.806,0,0,0,1.544,1.247,7.431,7.431,0,0,0,1.8.827,6.713,6.713,0,0,0,3.916,0,7.425,7.425,0,0,0,1.8-.825,8.807,8.807,0,0,0,1.546-1.246,10.4,10.4,0,0,0,1.256-1.541,12.724,12.724,0,0,0,1.646-3.614,14.359,14.359,0,0,0,.4-1.953,14.74,14.74,0,0,0,0-3.978,14.356,14.356,0,0,0-.4-1.953,12.721,12.721,0,0,0-1.648-3.611,10.39,10.39,0,0,0-1.257-1.539,8.781,8.781,0,0,0-1.545-1.244,7.459,7.459,0,0,0-1.8-.822,6.662,6.662,0,0,0-3.91,0,7.449,7.449,0,0,0-1.8.824,8.768,8.768,0,0,0-1.543,1.245,10.387,10.387,0,0,0-1.254,1.54,12.7,12.7,0,0,0-1.644,3.61A15.1,15.1,0,0,0,978.55,738.89Zm.174,0a14.926,14.926,0,0,1,.51-3.9,12.65,12.65,0,0,1,1.589-3.588,10.288,10.288,0,0,1,1.226-1.537,8.568,8.568,0,0,1,1.516-1.248,7.31,7.31,0,0,1,1.778-.825,6.5,6.5,0,0,1,3.871,0,7.3,7.3,0,0,1,1.777.827,8.566,8.566,0,0,1,1.514,1.249,10.29,10.29,0,0,1,1.223,1.537A12.636,12.636,0,0,1,995.314,735a14.473,14.473,0,0,1,.381,1.93,15.061,15.061,0,0,1,0,3.927,14.442,14.442,0,0,1-.382,1.93,12.629,12.629,0,0,1-1.588,3.584A10.277,10.277,0,0,1,992.5,747.9a8.539,8.539,0,0,1-1.514,1.247,7.331,7.331,0,0,1-1.775.823,6.449,6.449,0,0,1-3.865,0,7.335,7.335,0,0,1-1.777-.822,8.543,8.543,0,0,1-1.516-1.246,10.277,10.277,0,0,1-1.226-1.535,12.652,12.652,0,0,1-1.592-3.585A14.924,14.924,0,0,1,978.724,738.89Z" transform="translate(-978.55 -727.439)" fill="#fff"/>
                </g>
                <g id="Grupo_56080" data-name="Grupo 56080">
                  <path id="Trazado_119440" data-name="Trazado 119440" d="M983.92,747.282a7.071,7.071,0,0,0,2.045-.3,7.713,7.713,0,0,0,1.875-.859,9.1,9.1,0,0,0,1.6-1.289,10.761,10.761,0,0,0,1.293-1.586,12.992,12.992,0,0,0,1.686-3.7,14.7,14.7,0,0,0,.407-2,15.031,15.031,0,0,0,0-4.058,14.663,14.663,0,0,0-.408-1.994,12.988,12.988,0,0,0-1.688-3.7,10.7,10.7,0,0,0-1.293-1.584,9.083,9.083,0,0,0-1.6-1.287,7.751,7.751,0,0,0-1.874-.855,6.965,6.965,0,0,0-4.083,0,7.743,7.743,0,0,0-1.872.857,9.1,9.1,0,0,0-1.6,1.288,10.7,10.7,0,0,0-1.291,1.584,12.964,12.964,0,0,0-1.684,3.7,15.388,15.388,0,0,0-.546,4.019v0a15.379,15.379,0,0,0,.543,4.018,12.97,12.97,0,0,0,1.682,3.7,10.694,10.694,0,0,0,1.29,1.586,9.117,9.117,0,0,0,1.6,1.29,7.727,7.727,0,0,0,1.874.86A7.086,7.086,0,0,0,983.92,747.282Zm0-22.849a6.4,6.4,0,0,1,1.847.282,7.023,7.023,0,0,1,1.7.793,8.277,8.277,0,0,1,1.46,1.2,10,10,0,0,1,1.187,1.492,12.31,12.31,0,0,1,1.547,3.5,14.253,14.253,0,0,1,.373,1.89,14.754,14.754,0,0,1,0,3.849,14.224,14.224,0,0,1-.374,1.889,12.306,12.306,0,0,1-1.549,3.5,9.949,9.949,0,0,1-1.187,1.491,8.268,8.268,0,0,1-1.46,1.2,7.038,7.038,0,0,1-1.7.789,6.154,6.154,0,0,1-3.69,0,7.05,7.05,0,0,1-1.7-.789,8.253,8.253,0,0,1-1.461-1.2,10.022,10.022,0,0,1-1.19-1.49,12.327,12.327,0,0,1-1.553-3.5,14.8,14.8,0,0,1,0-7.633,12.333,12.333,0,0,1,1.551-3.5,10.025,10.025,0,0,1,1.19-1.492,8.293,8.293,0,0,1,1.463-1.2,7.007,7.007,0,0,1,1.7-.791A6.4,6.4,0,0,1,983.921,724.433Z" transform="translate(-974.891 -723.769)" fill="#fff"/>
                </g>
              </g>
              <g id="Grupo_56084" data-name="Grupo 56084" transform="translate(0.913 6.873)">
                <g id="Grupo_56082" data-name="Grupo 56082" transform="translate(0.3 0.301)">
                  <path id="Trazado_119441" data-name="Trazado 119441" d="M981.742,811.424l-2.622-.021-2.622-.012-5.243-.01-5.243.011-2.622.013-2.622.023a.008.008,0,0,0-.008.008s0,.008.008.008l2.622.023,2.622.013,5.243.011,5.243-.01,2.622-.012,2.622-.021a.018.018,0,0,0,.011-.005C981.753,811.429,981.748,811.424,981.742,811.424Z" transform="translate(-960.761 -811.381)" fill="#fff"/>
                </g>
                <g id="Grupo_56083" data-name="Grupo 56083">
                  <path id="Trazado_119442" data-name="Trazado 119442" d="M967.9,808.418l7.867-.022,2.747-.023.183-.183v-.134l-.007-.294-.3-.011-5.244-.033-5.244-.01-7.867.024-2.92.026-.008.606.307.008,5.242.036Z" transform="translate(-957.106 -807.708)" fill="#fff"/>
                </g>
              </g>
              <g id="Grupo_56087" data-name="Grupo 56087" transform="translate(3.951 2.465)">
                <g id="Grupo_56085" data-name="Grupo 56085" transform="translate(0.303 0.301)">
                  <path id="Trazado_119443" data-name="Trazado 119443" d="M1012.8,757.591c-.62-.01-1.241-.014-1.861-.021l-1.861-.012c-.62-.005-1.241,0-1.861-.006l-1.861,0-3.723.011-1.861.013c-.62.008-1.241.012-1.861.023a.012.012,0,0,0-.008,0c0,.008,0,.012.008.012.62.011,1.241.015,1.861.023l1.861.013,3.723.011,1.861,0c.62,0,1.241,0,1.861-.006l1.861-.012c.62-.007,1.241-.011,1.861-.021a.011.011,0,0,0,0-.023Z" transform="translate(-997.905 -757.548)" fill="#fff"/>
                </g>
                <g id="Grupo_56086" data-name="Grupo 56086">
                  <path id="Trazado_119444" data-name="Trazado 119444" d="M1002,754.586l2.345,0c.46,0,.921,0,1.381-.005l2.482-.019c.414,0,.829-.008,1.243-.015l.295,0,.011-.608-.306-.011c-.4-.006-.8-.01-1.2-.014l-2.523-.019c-.437,0-.874,0-1.311-.005l-2.413,0-6.264.031c-.4,0-.791.008-1.187.015l-.305.005.014.6.3.008c.409.007.824.011,1.238.016l2.483.02Z" transform="translate(-994.246 -753.876)" fill="#fff"/>
                </g>
              </g>
              <g id="Grupo_56090" data-name="Grupo 56090" transform="translate(0 11.281)">
                <g id="Grupo_56088" data-name="Grupo 56088" transform="translate(0.301 0.301)">
                  <path id="Trazado_119445" data-name="Trazado 119445" d="M972.438,865.256l-2.849-.021-2.849-.012-5.7-.01-5.7.011-2.849.013-2.849.023a.008.008,0,0,0-.008.008s0,.008.008.008l2.849.023,2.849.013,5.7.011,5.7-.01,2.849-.012,2.849-.021a.011.011,0,0,0,0-.023Z" transform="translate(-949.635 -865.213)" fill="#fff"/>
                </g>
                <g id="Grupo_56089" data-name="Grupo 56089">
                  <path id="Trazado_119446" data-name="Trazado 119446" d="M957.683,862.253l8.55-.022,3.148-.023.011-.611-.309-.011-5.7-.033-5.7-.01-8.55.024-2.976.024-.181.185.012.424.3.008,5.7.036Z" transform="translate(-945.977 -861.543)" fill="#fff"/>
                </g>
              </g>
              <g id="Grupo_56093" data-name="Grupo 56093" transform="translate(0.913 15.689)">
                <g id="Grupo_56091" data-name="Grupo 56091" transform="translate(0.3 0.301)">
                  <path id="Trazado_119447" data-name="Trazado 119447" d="M981.742,919.089l-2.622-.021-2.622-.012-5.243-.01-5.243.011-2.622.013-2.622.023a.012.012,0,0,0-.008,0c0,.008,0,.012.008.012l2.622.023,2.622.013,5.243.011,5.243-.01,2.622-.012,2.622-.021a.012.012,0,0,0,0-.023Z" transform="translate(-960.761 -919.046)" fill="#fff"/>
                </g>
                <g id="Grupo_56092" data-name="Grupo 56092">
                  <path id="Trazado_119448" data-name="Trazado 119448" d="M967.9,916.085l7.867-.022,2.747-.022.183-.184v-.135l-.007-.294-.3-.011-5.244-.033-5.244-.01-7.867.024-2.92.026-.008.607.307.008,5.242.036Z" transform="translate(-957.106 -915.375)" fill="#fff"/>
                </g>
              </g>
              <g id="Grupo_56096" data-name="Grupo 56096" transform="translate(3.547 20.112)">
                <g id="Grupo_56094" data-name="Grupo 56094" transform="translate(0.299 0.301)">
                  <path id="Trazado_119449" data-name="Trazado 119449" d="M1002.173,973.133h14.89a.04.04,0,0,0,0-.081h-14.89a.04.04,0,0,0,0,.081Z" transform="translate(-1002.133 -973.052)" fill="#fff"/>
                </g>
                <g id="Grupo_56095" data-name="Grupo 56095">
                  <path id="Trazado_119450" data-name="Trazado 119450" d="M998.816,970.064h14.89a.341.341,0,0,0,0-.682h-14.89a.341.341,0,0,0,0,.682Z" transform="translate(-998.476 -969.382)" fill="#fff"/>
                </g>
              </g>
            </g>
            <g id="Grupo_56098" data-name="Grupo 56098">
              <path id="Trazado_119451" data-name="Trazado 119451" d="M951.659,742.21A12.112,12.112,0,1,0,939.414,730.1,12.192,12.192,0,0,0,951.659,742.21Zm0-23.148a11.037,11.037,0,1,1-11.17,11.036A11.117,11.117,0,0,1,951.659,719.063Z" transform="translate(-939.414 -717.988)" fill="#fff"/>
            </g>
          </g>
          <g id="Grupo_56100" data-name="Grupo 56100" transform="translate(5.562 2.934)">
            <path id="Trazado_119452" data-name="Trazado 119452" d="M1189.065,671.647h3.516v-.91l-1.166-1.65a11.85,11.85,0,0,1-.659-1.011,3.084,3.084,0,0,1-.265-.632,2.3,2.3,0,0,1-.085-.626.826.826,0,0,1,.168-.565.558.558,0,0,1,.437-.188.839.839,0,0,1,.444.126,2.5,2.5,0,0,1,.5.453l.682-.718a3.012,3.012,0,0,0-.875-.731,1.964,1.964,0,0,0-.875-.2,1.635,1.635,0,0,0-1.24.466,1.8,1.8,0,0,0-.446,1.3,3.052,3.052,0,0,0,.081.713,3.349,3.349,0,0,0,.245.675,5.736,5.736,0,0,0,.41.7q.247.366,1.274,1.675v.036h-2.148Z" transform="translate(-1184.544 -664.996)" fill="#fff"/>
            <path id="Trazado_119453" data-name="Trazado 119453" d="M1239.673,671.326h.664V672.7h1.148v-1.377h2.139v-.991l-1.982-4.189h-1.305v4.171h-.664Zm1.812-1.009v-1.381l-.022-.61-.031-.583h.036a7.636,7.636,0,0,0,.341.884l.789,1.691Z" transform="translate(-1239.673 -666.052)" fill="#fff"/>
          </g>
        </g>
      </g>
      <rect id="Rectángulo_29688" data-name="Rectángulo 29688" width="258" height="236" fill="none"/>
    </g>
    <g id="Grupo_55766" data-name="Grupo 55766" transform="translate(0 78.872)">
      <path id="Trazado_118074" data-name="Trazado 118074" d="M432.04,57.421h-2.973A14.948,14.948,0,0,1,426.39,63.6l2.186,2.186a1.161,1.161,0,0,1,0,1.641l-2.209,2.209a1.161,1.161,0,0,1-1.642,0l-2.3-2.3a14.934,14.934,0,0,1-6.064,2.248V73.1a1.161,1.161,0,0,1-1.161,1.161h-3.123a1.161,1.161,0,0,1-1.161-1.161V69.342a14.908,14.908,0,0,1-5.531-2.54l-2.835,2.832a1.161,1.161,0,0,1-1.641,0l-2.209-2.21a1.161,1.161,0,0,1,0-1.641l2.952-2.952a14.987,14.987,0,0,1-2.143-5.41h-4.273a1.161,1.161,0,0,1-1.161-1.161V53.137a1.161,1.161,0,0,1,1.161-1.161h4.273a15.008,15.008,0,0,1,2.143-5.414L398.7,43.61a1.161,1.161,0,0,1,0-1.642l2.209-2.209a1.161,1.161,0,0,1,1.641,0l2.835,2.833a14.967,14.967,0,0,1,5.531-2.536V36.3a1.161,1.161,0,0,1,1.161-1.161H415.2a1.161,1.161,0,0,1,1.161,1.161v3.522a14.929,14.929,0,0,1,6.064,2.244l2.3-2.3a1.161,1.161,0,0,1,1.642,0l2.209,2.209a1.161,1.161,0,0,1,0,1.642L426.39,45.8a14.9,14.9,0,0,1,2.676,6.18h2.973a1.161,1.161,0,0,1,1.161,1.161V56.26A1.161,1.161,0,0,1,432.04,57.421Zm-9.99-.645a8.033,8.033,0,0,0-4.063-9.213,7.793,7.793,0,0,0-2.119-.748,8.022,8.022,0,0,0-4.155.267,7.791,7.791,0,0,0-1.757.843,8.042,8.042,0,0,0-2.8,3.069,7.758,7.758,0,0,0-.632,1.626,8.036,8.036,0,0,0,0,4.155,7.826,7.826,0,0,0,.629,1.624,8.006,8.006,0,0,0,2.808,3.069,7.775,7.775,0,0,0,1.757.843,8.029,8.029,0,0,0,4.155.267,7.782,7.782,0,0,0,2.119-.748,8.027,8.027,0,0,0,3.072-2.8A7.944,7.944,0,0,0,422.05,56.776Z" transform="translate(-394.073 -35.135)" fill="#ea5854"/>
      <path id="Trazado_118075" data-name="Trazado 118075" d="M427.755,51.975h-2.973a14.9,14.9,0,0,0-2.676-6.18l2.186-2.186a1.161,1.161,0,0,0,0-1.642l-2.209-2.209a1.161,1.161,0,0,0-1.642,0l-2.3,2.3a14.929,14.929,0,0,0-6.064-2.244V36.3a1.161,1.161,0,0,0-1.161-1.161H407.79A1.161,1.161,0,0,0,406.63,36.3v3.759A14.967,14.967,0,0,0,401.1,42.59l-2.835-2.833a1.161,1.161,0,0,0-1.641,0l-2.209,2.209a1.161,1.161,0,0,0,0,1.642l2.952,2.952a15.008,15.008,0,0,0-2.143,5.414h-.4a22.767,22.767,0,0,0,8.479,7.164,7.944,7.944,0,0,1-.441-.741,7.826,7.826,0,0,1-.629-1.624,8.036,8.036,0,0,1,0-4.155,7.758,7.758,0,0,1,.632-1.626,8.042,8.042,0,0,1,2.8-3.069,7.791,7.791,0,0,1,1.757-.843,8.022,8.022,0,0,1,4.155-.267,7.794,7.794,0,0,1,2.119.748,8.046,8.046,0,0,1,3.072,2.8,8.041,8.041,0,0,1,0,8.658,8.039,8.039,0,0,1-2.349,2.376,22.539,22.539,0,0,0,10.138-3c.082-.324.157-.65.219-.982h1.338a22.791,22.791,0,0,0,2.8-2.282v-2A1.161,1.161,0,0,0,427.755,51.975Z" transform="translate(-389.788 -35.134)" fill="#fe7062"/>
    </g>
    <g id="Grupo_56963" data-name="Grupo 56963" transform="translate(310.389 113.227)">
      <path id="Trazado_118074-2" data-name="Trazado 118074" d="M432.04,57.421h-2.973A14.948,14.948,0,0,1,426.39,63.6l2.186,2.186a1.161,1.161,0,0,1,0,1.641l-2.209,2.209a1.161,1.161,0,0,1-1.642,0l-2.3-2.3a14.934,14.934,0,0,1-6.064,2.248V73.1a1.161,1.161,0,0,1-1.161,1.161h-3.123a1.161,1.161,0,0,1-1.161-1.161V69.342a14.908,14.908,0,0,1-5.531-2.54l-2.835,2.832a1.161,1.161,0,0,1-1.641,0l-2.209-2.21a1.161,1.161,0,0,1,0-1.641l2.952-2.952a14.987,14.987,0,0,1-2.143-5.41h-4.273a1.161,1.161,0,0,1-1.161-1.161V53.137a1.161,1.161,0,0,1,1.161-1.161h4.273a15.008,15.008,0,0,1,2.143-5.414L398.7,43.61a1.161,1.161,0,0,1,0-1.642l2.209-2.209a1.161,1.161,0,0,1,1.641,0l2.835,2.833a14.967,14.967,0,0,1,5.531-2.536V36.3a1.161,1.161,0,0,1,1.161-1.161H415.2a1.161,1.161,0,0,1,1.161,1.161v3.522a14.929,14.929,0,0,1,6.064,2.244l2.3-2.3a1.161,1.161,0,0,1,1.642,0l2.209,2.209a1.161,1.161,0,0,1,0,1.642L426.39,45.8a14.9,14.9,0,0,1,2.676,6.18h2.973a1.161,1.161,0,0,1,1.161,1.161V56.26A1.161,1.161,0,0,1,432.04,57.421Zm-9.99-.645a8.033,8.033,0,0,0-4.063-9.213,7.793,7.793,0,0,0-2.119-.748,8.022,8.022,0,0,0-4.155.267,7.791,7.791,0,0,0-1.757.843,8.042,8.042,0,0,0-2.8,3.069,7.758,7.758,0,0,0-.632,1.626,8.036,8.036,0,0,0,0,4.155,7.826,7.826,0,0,0,.629,1.624,8.006,8.006,0,0,0,2.808,3.069,7.775,7.775,0,0,0,1.757.843,8.029,8.029,0,0,0,4.155.267,7.782,7.782,0,0,0,2.119-.748,8.027,8.027,0,0,0,3.072-2.8A7.944,7.944,0,0,0,422.05,56.776Z" transform="translate(-394.073 -35.135)" fill="#ea5854"/>
    </g>
    <g id="Grupo_55804" data-name="Grupo 55804" transform="translate(254.262 101.323)">
      <g id="Grupo_55803" data-name="Grupo 55803">
        <g id="Grupo_55802" data-name="Grupo 55802">
          <g id="Grupo_55801" data-name="Grupo 55801">
            <g id="Grupo_55799" data-name="Grupo 55799" transform="translate(6.744)">
              <path id="Trazado_118186" data-name="Trazado 118186" d="M71.64,107.288a1.067,1.067,0,0,1,.806-.665,8.672,8.672,0,0,1,1.451-.214,9.871,9.871,0,0,0,1.685-.272,5.047,5.047,0,0,0,1.158-.428,4.056,4.056,0,0,0,.9-.641,3.94,3.94,0,0,0,.674-.845,6.291,6.291,0,0,0,.489-1.033,5.174,5.174,0,0,0,.36-2.374,4.327,4.327,0,0,0-.661-1.909,5.4,5.4,0,0,0-1.35-1.425,7,7,0,0,0-1.7-.919,6.333,6.333,0,0,0-2.23-.415,5.433,5.433,0,0,0-2.077.4,4.842,4.842,0,0,0-1.727,1.21l2.085,3.064c.182-.11.39-.25.622-.421a2.53,2.53,0,0,1,.811-.392,1.618,1.618,0,0,1,1.024.073,1.827,1.827,0,0,1,.64.4,1.368,1.368,0,0,1,.364.6,1.053,1.053,0,0,1-.027.686,1.441,1.441,0,0,1-.671.763,4.014,4.014,0,0,1-1.1.419,8.919,8.919,0,0,1-1.177.194q-.566.053-.874.1a3.755,3.755,0,0,0-1.6.522,2.894,2.894,0,0,0-.927.957,7.784,7.784,0,0,0-.578,1.231ZM67.647,112.7h0a1.935,1.935,0,0,0,2.488-1.141l.077-.21a1.935,1.935,0,0,0-1.141-2.487h0a1.935,1.935,0,0,0-2.488,1.141l-.077.21A1.935,1.935,0,0,0,67.647,112.7Z" transform="translate(-66.385 -96.148)" fill="#fe7062"/>
            </g>
            <g id="Grupo_55800" data-name="Grupo 55800" transform="translate(0 1.497)">
              <path id="Trazado_118187" data-name="Trazado 118187" d="M95.542,107.544a.779.779,0,0,1,.279-.709,6.345,6.345,0,0,1,.851-.649,7.161,7.161,0,0,0,.979-.769,3.674,3.674,0,0,0,.588-.683,2.953,2.953,0,0,0,.349-.728,2.868,2.868,0,0,0,.131-.777,4.581,4.581,0,0,0-.053-.832,3.769,3.769,0,0,0-.609-1.642,3.152,3.152,0,0,0-1.1-.984,3.934,3.934,0,0,0-1.365-.432,5.117,5.117,0,0,0-1.407.012,4.633,4.633,0,0,0-1.569.523,3.972,3.972,0,0,0-1.183.99,3.528,3.528,0,0,0-.675,1.382l2.414,1.218c.077-.135.16-.3.248-.489a1.848,1.848,0,0,1,.379-.536,1.178,1.178,0,0,1,.679-.315,1.336,1.336,0,0,1,.548.026.993.993,0,0,1,.443.252.765.765,0,0,1,.225.447,1.048,1.048,0,0,1-.158.724,2.9,2.9,0,0,1-.554.657,6.485,6.485,0,0,1-.682.54c-.228.156-.4.28-.524.37a2.731,2.731,0,0,0-.839.9,2.105,2.105,0,0,0-.253.939,5.666,5.666,0,0,0,.066.989Zm-.634,4.866h0a1.412,1.412,0,0,0,1.184-1.607l-.025-.161a1.411,1.411,0,0,0-1.607-1.183h0a1.411,1.411,0,0,0-1.183,1.607l.024.161A1.411,1.411,0,0,0,94.908,112.41Z" transform="translate(-90.761 -99.297)" fill="#fe7062"/>
            </g>
          </g>
        </g>
      </g>
    </g>
    <g id="Grupo_55822" data-name="Grupo 55822" transform="translate(32.135 56.851)">
      <g id="Grupo_55820" data-name="Grupo 55820" transform="translate(219.995)">
        <path id="Trazado_118217" data-name="Trazado 118217" d="M155.7,18.076H73.1a4.66,4.66,0,0,0-4.66,4.66V42.055a4.66,4.66,0,0,0,4.66,4.66h8.3l-2.828,6.979,9.4-6.979H155.7a4.659,4.659,0,0,0,4.659-4.66V22.736A4.659,4.659,0,0,0,155.7,18.076Z" transform="translate(-68.442 -18.076)" fill="#57dbd8"/>
        <path id="Trazado_118218" data-name="Trazado 118218" d="M157.741,33.425a1.089,1.089,0,0,0-1.089-1.089H93.7a1.089,1.089,0,0,0,0,2.177h62.953A1.089,1.089,0,0,0,157.741,33.425ZM156.653,39.4h-71.7a1.089,1.089,0,0,1,0-2.177h71.7a1.089,1.089,0,1,1,0,2.177Zm-31.477,4.889H84.956a1.089,1.089,0,0,1,0-2.177h40.22a1.089,1.089,0,1,1,0,2.177Z" transform="translate(-74.844 -23.995)" fill="#fff"/>
      </g>
      <g id="Grupo_55821" data-name="Grupo 55821" transform="matrix(-0.891, 0.454, -0.454, -0.891, 30.646, 148.893)">
        <path id="Trazado_118220" data-name="Trazado 118220" d="M13.309,11.657a1.821,1.821,0,0,0,.333,1.754,14.782,14.782,0,0,0,1.672,1.864,16.839,16.839,0,0,1,1.916,2.2A8.586,8.586,0,0,1,18.284,19.3a6.946,6.946,0,0,1,.487,1.827,6.717,6.717,0,0,1-.038,1.845,10.739,10.739,0,0,1-.484,1.891,8.832,8.832,0,0,1-2.117,3.511,7.379,7.379,0,0,1-2.951,1.785,9.219,9.219,0,0,1-3.329.4,11.929,11.929,0,0,1-3.231-.643A10.8,10.8,0,0,1,3.24,28.024,9.3,9.3,0,0,1,.948,25.231,8.264,8.264,0,0,1,0,21.757l6.083-1.749c.118.343.239.753.357,1.232a4.326,4.326,0,0,0,.637,1.4A2.758,2.758,0,0,0,8.5,23.661a3.118,3.118,0,0,0,1.272.178,2.325,2.325,0,0,0,1.128-.385,1.8,1.8,0,0,0,.712-.93,2.459,2.459,0,0,0-.049-1.734,6.853,6.853,0,0,0-.987-1.752A15.3,15.3,0,0,0,9.244,17.5q-.685-.688-1.044-1.08a6.406,6.406,0,0,1-1.538-2.436,4.942,4.942,0,0,1-.173-2.27,13.332,13.332,0,0,1,.584-2.247ZM13.974.188h0A3.3,3.3,0,0,1,16,4.4l-.127.36a3.3,3.3,0,0,1-4.213,2.022h0A3.3,3.3,0,0,1,9.634,2.57l.126-.36A3.3,3.3,0,0,1,13.974.188Z" transform="translate(0 0)" fill="#fe7062"/>
      </g>
    </g>
    <g id="Grupo_56935" data-name="Grupo 56935" transform="translate(109.989 30.602)">
      <path id="Trazado_120448" data-name="Trazado 120448" d="M1540.742,67.734l-6.645,5.1,4.954,6.455Z" transform="translate(-1534.097 -67.734)" fill="#00dad7"/>
      <path id="Trazado_120449" data-name="Trazado 120449" d="M1503.175,71.671l-6.645,5.1,4.954,6.456Z" transform="translate(-1483.845 -70.342)" fill="#00dad7"/>
      <path id="Trazado_120450" data-name="Trazado 120450" d="M1465.619,77.72l-6.645,5.1,4.954,6.456Z" transform="translate(-1433.607 -74.348)" fill="#00dad7"/>
    </g>
    <g id="Grupo_56936" data-name="Grupo 56936" transform="translate(247.105 212.665)">
      <path id="Trazado_120451" data-name="Trazado 120451" d="M1377.327,528.325l-5.052,4.089,3.973,4.908Z" transform="translate(-1372.274 -528.325)" fill="#181492"/>
      <path id="Trazado_120452" data-name="Trazado 120452" d="M1336.587,532.625l-5.052,4.089,3.973,4.908Z" transform="translate(-1323.681 -531.796)" fill="#181492"/>
      <path id="Trazado_120453" data-name="Trazado 120453" d="M1295.843,536.931l-5.052,4.089,3.973,4.908Z" transform="translate(-1275.084 -535.272)" fill="#181492"/>
    </g>
    <circle id="Elipse_4310" data-name="Elipse 4310" cx="2.295" cy="2.295" r="2.295" transform="translate(296.398 163.859)" fill="#00dad7" stroke="#581d80" stroke-linecap="round" stroke-miterlimit="10" stroke-width="2"/>
    <g id="Grupo_56938" data-name="Grupo 56938" transform="translate(293.031 92.443)">
      <line id="Línea_580" data-name="Línea 580" y2="4.458" transform="translate(7.922)" fill="none" stroke="#00dad7" stroke-linecap="round" stroke-miterlimit="10" stroke-width="2"/>
      <line id="Línea_581" data-name="Línea 581" x2="3.152" y2="3.153" transform="translate(2.306 2.356)" fill="none" stroke="#00dad7" stroke-linecap="round" stroke-miterlimit="10" stroke-width="2"/>
      <line id="Línea_582" data-name="Línea 582" x2="4.458" transform="translate(0 7.993)" fill="none" stroke="#00dad7" stroke-linecap="round" stroke-miterlimit="10" stroke-width="2"/>
      <line id="Línea_583" data-name="Línea 583" y1="3.152" x2="3.153" transform="translate(2.355 10.458)" fill="none" stroke="#00dad7" stroke-linecap="round" stroke-miterlimit="10" stroke-width="2"/>
      <line id="Línea_584" data-name="Línea 584" y1="4.458" transform="translate(7.993 11.459)" fill="none" stroke="#00dad7" stroke-linecap="round" stroke-miterlimit="10" stroke-width="2"/>
      <line id="Línea_585" data-name="Línea 585" x1="3.152" y1="3.152" transform="translate(10.458 10.408)" fill="none" stroke="#00dad7" stroke-linecap="round" stroke-miterlimit="10" stroke-width="2"/>
      <line id="Línea_586" data-name="Línea 586" x1="4.458" transform="translate(11.458 7.922)" fill="none" stroke="#00dad7" stroke-linecap="round" stroke-miterlimit="10" stroke-width="2"/>
      <line id="Línea_587" data-name="Línea 587" x1="3.152" y2="3.152" transform="translate(10.408 2.306)" fill="none" stroke="#00dad7" stroke-linecap="round" stroke-miterlimit="10" stroke-width="2"/>
    </g>
    <g id="Grupo_56939" data-name="Grupo 56939" transform="translate(149.388 69.773)">
      <line id="Línea_588" data-name="Línea 588" y2="2.549" transform="translate(4.529)" fill="none" stroke="#83b5f9" stroke-linecap="round" stroke-miterlimit="10" stroke-width="2"/>
      <line id="Línea_589" data-name="Línea 589" x2="1.802" y2="1.802" transform="translate(1.319 1.347)" fill="none" stroke="#83b5f9" stroke-linecap="round" stroke-miterlimit="10" stroke-width="2"/>
      <line id="Línea_590" data-name="Línea 590" x2="2.549" transform="translate(0 4.57)" fill="none" stroke="#83b5f9" stroke-linecap="round" stroke-miterlimit="10" stroke-width="2"/>
      <line id="Línea_591" data-name="Línea 591" y1="1.802" x2="1.802" transform="translate(1.347 5.979)" fill="none" stroke="#83b5f9" stroke-linecap="round" stroke-miterlimit="10" stroke-width="2"/>
      <line id="Línea_592" data-name="Línea 592" y1="2.548" transform="translate(4.57 6.551)" fill="none" stroke="#83b5f9" stroke-linecap="round" stroke-miterlimit="10" stroke-width="2"/>
      <line id="Línea_593" data-name="Línea 593" x1="1.802" y1="1.802" transform="translate(5.98 5.951)" fill="none" stroke="#83b5f9" stroke-linecap="round" stroke-miterlimit="10" stroke-width="2"/>
      <line id="Línea_594" data-name="Línea 594" x1="2.548" transform="translate(6.552 4.529)" fill="none" stroke="#83b5f9" stroke-linecap="round" stroke-miterlimit="10" stroke-width="2"/>
      <line id="Línea_595" data-name="Línea 595" x1="1.802" y2="1.802" transform="translate(5.951 1.318)" fill="none" stroke="#83b5f9" stroke-linecap="round" stroke-miterlimit="10" stroke-width="2"/>
    </g>
    <g id="Grupo_56940" data-name="Grupo 56940" transform="translate(43.625 220.831)">
      <line id="Línea_596" data-name="Línea 596" y2="2.549" transform="translate(4.529)" fill="none" stroke="#00dad7" stroke-linecap="round" stroke-miterlimit="10" stroke-width="2"/>
      <line id="Línea_597" data-name="Línea 597" x2="1.802" y2="1.802" transform="translate(1.319 1.347)" fill="none" stroke="#00dad7" stroke-linecap="round" stroke-miterlimit="10" stroke-width="2"/>
      <line id="Línea_598" data-name="Línea 598" x2="2.549" transform="translate(0 4.57)" fill="none" stroke="#00dad7" stroke-linecap="round" stroke-miterlimit="10" stroke-width="2"/>
      <line id="Línea_599" data-name="Línea 599" y1="1.802" x2="1.802" transform="translate(1.347 5.979)" fill="none" stroke="#00dad7" stroke-linecap="round" stroke-miterlimit="10" stroke-width="2"/>
      <line id="Línea_600" data-name="Línea 600" y1="2.548" transform="translate(4.57 6.551)" fill="none" stroke="#00dad7" stroke-linecap="round" stroke-miterlimit="10" stroke-width="2"/>
      <line id="Línea_601" data-name="Línea 601" x1="1.802" y1="1.802" transform="translate(5.98 5.95)" fill="none" stroke="#00dad7" stroke-linecap="round" stroke-miterlimit="10" stroke-width="2"/>
      <line id="Línea_602" data-name="Línea 602" x1="2.548" transform="translate(6.552 4.529)" fill="none" stroke="#00dad7" stroke-linecap="round" stroke-miterlimit="10" stroke-width="2"/>
      <line id="Línea_603" data-name="Línea 603" x1="1.802" y2="1.802" transform="translate(5.951 1.318)" fill="none" stroke="#00dad7" stroke-linecap="round" stroke-miterlimit="10" stroke-width="2"/>
    </g>
    <g id="Grupo_56941" data-name="Grupo 56941" transform="translate(283.931 187.615)">
      <line id="Línea_604" data-name="Línea 604" y2="2.549" transform="translate(4.529)" fill="none" stroke="#00dad7" stroke-linecap="round" stroke-miterlimit="10" stroke-width="2"/>
      <line id="Línea_605" data-name="Línea 605" x2="1.802" y2="1.802" transform="translate(1.319 1.347)" fill="none" stroke="#00dad7" stroke-linecap="round" stroke-miterlimit="10" stroke-width="2"/>
      <line id="Línea_606" data-name="Línea 606" x2="2.549" transform="translate(0 4.57)" fill="none" stroke="#00dad7" stroke-linecap="round" stroke-miterlimit="10" stroke-width="2"/>
      <line id="Línea_607" data-name="Línea 607" y1="1.802" x2="1.802" transform="translate(1.347 5.979)" fill="none" stroke="#00dad7" stroke-linecap="round" stroke-miterlimit="10" stroke-width="2"/>
      <line id="Línea_608" data-name="Línea 608" y1="2.548" transform="translate(4.57 6.551)" fill="none" stroke="#00dad7" stroke-linecap="round" stroke-miterlimit="10" stroke-width="2"/>
      <line id="Línea_609" data-name="Línea 609" x1="1.802" y1="1.802" transform="translate(5.98 5.951)" fill="none" stroke="#00dad7" stroke-linecap="round" stroke-miterlimit="10" stroke-width="2"/>
      <line id="Línea_610" data-name="Línea 610" x1="2.548" transform="translate(6.552 4.529)" fill="none" stroke="#00dad7" stroke-linecap="round" stroke-miterlimit="10" stroke-width="2"/>
      <line id="Línea_611" data-name="Línea 611" x1="1.802" y2="1.802" transform="translate(5.951 1.318)" fill="none" stroke="#00dad7" stroke-linecap="round" stroke-miterlimit="10" stroke-width="2"/>
    </g>
    <g id="Grupo_56942" data-name="Grupo 56942" transform="translate(34.526 163.901)">
      <line id="Línea_612" data-name="Línea 612" y2="2.549" transform="translate(4.529)" fill="none" stroke="#00dad7" stroke-linecap="round" stroke-miterlimit="10" stroke-width="2"/>
      <line id="Línea_613" data-name="Línea 613" x2="1.802" y2="1.802" transform="translate(1.319 1.347)" fill="none" stroke="#00dad7" stroke-linecap="round" stroke-miterlimit="10" stroke-width="2"/>
      <line id="Línea_614" data-name="Línea 614" x2="2.549" transform="translate(0 4.57)" fill="none" stroke="#00dad7" stroke-linecap="round" stroke-miterlimit="10" stroke-width="2"/>
      <line id="Línea_615" data-name="Línea 615" y1="1.802" x2="1.802" transform="translate(1.347 5.979)" fill="none" stroke="#00dad7" stroke-linecap="round" stroke-miterlimit="10" stroke-width="2"/>
      <line id="Línea_616" data-name="Línea 616" y1="2.548" transform="translate(4.57 6.551)" fill="none" stroke="#00dad7" stroke-linecap="round" stroke-miterlimit="10" stroke-width="2"/>
      <line id="Línea_617" data-name="Línea 617" x1="1.802" y1="1.802" transform="translate(5.98 5.951)" fill="none" stroke="#00dad7" stroke-linecap="round" stroke-miterlimit="10" stroke-width="2"/>
      <line id="Línea_618" data-name="Línea 618" x1="2.548" transform="translate(6.552 4.529)" fill="none" stroke="#00dad7" stroke-linecap="round" stroke-miterlimit="10" stroke-width="2"/>
      <line id="Línea_619" data-name="Línea 619" x1="1.802" y2="1.802" transform="translate(5.951 1.318)" fill="none" stroke="#00dad7" stroke-linecap="round" stroke-miterlimit="10" stroke-width="2"/>
    </g>
    <g id="Grupo_56944" data-name="Grupo 56944" transform="translate(64.003 38.068)">
      <path id="Trazado_120454" data-name="Trazado 120454" d="M1499.345,35" transform="translate(-1365.908 -34.998)" fill="none" stroke="#fff" stroke-linecap="round" stroke-miterlimit="10" stroke-width="1"/>
      <path id="Trazado_120455" data-name="Trazado 120455" d="M1589.546,88.414" transform="translate(-1486.568 -70.376)" fill="none" stroke="#fff" stroke-linecap="round" stroke-miterlimit="10" stroke-width="1"/>
      <path id="Trazado_120456" data-name="Trazado 120456" d="M1408.9,129.205" transform="translate(-1244.926 -97.393)" fill="none" stroke="#fff" stroke-linecap="round" stroke-miterlimit="10" stroke-width="1"/>
      <path id="Trazado_120457" data-name="Trazado 120457" d="M1882.365,142.316" transform="translate(-1878.266 -106.077)" fill="none" stroke="#fff" stroke-linecap="round" stroke-miterlimit="10" stroke-width="1"/>
      <path id="Trazado_120458" data-name="Trazado 120458" d="M1259.825,194.275" transform="translate(-1045.507 -140.49)" fill="none" stroke="#fff" stroke-linecap="round" stroke-miterlimit="10" stroke-width="1"/>
      <path id="Trazado_120459" data-name="Trazado 120459" d="M1894.5,322.476" transform="translate(-1894.503 -225.4)" fill="none" stroke="#fff" stroke-linecap="round" stroke-miterlimit="10" stroke-width="1"/>
      <path id="Trazado_120460" data-name="Trazado 120460" d="M1864.154,515.014" transform="translate(-1853.906 -352.922)" fill="none" stroke="#fff" stroke-linecap="round" stroke-miterlimit="10" stroke-width="1"/>
      <path id="Trazado_120461" data-name="Trazado 120461" d="M1777.474,582.271" transform="translate(-1737.956 -397.468)" fill="none" stroke="#fff" stroke-linecap="round" stroke-miterlimit="10" stroke-width="1"/>
      <path id="Trazado_120462" data-name="Trazado 120462" d="M1410.844,575.96" transform="translate(-1247.522 -393.288)" fill="none" stroke="#fff" stroke-linecap="round" stroke-miterlimit="10" stroke-width="1"/>
      <path id="Trazado_120463" data-name="Trazado 120463" d="M1256.424,523.515" transform="translate(-1040.958 -358.553)" fill="none" stroke="#fff" stroke-linecap="round" stroke-miterlimit="10" stroke-width="1"/>
      <path id="Trazado_120464" data-name="Trazado 120464" d="M1256.91,360.836" transform="translate(-1041.608 -250.807)" fill="none" stroke="#fff" stroke-linecap="round" stroke-miterlimit="10" stroke-width="1"/>
      <path id="Trazado_120465" data-name="Trazado 120465" d="M1728.064,41.068" transform="translate(-1671.861 -39.018)" fill="none" stroke="#fff" stroke-linecap="round" stroke-miterlimit="10" stroke-width="1"/>
      <path id="Trazado_120466" data-name="Trazado 120466" d="M1843.031,444.6" transform="translate(-1825.65 -306.288)" fill="none" stroke="#fff" stroke-linecap="round" stroke-miterlimit="10" stroke-width="1"/>
      <path id="Trazado_120467" data-name="Trazado 120467" d="M1322.951,487.58" transform="translate(-1129.949 -334.752)" fill="none" stroke="#fff" stroke-linecap="round" stroke-miterlimit="10" stroke-width="1"/>
      <path id="Trazado_120468" data-name="Trazado 120468" d="M1568.18,547.794" transform="translate(-1457.987 -374.633)" fill="none" stroke="#fff" stroke-linecap="round" stroke-miterlimit="10" stroke-width="1"/>
      <path id="Trazado_120469" data-name="Trazado 120469" d="M1785.486,113.909" transform="translate(-1748.673 -87.262)" fill="none" stroke="#fff" stroke-linecap="round" stroke-miterlimit="10" stroke-width="0.5"/>
      <path id="Trazado_120470" data-name="Trazado 120470" d="M1885.277,227.539" transform="translate(-1882.162 -162.522)" fill="none" stroke="#fff" stroke-linecap="round" stroke-miterlimit="10" stroke-width="0.5"/>
      <path id="Trazado_120471" data-name="Trazado 120471" d="M1326.35,73.361" transform="translate(-1134.496 -60.407)" fill="none" stroke="#fff" stroke-linecap="round" stroke-miterlimit="10" stroke-width="1"/>
    </g>
  </g>
</svg>
