<svg xmlns="http://www.w3.org/2000/svg" width="352.75" height="305" viewBox="0 0 352.75 305">
  <g id="Grupo_55892" data-name="Grupo 55892" transform="translate(-223 -2176)">
    <rect id="Rectángulo_29464" data-name="Rectángulo 29464" width="352.75" height="305" transform="translate(223 2176)" fill="none"/>
    <g id="Grupo_55891" data-name="Grupo 55891" transform="translate(240.363 2176.205)">
      <g id="Grupo_55869" data-name="Grupo 55869" opacity="0.133">
        <g id="Grupo_55868" data-name="Grupo 55868" opacity="0.84">
          <path id="Trazado_118398" data-name="Trazado 118398" d="M45.774,304.531H286.328c-5.747-33.431-14.974-66.677-25.1-98.677-11.119-35.127-58.34-106.745-94.927-111.1l-9.939-1.967c-29.9-3.42-59.724,12.184-79.393,34.959s-30.491,51.882-37.7,81.1c-5.525,22.382-9.158,45.855-4.477,68.429A82.17,82.17,0,0,0,45.774,304.531Z" fill="#fe7062"/>
          <path id="Trazado_118399" data-name="Trazado 118399" d="M48.9,125.937a6.172,6.172,0,1,1,6.694,5.6A6.172,6.172,0,0,1,48.9,125.937Z" fill="#fe7062"/>
          <circle id="Elipse_4191" data-name="Elipse 4191" cx="15.123" cy="15.123" r="15.123" transform="matrix(1, -0.021, 0.021, 1, 62.98, 81.278)" fill="#fe7062"/>
        </g>
      </g>
      <g id="Grupo_55886" data-name="Grupo 55886">
        <g id="Grupo_55885" data-name="Grupo 55885">
          <g id="Grupo_55884" data-name="Grupo 55884">
            <path id="Trazado_118400" data-name="Trazado 118400" d="M214.376,65.768c11.8.239,17.37,11.88,17.671,23.679.1,3.81-.718,7.8.718,11.326,2.066,5.076,7.935,7.342,11.564,11.447a15.68,15.68,0,0,1,2.857,15.588l-10.209,1.012-4.252-9.8c-.435,3.539.044,11.666-.391,15.2-19.765.1-40.435-2.613-59.864,1.017a83.936,83.936,0,0,1-1.314-15.284c-1.959,5.247-.356,9.527-1.234,15.878-4.065-.246-10.971.722-14.979,1.449A20.89,20.89,0,0,1,159.1,118c3.306-3.813,5.568-4.761,9.61-7.783,3.967-2.964.581-7.773.725-13.529.263-10.557,9.513-21.036,17.636-27.783s17.5-6.929,27.52-3.6" fill="#04090d"/>
            <g id="Grupo_55876" data-name="Grupo 55876">
              <path id="Trazado_118401" data-name="Trazado 118401" d="M183.647,137.522" fill="#0c152c"/>
              <g id="Grupo_55875" data-name="Grupo 55875">
                <g id="Grupo_55874" data-name="Grupo 55874">
                  <g id="Grupo_55870" data-name="Grupo 55870">
                    <path id="Trazado_118402" data-name="Trazado 118402" d="M190.956,120.949s-.846,24.07-2.327,25.418c-.336.3-4.145.968-5.441,1.617,3.951,7.461,21.07,24.96,21.07,24.96l19.773-26.581-8.1-.648-3.181-23.9Z" fill="#f7ccb1"/>
                    <path id="Trazado_118403" data-name="Trazado 118403" d="M192.617,121.994h17.812s-1.738,9.707-10.082,9.074S192.617,121.994,192.617,121.994Z" fill="#f7a36f"/>
                  </g>
                  <g id="Grupo_55873" data-name="Grupo 55873">
                    <path id="Trazado_118404" data-name="Trazado 118404" d="M181.409,91.266s-1.048,7.168-.765,8.017-5.562-2.5-5.031,3.084c.325,3.408,2.069,6,5.843,6.005,0,0,3.686,17.874,19.227,17.319,18.82-.672,21.072-13.784,21.072-13.784s5.794-.938,6.119-5.969c.123-4.455-3.409-4.058-3.409-4.058s3.12-10.824,1.235-17.429-1.637-18.078-17.487-19.4S182.452,77.4,181.884,81.36A79.238,79.238,0,0,0,181.409,91.266Z" fill="#f7ccb1"/>
                    <path id="Trazado_118405" data-name="Trazado 118405" d="M197.412,125.512a18.3,18.3,0,0,0,3.271.179c14.359-.513,19.069-8.262,20.5-11.909C213.667,118.665,205.694,122.933,197.412,125.512Z" fill="#f7a36f"/>
                    <g id="Grupo_55871" data-name="Grupo 55871">
                      <path id="Trazado_118406" data-name="Trazado 118406" d="M209.537,64.217A27.072,27.072,0,0,0,193.683,65.8c-17.173,5.089-13.808,32.3-13.808,32.3,3.57,8.344,6.836.154,9.153-7.362a6.121,6.121,0,0,1,6.617-4.4c3.295.506,7.629-1.283,9.071-7.019a51.525,51.525,0,0,0,19.565,22.655C227.532,103.108,242.617,69.322,209.537,64.217Z" fill="#04090d"/>
                    </g>
                    <g id="Grupo_55872" data-name="Grupo 55872">
                      <path id="Trazado_118407" data-name="Trazado 118407" d="M206.176,97.007a2.514,2.514,0,0,1,2.42-1.08c4.463.649,4.316,2.7,4.316,2.7Z" fill="#060b0f"/>
                      <path id="Trazado_118408" data-name="Trazado 118408" d="M198.573,93.342a4.392,4.392,0,0,0-3.047-1.59c-3.037-.253-3.36.84-4.2,1.512Z" fill="#060b0f"/>
                      <path id="Trazado_118409" data-name="Trazado 118409" d="M199.675,109.391l2.742.589c.685.071.362-10.872.362-10.872S199.007,109.322,199.675,109.391Z" fill="#f7a36f"/>
                      <path id="Trazado_118410" data-name="Trazado 118410" d="M180.482,101.718a43.975,43.975,0,0,0,.612,4.76c.283.849-3.094-.757-3.046-2.975S180.482,101.718,180.482,101.718Z" fill="#f7a36f"/>
                      <path id="Trazado_118411" data-name="Trazado 118411" d="M222.842,109.021l1.461-5.193a1.877,1.877,0,0,1,1.461,2.434C224.952,109.021,222.842,109.021,222.842,109.021Z" fill="#f7a36f"/>
                      <path id="Trazado_118412" data-name="Trazado 118412" d="M209.55,104.786c-.3,1.114-1.057,1.879-1.693,1.708s-.911-1.212-.612-2.326,1.057-1.879,1.693-1.708S209.849,103.672,209.55,104.786Z" fill="#060b0f"/>
                      <path id="Trazado_118413" data-name="Trazado 118413" d="M197.5,103.574c-.068,1.151-.657,2.053-1.315,2.014s-1.136-1-1.068-2.155.656-2.054,1.314-2.015S197.566,102.422,197.5,103.574Z" fill="#060b0f"/>
                      <path id="Trazado_118414" data-name="Trazado 118414" d="M191.146,105.97a3.871,3.871,0,1,1-5.195,1.729A3.872,3.872,0,0,1,191.146,105.97Z" fill="#f7c5a5"/>
                      <path id="Trazado_118415" data-name="Trazado 118415" d="M214.02,109.108a3.871,3.871,0,1,1-5.194,1.729A3.87,3.87,0,0,1,214.02,109.108Z" fill="#f7c5a5"/>
                      <path id="Trazado_118416" data-name="Trazado 118416" d="M198.672,112.879a21.529,21.529,0,0,1,3.221.644" fill="none" stroke="#060b0f" stroke-miterlimit="10" stroke-width="0.492"/>
                    </g>
                  </g>
                </g>
              </g>
            </g>
            <g id="Grupo_55877" data-name="Grupo 55877">
              <path id="Trazado_118417" data-name="Trazado 118417" d="M250.115,304.531c-5.726-30.111-13.293-55.783-23.156-72.084-17.846-2.461-40.631-1.14-58.727-.6-9,15.916-13.761,27.573-18.934,47.808-.979,3.826-3.449,12.634-6.911,24.877Z" fill="#20253e"/>
              <path id="Trazado_118418" data-name="Trazado 118418" d="M222.254,231.943c8.4,22.949,15.4,45.949,19.546,69.765" fill="none" stroke="#fff" stroke-miterlimit="10" stroke-width="0.471"/>
              <path id="Trazado_118419" data-name="Trazado 118419" d="M158.563,301.722c6.092-22.83,12.092-45.83,18.321-69.275" fill="none" stroke="#fff" stroke-miterlimit="10" stroke-width="0.471"/>
              <path id="Trazado_118420" data-name="Trazado 118420" d="M225.951,230.6l-73.734,63.3s3.379-37.286,16.433-61.792Z" opacity="0.21" style="mix-blend-mode: multiply;isolation: isolate"/>
            </g>
            <path id="Trazado_118421" data-name="Trazado 118421" d="M229.816,222.2l-2.857,10.25-58.309-.336.168-9.746Z" fill="#20253e"/>
            <path id="Trazado_118422" data-name="Trazado 118422" d="M217.381,145.74c.187-.457,21.228-19.26,26.214,30.919,4.04,40.669,3.718,45.018,3.718,45.018s-19.686,5.18-20.616,3.06C202.625,169.9,217.381,145.74,217.381,145.74Z" fill="#e5e2e1"/>
            <g id="Grupo_55878" data-name="Grupo 55878">
              <path id="Trazado_118423" data-name="Trazado 118423" d="M215.7,143.472c2.432,2.431,21.621,42.922,22.125,55.284a64.276,64.276,0,0,1-3.977,24.617s-63.635.955-65.03,1.513c-4.025-36.67-9.775-62.555.063-68.369,0,0,17.81-14.872,20.606-16.574C189.487,139.943,208.391,171.954,215.7,143.472Z" fill="#91b3fa"/>
            </g>
            <g id="Grupo_55879" data-name="Grupo 55879">
              <path id="Trazado_118424" data-name="Trazado 118424" d="M184.659,143.078l5.074-9.905,18.12,21.985-5.557,12.08Z" fill="#fdfbf9"/>
              <path id="Trazado_118425" data-name="Trazado 118425" d="M214.859,136.555l-7.006,18.6L214.376,167l6.523-19.569Z" fill="#fdfbf9"/>
            </g>
            <g id="Grupo_55880" data-name="Grupo 55880" style="mix-blend-mode: multiply;isolation: isolate">
              <path id="Trazado_118426" data-name="Trazado 118426" d="M173.024,162.073a1.149,1.149,0,0,1-.538-.152c-4-2.125-8.22.585-8.741,5.087-1.366,11.794,2.272,31.849,5.073,57.374,1.391-.558,64.526,0,64.526,0s.943,1.167,1.6-4.377a4.113,4.113,0,0,0-4.206-4.605c-34.59,1.016-58.317,9.982-55.616-51.99C175.161,162.469,173.966,162.075,173.024,162.073Z" fill="#91b3fa"/>
            </g>
            <g id="Grupo_55883" data-name="Grupo 55883">
              <g id="Grupo_55881" data-name="Grupo 55881">
                <path id="Trazado_118427" data-name="Trazado 118427" d="M219.437,138.326s-5.834,76.571,9.844,86.206c15.341,9.427,21.578-2.857,20.931-12.035-.855-12.134-12.966-62.29-20.294-81.5-2.255-7.731-7.57-16.912-9.341-15.462-1.289,2.416-.484,8.214-.484,8.214s-22.468-1.007-24.079.121c-.743.52,1.692,1.973,11.839,4.227-1.128,1.933.644,7.732.644,7.732Z" fill="#f7ccb1"/>
              </g>
              <g id="Grupo_55882" data-name="Grupo 55882" opacity="0.53">
                <path id="Trazado_118428" data-name="Trazado 118428" d="M196.146,124.089c3.924,2.882,9.037,3.43,13.884,3.881" fill="none" stroke="#b24d55" stroke-linecap="round" stroke-miterlimit="10" stroke-width="0.492"/>
                <path id="Trazado_118429" data-name="Trazado 118429" d="M207.485,128.1c.233.386.045.892.153,1.33a1.8,1.8,0,0,0,.664.883,8.567,8.567,0,0,0,4.144,1.868" fill="none" stroke="#b24d55" stroke-linecap="round" stroke-miterlimit="10" stroke-width="0.492"/>
                <path id="Trazado_118430" data-name="Trazado 118430" d="M208.085,130.154c.122,1.259-.081,2.615.534,3.72a3.739,3.739,0,0,0,1.89,1.558,11.142,11.142,0,0,0,2.419.595" fill="none" stroke="#b24d55" stroke-linecap="round" stroke-miterlimit="10" stroke-width="0.492"/>
              </g>
            </g>
          </g>
          <path id="Trazado_118431" data-name="Trazado 118431" d="M109.883,224.79a15.382,15.382,0,0,1,1.249-17.134c6.6-8.472,19.928-20.369,37.086-39.63,10.359-11.63,20.858-16.6,26.718-16.132,9.32.739,9.429,14.677,3.528,21.929-12.672,15.574-43.079,44.909-44.056,46.083,7.126,14.311,14.466,23.808,20.517,32.563a8.443,8.443,0,0,0,1.1,1.293,17.022,17.022,0,0,1,4.814,7.689c1.955,7.12,4.721,18.333,2.652,17.988-3.025-.5-7.057-10.335-7.057-10.335s2.268,26.466-2.521,26.971c-.5-.505-4.285-17.14-3.781-20.165,0,0,1.528,19.427,0,20.669-4.033,3.276-3.277-2.269-3.277-2.269l-2.016-26.718S121.207,244.386,109.883,224.79Z" fill="#f7ccb1"/>
          <path id="Trazado_118432" data-name="Trazado 118432" d="M174.936,151.894c-5.86-.465-16.359,4.5-26.718,16.132-8.966,10.064-16.872,18.1-23.333,24.709q.525.462,1.047.926c.023.021.048.041.072.062a8.1,8.1,0,0,1,1.7,1.234q8.9,8.4,17.537,17.066c9.479-10.6,24.744-27.783,33.221-38.2C184.365,166.571,184.256,152.633,174.936,151.894Z" fill="#91b3fa"/>
        </g>
      </g>
      <g id="Grupo_55890" data-name="Grupo 55890" opacity="0.66">
        <g id="Grupo_55887" data-name="Grupo 55887">
          <path id="Trazado_118433" data-name="Trazado 118433" d="M132.038,26.924c6.581-7.616,15.043-12.129,24.445-12.129,12.506,0,22.378,6.581,22.378,19.275,0,12.223-14.949,15.232-14.949,20.873v5.171h-17.4l-.094-7.522c0-8.65,14.95-13.539,14.95-18.71,0-3.573-3.667-4.419-6.958-4.419-4.043,0-9.026,3.948-12.222,7.709ZM154.7,63.917c6.676,0,11.189,4.608,11.189,9.967,0,5.265-4.325,9.684-11.189,9.684-6.111,0-10.719-4.795-10.719-9.684A10.327,10.327,0,0,1,154.7,63.917Z" fill="#57dbd8"/>
        </g>
        <g id="Grupo_55888" data-name="Grupo 55888">
          <path id="Trazado_118434" data-name="Trazado 118434" d="M111.547,126.9c1.337-5.544,4.426-10.014,9.161-12.456,6.3-3.247,12.978-2.5,16.274,3.9,3.174,6.155-3.573,11.552-2.108,14.393l1.342,2.6-8.759,4.517-2-3.764c-2.246-4.356,4.013-10.7,2.67-13.3-.927-1.8-2.994-1.274-4.651-.419-2.036,1.049-3.52,4.332-4.153,7.056Zm21.016,12.745c3.362-1.733,6.831-.585,8.223,2.114,1.367,2.651.337,6-3.12,7.782-3.077,1.587-6.643.369-7.912-2.093A5.851,5.851,0,0,1,132.563,139.643Z" fill="#57dbd8"/>
        </g>
        <g id="Grupo_55889" data-name="Grupo 55889">
          <path id="Trazado_118435" data-name="Trazado 118435" d="M250.236,49.12c5.425-1.759,10.851-1.463,15.407,1.3,6.061,3.67,8.914,9.757,5.189,15.909-3.587,5.924-11.715,3-13.371,5.729l-1.517,2.506-8.431-5.1,2.162-3.673c2.539-4.192,11.219-2.174,12.737-4.681,1.048-1.731-.481-3.218-2.076-4.184-1.959-1.186-5.533-.735-8.186.15Zm.125,24.579c3.236,1.959,4.071,5.517,2.5,8.114-1.545,2.552-4.938,3.424-8.265,1.41-2.961-1.794-3.787-5.47-2.352-7.839A5.849,5.849,0,0,1,250.361,73.7Z" fill="#57dbd8"/>
        </g>
      </g>
    </g>
  </g>
</svg>
