<svg xmlns="http://www.w3.org/2000/svg" width="353" height="305" viewBox="0 0 353 305">
  <g id="Grupo_55899" data-name="Grupo 55899" transform="translate(-223 -3779)">
    <rect id="Rectángulo_29466" data-name="Rectángulo 29466" width="353" height="305" transform="translate(223 3779)" fill="none"/>
    <g id="Grupo_55897" data-name="Grupo 55897" transform="translate(217.674 3779.102)">
      <g id="freepik--Windows--inject-45">
        <path id="Trazado_118436" data-name="Trazado 118436" d="M110.648,7.311,114.866,4.9l.26,92.2-.008.008-34,19.412-.016-4.825-.252-87.376Z" fill="#f0f0f0"/>
        <path id="Trazado_118437" data-name="Trazado 118437" d="M110.9,94.679l-.252-87.368L114.866,4.9l.26,92.2-.008.008-4.234-2.421Z" opacity="0.1" style="isolation: isolate"/>
        <path id="Trazado_118438" data-name="Trazado 118438" d="M81.1,111.693l29.78-17.007,4.234,2.421-34,19.412Z" opacity="0.2" style="isolation: isolate"/>
        <path id="Trazado_118439" data-name="Trazado 118439" d="M64.121,33.874l4.218-2.413.26,92.2-.008.008-34,19.412-.016-4.825L34.326,50.88Z" fill="#f0f0f0"/>
        <path id="Trazado_118440" data-name="Trazado 118440" d="M64.374,121.241l-.252-87.368,4.218-2.413.26,92.2-.008.008-4.234-2.421Z" opacity="0.1" style="isolation: isolate"/>
        <path id="Trazado_118441" data-name="Trazado 118441" d="M34.578,138.256l29.78-17.007,4.234,2.421-34,19.412Z" opacity="0.2" style="isolation: isolate"/>
      </g>
      <g id="freepik--Floor--inject-45">
        <path id="Trazado_118442" data-name="Trazado 118442" d="M287.509,161.758c-55.165-31.853-144.316-31.853-199.129,0s-54.515,83.5.65,115.343,144.322,31.853,199.129,0S342.68,193.612,287.509,161.758Z" fill="#f5f5f5"/>
      </g>
      <g id="Grupo_55894" data-name="Grupo 55894">
        <g id="freepik--Clock--inject-45">
          <path id="Trazado_118443" data-name="Trazado 118443" d="M201.454,12.315h0c-.075-.053-.147-.109-.217-.169h0Z" fill="none"/>
          <path id="Trazado_118444" data-name="Trazado 118444" d="M202.665,13.33h0Z" fill="none"/>
          <path id="Trazado_118445" data-name="Trazado 118445" d="M194.111,8.606a1.56,1.56,0,0,1-.3-.061l.291.055Z" fill="none"/>
          <path id="Trazado_118446" data-name="Trazado 118446" d="M194.822,8.775l-.278-.067.264.067Z" fill="none"/>
          <path id="Trazado_118447" data-name="Trazado 118447" d="M197.739,9.926Z" fill="none"/>
          <path id="Trazado_118448" data-name="Trazado 118448" d="M207.226,45.894c.2-.063.388-.13.569-.2A5.82,5.82,0,0,1,207.226,45.894Z" fill="none"/>
          <path id="Trazado_118449" data-name="Trazado 118449" d="M209.453,21.749h0l-.122-.21h0Z" fill="none"/>
          <path id="Trazado_118450" data-name="Trazado 118450" d="M208.708,20.524l-.148-.237h0Z" fill="none"/>
          <path id="Trazado_118451" data-name="Trazado 118451" d="M203.883,14.467l-.135-.122Z" fill="none"/>
          <path id="Trazado_118452" data-name="Trazado 118452" d="M204.7,15.306l-.007-.007.007.007Z" fill="none"/>
          <path id="Trazado_118453" data-name="Trazado 118453" d="M206.719,17.688Z" fill="none"/>
          <path id="Trazado_118454" data-name="Trazado 118454" d="M205.616,46.192a3.885,3.885,0,0,0,.629-.074C206.029,46.152,205.826,46.152,205.616,46.192Z" fill="none"/>
          <path id="Trazado_118455" data-name="Trazado 118455" d="M193.983,40.738c.318.3.636.609.967.893C194.619,41.32,194.3,41.015,193.983,40.738Z" fill="none"/>
          <path id="Trazado_118456" data-name="Trazado 118456" d="M198.612,44.277c.3.176.6.332.9.481C199.214,44.609,198.916,44.453,198.612,44.277Z" fill="none"/>
          <path id="Trazado_118457" data-name="Trazado 118457" d="M197.495,43.58a12.882,12.882,0,0,0,1.11.677C198.239,44.06,197.867,43.824,197.495,43.58Z" fill="none"/>
          <path id="Trazado_118458" data-name="Trazado 118458" d="M203.166,46.043l.325.061Z" fill="none"/>
          <path id="Trazado_118459" data-name="Trazado 118459" d="M210.745,24.178l-.04-.088h0Z" fill="none"/>
          <path id="Trazado_118460" data-name="Trazado 118460" d="M190.47,8.457" fill="none"/>
          <path id="Trazado_118461" data-name="Trazado 118461" d="M192.609,8.383h0Z" fill="none"/>
          <path id="Trazado_118462" data-name="Trazado 118462" d="M191.31,8.369Z" fill="none"/>
          <path id="Trazado_118463" data-name="Trazado 118463" d="M193.435,8.471h0l-.318-.041h.284Z" fill="none"/>
          <path id="Trazado_118464" data-name="Trazado 118464" d="M189.489,8.674Z" fill="none"/>
          <path id="Trazado_118465" data-name="Trazado 118465" d="M188.779,8.931l-.109.041.1-.041Z" fill="none"/>
          <path id="Trazado_118466" data-name="Trazado 118466" d="M200.114,11.34l-.041-.034Z" fill="none"/>
          <path id="Trazado_118467" data-name="Trazado 118467" d="M213.737,39.77a2.425,2.425,0,0,1-.075.433A1.219,1.219,0,0,1,213.737,39.77Z" fill="none"/>
          <path id="Trazado_118468" data-name="Trazado 118468" d="M213.364,41.286c-.033.128-.067.257-.108.386C213.3,41.543,213.331,41.414,213.364,41.286Z" fill="none"/>
          <path id="Trazado_118469" data-name="Trazado 118469" d="M213.554,40.555a1.623,1.623,0,0,1-.1.4C213.493,40.826,213.527,40.69,213.554,40.555Z" fill="none"/>
          <path id="Trazado_118470" data-name="Trazado 118470" d="M212.884,42.646l-.142.338Z" fill="none"/>
          <path id="Trazado_118471" data-name="Trazado 118471" d="M213.141,41.983c-.04.122-.081.244-.128.365C213.06,42.227,213.1,42.091,213.141,41.983Z" fill="none"/>
          <path id="Trazado_118472" data-name="Trazado 118472" d="M212.593,43.269c-.054.108-.1.216-.162.318C212.491,43.485,212.539,43.377,212.593,43.269Z" fill="none"/>
          <path id="Trazado_118473" data-name="Trazado 118473" d="M212.5,28.5v0Z" fill="none"/>
          <path id="Trazado_118474" data-name="Trazado 118474" d="M198.706,10.447c.217.122.427.25.636.386C199.133,10.7,198.923,10.569,198.706,10.447Z" fill="none"/>
          <path id="Trazado_118475" data-name="Trazado 118475" d="M213.913,38.031l-.041.575Z" fill="none"/>
          <path id="Trazado_118476" data-name="Trazado 118476" d="M213.831,38.917l-.061.5Z" fill="none"/>
          <path id="Trazado_118477" data-name="Trazado 118477" d="M213.953,36.853v0Z" fill="none"/>
          <path id="Trazado_118478" data-name="Trazado 118478" d="M213.913,35.527v-.088A.433.433,0,0,0,213.913,35.527Z" fill="none"/>
          <path id="Trazado_118479" data-name="Trazado 118479" d="M213.737,33.97v0Z" fill="none"/>
          <path id="Trazado_118480" data-name="Trazado 118480" d="M210.9,45.6l.223-.23Z" fill="none"/>
          <path id="Trazado_118481" data-name="Trazado 118481" d="M213.432,31.94v0Z" fill="none"/>
          <path id="Trazado_118482" data-name="Trazado 118482" d="M213.622,32.948h0a2.313,2.313,0,0,0-.075-.412h0C213.574,32.678,213.6,32.813,213.622,32.948Z" fill="none"/>
          <path id="Trazado_118483" data-name="Trazado 118483" d="M212.268,43.851c-.054.1-.115.2-.176.3C212.153,44.054,212.214,43.952,212.268,43.851Z" fill="none"/>
          <path id="Trazado_118484" data-name="Trazado 118484" d="M210.224,46.152l-.257.189Z" fill="none"/>
          <path id="Trazado_118485" data-name="Trazado 118485" d="M211.537,44.9a2.481,2.481,0,0,1-.21.25A2.481,2.481,0,0,0,211.537,44.9Z" fill="none"/>
          <path id="Trazado_118486" data-name="Trazado 118486" d="M211.916,44.4c-.061.088-.122.183-.189.271C211.794,44.582,211.855,44.487,211.916,44.4Z" fill="none"/>
          <path id="Trazado_118487" data-name="Trazado 118487" d="M210.685,45.786a2.356,2.356,0,0,1-.237.21A2.356,2.356,0,0,0,210.685,45.786Z" fill="none"/>
          <path id="Trazado_118488" data-name="Trazado 118488" d="M188.42,10.914l-.223.149Z" fill="none"/>
          <path id="Trazado_118489" data-name="Trazado 118489" d="M186.295,28.847c-.149-.392-.291-.785-.42-1.177C186,28.062,186.146,28.455,186.295,28.847Z" fill="none"/>
          <path id="Trazado_118490" data-name="Trazado 118490" d="M185.842,27.575h0c-.136-.406-.258-.812-.373-1.218h0C185.584,26.763,185.706,27.2,185.842,27.575Z" fill="none"/>
          <path id="Trazado_118491" data-name="Trazado 118491" d="M209.988,43.939c-.213.035-.428.06-.643.074H208.2a7.725,7.725,0,0,1-.948-.1,3.047,3.047,0,0,1-.636-.115l-.2-.054-.446-.108c-.251-.068-.508-.149-.765-.237l-.156-.054-.622-.237-.237-.1-.677-.312-.25-.122c-.3-.155-.6-.311-.9-.487s-.745-.453-1.117-.677l-.183-.121c-.352-.244-.676-.494-1.042-.758l-.2-.156c-.345-.277-.677-.555-1.028-.853l-.088-.081c-.332-.291-.677-.6-.968-.9-.054-.054-.108-.1-.156-.156-.243-.236-.487-.487-.724-.737l-.041-.041-.676-.737L196,36.711c-.358-.413-.676-.832-1.042-1.265l-.108-.142c-.271-.352-.528-.677-.785-1.07l-.115-.155c-.244-.352-.481-.677-.717-1.07l-.163-.257c-.189-.3-.372-.6-.548-.9-.041-.068-.081-.128-.115-.2-.2-.345-.4-.677-.589-1.049l-.135-.264c-.149-.284-.291-.568-.433-.853-.048-.094-.095-.189-.136-.284-.176-.359-.338-.717-.5-1.083l-.061-.155c-.142-.332-.278-.677-.406-.988-.041-.095-.075-.2-.115-.3-.149-.386-.291-.778-.42-1.178a.149.149,0,0,0-.034-.094c-.135-.406-.257-.812-.372-1.212a2.457,2.457,0,0,0-.068-.237c-.128-.473-.243-.947-.345-1.414a1.176,1.176,0,0,0-.068-.311l-.1-.555a2.478,2.478,0,0,0-.068-.386c-.02-.128-.061-.379-.088-.568s-.034-.224-.047-.339c-.054-.406-.1-.812-.122-1.211V18.92c0-.413-.041-.826-.041-1.232,0-3.384.907-5.962,2.43-7.674,2.281-.487,5.042.047,8.019,1.766,7.81,4.507,14.131,15.443,14.1,24.424,0,3.383-.9,5.955-2.422,7.667l-.2.047Z" fill="none"/>
          <path id="Trazado_118492" data-name="Trazado 118492" d="M189.334,34.911c-.19-.291-.373-.6-.549-.9C188.961,34.315,189.144,34.613,189.334,34.911Z" fill="none"/>
          <path id="Trazado_118493" data-name="Trazado 118493" d="M192.264,38.877c-.359-.413-.677-.833-1.042-1.266C191.56,38.044,191.9,38.464,192.264,38.877Z" fill="none"/>
          <path id="Trazado_118494" data-name="Trazado 118494" d="M187.513,31.656c.142.284.284.568.433.846C187.8,32.224,187.655,31.94,187.513,31.656Z" fill="none"/>
          <path id="Trazado_118495" data-name="Trazado 118495" d="M188.7,33.821h0c-.2-.345-.4-.676-.588-1.048h0A7.742,7.742,0,0,0,188.7,33.821Z" fill="none"/>
          <path id="Trazado_118496" data-name="Trazado 118496" d="M208.512,45.353h.048c-.19.1-.386.2-.582.284h0C208.167,45.529,208.323,45.475,208.512,45.353Z" fill="none"/>
          <path id="Trazado_118497" data-name="Trazado 118497" d="M190.213,36.244c-.243-.352-.48-.677-.71-1.069C189.733,35.534,189.97,35.892,190.213,36.244Z" fill="none"/>
          <path id="Trazado_118498" data-name="Trazado 118498" d="M193.062,39.77c-.223-.237-.439-.481-.676-.731h0C192.622,39.289,192.839,39.533,193.062,39.77Z" fill="none"/>
          <path id="Trazado_118499" data-name="Trazado 118499" d="M196.067,42.545c-.365-.291-.731-.589-1.083-.907a.552.552,0,0,0,.054.054C195.377,41.983,195.722,42.267,196.067,42.545Z" fill="none"/>
          <path id="Trazado_118500" data-name="Trazado 118500" d="M197.312,43.445l.136.088c-.44-.3-.88-.616-1.306-.948l.128.1C196.615,42.964,196.96,43.215,197.312,43.445Z" fill="none"/>
          <path id="Trazado_118501" data-name="Trazado 118501" d="M208.627,45.3" fill="none"/>
          <path id="Trazado_118502" data-name="Trazado 118502" d="M193.827,40.555c-.244-.237-.487-.487-.724-.738C193.34,40.061,193.583,40.318,193.827,40.555Z" fill="none"/>
          <path id="Trazado_118503" data-name="Trazado 118503" d="M200.439,45.191h0c-.278-.122-.548-.244-.826-.386l.149.074Q200.107,45.049,200.439,45.191Z" fill="none"/>
          <path id="Trazado_118504" data-name="Trazado 118504" d="M201.3,45.536l.156.054c.25.088.5.162.751.237a14.5,14.5,0,0,1-1.543-.535h0Z" fill="none"/>
          <path id="Trazado_118505" data-name="Trazado 118505" d="M204.452,46.2h0Z" fill="none"/>
          <path id="Trazado_118506" data-name="Trazado 118506" d="M205.447,46.206h-.819C204.939,46.219,205.183,46.219,205.447,46.206Z" fill="none"/>
          <path id="Trazado_118507" data-name="Trazado 118507" d="M207.125,45.928c-.23.061-.467.115-.677.163h0C206.672,46.043,206.9,45.989,207.125,45.928Z" fill="none"/>
          <path id="Trazado_118508" data-name="Trazado 118508" d="M202.855,45.982a1.087,1.087,0,0,1-.244-.06h.054Z" fill="none"/>
          <path id="Trazado_118509" data-name="Trazado 118509" d="M191.113,37.462h0c-.27-.352-.527-.676-.785-1.069h0C190.586,36.765,190.843,37.117,191.113,37.462Z" fill="none"/>
          <path id="Trazado_118510" data-name="Trazado 118510" d="M186.39,12.877l-.163.23Z" fill="none"/>
          <path id="Trazado_118511" data-name="Trazado 118511" d="M186.748,12.41c-.06.074-.121.142-.176.216A1.285,1.285,0,0,1,186.748,12.41Z" fill="none"/>
          <path id="Trazado_118512" data-name="Trazado 118512" d="M186.065,13.384l-.149.244Z" fill="none"/>
          <path id="Trazado_118513" data-name="Trazado 118513" d="M187.533,11.584l-.2.183Z" fill="none"/>
          <path id="Trazado_118514" data-name="Trazado 118514" d="M187.967,11.232l-.217.162Z" fill="none"/>
          <path id="Trazado_118515" data-name="Trazado 118515" d="M187.127,11.976c-.061.068-.128.129-.189.2C187,12.1,187.066,12.044,187.127,11.976Z" fill="none"/>
          <path id="Trazado_118516" data-name="Trazado 118516" d="M186.41,29.145c.129.332.264.677.406.988C186.667,29.8,186.539,29.477,186.41,29.145Z" fill="none"/>
          <path id="Trazado_118517" data-name="Trazado 118517" d="M186.877,30.289c.162.365.325.724.5,1.083C187.2,31.013,187.039,30.654,186.877,30.289Z" fill="none"/>
          <path id="Trazado_118518" data-name="Trazado 118518" d="M193.062,39.77c-.223-.237-.439-.481-.676-.731h0l-.142-.162h0c-.359-.413-.677-.833-1.043-1.266l-.108-.142h0c-.271-.345-.528-.677-.785-1.062h0l-.115-.156h0c-.244-.352-.48-.677-.711-1.069-.06-.088-.115-.176-.169-.264h0c-.189-.3-.372-.6-.548-.9a1.748,1.748,0,0,1-.115-.19h0c-.2-.345-.4-.676-.589-1.049h0l-.135-.27c-.149-.278-.291-.562-.433-.846l-.136-.285c-.175-.358-.338-.717-.5-1.082l-.061-.156c-.142-.332-.278-.677-.406-.988l-.115-.3h0c-.149-.392-.291-.785-.42-1.177a.153.153,0,0,0-.034-.095h0c-.135-.406-.257-.812-.372-1.218h0l-.061-.23c-.135-.474-.25-.948-.352-1.415h0a1.225,1.225,0,0,0-.067-.311l-.1-.555a3.376,3.376,0,0,0-.061-.352h0a4.133,4.133,0,0,0-.088-.568c-.027-.19-.034-.224-.047-.339-.054-.406-.088-.812-.122-1.211v-.257c0-.413-.041-.826-.041-1.232V18.771a1.925,1.925,0,0,1,.041-.487c.041-.156,0-.2.034-.305s0-.311.054-.46a1.021,1.021,0,0,0,.054-.311c.014-.1.047-.278.075-.413s.047-.21.067-.318.061-.251.088-.379.061-.2.088-.3.068-.237.108-.352l.1-.3c.041-.109.074-.224.122-.332s.081-.183.115-.277.088-.21.135-.312.088-.176.136-.264.094-.2.148-.291l.149-.243.163-.278.162-.23c.061-.081.115-.169.183-.25s.115-.142.176-.217.122-.155.189-.23.129-.135.19-.2l.2-.21.2-.182.216-.19.217-.162.23-.17.223-.148a7.009,7.009,0,0,1,2.267-.914c-1.522,1.712-2.416,4.318-2.429,7.674,0,.406,0,.819.041,1.232V19.2a9.318,9.318,0,0,0,.121,1.211,2.659,2.659,0,0,0,.048.339c.013.108.054.379.088.568s.04.257.067.386l.1.555a1.779,1.779,0,0,0,.068.311c.1.467.216.941.345,1.415a2.359,2.359,0,0,1,.067.236c.115.4.237.806.373,1.212a.143.143,0,0,0,.033.094c.129.4.271.792.42,1.178.041.1.074.2.115.3.129.331.264.676.406.988l.061.155c.162.366.325.725.5,1.083.04.095.088.19.135.284.142.285.284.569.433.853l.136.264c.189.352.385.677.588,1.049.034.068.075.129.115.2.176.3.359.6.549.9l.162.257c.237.359.474.718.717,1.07l.115.155c.257.366.515.718.785,1.07l.109.142c.338.433.676.852,1.042,1.265l.135.163.677.737.04.041c.237.25.481.5.725.738.047.054.1.1.155.155.318.305.636.609.968.9l.088.081c.338.3.677.576,1.029.853l.2.156c.338.264.676.514,1.042.758l.183.122c.372.243.744.48,1.116.676s.6.332.9.488l.251.121.676.312.237.1.623.237.155.054c.258.088.515.169.765.237l.447.108.2.054c.216.048.426.082.636.115a7.71,7.71,0,0,0,.947.1H209.3c.215-.014.43-.039.643-.074h.2l.2-.048a6.927,6.927,0,0,1-1.753,1.435h0l-.067.034h-.048c-.169.095-.345.176-.521.257h0l-.182.074q-.277.115-.569.2h-.1c-.224.06-.454.115-.677.155h-.183c-.21,0-.413.054-.629.075h-1.59l-.515-.061-.325-.061-.311-.061-.189-.047h-.055l-.4-.1c-.25-.075-.5-.149-.751-.237l-.156-.054L200.7,45.3h0l-.223-.1h0c-.226-.095-.451-.2-.677-.3l-.149-.075a.545.545,0,0,1-.108-.054c-.3-.149-.6-.3-.9-.48s-.745-.454-1.11-.677h-.054l-.136-.088c-.352-.244-.676-.494-1.042-.758l-.128-.1-.075-.054c-.345-.277-.677-.561-1.028-.852a.477.477,0,0,1-.055-.055h-.033c-.332-.284-.677-.588-.968-.893l-.156-.155c-.243-.237-.487-.488-.724-.738Z" fill="#ebebeb"/>
          <path id="Trazado_118519" data-name="Trazado 118519" d="M210.15,32.048v.873l2.457,1.414v-.873Z" fill="#fff"/>
          <path id="Trazado_118520" data-name="Trazado 118520" d="M190.288,13.7l-.379.528,2.125,2.646.379-.535Z" fill="#fff"/>
          <path id="Trazado_118521" data-name="Trazado 118521" d="M214.684,35.1c0,8.98-6.382,12.6-14.211,8.12s-14.11-15.477-14.09-24.457,6.382-12.6,14.211-8.121S214.711,26.12,214.684,35.1Zm-20.573-8.669a.847.847,0,0,0,.352.46.315.315,0,0,0,.149.047l6.009.474a.2.2,0,0,0,.224-.088l3.932-6.666a.756.756,0,0,0-.339-.819c-.135-.074-.27-.068-.338.047l-3.864,6.558-5.922-.467c-.189,0-.284.19-.2.46m11.559-5.887,1.232-1.733-.677-.812-1.184,1.753.676.812m.508,21.913.677-.054-1.286-3.181-.677.054,1.218,3.154M190.247,28.32l2.132-.183-.372-.975-2.139.183.379.975m20.532,11.856.379-.535-2.125-2.646-.379.535,2.125,2.646M190.288,13.668l-.379.528,2.125,2.646.379-.534-2.125-2.64M209.067,26.7l2.132-.182-.379-.968-2.132.176.379.974M194.856,11.408l-.677.054,1.218,3.154.677-.054-1.225-3.154m-.061,24.457,1.238-1.739-.676-.805-1.239,1.732.677.812m-3.871-14.076v-.846l-2.456-1.414V20.4l2.456,1.421M212.606,33.47l-2.456-1.422v.873l2.456,1.415V33.47m-12.485,7.119.751.433V38.2l-.751-.44v2.829m.832-27.313-.751-.433V15.7l.751.44V13.31" fill="#e0e0e0"/>
          <path id="Trazado_118522" data-name="Trazado 118522" d="M200.2,12.843l-.007,2.822.751.44.014-2.829Z" fill="#fff"/>
          <path id="Trazado_118523" data-name="Trazado 118523" d="M206.279,18l-1.238,1.732.656.812,1.232-1.732Z" fill="#fff"/>
          <path id="Trazado_118524" data-name="Trazado 118524" d="M210.82,25.552l-2.132.176.379.975,2.132-.183Z" fill="#fff"/>
          <path id="Trazado_118525" data-name="Trazado 118525" d="M209.033,37l-.379.535,2.125,2.646.379-.535Z" fill="#fff"/>
          <path id="Trazado_118526" data-name="Trazado 118526" d="M205.643,39.249l-.656.054,1.218,3.154.656-.054Z" fill="#fff"/>
          <path id="Trazado_118527" data-name="Trazado 118527" d="M200.128,37.76l-.007,2.829.751.433.007-2.822Z" fill="#fff"/>
          <path id="Trazado_118528" data-name="Trazado 118528" d="M195.377,33.321l-1.238,1.732.65.812,1.238-1.739Z" fill="#fff"/>
          <path id="Trazado_118529" data-name="Trazado 118529" d="M192,27.162l-2.132.183.379.975,2.132-.183Z" fill="#fff"/>
          <path id="Trazado_118530" data-name="Trazado 118530" d="M188.461,19.529V20.4l2.457,1.421v-.873Z" fill="#fff"/>
          <path id="Trazado_118531" data-name="Trazado 118531" d="M194.856,11.408l-.65.054,1.218,3.154.656-.054Z" fill="#fff"/>
          <path id="Trazado_118532" data-name="Trazado 118532" d="M200.534,26.526a.318.318,0,0,0-.149-.047h-.122l-5.922-.467c-.189,0-.284.189-.2.46a.847.847,0,0,0,.352.46.316.316,0,0,0,.149.048l6.01.473h0c.189,0,.277-.182.2-.453A.819.819,0,0,0,200.534,26.526Z" fill="#fff"/>
          <path id="Trazado_118533" data-name="Trazado 118533" d="M204.465,19.833c-.135-.074-.27-.067-.338.048l-3.864,6.557h.122a.32.32,0,0,1,.149.048.81.81,0,0,1,.345.46c.081.271,0,.474-.2.453h0a.2.2,0,0,0,.224-.088l3.932-6.666a.675.675,0,0,0-.17-.676A.682.682,0,0,0,204.465,19.833Z" fill="#f5f5f5"/>
          <path id="Trazado_118534" data-name="Trazado 118534" d="M210.224,46.152l.224-.176a2.487,2.487,0,0,0,.237-.21c.074-.061.148-.122.216-.19l.223-.23.2-.216a2.386,2.386,0,0,0,.21-.251c.061-.074.129-.149.19-.23s.128-.182.189-.27.122-.163.176-.251.122-.2.176-.3.115-.176.163-.264.108-.209.162-.318l.149-.284.142-.338c.041-.1.088-.2.129-.3s.087-.244.128-.365.081-.21.115-.312.075-.257.108-.385.068-.217.1-.332.068-.264.1-.4l.081-.352a2.424,2.424,0,0,1,.075-.433l.06-.352.061-.5.041-.318.041-.575V36.833c0-.44,0-.88-.041-1.354h0a.423.423,0,0,1,0-.087c-.034-.495-.074-.995-.142-1.5h0V33.72l-.122-.819h0a2.319,2.319,0,0,0-.074-.413h0c-.041-.2-.075-.4-.115-.6h0v-.095a30.445,30.445,0,0,0-.907-3.343h0a34.543,34.543,0,0,0-1.76-4.311l-.04-.088h0c-.393-.791-.806-1.576-1.252-2.341h0l-.122-.21h0c-.2-.345-.413-.677-.623-1.015l-.149-.237h0c-.582-.9-1.191-1.766-1.84-2.6h0A30.2,30.2,0,0,0,204.7,15.3h0c-.263-.284-.534-.555-.805-.832h0l-.135-.122c-.352-.352-.711-.677-1.083-1.015h-.041c-.379-.338-.771-.677-1.164-.975h0l-.209-.169h0c-.373-.284-.745-.555-1.131-.812h0l-.04-.034c-.244-.162-.487-.324-.731-.473s-.42-.264-.636-.386c-.325-.19-.677-.359-.968-.521h0a15.95,15.95,0,0,0-2.89-1.137h0l-.263-.068-.42-.1h0l-.291-.054-.393-.068h-.318l-.5-.054h-.2a9.42,9.42,0,0,0-1.089,0h-.156a4.4,4.4,0,0,0-.677.074h0a7.126,7.126,0,0,0-.947.2H189.5c-.21.068-.413.142-.616.224h0l-.1.04c-.277.122-.555.251-.818.4h0l3.749-2.179.081-.047.1-.054c.183-.095.373-.19.562-.271a.777.777,0,0,1,.108-.054h.088q.339-.135.677-.244h0a7.432,7.432,0,0,1,.765-.176h.21a6.113,6.113,0,0,1,.676-.081h.149a7.72,7.72,0,0,1,.887,0h.582a3.98,3.98,0,0,1,.622.075h0l.677.128.217.054.439.109h.041c.271.074.548.155.826.25l.169.068c.223.074.447.162.677.257l.094.034.17.074c.236.1.48.217.724.332l.277.135c.318.162.677.332.968.521s.8.487,1.2.758l.2.135c.379.258.758.528,1.131.813l.209.169c.379.3.752.6,1.117.927a.567.567,0,0,1,.1.088c.358.311.676.636,1.049.974l.1.095.068.068c.264.257.521.521.778.8l.041.041c.243.264.48.528.717.8l.068.075.081.1c.386.447.765.9,1.13,1.354v.04a1.231,1.231,0,0,1,.081.109q.441.568.853,1.157l.088.115a.279.279,0,0,1,.034.061c.27.372.528.758.778,1.15a.675.675,0,0,0,.074.109l.1.176c.2.318.4.676.6.967l.087.149a.208.208,0,0,1,0,.061c.224.379.434.758.637,1.137l.047.095.1.189.467.921c0,.061.061.128.1.189s.034.081.054.115c.183.393.366.785.535,1.178h0a1.043,1.043,0,0,0,.047.121c.156.359.3.718.44,1.076,0,.061.048.116.075.176a.792.792,0,0,1,.047.149c.162.42.318.846.46,1.273h0v.074q.224.677.406,1.353l.048.17a.433.433,0,0,1,0,.088c.135.514.264,1.022.372,1.529a1.012,1.012,0,0,1,0,.135l.04.2c.041.2.075.4.115.6s.048.277.075.42.061.412.088.615a2.44,2.44,0,0,0,.047.291.313.313,0,0,0,0,.075c.054.44.1.88.129,1.313V33.4c0,.447.047.887.047,1.354,0,4.825-1.719,8.215-4.459,9.812l-3.75,2.179.237-.155c.081-.048.163-.095.237-.149Z" fill="#ebebeb"/>
          <path id="Trazado_118535" data-name="Trazado 118535" d="M183.365,19.19c0,9.7,6.767,21.527,15.247,26.393,4.371,2.524,8.323,2.707,11.118.914a2.8,2.8,0,0,0,.237-.149l.257-.19.224-.176a2.346,2.346,0,0,0,.237-.209c.074-.061.148-.122.216-.19l.223-.23.2-.217a2.277,2.277,0,0,0,.21-.25c.061-.074.129-.149.19-.23s.128-.183.189-.271.122-.162.176-.25.122-.2.176-.3.115-.176.163-.264.108-.21.162-.318l.149-.284.142-.338c.041-.1.088-.2.129-.3s.087-.244.128-.366.081-.209.115-.311.075-.257.108-.386.068-.216.1-.331.068-.264.1-.4l.081-.351a2.434,2.434,0,0,1,.075-.434l.06-.351.061-.5.041-.318.041-.576V36.84c0-.44,0-.88-.041-1.354V35.4c-.034-.494-.074-.995-.142-1.5v-.169l-.122-.819a2.319,2.319,0,0,0-.074-.413c-.027-.142-.075-.4-.115-.6V31.8a30.385,30.385,0,0,0-.907-3.343h0a34.543,34.543,0,0,0-1.76-4.311l-.04-.088c-.393-.792-.806-1.577-1.252-2.341l-.122-.21c-.2-.345-.413-.677-.623-1.015l-.149-.237c-.582-.9-1.191-1.766-1.84-2.6h0a30.374,30.374,0,0,0-2.031-2.348h0c-.263-.284-.534-.555-.805-.832l-.135-.122c-.352-.352-.711-.677-1.083-1.015h-.041c-.379-.339-.771-.677-1.164-.975a2.51,2.51,0,0,1-.216-.169c-.372-.284-.745-.555-1.13-.812l-.041-.034c-.244-.162-.487-.325-.731-.474s-.419-.264-.636-.385c-.325-.19-.677-.359-.968-.521h0a15.868,15.868,0,0,0-2.889-1.137l-.278-.068-.419-.1a1.645,1.645,0,0,1-.3-.06l-.392-.068-.318-.041-.5-.054h-.2a9.908,9.908,0,0,0-1.09,0h-.176a4.4,4.4,0,0,0-.677.075h0a7.125,7.125,0,0,0-.947.2h-.115c-.21.067-.413.142-.616.223l-.108.041a8.843,8.843,0,0,0-.819.4C185.09,10.961,183.378,14.345,183.365,19.19ZM193.1,39.817l-.041-.047c-.223-.237-.439-.481-.676-.731l-.142-.162c-.359-.413-.677-.833-1.043-1.266l-.108-.142c-.271-.352-.528-.677-.785-1.069l-.115-.156c-.244-.352-.48-.677-.711-1.069-.06-.088-.115-.176-.169-.264-.189-.291-.372-.6-.548-.9a1.748,1.748,0,0,1-.115-.19c-.2-.345-.4-.676-.589-1.048l-.135-.271c-.149-.278-.291-.562-.433-.846l-.136-.284c-.175-.359-.338-.718-.5-1.083l-.061-.156c-.142-.331-.278-.676-.406-.988l-.115-.3c-.149-.392-.291-.785-.42-1.177a.153.153,0,0,0-.034-.095c-.135-.406-.257-.812-.372-1.218l-.061-.23c-.135-.474-.25-.947-.352-1.414a1.223,1.223,0,0,0-.067-.312l-.1-.555a3.376,3.376,0,0,0-.061-.352c-.013-.121-.067-.4-.1-.6s-.033-.223-.047-.338c-.054-.406-.088-.812-.122-1.212v-.257c0-.412-.04-.825-.04-1.231V18.73a1.979,1.979,0,0,1,.04-.487c.041-.156,0-.2.034-.305s0-.311.054-.46a1.016,1.016,0,0,0,.054-.311c.014-.1.048-.277.075-.413s.047-.21.067-.318.061-.25.088-.379.061-.2.088-.3.068-.237.109-.352l.1-.3c.041-.108.075-.223.122-.332s.081-.182.115-.277.088-.21.135-.311.088-.176.136-.264.1-.2.149-.291l.149-.244.162-.277.162-.23c.061-.082.115-.17.183-.251s.115-.142.176-.216.122-.156.19-.231.128-.135.189-.2l.2-.209.2-.183.217-.19.216-.162.23-.169.224-.149A7.013,7.013,0,0,1,190.64,10c2.28-.487,5.041.048,8.019,1.767,7.809,4.507,14.13,15.443,14.1,24.423,0,3.384-.9,5.955-2.423,7.667a6.922,6.922,0,0,1-1.752,1.435h0l-.068.034c-.19.1-.386.2-.582.284l-.183.075q-.277.114-.568.2h-.1c-.23.061-.467.115-.676.162h-.183c-.21,0-.413.054-.629.075h-1.6l-.515-.061L203.152,46l-.311-.061a1.082,1.082,0,0,1-.243-.061l-.4-.1a14.5,14.5,0,0,1-1.543-.534l-.223-.095c-.277-.122-.548-.244-.826-.386a.545.545,0,0,1-.108-.054c-.3-.149-.6-.305-.9-.481s-.744-.453-1.11-.676h-.054c-.44-.3-.88-.616-1.306-.948l-.074-.054c-.366-.291-.731-.589-1.083-.907h-.034c-.332-.284-.677-.588-.968-.893l-.155-.156C193.583,40.318,193.34,40.061,193.1,39.817Z" fill="#fff"/>
        </g>
        <g id="freepik--Pictures--inject-45">
          <path id="Trazado_118536" data-name="Trazado 118536" d="M290.945,70.744l20.688,11.944L311.586,98.5,290.9,86.553Z" fill="none"/>
          <path id="Trazado_118537" data-name="Trazado 118537" d="M290.945,70.744,290.9,86.553l-1.915,1.117.047-18.021Z" fill="#f0f0f0"/>
          <path id="Trazado_118538" data-name="Trazado 118538" d="M311.586,98.5l-.007,2.213L288.99,87.669l1.915-1.117Z" fill="#f5f5f5"/>
          <path id="Trazado_118539" data-name="Trazado 118539" d="M286.662,88.989l27.231,15.721.068-23.341L286.736,65.648Zm2.328-1.354.047-18.028,1.908,1.1,20.688,11.985L311.586,98.5v2.213Z" fill="#e0e0e0"/>
          <path id="Trazado_118540" data-name="Trazado 118540" d="M286.729,65.648l1.915-1.11L315.87,80.259l-1.915,1.11Z" fill="#f5f5f5"/>
          <path id="Trazado_118541" data-name="Trazado 118541" d="M315.87,80.259l-.068,23.334-1.915,1.117.068-23.341Z" fill="#f0f0f0"/>
          <path id="Trazado_118542" data-name="Trazado 118542" d="M291.757,38.714l20.688,11.944-.047,15.8L291.717,54.523Z" fill="none"/>
          <path id="Trazado_118543" data-name="Trazado 118543" d="M291.757,38.714l-.041,15.809-1.922,1.11.054-18.021Z" fill="#f0f0f0"/>
          <path id="Trazado_118544" data-name="Trazado 118544" d="M312.4,66.46l-.007,2.22-22.6-13.047,1.922-1.11Z" fill="#f5f5f5"/>
          <path id="Trazado_118545" data-name="Trazado 118545" d="M287.5,56.979,314.726,72.7l.068-23.341L287.541,33.618Zm2.321-1.353.054-18.022,1.881,1.1,20.688,11.944-.047,15.8v2.219Z" fill="#e0e0e0"/>
          <path id="Trazado_118546" data-name="Trazado 118546" d="M287.541,33.618l1.915-1.117,27.225,15.721-1.915,1.117Z" fill="#f5f5f5"/>
          <path id="Trazado_118547" data-name="Trazado 118547" d="M316.682,48.222l-.068,23.341-1.915,1.11.068-23.334Z" fill="#f0f0f0"/>
          <path id="Trazado_118548" data-name="Trazado 118548" d="M297.523,76.747l-5.644,4.446-.014,4.338,18.759,10.828.014-4.338-3.573-7.1-3.208,2.49,1.13,3.526-1.644-3.127Z" fill="#e0e0e0"/>
          <path id="Trazado_118549" data-name="Trazado 118549" d="M303.682,78.933c-.88-.508-1.6-.1-1.6.92a3.494,3.494,0,0,0,1.6,2.754c.88.515,1.6.1,1.6-.913A3.521,3.521,0,0,0,303.682,78.933Z" fill="#e0e0e0"/>
          <path id="Trazado_118550" data-name="Trazado 118550" d="M298.329,44.717l-5.637,4.439-.014,4.338,18.759,10.835.014-4.338-3.573-7.106-3.215,2.5,1.137,3.526-1.644-3.133Z" fill="#e0e0e0"/>
          <path id="Trazado_118551" data-name="Trazado 118551" d="M304.494,46.9c-.887-.508-1.6-.1-1.6.913a3.5,3.5,0,0,0,1.59,2.761c.887.508,1.6.1,1.6-.913A3.5,3.5,0,0,0,304.494,46.9Z" fill="#e0e0e0"/>
        </g>
        <g id="freepik--speech-bubble--inject-45">
          <path id="Trazado_118552" data-name="Trazado 118552" d="M234.377,20.51l40.516,23.429a4.527,4.527,0,0,1,2.261,3.9v40.74a4.447,4.447,0,0,1-6.768,3.661L253.468,82.2l-.366.589-.054.054h-.04c-.677.44-1.821,1.063-2.078,1.2h0a.244.244,0,0,1-.3-.149l-1.475-4.182h0L229.843,68.87a4.5,4.5,0,0,1-2.267-3.905V24.171C227.576,20.923,232.354,19.346,234.377,20.51Z" fill="#fe7062"/>
          <path id="Trazado_118553" data-name="Trazado 118553" d="M270.887,46.673" fill="none"/>
          <path id="Trazado_118554" data-name="Trazado 118554" d="M253.041,82.79l-.054.054h-.04c-.677.44-1.821,1.063-2.078,1.2h0a.213.213,0,0,0,.149-.1l1.428-2.315-.284-.162h0l1.258.717Z" fill="#fff" opacity="0.2" style="isolation: isolate"/>
          <path id="Trazado_118555" data-name="Trazado 118555" d="M272.092,48.182a4.649,4.649,0,0,0-1.205-1.509h0a4.164,4.164,0,0,0-.548-.373L229.823,22.865a1.5,1.5,0,0,0-2.247,1.306c0-3.248,4.778-4.825,6.8-3.661l40.516,23.429a4.528,4.528,0,0,1,1.678,1.7Z" fill="#fff" opacity="0.4" style="isolation: isolate"/>
          <path id="Trazado_118556" data-name="Trazado 118556" d="M272.613,90.945V50.212a4.3,4.3,0,0,0-.508-2.03l4.48-2.545a4.513,4.513,0,0,1,.582,2.206v40.74a4.446,4.446,0,0,1-6.767,3.661,1.5,1.5,0,0,0,2.213-1.3Z" fill="#fff" opacity="0.2" style="isolation: isolate"/>
          <path id="Trazado_118557" data-name="Trazado 118557" d="M237.5,39.6l23.516,13.575L259.6,69.3c-.081.981-.839,1.353-1.739.812L239.845,59.686a3.3,3.3,0,0,1-.927-.846l.034.461a6.917,6.917,0,0,0,3.113,5.075l.792.453a3.1,3.1,0,0,1,.845.339,4.126,4.126,0,0,1,.846.677l8.439,4.872a2.8,2.8,0,0,1,.846.338,4.383,4.383,0,0,1,.846.637l1.793,1.035a1.528,1.528,0,0,1,.677,1.205c0,.439-.318.615-.677.4l-.142-.081a4.8,4.8,0,0,1,.312,1.671c0,1.787-1.266,2.511-2.829,1.611A6.215,6.215,0,0,1,251,72.666a2.487,2.487,0,0,1,.325-1.306l-5.156-2.978a5.026,5.026,0,0,1,.311,1.672c0,1.793-1.272,2.511-2.829,1.611a6.174,6.174,0,0,1-2.808-4.866,2.445,2.445,0,0,1,.358-1.354,10.206,10.206,0,0,1-3.668-6.767l-1.6-21.656a3.068,3.068,0,0,0-1.387-2.253l-2.91-1.685a1.532,1.532,0,0,1-.677-1.2c0-.447.318-.623.677-.4l2.91,1.678a6.167,6.167,0,0,1,2.768,4.514Zm12.31,22.948.033-12.912a2.083,2.083,0,0,0-.94-1.631c-.521-.3-.941-.061-.948.541l-.033,12.912a2.09,2.09,0,0,0,.94,1.611c.521.3.948.054.948-.541m4.06,2.355.034-12.912a2.084,2.084,0,0,0-.941-1.631c-.521-.3-.947-.061-.947.541V63.794a2.072,2.072,0,0,0,.94,1.631c.522.3.941.054.948-.541m4.06,2.355L258,54.327a2.085,2.085,0,0,0-.954-1.611c-.521-.3-.948-.061-.948.541l-.034,12.912a2.068,2.068,0,0,0,.982,1.638c.514.3.94.054.94-.541M245.753,60.2l.034-12.912a2.029,2.029,0,0,0-.941-1.631c-.521-.3-.941-.061-.947.541V59.111a2.091,2.091,0,0,0,.94,1.631c.521.3.948.054.948-.541m-4.061-2.355.041-12.913a2.1,2.1,0,0,0-.941-1.63c-.521-.3-.947-.061-.947.541l-.041,12.912a2.07,2.07,0,0,0,.941,1.624c.521.305.947.061.947-.534m2.031,9.372c-.582-.338-1.056-.067-1.063.6a2.342,2.342,0,0,0,1.056,1.827c.589.338,1.056.068,1.062-.6a2.32,2.32,0,0,0-1.055-1.828m10.151,5.868c-.582-.339-1.056-.068-1.056.6a2.313,2.313,0,0,0,1.049,1.827c.582.338,1.062.068,1.062-.609a2.329,2.329,0,0,0-1.055-1.82" fill="#fff"/>
          <path id="Trazado_118558" data-name="Trazado 118558" d="M267.747,53.521a2.042,2.042,0,0,1,.724.758c.4.677.4,1.435,0,1.658l-5.976,3.384a.718.718,0,0,1-.724-.075,2.113,2.113,0,0,1-.724-.758l-2.923-5.075c-.406-.677-.4-1.435,0-1.665a.73.73,0,0,1,.724.075,2.113,2.113,0,0,1,.724.758l2.213,3.857,5.251-2.991A.72.72,0,0,1,267.747,53.521Z" fill="#fff"/>
          <path id="Trazado_118559" data-name="Trazado 118559" d="M263.308,47.261a15.841,15.841,0,0,1,7.186,12.452c-.013,4.575-3.248,6.416-7.234,4.115a15.809,15.809,0,0,1-7.18-12.445C256.094,46.8,259.328,44.967,263.308,47.261Zm-.846,12.087,5.975-3.384c.406-.223.406-.967,0-1.658a2.034,2.034,0,0,0-.724-.758.717.717,0,0,0-.724-.074l-5.2,2.964-2.206-3.83a2.113,2.113,0,0,0-.724-.758.734.734,0,0,0-.725-.075c-.4.23-.406.968,0,1.665l2.924,5.076a2.118,2.118,0,0,0,.724.757.715.715,0,0,0,.724.075" fill="#91b3fa"/>
          <path id="Trazado_118560" data-name="Trazado 118560" d="M263.308,47.261a15.841,15.841,0,0,1,7.186,12.452c-.013,4.575-3.248,6.416-7.234,4.115a15.809,15.809,0,0,1-7.18-12.445C256.094,46.8,259.328,44.967,263.308,47.261Zm-.846,12.087,5.975-3.384c.406-.223.406-.967,0-1.658a2.034,2.034,0,0,0-.724-.758.717.717,0,0,0-.724-.074l-5.2,2.964-2.206-3.83a2.113,2.113,0,0,0-.724-.758.734.734,0,0,0-.725-.075c-.4.23-.406.968,0,1.665l2.924,5.076a2.118,2.118,0,0,0,.724.757.715.715,0,0,0,.724.075" fill="#fff" opacity="0.3" style="isolation: isolate"/>
        </g>
        <path id="Trazado_118561" data-name="Trazado 118561" d="M224.564,158.178c-6.679,4.643-14.211,7.851-19.781,14.07-10.415,11.612-10.658,30.3-2.476,43.588s23.4,21.263,38.9,23.09c16.242,1.922,33.316-2.571,46.072-12.858s20.871-26.291,20.864-42.634-8.391-32.673-22.1-41.619c-12.513-8.121-30.487-10.483-43.04-1.151-6.341,4.738-10.578,11.688-16.919,16.425C225.62,157.454,225.106,157.813,224.564,158.178Z" fill="#91b3fa"/>
        <path id="Trazado_118562" data-name="Trazado 118562" d="M224.564,158.178c-6.679,4.643-14.211,7.851-19.781,14.07-10.415,11.612-10.658,30.3-2.476,43.588s23.4,21.263,38.9,23.09c16.242,1.922,33.316-2.571,46.072-12.858s20.871-26.291,20.864-42.634-8.391-32.673-22.1-41.619c-12.513-8.121-30.487-10.483-43.04-1.151-6.341,4.738-10.578,11.688-16.919,16.425C225.62,157.454,225.106,157.813,224.564,158.178Z" opacity="0.2" style="isolation: isolate"/>
        <path id="Trazado_118563" data-name="Trazado 118563" d="M224.564,158.178c-6.679,4.643-14.211,7.851-19.781,14.07-10.415,11.612-10.658,30.3-2.476,43.588s23.4,21.263,38.9,23.09c16.242,1.922,33.316-2.571,46.072-12.858s20.871-26.291,20.864-42.634-8.391-32.673-22.1-41.619c-12.513-8.121-30.487-10.483-43.04-1.151-6.341,4.738-10.578,11.688-16.919,16.425C225.62,157.454,225.106,157.813,224.564,158.178Z" fill="#57dbd8"/>
        <path id="Trazado_118564" data-name="Trazado 118564" d="M227.312,226.238a2.707,2.707,0,0,1,.047-.332A17.6,17.6,0,0,1,241.6,211.275a55.492,55.492,0,0,0,18.271-6.991c3.986-2.409,7.756-5.366,12.229-6.672a19.943,19.943,0,0,1,13.183.764,15.294,15.294,0,0,0-15.355-3.9c3.559-5.461,6.7-11.335,7.931-17.737s.352-13.433-3.505-18.684a18.8,18.8,0,0,0-29.039-1.6c-3.824,4.183-5.976,10.07-8.486,15.146-1.807,3.647-3.668,7.383-6.646,10.151-4.48,4.2-10.936,5.705-15.565,9.718-5.272,4.554-7.545,11.829-7.566,18.793a55.141,55.141,0,0,0,2.03,13.893,52.732,52.732,0,0,0,19.071,11.66A20.658,20.658,0,0,1,227.312,226.238Z" opacity="0.1" style="isolation: isolate"/>
        <path id="Trazado_118565" data-name="Trazado 118565" d="M299.445,181.181a47.79,47.79,0,0,0-40.76-46.377,35.053,35.053,0,0,0-4.608.771,46.58,46.58,0,0,1,44.1,45.646c.3,15.234-7.153,30.765-19.937,41.538-10.016,8.446-23.32,14.049-37.951,16.059.311.048.629.088.94.122,1.313.156,2.633.264,3.959.338,12.994-2.524,24.762-7.877,33.837-15.565C292.13,212.689,299.75,196.793,299.445,181.181Z" fill="#fff"/>
        <path id="Trazado_118566" data-name="Trazado 118566" d="M221.411,237.438l1.678,3.322a9.166,9.166,0,0,0,2.795-3.959c-.765-2.706-1.658-5.461-2.1-6.8-.223,1.868-1.5,3.472-2.03,5.292A9.286,9.286,0,0,0,221.411,237.438Z" fill="#37474f"/>
        <path id="Trazado_118567" data-name="Trazado 118567" d="M221.492,240.842l1.6-.082-1.678-3.322C221.363,238.561,221.458,239.7,221.492,240.842Z" fill="#263238"/>
        <path id="Trazado_118568" data-name="Trazado 118568" d="M222.71,226.082a14.639,14.639,0,0,0-1.983-2.314,8.017,8.017,0,0,1-.034,4.432c-.494,1.922-1.394,3.729-1.847,5.664-.548,2.355-.42,4.886-1.421,7.093a7.587,7.587,0,0,1-5.313,4.236,3.342,3.342,0,0,1-2.531-.3,1.791,1.791,0,0,1-.676-.94,16.655,16.655,0,0,1-1.821,2.964c-.785,1.015-1.766,2.138-1.549,3.384a2.707,2.707,0,0,0,2.219,2.03,7.185,7.185,0,0,0,3.161-.264,19.7,19.7,0,0,0,6.327-2.579,9.472,9.472,0,0,0,4.02-5.413,12.145,12.145,0,0,0,.244-3.283c0-1.136-.129-2.28-.082-3.383a9.278,9.278,0,0,1,.332-2.146c.541-1.82,1.814-3.424,2.03-5.292,0-.1.034-.2.041-.3A6.089,6.089,0,0,0,222.71,226.082Z" fill="#455a64"/>
        <path id="Trazado_118569" data-name="Trazado 118569" d="M222.71,226.082a14.639,14.639,0,0,0-1.983-2.314,8.017,8.017,0,0,1-.034,4.432c-.494,1.922-1.394,3.729-1.847,5.664-.548,2.355-.42,4.886-1.421,7.093a7.587,7.587,0,0,1-5.313,4.236,3.342,3.342,0,0,1-2.531-.3,1.791,1.791,0,0,1-.676-.94,16.655,16.655,0,0,1-1.821,2.964c-.785,1.015-1.766,2.138-1.549,3.384a2.707,2.707,0,0,0,2.219,2.03,7.185,7.185,0,0,0,3.161-.264,19.7,19.7,0,0,0,6.327-2.579,9.472,9.472,0,0,0,4.02-5.413,12.145,12.145,0,0,0,.244-3.283c0-1.136-.129-2.28-.082-3.383a9.278,9.278,0,0,1,.332-2.146c.541-1.82,1.814-3.424,2.03-5.292,0-.1.034-.2.041-.3A6.089,6.089,0,0,0,222.71,226.082Z" opacity="0.1" style="isolation: isolate"/>
        <path id="Trazado_118570" data-name="Trazado 118570" d="M212.112,245.193a7.587,7.587,0,0,0,5.313-4.236c1-2.207.873-4.738,1.421-7.093.453-1.935,1.353-3.742,1.847-5.664a8.017,8.017,0,0,0,.034-4.432c-.189-.19-.379-.379-.575-.562-2.856,1.475-6.091,2.707-8.7,4.588a62.061,62.061,0,0,1-.636,9.962,23.517,23.517,0,0,1-1.929,6.192,1.787,1.787,0,0,0,.677.94A3.338,3.338,0,0,0,212.112,245.193Z" fill="#8a7262"/>
        <path id="Trazado_118571" data-name="Trazado 118571" d="M202.415,236.409a66.059,66.059,0,0,1-2.579,8.364s9.888.4,10.111-.054l2.9-4.493Z" fill="#a18573"/>
        <path id="Trazado_118572" data-name="Trazado 118572" d="M232.008,170.847,206.8,184.882a12.5,12.5,0,0,0-6.206,13.2l4.893,26.393-4.013,12.757c3.465,4.642,11.417,4.879,11.417,4.879,4.439-8.9,7.694-12.675,10.212-20.133s4.2-12.6,4.2-12.6l20.979-5.725a24.836,24.836,0,0,0,18.157-21.128c.358-3.167.372-5.326.372-5.326Z" fill="#455a64"/>
        <path id="Trazado_118573" data-name="Trazado 118573" d="M230.317,179.15a11.919,11.919,0,0,0,2.822,7.688l-15.9,9.928a12.8,12.8,0,0,0-5.454,7.106l-6.3,20.606,5.685-22.948a10.4,10.4,0,0,1,4.629-6.348l14.536-8.946A8.519,8.519,0,0,1,230.317,179.15Z" opacity="0.2" style="isolation: isolate"/>
        <path id="Trazado_118574" data-name="Trazado 118574" d="M205.2,257.564l.23,3.708a9.11,9.11,0,0,0,4.128-2.538c.359-2.794.623-5.677.745-7.085-.948,1.631-2.748,2.606-3.959,4.06A8.678,8.678,0,0,0,205.2,257.564Z" fill="#37474f"/>
        <path id="Trazado_118575" data-name="Trazado 118575" d="M203.937,260.717l1.5.555-.23-3.708C204.716,258.572,204.35,259.662,203.937,260.717Z" fill="#263238"/>
        <path id="Trazado_118576" data-name="Trazado 118576" d="M210.854,247.622a14.922,14.922,0,0,0-.907-2.9,8.056,8.056,0,0,1-1.773,4.061c-1.211,1.57-2.754,2.876-3.925,4.473-1.435,1.956-2.315,4.331-4.094,5.962a7.609,7.609,0,0,1-6.558,1.814,3.346,3.346,0,0,1-2.2-1.279,1.808,1.808,0,0,1-.271-1.137,16.935,16.935,0,0,1-2.836,2.03c-1.123.629-2.47,1.272-2.767,2.524a2.706,2.706,0,0,0,1.245,2.707,7.169,7.169,0,0,0,3,1,19.668,19.668,0,0,0,6.835.115,9.413,9.413,0,0,0,5.807-3.384,12.164,12.164,0,0,0,1.523-2.924c.412-1.055.778-2.145,1.265-3.153a8.655,8.655,0,0,1,1.144-1.848c1.211-1.461,3.011-2.436,3.959-4.06.047-.081.108-.162.155-.257A6.093,6.093,0,0,0,210.854,247.622Z" fill="#455a64"/>
        <path id="Trazado_118577" data-name="Trazado 118577" d="M193.6,261.035a7.605,7.605,0,0,0,6.558-1.813c1.779-1.631,2.659-4.007,4.094-5.962,1.171-1.6,2.707-2.9,3.925-4.474a8.053,8.053,0,0,0,1.773-4.06l-.305-.744c-3.207.237-6.672.081-9.806.8a61.182,61.182,0,0,1-4.5,8.906,23.155,23.155,0,0,1-4.209,4.94,1.805,1.805,0,0,0,.271,1.137A3.341,3.341,0,0,0,193.6,261.035Z" fill="#a18573"/>
        <path id="Trazado_118578" data-name="Trazado 118578" d="M257.887,133.579a40.141,40.141,0,0,0,.677-30.047c-1.178-3.072-2.843-6.091-5.57-7.965-3.492-2.355-8.006-2.321-12.215-2.2a20.9,20.9,0,0,0-6.612.907,6.816,6.816,0,0,0-4.365,4.6c-2.754-.507-5.529,1.665-6.273,4.365a9.2,9.2,0,0,0,1.942,7.857,22.64,22.64,0,0,0,6.47,5.265,7.127,7.127,0,0,0-3.018,4.061,6.4,6.4,0,0,0,.331,4.737,6.342,6.342,0,0,0-5.908,4.209,7.975,7.975,0,0,0,1.428,7.173,11.6,11.6,0,0,0,6.334,3.966,21.663,21.663,0,0,0,7.566.406c2.612,2.531,7.4,2.477,10.679.907S256.432,136.909,257.887,133.579Z" fill="#263238"/>
        <path id="Trazado_118579" data-name="Trazado 118579" d="M234.506,127.224h-.643c-4.3.048-9.738,2.978-12.4,10.476l-10.327,20.005,11.789,5.224,6.449-18.881Z" fill="#a18573"/>
        <path id="Trazado_118580" data-name="Trazado 118580" d="M226.222,140.5a26.718,26.718,0,0,0-1,7.444c-.129,2.538-.42,5.509-1.563,7.735a7.1,7.1,0,0,0-8.5.311,6.556,6.556,0,0,0-1.909,2.707l9.678,4.291,6.449-18.881L232.55,133.7A12.074,12.074,0,0,0,226.222,140.5Z" fill="#8a7262"/>
        <path id="Trazado_118581" data-name="Trazado 118581" d="M223.035,159.329a7.025,7.025,0,0,0-5.333-4.311,7.483,7.483,0,0,0-6.564,2.707c-1.286,1.55-1.083,3.654-.271,5.5a6.863,6.863,0,0,0,7.864,3.722C221.776,166.089,224.185,162.273,223.035,159.329Z" fill="#a18573"/>
        <path id="Trazado_118582" data-name="Trazado 118582" d="M235.588,126.859c-4.547.724-7.369,12.229-8.845,16.6-1.529,4.514.549,7.79,2.863,10.517h0a4.669,4.669,0,0,1,1.063,3.614l-4.751,17.777c13.061,9.7,34.96,5,40.9,1.834a41.969,41.969,0,0,0-3.837-18,29.644,29.644,0,0,1-2.9-11.646l-.223-6.524,1.577-11.261L250.1,127.062l-10-.447A39.813,39.813,0,0,0,235.588,126.859Z" fill="#91b3fa"/>
        <path id="Trazado_118583" data-name="Trazado 118583" d="M235.588,126.859c-4.547.724-7.369,12.229-8.845,16.6-1.529,4.514.549,7.79,2.863,10.517h0a4.669,4.669,0,0,1,1.063,3.614l-4.751,17.777c13.061,9.7,34.96,5,40.9,1.834a41.969,41.969,0,0,0-3.837-18,29.644,29.644,0,0,1-2.9-11.646l-.223-6.524,1.577-11.261L250.1,127.062l-10-.447A39.813,39.813,0,0,0,235.588,126.859Z" fill="#91b3fa"/>
        <g id="Grupo_55893" data-name="Grupo 55893">
          <path id="Trazado_118584" data-name="Trazado 118584" d="M227.137,163.277l-.265-.562v-.094l-.045-.063v-.064l-.044.032-.1-.212-.045-.063v-.136l-.154-.135h-.217l-.063-.045h-.072L212.665,153.9h-.9a.277.277,0,0,0-.181.072l-1.408,1.616h.045c-.117.09-.126.279.045.6l7.04,13.11h0l3.25,6.052a6.646,6.646,0,0,0,2.274,2.149l8.369,4.711h0l3.464,1.95c.605.343.975.352,1.029.1v.108l1.418-1.615a.224.224,0,0,0,0-.073.167.167,0,0,0,0-.063l.054-.352v-.316Z" fill="#455a64"/>
          <path id="Trazado_118585" data-name="Trazado 118585" d="M226.872,162.783l-1.571,1.552,9.547,17.763h2.313v-.153Z" fill="#fff" opacity="0.15" style="isolation: isolate"/>
          <path id="Trazado_118586" data-name="Trazado 118586" d="M226.565,162.3l-.054-.054-.045-.063v-.136h0l-.153-.135H226.1l-.063-.045h-.072l-13.3-7.97h-.9a.277.277,0,0,0-.181.072l-1.408,1.616c.066-.073.184-.091.352-.055h0a2.54,2.54,0,0,1,.65.271l11.833,6.661a4.805,4.805,0,0,1,.677.443h0a7.689,7.689,0,0,1,.65.559h0a5.731,5.731,0,0,1,.559.6h0a3.435,3.435,0,0,1,.389.56l1.417-1.616v-.451l-.045-.064v-.063" fill="#fff" opacity="0.2" style="isolation: isolate"/>
        </g>
        <path id="Trazado_118587" data-name="Trazado 118587" d="M265.791,133.532c-1.259-2.159-2.91-3.817-5.414-4.007,0,0-4.06,2.112-4.06,11.694l.271,23.977h0c-.589.237-1.178.487-1.76.731A71.761,71.761,0,0,1,239.4,170.59a15.235,15.235,0,0,0-9.731-3.3l1.306,2.436c-2.477,1.591-8.08-1.272-8.08-1.272-.413,3.492,1.854,7.119,4.859,8.953s31.657-.859,37.734-4.791c4-2.585,3.052-27.306,3.052-27.306A20.675,20.675,0,0,0,265.791,133.532Z" fill="#a18573"/>
        <path id="Trazado_118588" data-name="Trazado 118588" d="M213.175,161.2a16.582,16.582,0,0,0-.325,2.862,10.484,10.484,0,0,0,2.761,6.131,3.118,3.118,0,0,0,1.191.84,1.356,1.356,0,0,0,1.354-.217,2.078,2.078,0,0,0,.48-1.441,7.639,7.639,0,0,0-.128-2.322,3.219,3.219,0,0,0-1.225-1.928,6.917,6.917,0,0,0-1.55-.677,3.782,3.782,0,0,1-1.353-1Z" fill="#a18573"/>
        <path id="Trazado_118589" data-name="Trazado 118589" d="M240.068,122.169v9.055a4.85,4.85,0,0,0-1.82,3,3.127,3.127,0,0,0,1.617,2.822,4.41,4.41,0,0,0,3.33.325,7.6,7.6,0,0,0,2.944-1.706,12.235,12.235,0,0,0,3.925-8.594v-9.183Z" fill="#a18573"/>
        <path id="Trazado_118590" data-name="Trazado 118590" d="M249.678,117.886c-.947,4.98-2.89,9.3-9.61,10.827v-6.578Z" fill="#8a7262"/>
        <path id="Trazado_118591" data-name="Trazado 118591" d="M247.33,112.648a9.848,9.848,0,0,0,0,2.4,2.843,2.843,0,0,0,.859,1.57,1.8,1.8,0,0,0,1.638.413,3.133,3.133,0,0,1,6.016-1.733,3.912,3.912,0,0,1-.521,3.283,7.441,7.441,0,0,1-2.524,2.287,2.647,2.647,0,0,1-3.208-1.11c-2.89,3.986-8.08,7.1-13.068,6.883a7.13,7.13,0,0,1-3.837-1.178c-1.935-1.353-2.165-3.566-2.49-5.732a30.513,30.513,0,0,1-.278-8.27,16.174,16.174,0,0,1,4.819-10.151C236.746,109.447,244.42,112.16,247.33,112.648Z" fill="#a18573"/>
        <path id="Trazado_118592" data-name="Trazado 118592" d="M236.935,112.133l-3.235,4.338,3.214.961Z" fill="#8a7262"/>
        <path id="Trazado_118593" data-name="Trazado 118593" d="M239.906,119.361l-2.619.947a1.644,1.644,0,0,0,1.834.731A1.475,1.475,0,0,0,239.906,119.361Z" fill="#ab6160"/>
        <path id="Trazado_118594" data-name="Trazado 118594" d="M239.906,119.361l-2.619.947a1.644,1.644,0,0,0,1.834.731A1.475,1.475,0,0,0,239.906,119.361Z" opacity="0.3" style="isolation: isolate"/>
        <path id="Trazado_118595" data-name="Trazado 118595" d="M238.248,121.032a1.526,1.526,0,0,0,.873,0,1.355,1.355,0,0,0,.8-1.238,1.509,1.509,0,0,0-1.672,1.232Z" fill="#ab6160"/>
        <path id="Trazado_118596" data-name="Trazado 118596" d="M241.659,112.817a.947.947,0,1,1-.948-.948h.007a.941.941,0,0,1,.941.941Z" fill="#263238"/>
        <path id="Trazado_118597" data-name="Trazado 118597" d="M233.721,112.472a.951.951,0,1,1-.955-.955.955.955,0,0,1,.955.955Z" fill="#263238"/>
        <path id="Trazado_118598" data-name="Trazado 118598" d="M232.814,108.709l-2.1,1.441a1.354,1.354,0,0,1,.42-1.482A1.6,1.6,0,0,1,232.814,108.709Z" fill="#263238"/>
        <path id="Trazado_118599" data-name="Trazado 118599" d="M240.914,108.628l2.091,1.462a1.352,1.352,0,0,0-.4-1.489A1.6,1.6,0,0,0,240.914,108.628Z" fill="#263238"/>
      </g>
      <g id="freepik--character-2--inject-45">
        <path id="Trazado_118600" data-name="Trazado 118600" d="M129.029,30.672h0c-.536-1.892-4.381-5.492-8.211-5.416a3.305,3.305,0,0,0-1.072.215L45.452,67.715A7.016,7.016,0,0,0,42.6,70.779a7.1,7.1,0,0,0-.766,3.118V234.64c0,4.091,4.718,8,9.153,6.128h0a1.528,1.528,0,0,0,.292-.115l74.3-42.344a7.118,7.118,0,0,0,3.585-6.174V31.446A1.723,1.723,0,0,0,129.029,30.672Z" fill="#455a64"/>
        <path id="Trazado_118601" data-name="Trazado 118601" d="M52.193,90.9a3.539,3.539,0,0,1,1.792-3.064l69.024-39.272a1.777,1.777,0,0,1,2.658,1.532V179.7a3.577,3.577,0,0,1-1.793,3.064L54.881,222.109a1.778,1.778,0,0,1-2.658-1.532Z" fill="#91b3fa"/>
        <path id="Trazado_118602" data-name="Trazado 118602" d="M52.193,90.9a3.539,3.539,0,0,1,1.792-3.064l69.024-39.272a1.777,1.777,0,0,1,2.658,1.532V179.7a3.577,3.577,0,0,1-1.793,3.064L54.881,222.109a1.778,1.778,0,0,1-2.658-1.532Z" opacity="0.2" style="isolation: isolate"/>
        <path id="Trazado_118603" data-name="Trazado 118603" d="M52.193,90.9a3.539,3.539,0,0,1,1.792-3.064l69.024-39.272a1.777,1.777,0,0,1,2.658,1.532V179.7a3.577,3.577,0,0,1-1.793,3.064L54.881,222.109a1.778,1.778,0,0,1-2.658-1.532Z" fill="#91b3fa" opacity="0.1" style="isolation: isolate"/>
        <path id="Trazado_118604" data-name="Trazado 118604" d="M41.859,73.912V234.64c0,4.091,4.719,8,9.154,6.128h0a1.761,1.761,0,0,1-2.367-1.654V78.355A7.087,7.087,0,0,1,49.9,74.433l-7.3-3.654A7.1,7.1,0,0,0,41.859,73.912Z" opacity="0.3" style="isolation: isolate"/>
        <path id="Trazado_118605" data-name="Trazado 118605" d="M120.826,25.249a3.31,3.31,0,0,0-1.073.214l-74.3,42.252A7.016,7.016,0,0,0,42.6,70.779l7.3,3.654a7.074,7.074,0,0,1,2.4-2.3l74.3-42.267a1.763,1.763,0,0,1,2.406.649c.022.038.042.077.061.117h0C128.5,28.772,124.656,25.172,120.826,25.249Z" fill="#fff" opacity="0.1" style="isolation: isolate"/>
        <path id="Trazado_118606" data-name="Trazado 118606" d="M98.1,56.44c.528-.3.957-.061.957.536a2.127,2.127,0,0,1-.95,1.647L83.552,67.049c-.52.306-.942.054-.942-.552a2.076,2.076,0,0,1,.935-1.623Z" fill="#263238"/>
        <path id="Trazado_118607" data-name="Trazado 118607" d="M79.768,67.018c.521-.3.943-.061.943.544a2.1,2.1,0,0,1-.943,1.639c-.52.3-.949.054-.949-.543A2.069,2.069,0,0,1,79.768,67.018Z" fill="#263238"/>
        <path id="Trazado_118608" data-name="Trazado 118608" d="M89.114,55.222C90.155,54.617,91,55.1,91,56.294a4.153,4.153,0,0,1-1.877,3.271c-1.042.6-1.907.115-1.907-1.087A4.167,4.167,0,0,1,89.114,55.222Z" fill="#263238"/>
        <path id="Trazado_118609" data-name="Trazado 118609" d="M89.114,206.528c2.129-1.225,3.829-.245,3.829,2.191a8.486,8.486,0,0,1-3.829,6.672c-2.122,1.226-3.884.222-3.892-2.221A8.487,8.487,0,0,1,89.114,206.528Z" fill="#263238"/>
        <path id="Trazado_118610" data-name="Trazado 118610" d="M125.437,46.528l25.094,20.827-9.146,5.285L116.3,51.813Z" fill="#91b3fa"/>
        <path id="Trazado_118611" data-name="Trazado 118611" d="M107.153,57.1l25.086,20.82L123.093,83.2,98.014,62.384Z" fill="#91b3fa"/>
        <path id="Trazado_118612" data-name="Trazado 118612" d="M98.014,62.384,123.093,83.2l-9.146,5.285L88.868,67.669Z" fill="#fff"/>
        <path id="Trazado_118613" data-name="Trazado 118613" d="M116.3,51.813l25.086,20.827-9.146,5.278L107.153,57.1Z" fill="#fff"/>
        <path id="Trazado_118614" data-name="Trazado 118614" d="M70.584,78.232l25.071,20.82-9.146,5.285L61.438,83.518Z" fill="#91b3fa"/>
        <path id="Trazado_118615" data-name="Trazado 118615" d="M88.868,67.669l25.079,20.82L104.8,93.767,79.722,72.947Z" fill="#91b3fa"/>
        <path id="Trazado_118616" data-name="Trazado 118616" d="M52.124,88.9l9.314-5.385,25.071,20.82-9.337,5.393Z" fill="#fff"/>
        <path id="Trazado_118617" data-name="Trazado 118617" d="M79.722,72.947,104.8,93.767l-9.146,5.285L70.584,78.232Z" fill="#fff"/>
        <path id="Trazado_118618" data-name="Trazado 118618" d="M150.531,67.355l-9.146,5.286h0a3.531,3.531,0,0,0,5.293,3.064h0a7.73,7.73,0,0,0,3.83-6.68Z" fill="#91b3fa"/>
        <path id="Trazado_118619" data-name="Trazado 118619" d="M141.385,72.641l-9.146,5.285h0a3.531,3.531,0,0,0,5.293,3.064h0a7.714,7.714,0,0,0,3.83-6.679Z" fill="#e0e0e0"/>
        <path id="Trazado_118620" data-name="Trazado 118620" d="M132.239,77.926,123.093,83.2h0a3.531,3.531,0,0,0,5.293,3.064h0a7.716,7.716,0,0,0,3.83-6.68Z" fill="#91b3fa"/>
        <path id="Trazado_118621" data-name="Trazado 118621" d="M123.093,83.2l-9.146,5.285h0a3.523,3.523,0,0,0,5.293,3.064h0a7.706,7.706,0,0,0,3.83-6.672Z" fill="#e0e0e0"/>
        <path id="Trazado_118622" data-name="Trazado 118622" d="M113.947,88.489l-9.146,5.27h0a3.531,3.531,0,0,0,5.293,3.064h0a7.713,7.713,0,0,0,3.83-6.679Z" fill="#91b3fa"/>
        <path id="Trazado_118623" data-name="Trazado 118623" d="M104.8,93.759l-9.146,5.278h0a3.531,3.531,0,0,0,5.293,3.064h0a7.729,7.729,0,0,0,3.83-6.68Z" fill="#e0e0e0"/>
        <path id="Trazado_118624" data-name="Trazado 118624" d="M95.655,99.052l-9.146,5.285h0A3.523,3.523,0,0,0,91.8,107.4h0a7.658,7.658,0,0,0,3.83-6.679Z" fill="#91b3fa"/>
        <path id="Trazado_118625" data-name="Trazado 118625" d="M150.531,67.355l-9.146,5.286h0a3.531,3.531,0,0,0,5.293,3.064h0a7.73,7.73,0,0,0,3.83-6.68Z" opacity="0.2" style="isolation: isolate"/>
        <path id="Trazado_118626" data-name="Trazado 118626" d="M132.239,77.926,123.093,83.2h0a3.531,3.531,0,0,0,5.293,3.064h0a7.716,7.716,0,0,0,3.83-6.68Z" opacity="0.2" style="isolation: isolate"/>
        <path id="Trazado_118627" data-name="Trazado 118627" d="M113.947,88.489l-9.146,5.27h0a3.531,3.531,0,0,0,5.293,3.064h0a7.713,7.713,0,0,0,3.83-6.679Z" opacity="0.2" style="isolation: isolate"/>
        <path id="Trazado_118628" data-name="Trazado 118628" d="M95.655,99.052l-9.146,5.285h0A3.523,3.523,0,0,0,91.8,107.4h0a7.658,7.658,0,0,0,3.83-6.679Z" opacity="0.2" style="isolation: isolate"/>
        <path id="Trazado_118629" data-name="Trazado 118629" d="M86.509,104.337,77.172,109.7h0a3.523,3.523,0,0,0,5.285,3.064h0a8.1,8.1,0,0,0,4.052-7.024Z" fill="#e0e0e0"/>
        <path id="Trazado_118630" data-name="Trazado 118630" d="M97.172,131.293a22.523,22.523,0,0,0-7.767,2.4,24.825,24.825,0,0,0-12.057,13.88,22.561,22.561,0,0,0-1.279,8.028,38.034,38.034,0,0,1,2.6-7.492,31.883,31.883,0,0,1,11.452-13.19A38.371,38.371,0,0,1,97.172,131.293Z" fill="#91b3fa"/>
        <path id="Trazado_118631" data-name="Trazado 118631" d="M90.017,171.4a14.248,14.248,0,0,1-4.373-.766,12.315,12.315,0,0,1-7.216-6.335,14.041,14.041,0,0,1-1.325-4.236,9.949,9.949,0,0,0,.59,4.55,10.722,10.722,0,0,0,7.736,6.787A9.961,9.961,0,0,0,90.017,171.4Z" fill="#91b3fa"/>
        <path id="Trazado_118632" data-name="Trazado 118632" d="M101.89,146.766a34.746,34.746,0,0,1-.092,6.128,31.024,31.024,0,0,1-4.412,12.976,34.687,34.687,0,0,1-3.669,4.94,19.182,19.182,0,0,0,4.6-4.32,22.29,22.29,0,0,0,4.6-13.512A19.21,19.21,0,0,0,101.89,146.766Z" fill="#91b3fa"/>
        <path id="Trazado_118633" data-name="Trazado 118633" d="M77.876,138.309a21.237,21.237,0,0,0-4.465,6.205A23.4,23.4,0,0,0,72.2,161.772a21.574,21.574,0,0,0,3.562,6.771,36.8,36.8,0,0,1-2.3-7.109,30.1,30.1,0,0,1,1.149-16.4A35.7,35.7,0,0,1,77.876,138.309Z" fill="#91b3fa"/>
        <path id="Trazado_118634" data-name="Trazado 118634" d="M107.137,139.213a11.788,11.788,0,0,0-2.175-5.8,12.594,12.594,0,0,0-12.777-5.185,11.909,11.909,0,0,0-5.6,2.65,15.965,15.965,0,0,1,5.745-1.578,13.864,13.864,0,0,1,11.788,4.78A15.916,15.916,0,0,1,107.137,139.213Z" fill="#91b3fa"/>
        <path id="Trazado_118635" data-name="Trazado 118635" d="M139.991,115.207h0a9.673,9.673,0,0,1,10.5,7.92l3.555,19.916,22.29,15.588-4.979,6.059-21.2-11.138a10.562,10.562,0,0,1-5.216-6.342l-6.833-23.049Z" fill="#f7ccb1"/>
        <path id="Trazado_118636" data-name="Trazado 118636" d="M148.263,136.609a10.337,10.337,0,0,0,4.5-4.726l-2-9.131a9.675,9.675,0,0,0-10.433-7.545l-.337.038-1.885,8.97,2.942,13.206A10.4,10.4,0,0,0,148.263,136.609Z" fill="#455a64"/>
        <path id="Trazado_118637" data-name="Trazado 118637" d="M148.263,136.609a10.4,10.4,0,0,1-7.215.812l.766,3.255c2.765.621,9.85.414,11.7-5.438l-.766-3.371A10.328,10.328,0,0,1,148.263,136.609Z" fill="#455a64"/>
        <path id="Trazado_118638" data-name="Trazado 118638" d="M148.263,136.609a10.337,10.337,0,0,0,4.5-4.726l-2-9.131a9.675,9.675,0,0,0-10.433-7.545l-.337.038-1.885,8.97,2.942,13.206A10.4,10.4,0,0,0,148.263,136.609Z" fill="#fff" opacity="0.2" style="isolation: isolate"/>
        <path id="Trazado_118639" data-name="Trazado 118639" d="M148.263,136.609a10.4,10.4,0,0,1-7.215.812l.766,3.255c2.765.621,9.85.414,11.7-5.438l-.766-3.371A10.328,10.328,0,0,1,148.263,136.609Z" fill="#fff" opacity="0.5" style="isolation: isolate"/>
        <path id="Trazado_118640" data-name="Trazado 118640" d="M144.924,123.778s-.889-6.779-4.933-8.548c0,0-9.682,2.9-17.71,5.952a92.954,92.954,0,0,0-9.315,3.983c-1.823,1.578-7.054,6.273-9.513,7.537a11.688,11.688,0,0,1-3.83,1.149h0a13.391,13.391,0,0,0-4.765,1.739c-7.368,4.259-13.32,14.554-13.3,23.033,0,5.554,2.6,8.916,6.457,9.384h.176a8.755,8.755,0,0,0,1.831,0c6.7-.062,17.449-.115,21.67-1.325C131.412,160.891,146.915,146.613,144.924,123.778Z" fill="#455a64"/>
        <path id="Trazado_118641" data-name="Trazado 118641" d="M126.134,121l2.888-5.24,11.62,7.829-4.6,6.174a7.74,7.74,0,0,1-6.235.253,7.933,7.933,0,0,1-4.213-4.719A5.535,5.535,0,0,1,126.134,121Z" fill="#f7ccb1"/>
        <path id="Trazado_118642" data-name="Trazado 118642" d="M130.109,116.486c0,6.312,5.018,9.269,8.082,10.387l2.451-3.286Z" opacity="0.2" style="isolation: isolate"/>
        <path id="Trazado_118643" data-name="Trazado 118643" d="M124.862,110.19a21.329,21.329,0,0,1-.375-7.622c.49-2.512,2.114-4.964,4.6-5.7a8.6,8.6,0,0,1,5.186-4.542,23.639,23.639,0,0,1,6.809-.828,33.044,33.044,0,0,1,7.584.422,11.216,11.216,0,0,1,6.495,3.684,10.817,10.817,0,0,1,1.885,8.319,24.323,24.323,0,0,1-3.149,8.142c-4.871.345-9.835.9-14.707,1.249a39.311,39.311,0,0,1-7.468.069A13.893,13.893,0,0,1,124.862,110.19Z" fill="#263238"/>
        <path id="Trazado_118644" data-name="Trazado 118644" d="M154.69,98.508a41.642,41.642,0,0,1-2.39,22.252,8.076,8.076,0,0,1-3.025,4.19c-1.494.866-3.578.728-5.362.452a27.681,27.681,0,0,1-8.526-2.4,11.635,11.635,0,0,1-5.9-6.358,5.126,5.126,0,0,1-5.171-2.03,9.668,9.668,0,0,1-1.677-5.638c0-1.279.237-2.788,1.386-3.347s2.344.061,3.271.812a9.723,9.723,0,0,1,3.187,4.78c.842-3.118,2.152-6.128,2.995-9.192a5.343,5.343,0,0,1,1.815-3.24c1.3-.835,3-.36,4.512,0A29.63,29.63,0,0,0,154.69,98.508Z" fill="#f7ccb1"/>
        <path id="Trazado_118645" data-name="Trazado 118645" d="M145.621,107.953l3.638,6.12-4.336.82Z" fill="#f7a36f"/>
        <path id="Trazado_118646" data-name="Trazado 118646" d="M140.741,117l3.294,1.6a2.145,2.145,0,0,1-2.5.713A1.947,1.947,0,0,1,140.741,117Z" fill="#f28f8f"/>
        <path id="Trazado_118647" data-name="Trazado 118647" d="M140.741,117l3.294,1.6a2.145,2.145,0,0,1-2.5.713A1.947,1.947,0,0,1,140.741,117Z" opacity="0.3" style="isolation: isolate"/>
        <path id="Trazado_118648" data-name="Trazado 118648" d="M142.679,119.42a1.98,1.98,0,0,1-1.141-.107,1.747,1.747,0,0,1-.881-1.739,2.113,2.113,0,0,1,1.3.452A2.088,2.088,0,0,1,142.679,119.42Z" fill="#f28f8f"/>
        <path id="Trazado_118649" data-name="Trazado 118649" d="M139.34,108.2a1.248,1.248,0,1,0,1.366-1.118h0A1.247,1.247,0,0,0,139.34,108.2Z" fill="#263238"/>
        <path id="Trazado_118650" data-name="Trazado 118650" d="M149.788,108.841a1.131,1.131,0,1,0,0-.005Z" fill="#263238"/>
        <path id="Trazado_118651" data-name="Trazado 118651" d="M151.488,104.031l2.559,2.175a1.778,1.778,0,0,0-.345-2A2.107,2.107,0,0,0,151.488,104.031Z" fill="#263238"/>
        <path id="Trazado_118652" data-name="Trazado 118652" d="M141.3,103.863l-2.934,1.623a1.779,1.779,0,0,1,.727-1.892A2.117,2.117,0,0,1,141.3,103.863Z" fill="#263238"/>
        <path id="Trazado_118653" data-name="Trazado 118653" d="M157.019,101.028a101.757,101.757,0,0,1-32.172,0c.5-13.021,6.358-17.288,16.469-17.288S157.134,89.163,157.019,101.028Z" fill="#455a64"/>
        <path id="Trazado_118654" data-name="Trazado 118654" d="M157.019,101.028c0-4.986-.965-8.816-2.857-11.6l-4.236-1.187a13.976,13.976,0,0,0-6.128-.322l-4.037.674a6.427,6.427,0,0,0-5.362,5.6l-.927,7.859h0A102.323,102.323,0,0,0,157.019,101.028Z" fill="#455a64"/>
        <path id="Trazado_118655" data-name="Trazado 118655" d="M157.019,101.028c0-4.986-.965-8.816-2.857-11.6l-4.236-1.187a13.976,13.976,0,0,0-6.128-.322l-4.037.674a6.427,6.427,0,0,0-5.362,5.6l-.927,7.859h0A102.323,102.323,0,0,0,157.019,101.028Z" fill="#fff" opacity="0.29" style="isolation: isolate"/>
        <path id="Trazado_118656" data-name="Trazado 118656" d="M158.283,90.067h-1.869a15.647,15.647,0,0,0-1.8.069A24.847,24.847,0,0,0,139.845,96.4l-6.3,5.653a102.276,102.276,0,0,0,23.47-1.027l4.1-4.971a3.677,3.677,0,0,0-2.834-5.99Z" fill="#455a64"/>
        <path id="Trazado_118657" data-name="Trazado 118657" d="M158.283,90.067h-1.869a15.647,15.647,0,0,0-1.8.069A24.847,24.847,0,0,0,139.845,96.4l-6.3,5.653a102.276,102.276,0,0,0,23.47-1.027l4.1-4.971a3.677,3.677,0,0,0-2.834-5.99Z" opacity="0.2" style="isolation: isolate"/>
        <path id="Trazado_118658" data-name="Trazado 118658" d="M190.661,159.68,162.1,176.272l-28.74-16.591,28.549-16.6Z" fill="#91b3fa"/>
        <g id="Grupo_55895" data-name="Grupo 55895" opacity="0.3">
          <path id="Trazado_118659" data-name="Trazado 118659" d="M190.661,159.68,162.1,176.272l-28.74-16.591,28.549-16.6Z" fill="#fff"/>
        </g>
        <path id="Trazado_118660" data-name="Trazado 118660" d="M190.661,159.68l-.084,29.046-28.556,16.591.084-29.046Z" fill="#91b3fa"/>
        <g id="Grupo_55896" data-name="Grupo 55896" opacity="0.1">
          <path id="Trazado_118661" data-name="Trazado 118661" d="M190.661,159.68l-.084,29.046-28.556,16.591.084-29.046Z" fill="#fff"/>
        </g>
        <path id="Trazado_118662" data-name="Trazado 118662" d="M162.1,176.272l-.084,29.046-28.74-16.591.084-29.046Z" fill="#91b3fa"/>
        <path id="Trazado_118663" data-name="Trazado 118663" d="M167.076,157.551l9.667-5.906L171.81,148.8l-9.705,5.791Z" fill="#e0e0e0"/>
        <path id="Trazado_118664" data-name="Trazado 118664" d="M167.076,157.551l-4.971-2.964-9.858-5.883-4.918,2.857,9.8,5.99,4.979,3.041,13.144,8.043,5.27-3.064Z" fill="#fff"/>
        <path id="Trazado_118665" data-name="Trazado 118665" d="M157.126,157.551l-13.5,8.051,5.285,3.056,13.19-8.066Z" fill="#e0e0e0"/>
        <path id="Trazado_118666" data-name="Trazado 118666" d="M180.519,165.571l-5.27,3.064.046.023.077,28.9,5.331-3.095-.077-28.84Z" fill="#e0e0e0"/>
        <path id="Trazado_118667" data-name="Trazado 118667" d="M148.914,168.658l-5.285-3.056-.046.023-.084,29.008,5.331,3.072.084-29.046Z" fill="#fff"/>
        <path id="Trazado_118668" data-name="Trazado 118668" d="M148.914,168.658l-5.285-3.056-.046.023-.084,29.008,5.331,3.072.084-29.046Z" opacity="0.2" style="isolation: isolate"/>
        <path id="Trazado_118669" data-name="Trazado 118669" d="M162.09,166.329l-5.975,3.654,5.975,3.455,5.959-3.462Z" fill="#fff"/>
        <path id="Trazado_118670" data-name="Trazado 118670" d="M105.559,165.326s2.229-32.44,2.7-34.47c1.784-7.713,12.968-7.162,14.033.682.436,3.2-4.673,34.293-4.673,34.293l18.506,19.579,3.746,3.439,3.34-.674,7.614.72a.935.935,0,0,1,.827.766h0a.941.941,0,0,1-.689,1.1l-5.033,1.226,3.631,2.482a4.4,4.4,0,0,0,1.693.7l5.691,1.08a1.041,1.041,0,0,1,.85,1.1h0a1.048,1.048,0,0,1-.674.919l-3.064,1.142a14.728,14.728,0,0,1-12.256-.874l-6.587-3.661a16.344,16.344,0,0,1-2.719-1.838L108.876,173.5A9.245,9.245,0,0,1,105.559,165.326Z" fill="#f7ccb1"/>
        <path id="Trazado_118671" data-name="Trazado 118671" d="M121.99,152.894l2.367-17.618a9.21,9.21,0,1,0-18.284-2.237h0L104.1,151.017a22.033,22.033,0,0,0,17.894,1.854Z" fill="#455a64"/>
        <path id="Trazado_118672" data-name="Trazado 118672" d="M121.99,152.894l2.367-17.618a9.21,9.21,0,1,0-18.284-2.237h0L104.1,151.017a22.033,22.033,0,0,0,17.894,1.854Z" fill="#fff" opacity="0.2" style="isolation: isolate"/>
        <path id="Trazado_118673" data-name="Trazado 118673" d="M112.484,153.836a22.542,22.542,0,0,1-8.426-2.8l-.452,4.144c7.959,6.128,17.717,2.344,17.717,2.344l.629-4.634A22.482,22.482,0,0,1,112.484,153.836Z" fill="#455a64"/>
        <path id="Trazado_118674" data-name="Trazado 118674" d="M112.484,153.836a22.542,22.542,0,0,1-8.426-2.8l-.452,4.144c7.959,6.128,17.717,2.344,17.717,2.344l.629-4.634A22.482,22.482,0,0,1,112.484,153.836Z" fill="#fff" opacity="0.5" style="isolation: isolate"/>
      </g>
    </g>
  </g>
</svg>
