<svg xmlns="http://www.w3.org/2000/svg" width="78" height="78" viewBox="0 0 78 78">
  <g id="Grupo_55840" data-name="Grupo 55840" transform="translate(196)">
    <g id="Grupo_55841" data-name="Grupo 55841">
      <path id="Trazado_118241" data-name="Trazado 118241" d="M-153.452,61.681a4.693,4.693,0,0,0,2.736,4.263c2.665,1.54,7.4,2.307,12.133,2.307s9.467-.767,12.132-2.305c2.269-1.312,2.746-2.947,2.746-4.089-.733-8.881-2.957-11.049-6.823-14.131l-.13-.1a10.539,10.539,0,0,0,2.7-7.017,10.625,10.625,0,0,0-10.626-10.626A10.626,10.626,0,0,0-149.208,40.6a10.543,10.543,0,0,0,2.7,7.016l-.131.105C-150.5,50.808-152.727,52.976-153.452,61.681Zm22.9-21.076a8.038,8.038,0,0,1-8.029,8.029,8.038,8.038,0,0,1-8.029-8.029,8.038,8.038,0,0,1,8.029-8.029A8.038,8.038,0,0,1-130.553,40.6Zm-7.369,25.281s-1.351,0-1.573,0l3.71-4.715-3.506-8.381,1.816-2.6a19.384,19.384,0,0,0,5.353-1.542l1.236.944c3.489,2.66,4.451,4.509,5.338,10.847A3.239,3.239,0,0,1-127.61,64c-2.172.71-2.525.967-8.623,1.884Zm-13.412-2.875c.807-8.84,1.577-11.146,5.665-14.263l.275-.21,3.269,3.948-3.69,8.823,3.932,4.577C-147.142,65.379-150.8,63.756-151.334,63.011Z" fill="#fe7062"/>
      <path id="Trazado_118242" data-name="Trazado 118242" d="M-168.069,47.726l-.131-.105a10.543,10.543,0,0,0,2.7-7.016,10.626,10.626,0,0,0-10.626-10.626A10.625,10.625,0,0,0-186.75,40.6a10.539,10.539,0,0,0,2.7,7.017l-.13.1c-3.866,3.082-6.09,5.25-6.823,14.131,0,1.142.477,2.777,2.746,4.089,2.665,1.538,7.4,2.305,12.132,2.305s9.468-.767,12.133-2.307a4.693,4.693,0,0,0,2.736-4.263C-161.979,52.976-164.2,50.808-168.069,47.726Zm-8.055-15.15A8.038,8.038,0,0,1-168.1,40.6a8.038,8.038,0,0,1-8.029,8.029,8.038,8.038,0,0,1-8.029-8.029A8.038,8.038,0,0,1-176.124,32.576Zm-2.349,33.31c-6.1-.917-6.451-1.174-8.623-1.884a3.239,3.239,0,0,1-2.062-3.568c.887-6.338,1.849-8.187,5.338-10.847l1.236-.944a19.384,19.384,0,0,0,5.353,1.542l1.816,2.6-3.506,8.381,3.71,4.715c-.222,0-1.573,0-1.573,0Zm5.65,0,3.932-4.577-3.69-8.823,3.269-3.948.275.21c4.088,3.117,4.858,5.423,5.665,14.263C-163.907,63.756-167.564,65.379-172.823,65.886Z" fill="#fe7062"/>
      <circle id="Elipse_4188" data-name="Elipse 4188" cx="2.125" cy="2.125" r="2.125" transform="translate(-165.497 17.228)" fill="#fe7062"/>
      <circle id="Elipse_4189" data-name="Elipse 4189" cx="2.125" cy="2.125" r="2.125" transform="translate(-159.121 17.228)" fill="#fe7062"/>
      <circle id="Elipse_4190" data-name="Elipse 4190" cx="2.125" cy="2.125" r="2.125" transform="translate(-152.746 17.228)" fill="#fe7062"/>
      <path id="Trazado_118243" data-name="Trazado 118243" d="M-139.995,19.353c0-5.869-7.611-10.626-17-10.626s-17,4.757-17,10.626c0,4.459,4.4,8.277,10.627,9.854v5.022l6.376-4.25C-147.606,29.979-139.995,25.221-139.995,19.353ZM-157,27.578a4.579,4.579,0,0,0-2.773.956l-.614.466a5.042,5.042,0,0,0-2.886-2.283C-168.33,25.259-172,22.028-172,19.033c0-4.033,6.415-8.544,15-8.544s15,4.511,15,8.544S-148.414,27.578-157,27.578Z" fill="#fe7062"/>
    </g>
    <rect id="Rectángulo_29646" data-name="Rectángulo 29646" width="78" height="78" transform="translate(-196)" fill="none"/>
  </g>
</svg>
